<svg xmlns="http://www.w3.org/2000/svg" width="542.662" height="542.662" viewBox="0 0 542.662 542.662"><path d="M363.168 74.051c-18.537 0-36.429 2.368-53.263 6.759-28.03-11.01-59.299-17.199-92.283-17.199C97.627 63.61 0 145.123 0 245.312c0 53.143 27.281 102.827 75.141 137.387v96.354l99.845-55.573a260.474 260.474 0 0 0 42.63 3.54c59.479 0 113.439-20.042 152.763-52.445a213.32 213.32 0 0 0 26.909-2.607l84.34 46.938v-81.527c38.906-28.556 61.034-69.348 61.034-112.994.012-82.893-80.52-150.334-179.494-150.334zM217.622 397.736a231.223 231.223 0 0 1-42.508-3.968l-5.2-.973-65.497 36.452v-62.022l-6.504-4.346c-43.617-29.15-68.636-72.008-68.636-117.568 0-84.046 84.492-152.425 188.346-152.425 16.76 0 32.996 1.804 48.472 5.143-49.541 26.786-82.437 73.399-82.437 126.354 0 71.607 60.104 131.64 140.269 146.672-30.279 16.812-66.894 26.681-106.305 26.681zm241.243-80.143l-6.502 4.346v47.174L402.377 341.3l-.12.022-5.072.949a185.132 185.132 0 0 1-34.021 3.168c-1.225 0-2.425-.052-3.637-.074-81.162-1.572-146.593-55.214-146.593-120.982 0-51.133 39.568-94.93 95.313-112.642 14.197-4.509 29.437-7.33 45.355-8.145 3.167-.163 6.347-.269 9.565-.269 82.837 0 150.229 54.307 150.229 121.056.001 36.075-19.879 70.052-54.531 93.21z" fill="#FFF"/></svg>