<svg xmlns="http://www.w3.org/2000/svg" width="32" height="32" viewBox="0 0 32 32"><path d="M28.681 11.159c-.694-.947-1.662-2.053-2.724-3.116s-2.169-2.03-3.116-2.724C21.229 4.137 20.448 4 20 4H8.5A2.503 2.503 0 0 0 6 6.5v23C6 30.878 7.121 32 8.5 32h19c1.378 0 2.5-1.122 2.5-2.5V14c0-.448-.137-1.23-1.319-2.841zm-4.138-1.702A27.334 27.334 0 0 1 26.811 12H22V7.189a27.334 27.334 0 0 1 2.543 2.268zM28 29.5c0 .271-.229.5-.5.5h-19a.507.507 0 0 1-.5-.5v-23c0-.271.229-.5.5-.5H20v7a1 1 0 0 0 1 1h7v15.5z" fill="#FFF"/><path d="M18.841 1.319C17.229.137 16.448 0 16 0H4.5A2.503 2.503 0 0 0 2 2.5v23c0 1.207.86 2.217 2 2.45V2.5c0-.271.229-.5.5-.5h15.215a19.873 19.873 0 0 0-.873-.681z" fill="#FFF"/></svg>