<svg xmlns="http://www.w3.org/2000/svg" viewBox="0 0 75.262 75.262"><g fill="#fff"><path d="M33.732 56.646L44.347 35.4l2.086 2.086 11.416-8.199-2.332-3.25-8.658 6.219-14.57-14.57 6.152-8.59-3.252-2.328-8.127 11.348 2.09 2.09L7.9 30.813l-.06 1.166c-.492 9.633-1.438 20.346-6.471 25.539L0 58.933l5.637 5.639 1.416-1.42c4.978-4.998 15.334-5.924 25.516-6.445l1.163-.061zm-22.035-.811l9.402-9.402a3 3 0 1 0-2.107-5.121 2.979 2.979 0 0 0-.85 2.422l-9.715 9.715c2.273-5.848 2.965-13.184 3.346-20.098l20.361-10.164 9.232 9.23-10.17 20.355c-6.944.381-13.901 1.03-19.499 3.063zM11.262 64.495h64v4h-64z"/></g></svg>