<svg xmlns="http://www.w3.org/2000/svg" viewBox="0 0 38.044 38.044"><path d="M31.716 13.5C31.699 6.47 25.974.755 18.94.755c-7.045 0-12.777 5.732-12.777 12.777 0 .022.004.043.004.065C2.477 15.84 0 19.887 0 24.511c0 7.046 5.731 12.777 12.777 12.777 2.268 0 4.395-.601 6.244-1.642a12.69 12.69 0 0 0 6.245 1.642c7.046 0 12.777-5.732 12.777-12.777 0-4.691-2.548-8.789-6.327-11.011zM19.021 32.961c-2.312-1.713-3.906-4.341-4.22-7.352 1.3.448 2.689.702 4.139.702 1.514 0 2.96-.278 4.307-.764-.298 3.037-1.898 5.689-4.226 7.414zM8.517 14.898a10.465 10.465 0 0 1 8.414-.051 12.777 12.777 0 0 0-4.195 7.167 10.524 10.524 0 0 1-4.219-7.116zm10.423 9.157c-1.457 0-2.846-.298-4.109-.837a10.513 10.513 0 0 1 4.19-7.157 10.513 10.513 0 0 1 4.18 7.085 10.44 10.44 0 0 1-4.261.909zm2.171-9.209a10.463 10.463 0 0 1 4.154-.858c1.457 0 2.846.298 4.11.837a10.519 10.519 0 0 1-4.089 7.082 12.779 12.779 0 0 0-4.175-7.061zM18.94 3.01c5.432 0 9.915 4.137 10.466 9.425a12.699 12.699 0 0 0-4.14-.702 12.69 12.69 0 0 0-6.245 1.642 12.68 12.68 0 0 0-6.244-1.642c-1.514 0-2.96.278-4.307.763.523-5.317 5.018-9.486 10.47-9.486zm-6.163 32.024c-5.803 0-10.523-4.72-10.523-10.523 0-3.418 1.645-6.451 4.177-8.375.744 3.581 2.999 6.607 6.059 8.408.011 3.847 1.735 7.293 4.442 9.631a10.434 10.434 0 0 1-4.155.859zm12.489 0c-1.475 0-2.879-.307-4.154-.858 2.715-2.345 4.444-5.804 4.444-9.664 0-.022-.004-.044-.004-.065 3.007-1.829 5.209-4.852 5.918-8.416 2.613 1.917 4.319 4.999 4.319 8.48-.001 5.802-4.721 10.523-10.523 10.523z" fill="#010002"/></svg>