<svg xmlns="http://www.w3.org/2000/svg" viewBox="0 0 512 512"><path d="M490.042 384.371c-45.824-45.824-42.819-42.921-44.109-43.873l-121.297-89.556 47.055-47.051c37.832 13.481 80.665 4.161 109.492-24.666 31.406-31.406 39.65-79.421 20.514-119.478-4.46-9.333-16.829-11.447-24.134-4.14l-38.791 38.791c-5.846 5.846-15.357 5.847-21.207 0-5.861-5.861-5.861-15.345 0-21.206L456.357 34.4c7.314-7.313 5.187-19.679-4.14-24.133C412.16-8.869 364.146-.625 332.739 30.78c-28.834 28.834-38.143 71.669-24.666 109.491l-54.268 54.263c-11.049-8.594 3.531 6.085-100.534-104.261l10.909-10.909c6.9-6.899 5.462-18.451-2.888-23.461L80.978 7.714a53.327 53.327 0 0 0-65.241 8.031 53.329 53.329 0 0 0-8.031 65.241l48.189 80.315c5.018 8.366 16.575 9.774 23.461 2.888l10.288-10.288c103.526 109.775 89.9 94.864 98.084 105.387.194.249.41.469.616.703l-48.121 48.117c-37.82-13.477-80.658-4.168-109.49 24.666-31.406 31.406-39.65 79.42-20.513 119.478 4.461 9.334 16.827 11.446 24.134 4.14L73.145 417.6c5.849-5.847 15.36-5.845 21.207 0 5.861 5.861 5.861 15.345 0 21.206l-38.793 38.792c-7.314 7.313-5.186 19.679 4.14 24.134a104.583 104.583 0 0 0 45.134 10.219c27.29-.001 54.226-10.615 74.344-30.732 28.834-28.834 38.143-71.669 24.666-109.492l41.096-41.093 95.684 116.28c.728.882-1.674-1.576 41.121 41.219 15.579 15.579 36.291 23.655 56.658 23.655 14.944 0 29.703-4.352 42.1-13.279 37.831-27.247 42.291-81.39 9.54-114.138zM100.869 122.092c-5.813-6.163-15.558-6.271-21.513-.315l-7.627 7.626-38.307-63.847a23.382 23.382 0 0 1 3.521-28.605 23.38 23.38 0 0 1 28.604-3.521l63.847 38.308-7.627 7.625c-5.735 5.735-5.871 14.991-.306 20.891 119.572 126.789 100.763 107.71 110.971 115.65l-22.757 22.755c-7.865-10.114 10.397 9.831-108.806-116.567zM175.556 357.6a14.994 14.994 0 0 0-2.927 17.067c13.669 28.612 7.777 62.909-14.658 85.344-14.374 14.374-33.614 21.958-53.112 21.956-3.507 0-7.021-.245-10.518-.741l21.216-21.216c17.581-17.58 17.584-46.037 0-63.619-17.539-17.54-46.08-17.539-63.619 0l-21.216 21.216c-3.248-22.935 4.258-46.67 21.216-63.628 22.436-22.437 56.732-28.326 85.344-14.659a14.995 14.995 0 0 0 17.067-2.927l182.01-181.997a14.996 14.996 0 0 0 2.928-17.067c-13.669-28.611-7.777-62.909 14.658-85.344 16.961-16.96 40.694-24.465 63.628-21.216l-21.216 21.216c-8.497 8.496-13.177 19.794-13.177 31.81s4.68 23.312 13.177 31.81c17.539 17.54 46.08 17.539 63.619 0l21.216-21.216c3.248 22.935-4.258 46.67-21.216 63.628-22.436 22.436-56.733 28.327-85.345 14.659a14.995 14.995 0 0 0-17.066 2.927L175.556 357.6zm90.626-48.208l37.009-37.006 37.719 27.848-45.065 45.065c-30.64-37.234-28.728-34.99-29.663-35.907zm196.792 164.782c-17.49 12.596-43.296 9.483-60.026-7.247l-39.631-39.63-48.328-58.731 50.318-50.318 61.91 45.709 41.618 41.619c19.023 19.023 17.801 51.556-5.861 68.598z"/><path d="M447.371 424.2l-59.981-59.981c-5.855-5.856-15.35-5.856-21.206 0s-5.856 15.35 0 21.206l59.981 59.981c5.855 5.855 15.35 5.856 21.206 0s5.856-15.35 0-21.206z"/></svg>