<svg xmlns="http://www.w3.org/2000/svg" width="120" height="120" viewBox="0 0 120 120"><defs><style>.a,.f,.h{fill:none;}.a,.c{stroke:#263238;}.a,.c,.d,.e,.f{stroke-linecap:round;stroke-linejoin:round;}.a,.b,.c,.d,.e,.f,.h{stroke-width:1px;}.b{fill:#ecc962;}.b,.d,.e,.f,.h{stroke:#090938;}.b,.h{stroke-miterlimit:10;}.c{fill:#f7f9f8;}.d{fill:#fff;}.e,.g{fill:#090938;}</style></defs><path class="a" d="M67.73,56.15s3.6-1.4,5.9.7"/><path class="a" d="M61.83,56.85a10.26,10.26,0,0,0-9.1,1.69"/><path class="b" d="M47.89,89.34s-22.72,8.82-24.45,9.79c-.87.5-2.75,6.51-4.52,17.74l37.47,0"/><path class="c" d="M76.42,94.2S73.93,90,67.13,87.56s-14.89,1-17.72,4.2"/><path class="b" d="M56.5,81.45s-4.43.49-6.2,3a15.24,15.24,0,0,0-2.41,4.9l-1.69,15.2,5.7-1.4-2.8,6.79s1.95,1,4.41,7l8.39,0-1-15.24s0-13.19-1-16S57.93,81.45,56.5,81.45Z"/><path class="b" d="M96.28,116.77s-3.52-12.26-5.23-16S69.79,86.94,68.23,87.14s1.13,29.63,1.13,29.63Z"/><path class="b" d="M67.57,83.74a8.61,8.61,0,0,1,5.71,4.59C75,92,79.37,103.54,79.37,103.54l-5.54.7,5.89,4.19-3.49,8.34-7.84.2-.46-11.84-1-17.59C67,87.64,65.82,84.74,67.57,83.74Z"/><path class="d" d="M55.24,75.64s.69,4.9-.31,7.6,3.2,11.07,4.9,16.4,3.4,9.49,4.43,8.86,4.6-20.3,4.43-22.79,1.51-10.1,1.51-10.1S60.83,78.34,55.24,75.64Z"/><path class="e" d="M43.33,70.55a10.11,10.11,0,0,0,2.69-20,10,10,0,0,0-5.91.48,10.1,10.1,0,0,0-6.37,9.39,9.87,9.87,0,0,0,9.59,10.1Z"/><path class="d" d="M48.34,65.14s-1.71-4.42-3.7-2.7,0,5.41,1.49,7.6,4.43,1.21,4.1-1a10.19,10.19,0,0,0-1.89-3.9Z"/><path class="d" d="M74.43,62.44s.9-4.19,2-1.39a8,8,0,0,1-.3,7.1c-1,1.69-.79,1.49-1.19,0a54.78,54.78,0,0,1-.51-5.71Z"/><path class="d" d="M45.93,57.05s3.21,15.5,5.2,19.19,8.8,10,14.9,7.4,9.49-7.3,9.49-13,.8-13-.19-19.3a12.8,12.8,0,0,0-12-10.5c-5.4-.2-13.9,2.9-15.5,8.3a39.73,39.73,0,0,0-1.9,7.9Z"/><path class="e" d="M46.13,62.74s9.51-3.7,15.51-8.29,7.88-7.89,7.88-7.89,2.9,7.75,4.11,10.3,2.22,5.39,2.22,5.39,1.9-3.2,1.9-10S75.82,40.05,68.68,36.6,50,35.16,44.74,40.25s-4.21,13.29-2.9,16.61A18.73,18.73,0,0,0,46.13,62.74Z"/><path class="f" d="M67,56.53s-1,.2-1,3.2,1,8.1.8,8.79-2,2.71-3.2,1.5"/><path class="f" d="M59.43,73s4.43,1.9,10-1.5"/><path class="g" d="M59.43,61.75c0,1-.39,1.9-.9,1.9s-.92-.81-.92-1.9.4-1.9.89-1.9S59.43,60.75,59.43,61.75Z"/><path class="g" d="M70.43,61.15c0,1-.4,1.89-.91,1.89s-.84-.8-.84-1.89.4-1.91.9-1.91S70.43,60.05,70.43,61.15Z"/><path class="h" d="M34.6,94.55s-9.43,3.61-11.16,4.58"/></svg>
