<svg xmlns="http://www.w3.org/2000/svg" width="120" height="120" viewBox="0 0 120 120"><defs><style>.a{fill:#ecc962;}.b{fill:#f4dea8;}</style></defs><path class="a" d="M81.78,73.31c2.35-2.79.75-7,.09-10.55-1.27-6.89,1.92-14.51,8-18s14.6-2.29,19.06,3.09A17.61,17.61,0,0,1,112,53.44a15.85,15.85,0,0,1,.94,5.71c-.22,4.9-3.58,9.32-7.93,11.6s-9.51,2.59-14.34,1.73a19.9,19.9,0,0,0-4.54-.59,5,5,0,0,0-2.21.5,4.89,4.89,0,0,0-1.75,1.44"/><path class="b" d="M27.93,73l-2.37-2.22a9,9,0,0,0,.23-11.57,7.13,7.13,0,0,0-5-2.61c-3.66-.18-6.73,3.09-7.76,6.64-.92,3.25-.14,7.39,2.89,8.86a10.06,10.06,0,0,0,3.46.77l9.49,1"/><path class="b" d="M28.91,52.83,26.6,50.09c-2.35.75-4.87,0-7.2-.8-2.59-.9-5.38-2.07-6.64-4.52a7,7,0,0,1-.18-5.54,13,13,0,0,1,3.16-4.64,15.42,15.42,0,0,1,7.65-4.43,9.5,9.5,0,0,1,8.36,2.13A8,8,0,0,1,34,37a8.07,8.07,0,0,1-1.16,5.14,18.56,18.56,0,0,0-2.1,3.1,8.62,8.62,0,0,0-.44,1.95l-.79,5.31"/></svg>
