<svg xmlns="http://www.w3.org/2000/svg" width="120" height="120" viewBox="0 0 120 120"><defs><style>.a{fill:#92e3a9;}.b,.c{fill:none;stroke-miterlimit:10;}.b{stroke:#090938;stroke-width:0.65px;}.c{stroke:#6666c6;stroke-width:3.25px;}</style></defs><path class="a" d="M20.73,54.14a18.86,18.86,0,1,0,13.33,5.52,18.87,18.87,0,0,0-13.33-5.52Zm0,30.84a12,12,0,1,1,8.48-3.52A12,12,0,0,1,20.73,85Z"/><path class="a" d="M107.19,26.46a12.27,12.27,0,1,0,8.67,3.59A12.34,12.34,0,0,0,107.19,26.46Zm0,20.07a7.81,7.81,0,0,1-5.53-13.32,7.8,7.8,0,1,1,5.53,13.32Z"/><path class="b" d="M58.89,102.91a31.2,31.2,0,1,0-31.2-31.2A31.2,31.2,0,0,0,58.89,102.91Z"/><path class="c" d="M83.91,63.91A21.77,21.77,0,1,0,62.14,42.14,21.77,21.77,0,0,0,83.91,63.91Z"/></svg>
