<svg xmlns="http://www.w3.org/2000/svg" width="120" height="120" viewBox="0 0 120 120"><defs><style>.a,.e{fill:#090938;}.a,.c,.d,.f,.g{stroke:#090938;stroke-linecap:round;}.a,.c,.d,.g{stroke-linejoin:round;stroke-width:0.71px;}.b,.d{fill:#fff;}.c,.f{fill:none;}.f{stroke-miterlimit:10;stroke-width:1.42px;}.g{fill:#92e3a9;}</style></defs><path class="a" d="M48.23,90.06,40,96.71l-.15,20.45H76.6L74.76,94.79l-8.57-6Z"/><path class="b" d="M47.72,81.77s-.57,9.55,0,11.18A11.37,11.37,0,0,0,58,100.74c8.84.92,11-9.2,11-9.2l-.64-9.77a36.68,36.68,0,0,1-10.4.71c-4.74-.57-10.4-1.28-10.4-1.28"/><path class="c" d="M47.72,81.77s-.57,9.55,0,11.18A11.37,11.37,0,0,0,58,100.74c8.84.92,11-9.2,11-9.2l-.64-9.77a36.68,36.68,0,0,1-10.4.71c-4.74-.57-10.4-1.28-10.4-1.28"/><path class="a" d="M59.32,85.14l-8.2-3.53-3.61-.44.14.58s-.28,5-.22,8.34l11.89-2Z"/><path class="d" d="M39.72,64.72a12.93,12.93,0,0,0-.42,5.7c.56,2.47,5.52,4.45,5.52,4.45s.42,5.38,1.77,6.8,7.07,6.08,9.55,6.79,4.45.71,6.08-.28,7.44-5,8.28-7.22a59.55,59.55,0,0,0,1.92-6.37,5.76,5.76,0,0,0,4-2.76A18,18,0,0,0,77.72,65c0-1-2.83-3.18-4.74-4.6S59.68,52,57.63,51.84a8.67,8.67,0,0,0-5.52,1.41Z"/><path class="c" d="M55.5,75.12a4.77,4.77,0,0,0,3.33,1.13A3,3,0,0,0,60.2,76a2.89,2.89,0,0,0,1.1-.86"/><path class="c" d="M54.37,78.3s3.47,2.34,8.42,0"/><path class="c" d="M54.93,68.47S52.17,65,48.57,67.33"/><path class="c" d="M62.66,68.58A4.58,4.58,0,0,1,68,66.8"/><path class="e" d="M53.38,67.66a1,1,0,0,0-.13-.57.92.92,0,0,0-.43-.4,1,1,0,0,0-.58-.09,1,1,0,0,0-.82.76,1,1,0,0,0,0,.58,1,1,0,0,0,.92.64,1.1,1.1,0,0,0,.67-.29A1,1,0,0,0,53.38,67.66Z"/><path class="e" d="M66.12,67.66a1.08,1.08,0,0,0-.14-.58,1,1,0,0,0-.43-.39A1,1,0,0,0,65,66.6a1,1,0,0,0-.52.26,1,1,0,0,0-.3.51,1.05,1.05,0,0,0,0,.58.93.93,0,0,0,.37.46,1,1,0,0,0,.56.17,1.08,1.08,0,0,0,.66-.29,1.11,1.11,0,0,0,.33-.63Z"/><path class="f" d="M56.21,64.9A8,8,0,0,0,52.08,64a8.08,8.08,0,0,0-4,1.33"/><path class="f" d="M69.51,64.9a7.95,7.95,0,0,0-8.13.42"/><path class="a" d="M55.79,54.25s-2,4.59-3.88,6.5-5.53,3-5.53,3c-.49.92-1,1.77-1.55,2.61-.42.43-.29,5-.29,5.53s-1.76-1.27-1.76-2.34a14.85,14.85,0,0,0-.29-2.48,11.64,11.64,0,0,1-2.34-1.3c-.57-.57-1.27-.43-1.27-1.92V61.46S35.69,61,36.26,58s6.79-13.44,12.46-15.64,9.27.14,9.27.14a16.33,16.33,0,0,1,9.27-1.92c5.31.65,12.52,10.76,14,15.57s0,8.57-.71,8.71c-.92.07-1.84.14-2.76.14,0,0-.14.43-1.27,1.28a9.15,9.15,0,0,1-3.18,1.27,6.52,6.52,0,0,1-1,5l-.58-7.6a24.58,24.58,0,0,1-7.06-3.75,19.94,19.94,0,0,1-4.47-5s1.27,2.91.71,3.18S56.35,57.15,55.79,54.25Z"/><path class="g" d="M47.36,91.75l-1.69,25.33H13.83s5.23-12.31,7.36-13.58S41,95.36,41,95.36a31.74,31.74,0,0,1,2.62-3.46C45.1,90.19,47.08,90.66,47.36,91.75Z"/><path class="c" d="M41,95.36a66.86,66.86,0,0,1-2.33,9.11c-1.13,3-2.62,4.81-2.48,5.38s2.06.71,3.19-.85,4-5.8,5-5.8,1.56,6.08,1.56,6.08"/><path class="g" d="M68.81,91.75l1.77,25.33h31.84s-5.24-12.31-7.36-13.58-19.82-8.14-19.82-8.14-1.19-1.7-2.68-3.46S69.09,90.66,68.81,91.75Z"/><path class="c" d="M75.18,95.36a66.63,66.63,0,0,0,2.33,9.12c1.2,3,2.62,4.82,2.48,5.39s-2,.71-3.19-.85-4-5.8-5-5.8-1.56,6.08-1.56,6.08"/></svg>
