<svg xmlns="http://www.w3.org/2000/svg" width="120" height="120" viewBox="0 0 120 120"><defs><style>.a{fill:#fff;}.a,.b,.d,.e{stroke:#090938;stroke-linecap:round;stroke-linejoin:round;}.a,.b,.d{stroke-width:0.69px;}.b,.e{fill:none;}.c{fill:#090938;}.d{fill:#cacadb;}.e{stroke-width:1.38px;}</style></defs><path class="a" d="M100.26,111.12c-2.4-6-5.43-8.68-5.43-8.68L71.43,90.06,60.9,88.41v-.07l-.27.07-.28-.07v.07l-10.5,1.65L26.49,102.44s-3,2.69-5.44,8.68l-2.4,6h84Z"/><path class="b" d="M61.38,97.74v18.1"/><path class="b" d="M28.9,104.85s3.44,8.26,3.72,12.12"/><path class="b" d="M92.14,104.74S87.6,112,86,117"/><path class="c" d="M61.18,80.15c12.5,0,22.64-9.4,22.64-21s-10.14-21-22.64-21-22.65,9.4-22.65,21S48.67,80.15,61.18,80.15Z"/><path class="d" d="M51.06,78.63l.62,8.4,9.5,10.25,9.56-9.54V79.18L60.63,81.32Z"/><path class="c" d="M56.36,80.15l-5.3-1.52.62,8.4.21.27,9.49-2.4Z"/><path class="d" d="M49.68,65.35S47.07,63.49,47.07,67a7.54,7.54,0,0,0,2.61,5.58Z"/><path class="d" d="M72,65.35S74.6,63.49,74.6,67A7.6,7.6,0,0,1,72,72.58Z"/><path class="d" d="M49.68,61.91s-.34,13.76.76,16.72,7.43,6.89,9.84,7.44,10-3.93,11.36-6.89.75-19.54.75-19.54-1.3-7.85-10.8-8.19S50,57.23,49.68,61.91Z"/><path class="b" d="M58.22,73.74s-.35.55.75,1.31a3.56,3.56,0,0,0,1.35.63,3.4,3.4,0,0,0,1.49,0,3.6,3.6,0,0,0,1.37-.57,3.66,3.66,0,0,0,1-1.09"/><path class="b" d="M56.91,77.12a12.53,12.53,0,0,0,8.33,0"/><path class="c" d="M56.5,66.45c0,.76-.42,1.38-.9,1.38s-.89-.62-.89-1.38.41-1.37.89-1.37S56.5,65.74,56.5,66.45Z"/><path class="c" d="M67,66.45c0,.76-.42,1.38-.9,1.38s-.89-.62-.89-1.38.41-1.37.89-1.37S67,65.74,67,66.45Z"/><path class="b" d="M58.63,64.11h-7.3s-1.44.35-.75,3.51c.48,2.14,5.78,1.65,6.88,1.65,2.13,0,2.48-2.75,2.13-4.4a1.07,1.07,0,0,0-.35-.55,1,1,0,0,0-.61-.21Z"/><path class="b" d="M63.17,64.11h7.3s1.51.35.75,3.51c-.48,2.14-5.78,1.65-6.88,1.65-2.13,0-2.48-2.75-2.13-4.4a1,1,0,0,1,.35-.55,1,1,0,0,1,.61-.21Z"/><path class="b" d="M59,64.25h3.72"/><path class="b" d="M59.85,65.63s.83-1.38,2.27,0"/><path class="b" d="M51.33,64.11l-1.65,1"/><path class="b" d="M70.85,64.32l1.72,1"/><path class="e" d="M63.65,63.36s2.14-1.59,6.27,0"/><path class="e" d="M58.77,63.36a8.43,8.43,0,0,0-6.68,0"/><path class="a" d="M51.54,84.74l9.64,12.52L56.36,103l-7.85-12.1Z"/><path class="a" d="M61.38,97.74l5.78,5.85,7.3-12.85L71,85.85Z"/></svg>
