<svg xmlns="http://www.w3.org/2000/svg" width="120" height="120" viewBox="0 0 120 120"><defs><style>.a{fill:#292968;}.b{fill:#fff;}.c{fill:#c2c2f2;}.d{fill:none;stroke:#090938;stroke-linecap:round;stroke-linejoin:round;stroke-width:0.47px;}.e{fill:#090938;}.f{fill:#7474c1;}</style></defs><path class="a" d="M78.92,102.52a26.27,26.27,0,0,1,11.4-23.47c3.18-2.11,6.78-3.49,10.19-5.19,7.82-3.92,14.62-9.56,21.34-15.12-5.41,8.57-6.44,19.12-10.18,28.53a47.23,47.23,0,0,1-19.33,23.16c-2.37,1.4-5.17,2.6-7.8,1.79a7.53,7.53,0,0,1-4.34-4.11,22.1,22.1,0,0,1-1.6-5.92"/><path class="b" d="M89,101.88c3.78-12.52,15.94-19.7,22.51-30.52.35-.57-.55-1.09-.89-.52C104,81.74,91.85,88.94,88,101.61A.48.48,0,0,0,88,102a.51.51,0,0,0,.3.22.55.55,0,0,0,.38,0,.57.57,0,0,0,.25-.28Z"/><path class="b" d="M91.85,95a37.41,37.41,0,0,0,10-2.27c.61-.24.34-1.24-.28-1A35.6,35.6,0,0,1,91.81,94c-.66,0-.66,1.09,0,1Z"/><path class="b" d="M99.67,85.52a29.69,29.69,0,0,0,7.84-1.64c.62-.23.35-1.23-.28-1a28.42,28.42,0,0,1-7.56,1.61c-.66,0-.67,1.08,0,1Z"/><path class="b" d="M107.35,77.49a17,17,0,0,0,4.24-1.25.58.58,0,0,0,.23-.32.5.5,0,0,0-.06-.38.45.45,0,0,0-.3-.24.48.48,0,0,0-.39,0,16,16,0,0,1-4,1.16.53.53,0,0,0-.37.63.55.55,0,0,0,.25.31.58.58,0,0,0,.39,0Z"/><path class="b" d="M102.36,76.27a39.82,39.82,0,0,0,.4,4.49A.49.49,0,0,0,103,81a.53.53,0,0,0,.37,0,.48.48,0,0,0,.3-.22.54.54,0,0,0,.08-.37,33.22,33.22,0,0,1-.36-4.22c0-.66-1.06-.66-1,0Z"/><path class="b" d="M94.68,83.83a19.22,19.22,0,0,0,.61,5.65.49.49,0,0,0,.24.31.53.53,0,0,0,.71-.19.59.59,0,0,0,.05-.39,18.78,18.78,0,0,1-.57-5.38.5.5,0,0,0-1,0Z"/><path class="b" d="M88.69,90.49a27.14,27.14,0,0,0,1.58,5.79.53.53,0,0,0,.63.37.55.55,0,0,0,.31-.25.59.59,0,0,0,.05-.39,27.71,27.71,0,0,1-1.57-5.79.52.52,0,0,0-.25-.31.49.49,0,0,0-.39,0,.57.57,0,0,0-.31.24.59.59,0,0,0,0,.39Z"/><path class="c" d="M74.9,103.3c-4.4-3.85-8.57-8.18-11-13.51s-2.77-11.86.26-16.86c1.63-2.67,4.07-4.72,6.14-7.07a30.76,30.76,0,0,0,6.77-13c1.24-5.06,1.3-10.68,4.45-14.83a12.11,12.11,0,0,1,13.57-3.86c4.06,1.56,7,5.24,8.88,9.13,3.18,6.39,4.11,14.59-.12,20.32-1.82,2.46-4.4,4.22-6.85,6.06a47.66,47.66,0,0,0-8.91,8.23,13.75,13.75,0,0,0-2.88,5.39c-.68,2.93.2,6,1.46,8.75s2.93,5.29,4,8.12c1.12,3.08,1.11,7.21-1.71,8.87-2.31,1.36-5.24.34-7.67-.8-2.92-1.36-6-3-7.35-6"/><path class="d" d="M21.51,50.38l-13.66,5,18.4,49.94,13.66-5Z"/><path class="e" d="M20.62,52.32l-10.84,4,4,10.84,10.84-4Z"/><path class="a" d="M25.05,64.34l-10.84,4,4,10.84,10.84-4Z"/><path class="f" d="M29.47,76.35l-10.84,4,4,10.84,10.84-4Z"/><path class="c" d="M33.9,88.36l-10.84,4,4,10.84,10.84-4Z"/></svg>
