<svg xmlns="http://www.w3.org/2000/svg" width="120" height="120" viewBox="0 0 120 120"><defs><style>.a{fill:#090938;}.a,.b,.c,.e{stroke:#090938;stroke-width:0.68px;}.a,.b,.e{stroke-linecap:round;stroke-linejoin:round;}.b,.d{fill:#fff;}.c{fill:#7666f6;stroke-miterlimit:10;}.e{fill:none;}</style></defs><path class="a" d="M52.43,44.1a7.25,7.25,0,0,0-8.18.33c-4.57,3-4.71,4.71-5,9s-.35,5.18-2.86,7.89-6.15,5.51-5.52,11.52S39.7,80.73,42,80.73s10.57.49,10.57.49,10.7,2,17,.14a19.74,19.74,0,0,0,9.48-6.14s6.81-.48,6.33-9.14-6.13-8.65-8.88-11.38-1.91-10.63-7.77-13.81S52.57,37.34,52.43,44.1Z"/><path class="b" d="M92.92,102.85c-2.87-3.74-6.61-3.94-13.43-5.66s-13.22-4.08-13.9-6.13-2.07-12.47-2.07-12.47L56,78.46h-.4L48,78.6S46.57,89,46,91.07s-7.09,4.43-13.9,6.12-10.56,1.92-13.43,5.66-4.41,13.57-4.41,13.57H97.3S95.78,106.67,92.92,102.85Z"/><path class="a" d="M56.53,85.88,48,78.58S47.12,85.27,46.44,89Z"/><path class="c" d="M92.92,102.85c-2.87-3.74-6.61-3.94-13.43-5.66a8,8,0,0,1-1.16-.33,33.28,33.28,0,0,1-22,8.87c-13.23.42-20.86-6.46-23.11-8.87l-1.16.33c-6.75,1.71-10.56,1.92-13.43,5.66s-4.41,13.57-4.41,13.57H97.37S95.78,106.67,92.92,102.85Z"/><path class="b" d="M53.18,53.09a19.39,19.39,0,0,1-4.46,5c-2.87,2.18-4.23,1.7-5.52,3.34s-.14,10,.14,13.08,6.47,9.14,8.18,10.57,3.94,3.14,5.52,2.39,4.22-2,9.6-8.88c1.44-1.83,1.1-3.94,1.44-5a8.09,8.09,0,0,0,.37-1.69s-1.43.82-2.39-1.57.14-6.62-1.9-8.18-5.92-3-8.19-3.95S53.18,53.09,53.18,53.09Z"/><path class="d" d="M54,74.23a3.37,3.37,0,0,0,1.12,1.1,3.29,3.29,0,0,0,1.49.46,1.91,1.91,0,0,0,1.31-.48,2,2,0,0,0,.67-1.22"/><path class="e" d="M54,74.23a3.37,3.37,0,0,0,1.12,1.1,3.29,3.29,0,0,0,1.49.46,1.91,1.91,0,0,0,1.31-.48,2,2,0,0,0,.67-1.22"/><path class="d" d="M52.67,77.47s3.94,2.65,7.09,0Z"/><path class="e" d="M52.67,77.47s3.94,2.65,7.09,0"/><path class="a" d="M51,66.86c0,.89-.34,1.57-.82,1.57s-.75-.68-.75-1.57.34-1.57.75-1.57S51,66,51,66.86Z"/><path class="a" d="M63,66.86c0,.89-.33,1.57-.81,1.57s-.82-.68-.82-1.57.34-1.57.82-1.57S63,66,63,66.86Z"/><path class="e" d="M50.18,71.23a4.68,4.68,0,0,0,4.35-2.91,4.71,4.71,0,0,0-8.26-4.41,4.71,4.71,0,0,0,3.91,7.32Z"/><path class="e" d="M62.53,71.23a4.71,4.71,0,0,0,4.35-2.91,4.66,4.66,0,0,0,.26-2.71,4.7,4.7,0,0,0-8.52-1.7,4.66,4.66,0,0,0-.79,2.61,4.71,4.71,0,0,0,4.7,4.71Z"/><path class="d" d="M55.09,65.57s1.7-1.29,2.66,0Z"/><path class="e" d="M55.09,65.57s1.7-1.29,2.66,0"/><path class="e" d="M45.48,66.52H42.61"/><path class="e" d="M46.57,62.1a6,6,0,0,1,2.87-1.29,6.07,6.07,0,0,1,3.13.3"/><path class="e" d="M59,61.69a6.31,6.31,0,0,1,3-.86,6.39,6.39,0,0,1,3.06.72"/></svg>
