<svg xmlns="http://www.w3.org/2000/svg" width="120" height="120" viewBox="0 0 120 120"><defs><style>.a{fill:#7666f6;}.b{fill:#b9b6f2;}.c{fill:#fff;}.d{fill:#d7d7f9;}</style></defs><path class="a" d="M35.53,28.58,40,33.81l6.83-.69L43.19,39,46,45.25,39.3,43.62,34.18,48.2l-.52-6.85-5.93-3.46,6.35-2.6Z"/><path class="b" d="M33.89,52.9.63,65.16l17.68,48,33.26-12.25Z"/><path class="c" d="M30.93,61.62l-23,8.48.94,2.56,23-8.49Z"/><path class="c" d="M32.57,66.1l-23,8.48.94,2.56,23-8.49Z"/><path class="c" d="M34.22,70.58l-23,8.48.94,2.55,23-8.48Z"/><path class="c" d="M35.88,75l-23,8.49.94,2.55,23-8.48Z"/><path class="c" d="M37.52,79.52,14.5,88l.94,2.55,23-8.48Z"/><path class="c" d="M28.93,87.79,16.15,92.5l.94,2.55,12.79-4.71Z"/><path class="d" d="M118.74,58.88l-33-13L67.06,93.51l33,12.95Z"/><path class="c" d="M110.72,63.43l-22.83-9-1,2.53,22.84,9Z"/><path class="c" d="M109,67.87l-22.84-9-1,2.53,22.84,9Z"/><path class="c" d="M107.24,72.31l-22.84-9-1,2.53,22.83,9Z"/><path class="c" d="M105.49,76.75l-22.84-9-1,2.53,22.84,9Z"/><path class="c" d="M103.76,81.19l-22.84-9-1,2.53,22.83,9Z"/><path class="c" d="M91.86,81.64l-12.69-5-1,2.53,12.68,5Z"/><path class="a" d="M95,33.62l2.25,2.66,3.46-.35-1.82,3,1.4,3.19-3.38-.83-2.6,2.32-.25-3.47-3-1.75L94.28,37Z"/><path class="a" d="M74.6,23.75l1.25,1.48,1.94-.2-1,1.66.78,1.76L75.67,28l-1.44,1.29-.15-1.93-1.68-1,1.8-.74Z"/><path class="a" d="M9.52,29.67l1.25,1.48L12.7,31l-1,1.66.78,1.76-1.88-.45L9.14,35.21,9,33.28l-1.67-1,1.79-.74Z"/></svg>
