<svg width="461" height="414" viewBox="0 0 461 414" fill="none" xmlns="http://www.w3.org/2000/svg">
<g clip-path="url(#clip0)">
<path d="M216.884 180.281C258.87 180.281 292.906 146.263 292.906 104.3C292.906 62.3363 258.87 28.3184 216.884 28.3184C174.899 28.3184 140.863 62.3363 140.863 104.3C140.863 146.263 174.899 180.281 216.884 180.281Z" stroke="#FCDC59" stroke-width="11" stroke-miterlimit="10"/>
<path d="M308.5 151.056C334.337 151.056 355.282 130.122 355.282 104.299C355.282 78.4751 334.337 57.541 308.5 57.541C282.663 57.541 261.717 78.4751 261.717 104.299C261.717 130.122 282.663 151.056 308.5 151.056Z" stroke="#4941C0" stroke-miterlimit="10"/>
<path d="M34.0438 227.525H293.032" stroke="#4941C0" stroke-miterlimit="10"/>
<path d="M34.0438 240.744H293.032" stroke="#4941C0" stroke-miterlimit="10"/>
<path d="M34.0438 253.953H293.032" stroke="#4941C0" stroke-miterlimit="10"/>
<path d="M34.0438 267.172H293.032" stroke="#4941C0" stroke-miterlimit="10"/>
<path d="M34.0438 280.381H293.032" stroke="#4941C0" stroke-miterlimit="10"/>
<path d="M34.0438 293.6H293.032" stroke="#4941C0" stroke-miterlimit="10"/>
<path d="M34.0438 306.809H293.032" stroke="#4941C0" stroke-miterlimit="10"/>
<path d="M34.0438 320.027H293.032" stroke="#4941C0" stroke-miterlimit="10"/>
<path d="M34.0438 333.236H293.032" stroke="#4941C0" stroke-miterlimit="10"/>
<path d="M34.0438 346.455H293.032" stroke="#4941C0" stroke-miterlimit="10"/>
<path d="M34.0438 359.664H293.032" stroke="#4941C0" stroke-miterlimit="10"/>
<path d="M34.0438 372.883H293.032" stroke="#4941C0" stroke-miterlimit="10"/>
<path d="M34.0438 386.092H293.032" stroke="#4941C0" stroke-miterlimit="10"/>
<path d="M34.0438 399.311H293.032" stroke="#4941C0" stroke-miterlimit="10"/>
<path d="M34.0438 412.52H293.032" stroke="#4941C0" stroke-miterlimit="10"/>
<path d="M404.169 132.811H315.731L271.503 209.366L315.731 285.922H404.169L448.398 209.366L404.169 132.811Z" fill="#FCDC59"/>
<path d="M359.989 152.03C359.989 152.03 355.506 145.621 349.804 150.949C344.103 156.278 332.125 172.38 332.846 180.971C333.567 189.563 340 200.834 340 205.071C340 209.308 337.329 220.813 341.452 225.411C345.575 230.008 360.613 229.161 360.613 229.161L368.118 228.801C368.118 228.801 385.076 233.282 393.322 228.801C401.567 224.32 398.195 203.249 397.074 199.86L395.982 196.47C395.982 196.47 398.653 179.52 393.682 169.35C388.712 159.18 382.172 154.212 375.515 153.121C370.371 152.399 365.184 152.034 359.989 152.03Z" fill="#090938" stroke="#090938" stroke-width="1.24" stroke-linecap="round" stroke-linejoin="round"/>
<path d="M430.007 252.413C425.884 247.933 415.709 245.595 401.742 238.854C387.776 232.113 382.25 228.684 382.25 228.684C376.402 226.502 368.556 227.953 365.896 228.44C363.225 227.837 355.35 226.492 349.541 228.684C349.541 228.684 343.966 232.074 330.049 238.854C316.131 245.634 305.946 247.806 301.784 252.413C297.623 257.021 296.911 289.956 296.911 289.956H434.977C434.851 289.956 434.129 256.894 430.007 252.413Z" fill="#E4DFFC"/>
<path d="M355.506 223.073C355.506 223.073 352.836 219.683 349.931 221.125C347.027 222.566 340.848 234.324 340.848 234.324C340.848 234.324 341.569 254.664 344.6 256.115C347.631 257.566 349.892 244.503 350.652 242.964C351.413 241.425 364.59 249.384 364.59 249.384L375.856 244.182C375.856 244.182 380.73 257.742 383 258.102C385.271 258.463 386.031 238.97 385.301 234.373C384.57 229.775 379.248 222.742 374.404 222.381C370.99 222.296 367.611 223.088 364.59 224.68L355.506 223.073Z" fill="white" stroke="#090938" stroke-width="1.24" stroke-linecap="round" stroke-linejoin="round"/>
<path d="M352.114 211.383C352.114 211.383 352.475 229.424 353.566 233.544C354.658 237.665 361.802 250.494 365.194 251.215C368.586 251.936 378.4 232.453 378.4 232.453L380.349 209.932C380.349 209.932 371.617 215.114 352.114 211.383Z" fill="white" stroke="#090938" stroke-width="1.24" stroke-linecap="round" stroke-linejoin="round"/>
<path d="M367.007 215.601L362.767 212.678C359.224 212.552 355.699 212.118 352.231 211.383C352.231 211.383 352.348 219.01 352.835 225.43L369.677 220.345L367.007 215.601Z" fill="#090938" stroke="#090938" stroke-width="1.24" stroke-linecap="round" stroke-linejoin="round"/>
<path d="M359.638 155.059C359.638 155.059 364.512 144.159 375.876 143.799C387.24 143.438 395.865 151.669 398.409 159.18C400.953 166.69 410.768 197.921 415.368 211.003C419.968 224.085 419.491 236.184 411.976 248.536C404.462 260.887 386.412 264.277 379.628 257.985C372.845 251.692 369.814 232.073 374.424 222.264C379.034 212.454 378.907 207.243 378.537 197.073C378.166 186.903 362.309 169.954 360.486 165.112C359.309 161.897 359.016 158.426 359.638 155.059Z" fill="#090938" stroke="#090938" stroke-width="1.24" stroke-linecap="round" stroke-linejoin="round"/>
<path d="M344.239 188.121C344.239 188.121 338.538 185.092 338.908 190.42C339.279 195.749 343.781 200.23 345.331 200.95L346.783 201.681L344.239 188.121Z" stroke="#090938" stroke-width="1.24" stroke-linecap="round" stroke-linejoin="round"/>
<path d="M359.989 158.449C359.989 158.449 349.083 168.619 346.413 174.678C344.627 178.965 343.84 183.602 344.113 188.238C344.933 195.695 346.189 203.098 347.875 210.409C348.957 214.159 356.958 221.669 365.925 222.39C375.856 223.121 383.361 209.922 383.361 209.922C383.361 209.922 386.031 189.582 386.031 187.4C386.031 185.218 363.381 176.49 359.989 158.449Z" fill="white" stroke="#090938" stroke-width="1.24" stroke-linecap="round" stroke-linejoin="round"/>
<path d="M366.773 184C366.773 184 368.225 194.9 368.225 197.199C368.225 199.498 361.403 198.29 361.403 198.29" stroke="#090938" stroke-width="1.24" stroke-linecap="round" stroke-linejoin="round"/>
<path d="M359.638 202.773C359.638 202.773 366.461 206.523 369.453 202.402" stroke="#090938" stroke-width="1.24" stroke-linecap="round" stroke-linejoin="round"/>
<path d="M357.806 185.335C357.706 185.782 357.434 186.171 357.048 186.418C356.663 186.665 356.195 186.749 355.748 186.653C355.3 186.556 354.909 186.287 354.659 185.903C354.409 185.52 354.321 185.053 354.414 184.605C354.436 184.405 354.497 184.212 354.595 184.036C354.692 183.86 354.824 183.706 354.982 183.581C355.14 183.457 355.321 183.366 355.515 183.312C355.708 183.259 355.911 183.245 356.11 183.27C356.36 183.288 356.603 183.357 356.825 183.472C357.047 183.587 357.244 183.745 357.402 183.939C357.561 184.132 357.679 184.355 357.748 184.596C357.817 184.836 357.837 185.087 357.806 185.335Z" fill="#090938"/>
<path d="M375.008 185.335C374.908 185.782 374.636 186.171 374.25 186.418C373.865 186.665 373.397 186.749 372.95 186.653C372.502 186.556 372.111 186.287 371.861 185.903C371.611 185.52 371.523 185.053 371.617 184.605C371.638 184.405 371.7 184.212 371.797 184.036C371.894 183.86 372.026 183.706 372.184 183.581C372.342 183.457 372.523 183.366 372.717 183.312C372.911 183.259 373.113 183.245 373.312 183.27C373.566 183.276 373.815 183.337 374.044 183.448C374.272 183.559 374.473 183.718 374.634 183.914C374.795 184.11 374.912 184.339 374.976 184.584C375.041 184.829 375.052 185.086 375.008 185.335Z" fill="#090938"/>
<path d="M351.383 180.611C351.383 180.611 352.475 176.491 360.837 178.312" stroke="#090938" stroke-width="1.24" stroke-linecap="round" stroke-linejoin="round"/>
<path d="M368.703 179.403C368.703 179.403 374.034 174.922 380.34 180.485" stroke="#090938" stroke-width="1.24" stroke-linecap="round" stroke-linejoin="round"/>
<path d="M249.086 138.861H107.989V279.884H249.086V138.861Z" fill="#4941C0"/>
<path d="M245.061 122.738H220.871C216.95 122.741 213.165 124.173 210.223 126.764C207.282 129.356 205.387 132.93 204.892 136.817C204.398 140.705 205.337 144.639 207.536 147.884C209.734 151.129 213.041 153.462 216.836 154.446V170.538L229.564 154.952H245.061C249.269 154.849 253.27 153.105 256.21 150.094C259.149 147.083 260.795 143.043 260.795 138.836C260.795 134.628 259.149 130.588 256.21 127.577C253.27 124.566 249.269 122.822 245.061 122.719V122.738Z" fill="#FCDC59"/>
<path d="M271.259 80.4335H295.449C299.37 80.4367 303.156 81.8681 306.097 84.4596C309.038 87.0511 310.933 90.6251 311.428 94.5126C311.922 98.4001 310.983 102.334 308.784 105.579C306.586 108.824 303.28 111.157 299.484 112.141V128.234L286.756 112.648H271.259C267.051 112.544 263.05 110.801 260.11 107.79C257.171 104.778 255.525 100.738 255.525 96.5308C255.525 92.3237 257.171 88.2833 260.11 85.2721C263.05 82.2609 267.051 80.5175 271.259 80.4141V80.4335Z" fill="#E4DFFC"/>
<path d="M166.808 240.462L154.537 250.398L154.323 280.956H209.224L206.475 247.544L193.679 238.66L166.808 240.462Z" fill="#090938" stroke="#090938" stroke-width="1.09" stroke-linecap="round" stroke-linejoin="round"/>
<path d="M166.067 228.091C166.067 228.091 165.219 242.362 166.067 244.798C166.915 247.233 170.19 255.367 181.408 256.429C194.634 257.802 197.85 242.684 197.85 242.684L196.875 228.072C196.875 228.072 188.406 229.972 181.281 229.134C174.157 228.296 165.687 227.186 165.687 227.186" fill="white"/>
<path d="M166.067 228.091C166.067 228.091 165.219 242.362 166.067 244.798C166.915 247.233 170.19 255.367 181.408 256.429C194.634 257.802 197.85 242.684 197.85 242.684L196.875 228.072C196.875 228.072 188.406 229.972 181.281 229.134C174.157 228.296 165.687 227.186 165.687 227.186" stroke="#090938" stroke-width="1.09" stroke-linecap="round" stroke-linejoin="round"/>
<path d="M183.416 233.165L171.145 227.875L165.755 227.242L165.96 228.09C165.96 228.09 165.541 235.493 165.648 240.568L183.416 237.646V233.165Z" fill="#090938" stroke="#090938" stroke-width="1.09" stroke-linecap="round" stroke-linejoin="round"/>
<path d="M154.118 202.618C154.118 202.618 152.637 207.381 153.485 211.083C154.333 214.785 161.73 217.736 161.73 217.736C161.73 217.736 162.364 225.773 164.371 227.887C166.379 230 174.956 236.985 178.659 238.037C182.363 239.089 185.316 239.099 187.753 237.618C190.189 236.137 198.864 230.108 200.131 226.835C201.196 223.659 202.148 220.487 202.986 217.317C202.986 217.317 207.323 216.684 209.019 213.197C210.715 209.71 210.92 204.527 210.92 203.047C210.92 201.566 206.69 198.283 203.834 196.169C200.979 194.056 183.942 183.594 180.882 183.379C177.821 183.165 174.001 184.227 172.627 185.493L154.118 202.618Z" fill="white" stroke="#090938" stroke-width="1.09" stroke-linecap="round" stroke-linejoin="round"/>
<path d="M177.704 218.203C179.087 219.376 180.864 219.978 182.675 219.888C185.531 219.684 186.379 218.203 186.379 218.203" stroke="#090938" stroke-width="1.09" stroke-linecap="round" stroke-linejoin="round"/>
<path d="M176.008 222.908C176.008 222.908 181.193 226.396 188.601 222.908" stroke="#090938" stroke-width="1.09" stroke-linecap="round" stroke-linejoin="round"/>
<path d="M176.856 208.21C176.856 208.21 172.734 203.037 167.334 206.524" stroke="#090938" stroke-width="1.09" stroke-linecap="round" stroke-linejoin="round"/>
<path d="M188.386 208.462C189.234 207.181 190.488 206.224 191.948 205.745C193.407 205.266 194.985 205.293 196.427 205.822" stroke="#090938" stroke-width="1.09" stroke-linecap="round" stroke-linejoin="round"/>
<path d="M174.527 206.942C174.527 206.649 174.44 206.362 174.277 206.119C174.115 205.875 173.883 205.686 173.613 205.574C173.342 205.462 173.044 205.432 172.757 205.489C172.469 205.547 172.205 205.688 171.998 205.895C171.791 206.102 171.65 206.366 171.593 206.653C171.536 206.94 171.565 207.238 171.677 207.508C171.789 207.779 171.979 208.01 172.223 208.173C172.466 208.335 172.753 208.422 173.046 208.422C173.43 208.397 173.793 208.233 174.065 207.961C174.338 207.688 174.502 207.326 174.527 206.942Z" fill="#090938"/>
<path d="M193.571 206.942C193.571 206.649 193.484 206.362 193.322 206.119C193.159 205.875 192.927 205.686 192.657 205.574C192.386 205.462 192.088 205.432 191.801 205.489C191.513 205.547 191.249 205.688 191.042 205.895C190.835 206.102 190.694 206.366 190.637 206.653C190.58 206.94 190.609 207.238 190.721 207.508C190.833 207.779 191.023 208.01 191.267 208.173C191.51 208.335 191.797 208.422 192.09 208.422C192.474 208.397 192.837 208.233 193.109 207.961C193.382 207.688 193.546 207.326 193.571 206.942Z" fill="#090938"/>
<path d="M178.767 202.822C176.867 201.829 174.735 201.364 172.593 201.475C170.452 201.587 168.38 202.27 166.594 203.455" stroke="#090938" stroke-width="2.17" stroke-miterlimit="10" stroke-linecap="round"/>
<path d="M198.649 202.822C196.751 201.829 194.62 201.364 192.481 201.475C190.341 201.587 188.27 202.27 186.486 203.455" stroke="#090938" stroke-width="2.17" stroke-miterlimit="10" stroke-linecap="round"/>
<path d="M178.123 186.963C178.123 186.963 175.063 193.782 172.276 196.705C169.488 199.627 164.03 201.254 164.03 201.254C163.289 202.627 162.549 203.894 161.701 205.15C161.067 205.783 161.282 212.651 161.282 213.391C161.282 214.131 158.631 211.492 158.631 209.904C158.597 208.66 158.456 207.422 158.212 206.202C156.98 205.683 155.81 205.03 154.722 204.254C153.875 203.406 152.773 203.621 152.773 201.4V197.747C152.773 197.747 148.017 197.114 148.875 192.564C149.732 188.015 159.03 172.478 167.49 169.186C175.95 165.893 181.349 169.39 181.349 169.39C185.606 167.092 190.451 166.112 195.267 166.575C203.201 167.549 213.99 182.648 216.212 189.837C218.434 197.026 216.212 202.627 215.15 202.841C213.775 202.949 212.401 203.056 211.027 203.056C211.027 203.056 210.812 203.689 209.078 204.955C207.634 205.914 206.014 206.576 204.312 206.904C204.562 208.49 204.489 210.11 204.097 211.667C203.783 212.595 203.357 213.481 202.83 214.307L201.982 202.89C198.173 201.617 194.6 199.725 191.408 197.289C188.785 195.213 186.532 192.71 184.741 189.886C184.741 189.886 186.69 194.221 185.803 194.639C184.917 195.058 178.971 191.298 178.123 186.963Z" fill="#090938" stroke="#090938" stroke-width="1.09" stroke-linecap="round" stroke-linejoin="round"/>
<path d="M165.541 242.995L162.997 280.849H115.396C115.396 280.849 123.193 262.448 126.4 260.548C129.606 258.649 156.019 248.401 156.019 248.401C157.205 246.591 158.507 244.86 159.917 243.219C162.159 240.676 165.112 241.309 165.541 242.995Z" fill="white" stroke="#090938" stroke-width="1.09" stroke-linecap="round" stroke-linejoin="round"/>
<path d="M156.019 248.4C155.179 253.023 154.013 257.58 152.53 262.038C150.834 266.587 148.631 269.227 148.826 270.074C149.021 270.922 151.896 271.127 153.582 268.808C155.268 266.49 159.615 260.138 160.989 260.138C162.364 260.138 163.319 269.227 163.319 269.227" fill="white"/>
<path d="M156.019 248.4C155.179 253.023 154.013 257.58 152.53 262.038C150.834 266.587 148.631 269.227 148.826 270.074C149.021 270.922 151.896 271.127 153.582 268.808C155.268 266.49 159.615 260.138 160.989 260.138C162.364 260.138 163.319 269.227 163.319 269.227" stroke="#090938" stroke-width="1.09" stroke-linecap="round" stroke-linejoin="round"/>
<path d="M197.587 242.994L200.238 280.848H247.839C247.839 280.848 240.042 262.447 236.835 260.548C233.629 258.648 207.216 248.4 207.216 248.4C207.216 248.4 205.423 245.858 203.201 243.218C200.979 240.578 198.016 241.309 197.587 242.994Z" fill="white" stroke="#090938" stroke-width="1.09" stroke-linecap="round" stroke-linejoin="round"/>
<path d="M207.109 248.4C207.109 248.4 208.805 257.489 210.598 262.038C212.391 266.587 214.497 269.227 214.302 270.074C214.107 270.922 211.241 271.127 209.546 268.808C207.85 266.49 203.513 260.138 202.138 260.138C200.764 260.138 199.809 269.227 199.809 269.227" fill="white"/>
<path d="M207.109 248.4C207.109 248.4 208.805 257.489 210.598 262.038C212.391 266.587 214.497 269.227 214.302 270.074C214.107 270.922 211.241 271.127 209.546 268.808C207.85 266.49 203.513 260.138 202.138 260.138C200.764 260.138 199.809 269.227 199.809 269.227" stroke="#090938" stroke-width="1.09" stroke-linecap="round" stroke-linejoin="round"/>
<path d="M279.329 390.689C323.86 390.689 359.96 354.608 359.96 310.1C359.96 265.593 323.86 229.512 279.329 229.512C234.798 229.512 198.698 265.593 198.698 310.1C198.698 354.608 234.798 390.689 279.329 390.689Z" fill="#E4DFFC"/>
<path d="M301.502 205.344H277.312C273.386 205.337 269.594 206.763 266.647 209.354C263.699 211.945 261.799 215.522 261.304 219.414C260.808 223.305 261.752 227.244 263.956 230.49C266.161 233.735 269.475 236.065 273.277 237.041V253.134L286.005 237.548H301.502C305.71 237.445 309.711 235.701 312.65 232.69C315.59 229.679 317.236 225.638 317.236 221.431C317.236 217.224 315.59 213.184 312.65 210.172C309.711 207.161 305.71 205.418 301.502 205.314V205.344Z" fill="#4941C0"/>
<path d="M254.456 521.036C254.456 521.036 286.824 523.062 305.205 519.857L298.968 366.852C298.968 366.852 294.748 359.78 283.286 355.738C271.824 351.695 258.16 357.423 253.443 362.81C248.726 368.197 252.098 520.529 252.098 520.529L254.456 521.036Z" fill="#F7F9F8" stroke="#263238" stroke-width="1.73" stroke-linecap="round" stroke-linejoin="round"/>
<path d="M255.801 355.738C255.801 355.738 223.639 371.908 218.882 374.772C214.126 377.636 213.824 387.923 213.824 392.638C213.824 397.352 215.169 613.042 215.169 613.042C227.312 613.841 239.503 612.589 251.23 609.34C262.827 606.308 273.741 601.102 283.393 593.998L278.062 478.292L271.99 376.682C271.99 376.458 268.277 348.325 255.801 355.738Z" fill="#FCDC59" stroke="#090938" stroke-width="1.18" stroke-miterlimit="10"/>
<path d="M265.411 345.287C265.411 345.287 257.994 346.135 254.963 350.343C253.118 352.824 251.746 355.624 250.919 358.603L248.053 384.213L257.663 381.855L252.936 393.311C252.936 393.311 257.809 407.465 263.218 419.437C268.628 431.409 276.542 455.83 276.542 455.83L272.828 379.333C272.828 379.333 272.828 357.084 271.142 352.369C269.456 347.654 267.77 345.287 265.411 345.287Z" fill="#FCDC59" stroke="#090938" stroke-width="1.18" stroke-miterlimit="10"/>
<path d="M283.958 360.793L289.689 592.818L323.07 602.258L318.197 425.494C318.197 425.494 319.035 380.003 316.17 373.769C313.305 367.534 287.672 354.579 285.138 354.89C282.604 355.202 283.958 360.793 283.958 360.793Z" fill="#FCDC59" stroke="#090938" stroke-width="1.18" stroke-miterlimit="10"/>
<path d="M283.958 349.164C286.04 349.666 287.983 350.626 289.645 351.974C291.308 353.322 292.648 355.025 293.568 356.957C296.434 363.191 303.851 382.567 303.851 382.567L294.416 383.745L304.357 390.827L286.658 457.067L284.592 385.226L282.945 355.554C283.12 355.739 281.093 350.849 283.958 349.164Z" fill="#FCDC59" stroke="#090938" stroke-width="1.18" stroke-miterlimit="10"/>
<path d="M263.218 335.516C263.218 335.516 264.407 343.776 262.721 348.325C261.035 352.874 268.111 367.028 270.976 375.961C273.842 384.894 276.707 391.966 278.393 390.953C280.079 389.94 286.19 356.751 285.81 352.533C285.43 348.316 288.344 335.516 288.344 335.516C288.344 335.516 272.662 340.065 263.218 335.516Z" fill="white" stroke="#090938" stroke-width="1.73" stroke-linecap="round" stroke-linejoin="round"/>
<path d="M243.16 326.924C252.098 326.924 259.349 319.307 259.349 309.907C259.349 300.506 252.098 292.889 243.16 292.889C234.223 292.889 226.972 300.506 226.972 309.907C226.972 319.307 234.223 326.924 243.16 326.924Z" fill="#090938" stroke="#090938" stroke-width="1.73" stroke-linecap="round" stroke-linejoin="round"/>
<path d="M251.591 317.826C251.591 317.826 248.726 310.413 245.353 313.277C241.981 316.141 245.353 322.375 247.878 326.077C250.402 329.779 255.295 328.103 254.797 324.392C254.218 321.997 253.124 319.756 251.591 317.826Z" fill="white" stroke="#090938" stroke-width="1.73" stroke-linecap="round" stroke-linejoin="round"/>
<path d="M295.595 313.277C295.595 313.277 297.106 306.195 298.968 310.91C299.801 312.813 300.188 314.88 300.1 316.955C300.012 319.03 299.452 321.057 298.461 322.882C296.775 325.746 297.106 325.405 296.434 322.882C295.986 319.697 295.706 316.491 295.595 313.277Z" fill="white" stroke="#090938" stroke-width="1.73" stroke-linecap="round" stroke-linejoin="round"/>
<path d="M247.556 304.179C247.556 304.179 252.946 330.295 256.328 336.529C259.71 342.764 271.162 353.381 281.454 348.998C291.746 344.614 297.467 336.695 297.467 327.09C297.467 317.485 298.812 305.182 297.126 294.574C296.259 289.771 293.786 285.404 290.112 282.188C286.438 278.973 281.78 277.099 276.902 276.874C267.789 276.543 253.511 281.745 250.763 290.863C249.24 295.18 248.166 299.642 247.556 304.179Z" fill="white" stroke="#090938" stroke-width="1.73" stroke-linecap="round" stroke-linejoin="round"/>
<path d="M247.878 313.783C247.878 313.783 263.901 307.539 274.017 299.795C284.134 292.051 287.331 286.479 287.331 286.479C287.331 286.479 292.204 299.62 294.241 303.838C295.63 306.806 296.869 309.843 297.954 312.936C297.954 312.936 301.161 307.539 301.161 296.132C301.161 284.725 297.954 275.578 285.986 269.675C274.017 263.772 254.456 267.318 245.519 275.91C236.582 284.501 238.443 298.314 240.646 303.886C242.404 307.615 244.858 310.975 247.878 313.783Z" fill="#090938" stroke="#090938" stroke-width="1.73" stroke-linecap="round" stroke-linejoin="round"/>
<path d="M283.12 303.33C283.12 303.33 281.434 303.671 281.434 308.727C281.434 313.782 283.12 322.364 282.779 323.553C282.438 324.741 279.407 328.102 277.38 326.076" stroke="#090938" stroke-width="1.73" stroke-linecap="round" stroke-linejoin="round"/>
<path d="M270.304 331.132C270.304 331.132 277.721 334.337 287.165 328.609" stroke="#090938" stroke-width="1.73" stroke-linecap="round" stroke-linejoin="round"/>
<path d="M270.304 312.097C270.304 313.783 269.631 315.293 268.783 315.293C267.935 315.293 267.273 313.948 267.273 312.097C267.273 310.247 267.945 308.893 268.783 308.893C269.622 308.893 270.304 310.412 270.304 312.097Z" fill="#090938"/>
<path d="M288.851 311.086C288.851 312.771 288.179 314.281 287.331 314.281C286.483 314.281 285.81 312.937 285.81 311.086C285.81 309.235 286.492 307.881 287.331 307.881C288.169 307.881 288.851 309.225 288.851 311.086Z" fill="#090938"/>
<path d="M314.806 371.908C317.67 373.234 320.237 375.126 322.351 377.47C324.465 379.813 326.082 382.561 327.105 385.546C330.312 395.482 340.75 461.878 338.577 468.112C336.218 474.346 330.653 479.227 320.702 475.856C310.751 472.486 295.41 456.15 295.41 456.15L307.389 426.322L316.823 431.193L314.806 404.434" fill="white"/>
<path d="M314.806 371.908C317.67 373.234 320.237 375.126 322.351 377.47C324.465 379.813 326.082 382.561 327.105 385.546C330.312 395.482 340.75 461.878 338.577 468.112C336.218 474.346 330.653 479.227 320.702 475.856C310.751 472.486 295.41 456.15 295.41 456.15L307.389 426.322L316.823 431.193L314.806 404.434" fill="#FCDC59"/>
<path d="M314.806 371.908C317.67 373.234 320.237 375.126 322.351 377.47C324.465 379.813 326.082 382.561 327.105 385.546C330.312 395.482 340.75 461.878 338.577 468.112C336.218 474.346 330.653 479.227 320.702 475.856C310.751 472.486 295.41 456.15 295.41 456.15L307.389 426.322L316.823 431.193L314.806 404.434" stroke="#090938" stroke-width="1.18" stroke-miterlimit="10"/>
<path d="M229.33 369.727C229.33 369.727 212.479 373.428 209.614 375.113C206.748 376.799 197.304 444.539 195.452 455.965C193.425 467.431 213.152 469.603 219.048 471.98C224.945 474.357 268.618 477.532 268.618 477.532L269.125 442.318L238.911 434.525L238.58 385.819" fill="#FCDC59"/>
<path d="M229.33 369.727C229.33 369.727 212.479 373.428 209.614 375.113C206.748 376.799 197.304 444.539 195.452 455.965C193.425 467.431 213.152 469.603 219.048 471.98C224.945 474.357 268.618 477.532 268.618 477.532L269.125 442.318L238.911 434.525L238.58 385.819" stroke="#090938" stroke-width="1.18" stroke-miterlimit="10"/>
<path d="M229.33 369.727C229.33 369.727 212.479 373.428 209.614 375.113C206.748 376.799 197.304 444.539 195.452 455.965C193.425 467.431 213.152 469.603 219.048 471.98C224.945 474.357 268.618 477.532 268.618 477.532L269.125 442.318L238.911 434.525L238.58 385.819" stroke="#090938" stroke-width="1.73" stroke-linecap="round" stroke-linejoin="round"/>
<path d="M200.891 412.48L333.967 413.64" stroke="#090938" stroke-width="1.18" stroke-miterlimit="10"/>
</g>
<defs>
<clipPath id="clip0">
<rect width="461" height="414" fill="white"/>
</clipPath>
</defs>
</svg>
