<svg xmlns="http://www.w3.org/2000/svg" width="120" height="120" viewBox="0 0 120 120"><defs><style>.a{fill:#367d8e;}.b{fill:#9fe0f7;}.c{fill:#5ba7bc;}.d{fill:#1c6272;}</style></defs><path class="a" d="M21.88,78,14.6,79.79l6,25.07,7.28-1.75Z"/><path class="b" d="M32.74,81.41l-7.28,1.75,4.68,19.41,7.28-1.75Z"/><path class="c" d="M39.32,67,32,68.73l7.59,31.54,7.28-1.75Z"/><path class="d" d="M78.36,71.39a13.88,13.88,0,0,1,7-18.36l.31-.14-4-9.08A23.26,23.26,0,0,0,68,60.7,24,24,0,0,0,86.44,89.14l2.08-9.73a13.93,13.93,0,0,1-10.16-8Z"/><path class="b" d="M96.72,78.43a13.67,13.67,0,0,1-8.2,1l-2.08,9.77a23,23,0,0,0,14.74-1.56L97,78.26Z"/><path class="c" d="M97,78.29l4.15,9.35a23.63,23.63,0,0,0,14.16-20.26l-10.4-.72A13.92,13.92,0,0,1,97,78.29Z"/><path class="a" d="M81.68,43.81l4,9.1a13.89,13.89,0,0,1,19.22,13.75l10.4.72a22,22,0,0,0-2-11.42A23.94,23.94,0,0,0,81.68,43.81Z"/><path class="b" d="M33,38.28l.51-4.93h5.07v1.16h-4l-.3,2.7a3.19,3.19,0,0,1,1.66-.43,2.71,2.71,0,0,1,2.14.9,3.49,3.49,0,0,1,.8,2.41A3.37,3.37,0,0,1,38,42.5a3,3,0,0,1-2.3.88,3.13,3.13,0,0,1-2.15-.73,2.9,2.9,0,0,1-.94-2h1.19a2.06,2.06,0,0,0,.6,1.29,1.94,1.94,0,0,0,1.3.43,1.68,1.68,0,0,0,1.37-.6,2.53,2.53,0,0,0,.5-1.66,2.29,2.29,0,0,0-.54-1.59,1.84,1.84,0,0,0-1.44-.6,2.06,2.06,0,0,0-1.29.36l-.33.27Z"/><path class="b" d="M93,59.87a2.33,2.33,0,0,1-.39,1.32,2.6,2.6,0,0,1-1.06.9,2.86,2.86,0,0,1,1.23,1,2.42,2.42,0,0,1,.45,1.44,2.59,2.59,0,0,1-.87,2,3.29,3.29,0,0,1-2.28.76,3.33,3.33,0,0,1-2.29-.76,2.61,2.61,0,0,1-.85-2,2.51,2.51,0,0,1,.43-1.44,2.7,2.7,0,0,1,1.22-1,2.56,2.56,0,0,1-1-.91,2.26,2.26,0,0,1-.38-1.31,2.56,2.56,0,0,1,.8-2,3.41,3.41,0,0,1,4.22,0A2.56,2.56,0,0,1,93,59.87Zm-1,4.62a1.8,1.8,0,0,0-.53-1.36,1.88,1.88,0,0,0-3.25,1.36,1.76,1.76,0,0,0,.5,1.32,2.22,2.22,0,0,0,2.78,0A1.73,1.73,0,0,0,92,64.49Zm-1.89-6.31a1.63,1.63,0,0,0-1.2.47,1.89,1.89,0,0,0,0,2.46,1.64,1.64,0,0,0,1.21.47,1.6,1.6,0,0,0,1.21-.47,1.69,1.69,0,0,0,.45-1.22,1.66,1.66,0,0,0-.47-1.23A1.59,1.59,0,0,0,90.08,58.18Z"/><path class="b" d="M24.28,49.41a5.73,5.73,0,0,1-.76,3.29,2.69,2.69,0,0,1-2.36,1.07,2.7,2.7,0,0,1-2.34-1.05A5.47,5.47,0,0,1,18,49.58V47.9a5.66,5.66,0,0,1,.75-3.24,2.72,2.72,0,0,1,2.37-1.06,2.72,2.72,0,0,1,2.35,1,5.43,5.43,0,0,1,.78,3.16ZM23,47.69a4.56,4.56,0,0,0-.45-2.32,1.73,1.73,0,0,0-2.83,0,4.56,4.56,0,0,0-.45,2.24v2A4.7,4.7,0,0,0,19.75,52a1.54,1.54,0,0,0,1.41.76A1.51,1.51,0,0,0,22.54,52,4.38,4.38,0,0,0,23,49.75Z"/></svg>
