<svg xmlns="http://www.w3.org/2000/svg" width="120" height="120" viewBox="0 0 120 120"><defs><style>.a{fill:#9fe0f7;}.a,.b,.c,.d{stroke:#090938;stroke-linecap:round;stroke-linejoin:round;stroke-width:0.65px;}.b{fill:#fff;}.c,.e{fill:#090938;}.d{fill:none;}</style></defs><path class="a" d="M103.83,116.56c-.07-1.24-.59-7.79-1.44-9.52-.91-1.89-5.21-3.85-8.93-6S77.88,91.69,76.19,90.55a30.29,30.29,0,0,0-4.67-2l-9.35-.52h-.39l-9.26.52a22.18,22.18,0,0,0-4.63,2C46.13,91.66,34.27,99,30.56,101s-8,4.11-8.93,6c-.85,1.7-1.37,8.28-1.44,9.52Z"/><path class="b" d="M73.39,101.76c1-2.41,1.17-8.8.26-11.28s-2.41-2.79-2.41-2.79l-18.18-.27s-2.68,3.72-2.68,5.35,3.45,12.38,5.08,15.44q.3.58.78,1.38l6.24-5.94,6.57,5.74C71.11,105.87,72.91,102.74,73.39,101.76Z"/><path class="b" d="M52.14,83.58s1.31,8.57,2.15,10.75,7,9.36,8.28,9.36,8.57-8.68,9.19-10,1.93-9.21,1.93-9.21-6.52,2.41-10.13,2.41S52.14,83.58,52.14,83.58Z"/><path class="c" d="M63.35,91.33l-8.57-6.78c-1.56-.58-2.68-1-2.68-1s.72,4.49,1.37,7.79h9.88Z"/><path class="b" d="M49.73,70.54s-1.17-2.54-3.06-.39-.39,4.37.77,6.65,2.55,3.06,3.07,2.67S49.73,70.54,49.73,70.54Z"/><path class="b" d="M76.71,70.54s1.17-2.54,3.07-.39.39,4.37-.78,6.65-2.54,3.06-3.06,2.67S76.71,70.54,76.71,70.54Z"/><path class="b" d="M54.88,53.33s-5.35,3.85-6.24,7.17S50,79.66,50.2,81.75s7.8,8.93,10.24,10a10.25,10.25,0,0,0,6.91,0c1.17-.52,6.78-6.64,7.79-8.4S78,67,78,63.64a14.2,14.2,0,0,0-5.22-10.13c-2.93-2-7.17-3.59-11.27-2.8A22.05,22.05,0,0,0,54.88,53.33Z"/><path class="d" d="M59.57,78.27s-.78.13.39.91,2.67,2,4.5,1.43,3.32-1,3.07-2.93"/><path class="d" d="M58.33,83a16.21,16.21,0,0,0,10.23-.4"/><path class="e" d="M57.22,72.89c.4,0,.72-.52.72-1.17s-.32-1.18-.72-1.18-.67.53-.67,1.18S56.83,72.89,57.22,72.89Z"/><path class="e" d="M69.87,71.72c0,.65-.32,1.17-.71,1.17s-.72-.52-.72-1.17.32-1.18.72-1.18S69.87,71,69.87,71.72Z"/><path class="d" d="M54.42,68.26a6,6,0,0,1,5.35-1"/><path class="d" d="M66.61,67.15s3.58-1,6,1.56"/><path d="M79.06,60.76a12.59,12.59,0,0,0-5.8-7.34,20.14,20.14,0,0,0-3.07-2.68c-2-1.82-4.18-3.32-7-3.11-3,.23-5.77,2.07-8.84,1.9a1.07,1.07,0,0,0-1.1,1.36,18.64,18.64,0,0,1-3.66.18,1.18,1.18,0,0,0-1.17,1.17,1.14,1.14,0,0,0,.67,1,9.51,9.51,0,0,1-4.58-.86,1.25,1.25,0,0,0-1.1,0,1,1,0,0,0-.86,1.1c.05,1.2,2.33,10.06,4.88,12.19.19.16,1.28,1.2,1.78,1.2a1.2,1.2,0,0,0,1.17-1.17c.29-3.07,3.81-4.36,6.33-5,1.42-.37,2.87-.7,4.25-1.17a17.45,17.45,0,0,0,8.93-2.83,23.19,23.19,0,0,0,5,4.48l.32.61c.07.14.12.26.18.39s.08.18.11.25,0,0,0,0h0a16.22,16.22,0,0,1,.93,3.12,1.18,1.18,0,0,0,2.26,0A13,13,0,0,0,79,63.41a.94.94,0,0,0,.28-.74C79.28,62.39,79.09,60.86,79.06,60.76Z"/><path d="M61.19,50.78v0a2.07,2.07,0,0,0,.19.25,1.5,1.5,0,0,0,.25.19h0l.28.12h0l.31,0h0l.32,0h0a.87.87,0,0,0,.17-.07.85.85,0,0,0,.17-.08l.25-.19h0l.18-.23h0a1.44,1.44,0,0,0,.12-.3v0h0a.88.88,0,0,0,0-.16.78.78,0,0,0,0-.16h0a.79.79,0,0,0-.1-.45.82.82,0,0,0-.24-.38.91.91,0,0,0-.37-.24,1,1,0,0,0-.46-.1l-.31,0a1.26,1.26,0,0,0-.51.3l-.18.24a1.11,1.11,0,0,0-.16.59h0l.05-.31s0,0,0,0l.12-.28,0,0,.19-.24,0,0,.24-.18,0,0,.28-.12,0,0,.32-.05a0,0,0,0,1-.05,0l.31.05h0l.28.11h0l.23.18,0,0,.19.24v0a1.06,1.06,0,0,0-.3-.33,1,1,0,0,0-.4-.21A1.07,1.07,0,0,0,62,49a1,1,0,0,0-.43.14l-.24.18a1.29,1.29,0,0,0-.3.52l0,.31a1.11,1.11,0,0,0,.16.59Z"/></svg>
