<svg width="485" height="441" viewBox="0 0 485 441" fill="none" xmlns="http://www.w3.org/2000/svg">
<path d="M342.592 95.445C278.595 71.8831 203.695 78.4601 144.726 112.822C106.157 135.294 73.9007 170.253 61.1613 212.322C48.4219 254.392 57.3826 303.691 88.9298 334.727C98.6914 344.32 110.43 352.094 123.634 356.288C146.693 363.585 171.884 359.308 195.3 353.029C253.549 337.371 307.865 309.957 354.761 272.547C417.879 222.113 429.055 127.286 342.592 95.445Z" fill="#F0F0F0"/>
<path d="M354.82 300.268C354.82 300.268 346.287 300.334 331.618 300.366H325.49C299.609 300.399 258.986 300.425 213.32 300.425C135.169 300.425 71.7808 300.353 71.7808 300.255C71.7808 300.157 135.136 300.085 213.32 300.085H246.14C276.428 300.085 302.945 300.085 322.208 300.137H333.32C346.95 300.209 354.82 300.236 354.82 300.268Z" fill="#263238"/>
<path d="M243.428 261.328C243.422 264.517 242.267 267.602 240.164 270.043C238.062 272.483 235.146 274.125 231.927 274.679L231.693 274.718C228.082 275.272 224.392 274.418 221.421 272.339C218.45 270.26 216.438 267.124 215.819 263.609C217.46 257.244 223.187 235.928 226.623 232.569C229.55 229.727 233.434 233.223 235.598 235.667L242.758 257.12C242.953 257.71 243.105 258.313 243.213 258.923C243.356 259.718 243.427 260.522 243.428 261.328V261.328Z" fill="#3C2035" stroke="black" stroke-width="0.24" stroke-miterlimit="10"/>
<path d="M352.168 276.103C352.168 276.103 337.198 210.423 335.128 203.653C332.596 195.4 322.248 185.925 309.676 183.579C307.667 183.206 305.711 182.664 303.648 182.193C301.501 181.669 299.308 181.345 297.098 181.226C287.218 184.271 276.616 184.271 266.736 181.226H266.575H266.006C258.27 182.259 252.55 184.879 248.732 189.721C244.077 194.954 241.186 201.459 240.454 208.352L237.212 237.758C236.713 237.043 236.174 236.356 235.598 235.699L242.758 257.153C242.953 257.743 243.105 258.345 243.213 258.956C243.354 259.739 243.425 260.533 243.428 261.328C243.422 264.517 242.267 267.602 240.164 270.042C238.062 272.483 235.146 274.125 231.927 274.678L231.693 274.718C228.082 275.272 224.392 274.418 221.421 272.339C218.45 270.26 216.438 267.124 215.819 263.609C215.524 264.746 215.357 265.406 215.357 265.406C215.357 265.406 215.263 274.822 220.394 277.312C230.675 282.311 241.686 278.318 248.525 274.62L248.23 277.717L261.452 277.064C264.984 276.894 268.506 277.567 271.713 279.024C274.733 280.39 278.109 281.867 278.377 281.782V297.89C278.377 297.89 265.685 300.503 262.095 299.517C259.871 298.902 257.774 298.269 257.506 297.975C256.787 296.895 256.141 295.771 255.571 294.609C255.411 294.511 255.261 294.4 255.122 294.276L255.276 294.309C254.727 294.099 253.106 293.407 252.892 292.714C252.71 291.954 252.598 291.18 252.557 290.401L252.302 290.277C252.302 290.277 252.396 290.277 252.55 290.316C252.55 290.316 249.516 289.29 247.225 288.421L246.113 300.105C276.401 300.105 302.918 300.105 322.181 300.157H333.293L333.963 300.046C345.168 297.955 354.318 287.062 352.168 276.103ZM320.018 274.554L319.254 260.433L322.355 269.314L323.434 274.058L320.018 274.554ZM336.863 282.723C336.391 281.886 335.853 281.087 335.255 280.331C334.523 279.407 333.71 278.548 332.824 277.763C331.926 276.99 330.962 276.293 329.944 275.678C329.11 275.18 328.239 274.743 327.339 274.371C325.805 273.757 324.787 273.535 324.787 273.463C325.034 273.471 325.279 273.508 325.517 273.574C325.798 273.627 326.076 273.699 326.347 273.79C326.669 273.888 327.017 273.986 327.432 274.143C328.361 274.485 329.257 274.905 330.111 275.397C332.215 276.603 334.053 278.204 335.517 280.109C336.108 280.887 336.63 281.714 337.077 282.579C337.285 282.938 337.419 283.291 337.56 283.592C337.68 283.845 337.78 284.108 337.861 284.376C337.954 284.599 338.022 284.831 338.062 285.069C337.995 285.069 337.667 284.121 336.863 282.723Z" fill="#3C2035" stroke="black" stroke-width="0.24" stroke-miterlimit="10"/>
<path d="M278.357 281.801V297.909C278.357 297.909 265.665 300.523 262.074 299.536C259.851 298.922 257.754 298.288 257.486 297.994C256.767 296.914 256.121 295.79 255.551 294.629C255.391 294.531 255.241 294.419 255.102 294.295L255.256 294.328C254.707 294.119 253.086 293.426 252.872 292.734C252.69 291.974 252.578 291.2 252.537 290.42L252.282 290.296C252.282 290.296 252.376 290.296 252.53 290.335C252.53 290.335 249.496 289.31 247.205 288.44L247.587 284.376L248.103 278.972L248.217 277.763L261.438 277.109C264.971 276.94 268.493 277.613 271.699 279.07C274.713 280.409 278.089 281.886 278.357 281.801Z" fill="#3C2035" stroke="black" stroke-width="0.24" stroke-miterlimit="10"/>
<path d="M333.266 300.177C332.724 300.268 332.174 300.327 331.619 300.366C331.163 300.405 330.701 300.425 330.239 300.432L325.49 300.379L322.168 300.366H246.06V300.105C276.348 300.105 302.865 300.105 322.128 300.157L333.266 300.177Z" fill="#3C2035" stroke="black" stroke-width="0.24" stroke-miterlimit="10"/>
<path d="M338.062 285.069C337.995 285.069 337.667 284.121 336.863 282.69C336.391 281.854 335.853 281.054 335.255 280.298C334.523 279.375 333.71 278.516 332.824 277.73C331.926 276.958 330.962 276.261 329.944 275.646C329.11 275.147 328.239 274.71 327.339 274.339C325.805 273.724 324.787 273.502 324.787 273.43C325.035 273.449 325.28 273.497 325.517 273.574C325.798 273.627 326.076 273.699 326.347 273.79C326.669 273.888 327.017 273.986 327.432 274.143C328.361 274.485 329.257 274.905 330.111 275.397C332.215 276.603 334.053 278.204 335.517 280.109C336.108 280.887 336.63 281.714 337.077 282.579C337.285 282.938 337.419 283.291 337.56 283.592C337.68 283.846 337.78 284.108 337.861 284.376C337.954 284.599 338.022 284.831 338.062 285.069V285.069Z" fill="#3C2035" stroke="black" stroke-width="0.24" stroke-miterlimit="10"/>
<path d="M266.334 181.259H266.267H266.334Z" fill="#3C2035" stroke="black" stroke-width="0.24" stroke-miterlimit="10"/>
<path d="M266.461 181.246H266.415H266.461Z" fill="#3C2035" stroke="black" stroke-width="0.24" stroke-miterlimit="10"/>
<path d="M243.428 261.328C243.422 264.517 242.267 267.602 240.164 270.042C238.062 272.483 235.146 274.125 231.927 274.678L231.693 274.718C228.082 275.272 224.392 274.418 221.421 272.339C218.45 270.26 216.438 267.124 215.819 263.609L215.779 263.393L207.071 209.332C206.214 206.104 203.414 198.988 203.414 198.988L202.349 195.812C202.162 195.949 201.989 196.104 201.834 196.276C201.557 196.615 201.198 196.883 200.789 197.053C200.019 197.295 199.161 196.707 198.679 196.053C198.19 195.381 197.881 194.599 197.782 193.779C197.637 192.505 198.016 191.227 198.836 190.224C199.656 189.222 200.849 188.579 202.155 188.434C202.474 188.078 202.861 187.785 203.294 187.571C206.214 186.127 210.34 188.388 210.34 188.388L210.126 187.212C210.126 187.212 208.069 184.102 201.78 184.879C200.842 185.009 199.887 184.795 199.101 184.278C198.851 184.133 198.637 183.935 198.476 183.699C198.314 183.462 198.21 183.194 198.17 182.912C198.023 181.416 199.074 180.952 202.992 180.39C206.911 179.828 210.869 180.606 212.724 182.448C213.606 183.285 214.428 184.18 215.183 185.128C215.183 185.128 213.897 174.345 213.843 173.692C213.689 171.731 214.473 170.006 215.812 169.771C216.67 169.653 217.868 170.085 218.116 172.385C218.337 174.345 223.213 194.472 223.213 194.472L224.834 203.483L235.598 235.673L242.758 257.126C242.953 257.716 243.105 258.319 243.213 258.93C243.355 259.722 243.427 260.524 243.428 261.328V261.328Z" fill="#FCE200" stroke="black" stroke-width="0.48" stroke-miterlimit="10"/>
<path d="M222.939 202.915C221.82 203.346 220.541 202.64 219.804 201.713C219.067 200.785 218.686 199.628 218.023 198.648C216.013 195.707 211.901 194.642 210.065 191.616C209.804 191.192 209.623 190.597 209.992 190.264C210.36 189.931 210.883 190.114 211.331 190.264L222.369 194.779" fill="#FCE200"/>
<path d="M222.939 202.915C221.82 203.346 220.541 202.64 219.804 201.713C219.067 200.785 218.686 199.628 218.023 198.648C216.013 195.707 211.901 194.642 210.065 191.616C209.804 191.192 209.623 190.597 209.992 190.264C210.36 189.931 210.883 190.114 211.331 190.264L222.369 194.779" stroke="black" stroke-width="0.48" stroke-miterlimit="10"/>
<path d="M222.322 194.805C221.97 194.559 221.587 194.354 221.184 194.198C220.434 193.845 219.335 193.361 217.976 192.767L213.193 190.728L211.8 190.146C211.275 189.826 210.643 189.721 210.039 189.852C209.854 189.932 209.699 190.065 209.594 190.233C209.489 190.401 209.438 190.596 209.449 190.793C209.469 191.114 209.563 191.427 209.724 191.708C210.024 192.202 210.379 192.662 210.782 193.08C212.423 194.753 214.406 195.694 215.893 196.89C216.611 197.424 217.243 198.061 217.768 198.778C218.196 199.44 218.589 200.123 218.947 200.824C219.198 201.369 219.568 201.855 220.031 202.248C220.493 202.64 221.037 202.93 221.626 203.098C222.51 203.261 222.965 202.928 222.925 202.915C222.514 202.968 222.096 202.946 221.693 202.85C221.166 202.652 220.687 202.35 220.286 201.964C219.885 201.577 219.57 201.113 219.362 200.602C219.02 199.948 218.692 199.223 218.223 198.471C217.687 197.692 217.03 197 216.274 196.419C214.747 195.158 212.778 194.178 211.271 192.623C210.903 192.248 210.58 191.833 210.307 191.388C210.059 190.97 210.039 190.519 210.307 190.447C210.74 190.431 211.17 190.528 211.552 190.728L212.945 191.29L217.788 193.204C219.174 193.734 220.3 194.158 221.077 194.439C221.473 194.616 221.892 194.739 222.322 194.805V194.805Z" fill="black"/>
<path d="M208.264 191.146C208.034 191.113 207.809 191.054 207.594 190.97C207.319 190.862 207.024 190.815 206.729 190.832C206.433 190.849 206.146 190.93 205.886 191.068C205.729 191.173 205.603 191.316 205.521 191.483C205.438 191.651 205.403 191.836 205.417 192.022C205.441 192.49 205.526 192.953 205.672 193.4C205.866 193.96 205.84 194.571 205.598 195.113C205.436 195.395 205.208 195.636 204.932 195.815C204.656 195.995 204.34 196.108 204.011 196.145C203.687 196.178 203.359 196.147 203.048 196.052C202.737 195.958 202.45 195.803 202.202 195.596C201.742 195.229 201.402 194.738 201.224 194.185C200.997 193.283 200.909 192.354 200.963 191.427C200.974 190.801 201.099 190.181 201.331 189.597C201.406 189.375 201.54 189.177 201.72 189.022C201.627 189.234 201.55 189.452 201.492 189.676C201.337 190.258 201.265 190.858 201.278 191.46C201.272 192.341 201.384 193.22 201.613 194.074C201.764 194.562 202.075 194.988 202.499 195.287C202.922 195.585 203.434 195.74 203.957 195.727C204.216 195.695 204.464 195.606 204.682 195.467C204.9 195.328 205.083 195.142 205.216 194.923C205.41 194.47 205.431 193.965 205.276 193.498C205.136 193.016 205.062 192.517 205.055 192.015C205.052 191.776 205.112 191.541 205.229 191.331C205.347 191.122 205.517 190.945 205.725 190.819C206.023 190.671 206.352 190.594 206.686 190.594C207.02 190.594 207.35 190.671 207.647 190.819C208.069 190.989 208.304 191.12 208.264 191.146Z" fill="black"/>
<path d="M278.357 281.801V297.909C278.357 297.909 265.665 300.523 262.074 299.536C259.851 298.922 257.754 298.288 257.486 297.994C256.767 296.914 256.121 295.79 255.551 294.629C255.511 294.557 255.477 294.478 255.437 294.4L255.256 294.328C254.707 294.119 253.086 293.426 252.872 292.734C252.69 291.974 252.578 291.2 252.537 290.42C252.537 290.42 252.537 290.362 252.537 290.335C252.537 290.335 249.503 289.31 247.212 288.44C246.308 288.101 245.524 287.787 245.075 287.571C242.235 286.179 241.934 284.905 242.343 283.984C242.798 282.945 243.896 282.873 244.935 283.33L247.614 284.376L248.391 284.683C249.335 284.975 250.31 285.161 251.298 285.238L252.637 285.206C255.254 285.143 257.741 284.08 259.563 282.246L260.012 281.801C260.012 281.801 251.358 281.631 249.878 280.834C249.14 280.371 248.537 279.73 248.129 278.972C247.903 278.594 247.706 278.201 247.54 277.795L248.243 277.763L261.465 277.109C264.998 276.94 268.52 277.613 271.726 279.07C274.713 280.409 278.089 281.886 278.357 281.801Z" fill="#FCE200" stroke="black" stroke-width="0.48" stroke-miterlimit="10"/>
<path d="M259.302 292.1C256.938 292.04 254.618 291.466 252.51 290.42L252.255 290.296C252.255 290.296 252.349 290.296 252.503 290.336C253.012 290.466 254.258 290.891 255.752 291.27C257.701 291.76 259.302 292.002 259.302 292.1Z" fill="black"/>
<path d="M258.813 295.282C258.161 295.421 257.482 295.373 256.857 295.145C256.379 295.064 255.923 294.888 255.517 294.629C255.358 294.531 255.208 294.419 255.068 294.296L255.223 294.328C255.8 294.456 256.368 294.619 256.924 294.818C257.564 294.929 258.195 295.084 258.813 295.282V295.282Z" fill="black"/>
<path d="M338.062 285.069C337.995 285.069 337.667 284.121 336.863 282.69C336.391 281.854 335.853 281.054 335.255 280.298C334.523 279.375 333.71 278.516 332.824 277.73C331.926 276.958 330.962 276.261 329.944 275.646C329.11 275.147 328.239 274.71 327.339 274.339C325.805 273.724 324.787 273.502 324.787 273.43C325.035 273.449 325.28 273.497 325.517 273.574C325.798 273.627 326.076 273.699 326.347 273.79C326.669 273.888 327.017 273.986 327.432 274.143C328.361 274.485 329.257 274.905 330.111 275.397C332.215 276.603 334.053 278.204 335.517 280.109C336.108 280.887 336.63 281.714 337.077 282.579C337.285 282.938 337.419 283.291 337.56 283.592C337.68 283.846 337.78 284.108 337.861 284.376C337.954 284.599 338.022 284.831 338.062 285.069V285.069Z" fill="black"/>
<path d="M107.166 188.362C107.929 188.094 108.76 187.839 109.644 187.604C108.887 187.839 107.883 188.179 106.71 188.65C106.836 188.519 106.992 188.42 107.166 188.362Z" fill="#FF725E" stroke="white" stroke-miterlimit="10"/>
<path d="M111.854 222.865C111.854 222.44 111.814 222.094 111.801 221.82C111.787 221.696 111.787 221.571 111.801 221.447C111.834 221.567 111.855 221.689 111.861 221.813C111.861 222.088 111.935 222.434 111.982 222.859C112.075 223.813 112.203 225.113 112.357 226.708C112.357 227.113 112.43 227.531 112.471 227.969C112.685 230.406 112.933 233.366 113.14 236.627L112.511 232.301L112.444 231.805C112.31 229.903 112.183 228.184 112.082 226.701C112.008 225.133 111.921 223.826 111.854 222.865Z" fill="#FF725E" stroke="white" stroke-miterlimit="10"/>
<path d="M127.568 257.44L130.247 282.873C123.893 285.575 117.024 286.932 110.093 286.853C113.864 276.841 118.05 265.079 117.266 265.079L116.168 257.44H127.568Z" fill="#744EC6" stroke="black" stroke-width="0.48" stroke-miterlimit="10"/>
<path d="M139.825 227.786L142.162 229.877L140.655 231.635L138.231 229.498C138.05 229.343 137.923 229.138 137.866 228.91C137.808 228.682 137.824 228.443 137.91 228.224C137.996 228.005 138.148 227.817 138.347 227.685C138.545 227.553 138.781 227.483 139.021 227.485C139.305 227.486 139.58 227.583 139.798 227.76C139.798 227.76 139.818 227.779 139.825 227.786Z" fill="#FF725E" stroke="white" stroke-miterlimit="10"/>
<path d="M175.766 244.979L176.033 240.404C175.96 239.463 175.893 238.503 175.819 237.536C175.444 232.504 175.149 227.819 174.928 223.878V223.774L175.404 227.479L176.355 234.889V235.02L176.442 241.966L176.516 247.194L176.73 263.962C176.047 251.592 175.766 244.979 175.766 244.979Z" fill="#FF725E" stroke="white" stroke-miterlimit="10"/>
<path d="M150.615 236C150.521 236.295 150.4 236.582 150.253 236.856C150.108 237.188 149.938 237.509 149.744 237.817C149.51 238.235 149.255 238.646 148.981 239.039C148.655 239.526 148.302 239.995 147.922 240.443C147.505 240.966 147.058 241.466 146.583 241.94C145.479 243.023 144.267 243.997 142.966 244.848C141.645 245.67 140.245 246.366 138.787 246.926C138.117 247.155 137.447 247.39 136.837 247.54C136.265 247.7 135.684 247.826 135.096 247.919C134.616 248.011 134.13 248.076 133.643 248.115C133.274 248.165 132.903 248.189 132.531 248.187C132.217 248.22 131.9 248.22 131.586 248.187C131.586 248.115 132.926 248.122 135.049 247.703C135.626 247.593 136.196 247.454 136.757 247.285C137.406 247.104 138.043 246.886 138.666 246.632C141.548 245.527 144.165 243.854 146.355 241.718C146.831 241.259 147.279 240.772 147.695 240.261C148.078 239.826 148.438 239.372 148.773 238.901C150.032 237.183 150.548 235.967 150.615 236Z" fill="#263238"/>
<path d="M130.247 282.873C123.893 285.575 117.024 286.932 110.093 286.852C108.177 292.002 106.389 296.654 105.485 299.027C105.19 299.791 104.989 300.464 104.989 300.464L177.206 300.582L176.73 263.988C176.73 264.02 176.73 264.06 176.73 264.099L187.802 274.691C192.028 274.27 195.929 272.289 198.706 269.154C201.484 266.019 202.929 261.966 202.745 257.826L193.944 221.343C193.944 221.343 188.237 190.042 170.2 187.219C170.2 187.219 158.746 184.298 151.446 183.598L150.722 183.533C149.932 183.468 149.155 183.415 148.398 183.389C139.162 183.056 125.793 184.846 125.793 184.846C120.879 185.344 116.001 186.132 111.185 187.205C110.662 187.33 110.146 187.46 109.644 187.604C108.887 187.839 107.883 188.179 106.71 188.65C100.167 191.264 88.4319 197.85 85.4648 211.991C83.5425 221.14 80.8566 273.724 93.4085 281.912C98.3769 285.069 104.164 286.781 110.093 286.846" fill="#744EC6"/>
<path d="M130.247 282.873C123.893 285.575 117.024 286.932 110.093 286.852C108.177 292.002 106.389 296.654 105.485 299.027C105.19 299.791 104.989 300.464 104.989 300.464L177.206 300.582L176.73 263.988C176.73 264.02 176.73 264.06 176.73 264.099L187.802 274.691C192.028 274.27 195.929 272.289 198.706 269.154C201.484 266.019 202.929 261.966 202.745 257.826L193.944 221.343C193.944 221.343 188.237 190.042 170.2 187.219C170.2 187.219 158.746 184.298 151.446 183.598L150.722 183.533C149.932 183.468 149.155 183.415 148.398 183.389C139.162 183.056 125.793 184.846 125.793 184.846C120.879 185.344 116.001 186.132 111.185 187.205C110.662 187.33 110.146 187.46 109.644 187.604C108.887 187.839 107.883 188.179 106.71 188.65C100.167 191.264 88.4319 197.85 85.4648 211.991C83.5425 221.14 80.8566 273.724 93.4085 281.912C98.3769 285.069 104.164 286.781 110.093 286.846" stroke="black" stroke-width="0.48" stroke-miterlimit="10"/>
<path d="M190.139 251.866C189.052 251.906 187.968 252.022 186.897 252.212C184.312 252.723 181.943 253.979 180.097 255.817C178.251 257.655 177.013 259.992 176.543 262.524C176.366 263.574 176.27 264.636 176.255 265.7C176.181 265.418 176.147 265.128 176.154 264.837C176.119 264.048 176.169 263.257 176.301 262.478C176.729 259.878 177.976 257.472 179.871 255.596C181.765 253.719 184.212 252.466 186.871 252.01C187.668 251.866 188.478 251.801 189.289 251.814C189.573 251.795 189.859 251.813 190.139 251.866Z" fill="black"/>
<path d="M114.192 257.447C114.192 257.505 113.522 257.538 112.437 257.884C111.064 258.328 109.844 259.134 108.914 260.214C107.983 261.294 107.378 262.605 107.166 264.001C106.998 265.073 107.085 265.752 107.025 265.759C106.965 265.765 106.958 265.595 106.918 265.288C106.871 264.854 106.871 264.416 106.918 263.981C107.074 262.516 107.675 261.13 108.646 260.002C109.628 258.885 110.922 258.072 112.37 257.662C112.807 257.542 113.256 257.468 113.71 257.44C114.018 257.407 114.192 257.42 114.192 257.447Z" fill="#263238"/>
<path d="M130.213 282.879C130.173 282.747 130.146 282.612 130.133 282.474C130.093 282.174 130.046 281.788 129.979 281.311C129.858 280.259 129.691 278.815 129.483 277.037C129.088 273.391 128.552 268.418 127.963 262.929C127.769 261.021 127.574 259.172 127.4 257.46L127.568 257.61L116.851 257.545L113.737 257.499H112.906C112.81 257.512 112.714 257.512 112.618 257.499C112.714 257.486 112.81 257.486 112.906 257.499H113.737L116.851 257.453L127.568 257.394H127.715V257.545L128.291 263.008C128.84 268.503 129.336 273.463 129.704 277.135C129.865 278.913 129.999 280.364 130.093 281.416C130.133 281.893 130.16 282.285 130.187 282.585C130.204 282.683 130.212 282.781 130.213 282.879Z" fill="#263238"/>
<path d="M141.117 233.595C145.806 237.366 156.831 246.292 156.831 246.292L162.999 245.22L144.299 229.87C143.814 229.475 143.193 229.274 142.563 229.309C141.932 229.345 141.338 229.613 140.903 230.06V230.06C140.678 230.288 140.501 230.557 140.382 230.852C140.264 231.147 140.206 231.462 140.212 231.779C140.218 232.096 140.288 232.408 140.418 232.699C140.549 232.989 140.736 233.251 140.97 233.471L141.117 233.595Z" fill="black"/>
<path d="M142.162 229.877L140.655 231.635L138.231 229.498C138.05 229.343 137.923 229.138 137.866 228.91C137.808 228.682 137.824 228.443 137.91 228.224C137.996 228.005 138.148 227.817 138.347 227.685C138.545 227.553 138.781 227.483 139.021 227.485C139.305 227.486 139.58 227.583 139.798 227.76C139.798 227.76 139.798 227.76 139.798 227.76L142.162 229.877Z" fill="white"/>
<path d="M147.849 232.785C147.439 233.453 146.932 234.058 146.342 234.582C145.835 235.182 145.244 235.71 144.587 236.15C144.998 235.481 145.505 234.874 146.094 234.347C146.597 233.745 147.189 233.219 147.849 232.785V232.785Z" fill="#263238"/>
<path d="M148.023 240.3C147.363 239.961 146.738 239.563 146.154 239.11C145.042 238.326 143.535 237.189 141.948 235.843C141.134 235.253 140.463 234.497 139.979 233.628C139.638 232.867 139.616 232.006 139.919 231.23C140.119 230.713 140.462 230.261 140.91 229.923C141.225 229.694 141.432 229.622 141.439 229.642C141.446 229.661 141.271 229.772 140.997 230.027C140.609 230.388 140.319 230.837 140.153 231.334C139.904 232.052 139.947 232.836 140.274 233.523C140.756 234.339 141.406 235.048 142.182 235.608C143.756 236.947 145.23 238.111 146.308 238.94C146.909 239.357 147.482 239.811 148.023 240.3V240.3Z" fill="#263238"/>
<path d="M127.775 259.479C132.223 258.028 136.938 259.008 141.379 257.551C142.903 257.16 144.332 256.473 145.578 255.532C146.991 254.31 147.708 252.513 148.833 251.036C152.182 246.619 158.472 245.704 164.084 245.155C165.386 244.951 166.714 244.968 168.009 245.207C168.657 245.335 169.26 245.623 169.76 246.044C170.259 246.465 170.639 247.005 170.863 247.612C171.224 248.847 170.407 250.389 169.094 250.52C170.327 250.572 171.184 251.788 171.412 252.97C171.64 254.153 171.412 255.369 171.599 256.558C171.827 258.231 172.765 259.825 172.711 261.479C172.638 263.785 170.702 265.687 168.492 266.576C166.281 267.464 163.89 267.582 161.553 267.883C150.032 269.464 141.325 275.835 130.213 280.651" fill="white"/>
<path d="M127.775 259.479C132.223 258.028 136.938 259.008 141.379 257.551C142.903 257.16 144.332 256.473 145.578 255.532C146.991 254.31 147.708 252.513 148.833 251.036C152.182 246.619 158.472 245.704 164.084 245.155C165.386 244.951 166.714 244.968 168.009 245.207C168.657 245.335 169.26 245.623 169.76 246.044C170.259 246.465 170.639 247.005 170.863 247.612C171.224 248.847 170.407 250.389 169.094 250.52C170.327 250.572 171.184 251.788 171.412 252.97C171.64 254.153 171.412 255.369 171.599 256.558C171.827 258.231 172.765 259.825 172.711 261.479C172.638 263.785 170.702 265.687 168.492 266.576C166.281 267.464 163.89 267.582 161.553 267.883C150.032 269.464 141.325 275.835 130.213 280.651" stroke="black" stroke-width="0.5" stroke-miterlimit="10"/>
<path d="M171.519 254.506C171.739 254.854 172.092 255.103 172.5 255.199C172.908 255.295 173.338 255.229 173.696 255.016L173.783 254.957C174.127 254.69 174.391 254.337 174.544 253.935C174.698 253.533 174.735 253.098 174.654 252.676C174.48 251.833 174.098 251.044 173.542 250.376C172.563 249.141 171.488 247.981 170.327 246.906L166.777 249.821L171.519 254.506Z" fill="white"/>
<path d="M170.206 250.703C170.206 250.814 168.023 250.637 165.391 251.036C162.758 251.435 160.702 252.206 160.702 252.108C161.103 251.85 161.541 251.652 162.001 251.52C163.088 251.141 164.21 250.866 165.35 250.696C166.491 250.526 167.647 250.467 168.8 250.52C169.275 250.515 169.749 250.577 170.206 250.703Z" fill="black"/>
<path d="M171.774 257.512C171.774 257.616 169.945 257.251 167.688 257.316C165.431 257.381 163.636 257.812 163.616 257.708C166.244 256.798 169.102 256.73 171.774 257.512Z" fill="black"/>
<path d="M171.399 255.499C171.338 255.499 171.399 254.99 171.298 254.192C171.17 253.158 170.801 252.165 170.22 251.291C170.079 251.082 169.925 250.879 169.764 250.683L169.664 250.559L169.771 250.455C170.076 250.151 170.315 249.791 170.475 249.396C170.635 249.001 170.712 248.579 170.702 248.154C170.68 247.805 170.628 247.457 170.548 247.115C170.786 247.407 170.918 247.768 170.923 248.141C170.976 248.606 170.921 249.077 170.764 249.519C170.606 249.961 170.349 250.363 170.012 250.696V250.468C170.188 250.676 170.352 250.894 170.501 251.121C171.11 252.041 171.465 253.099 171.533 254.192C171.586 254.632 171.54 255.078 171.399 255.499V255.499Z" fill="black"/>
<path d="M171.526 254.134L177.366 259.479L178.11 262.655L172.711 261.465C171.934 258.786 171.365 256.231 171.526 254.134Z" fill="black"/>
<path d="M132.082 279.978C132.303 279.834 166.764 276.802 166.764 276.802L203.903 261.773L164.138 263.236L132.082 279.508V279.978Z" fill="#263238"/>
<path d="M165.076 271.934C164.801 270.17 166.529 268.667 168.291 268.19C170.052 267.713 171.934 267.909 173.716 267.536C174.847 267.235 175.953 266.851 177.025 266.386C182.517 264.334 188.545 264.223 194.439 264.145C194.782 264.924 194.835 265.795 194.591 266.608C194.346 267.421 193.819 268.126 193.1 268.601C193.586 270.015 193.514 271.555 192.899 272.921C192.289 274.269 191.459 275.512 190.441 276.6C189.669 277.593 188.678 278.404 187.54 278.972C186.349 279.396 185.084 279.587 183.816 279.534C179.865 279.612 175.632 279.619 172.37 277.456C169.831 275.77 168.076 272.881 165.136 272.032H165.806" fill="white"/>
<path d="M165.076 271.934C164.801 270.17 166.529 268.667 168.291 268.19C170.052 267.713 171.934 267.909 173.716 267.536C174.847 267.235 175.953 266.851 177.025 266.386C182.517 264.334 188.545 264.223 194.439 264.145C194.782 264.924 194.835 265.795 194.591 266.608C194.346 267.421 193.819 268.126 193.1 268.601C193.586 270.015 193.514 271.555 192.899 272.921C192.289 274.269 191.459 275.512 190.441 276.6C189.669 277.593 188.678 278.404 187.54 278.972C186.349 279.396 185.084 279.587 183.816 279.534C179.865 279.612 175.632 279.619 172.37 277.456C169.831 275.77 168.076 272.881 165.136 272.032H165.806" stroke="black" stroke-width="0.5" stroke-miterlimit="10"/>
<path d="M191.398 269.797C191.152 269.85 190.9 269.875 190.648 269.869L188.585 269.934C186.844 269.974 184.439 270 181.787 270.013H178.036C177.475 270.021 176.916 269.939 176.382 269.771C175.905 269.605 175.489 269.308 175.183 268.915C175.055 268.752 174.961 268.566 174.908 268.367C174.855 268.169 174.844 267.961 174.875 267.758C174.924 267.455 175.069 267.174 175.29 266.955C175.373 266.861 175.476 266.787 175.592 266.738C175.708 266.688 175.833 266.664 175.96 266.667C175.731 266.746 175.525 266.876 175.357 267.046C175.142 267.285 175.024 267.591 175.024 267.909C175.024 268.226 175.142 268.533 175.357 268.771C175.641 269.112 176.02 269.367 176.449 269.503C176.958 269.646 177.486 269.713 178.016 269.699H188.559L190.621 269.738C190.882 269.725 191.143 269.745 191.398 269.797V269.797Z" fill="black"/>
<path d="M189.376 273.025C189.067 273.11 188.751 273.169 188.431 273.202C187.815 273.3 186.924 273.424 185.819 273.528C184.517 273.658 183.207 273.686 181.901 273.613C180.305 273.487 178.723 273.229 177.172 272.842C174.372 272.175 171.501 271.831 168.619 271.816C167.514 271.816 166.61 271.856 166 271.888C165.677 271.914 165.352 271.914 165.029 271.888C165.342 271.804 165.663 271.751 165.987 271.731C166.857 271.627 167.735 271.568 168.612 271.548C171.52 271.489 174.422 271.804 177.246 272.483C178.785 272.866 180.353 273.132 181.934 273.28C183.226 273.365 184.521 273.365 185.812 273.28C186.918 273.208 187.822 273.117 188.425 273.064C188.739 273.019 189.058 273.006 189.376 273.025V273.025Z" fill="black"/>
<path d="M186.1 276.475C185.859 276.549 185.609 276.592 185.357 276.606C184.881 276.672 184.185 276.756 183.348 276.828C181.098 277.057 178.826 276.985 176.596 276.613C173.95 276.123 171.908 274.803 170.32 274.195C169.464 273.857 168.578 273.592 167.674 273.404C167.925 273.371 168.179 273.384 168.425 273.443C169.113 273.544 169.787 273.722 170.434 273.973C172.075 274.541 174.118 275.802 176.69 276.279C178.901 276.646 181.151 276.749 183.388 276.587L185.397 276.475C185.631 276.449 185.867 276.449 186.1 276.475Z" fill="black"/>
<path d="M151.459 183.598L150.736 183.533C150.773 183.332 150.798 183.129 150.809 182.925L151.459 183.598Z" fill="#FF725E" stroke="white" stroke-miterlimit="10"/>
<path d="M158.525 120.389C158.525 120.389 170.581 130.563 169.724 146.58C168.867 162.596 169.436 175.783 151.767 175.502C151.729 177.295 151.825 179.088 152.055 180.867C152.269 182.383 154.774 183.834 156.824 184.311C156.824 184.311 148.579 200.177 139.021 198.034C130.91 196.243 128.7 190.708 125.806 184.866C125.806 184.866 132.551 178.534 128.981 164.779C128.981 164.779 113.723 148.579 125.987 130.21C138.445 111.822 158.525 120.389 158.525 120.389Z" fill="white" stroke="black" stroke-width="0.5" stroke-miterlimit="10"/>
<path d="M132.457 115.965C132.457 115.965 121.546 112.475 125.598 99.8568C125.911 98.8298 126.361 97.8476 126.938 96.9358C132.055 91.2833 141.325 93.7338 143.261 99.0988C145.94 106.731 142.29 112.168 142.29 112.168C142.29 112.168 168.652 111.698 177.34 142.123C185.839 172.182 168.552 183.01 152.042 180.841C151.628 179.082 151.531 177.267 151.754 175.476C153.589 175.567 164.017 175.757 167.393 164.922C171.74 151.167 169.329 128.655 159.476 122.911C144.902 114.338 134.279 134.02 134.279 145.423C134.279 145.423 128.874 142.312 127.233 146.076C125.491 149.938 128.485 154.46 133.89 156.813C133.89 156.813 131.961 172.64 129.45 178.103C129.45 178.103 103.475 175.842 99.1351 163.504C94.8954 151.102 111.218 123.408 132.457 115.965Z" fill="#3C2035" stroke="black" stroke-width="0.5" stroke-miterlimit="10"/>
<path d="M157.949 165.511C156.662 166.685 154.976 167.358 153.214 167.399C151.479 167.399 149.865 167.68 148.485 164.57" fill="black"/>
<path d="M156.014 148.56C156.308 149.971 156.596 151.291 156.884 152.703C156.985 153.356 157.172 154.009 157.273 154.663C157.515 155.358 157.613 156.093 157.561 156.826C157.471 157.338 157.176 157.794 156.742 158.094C156.307 158.394 155.768 158.514 155.243 158.427C154.648 158.342 154.08 158.129 153.579 157.804C153.079 157.478 152.659 157.048 152.35 156.545C152.055 156.166 151.573 156.636 151.868 157.015C152.246 157.556 152.732 158.017 153.295 158.373C153.859 158.729 154.489 158.971 155.149 159.087C155.695 159.153 156.249 159.064 156.745 158.833C157.241 158.601 157.659 158.236 157.949 157.78C158.23 157.226 158.33 156.601 158.237 155.989C158.125 155.134 157.964 154.286 157.755 153.447C157.366 151.755 157.085 150.056 156.69 148.266C156.596 147.893 155.92 148.083 156.02 148.553L156.014 148.56Z" fill="black"/>
<path d="M150.608 141.117C149.939 139.516 147.929 139.326 146.456 139.607C144.982 139.888 143.107 141.208 141.626 140.078C141.546 140.028 141.455 139.996 141.361 139.984C141.266 139.971 141.17 139.979 141.079 140.005C140.988 140.032 140.903 140.077 140.831 140.138C140.759 140.199 140.702 140.274 140.662 140.359C140.61 140.438 140.577 140.527 140.564 140.62C140.551 140.714 140.559 140.808 140.587 140.898C140.615 140.988 140.662 141.071 140.726 141.142C140.79 141.212 140.869 141.268 140.957 141.306C142.403 142.339 144.138 141.777 145.685 141.306C146.844 140.927 148.874 140.267 149.45 141.777C149.552 141.926 149.704 142.035 149.88 142.086C150.056 142.138 150.245 142.127 150.414 142.058C150.563 141.955 150.667 141.8 150.703 141.625C150.739 141.45 150.705 141.268 150.608 141.117V141.117Z" fill="black"/>
<path d="M158.626 141.574C158.626 141.104 159.295 140.921 159.684 140.823C160.461 140.725 161.231 141.195 162.001 141.385C163.448 141.855 165.19 142.038 166.154 140.633C166.205 140.554 166.238 140.466 166.25 140.374C166.263 140.282 166.256 140.188 166.228 140.099C166.201 140.01 166.155 139.928 166.092 139.857C166.03 139.787 165.953 139.731 165.866 139.692C165.785 139.643 165.695 139.611 165.6 139.598C165.506 139.586 165.41 139.593 165.319 139.62C165.227 139.646 165.143 139.692 165.071 139.752C164.999 139.813 164.941 139.889 164.902 139.973C164.607 140.444 163.837 140.444 163.354 140.346C162.502 140.109 161.664 139.827 160.843 139.503C159.302 139.124 157.366 139.692 157.273 141.463C157.285 141.632 157.36 141.792 157.483 141.912C157.606 142.032 157.769 142.104 157.942 142.116C158.026 142.137 158.114 142.137 158.198 142.117C158.282 142.098 158.36 142.059 158.426 142.004C158.491 141.949 158.542 141.879 158.575 141.801C158.607 141.723 158.62 141.638 158.612 141.554L158.626 141.574Z" fill="black"/>
<path d="M149.738 149.22H149.932C150.131 149.235 150.332 149.201 150.515 149.122C150.709 149.03 150.803 148.932 150.997 148.841C151.113 148.697 151.21 148.538 151.285 148.37C151.361 148.19 151.393 147.996 151.379 147.802C151.393 147.671 151.359 147.539 151.285 147.429C151.216 147.182 151.082 146.957 150.896 146.776C150.803 146.678 150.709 146.586 150.608 146.586C150.369 146.47 150.106 146.405 149.838 146.397H149.644C149.444 146.381 149.244 146.415 149.061 146.495C148.874 146.586 148.773 146.678 148.579 146.776C148.463 146.92 148.367 147.078 148.291 147.246C148.214 147.424 148.182 147.616 148.197 147.808C148.182 147.941 148.215 148.075 148.291 148.187C148.364 148.433 148.497 148.657 148.679 148.841C148.773 148.932 148.874 149.03 148.967 149.03C149.211 149.136 149.472 149.2 149.738 149.22V149.22Z" fill="black"/>
<path d="M165.089 147.71C166.924 147.71 166.924 144.881 165.089 144.881C164.722 144.905 164.377 145.065 164.126 145.327C163.874 145.59 163.734 145.936 163.734 146.295C163.734 146.655 163.874 147.001 164.126 147.263C164.377 147.526 164.722 147.686 165.089 147.71V147.71Z" fill="black"/>
<path d="M302.389 183.598C300.688 179.919 297.151 167.144 297.151 163.008C297.151 163.008 298.377 138.535 293.38 132.556C288.384 126.577 264.807 123.728 253.307 125.662C253.307 125.662 253.401 139.823 251.894 142.587C250.387 145.351 245.953 148.194 246.897 149.573C247.841 150.951 251.137 151.232 251.137 151.232L251.043 154.356C251.043 154.356 250.855 167.51 251.894 169.078C252.932 170.647 267.64 172.666 271.13 172.111L268.337 181.743C273.146 182.475 290.018 188.748 302.389 183.598Z" fill="#FCE200" stroke="black" stroke-width="0.68" stroke-miterlimit="10"/>
<path d="M342.027 189.035C327.6 168.157 329.676 166.504 330.527 153.624C331.377 140.744 321.002 131.086 313.648 125.473C306.481 120.049 308.96 111.221 295.356 109.195C272.161 103.399 258.873 113.057 254.626 117.102C254.626 117.2 252.081 120.598 252.557 123.179C252.813 124.727 253.533 126.166 254.626 127.315C255.346 127.843 256.188 128.191 257.078 128.328V128.328C261.606 128.694 265.189 133.02 267.734 136.516C267.734 136.516 269.998 141.94 270.092 143.502C273.581 138.627 276.79 139.457 276.79 139.457C281.317 140.012 282.068 147.298 279.904 151.964C279.738 152.255 279.61 152.564 279.522 152.886C279.522 152.886 275.001 165.301 279.054 174.228C280.602 177.628 280.77 181.474 279.522 184.99C278.678 186.552 277.734 188.12 276.696 189.774C271.793 197.615 265.571 206.607 267.265 214.239C270.192 227.962 278.39 252.049 312.141 239.999C345.704 228.041 356.454 209.92 342.027 189.035Z" fill="#353535"/>
<path d="M255.383 141.483V141.3C255.383 141.208 255.383 141.208 255.477 141.11L255.571 141.019L255.665 140.927C255.758 140.927 255.758 140.927 255.852 140.836H256.234C256.328 140.836 256.328 140.836 256.421 140.927L256.515 141.019L256.609 141.11C256.609 141.208 256.609 141.208 256.703 141.3V141.483V141.666C256.703 141.757 256.703 141.757 256.609 141.848L256.515 141.94L256.421 142.031C256.328 142.031 256.328 142.031 256.234 142.123H256.04C255.832 142.034 255.641 141.91 255.477 141.757C255.477 141.666 255.477 141.666 255.383 141.574V141.391V141.3C255.383 141.208 255.383 141.208 255.477 141.11V141.208L255.571 141.11L255.665 141.019H255.571C255.665 141.019 255.665 141.019 255.758 140.927H256.04C256.133 140.927 256.133 140.927 256.234 141.019L256.328 141.11L256.421 141.208C256.421 141.3 256.421 141.3 256.515 141.391V141.483C256.515 141.574 256.515 141.574 256.421 141.666V141.574L256.328 141.666L256.234 141.757C256.133 141.757 256.133 141.757 256.04 141.848H255.859C255.91 141.855 255.961 141.85 256.01 141.834C256.059 141.818 256.103 141.792 256.14 141.757C256.19 141.755 256.238 141.736 256.273 141.702C256.309 141.668 256.331 141.623 256.334 141.574L256.522 141.391C256.522 141.3 256.616 141.208 256.616 141.11V140.921C256.616 140.829 256.522 140.738 256.428 140.646L256.334 140.555C256.241 140.463 256.14 140.463 255.953 140.463C255.765 140.463 255.671 140.463 255.577 140.555L255.296 140.829C255.245 140.878 255.212 140.943 255.202 141.012V141.012V141.202C255.202 141.385 255.202 141.476 255.296 141.567L255.577 141.842C255.717 141.928 255.884 141.96 256.046 141.933C256.211 141.948 256.376 141.916 256.522 141.842C256.616 141.842 256.616 141.75 256.709 141.75C256.767 141.707 256.813 141.651 256.845 141.588C256.878 141.525 256.896 141.455 256.897 141.385V140.921C256.897 140.829 256.897 140.829 256.803 140.738L256.709 140.646L256.616 140.555C256.522 140.463 256.428 140.463 256.241 140.463H256.046C255.996 140.513 255.93 140.545 255.859 140.555C255.765 140.555 255.765 140.646 255.671 140.646L255.577 140.738C255.577 140.762 255.568 140.785 255.55 140.802C255.532 140.819 255.509 140.829 255.484 140.829C255.484 140.921 255.39 140.921 255.39 141.012V141.385C255.4 141.454 255.433 141.518 255.484 141.567C255.484 141.659 255.577 141.659 255.577 141.75C255.577 141.842 255.671 141.842 255.765 141.842C255.816 141.892 255.881 141.924 255.953 141.933H256.334C256.428 141.933 256.428 141.842 256.522 141.842C256.616 141.842 256.616 141.75 256.709 141.75C256.803 141.75 256.803 141.659 256.803 141.567C256.803 141.476 256.897 141.476 256.897 141.385V141.202C256.904 141.151 256.899 141.099 256.883 141.051C256.867 141.002 256.84 140.957 256.803 140.921C256.8 140.873 256.779 140.828 256.745 140.795C256.71 140.761 256.664 140.741 256.616 140.738L256.428 140.555C256.334 140.555 256.241 140.463 256.14 140.463H255.953C255.859 140.463 255.765 140.555 255.671 140.646L255.577 140.738C255.484 141.202 255.39 141.391 255.39 141.476L255.383 141.483Z" fill="black"/>
<path d="M254.158 160.244C256.234 161.72 258.585 164.387 261.13 159.786Z" fill="black"/>
<path d="M255.289 137C256.742 137.29 258.024 138.114 258.873 139.3C258.983 139.373 259.116 139.405 259.248 139.392C259.44 139.406 259.633 139.374 259.811 139.3C260.005 139.209 260.38 139.026 260.192 138.843C259.228 137.569 257.82 136.684 256.234 136.353C256.065 136.311 255.888 136.315 255.721 136.364C255.555 136.414 255.405 136.507 255.289 136.634C255.008 136.725 255.008 136.908 255.289 137V137Z" fill="black"/>
<path d="M171.499 220.643C173.264 226.199 174.707 231.847 175.819 237.562C177.159 244.469 177.956 253.781 178.11 254.983" stroke="black" stroke-miterlimit="10"/>
<path d="M223.85 154.147C215.029 154.147 201.392 148.442 197.319 143.038C193.823 138.411 192.463 132.635 193.769 127.975C194.212 126.311 195.049 124.772 196.212 123.48C197.375 122.189 198.833 121.182 200.467 120.539C202.805 119.608 205.31 119.146 207.835 119.18C218.063 119.18 229.442 125.773 233.287 131.687C235.819 135.608 236.844 148.122 230.119 152.663C228.612 153.65 226.522 154.147 223.85 154.147Z" fill="white"/>
<path d="M207.808 119.356C217.922 119.356 229.241 125.806 233.093 131.772C235.417 135.373 236.844 147.893 229.965 152.526C228.471 153.532 226.335 153.977 223.85 153.977C214.908 153.977 201.492 148.285 197.453 142.946C191.506 135.066 191.901 124.244 200.508 120.689C202.824 119.768 205.307 119.31 207.808 119.343V119.356ZM207.808 119.016C205.261 118.984 202.733 119.451 200.374 120.389C198.722 121.044 197.249 122.068 196.075 123.377C194.9 124.686 194.056 126.245 193.609 127.93C192.269 132.641 193.656 138.464 197.185 143.136C201.365 148.664 214.821 154.304 223.85 154.304C226.529 154.304 228.679 153.794 230.159 152.794C233.227 150.729 235.055 146.815 235.316 141.777C235.537 137.411 234.513 133.353 233.381 131.602C229.536 125.649 218.089 119.016 207.808 119.016V119.016Z" fill="black"/>
<path d="M229.965 152.533C229.965 152.533 235.993 153.885 237.674 156.453C239.355 159.022 234.198 147.24 234.198 147.24" fill="white"/>
<path d="M229.965 152.533C229.965 152.533 235.993 153.885 237.674 156.453C239.355 159.022 234.198 147.24 234.198 147.24" stroke="black" stroke-width="0.5" stroke-linecap="round" stroke-linejoin="round"/>
<path d="M202.765 131.988C204.99 131.758 207.233 131.738 209.463 131.929C213.173 131.883 216.951 131.504 220.628 132.014C216.937 132.504 213.18 132.138 209.463 132.086C207.286 132.19 204.814 132.386 202.765 131.988V131.988Z" fill="black"/>
<path d="M204.607 137.804C206.833 137.579 209.075 137.562 211.305 137.751C215.015 137.706 218.793 137.327 222.47 137.83C218.779 138.326 215.022 137.96 211.305 137.908C209.128 138.013 206.656 138.209 204.607 137.804V137.804Z" fill="black"/>
<path d="M207.447 143.214C209.672 142.985 211.915 142.965 214.144 143.155C217.855 143.11 221.633 142.731 225.31 143.24C221.619 143.737 217.862 143.365 214.144 143.319C211.968 143.417 209.496 143.619 207.447 143.214V143.214Z" fill="black"/>
<path d="M322.295 300.34L278.478 297.909L278.484 281.801L320.165 274.554" fill="#3C2035"/>
<path d="M322.295 300.34L278.478 297.909L278.484 281.801L320.165 274.554" stroke="black" stroke-width="0.24" stroke-miterlimit="10"/>
<path d="M248.491 274.646C248.491 274.646 261.686 261.773 262.764 234.523Z" fill="#3C2035"/>
<path d="M248.491 274.646C248.491 274.646 261.686 261.773 262.764 234.523" stroke="black" stroke-width="0.24" stroke-miterlimit="10"/>
<path d="M319.268 260.433C319.268 260.433 315.436 245.077 315.329 241.966Z" fill="#3C2035"/>
<path d="M319.268 260.433C319.268 260.433 315.436 245.077 315.329 241.966" stroke="black" stroke-width="0.24" stroke-miterlimit="10"/>
<path d="M119 224.012C119 223.512 120.82 239.43 120.82 239.43C120.82 239.43 122.957 255.649 123.111 256.851" stroke="black" stroke-miterlimit="10"/>
</svg>
