<svg width="587" height="302" viewBox="0 0 587 302" fill="none" xmlns="http://www.w3.org/2000/svg">
<g clip-path="url(#clip0_1853_26189)">
<path d="M52.1232 96.1869C58.0781 89.3736 67.3679 87.2699 76.0537 88.7518C85.4115 90.353 93.0679 96.0336 99.0229 103.23C111.784 118.79 115.765 139.392 127.462 155.616C132.584 162.645 139.194 168.453 146.819 172.626C154.445 176.798 162.897 179.232 171.572 179.752C188.739 180.766 205.541 173.458 217.085 160.803C222.854 154.491 227.144 146.969 229.641 138.787C232.678 128.72 233.044 118.075 232.602 107.642C231.692 86.7845 227.123 64.9734 234.099 44.6186C239.739 28.1985 257.068 12.1702 275.673 17.2717C285.15 19.8693 291.837 27.6535 298.26 34.5775C304.683 41.5015 311.871 47.8464 320.08 52.6157C334.925 61.1835 353.097 63.7555 368.571 55.341C381.927 48.1019 389.541 33.5214 384.735 18.6173C382.659 12.1617 378.473 6.18302 372.518 2.78488C366.189 -0.826174 358.55 -0.843207 351.906 1.93322C333.717 9.46193 328.741 29.9359 329.243 47.8038C329.745 65.6717 332.008 86.4949 343.288 101.152C354.254 115.46 372.28 120.613 389.022 124.666C405.764 128.72 424.089 132.647 436.815 145.226C443.454 151.78 447.379 160.599 447.806 169.924C448.325 180.059 445.697 190.04 443.459 199.834C441.324 209.203 439.265 218.792 440.116 228.425C440.888 236.546 443.507 244.383 447.772 251.334C456.569 265.745 471.592 275.488 488.505 276.706C497.187 277.329 505.892 275.855 513.886 272.407C521.881 268.96 528.931 263.64 534.443 256.896C546.574 241.915 551.593 222.506 564.141 207.797C570.096 200.839 577.481 195.227 586.507 193.14C587.306 192.953 586.966 191.718 586.166 191.905C568.99 195.874 558.399 211.536 550.751 226.244C542.133 242.946 534.324 260.924 516.697 269.85C500.534 278.026 480.465 277.608 465.195 267.669C450.418 258.054 440.958 240.833 441.205 223.161C441.486 204.084 451.26 185.79 448.776 166.585C446.641 150.123 434.314 139.119 419.852 132.664C404.25 125.714 387.091 123.951 371.072 118.262C362.506 115.222 354.211 110.98 347.78 104.422C340.974 97.5154 336.976 88.5474 334.585 79.2728C332.307 69.8915 330.976 60.3047 330.612 50.6569C330.093 40.3688 330.663 29.5527 335.138 20.0992C338.992 11.9403 346.138 4.83739 354.909 2.21427C358.798 1.01234 362.946 0.928331 366.881 1.97183C370.816 3.01532 374.378 5.14435 377.163 8.11629C382.28 13.6783 385.067 20.9957 384.947 28.5562C384.845 36.877 380.694 44.3887 374.475 49.7541C360.175 62.0947 339.792 61.4134 323.705 53.1608C315.253 48.6786 307.612 42.8087 301.101 35.7954C295.095 29.5101 289.438 22.4072 281.603 18.2937C267.353 10.8757 250.722 17.8849 240.981 29.5101C228.85 43.9884 228.221 64.3006 229.386 82.2622C230.688 102.804 234.652 124.845 226.17 144.434C222.616 152.477 217.275 159.603 210.554 165.267C203.833 170.932 195.909 174.986 187.386 177.12C169.521 181.438 149.861 176.039 136.344 163.749C121.72 150.463 116.939 130.577 107.615 113.833C99.695 99.6191 87.1215 86.4694 69.6563 87.0315C62.638 87.2614 55.8833 89.9101 51.2384 95.2841C50.7025 95.9058 51.6042 96.8086 52.1402 96.1869H52.1232Z" fill="black"/>
<path d="M61.7192 91.8007C63.124 91.8007 64.2628 90.6606 64.2628 89.2542C64.2628 87.8479 63.124 86.7078 61.7192 86.7078C60.3144 86.7078 59.1755 87.8479 59.1755 89.2542C59.1755 90.6606 60.3144 91.8007 61.7192 91.8007Z" fill="black"/>
<path d="M172.882 184.964C175.696 184.964 177.978 182.68 177.978 179.863C177.978 177.045 175.696 174.761 172.882 174.761C170.067 174.761 167.786 177.045 167.786 179.863C167.786 182.68 170.067 184.964 172.882 184.964Z" fill="#BBE2C3"/>
<path d="M231.273 103.505C235.601 103.505 239.109 99.9927 239.109 95.6607C239.109 91.3287 235.601 87.8169 231.273 87.8169C226.946 87.8169 223.438 91.3287 223.438 95.6607C223.438 99.9927 226.946 103.505 231.273 103.505Z" fill="#B9B0F9"/>
<path d="M346.451 110.708C351.253 110.708 355.146 106.811 355.146 102.004C355.146 97.197 351.253 93.3 346.451 93.3C341.65 93.3 337.757 97.197 337.757 102.004C337.757 106.811 341.65 110.708 346.451 110.708Z" fill="#9C90F8"/>
<path d="M476.026 284.601C483.003 284.601 488.659 278.938 488.659 271.953C488.659 264.969 483.003 259.306 476.026 259.306C469.049 259.306 463.393 264.969 463.393 271.953C463.393 278.938 469.049 284.601 476.026 284.601Z" fill="#7666F6"/>
<path d="M576.586 186.32C579.037 189.549 582.31 192.058 586.063 193.584L585.782 192.511C582.604 196.384 580.607 201.091 580.032 206.07C579.938 206.879 581.214 206.87 581.308 206.07C581.86 201.425 583.725 197.034 586.684 193.414C586.76 193.334 586.814 193.236 586.841 193.129C586.869 193.022 586.868 192.91 586.84 192.803C586.812 192.697 586.757 192.599 586.681 192.52C586.604 192.44 586.509 192.382 586.403 192.349C582.957 190.941 579.948 188.639 577.684 185.681C577.19 185.034 576.084 185.681 576.586 186.32Z" fill="black"/>
<path d="M2.398 65.0948C2.398 65.9234 2.20367 66.5211 1.815 66.8878C1.42633 67.2544 0.894667 67.4378 0.22 67.4378C0.117333 67.4378 0.022 67.4341 -0.066 67.4268C-0.161333 67.4194 -0.245667 67.4084 -0.319 67.3938V66.4698C-0.253 66.4844 -0.183333 66.4954 -0.11 66.5028C-0.044 66.5174 0.0256667 66.5248 0.099 66.5248C0.465667 66.5248 0.766333 66.4258 1.001 66.2278C1.243 66.0371 1.364 65.6741 1.364 65.1388V57.9448H2.398V65.0948ZM7.08641 59.8808C7.52641 59.8808 7.92974 59.9614 8.29641 60.1228C8.67041 60.2841 8.98941 60.5004 9.25341 60.7718C9.51741 61.0431 9.72274 61.3621 9.86941 61.7288C10.0161 62.0881 10.0894 62.4694 10.0894 62.8728C10.0894 63.2761 10.0161 63.6611 9.86941 64.0278C9.72274 64.3871 9.51741 64.7024 9.25341 64.9738C8.98941 65.2451 8.67041 65.4614 8.29641 65.6228C7.92974 65.7841 7.52641 65.8648 7.08641 65.8648C6.63907 65.8648 6.22841 65.7841 5.85441 65.6228C5.48774 65.4614 5.17241 65.2451 4.90841 64.9738C4.65174 64.7024 4.45007 64.3871 4.30341 64.0278C4.15674 63.6611 4.08341 63.2761 4.08341 62.8728C4.08341 62.4694 4.15674 62.0881 4.30341 61.7288C4.45007 61.3621 4.65174 61.0431 4.90841 60.7718C5.17241 60.5004 5.48774 60.2841 5.85441 60.1228C6.22841 59.9614 6.63907 59.8808 7.08641 59.8808ZM7.09741 64.9848C7.38341 64.9848 7.64741 64.9298 7.88941 64.8198C8.13874 64.7024 8.35141 64.5484 8.52741 64.3578C8.71074 64.1671 8.85007 63.9434 8.94541 63.6868C9.04807 63.4301 9.09941 63.1588 9.09941 62.8728C9.09941 62.5868 9.04807 62.3154 8.94541 62.0588C8.85007 61.8021 8.71074 61.5784 8.52741 61.3878C8.35141 61.1971 8.13874 61.0468 7.88941 60.9368C7.64741 60.8194 7.38341 60.7608 7.09741 60.7608C6.80407 60.7608 6.52907 60.8194 6.27241 60.9368C6.02307 61.0468 5.81041 61.1971 5.63441 61.3878C5.45841 61.5784 5.31907 61.8021 5.21641 62.0588C5.11374 62.3154 5.06241 62.5868 5.06241 62.8728C5.06241 63.1588 5.11374 63.4301 5.21641 63.6868C5.31907 63.9434 5.45841 64.1671 5.63441 64.3578C5.81041 64.5484 6.02307 64.7024 6.27241 64.8198C6.52907 64.9298 6.80407 64.9848 7.09741 64.9848ZM15.4425 63.2688V60.1008H16.3885V63.2358C16.3885 64.0644 16.1649 64.7098 15.7175 65.1718C15.2702 65.6338 14.6725 65.8648 13.9245 65.8648C13.1839 65.8648 12.5899 65.6338 12.1425 65.1718C11.6952 64.7098 11.4715 64.0644 11.4715 63.2358V60.1008H12.4065V63.2688C12.4065 63.8114 12.5422 64.2331 12.8135 64.5338C13.0922 64.8344 13.4662 64.9848 13.9355 64.9848C14.3975 64.9848 14.7642 64.8344 15.0355 64.5338C15.3069 64.2331 15.4425 63.8114 15.4425 63.2688ZM18.2312 65.6448V60.1008H19.1662V60.7938C19.3715 60.5518 19.6025 60.3574 19.8592 60.2108C20.1232 60.0641 20.4312 59.9908 20.7832 59.9908C20.8712 59.9908 20.9555 59.9981 21.0362 60.0128C21.1169 60.0201 21.1902 60.0348 21.2562 60.0568V61.0248C21.1755 61.0028 21.0912 60.9844 21.0032 60.9698C20.9152 60.9551 20.8162 60.9478 20.7062 60.9478C20.3469 60.9478 20.0425 61.0358 19.7932 61.2118C19.5439 61.3804 19.3349 61.6041 19.1662 61.8828V65.6448H18.2312ZM22.6033 65.6448V60.1008H23.5383V60.7278C23.7656 60.4784 24.0259 60.2768 24.3193 60.1228C24.6199 59.9614 24.9756 59.8808 25.3863 59.8808C26.0023 59.8808 26.5156 60.0861 26.9263 60.4968C27.3443 60.9074 27.5533 61.5051 27.5533 62.2898V65.6448H26.6073V62.3228C26.6073 61.8314 26.4789 61.4501 26.2223 61.1788C25.9656 60.9001 25.6246 60.7608 25.1993 60.7608C24.8033 60.7608 24.4696 60.8634 24.1983 61.0688C23.9343 61.2668 23.7143 61.5124 23.5383 61.8058V65.6448H22.6033ZM32.2513 59.2208H31.3383L32.4823 57.3948H33.5383L32.2513 59.2208ZM34.3633 64.7318C34.1066 65.0764 33.773 65.3514 33.3623 65.5568C32.959 65.7621 32.5006 65.8648 31.9873 65.8648C31.5253 65.8648 31.1036 65.7841 30.7223 65.6228C30.3483 65.4614 30.0293 65.2451 29.7653 64.9738C29.5086 64.7024 29.3106 64.3871 29.1713 64.0278C29.032 63.6611 28.9623 63.2761 28.9623 62.8728C28.9623 62.4548 29.0283 62.0624 29.1603 61.6958C29.2923 61.3291 29.4756 61.0138 29.7103 60.7498C29.9523 60.4784 30.2456 60.2658 30.5903 60.1118C30.9423 59.9578 31.331 59.8808 31.7563 59.8808C32.1303 59.8808 32.4713 59.9431 32.7793 60.0678C33.0873 60.1851 33.3476 60.3501 33.5603 60.5628C33.7803 60.7754 33.949 61.0321 34.0663 61.3328C34.1836 61.6261 34.2423 61.9451 34.2423 62.2898C34.2423 62.3998 34.235 62.5098 34.2203 62.6198C34.2056 62.7224 34.191 62.8104 34.1763 62.8838H29.9303V62.9058C29.9303 63.5144 30.121 64.0204 30.5023 64.4238C30.891 64.8198 31.3933 65.0178 32.0093 65.0178C32.3613 65.0178 32.6803 64.9444 32.9663 64.7978C33.2523 64.6438 33.487 64.4421 33.6703 64.1928L34.3633 64.7318ZM31.7673 60.6838C31.32 60.6838 30.9423 60.8084 30.6343 61.0578C30.3263 61.3071 30.1173 61.6701 30.0073 62.1468H33.2963C33.2816 61.7508 33.135 61.4098 32.8563 61.1238C32.585 60.8304 32.222 60.6838 31.7673 60.6838ZM40.7334 64.7318C40.4768 65.0764 40.1431 65.3514 39.7324 65.5568C39.3291 65.7621 38.8708 65.8648 38.3574 65.8648C37.8954 65.8648 37.4738 65.7841 37.0924 65.6228C36.7184 65.4614 36.3994 65.2451 36.1354 64.9738C35.8788 64.7024 35.6808 64.3871 35.5414 64.0278C35.4021 63.6611 35.3324 63.2761 35.3324 62.8728C35.3324 62.4548 35.3984 62.0624 35.5304 61.6958C35.6624 61.3291 35.8458 61.0138 36.0804 60.7498C36.3224 60.4784 36.6158 60.2658 36.9604 60.1118C37.3124 59.9578 37.7011 59.8808 38.1264 59.8808C38.5004 59.8808 38.8414 59.9431 39.1494 60.0678C39.4574 60.1851 39.7178 60.3501 39.9304 60.5628C40.1504 60.7754 40.3191 61.0321 40.4364 61.3328C40.5538 61.6261 40.6124 61.9451 40.6124 62.2898C40.6124 62.3998 40.6051 62.5098 40.5904 62.6198C40.5758 62.7224 40.5611 62.8104 40.5464 62.8838H36.3004V62.9058C36.3004 63.5144 36.4911 64.0204 36.8724 64.4238C37.2611 64.8198 37.7634 65.0178 38.3794 65.0178C38.7314 65.0178 39.0504 64.9444 39.3364 64.7978C39.6224 64.6438 39.8571 64.4421 40.0404 64.1928L40.7334 64.7318ZM38.1374 60.6838C37.6901 60.6838 37.3124 60.8084 37.0044 61.0578C36.6964 61.3071 36.4874 61.6701 36.3774 62.1468H39.6664C39.6518 61.7508 39.5051 61.4098 39.2264 61.1238C38.9551 60.8304 38.5921 60.6838 38.1374 60.6838ZM44.6889 62.8728C44.6889 62.4694 44.7549 62.0881 44.8869 61.7288C45.0262 61.3621 45.2169 61.0431 45.4589 60.7718C45.7082 60.5004 46.0089 60.2841 46.3609 60.1228C46.7129 59.9614 47.1052 59.8808 47.5379 59.8808C47.9339 59.8808 48.2969 59.9541 48.6269 60.1008C48.9642 60.2401 49.2575 60.4454 49.5069 60.7168V57.3948H50.4419V65.6448H49.5069V65.0288C49.2575 65.3001 48.9642 65.5054 48.6269 65.6448C48.2969 65.7914 47.9339 65.8648 47.5379 65.8648C47.1052 65.8648 46.7129 65.7841 46.3609 65.6228C46.0089 65.4614 45.7082 65.2451 45.4589 64.9738C45.2169 64.7024 45.0262 64.3871 44.8869 64.0278C44.7549 63.6611 44.6889 63.2761 44.6889 62.8728ZM45.6789 62.8728C45.6789 63.1661 45.7265 63.4411 45.8219 63.6978C45.9172 63.9544 46.0492 64.1781 46.2179 64.3688C46.3939 64.5594 46.6029 64.7098 46.8449 64.8198C47.0869 64.9298 47.3545 64.9848 47.6479 64.9848C48.0292 64.9848 48.3812 64.8968 48.7039 64.7208C49.0265 64.5374 49.2942 64.2808 49.5069 63.9508V61.7948C49.2869 61.4574 49.0155 61.2008 48.6929 61.0248C48.3702 60.8488 48.0219 60.7608 47.6479 60.7608C47.3545 60.7608 47.0869 60.8158 46.8449 60.9258C46.6029 61.0358 46.3939 61.1861 46.2179 61.3768C46.0492 61.5674 45.9172 61.7911 45.8219 62.0478C45.7265 62.3044 45.6789 62.5794 45.6789 62.8728ZM57.3409 64.7318C57.0842 65.0764 56.7505 65.3514 56.3399 65.5568C55.9365 65.7621 55.4782 65.8648 54.9649 65.8648C54.5029 65.8648 54.0812 65.7841 53.6999 65.6228C53.3259 65.4614 53.0069 65.2451 52.7429 64.9738C52.4862 64.7024 52.2882 64.3871 52.1489 64.0278C52.0095 63.6611 51.9399 63.2761 51.9399 62.8728C51.9399 62.4548 52.0059 62.0624 52.1379 61.6958C52.2699 61.3291 52.4532 61.0138 52.6879 60.7498C52.9299 60.4784 53.2232 60.2658 53.5679 60.1118C53.9199 59.9578 54.3085 59.8808 54.7339 59.8808C55.1079 59.8808 55.4489 59.9431 55.7569 60.0678C56.0649 60.1851 56.3252 60.3501 56.5379 60.5628C56.7579 60.7754 56.9265 61.0321 57.0439 61.3328C57.1612 61.6261 57.2199 61.9451 57.2199 62.2898C57.2199 62.3998 57.2125 62.5098 57.1979 62.6198C57.1832 62.7224 57.1685 62.8104 57.1539 62.8838H52.9079V62.9058C52.9079 63.5144 53.0985 64.0204 53.4799 64.4238C53.8685 64.8198 54.3709 65.0178 54.9869 65.0178C55.3389 65.0178 55.6579 64.9444 55.9439 64.7978C56.2299 64.6438 56.4645 64.4421 56.6479 64.1928L57.3409 64.7318ZM54.7449 60.6838C54.2975 60.6838 53.9199 60.8084 53.6119 61.0578C53.3039 61.3071 53.0949 61.6701 52.9849 62.1468H56.2739C56.2592 61.7508 56.1125 61.4098 55.8339 61.1238C55.5625 60.8304 55.1995 60.6838 54.7449 60.6838ZM0.264 76.1008H1.309V75.4188C1.309 74.8248 1.48867 74.3408 1.848 73.9668C2.20733 73.5854 2.684 73.3948 3.278 73.3948C3.586 73.3948 3.861 73.4461 4.103 73.5488C4.345 73.6441 4.54667 73.7724 4.708 73.9338L4.125 74.6158C4.02967 74.5058 3.91233 74.4178 3.773 74.3518C3.641 74.2784 3.47967 74.2418 3.289 74.2418C2.98833 74.2418 2.739 74.3444 2.541 74.5498C2.35033 74.7551 2.255 75.0374 2.255 75.3968V76.1008H4.18V76.9588H2.255V81.6448H1.309V76.9588H0.264V76.1008ZM7.53758 75.8808C7.97758 75.8808 8.38091 75.9614 8.74758 76.1228C9.12158 76.2841 9.44058 76.5004 9.70458 76.7718C9.96858 77.0431 10.1739 77.3621 10.3206 77.7288C10.4672 78.0881 10.5406 78.4694 10.5406 78.8728C10.5406 79.2761 10.4672 79.6611 10.3206 80.0278C10.1739 80.3871 9.96858 80.7024 9.70458 80.9738C9.44058 81.2451 9.12158 81.4614 8.74758 81.6228C8.38091 81.7841 7.97758 81.8648 7.53758 81.8648C7.09024 81.8648 6.67958 81.7841 6.30558 81.6228C5.93891 81.4614 5.62358 81.2451 5.35958 80.9738C5.10291 80.7024 4.90124 80.3871 4.75458 80.0278C4.60791 79.6611 4.53458 79.2761 4.53458 78.8728C4.53458 78.4694 4.60791 78.0881 4.75458 77.7288C4.90124 77.3621 5.10291 77.0431 5.35958 76.7718C5.62358 76.5004 5.93891 76.2841 6.30558 76.1228C6.67958 75.9614 7.09024 75.8808 7.53758 75.8808ZM7.54858 80.9848C7.83458 80.9848 8.09858 80.9298 8.34058 80.8198C8.58991 80.7024 8.80258 80.5484 8.97858 80.3578C9.16191 80.1671 9.30124 79.9434 9.39658 79.6868C9.49925 79.4301 9.55058 79.1588 9.55058 78.8728C9.55058 78.5868 9.49925 78.3154 9.39658 78.0588C9.30124 77.8021 9.16191 77.5784 8.97858 77.3878C8.80258 77.1971 8.58991 77.0468 8.34058 76.9368C8.09858 76.8194 7.83458 76.7608 7.54858 76.7608C7.25524 76.7608 6.98024 76.8194 6.72358 76.9368C6.47424 77.0468 6.26158 77.1971 6.08558 77.3878C5.90958 77.5784 5.77024 77.8021 5.66758 78.0588C5.56491 78.3154 5.51358 78.5868 5.51358 78.8728C5.51358 79.1588 5.56491 79.4301 5.66758 79.6868C5.77024 79.9434 5.90958 80.1671 6.08558 80.3578C6.26158 80.5484 6.47424 80.7024 6.72358 80.8198C6.98024 80.9298 7.25524 80.9848 7.54858 80.9848ZM12.0437 81.6448V76.1008H12.9787V76.7938C13.184 76.5518 13.415 76.3574 13.6717 76.2108C13.9357 76.0641 14.2437 75.9908 14.5957 75.9908C14.6837 75.9908 14.768 75.9981 14.8487 76.0128C14.9294 76.0201 15.0027 76.0348 15.0687 76.0568V77.0248C14.988 77.0028 14.9037 76.9844 14.8157 76.9698C14.7277 76.9551 14.6287 76.9478 14.5187 76.9478C14.1594 76.9478 13.855 77.0358 13.6057 77.2118C13.3564 77.3804 13.1474 77.6041 12.9787 77.8828V81.6448H12.0437ZM16.4158 81.6448V76.1008H17.3508V76.7058C17.5561 76.4638 17.8018 76.2658 18.0878 76.1118C18.3738 75.9578 18.7074 75.8808 19.0888 75.8808C19.4921 75.8808 19.8551 75.9761 20.1778 76.1668C20.5004 76.3501 20.7461 76.6251 20.9148 76.9918C21.1348 76.6764 21.4024 76.4124 21.7178 76.1998C22.0331 75.9871 22.4181 75.8808 22.8728 75.8808C23.4668 75.8808 23.9581 76.0788 24.3468 76.4748C24.7354 76.8634 24.9298 77.4318 24.9298 78.1798V81.6448H23.9948V78.2128C23.9948 77.7508 23.8738 77.3951 23.6318 77.1458C23.3971 76.8891 23.0818 76.7608 22.6858 76.7608C22.3338 76.7608 22.0294 76.8561 21.7728 77.0468C21.5234 77.2374 21.3071 77.4941 21.1238 77.8168C21.1311 77.8754 21.1348 77.9378 21.1348 78.0038C21.1421 78.0624 21.1458 78.1211 21.1458 78.1798V81.6448H20.1998V78.2128C20.1998 77.7508 20.0824 77.3951 19.8478 77.1458C19.6131 76.8891 19.2978 76.7608 18.9018 76.7608C18.5278 76.7608 18.2161 76.8634 17.9668 77.0688C17.7174 77.2741 17.5121 77.5198 17.3508 77.8058V81.6448H16.4158ZM28.3322 81.8648C27.7896 81.8648 27.3496 81.7218 27.0122 81.4358C26.6749 81.1498 26.5062 80.7648 26.5062 80.2808C26.5062 79.8554 26.6602 79.4961 26.9682 79.2028C27.2836 78.9094 27.7382 78.7151 28.3322 78.6198L30.1912 78.3118V77.9268C30.1912 77.5454 30.0666 77.2484 29.8172 77.0358C29.5679 76.8231 29.2489 76.7168 28.8602 76.7168C28.5376 76.7168 28.2442 76.7864 27.9802 76.9258C27.7236 77.0578 27.5146 77.2448 27.3532 77.4868L26.6492 76.9478C26.8912 76.6178 27.2029 76.3574 27.5842 76.1668C27.9656 75.9761 28.3982 75.8808 28.8822 75.8808C29.5862 75.8808 30.1362 76.0714 30.5322 76.4528C30.9282 76.8268 31.1262 77.3181 31.1262 77.9268V81.6448H30.1912V80.9408C29.9859 81.2341 29.7182 81.4614 29.3882 81.6228C29.0582 81.7841 28.7062 81.8648 28.3322 81.8648ZM27.4412 80.2478C27.4412 80.4824 27.5366 80.6804 27.7272 80.8418C27.9179 81.0031 28.1709 81.0838 28.4862 81.0838C28.8529 81.0838 29.1792 80.9921 29.4652 80.8088C29.7586 80.6254 30.0006 80.3761 30.1912 80.0608V79.0048L28.5522 79.2908C28.1709 79.3494 27.8886 79.4631 27.7052 79.6318C27.5292 79.8004 27.4412 80.0058 27.4412 80.2478ZM33.3422 79.7858V76.9588H32.2972V76.1008H33.3422V74.7148H34.2882V76.1008H36.2132V76.9588H34.2882V79.7858C34.2882 80.2184 34.3872 80.5118 34.5852 80.6658C34.7905 80.8198 35.0619 80.8968 35.3992 80.8968C35.5825 80.8968 35.7402 80.8858 35.8722 80.8638C36.0042 80.8418 36.1215 80.8088 36.2242 80.7648V81.6008C36.0922 81.6521 35.9492 81.6888 35.7952 81.7108C35.6412 81.7401 35.4652 81.7548 35.2672 81.7548C34.6512 81.7548 34.1745 81.5971 33.8372 81.2818C33.5072 80.9591 33.3422 80.4604 33.3422 79.7858ZM38.1153 74.6598C37.932 74.6598 37.7743 74.5974 37.6423 74.4728C37.5177 74.3408 37.4553 74.1831 37.4553 73.9998C37.4553 73.8238 37.5177 73.6734 37.6423 73.5488C37.7743 73.4168 37.932 73.3508 38.1153 73.3508C38.2987 73.3508 38.4527 73.4168 38.5773 73.5488C38.702 73.6734 38.7643 73.8238 38.7643 73.9998C38.7643 74.1831 38.702 74.3408 38.5773 74.4728C38.4527 74.5974 38.2987 74.6598 38.1153 74.6598ZM37.6423 81.6448V76.1008H38.5773V81.6448H37.6423ZM43.0835 75.8808C43.5235 75.8808 43.9268 75.9614 44.2935 76.1228C44.6675 76.2841 44.9865 76.5004 45.2505 76.7718C45.5145 77.0431 45.7198 77.3621 45.8665 77.7288C46.0131 78.0881 46.0865 78.4694 46.0865 78.8728C46.0865 79.2761 46.0131 79.6611 45.8665 80.0278C45.7198 80.3871 45.5145 80.7024 45.2505 80.9738C44.9865 81.2451 44.6675 81.4614 44.2935 81.6228C43.9268 81.7841 43.5235 81.8648 43.0835 81.8648C42.6361 81.8648 42.2255 81.7841 41.8515 81.6228C41.4848 81.4614 41.1695 81.2451 40.9055 80.9738C40.6488 80.7024 40.4471 80.3871 40.3005 80.0278C40.1538 79.6611 40.0805 79.2761 40.0805 78.8728C40.0805 78.4694 40.1538 78.0881 40.3005 77.7288C40.4471 77.3621 40.6488 77.0431 40.9055 76.7718C41.1695 76.5004 41.4848 76.2841 41.8515 76.1228C42.2255 75.9614 42.6361 75.8808 43.0835 75.8808ZM43.0945 80.9848C43.3805 80.9848 43.6445 80.9298 43.8865 80.8198C44.1358 80.7024 44.3485 80.5484 44.5245 80.3578C44.7078 80.1671 44.8471 79.9434 44.9425 79.6868C45.0451 79.4301 45.0965 79.1588 45.0965 78.8728C45.0965 78.5868 45.0451 78.3154 44.9425 78.0588C44.8471 77.8021 44.7078 77.5784 44.5245 77.3878C44.3485 77.1971 44.1358 77.0468 43.8865 76.9368C43.6445 76.8194 43.3805 76.7608 43.0945 76.7608C42.8011 76.7608 42.5261 76.8194 42.2695 76.9368C42.0201 77.0468 41.8075 77.1971 41.6315 77.3878C41.4555 77.5784 41.3161 77.8021 41.2135 78.0588C41.1108 78.3154 41.0595 78.5868 41.0595 78.8728C41.0595 79.1588 41.1108 79.4301 41.2135 79.6868C41.3161 79.9434 41.4555 80.1671 41.6315 80.3578C41.8075 80.5484 42.0201 80.7024 42.2695 80.8198C42.5261 80.9298 42.8011 80.9848 43.0945 80.9848ZM47.5896 81.6448V76.1008H48.5246V76.7278C48.7519 76.4784 49.0123 76.2768 49.3056 76.1228C49.6063 75.9614 49.9619 75.8808 50.3726 75.8808C50.9886 75.8808 51.5019 76.0861 51.9126 76.4968C52.3306 76.9074 52.5396 77.5051 52.5396 78.2898V81.6448H51.5936V78.3228C51.5936 77.8314 51.4653 77.4501 51.2086 77.1788C50.9519 76.9001 50.6109 76.7608 50.1856 76.7608C49.7896 76.7608 49.4559 76.8634 49.1846 77.0688C48.9206 77.2668 48.7006 77.5124 48.5246 77.8058V81.6448H47.5896Z" fill="black"/>
<path d="M142.26 199.757V192.057H143.294V199.757H142.26ZM145.509 199.757V194.213H146.444V194.84C146.672 194.59 146.932 194.389 147.225 194.235C147.526 194.073 147.882 193.993 148.292 193.993C148.908 193.993 149.422 194.198 149.832 194.609C150.25 195.019 150.459 195.617 150.459 196.402V199.757H149.513V196.435C149.513 195.943 149.385 195.562 149.128 195.291C148.872 195.012 148.531 194.873 148.105 194.873C147.709 194.873 147.376 194.975 147.104 195.181C146.84 195.379 146.62 195.624 146.444 195.918V199.757H145.509ZM151.452 194.213H152.464L154.235 198.778L156.006 194.213H157.018L154.851 199.757H153.619L151.452 194.213ZM163.006 198.844C162.749 199.188 162.415 199.463 162.005 199.669C161.601 199.874 161.143 199.977 160.63 199.977C160.168 199.977 159.746 199.896 159.365 199.735C158.991 199.573 158.672 199.357 158.408 199.086C158.151 198.814 157.953 198.499 157.814 198.14C157.674 197.773 157.605 197.388 157.605 196.985C157.605 196.567 157.671 196.174 157.803 195.808C157.935 195.441 158.118 195.126 158.353 194.862C158.595 194.59 158.888 194.378 159.233 194.224C159.585 194.07 159.973 193.993 160.399 193.993C160.773 193.993 161.114 194.055 161.422 194.18C161.73 194.297 161.99 194.462 162.203 194.675C162.423 194.887 162.591 195.144 162.709 195.445C162.826 195.738 162.885 196.057 162.885 196.402C162.885 196.512 162.877 196.622 162.863 196.732C162.848 196.834 162.833 196.922 162.819 196.996H158.573V197.018C158.573 197.626 158.763 198.132 159.145 198.536C159.533 198.932 160.036 199.13 160.652 199.13C161.004 199.13 161.323 199.056 161.609 198.91C161.895 198.756 162.129 198.554 162.313 198.305L163.006 198.844ZM160.41 194.796C159.962 194.796 159.585 194.92 159.277 195.17C158.969 195.419 158.76 195.782 158.65 196.259H161.939C161.924 195.863 161.777 195.522 161.499 195.236C161.227 194.942 160.864 194.796 160.41 194.796ZM163.832 198.998L164.492 198.426C164.683 198.668 164.896 198.858 165.13 198.998C165.365 199.13 165.622 199.196 165.9 199.196C166.208 199.196 166.447 199.115 166.615 198.954C166.784 198.785 166.868 198.58 166.868 198.338C166.868 198.022 166.725 197.795 166.439 197.656C166.161 197.509 165.849 197.366 165.504 197.227C165.167 197.08 164.855 196.889 164.569 196.655C164.291 196.42 164.151 196.053 164.151 195.555C164.151 195.115 164.316 194.744 164.646 194.444C164.984 194.143 165.413 193.993 165.933 193.993C166.337 193.993 166.703 194.077 167.033 194.246C167.363 194.414 167.624 194.634 167.814 194.906L167.165 195.467C167.011 195.247 166.832 195.078 166.626 194.961C166.421 194.836 166.194 194.774 165.944 194.774C165.658 194.774 165.438 194.843 165.284 194.983C165.138 195.122 165.064 195.305 165.064 195.533C165.064 195.848 165.204 196.079 165.482 196.226C165.768 196.372 166.08 196.519 166.417 196.666C166.762 196.805 167.074 196.992 167.352 197.227C167.638 197.454 167.781 197.81 167.781 198.294C167.774 198.807 167.587 199.218 167.22 199.526C166.861 199.826 166.425 199.977 165.911 199.977C165.471 199.977 165.075 199.892 164.723 199.724C164.379 199.555 164.082 199.313 163.832 198.998ZM169.665 197.898V195.071H168.62V194.213H169.665V192.827H170.611V194.213H172.536V195.071H170.611V197.898C170.611 198.33 170.71 198.624 170.908 198.778C171.114 198.932 171.385 199.009 171.722 199.009C171.906 199.009 172.063 198.998 172.195 198.976C172.327 198.954 172.445 198.921 172.547 198.877V199.713C172.415 199.764 172.272 199.801 172.118 199.823C171.964 199.852 171.788 199.867 171.59 199.867C170.974 199.867 170.498 199.709 170.16 199.394C169.83 199.071 169.665 198.572 169.665 197.898ZM174.438 192.772C174.255 192.772 174.097 192.709 173.965 192.585C173.841 192.453 173.778 192.295 173.778 192.112C173.778 191.936 173.841 191.785 173.965 191.661C174.097 191.529 174.255 191.463 174.438 191.463C174.622 191.463 174.776 191.529 174.9 191.661C175.025 191.785 175.087 191.936 175.087 192.112C175.087 192.295 175.025 192.453 174.9 192.585C174.776 192.709 174.622 192.772 174.438 192.772ZM173.965 199.757V194.213H174.9V199.757H173.965ZM176.239 200.758C176.239 200.479 176.308 200.226 176.448 199.999C176.587 199.771 176.792 199.559 177.064 199.361C176.939 199.265 176.844 199.148 176.778 199.009C176.712 198.862 176.679 198.715 176.679 198.569C176.679 198.349 176.734 198.151 176.844 197.975C176.961 197.791 177.126 197.63 177.339 197.491C177.097 197.307 176.906 197.084 176.767 196.82C176.635 196.548 176.569 196.259 176.569 195.951C176.569 195.687 176.62 195.434 176.723 195.192C176.825 194.95 176.968 194.741 177.152 194.565C177.335 194.389 177.559 194.249 177.823 194.147C178.094 194.037 178.395 193.982 178.725 193.982C178.93 193.982 179.121 194.004 179.297 194.048C179.48 194.084 179.645 194.139 179.792 194.213H181.849V195.027H180.65C180.723 195.166 180.778 195.316 180.815 195.478C180.859 195.632 180.881 195.789 180.881 195.951C180.881 196.215 180.829 196.468 180.727 196.71C180.631 196.944 180.488 197.15 180.298 197.326C180.114 197.502 179.887 197.645 179.616 197.755C179.352 197.857 179.055 197.909 178.725 197.909C178.585 197.909 178.45 197.898 178.318 197.876C178.193 197.854 178.072 197.828 177.955 197.799C177.837 197.879 177.746 197.971 177.68 198.074C177.621 198.169 177.592 198.268 177.592 198.371C177.592 198.488 177.625 198.583 177.691 198.657C177.764 198.73 177.885 198.767 178.054 198.767H179.638C180.364 198.767 180.903 198.928 181.255 199.251C181.607 199.573 181.783 199.98 181.783 200.472C181.783 201.066 181.522 201.553 181.002 201.935C180.488 202.316 179.806 202.507 178.956 202.507C178.142 202.507 177.485 202.353 176.987 202.045C176.488 201.737 176.239 201.308 176.239 200.758ZM178.736 197.172C179.132 197.172 179.44 197.054 179.66 196.82C179.887 196.578 180.001 196.288 180.001 195.951C180.001 195.613 179.887 195.324 179.66 195.082C179.44 194.84 179.132 194.719 178.736 194.719C178.325 194.719 178.01 194.84 177.79 195.082C177.57 195.324 177.46 195.613 177.46 195.951C177.46 196.288 177.57 196.578 177.79 196.82C178.01 197.054 178.325 197.172 178.736 197.172ZM177.152 200.648C177.152 200.985 177.313 201.249 177.636 201.44C177.958 201.63 178.395 201.726 178.945 201.726C179.524 201.726 179.986 201.616 180.331 201.396C180.675 201.183 180.848 200.897 180.848 200.538C180.848 200.274 180.756 200.05 180.573 199.867C180.389 199.683 180.052 199.592 179.561 199.592H177.878C177.643 199.731 177.463 199.885 177.339 200.054C177.214 200.222 177.152 200.42 177.152 200.648ZM184.238 199.977C183.696 199.977 183.256 199.834 182.918 199.548C182.581 199.262 182.412 198.877 182.412 198.393C182.412 197.967 182.566 197.608 182.874 197.315C183.19 197.021 183.644 196.827 184.238 196.732L186.097 196.424V196.039C186.097 195.657 185.973 195.36 185.723 195.148C185.474 194.935 185.155 194.829 184.766 194.829C184.444 194.829 184.15 194.898 183.886 195.038C183.63 195.17 183.421 195.357 183.259 195.599L182.555 195.06C182.797 194.73 183.109 194.469 183.49 194.279C183.872 194.088 184.304 193.993 184.788 193.993C185.492 193.993 186.042 194.183 186.438 194.565C186.834 194.939 187.032 195.43 187.032 196.039V199.757H186.097V199.053C185.892 199.346 185.624 199.573 185.294 199.735C184.964 199.896 184.612 199.977 184.238 199.977ZM183.347 198.36C183.347 198.594 183.443 198.792 183.633 198.954C183.824 199.115 184.077 199.196 184.392 199.196C184.759 199.196 185.085 199.104 185.371 198.921C185.665 198.737 185.907 198.488 186.097 198.173V197.117L184.458 197.403C184.077 197.461 183.795 197.575 183.611 197.744C183.435 197.912 183.347 198.118 183.347 198.36ZM189.248 197.898V195.071H188.203V194.213H189.248V192.827H190.194V194.213H192.119V195.071H190.194V197.898C190.194 198.33 190.293 198.624 190.491 198.778C190.697 198.932 190.968 199.009 191.305 199.009C191.489 199.009 191.646 198.998 191.778 198.976C191.91 198.954 192.028 198.921 192.13 198.877V199.713C191.998 199.764 191.855 199.801 191.701 199.823C191.547 199.852 191.371 199.867 191.173 199.867C190.557 199.867 190.081 199.709 189.743 199.394C189.413 199.071 189.248 198.572 189.248 197.898ZM194.021 192.772C193.838 192.772 193.68 192.709 193.548 192.585C193.424 192.453 193.361 192.295 193.361 192.112C193.361 191.936 193.424 191.785 193.548 191.661C193.68 191.529 193.838 191.463 194.021 191.463C194.205 191.463 194.359 191.529 194.483 191.661C194.608 191.785 194.67 191.936 194.67 192.112C194.67 192.295 194.608 192.453 194.483 192.585C194.359 192.709 194.205 192.772 194.021 192.772ZM193.548 199.757V194.213H194.483V199.757H193.548ZM198.99 193.993C199.43 193.993 199.833 194.073 200.2 194.235C200.574 194.396 200.893 194.612 201.157 194.884C201.421 195.155 201.626 195.474 201.773 195.841C201.919 196.2 201.993 196.581 201.993 196.985C201.993 197.388 201.919 197.773 201.773 198.14C201.626 198.499 201.421 198.814 201.157 199.086C200.893 199.357 200.574 199.573 200.2 199.735C199.833 199.896 199.43 199.977 198.99 199.977C198.542 199.977 198.132 199.896 197.758 199.735C197.391 199.573 197.076 199.357 196.812 199.086C196.555 198.814 196.353 198.499 196.207 198.14C196.06 197.773 195.987 197.388 195.987 196.985C195.987 196.581 196.06 196.2 196.207 195.841C196.353 195.474 196.555 195.155 196.812 194.884C197.076 194.612 197.391 194.396 197.758 194.235C198.132 194.073 198.542 193.993 198.99 193.993ZM199.001 199.097C199.287 199.097 199.551 199.042 199.793 198.932C200.042 198.814 200.255 198.66 200.431 198.47C200.614 198.279 200.753 198.055 200.849 197.799C200.951 197.542 201.003 197.271 201.003 196.985C201.003 196.699 200.951 196.427 200.849 196.171C200.753 195.914 200.614 195.69 200.431 195.5C200.255 195.309 200.042 195.159 199.793 195.049C199.551 194.931 199.287 194.873 199.001 194.873C198.707 194.873 198.432 194.931 198.176 195.049C197.926 195.159 197.714 195.309 197.538 195.5C197.362 195.69 197.222 195.914 197.12 196.171C197.017 196.427 196.966 196.699 196.966 196.985C196.966 197.271 197.017 197.542 197.12 197.799C197.222 198.055 197.362 198.279 197.538 198.47C197.714 198.66 197.926 198.814 198.176 198.932C198.432 199.042 198.707 199.097 199.001 199.097ZM203.496 199.757V194.213H204.431V194.84C204.658 194.59 204.918 194.389 205.212 194.235C205.512 194.073 205.868 193.993 206.279 193.993C206.895 193.993 207.408 194.198 207.819 194.609C208.237 195.019 208.446 195.617 208.446 196.402V199.757H207.5V196.435C207.5 195.943 207.371 195.562 207.115 195.291C206.858 195.012 206.517 194.873 206.092 194.873C205.696 194.873 205.362 194.975 205.091 195.181C204.827 195.379 204.607 195.624 204.431 195.918V199.757H203.496Z" fill="black"/>
<path d="M153.474 100.673C153.974 100.673 154.424 100.562 154.824 100.341C155.231 100.112 155.56 99.8157 155.81 99.4514L156.613 100.073C156.27 100.537 155.828 100.912 155.285 101.198C154.749 101.476 154.145 101.616 153.474 101.616C152.888 101.616 152.353 101.509 151.867 101.294C151.381 101.08 150.967 100.794 150.624 100.437C150.281 100.08 150.013 99.6621 149.82 99.1835C149.628 98.6978 149.531 98.1871 149.531 97.6514C149.531 97.1157 149.628 96.6086 149.82 96.13C150.013 95.6443 150.281 95.2229 150.624 94.8658C150.967 94.5086 151.381 94.2229 151.867 94.0086C152.353 93.7944 152.888 93.6872 153.474 93.6872C154.145 93.6872 154.749 93.8301 155.285 94.1158C155.828 94.4015 156.27 94.7729 156.613 95.23L155.81 95.8515C155.56 95.4872 155.231 95.1943 154.824 94.9729C154.424 94.7443 153.974 94.6301 153.474 94.6301C153.053 94.6301 152.663 94.7086 152.306 94.8658C151.949 95.0229 151.642 95.2408 151.385 95.5193C151.128 95.7908 150.928 96.1122 150.785 96.4836C150.642 96.8479 150.57 97.2372 150.57 97.6514C150.57 98.0657 150.642 98.4586 150.785 98.83C150.928 99.1943 151.128 99.5157 151.385 99.7943C151.642 100.066 151.949 100.28 152.306 100.437C152.663 100.594 153.053 100.673 153.474 100.673ZM160.417 95.7872C160.846 95.7872 161.239 95.8658 161.596 96.0229C161.96 96.18 162.271 96.3907 162.528 96.655C162.785 96.9193 162.985 97.23 163.128 97.5871C163.271 97.9371 163.342 98.3086 163.342 98.7014C163.342 99.0943 163.271 99.4693 163.128 99.8264C162.985 100.176 162.785 100.484 162.528 100.748C162.271 101.012 161.96 101.223 161.596 101.38C161.239 101.537 160.846 101.616 160.417 101.616C159.982 101.616 159.582 101.537 159.217 101.38C158.86 101.223 158.553 101.012 158.296 100.748C158.046 100.484 157.85 100.176 157.707 99.8264C157.564 99.4693 157.493 99.0943 157.493 98.7014C157.493 98.3086 157.564 97.9371 157.707 97.5871C157.85 97.23 158.046 96.9193 158.296 96.655C158.553 96.3907 158.86 96.18 159.217 96.0229C159.582 95.8658 159.982 95.7872 160.417 95.7872ZM160.428 100.759C160.707 100.759 160.964 100.705 161.2 100.598C161.442 100.484 161.65 100.334 161.821 100.148C162 99.9621 162.135 99.7443 162.228 99.4943C162.328 99.2443 162.378 98.98 162.378 98.7014C162.378 98.4228 162.328 98.1586 162.228 97.9086C162.135 97.6586 162 97.4407 161.821 97.255C161.65 97.0693 161.442 96.9229 161.2 96.8157C160.964 96.7015 160.707 96.6443 160.428 96.6443C160.142 96.6443 159.875 96.7015 159.625 96.8157C159.382 96.9229 159.175 97.0693 159.003 97.255C158.832 97.4407 158.696 97.6586 158.596 97.9086C158.496 98.1586 158.446 98.4228 158.446 98.7014C158.446 98.98 158.496 99.2443 158.596 99.4943C158.696 99.7443 158.832 99.9621 159.003 100.148C159.175 100.334 159.382 100.484 159.625 100.598C159.875 100.705 160.142 100.759 160.428 100.759ZM164.806 101.401V96.0015H165.717V96.6122C165.939 96.3693 166.192 96.1729 166.478 96.0229C166.771 95.8658 167.117 95.7872 167.517 95.7872C168.117 95.7872 168.617 95.9872 169.017 96.3872C169.424 96.7872 169.628 97.3693 169.628 98.1336V101.401H168.706V98.1657C168.706 97.6871 168.581 97.3157 168.331 97.0514C168.081 96.78 167.749 96.6443 167.335 96.6443C166.949 96.6443 166.624 96.7443 166.36 96.9443C166.103 97.1372 165.889 97.3764 165.717 97.6621V101.401H164.806ZM170.882 100.662L171.525 100.105C171.711 100.341 171.918 100.526 172.147 100.662C172.375 100.791 172.625 100.855 172.897 100.855C173.197 100.855 173.429 100.776 173.593 100.619C173.757 100.455 173.839 100.255 173.839 100.019C173.839 99.7121 173.7 99.4907 173.422 99.355C173.15 99.2121 172.847 99.0728 172.511 98.9371C172.182 98.7943 171.879 98.6086 171.6 98.38C171.329 98.1514 171.193 97.7943 171.193 97.3086C171.193 96.88 171.354 96.5193 171.675 96.2265C172.004 95.9336 172.422 95.7872 172.929 95.7872C173.322 95.7872 173.679 95.8693 174 96.0336C174.322 96.1979 174.575 96.4122 174.761 96.6765L174.129 97.2229C173.979 97.0086 173.804 96.8443 173.604 96.73C173.404 96.6086 173.182 96.5479 172.939 96.5479C172.661 96.5479 172.447 96.6157 172.297 96.7514C172.154 96.8872 172.082 97.0657 172.082 97.2872C172.082 97.5943 172.218 97.8193 172.489 97.9621C172.768 98.105 173.072 98.2479 173.4 98.3907C173.736 98.5264 174.039 98.7086 174.311 98.9371C174.589 99.1585 174.729 99.505 174.729 99.9764C174.722 100.476 174.539 100.876 174.182 101.176C173.832 101.469 173.407 101.616 172.907 101.616C172.479 101.616 172.093 101.534 171.75 101.369C171.415 101.205 171.125 100.969 170.882 100.662ZM176.564 99.5907V96.8372H175.546V96.0015H176.564V94.6515H177.485V96.0015H179.36V96.8372H177.485V99.5907C177.485 100.012 177.582 100.298 177.774 100.448C177.974 100.598 178.239 100.673 178.567 100.673C178.746 100.673 178.899 100.662 179.028 100.641C179.157 100.619 179.271 100.587 179.371 100.544V101.359C179.242 101.409 179.103 101.444 178.953 101.466C178.803 101.494 178.632 101.509 178.439 101.509C177.839 101.509 177.374 101.355 177.046 101.048C176.724 100.734 176.564 100.248 176.564 99.5907ZM180.752 101.401V96.0015H181.663V96.6765C181.863 96.4407 182.088 96.2515 182.338 96.1086C182.595 95.9657 182.895 95.8943 183.238 95.8943C183.323 95.8943 183.406 95.9015 183.484 95.9158C183.563 95.9229 183.634 95.9372 183.698 95.9586V96.9014C183.62 96.88 183.538 96.8622 183.452 96.8479C183.366 96.8336 183.27 96.8264 183.163 96.8264C182.813 96.8264 182.516 96.9122 182.273 97.0836C182.031 97.2479 181.827 97.4657 181.663 97.7371V101.401H180.752ZM188.844 99.0871V96.0015H189.766V99.055C189.766 99.8621 189.548 100.491 189.112 100.941C188.676 101.391 188.094 101.616 187.366 101.616C186.644 101.616 186.066 101.391 185.63 100.941C185.194 100.491 184.976 99.8621 184.976 99.055V96.0015H185.887V99.0871C185.887 99.6157 186.019 100.026 186.283 100.319C186.555 100.612 186.919 100.759 187.376 100.759C187.826 100.759 188.183 100.612 188.448 100.319C188.712 100.026 188.844 99.6157 188.844 99.0871ZM194.046 100.759C194.375 100.759 194.671 100.687 194.935 100.544C195.2 100.394 195.414 100.198 195.578 99.955L196.307 100.512C196.057 100.848 195.739 101.116 195.353 101.316C194.967 101.516 194.528 101.616 194.035 101.616C193.592 101.616 193.189 101.537 192.825 101.38C192.46 101.223 192.15 101.012 191.892 100.748C191.642 100.484 191.446 100.176 191.303 99.8264C191.167 99.4693 191.1 99.0943 191.1 98.7014C191.1 98.3086 191.167 97.9371 191.303 97.5871C191.446 97.23 191.642 96.9193 191.892 96.655C192.15 96.3907 192.46 96.18 192.825 96.0229C193.189 95.8658 193.592 95.7872 194.035 95.7872C194.521 95.7872 194.957 95.8908 195.342 96.0979C195.735 96.2979 196.057 96.5622 196.307 96.8907L195.578 97.4479C195.414 97.205 195.196 97.0122 194.925 96.8693C194.66 96.7193 194.364 96.6443 194.035 96.6443C193.75 96.6443 193.482 96.6979 193.232 96.805C192.989 96.9122 192.782 97.0586 192.61 97.2443C192.439 97.43 192.303 97.6479 192.203 97.8979C192.103 98.1479 192.053 98.4157 192.053 98.7014C192.053 98.9871 192.103 99.2585 192.203 99.5157C192.303 99.7657 192.439 99.9835 192.61 100.169C192.789 100.348 193 100.491 193.242 100.598C193.485 100.705 193.753 100.759 194.046 100.759ZM197.845 99.5907V96.8372H196.828V96.0015H197.845V94.6515H198.767V96.0015H200.642V96.8372H198.767V99.5907C198.767 100.012 198.863 100.298 199.056 100.448C199.256 100.598 199.52 100.673 199.849 100.673C200.028 100.673 200.181 100.662 200.31 100.641C200.438 100.619 200.552 100.587 200.652 100.544V101.359C200.524 101.409 200.385 101.444 200.235 101.466C200.085 101.494 199.913 101.509 199.72 101.509C199.12 101.509 198.656 101.355 198.328 101.048C198.006 100.734 197.845 100.248 197.845 99.5907ZM202.494 94.5979C202.316 94.5979 202.162 94.5372 202.034 94.4158C201.912 94.2872 201.852 94.1336 201.852 93.9551C201.852 93.7836 201.912 93.6372 202.034 93.5158C202.162 93.3872 202.316 93.3229 202.494 93.3229C202.673 93.3229 202.823 93.3872 202.944 93.5158C203.066 93.6372 203.127 93.7836 203.127 93.9551C203.127 94.1336 203.066 94.2872 202.944 94.4158C202.823 94.5372 202.673 94.5979 202.494 94.5979ZM202.034 101.401V96.0015H202.944V101.401H202.034ZM207.333 95.7872C207.762 95.7872 208.155 95.8658 208.512 96.0229C208.876 96.18 209.187 96.3907 209.444 96.655C209.701 96.9193 209.901 97.23 210.044 97.5871C210.187 97.9371 210.258 98.3086 210.258 98.7014C210.258 99.0943 210.187 99.4693 210.044 99.8264C209.901 100.176 209.701 100.484 209.444 100.748C209.187 101.012 208.876 101.223 208.512 101.38C208.155 101.537 207.762 101.616 207.333 101.616C206.898 101.616 206.498 101.537 206.134 101.38C205.776 101.223 205.469 101.012 205.212 100.748C204.962 100.484 204.766 100.176 204.623 99.8264C204.48 99.4693 204.409 99.0943 204.409 98.7014C204.409 98.3086 204.48 97.9371 204.623 97.5871C204.766 97.23 204.962 96.9193 205.212 96.655C205.469 96.3907 205.776 96.18 206.134 96.0229C206.498 95.8658 206.898 95.7872 207.333 95.7872ZM207.344 100.759C207.623 100.759 207.88 100.705 208.116 100.598C208.358 100.484 208.566 100.334 208.737 100.148C208.916 99.9621 209.051 99.7443 209.144 99.4943C209.244 99.2443 209.294 98.98 209.294 98.7014C209.294 98.4228 209.244 98.1586 209.144 97.9086C209.051 97.6586 208.916 97.4407 208.737 97.255C208.566 97.0693 208.358 96.9229 208.116 96.8157C207.88 96.7015 207.623 96.6443 207.344 96.6443C207.058 96.6443 206.791 96.7015 206.541 96.8157C206.298 96.9229 206.091 97.0693 205.919 97.255C205.748 97.4407 205.612 97.6586 205.512 97.9086C205.412 98.1586 205.362 98.4228 205.362 98.7014C205.362 98.98 205.412 99.2443 205.512 99.4943C205.612 99.7443 205.748 99.9621 205.919 100.148C206.091 100.334 206.298 100.484 206.541 100.598C206.791 100.705 207.058 100.759 207.344 100.759ZM211.722 101.401V96.0015H212.633V96.6122C212.855 96.3693 213.108 96.1729 213.394 96.0229C213.687 95.8658 214.033 95.7872 214.433 95.7872C215.033 95.7872 215.533 95.9872 215.933 96.3872C216.34 96.7872 216.544 97.3693 216.544 98.1336V101.401H215.622V98.1657C215.622 97.6871 215.497 97.3157 215.247 97.0514C214.997 96.78 214.665 96.6443 214.251 96.6443C213.865 96.6443 213.54 96.7443 213.276 96.9443C213.019 97.1372 212.805 97.3764 212.633 97.6621V101.401H211.722Z" fill="black"/>
<path d="M362.827 107.368L365.896 99.6684H367.282L370.351 107.368H369.251L368.36 105.102H364.818L363.927 107.368H362.827ZM365.159 104.211H368.019L366.589 100.57L365.159 104.211ZM374.16 106.708C374.498 106.708 374.802 106.635 375.073 106.488C375.345 106.334 375.565 106.133 375.733 105.883L376.481 106.455C376.225 106.8 375.898 107.075 375.502 107.28C375.106 107.486 374.655 107.588 374.149 107.588C373.695 107.588 373.28 107.508 372.906 107.346C372.532 107.185 372.213 106.969 371.949 106.697C371.693 106.426 371.491 106.111 371.344 105.751C371.205 105.385 371.135 105 371.135 104.596C371.135 104.193 371.205 103.812 371.344 103.452C371.491 103.086 371.693 102.767 371.949 102.495C372.213 102.224 372.532 102.008 372.906 101.846C373.28 101.685 373.695 101.604 374.149 101.604C374.648 101.604 375.095 101.711 375.491 101.923C375.895 102.129 376.225 102.4 376.481 102.737L375.733 103.309C375.565 103.06 375.341 102.862 375.062 102.715C374.791 102.561 374.487 102.484 374.149 102.484C373.856 102.484 373.581 102.539 373.324 102.649C373.075 102.759 372.862 102.91 372.686 103.1C372.51 103.291 372.371 103.515 372.268 103.771C372.166 104.028 372.114 104.303 372.114 104.596C372.114 104.89 372.166 105.168 372.268 105.432C372.371 105.689 372.51 105.913 372.686 106.103C372.87 106.287 373.086 106.433 373.335 106.543C373.585 106.653 373.86 106.708 374.16 106.708ZM380.101 106.708C380.438 106.708 380.743 106.635 381.014 106.488C381.285 106.334 381.505 106.133 381.674 105.883L382.422 106.455C382.165 106.8 381.839 107.075 381.443 107.28C381.047 107.486 380.596 107.588 380.09 107.588C379.635 107.588 379.221 107.508 378.847 107.346C378.473 107.185 378.154 106.969 377.89 106.697C377.633 106.426 377.432 106.111 377.285 105.751C377.146 105.385 377.076 105 377.076 104.596C377.076 104.193 377.146 103.812 377.285 103.452C377.432 103.086 377.633 102.767 377.89 102.495C378.154 102.224 378.473 102.008 378.847 101.846C379.221 101.685 379.635 101.604 380.09 101.604C380.589 101.604 381.036 101.711 381.432 101.923C381.835 102.129 382.165 102.4 382.422 102.737L381.674 103.309C381.505 103.06 381.282 102.862 381.003 102.715C380.732 102.561 380.427 102.484 380.09 102.484C379.797 102.484 379.522 102.539 379.265 102.649C379.016 102.759 378.803 102.91 378.627 103.1C378.451 103.291 378.312 103.515 378.209 103.771C378.106 104.028 378.055 104.303 378.055 104.596C378.055 104.89 378.106 105.168 378.209 105.432C378.312 105.689 378.451 105.913 378.627 106.103C378.81 106.287 379.027 106.433 379.276 106.543C379.525 106.653 379.8 106.708 380.101 106.708ZM386.305 100.944H385.392L386.536 99.1184H387.592L386.305 100.944ZM388.417 106.455C388.161 106.8 387.827 107.075 387.416 107.28C387.013 107.486 386.555 107.588 386.041 107.588C385.579 107.588 385.158 107.508 384.776 107.346C384.402 107.185 384.083 106.969 383.819 106.697C383.563 106.426 383.365 106.111 383.225 105.751C383.086 105.385 383.016 105 383.016 104.596C383.016 104.178 383.082 103.786 383.214 103.419C383.346 103.053 383.53 102.737 383.764 102.473C384.006 102.202 384.3 101.989 384.644 101.835C384.996 101.681 385.385 101.604 385.81 101.604C386.184 101.604 386.525 101.667 386.833 101.791C387.141 101.909 387.402 102.074 387.614 102.286C387.834 102.499 388.003 102.756 388.12 103.056C388.238 103.35 388.296 103.669 388.296 104.013C388.296 104.123 388.289 104.233 388.274 104.343C388.26 104.446 388.245 104.534 388.23 104.607H383.984V104.629C383.984 105.238 384.175 105.744 384.556 106.147C384.945 106.543 385.447 106.741 386.063 106.741C386.415 106.741 386.734 106.668 387.02 106.521C387.306 106.367 387.541 106.166 387.724 105.916L388.417 106.455ZM385.821 102.407C385.374 102.407 384.996 102.532 384.688 102.781C384.38 103.031 384.171 103.394 384.061 103.87H387.35C387.336 103.474 387.189 103.133 386.91 102.847C386.639 102.554 386.276 102.407 385.821 102.407ZM389.881 107.368V99.1184H390.816V107.368H389.881ZM395.608 100.944H394.695L395.839 99.1184H396.895L395.608 100.944ZM397.72 106.455C397.463 106.8 397.13 107.075 396.719 107.28C396.316 107.486 395.857 107.588 395.344 107.588C394.882 107.588 394.46 107.508 394.079 107.346C393.705 107.185 393.386 106.969 393.122 106.697C392.865 106.426 392.667 106.111 392.528 105.751C392.389 105.385 392.319 105 392.319 104.596C392.319 104.178 392.385 103.786 392.517 103.419C392.649 103.053 392.832 102.737 393.067 102.473C393.309 102.202 393.602 101.989 393.947 101.835C394.299 101.681 394.688 101.604 395.113 101.604C395.487 101.604 395.828 101.667 396.136 101.791C396.444 101.909 396.704 102.074 396.917 102.286C397.137 102.499 397.306 102.756 397.423 103.056C397.54 103.35 397.599 103.669 397.599 104.013C397.599 104.123 397.592 104.233 397.577 104.343C397.562 104.446 397.548 104.534 397.533 104.607H393.287V104.629C393.287 105.238 393.478 105.744 393.859 106.147C394.248 106.543 394.75 106.741 395.366 106.741C395.718 106.741 396.037 106.668 396.323 106.521C396.609 106.367 396.844 106.166 397.027 105.916L397.72 106.455ZM395.124 102.407C394.677 102.407 394.299 102.532 393.991 102.781C393.683 103.031 393.474 103.394 393.364 103.87H396.653C396.638 103.474 396.492 103.133 396.213 102.847C395.942 102.554 395.579 102.407 395.124 102.407ZM399.184 107.368V101.824H400.119V102.517C400.324 102.275 400.555 102.081 400.812 101.934C401.076 101.788 401.384 101.714 401.736 101.714C401.824 101.714 401.908 101.722 401.989 101.736C402.069 101.744 402.143 101.758 402.209 101.78V102.748C402.128 102.726 402.044 102.708 401.956 102.693C401.868 102.679 401.769 102.671 401.659 102.671C401.299 102.671 400.995 102.759 400.746 102.935C400.496 103.104 400.287 103.328 400.119 103.606V107.368H399.184ZM404.827 107.588C404.284 107.588 403.844 107.445 403.507 107.159C403.169 106.873 403.001 106.488 403.001 106.004C403.001 105.579 403.155 105.22 403.463 104.926C403.778 104.633 404.233 104.439 404.827 104.343L406.686 104.035V103.65C406.686 103.269 406.561 102.972 406.312 102.759C406.062 102.547 405.743 102.44 405.355 102.44C405.032 102.44 404.739 102.51 404.475 102.649C404.218 102.781 404.009 102.968 403.848 103.21L403.144 102.671C403.386 102.341 403.697 102.081 404.079 101.89C404.46 101.7 404.893 101.604 405.377 101.604C406.081 101.604 406.631 101.795 407.027 102.176C407.423 102.55 407.621 103.042 407.621 103.65V107.368H406.686V106.664C406.48 106.958 406.213 107.185 405.883 107.346C405.553 107.508 405.201 107.588 404.827 107.588ZM403.936 105.971C403.936 106.206 404.031 106.404 404.222 106.565C404.412 106.727 404.665 106.807 404.981 106.807C405.347 106.807 405.674 106.716 405.96 106.532C406.253 106.349 406.495 106.1 406.686 105.784V104.728L405.047 105.014C404.665 105.073 404.383 105.187 404.2 105.355C404.024 105.524 403.936 105.729 403.936 105.971ZM409.837 105.509V102.682H408.792V101.824H409.837V100.438H410.783V101.824H412.708V102.682H410.783V105.509C410.783 105.942 410.882 106.235 411.08 106.389C411.285 106.543 411.556 106.62 411.894 106.62C412.077 106.62 412.235 106.609 412.367 106.587C412.499 106.565 412.616 106.532 412.719 106.488V107.324C412.587 107.376 412.444 107.412 412.29 107.434C412.136 107.464 411.96 107.478 411.762 107.478C411.146 107.478 410.669 107.321 410.332 107.005C410.002 106.683 409.837 106.184 409.837 105.509ZM414.61 100.383C414.426 100.383 414.269 100.321 414.137 100.196C414.012 100.064 413.95 99.9067 413.95 99.7234C413.95 99.5474 414.012 99.3971 414.137 99.2724C414.269 99.1404 414.426 99.0744 414.61 99.0744C414.793 99.0744 414.947 99.1404 415.072 99.2724C415.196 99.3971 415.259 99.5474 415.259 99.7234C415.259 99.9067 415.196 100.064 415.072 100.196C414.947 100.321 414.793 100.383 414.61 100.383ZM414.137 107.368V101.824H415.072V107.368H414.137ZM419.578 101.604C420.018 101.604 420.421 101.685 420.788 101.846C421.162 102.008 421.481 102.224 421.745 102.495C422.009 102.767 422.214 103.086 422.361 103.452C422.508 103.812 422.581 104.193 422.581 104.596C422.581 105 422.508 105.385 422.361 105.751C422.214 106.111 422.009 106.426 421.745 106.697C421.481 106.969 421.162 107.185 420.788 107.346C420.421 107.508 420.018 107.588 419.578 107.588C419.131 107.588 418.72 107.508 418.346 107.346C417.979 107.185 417.664 106.969 417.4 106.697C417.143 106.426 416.942 106.111 416.795 105.751C416.648 105.385 416.575 105 416.575 104.596C416.575 104.193 416.648 103.812 416.795 103.452C416.942 103.086 417.143 102.767 417.4 102.495C417.664 102.224 417.979 102.008 418.346 101.846C418.72 101.685 419.131 101.604 419.578 101.604ZM419.589 106.708C419.875 106.708 420.139 106.653 420.381 106.543C420.63 106.426 420.843 106.272 421.019 106.081C421.202 105.891 421.342 105.667 421.437 105.41C421.54 105.154 421.591 104.882 421.591 104.596C421.591 104.31 421.54 104.039 421.437 103.782C421.342 103.526 421.202 103.302 421.019 103.111C420.843 102.921 420.63 102.77 420.381 102.66C420.139 102.543 419.875 102.484 419.589 102.484C419.296 102.484 419.021 102.543 418.764 102.66C418.515 102.77 418.302 102.921 418.126 103.111C417.95 103.302 417.811 103.526 417.708 103.782C417.605 104.039 417.554 104.31 417.554 104.596C417.554 104.882 417.605 105.154 417.708 105.41C417.811 105.667 417.95 105.891 418.126 106.081C418.302 106.272 418.515 106.426 418.764 106.543C419.021 106.653 419.296 106.708 419.589 106.708ZM424.084 107.368V101.824H425.019V102.451C425.246 102.202 425.507 102 425.8 101.846C426.101 101.685 426.456 101.604 426.867 101.604C427.483 101.604 427.996 101.81 428.407 102.22C428.825 102.631 429.034 103.229 429.034 104.013V107.368H428.088V104.046C428.088 103.555 427.96 103.174 427.703 102.902C427.446 102.624 427.105 102.484 426.68 102.484C426.284 102.484 425.95 102.587 425.679 102.792C425.415 102.99 425.195 103.236 425.019 103.529V107.368H424.084Z" fill="black"/>
<path d="M456.278 295.325V294.379H462.416V295.325H459.864V302.079H458.83V295.325H456.278ZM463.006 302.079V296.535H463.941V297.228C464.147 296.986 464.378 296.792 464.634 296.645C464.898 296.498 465.206 296.425 465.558 296.425C465.646 296.425 465.731 296.432 465.811 296.447C465.892 296.454 465.965 296.469 466.031 296.491V297.459C465.951 297.437 465.866 297.419 465.778 297.404C465.69 297.389 465.591 297.382 465.481 297.382C465.122 297.382 464.818 297.47 464.568 297.646C464.319 297.815 464.11 298.038 463.941 298.317V302.079H463.006ZM468.649 302.299C468.107 302.299 467.667 302.156 467.329 301.87C466.992 301.584 466.823 301.199 466.823 300.715C466.823 300.29 466.977 299.93 467.285 299.637C467.601 299.344 468.055 299.149 468.649 299.054L470.508 298.746V298.361C470.508 297.98 470.384 297.683 470.134 297.47C469.885 297.257 469.566 297.151 469.177 297.151C468.855 297.151 468.561 297.221 468.297 297.36C468.041 297.492 467.832 297.679 467.67 297.921L466.966 297.382C467.208 297.052 467.52 296.792 467.901 296.601C468.283 296.41 468.715 296.315 469.199 296.315C469.903 296.315 470.453 296.506 470.849 296.887C471.245 297.261 471.443 297.752 471.443 298.361V302.079H470.508V301.375C470.303 301.668 470.035 301.896 469.705 302.057C469.375 302.218 469.023 302.299 468.649 302.299ZM467.758 300.682C467.758 300.917 467.854 301.115 468.044 301.276C468.235 301.437 468.488 301.518 468.803 301.518C469.17 301.518 469.496 301.426 469.782 301.243C470.076 301.06 470.318 300.81 470.508 300.495V299.439L468.869 299.725C468.488 299.784 468.206 299.897 468.022 300.066C467.846 300.235 467.758 300.44 467.758 300.682ZM473.34 302.079V296.535H474.275V297.162C474.503 296.913 474.763 296.711 475.056 296.557C475.357 296.396 475.713 296.315 476.123 296.315C476.739 296.315 477.253 296.52 477.663 296.931C478.081 297.342 478.29 297.939 478.29 298.724V302.079H477.344V298.757C477.344 298.266 477.216 297.884 476.959 297.613C476.703 297.334 476.362 297.195 475.936 297.195C475.54 297.195 475.207 297.298 474.935 297.503C474.671 297.701 474.451 297.947 474.275 298.24V302.079H473.34ZM479.578 301.32L480.238 300.748C480.429 300.99 480.642 301.181 480.876 301.32C481.111 301.452 481.368 301.518 481.646 301.518C481.954 301.518 482.193 301.437 482.361 301.276C482.53 301.107 482.614 300.902 482.614 300.66C482.614 300.345 482.471 300.117 482.185 299.978C481.907 299.831 481.595 299.688 481.25 299.549C480.913 299.402 480.601 299.212 480.315 298.977C480.037 298.742 479.897 298.376 479.897 297.877C479.897 297.437 480.062 297.067 480.392 296.766C480.73 296.465 481.159 296.315 481.679 296.315C482.083 296.315 482.449 296.399 482.779 296.568C483.109 296.737 483.37 296.957 483.56 297.228L482.911 297.789C482.757 297.569 482.578 297.4 482.372 297.283C482.167 297.158 481.94 297.096 481.69 297.096C481.404 297.096 481.184 297.166 481.03 297.305C480.884 297.444 480.81 297.628 480.81 297.855C480.81 298.17 480.95 298.401 481.228 298.548C481.514 298.695 481.826 298.841 482.163 298.988C482.508 299.127 482.82 299.314 483.098 299.549C483.384 299.776 483.527 300.132 483.527 300.616C483.52 301.129 483.333 301.54 482.966 301.848C482.607 302.149 482.171 302.299 481.657 302.299C481.217 302.299 480.821 302.215 480.469 302.046C480.125 301.877 479.828 301.635 479.578 301.32ZM484.323 296.535H485.368V295.853C485.368 295.259 485.548 294.775 485.907 294.401C486.267 294.02 486.743 293.829 487.337 293.829C487.645 293.829 487.92 293.88 488.162 293.983C488.404 294.078 488.606 294.207 488.767 294.368L488.184 295.05C488.089 294.94 487.972 294.852 487.832 294.786C487.7 294.713 487.539 294.676 487.348 294.676C487.048 294.676 486.798 294.779 486.6 294.984C486.41 295.189 486.314 295.472 486.314 295.831V296.535H488.239V297.393H486.314V302.079H485.368V297.393H484.323V296.535ZM493.995 301.166C493.738 301.511 493.405 301.786 492.994 301.991C492.591 302.196 492.132 302.299 491.619 302.299C491.157 302.299 490.735 302.218 490.354 302.057C489.98 301.896 489.661 301.679 489.397 301.408C489.14 301.137 488.942 300.821 488.803 300.462C488.664 300.095 488.594 299.71 488.594 299.307C488.594 298.889 488.66 298.497 488.792 298.13C488.924 297.763 489.107 297.448 489.342 297.184C489.584 296.913 489.877 296.7 490.222 296.546C490.574 296.392 490.963 296.315 491.388 296.315C491.762 296.315 492.103 296.377 492.411 296.502C492.719 296.619 492.979 296.784 493.192 296.997C493.412 297.21 493.581 297.466 493.698 297.767C493.815 298.06 493.874 298.379 493.874 298.724C493.874 298.834 493.867 298.944 493.852 299.054C493.837 299.157 493.823 299.245 493.808 299.318H489.562V299.34C489.562 299.949 489.753 300.455 490.134 300.858C490.523 301.254 491.025 301.452 491.641 301.452C491.993 301.452 492.312 301.379 492.598 301.232C492.884 301.078 493.119 300.876 493.302 300.627L493.995 301.166ZM491.399 297.118C490.952 297.118 490.574 297.243 490.266 297.492C489.958 297.741 489.749 298.104 489.639 298.581H492.928C492.913 298.185 492.767 297.844 492.488 297.558C492.217 297.265 491.854 297.118 491.399 297.118ZM495.459 302.079V296.535H496.394V297.228C496.599 296.986 496.83 296.792 497.087 296.645C497.351 296.498 497.659 296.425 498.011 296.425C498.099 296.425 498.183 296.432 498.264 296.447C498.344 296.454 498.418 296.469 498.484 296.491V297.459C498.403 297.437 498.319 297.419 498.231 297.404C498.143 297.389 498.044 297.382 497.934 297.382C497.574 297.382 497.27 297.47 497.021 297.646C496.771 297.815 496.562 298.038 496.394 298.317V302.079H495.459ZM500.407 300.22V297.393H499.362V296.535H500.407V295.149H501.353V296.535H503.278V297.393H501.353V300.22C501.353 300.653 501.452 300.946 501.65 301.1C501.856 301.254 502.127 301.331 502.464 301.331C502.648 301.331 502.805 301.32 502.937 301.298C503.069 301.276 503.187 301.243 503.289 301.199V302.035C503.157 302.086 503.014 302.123 502.86 302.145C502.706 302.174 502.53 302.189 502.332 302.189C501.716 302.189 501.24 302.031 500.902 301.716C500.572 301.393 500.407 300.895 500.407 300.22Z" fill="black"/>
</g>
<defs>
<clipPath id="clip0_1853_26189">
<rect width="587" height="302" fill="white"/>
</clipPath>
</defs>
</svg>
