<svg width="605" height="313" viewBox="0 0 605 313" fill="none" xmlns="http://www.w3.org/2000/svg">
<path d="M70.1232 97.1874C76.0781 90.3741 85.3679 88.2704 94.0537 89.7523C103.412 91.3535 111.068 97.0341 117.023 104.23C129.784 119.79 133.765 140.392 145.462 156.616C150.584 163.645 157.194 169.453 164.819 173.626C172.445 177.798 180.897 180.232 189.572 180.752C206.739 181.766 223.541 174.458 235.085 161.803C240.854 155.491 245.144 147.969 247.641 139.787C250.678 129.72 251.044 119.075 250.602 108.642C249.692 87.785 245.123 65.9739 252.099 45.6191C257.739 29.199 275.068 13.1707 293.673 18.2722C303.15 20.8698 309.837 28.654 316.26 35.578C322.683 42.502 329.871 48.8469 338.08 53.6162C352.925 62.184 371.097 64.756 386.571 56.3415C399.927 49.1024 407.541 34.5219 402.735 19.6178C400.659 13.1622 396.473 7.18351 390.518 3.78537C384.189 0.174314 376.55 0.157281 369.906 2.93371C351.717 10.4624 346.741 30.9364 347.243 48.8043C347.745 66.6722 350.008 87.4954 361.288 102.152C372.254 116.46 390.28 121.613 407.022 125.666C423.764 129.72 442.089 133.647 454.815 146.226C461.454 152.78 465.379 161.599 465.806 170.924C466.325 181.059 463.697 191.04 461.459 200.834C459.324 210.203 457.265 219.792 458.116 229.425C458.888 237.546 461.507 245.383 465.772 252.334C474.569 266.745 489.592 276.488 506.505 277.706C515.187 278.329 523.892 276.856 531.886 273.408C539.881 269.961 546.931 264.64 552.443 257.896C564.574 242.915 569.593 223.506 582.141 208.797C588.096 201.839 595.481 196.227 604.507 194.14C605.306 193.953 604.966 192.718 604.166 192.905C586.99 196.874 576.399 212.536 568.751 227.244C560.133 243.946 552.324 261.924 534.697 270.85C518.534 279.026 498.465 278.608 483.195 268.669C468.418 259.054 458.958 241.833 459.205 224.161C459.486 205.084 469.26 186.79 466.776 167.585C464.641 151.123 452.314 140.119 437.852 133.664C422.25 126.714 405.091 124.951 389.072 119.262C380.506 116.222 372.211 111.98 365.78 105.422C358.974 98.5159 354.976 89.5479 352.585 80.2733C350.307 70.892 348.976 61.3052 348.612 51.6574C348.093 41.3693 348.663 30.5532 353.138 21.0997C356.992 12.9408 364.138 5.83788 372.909 3.21476C376.798 2.01283 380.946 1.92882 384.881 2.97232C388.816 4.01581 392.378 6.14484 395.163 9.11678C400.28 14.6788 403.067 21.9962 402.947 29.5567C402.845 37.8775 398.694 45.3892 392.475 50.7546C378.175 63.0952 357.792 62.4139 341.705 54.1613C333.253 49.6791 325.612 43.8092 319.101 36.7959C313.095 30.5106 307.438 23.4077 299.603 19.2942C285.353 11.8762 268.722 18.8854 258.981 30.5106C246.85 44.9889 246.221 65.3011 247.386 83.2627C248.688 103.804 252.652 125.845 244.17 145.434C240.616 153.477 235.275 160.603 228.554 166.267C221.833 171.932 213.909 175.986 205.386 178.12C187.521 182.438 167.861 177.039 154.344 164.749C139.72 151.463 134.939 131.577 125.615 114.833C117.695 100.62 105.122 87.4699 87.6563 88.032C80.638 88.2619 73.8833 90.9106 69.2384 96.2846C68.7025 96.9063 69.6042 97.8091 70.1402 97.1874H70.1232Z" fill="black"/>
<path d="M99.6224 95.203C102.436 95.203 104.718 92.919 104.718 90.102C104.718 87.284 102.436 85 99.6224 85C96.8074 85 94.5264 87.284 94.5264 90.102C94.5264 92.919 96.8074 95.203 99.6224 95.203Z" fill="#BBE2C3"/>
<path d="M249.273 104.508C253.601 104.508 257.109 100.996 257.109 96.6641C257.109 92.3321 253.601 88.8203 249.273 88.8203C244.946 88.8203 241.438 92.3321 241.438 96.6641C241.438 100.996 244.946 104.508 249.273 104.508Z" fill="#B9B0F9"/>
<path d="M364.451 111.705C369.253 111.705 373.146 107.808 373.146 103.001C373.146 98.1939 369.253 94.2969 364.451 94.2969C359.65 94.2969 355.757 98.1939 355.757 103.001C355.757 107.808 359.65 111.705 364.451 111.705Z" fill="#9C90F8"/>
<path d="M494.026 285.6C501.003 285.6 506.659 279.937 506.659 272.952C506.659 265.968 501.003 260.305 494.026 260.305C487.049 260.305 481.393 265.968 481.393 272.952C481.393 279.937 487.049 285.6 494.026 285.6Z" fill="#7666F6"/>
<path d="M594.586 187.321C597.037 190.55 600.31 193.059 604.063 194.585L603.782 193.512C600.604 197.385 598.607 202.092 598.032 207.071C597.938 207.88 599.214 207.871 599.308 207.071C599.86 202.426 601.725 198.035 604.684 194.415C604.76 194.335 604.814 194.237 604.841 194.13C604.869 194.023 604.868 193.911 604.84 193.804C604.812 193.698 604.757 193.6 604.681 193.521C604.604 193.441 604.509 193.383 604.403 193.35C600.957 191.942 597.948 189.64 595.684 186.682C595.19 186.035 594.084 186.682 594.586 187.321Z" fill="black"/>
<path d="M445.776 308V296.8H449.056C451.296 296.8 452.688 298.032 452.688 299.952C452.688 301.872 451.296 303.088 449.056 303.088H447.28V308H445.776ZM449.088 298.08H447.28V301.808H449.088C450.368 301.808 451.136 301.12 451.136 299.92C451.136 298.784 450.368 298.08 449.088 298.08ZM458.239 298.656H456.911L458.575 296H460.111L458.239 298.656ZM461.311 306.672C460.559 307.68 459.359 308.32 457.855 308.32C455.135 308.32 453.455 306.32 453.455 303.968C453.455 301.52 455.023 299.616 457.519 299.616C459.711 299.616 461.135 301.152 461.135 303.136C461.135 303.456 461.087 303.76 461.039 303.984H454.847C454.895 305.92 456.127 307.088 457.855 307.088C458.895 307.088 459.775 306.608 460.303 305.888L461.311 306.672ZM457.487 300.768C456.159 300.768 455.231 301.552 454.943 302.944H459.775C459.727 301.76 458.911 300.768 457.487 300.768ZM463.44 308V299.936H464.8V300.944C465.392 300.24 466.128 299.776 467.152 299.776C467.408 299.776 467.648 299.808 467.84 299.872V301.2C467.6 301.136 467.36 301.104 467.04 301.104C465.984 301.104 465.296 301.648 464.8 302.464V308H463.44ZM473.411 298.656H472.083L473.747 296H475.283L473.411 298.656ZM476.483 306.672C475.731 307.68 474.531 308.32 473.027 308.32C470.307 308.32 468.627 306.32 468.627 303.968C468.627 301.52 470.195 299.616 472.691 299.616C474.883 299.616 476.307 301.152 476.307 303.136C476.307 303.456 476.259 303.76 476.211 303.984H470.019C470.067 305.92 471.299 307.088 473.027 307.088C474.067 307.088 474.947 306.608 475.475 305.888L476.483 306.672ZM472.659 300.768C471.331 300.768 470.403 301.552 470.115 302.944H474.947C474.899 301.76 474.083 300.768 472.659 300.768ZM478.612 308V299.936H479.972V300.848C480.628 300.128 481.46 299.616 482.66 299.616C484.468 299.616 485.812 300.832 485.812 303.12V308H484.452V303.168C484.452 301.728 483.636 300.896 482.388 300.896C481.22 300.896 480.484 301.568 479.972 302.416V308H478.612ZM488.549 308V299.936H489.909V300.848C490.565 300.128 491.397 299.616 492.597 299.616C494.405 299.616 495.749 300.832 495.749 303.12V308H494.389V303.168C494.389 301.728 493.573 300.896 492.325 300.896C491.157 300.896 490.421 301.568 489.909 302.416V308H488.549ZM499.175 297.84C498.647 297.84 498.215 297.408 498.215 296.88C498.215 296.368 498.647 295.936 499.175 295.936C499.703 295.936 500.119 296.368 500.119 296.88C500.119 297.408 499.703 297.84 499.175 297.84ZM498.487 308V299.936H499.847V308H498.487ZM501.795 306.896L502.755 306.08C503.315 306.784 503.987 307.184 504.803 307.184C505.699 307.184 506.211 306.64 506.211 305.936C506.211 304.128 502.179 304.768 502.179 301.92C502.179 300.656 503.251 299.616 504.803 299.616C505.955 299.616 506.947 300.16 507.507 300.944L506.563 301.744C506.131 301.136 505.523 300.752 504.819 300.752C503.955 300.752 503.491 301.264 503.491 301.888C503.491 303.696 507.539 303.12 507.539 305.872C507.523 307.376 506.323 308.32 504.819 308.32C503.539 308.32 502.531 307.808 501.795 306.896ZM511.913 308.224C510.329 308.224 509.257 307.344 509.257 305.968C509.257 304.752 510.185 303.888 511.897 303.6L514.617 303.152V302.592C514.617 301.472 513.817 300.832 512.665 300.832C511.737 300.832 510.985 301.264 510.489 301.952L509.465 301.168C510.169 300.208 511.305 299.616 512.713 299.616C514.761 299.616 515.977 300.816 515.977 302.592V308H514.617V306.976C514.009 307.76 512.953 308.224 511.913 308.224ZM510.633 305.92C510.633 306.608 511.193 307.104 512.137 307.104C513.209 307.104 514.089 306.592 514.617 305.728V304.144L512.233 304.544C511.129 304.736 510.633 305.232 510.633 305.92ZM519.17 305.296V301.168H517.65V299.936H519.17V297.92H520.546V299.936H523.346V301.168H520.546V305.296C520.546 306.56 521.186 306.912 522.162 306.912C522.69 306.912 523.058 306.848 523.362 306.72V307.936C522.978 308.096 522.546 308.16 521.97 308.16C520.178 308.16 519.17 307.264 519.17 305.296ZM526.112 297.84C525.584 297.84 525.152 297.408 525.152 296.88C525.152 296.368 525.584 295.936 526.112 295.936C526.64 295.936 527.056 296.368 527.056 296.88C527.056 297.408 526.64 297.84 526.112 297.84ZM525.424 308V299.936H526.784V308H525.424ZM533.339 299.616C535.931 299.616 537.707 301.616 537.707 303.968C537.707 306.32 535.931 308.32 533.339 308.32C530.731 308.32 528.971 306.32 528.971 303.968C528.971 301.616 530.731 299.616 533.339 299.616ZM533.355 307.04C535.035 307.04 536.267 305.632 536.267 303.968C536.267 302.288 535.035 300.896 533.355 300.896C531.627 300.896 530.395 302.288 530.395 303.968C530.395 305.648 531.627 307.04 533.355 307.04ZM539.893 308V299.936H541.253V300.848C541.909 300.128 542.741 299.616 543.941 299.616C545.749 299.616 547.093 300.832 547.093 303.12V308H545.733V303.168C545.733 301.728 544.917 300.896 543.669 300.896C542.501 300.896 541.765 301.568 541.253 302.416V308H539.893Z" fill="black"/>
<path d="M385.432 107L389.896 95.8H391.912L396.376 107H394.776L393.48 103.704H388.328L387.032 107H385.432ZM388.824 102.408H392.984L390.904 97.112L388.824 102.408ZM401.918 106.04C402.91 106.04 403.726 105.56 404.222 104.856L405.294 105.672C404.542 106.68 403.374 107.32 401.902 107.32C399.23 107.32 397.518 105.32 397.518 102.968C397.518 100.616 399.23 98.616 401.902 98.616C403.358 98.616 404.542 99.272 405.294 100.264L404.222 101.08C403.726 100.376 402.91 99.896 401.902 99.896C400.174 99.896 398.942 101.256 398.942 102.968C398.942 104.696 400.174 106.04 401.918 106.04ZM410.558 106.04C411.55 106.04 412.366 105.56 412.862 104.856L413.934 105.672C413.182 106.68 412.014 107.32 410.542 107.32C407.87 107.32 406.158 105.32 406.158 102.968C406.158 100.616 407.87 98.616 410.542 98.616C411.998 98.616 413.182 99.272 413.934 100.264L412.862 101.08C412.366 100.376 411.55 99.896 410.542 99.896C408.814 99.896 407.582 101.256 407.582 102.968C407.582 104.696 408.814 106.04 410.558 106.04ZM419.583 97.656H418.255L419.919 95H421.455L419.583 97.656ZM422.655 105.672C421.903 106.68 420.703 107.32 419.199 107.32C416.479 107.32 414.799 105.32 414.799 102.968C414.799 100.52 416.367 98.616 418.863 98.616C421.055 98.616 422.479 100.152 422.479 102.136C422.479 102.456 422.431 102.76 422.383 102.984H416.191C416.239 104.92 417.471 106.088 419.199 106.088C420.239 106.088 421.119 105.608 421.647 104.888L422.655 105.672ZM418.831 99.768C417.503 99.768 416.575 100.552 416.287 101.944H421.119C421.071 100.76 420.255 99.768 418.831 99.768ZM424.784 107V95H426.144V107H424.784ZM433.114 97.656H431.786L433.45 95H434.986L433.114 97.656ZM436.186 105.672C435.434 106.68 434.234 107.32 432.73 107.32C430.01 107.32 428.33 105.32 428.33 102.968C428.33 100.52 429.898 98.616 432.394 98.616C434.586 98.616 436.01 100.152 436.01 102.136C436.01 102.456 435.962 102.76 435.914 102.984H429.722C429.77 104.92 431.002 106.088 432.73 106.088C433.77 106.088 434.65 105.608 435.178 104.888L436.186 105.672ZM432.362 99.768C431.034 99.768 430.106 100.552 429.818 101.944H434.65C434.602 100.76 433.786 99.768 432.362 99.768ZM438.315 107V98.936H439.675V99.944C440.267 99.24 441.003 98.776 442.027 98.776C442.283 98.776 442.523 98.808 442.715 98.872V100.2C442.475 100.136 442.235 100.104 441.915 100.104C440.859 100.104 440.171 100.648 439.675 101.464V107H438.315ZM446.507 107.224C444.923 107.224 443.851 106.344 443.851 104.968C443.851 103.752 444.779 102.888 446.491 102.6L449.211 102.152V101.592C449.211 100.472 448.411 99.832 447.259 99.832C446.331 99.832 445.579 100.264 445.083 100.952L444.059 100.168C444.763 99.208 445.899 98.616 447.307 98.616C449.355 98.616 450.571 99.816 450.571 101.592V107H449.211V105.976C448.603 106.76 447.547 107.224 446.507 107.224ZM445.227 104.92C445.227 105.608 445.787 106.104 446.731 106.104C447.803 106.104 448.683 105.592 449.211 104.728V103.144L446.827 103.544C445.723 103.736 445.227 104.232 445.227 104.92ZM453.763 104.296V100.168H452.243V98.936H453.763V96.92H455.139V98.936H457.939V100.168H455.139V104.296C455.139 105.56 455.779 105.912 456.755 105.912C457.283 105.912 457.651 105.848 457.955 105.72V106.936C457.571 107.096 457.139 107.16 456.563 107.16C454.771 107.16 453.763 106.264 453.763 104.296ZM460.706 96.84C460.178 96.84 459.746 96.408 459.746 95.88C459.746 95.368 460.178 94.936 460.706 94.936C461.234 94.936 461.65 95.368 461.65 95.88C461.65 96.408 461.234 96.84 460.706 96.84ZM460.018 107V98.936H461.378V107H460.018ZM467.933 98.616C470.525 98.616 472.301 100.616 472.301 102.968C472.301 105.32 470.525 107.32 467.933 107.32C465.325 107.32 463.565 105.32 463.565 102.968C463.565 100.616 465.325 98.616 467.933 98.616ZM467.949 106.04C469.629 106.04 470.861 104.632 470.861 102.968C470.861 101.288 469.629 99.896 467.949 99.896C466.221 99.896 464.989 101.288 464.989 102.968C464.989 104.648 466.221 106.04 467.949 106.04ZM474.487 107V98.936H475.847V99.848C476.503 99.128 477.335 98.616 478.535 98.616C480.343 98.616 481.687 99.832 481.687 102.12V107H480.327V102.168C480.327 100.728 479.511 99.896 478.263 99.896C477.095 99.896 476.359 100.568 475.847 101.416V107H474.487Z" fill="black"/>
<path d="M140.704 81.912C142.208 81.912 143.44 81.176 144.192 80.088L145.392 81.016C144.368 82.408 142.72 83.32 140.704 83.32C137.2 83.32 134.816 80.6 134.816 77.4C134.816 74.2 137.2 71.48 140.704 71.48C142.72 71.48 144.368 72.408 145.392 73.784L144.192 74.712C143.44 73.624 142.208 72.888 140.704 72.888C138.176 72.888 136.368 74.904 136.368 77.4C136.368 79.896 138.176 81.912 140.704 81.912ZM151.073 74.616C153.665 74.616 155.441 76.616 155.441 78.968C155.441 81.32 153.665 83.32 151.073 83.32C148.465 83.32 146.705 81.32 146.705 78.968C146.705 76.616 148.465 74.616 151.073 74.616ZM151.089 82.04C152.769 82.04 154.001 80.632 154.001 78.968C154.001 77.288 152.769 75.896 151.089 75.896C149.361 75.896 148.129 77.288 148.129 78.968C148.129 80.648 149.361 82.04 151.089 82.04ZM157.628 83V74.936H158.988V75.848C159.644 75.128 160.476 74.616 161.676 74.616C163.484 74.616 164.828 75.832 164.828 78.12V83H163.468V78.168C163.468 76.728 162.652 75.896 161.404 75.896C160.236 75.896 159.5 76.568 158.988 77.416V83H157.628ZM166.701 81.896L167.661 81.08C168.221 81.784 168.893 82.184 169.709 82.184C170.605 82.184 171.117 81.64 171.117 80.936C171.117 79.128 167.085 79.768 167.085 76.92C167.085 75.656 168.157 74.616 169.709 74.616C170.861 74.616 171.853 75.16 172.413 75.944L171.469 76.744C171.037 76.136 170.429 75.752 169.725 75.752C168.861 75.752 168.397 76.264 168.397 76.888C168.397 78.696 172.445 78.12 172.445 80.872C172.429 82.376 171.229 83.32 169.725 83.32C168.445 83.32 167.437 82.808 166.701 81.896ZM175.185 80.296V76.168H173.665V74.936H175.185V72.92H176.561V74.936H179.361V76.168H176.561V80.296C176.561 81.56 177.201 81.912 178.177 81.912C178.705 81.912 179.073 81.848 179.377 81.72V82.936C178.993 83.096 178.561 83.16 177.985 83.16C176.193 83.16 175.185 82.264 175.185 80.296ZM181.44 83V74.936H182.8V75.944C183.392 75.24 184.128 74.776 185.152 74.776C185.408 74.776 185.648 74.808 185.84 74.872V76.2C185.6 76.136 185.36 76.104 185.04 76.104C183.984 76.104 183.296 76.648 182.8 77.464V83H181.44ZM193.54 79.544V74.936H194.9V79.496C194.9 81.912 193.508 83.32 191.316 83.32C189.14 83.32 187.748 81.912 187.748 79.496V74.936H189.108V79.544C189.108 81.128 189.956 82.04 191.332 82.04C192.676 82.04 193.54 81.128 193.54 79.544ZM201.293 82.04C202.285 82.04 203.101 81.56 203.597 80.856L204.669 81.672C203.917 82.68 202.749 83.32 201.277 83.32C198.605 83.32 196.893 81.32 196.893 78.968C196.893 76.616 198.605 74.616 201.277 74.616C202.733 74.616 203.917 75.272 204.669 76.264L203.597 77.08C203.101 76.376 202.285 75.896 201.277 75.896C199.549 75.896 198.317 77.256 198.317 78.968C198.317 80.696 199.549 82.04 201.293 82.04ZM206.967 80.296V76.168H205.447V74.936H206.967V72.92H208.343V74.936H211.143V76.168H208.343V80.296C208.343 81.56 208.983 81.912 209.959 81.912C210.487 81.912 210.855 81.848 211.159 81.72V82.936C210.775 83.096 210.343 83.16 209.766 83.16C207.975 83.16 206.967 82.264 206.967 80.296ZM213.909 72.84C213.381 72.84 212.949 72.408 212.949 71.88C212.949 71.368 213.381 70.936 213.909 70.936C214.437 70.936 214.853 71.368 214.853 71.88C214.853 72.408 214.437 72.84 213.909 72.84ZM213.221 83V74.936H214.581V83H213.221ZM221.136 74.616C223.728 74.616 225.504 76.616 225.504 78.968C225.504 81.32 223.728 83.32 221.136 83.32C218.528 83.32 216.768 81.32 216.768 78.968C216.768 76.616 218.528 74.616 221.136 74.616ZM221.152 82.04C222.832 82.04 224.064 80.632 224.064 78.968C224.064 77.288 222.832 75.896 221.152 75.896C219.424 75.896 218.192 77.288 218.192 78.968C218.192 80.648 219.424 82.04 221.152 82.04ZM227.69 83V74.936H229.05V75.848C229.706 75.128 230.538 74.616 231.738 74.616C233.546 74.616 234.89 75.832 234.89 78.12V83H233.53V78.168C233.53 76.728 232.714 75.896 231.466 75.896C230.298 75.896 229.562 76.568 229.05 77.416V83H227.69Z" fill="black"/>
<path d="M1.776 122V110.8H3.28V122H1.776ZM6.5025 122V113.936H7.8625V114.848C8.5185 114.128 9.3505 113.616 10.5505 113.616C12.3585 113.616 13.7025 114.832 13.7025 117.12V122H12.3425V117.168C12.3425 115.728 11.5265 114.896 10.2785 114.896C9.1105 114.896 8.3745 115.568 7.8625 116.416V122H6.5025ZM15.1459 113.936H16.6179L19.1939 120.576L21.7699 113.936H23.2419L20.0899 122H18.2979L15.1459 113.936ZM31.9518 120.672C31.1998 121.68 29.9998 122.32 28.4958 122.32C25.7758 122.32 24.0958 120.32 24.0958 117.968C24.0958 115.52 25.6638 113.616 28.1598 113.616C30.3518 113.616 31.7758 115.152 31.7758 117.136C31.7758 117.456 31.7278 117.76 31.6798 117.984H25.4878C25.5358 119.92 26.7678 121.088 28.4958 121.088C29.5358 121.088 30.4158 120.608 30.9438 119.888L31.9518 120.672ZM28.1278 114.768C26.7998 114.768 25.8718 115.552 25.5838 116.944H30.4158C30.3678 115.76 29.5518 114.768 28.1278 114.768ZM33.1541 120.896L34.1141 120.08C34.6741 120.784 35.3461 121.184 36.1621 121.184C37.0581 121.184 37.5701 120.64 37.5701 119.936C37.5701 118.128 33.5381 118.768 33.5381 115.92C33.5381 114.656 34.6101 113.616 36.1621 113.616C37.3141 113.616 38.3061 114.16 38.8661 114.944L37.9221 115.744C37.4901 115.136 36.8821 114.752 36.1781 114.752C35.3141 114.752 34.8501 115.264 34.8501 115.888C34.8501 117.696 38.8981 117.12 38.8981 119.872C38.8821 121.376 37.6821 122.32 36.1781 122.32C34.8981 122.32 33.8901 121.808 33.1541 120.896ZM41.6384 119.296V115.168H40.1184V113.936H41.6384V111.92H43.0144V113.936H45.8144V115.168H43.0144V119.296C43.0144 120.56 43.6544 120.912 44.6304 120.912C45.1584 120.912 45.5264 120.848 45.8304 120.72V121.936C45.4464 122.096 45.0144 122.16 44.4384 122.16C42.6464 122.16 41.6384 121.264 41.6384 119.296ZM48.5811 111.84C48.0531 111.84 47.6211 111.408 47.6211 110.88C47.6211 110.368 48.0531 109.936 48.5811 109.936C49.1091 109.936 49.5251 110.368 49.5251 110.88C49.5251 111.408 49.1091 111.84 48.5811 111.84ZM47.8931 122V113.936H49.2531V122H47.8931ZM51.1995 123.456C51.1995 122.64 51.5995 121.984 52.3995 121.424C52.0315 121.136 51.8395 120.704 51.8395 120.272C51.8395 119.632 52.1755 119.104 52.7995 118.704C52.0955 118.176 51.6795 117.36 51.6795 116.464C51.6795 114.912 52.8955 113.6 54.8155 113.6C55.4075 113.6 55.9355 113.728 56.3675 113.936H59.3595V115.12H57.6155C57.8395 115.52 57.9515 115.984 57.9515 116.464C57.9515 118 56.7515 119.312 54.8155 119.312C54.4155 119.312 54.0315 119.248 53.6955 119.152C53.3595 119.392 53.1675 119.68 53.1675 119.984C53.1675 120.32 53.3435 120.56 53.8395 120.56H56.1435C58.2715 120.56 59.2635 121.6 59.2635 123.04C59.2635 124.736 57.5675 126 55.1515 126C52.7675 126 51.1995 125.072 51.1995 123.456ZM54.8315 118.24C55.9995 118.24 56.6715 117.44 56.6715 116.464C56.6715 115.472 55.9995 114.672 54.8315 114.672C53.6315 114.672 52.9755 115.472 52.9755 116.464C52.9755 117.456 53.6315 118.24 54.8315 118.24ZM52.5275 123.296C52.5275 124.272 53.5355 124.864 55.1355 124.864C56.8315 124.864 57.9035 124.192 57.9035 123.136C57.9035 122.368 57.4715 121.76 56.0315 121.76H53.4235C52.8635 122.176 52.5275 122.656 52.5275 123.296ZM62.8195 122.224C61.2355 122.224 60.1635 121.344 60.1635 119.968C60.1635 118.752 61.0915 117.888 62.8035 117.6L65.5235 117.152V116.592C65.5235 115.472 64.7235 114.832 63.5715 114.832C62.6435 114.832 61.8915 115.264 61.3955 115.952L60.3715 115.168C61.0755 114.208 62.2115 113.616 63.6195 113.616C65.6675 113.616 66.8835 114.816 66.8835 116.592V122H65.5235V120.976C64.9155 121.76 63.8595 122.224 62.8195 122.224ZM61.5395 119.92C61.5395 120.608 62.0995 121.104 63.0435 121.104C64.1155 121.104 64.9955 120.592 65.5235 119.728V118.144L63.1395 118.544C62.0355 118.736 61.5395 119.232 61.5395 119.92ZM70.0759 119.296V115.168H68.5559V113.936H70.0759V111.92H71.4519V113.936H74.2519V115.168H71.4519V119.296C71.4519 120.56 72.0919 120.912 73.0679 120.912C73.5959 120.912 73.9639 120.848 74.2679 120.72V121.936C73.8839 122.096 73.4519 122.16 72.8759 122.16C71.0839 122.16 70.0759 121.264 70.0759 119.296ZM77.0186 111.84C76.4906 111.84 76.0586 111.408 76.0586 110.88C76.0586 110.368 76.4906 109.936 77.0186 109.936C77.5466 109.936 77.9626 110.368 77.9626 110.88C77.9626 111.408 77.5466 111.84 77.0186 111.84ZM76.3306 122V113.936H77.6906V122H76.3306ZM84.245 113.616C86.837 113.616 88.613 115.616 88.613 117.968C88.613 120.32 86.837 122.32 84.245 122.32C81.637 122.32 79.877 120.32 79.877 117.968C79.877 115.616 81.637 113.616 84.245 113.616ZM84.261 121.04C85.941 121.04 87.173 119.632 87.173 117.968C87.173 116.288 85.941 114.896 84.261 114.896C82.533 114.896 81.301 116.288 81.301 117.968C81.301 119.648 82.533 121.04 84.261 121.04ZM90.7994 122V113.936H92.1594V114.848C92.8154 114.128 93.6474 113.616 94.8474 113.616C96.6554 113.616 97.9994 114.832 97.9994 117.12V122H96.6394V117.168C96.6394 115.728 95.8234 114.896 94.5754 114.896C93.4074 114.896 92.6714 115.568 92.1594 116.416V122H90.7994Z" fill="black"/>
</svg>
