<svg width="485" height="440" viewBox="0 0 485 440" fill="none" xmlns="http://www.w3.org/2000/svg">
<path d="M48.2367 236.834C70.5135 310.529 124.273 372.641 190.352 400.919C233.529 419.412 282.753 423.46 325.125 405.083C367.497 386.707 401.705 343.893 406.475 293.842C407.95 278.357 406.665 262.402 401.524 247.667C392.535 221.964 372.775 202.494 352.535 186.097C302.152 145.243 244.817 116.206 184.106 100.838C102.313 80.2216 18.1573 137.265 48.2367 236.834Z" fill="#F0F0F0"/>
<path d="M126.644 173.972C125.585 188.59 128.002 200.814 135.452 213.724C146.414 232.697 161.386 245.164 183.011 250.829C189.981 252.636 194.778 251.958 201.694 249.925C208.609 247.893 220.196 243.086 222.667 235.723C225.138 228.36 222.586 224.096 217.444 218.874C215.136 216.534 212.303 213.977 208.944 213.453C199.892 212.071 190.234 218.169 186.215 226.327C179.435 240.078 179.77 254.714 184.875 268.916C188.768 279.757 195.738 290.029 204.789 297.203C210 301.11 216.222 303.449 222.721 303.943C233.059 304.494 240.327 302.289 249.488 297.962" stroke="#000091" stroke-width="2" stroke-linecap="round" stroke-dasharray="6 6"/>
<path d="M122.951 24L123.192 23.9318L122.948 23.0715L122.71 23.9336L122.951 24ZM122.951 24C123.192 23.9318 123.192 23.9323 123.192 23.9333L123.193 23.938L123.199 23.9564L123.22 24.0299L123.302 24.3199L123.622 25.4511C123.903 26.4419 124.314 27.895 124.837 29.7445C125.883 33.4434 127.376 38.7276 129.162 45.0687C132.734 57.7507 137.482 74.6602 142.181 91.5697C146.88 108.479 151.531 125.389 154.911 138.072C156.602 144.414 157.974 149.7 158.877 153.402C159.328 155.252 159.662 156.709 159.86 157.706C159.958 158.202 160.024 158.591 160.053 158.859C160.067 158.99 160.073 159.105 160.067 159.194C160.064 159.235 160.056 159.294 160.032 159.349C160.008 159.404 159.932 159.523 159.774 159.523H86.0828C85.9998 159.509 85.8869 159.43 85.8567 159.382C85.8451 159.355 85.8336 159.312 85.8312 159.294C85.828 159.265 85.83 159.239 85.831 159.228C85.8334 159.199 85.8388 159.165 85.845 159.131C85.8578 159.06 85.8795 158.958 85.909 158.829C85.9683 158.571 86.0619 158.189 86.1873 157.693C86.4383 156.701 86.8182 155.246 87.3084 153.397C88.2888 149.697 89.7116 144.412 91.4303 138.071C94.8677 125.389 99.4891 108.48 104.123 91.5706C108.757 74.6613 113.404 57.7521 116.892 45.0702C118.636 38.7292 120.091 33.4451 121.109 29.7462L122.292 25.4528L122.603 24.3216L122.683 24.0316L122.703 23.9582L122.708 23.9398L122.71 23.9351C122.71 23.9341 122.71 23.9336 122.951 24Z" fill="#744EC6" stroke="black" stroke-width="0.5"/>
<path d="M112.532 159.734C112.443 159.734 112.355 159.709 112.279 159.662C112.204 159.614 112.144 159.545 112.107 159.463L104.268 142.56C104.241 142.468 104.241 142.371 104.268 142.279C104.289 142.185 104.34 142.099 104.413 142.036L134.854 113.577L135.832 113.459C135.863 113.553 135.863 113.655 135.832 113.749C135.817 113.846 135.769 113.935 135.696 114.002L105.264 142.469L112.94 159.084C112.964 159.139 112.977 159.199 112.977 159.26C112.977 159.32 112.964 159.381 112.94 159.436C112.92 159.493 112.889 159.546 112.849 159.591C112.808 159.636 112.759 159.672 112.704 159.698C112.65 159.721 112.592 159.733 112.532 159.734V159.734Z" fill="black"/>
<path d="M135.379 118.347C136.309 118.349 137.218 118.075 137.992 117.561C138.766 117.047 139.369 116.315 139.726 115.459C140.083 114.602 140.177 113.659 139.997 112.749C139.817 111.839 139.37 111.003 138.714 110.346C138.057 109.689 137.22 109.242 136.308 109.06C135.397 108.878 134.452 108.971 133.593 109.325C132.734 109.68 132 110.281 131.483 111.052C130.966 111.824 130.691 112.73 130.691 113.658C130.691 114.9 131.184 116.091 132.063 116.971C132.942 117.85 134.135 118.345 135.379 118.347V118.347Z" fill="#FFB71A"/>
<path d="M135.388 118.808C134.189 118.816 133.024 118.408 132.092 117.654C131.16 116.9 130.519 115.846 130.28 114.673C130.04 113.5 130.216 112.28 130.777 111.222C131.339 110.164 132.251 109.333 133.358 108.871C134.465 108.41 135.698 108.347 136.847 108.692C137.996 109.038 138.988 109.771 139.656 110.766C140.323 111.761 140.623 112.957 140.505 114.148C140.388 115.34 139.859 116.454 139.009 117.299C138.534 117.779 137.968 118.16 137.344 118.419C136.715 118.678 136.041 118.81 135.361 118.808H135.388ZM135.388 109.457C134.553 109.454 133.735 109.7 133.04 110.164C132.345 110.627 131.804 111.287 131.487 112.059C131.163 112.83 131.076 113.68 131.238 114.5C131.399 115.32 131.802 116.074 132.394 116.665C132.986 117.256 133.742 117.658 134.563 117.819C135.385 117.98 136.236 117.894 137.009 117.57C137.782 117.252 138.443 116.712 138.909 116.019C139.374 115.326 139.623 114.511 139.625 113.676V113.676C139.626 113.121 139.517 112.571 139.305 112.058C139.092 111.545 138.78 111.079 138.386 110.687C137.992 110.295 137.525 109.984 137.01 109.773C136.496 109.562 135.945 109.455 135.388 109.457V109.457Z" fill="black"/>
<path d="M105.191 146.643C106.122 146.643 107.032 146.368 107.806 145.851C108.58 145.335 109.184 144.601 109.54 143.743C109.896 142.885 109.99 141.94 109.808 141.029C109.626 140.117 109.178 139.28 108.52 138.623C107.861 137.966 107.023 137.519 106.11 137.338C105.197 137.156 104.25 137.249 103.39 137.605C102.53 137.96 101.795 138.563 101.278 139.335C100.76 140.108 100.484 141.016 100.484 141.945C100.483 142.562 100.604 143.174 100.84 143.744C101.076 144.315 101.423 144.833 101.86 145.27C102.298 145.706 102.817 146.052 103.389 146.288C103.96 146.524 104.573 146.644 105.191 146.643Z" fill="#7474C1"/>
<path d="M104.684 147.501C103.666 147.5 102.671 147.198 101.824 146.634C100.977 146.07 100.315 145.268 99.9231 144.33C99.5357 143.39 99.4356 142.357 99.6354 141.36C99.8353 140.364 100.326 139.448 101.046 138.73C101.766 138.011 102.683 137.521 103.682 137.321C104.681 137.122 105.716 137.222 106.658 137.609C107.601 137.995 108.409 138.652 108.979 139.496C109.549 140.34 109.856 141.334 109.862 142.352V142.352C109.865 143.03 109.732 143.702 109.473 144.329C109.213 144.956 108.831 145.526 108.35 146.005C107.868 146.484 107.296 146.863 106.667 147.119C106.038 147.376 105.364 147.506 104.684 147.501V147.501ZM104.684 138.142C103.847 138.144 103.028 138.392 102.331 138.855C101.813 139.204 101.378 139.662 101.058 140.197C100.738 140.733 100.541 141.332 100.479 141.952C100.418 142.573 100.494 143.199 100.703 143.787C100.912 144.374 101.249 144.908 101.688 145.351C102.283 145.941 103.039 146.343 103.861 146.508C104.477 146.632 105.113 146.619 105.723 146.467C106.334 146.316 106.902 146.031 107.389 145.633C107.875 145.235 108.266 144.734 108.534 144.167C108.802 143.599 108.941 142.979 108.939 142.352C108.942 141.796 108.834 141.245 108.621 140.732C108.408 140.218 108.094 139.752 107.699 139.361C106.906 138.571 105.832 138.127 104.712 138.124L104.684 138.142Z" fill="#1E1E1E"/>
<path d="M135.379 111.806C135.259 111.806 135.143 111.761 135.054 111.68C134.97 111.591 134.922 111.476 134.918 111.354V90.6564C134.918 90.5342 134.966 90.417 135.053 90.3306C135.14 90.2442 135.257 90.1957 135.379 90.1957C135.502 90.196 135.619 90.2447 135.705 90.3312C135.792 90.4174 135.841 90.5344 135.841 90.6564V111.354C135.841 111.415 135.829 111.474 135.806 111.529C135.782 111.585 135.748 111.635 135.705 111.677C135.662 111.719 135.611 111.752 135.555 111.774C135.499 111.797 135.44 111.807 135.379 111.806V111.806Z" fill="#FFB71A"/>
<path d="M122.978 97.6853C127.133 99.0946 131.252 96.303 135.379 97.6853V90.6564C131.234 89.2471 127.115 92.0387 122.978 90.6564V97.6853Z" fill="#FFB71A"/>
<path d="M123.192 23.9322L122.948 23.0687L122.71 23.9336L112.291 61.761L112.272 61.8329L112.294 61.9038L116.395 74.6696L116.585 75.2616L116.858 74.7027L120.634 66.9585L125.94 74.734L126.216 75.1391L126.382 74.6774L130.456 63.31L135.173 68.1631L135.593 67.9211L123.192 23.9322Z" fill="#EEEAF9" stroke="black" stroke-width="0.5"/>
<path d="M307.9 132.188L308.14 132.12L307.896 131.26L307.659 132.121L307.9 132.188ZM307.9 132.188C308.14 132.12 308.14 132.121 308.141 132.122L308.143 132.13L308.152 132.162L308.188 132.289L308.33 132.79L308.883 134.742C309.368 136.453 310.078 138.961 310.981 142.154C312.786 148.539 315.363 157.661 318.446 168.607C324.613 190.499 332.809 219.688 340.921 248.878C349.033 278.068 357.063 307.258 362.899 329.151C365.817 340.098 368.186 349.221 369.744 355.609C370.523 358.802 371.099 361.315 371.44 363.031C371.61 363.888 371.722 364.552 371.771 365.006C371.795 365.23 371.805 365.416 371.795 365.551C371.79 365.616 371.779 365.692 371.75 365.76C371.721 365.827 371.638 365.952 371.471 365.952H244.256C244.179 365.941 244.069 365.87 244.035 365.824C244.021 365.796 244.006 365.749 244.002 365.728C243.997 365.694 243.999 365.662 244 365.644C244.003 365.602 244.01 365.549 244.02 365.491C244.04 365.372 244.076 365.199 244.126 364.978C244.226 364.533 244.385 363.874 244.6 363.019C245.029 361.307 245.682 358.797 246.525 355.605C248.213 349.219 250.665 340.096 253.63 329.15C259.561 307.258 267.541 278.068 275.545 248.879C283.549 219.69 291.577 190.5 297.605 168.608C300.619 157.662 303.132 148.54 304.892 142.155C305.772 138.963 306.464 136.454 306.935 134.744L307.474 132.791L307.612 132.291L307.647 132.164L307.656 132.132L307.658 132.124C307.658 132.122 307.659 132.121 307.9 132.188Z" fill="#564577" stroke="black" stroke-width="0.5"/>
<path d="M308.14 132.12L307.897 131.256L307.659 132.122L289.682 197.396L289.662 197.468L289.685 197.539L296.745 219.483L296.936 220.075L297.208 219.516L303.863 205.863L313.224 219.548L313.501 219.952L313.666 219.491L320.772 199.668L329.119 208.297L329.539 208.055L308.14 132.12Z" fill="#EEEAF9" stroke="black" stroke-width="0.5"/>
<path d="M299.961 365.567C299.813 365.566 299.668 365.522 299.545 365.44C299.422 365.365 299.325 365.255 299.264 365.124L278.762 318.922C278.694 318.775 278.675 318.61 278.707 318.452C278.736 318.295 278.816 318.153 278.934 318.045L329.317 270.912L298.024 210.011C297.943 209.865 297.914 209.696 297.943 209.532L308.895 144.484C308.91 144.383 308.944 144.286 308.997 144.199C309.05 144.112 309.12 144.037 309.203 143.978C309.371 143.858 309.579 143.809 309.783 143.842C309.882 143.859 309.978 143.896 310.063 143.95C310.149 144.005 310.223 144.075 310.28 144.159C310.342 144.239 310.386 144.331 310.409 144.429C310.433 144.527 310.435 144.629 310.416 144.728L299.554 209.541L330.982 270.723C331.055 270.868 331.08 271.032 331.055 271.192C331.028 271.355 330.948 271.504 330.828 271.617L280.472 318.768L300.731 364.492C300.771 364.583 300.792 364.681 300.792 364.781C300.792 364.88 300.771 364.979 300.731 365.07C300.663 365.26 300.523 365.416 300.341 365.503C300.224 365.55 300.097 365.572 299.97 365.567H299.961Z" fill="black"/>
<path d="M330.231 278.772C331.767 278.772 333.268 278.318 334.546 277.466C335.823 276.614 336.818 275.404 337.406 273.987C337.994 272.571 338.148 271.012 337.848 269.509C337.548 268.005 336.809 266.624 335.723 265.54C334.636 264.456 333.253 263.717 331.746 263.418C330.239 263.119 328.678 263.273 327.259 263.859C325.839 264.446 324.627 265.44 323.773 266.714C322.92 267.989 322.464 269.488 322.464 271.021C322.464 273.077 323.282 275.048 324.739 276.502C326.196 277.956 328.171 278.772 330.231 278.772Z" fill="#7474C1"/>
<path d="M330.24 279.585C328.406 279.589 326.619 279.003 325.144 277.915C323.669 276.827 322.584 275.294 322.049 273.543C321.515 271.792 321.559 269.915 322.175 268.191C322.792 266.467 323.948 264.986 325.472 263.968C326.997 262.95 328.809 262.449 330.641 262.539C332.473 262.628 334.227 263.304 335.645 264.465C337.063 265.627 338.068 267.213 338.513 268.989C338.958 270.765 338.818 272.637 338.115 274.327C337.475 275.886 336.383 277.218 334.981 278.155C333.578 279.091 331.927 279.589 330.24 279.585V279.585ZM330.24 264.091C329.201 264.086 328.175 264.312 327.234 264.751C326.294 265.191 325.463 265.834 324.802 266.633C324.141 267.432 323.666 268.368 323.412 269.373C323.158 270.378 323.131 271.427 323.333 272.444C323.535 273.461 323.961 274.42 324.58 275.252C325.199 276.084 325.996 276.769 326.912 277.256C327.829 277.743 328.842 278.021 329.88 278.069C330.917 278.117 331.952 277.935 332.91 277.535C334.195 277.011 335.293 276.114 336.06 274.96C336.825 273.811 337.234 272.463 337.237 271.084V271.084C337.241 270.154 337.06 269.233 336.703 268.374C336.348 267.527 335.831 266.757 335.182 266.106C334.536 265.454 333.763 264.941 332.91 264.597C332.062 264.254 331.155 264.082 330.24 264.091V264.091Z" fill="black"/>
<path d="M280.291 325.679C281.833 325.681 283.341 325.227 284.624 324.373C285.907 323.519 286.907 322.305 287.498 320.884C288.09 319.463 288.245 317.898 287.946 316.389C287.646 314.879 286.904 313.492 285.815 312.404C284.725 311.315 283.336 310.573 281.824 310.272C280.312 309.971 278.745 310.125 277.32 310.713C275.895 311.302 274.678 312.299 273.821 313.578C272.964 314.858 272.507 316.362 272.507 317.901C272.507 319.962 273.327 321.939 274.786 323.398C276.246 324.856 278.226 325.677 280.291 325.679V325.679Z" fill="#7474C1"/>
<path d="M279.459 327.116C277.77 327.114 276.12 326.614 274.715 325.679C273.312 324.744 272.218 323.413 271.573 321.856C270.929 320.299 270.762 318.586 271.095 316.934C271.507 314.861 272.677 313.015 274.378 311.755C276.078 310.496 278.188 309.913 280.295 310.12C282.403 310.328 284.358 311.311 285.779 312.877C287.201 314.444 287.987 316.483 287.986 318.596V318.596C287.983 320.854 287.084 323.018 285.486 324.615C283.888 326.212 281.72 327.111 279.459 327.116V327.116ZM279.459 311.613C277.835 311.609 276.26 312.167 275.002 313.192C273.745 314.217 272.883 315.646 272.563 317.235C272.243 318.824 272.485 320.474 273.248 321.905C274.011 323.336 275.248 324.458 276.747 325.08C278.247 325.702 279.916 325.786 281.47 325.317C283.024 324.848 284.368 323.855 285.271 322.508C286.174 321.161 286.581 319.543 286.422 317.931C286.263 316.318 285.549 314.81 284.401 313.664C283.091 312.353 281.313 311.616 279.459 311.613V311.613Z" fill="black"/>
<path d="M298.685 217.41C300.221 217.41 301.723 216.956 303 216.104C304.277 215.252 305.272 214.041 305.86 212.625C306.448 211.209 306.602 209.65 306.302 208.146C306.003 206.643 305.263 205.262 304.177 204.177C303.09 203.093 301.707 202.355 300.2 202.056C298.694 201.757 297.132 201.91 295.713 202.497C294.294 203.084 293.081 204.077 292.227 205.352C291.374 206.627 290.918 208.126 290.918 209.659C290.918 211.714 291.737 213.686 293.193 215.14C294.65 216.594 296.625 217.41 298.685 217.41Z" fill="#7474C1"/>
<path d="M298.685 218.178C297.424 218.175 296.179 217.894 295.04 217.354C293.901 216.815 292.895 216.03 292.096 215.057C291.296 214.084 290.723 212.946 290.416 211.725C290.109 210.504 290.076 209.231 290.321 207.996C290.733 205.923 291.903 204.077 293.604 202.817C295.305 201.558 297.414 200.975 299.522 201.183C301.629 201.39 303.584 202.373 305.005 203.94C306.427 205.506 307.213 207.545 307.212 209.659C307.213 210.777 306.993 211.885 306.565 212.918C306.137 213.952 305.509 214.891 304.718 215.682C303.926 216.474 302.985 217.101 301.95 217.529C300.915 217.958 299.805 218.178 298.685 218.178V218.178ZM298.685 202.666C297.3 202.667 295.947 203.078 294.797 203.846C293.646 204.615 292.75 205.707 292.222 206.984C291.651 208.367 291.541 209.897 291.908 211.347C292.274 212.797 293.098 214.091 294.258 215.038C295.418 215.986 296.852 216.536 298.349 216.607C299.845 216.679 301.326 216.268 302.571 215.436C303.816 214.604 304.76 213.395 305.264 211.986C305.768 210.578 305.805 209.045 305.37 207.614C304.934 206.183 304.049 204.929 302.846 204.038C301.642 203.147 300.183 202.666 298.685 202.666V202.666Z" fill="black"/>
<path d="M317.603 145.062C317.849 143.545 317.638 141.989 316.997 140.592C316.357 139.195 315.315 138.018 314.005 137.211C312.695 136.405 311.174 136.004 309.635 136.06C308.097 136.115 306.609 136.625 305.361 137.525C304.113 138.425 303.16 139.674 302.623 141.114C302.085 142.554 301.988 144.121 302.343 145.616C302.698 147.111 303.49 148.468 304.617 149.514C305.745 150.561 307.158 151.25 308.678 151.495C310.716 151.82 312.8 151.326 314.473 150.12C316.147 148.914 317.272 147.095 317.603 145.062V145.062Z" fill="#FFB71A"/>
<path d="M309.629 153.103C308.368 153.103 307.122 152.824 305.982 152.286C304.842 151.748 303.836 150.964 303.036 149.991C302.236 149.018 301.662 147.88 301.356 146.659C301.049 145.438 301.018 144.164 301.265 142.93C301.511 141.697 302.027 140.534 302.777 139.524C303.527 138.514 304.492 137.682 305.602 137.088C306.713 136.495 307.941 136.154 309.199 136.091C310.457 136.028 311.714 136.244 312.878 136.723C314.438 137.367 315.771 138.458 316.707 139.859C317.644 141.261 318.142 142.908 318.137 144.592C318.137 145.71 317.917 146.817 317.488 147.849C317.06 148.882 316.432 149.82 315.64 150.61C314.848 151.4 313.908 152.027 312.874 152.455C311.839 152.883 310.73 153.103 309.611 153.103H309.629ZM309.629 137.609C307.891 137.612 306.217 138.26 304.931 139.427C303.645 140.593 302.84 142.194 302.671 143.92C302.501 145.646 302.981 147.373 304.016 148.766C305.05 150.159 306.567 151.119 308.271 151.459C309.231 151.65 310.22 151.638 311.175 151.425C312.13 151.211 313.03 150.8 313.816 150.218C314.603 149.636 315.258 148.897 315.74 148.046C316.223 147.196 316.521 146.255 316.616 145.282C316.712 144.31 316.602 143.329 316.294 142.401C315.986 141.474 315.487 140.621 314.828 139.898C314.17 139.175 313.367 138.598 312.471 138.204C311.576 137.809 310.608 137.607 309.629 137.609V137.609Z" fill="black"/>
<path d="M309.611 144.637C309.51 144.638 309.409 144.618 309.316 144.579C309.223 144.54 309.138 144.483 309.067 144.412C308.996 144.342 308.939 144.26 308.9 144.168C308.861 144.076 308.841 143.978 308.841 143.879V109.611C308.841 109.511 308.861 109.413 308.9 109.321C308.939 109.23 308.996 109.147 309.067 109.078C309.138 109.006 309.223 108.949 309.316 108.91C309.409 108.871 309.51 108.852 309.611 108.852C309.811 108.854 310.004 108.935 310.146 109.077C310.288 109.219 310.369 109.41 310.371 109.611V143.879C310.369 144.079 310.288 144.271 310.146 144.413C310.004 144.554 309.811 144.635 309.611 144.637V144.637Z" fill="#FFB71A"/>
<path d="M289.081 121.256C295.951 123.587 302.767 118.971 309.611 121.256V109.611C302.74 107.28 295.933 111.897 289.081 109.611V121.256Z" fill="#FFB71A"/>
</svg>
