<svg width="288" height="288" viewBox="0 0 288 288" fill="none" xmlns="http://www.w3.org/2000/svg">
<path fill-rule="evenodd" clip-rule="evenodd" d="M201.6 277.2C199.615 277.2 198 275.585 198 273.6C198 271.615 199.615 270 201.6 270C203.585 270 205.2 271.615 205.2 273.6C205.2 275.585 203.585 277.2 201.6 277.2Z" fill="#CACAFB"/>
<path fill-rule="evenodd" clip-rule="evenodd" d="M28.8002 234C26.8152 234 25.2002 232.385 25.2002 230.4C25.2002 228.415 26.8152 226.8 28.8002 226.8C30.7852 226.8 32.4002 228.415 32.4002 230.4C32.4002 232.385 30.7852 234 28.8002 234Z" fill="#CACAFB"/>
<path fill-rule="evenodd" clip-rule="evenodd" d="M273.6 208.8C271.615 208.8 270 207.185 270 205.2C270 203.215 271.615 201.6 273.6 201.6C275.585 201.6 277.2 203.215 277.2 205.2C277.2 207.185 275.585 208.8 273.6 208.8Z" fill="#CACAFB"/>
<path fill-rule="evenodd" clip-rule="evenodd" d="M234 36.0003C232.015 36.0003 230.4 34.3853 230.4 32.4003C230.4 30.4151 232.015 28.8003 234 28.8003C235.985 28.8003 237.6 30.4151 237.6 32.4003C237.6 34.3853 235.985 36.0003 234 36.0003Z" fill="#CACAFB"/>
<path fill-rule="evenodd" clip-rule="evenodd" d="M86.4003 14.4002C84.4153 14.4002 82.8003 12.7852 82.8003 10.8002C82.8003 8.81499 84.4153 7.2002 86.4003 7.2002C88.3853 7.2002 90.0003 8.81499 90.0003 10.8002C90.0003 12.7852 88.3853 14.4002 86.4003 14.4002Z" fill="#CACAFB"/>
<path d="M133.546 56.4512C135.047 60.55 133.669 65.363 130.954 67.6413C129.797 68.6115 128.777 69.1845 127.042 69.7121L125.908 70.026C125.702 70.0784 125.488 70.131 125.264 70.1842L123.796 70.5134L116.872 71.9292L116.002 72.1145L116.487 72.3686L117.371 72.8479L119.057 73.7966C120.779 74.7907 121.369 76.9925 120.374 78.7143C119.38 80.4362 117.179 81.0261 115.457 80.032L114.688 79.5939L113.082 78.7125L107.561 75.8248L105.091 74.5085C104.683 74.288 104.275 74.0657 103.863 73.8399L101.327 72.43L98.5675 70.8545C96.8456 69.8604 96.2557 67.6587 97.2498 65.9368C98.2439 64.2149 100.446 63.625 102.168 64.6191L104.856 66.1537C105.281 66.3936 105.697 66.6267 106.107 66.8547L106.593 67.1209C106.957 66.8653 107.376 66.6735 107.836 66.5654L109.804 66.1087L113.562 65.2726L116.331 64.6871L122.025 63.5292L123.633 63.1724L124.431 62.9695L125.052 62.7835C125.142 62.7533 125.227 62.7235 125.306 62.6938L125.725 62.5149L126.053 62.3288L126.326 62.1258C126.757 61.7641 127.225 60.1284 126.785 58.9263C126.044 56.9028 123.12 55.1665 116.957 54.4704L104.777 53.22L98.0648 52.5555L90.5804 51.8459L82.9296 51.1718L79.4771 50.8974L78.9175 50.9067L78.4992 50.9484L77.7875 51.0703L77.2474 51.1946L76.6473 51.356L75.6201 51.6728L73.9795 52.2471L71.9812 53.0123L69.5733 53.9873L65.0794 55.8843L56.9014 59.4355L56.5126 59.5706L56.2488 59.6348L55.9724 59.675C55.9249 59.6796 55.8765 59.683 55.8271 59.6853L55.5173 59.6842L55.1755 59.6519L54.794 59.5857L54.3651 59.4827L53.616 59.253L53.0347 59.0455L52.0208 58.6457L51.2388 58.3159L49.3858 57.4918L46.4475 56.1238L38.0391 52.0924C36.2481 51.229 35.4962 49.0772 36.3596 47.2862C37.2231 45.4953 39.3749 44.7434 41.1658 45.6068L47.4759 48.6176L50.0369 49.8131L52.8337 51.0852L54.5307 51.8243L55.4668 52.2037L62.7396 49.0454L66.8347 47.3108L68.9066 46.4631L71.2799 45.5386L72.3193 45.1582L73.7185 44.6819L74.9518 44.3105L75.6961 44.1165L76.3883 43.9621L77.0369 43.8444L77.6506 43.7608L78.2381 43.7083C78.3343 43.702 78.4297 43.6968 78.5246 43.6928L79.3686 43.6855L80.205 43.729L84.6969 44.0952L92.637 44.8055L102.017 45.7088L114.776 47.006L116.758 47.2127C125.989 48.0612 131.655 51.2848 133.546 56.4512Z" fill="#E1000F"/>
<path d="M92.8546 129.773C94.5092 130.488 96.4735 129.865 97.3966 128.267C98.3907 126.545 97.8008 124.343 96.0789 123.349L85.5 117.241L85.1243 117.052C83.4698 116.337 81.5054 116.96 80.5823 118.559C79.5882 120.281 80.1781 122.482 81.9 123.477L92.4789 129.584L92.8546 129.773Z" fill="#E1000F"/>
<path d="M73.7457 137.694C72.8226 139.293 70.8583 139.916 69.2037 139.201L68.828 139.012L52.7149 129.709C52.1704 129.395 51.4304 128.665 50.5526 127.604L49.7678 126.616C49.6318 126.438 49.4933 126.254 49.3526 126.064L48.4816 124.854L47.5633 123.51L46.6057 122.045L45.6169 120.47C45.45 120.199 45.2821 119.923 45.1133 119.645L44.0928 117.926L43.0613 116.128L42.0267 114.26C41.8545 113.943 41.6825 113.625 41.5108 113.304L40.4869 111.354C40.3175 111.026 40.1488 110.695 39.9809 110.364L38.9858 108.359L38.0199 106.332L37.0914 104.294L36.2083 102.257C35.9223 101.579 35.6453 100.904 35.3786 100.232L34.9331 99.0843L31.4871 96.4667L24.2348 91.0417L22.9221 90.0267L22.1757 89.4174L21.8518 89.1258L21.5351 88.8126L21.4188 88.6613L21.1543 88.1963L20.8383 87.5988C20.1762 85.724 21.1593 83.6675 23.0341 83.0055C24.332 82.5472 25.717 82.8773 26.6661 83.746L26.8887 83.9728L27.8948 84.775L38.4654 92.7138L39.612 93.6105L40.2045 94.108L40.6661 94.5506L40.7809 94.6975L40.9358 94.954L41.3623 95.7321C43.9496 102.718 47.4173 109.612 51.2261 115.801L51.8423 116.791L53.0511 118.667C53.6445 119.567 54.2183 120.405 54.7588 121.164L55.6472 122.38L56.2792 123.197L56.5946 123.586C56.61 123.613 56.594 123.623 56.4733 123.561L72.428 132.777C74.1499 133.771 74.7398 135.972 73.7457 137.694Z" fill="#E1000F"/>
<path d="M82.8 144C84.7882 144 86.4 142.388 86.4 140.4C86.4 138.412 84.7882 136.8 82.8 136.8C80.8118 136.8 79.2 138.412 79.2 140.4C79.2 142.388 80.8118 144 82.8 144Z" fill="#E1000F"/>
<path d="M195.906 153.582C194.912 151.86 195.502 149.658 197.224 148.664L197.988 148.217L199.554 147.267L206.007 143.182C206.402 142.936 206.795 142.692 207.19 142.449L209.605 140.982L212.204 139.446C212.66 139.18 213.13 138.907 213.617 138.626C215.339 137.632 217.54 138.222 218.534 139.944C219.529 141.666 218.939 143.867 217.217 144.861L214.544 146.422L213.146 147.259C213.123 147.375 213.095 147.491 213.06 147.606C212.663 148.923 212.276 150.179 211.892 151.401L210.739 154.992L208.407 161.993L208.1 162.983L207.876 163.776L207.727 164.407L207.704 164.521C207.695 164.573 207.686 164.623 207.678 164.672L207.623 165.125L207.62 165.502L207.66 165.839C207.757 166.393 208.94 167.617 210.201 167.837C212.324 168.207 215.289 166.543 218.974 161.553L227.166 150.212L233.613 141.184L237.474 135.701L240.115 131.896C240.319 131.6 240.518 131.31 240.713 131.025C241.289 130.186 241.859 128.826 242.413 126.963L242.78 125.647L243.141 124.183L243.496 122.572L243.843 120.816L244.183 118.916L244.513 116.872L244.834 114.687C244.887 114.311 244.939 113.929 244.991 113.542L245.296 111.146L245.589 108.611C245.605 108.472 245.622 108.339 245.644 108.21L245.729 107.831L245.813 107.582L245.996 107.199L246.165 106.929L246.379 106.641L246.798 106.163L247.151 105.806L247.808 105.198L248.953 104.223L251.35 102.32L256.076 98.7245L260.986 95.0386C262.577 93.8461 264.833 94.1691 266.026 95.76C267.218 97.3509 266.895 99.6073 265.304 100.8L258.859 105.675L255.487 108.287L253.911 109.544L252.609 110.63L252.243 113.631C252.184 114.086 252.125 114.536 252.065 114.978L251.698 117.551C250.445 125.859 248.908 131.487 246.939 134.656L246.652 135.096L244.089 138.803L241.131 143.022L235.954 150.311L227.674 161.816L225.358 165.01C220.008 172.58 214.384 175.875 208.964 174.929C204.664 174.18 201.184 170.58 200.569 167.089C200.281 165.454 200.326 164.202 200.867 162.117L201.212 160.89L201.661 159.454L203.774 153.117L203.346 153.388L201.654 154.414C201.378 154.577 201.102 154.739 200.824 154.899C199.102 155.893 196.901 155.303 195.906 153.582Z" fill="#E1000F"/>
<path d="M231.578 71.378L222.422 75.4176L220.68 76.141L219.974 76.3965C219.326 76.6043 219.001 76.6875 218.418 76.626L218.032 76.5717C210.709 75.3326 203.033 74.8964 195.8 75.1024L194.64 75.1413L192.42 75.2502L190.368 75.3958C190.042 75.4228 189.725 75.4511 189.418 75.4805L187.928 75.6415L186.909 75.7799L186.419 75.8582C186.388 75.8575 186.389 75.8389 186.503 75.7652L163.8 88.8684C162.078 89.8625 159.876 89.2726 158.882 87.5507C157.959 85.9518 158.402 83.9392 159.848 82.8639L160.2 82.633L183.057 69.4363C183.772 69.0237 185.277 68.677 187.342 68.4146L188.799 68.2524C189.055 68.2275 189.317 68.2037 189.585 68.1811L191.263 68.0587L193.07 67.9644L194.989 67.8995C195.317 67.8912 195.65 67.8842 195.986 67.8784L198.047 67.8598L200.182 67.8735L202.378 67.9209L204.619 68.0032L206.889 68.1215L209.174 68.2772L211.459 68.4714L213.728 68.7054C214.856 68.8325 215.973 68.9751 217.069 69.1337L218.333 69.3269L219.113 69.002L229.065 64.621L230.038 64.21L230.798 63.9046L231.292 63.722L231.508 63.6505C232.297 63.4014 232.622 63.3313 233.491 63.493C235.445 63.8571 236.735 65.7367 236.371 67.6913C236.007 69.6459 234.127 70.9353 232.173 70.5713C232.415 70.6165 232.566 70.6601 232.669 70.6955L232.869 70.7711C232.938 70.7901 232.99 70.7763 233.169 70.7075L231.578 71.378Z" fill="#E1000F"/>
<path d="M176.4 100.8C178.388 100.8 180 99.1882 180 97.2C180 95.2118 178.388 93.6 176.4 93.6C174.412 93.6 172.8 95.2118 172.8 97.2C172.8 99.1882 174.412 100.8 176.4 100.8Z" fill="#E1000F"/>
<path d="M151.181 98.3086C150.823 91.6713 145.327 86.3999 138.6 86.3999C131.641 86.3999 126 92.0411 126 98.9999V105.612C124.363 104.835 122.533 104.4 120.6 104.4C113.641 104.4 108 110.041 108 117V170.586L105.81 168.015L101.411 162.764L99.1751 160.138L97.8246 158.61L97.0506 157.775L96.3595 157.069C96.2503 156.962 96.144 156.859 96.0401 156.761L95.4443 156.223C95.1587 155.979 94.8896 155.771 94.6284 155.589L94.1136 155.259C93.8589 155.11 93.6061 154.983 93.3466 154.869L92.816 154.657C89.4854 153.445 84.6283 154.658 81.8289 158.007C78.3003 162.228 78.3415 168.747 82.222 177.165L87.5852 189.124L92.7955 200.557L95.5529 206.49L97.4816 210.563L97.7352 211.064C98.9588 213.364 101.233 216.106 104.589 219.356L106.214 220.893C107.349 221.941 108.587 223.039 109.929 224.188L112.02 225.949C112.743 226.549 113.492 227.162 114.267 227.789L115.198 228.537L115.199 241.201L115.227 241.652C115.449 243.427 116.963 244.801 118.799 244.801C120.787 244.801 122.399 243.189 122.399 241.201V225.056L119.995 223.154L117.076 220.785L115.286 219.288L113.621 217.857L112.082 216.494L110.669 215.199L109.383 213.975C108.976 213.579 108.589 213.194 108.224 212.822L107.194 211.74L106.291 210.732L105.518 209.799C104.809 208.903 104.294 208.12 103.977 207.456L102.565 204.482L99.9024 198.774L95.5238 189.203L88.4079 173.364C85.9291 167.678 85.971 164.278 87.353 162.625C88.174 161.643 89.8246 161.231 90.3534 161.423C90.4013 161.44 90.4622 161.475 90.537 161.528L90.8043 161.743L91.1613 162.076L92.1689 163.125L93.6082 164.734L95.5274 166.965L100.33 172.685L102.255 174.953L104.001 176.976L105.649 178.842L107.281 180.642L108.976 182.466C109.864 183.411 111.142 183.77 112.326 183.527C112.414 183.509 112.5 183.488 112.586 183.463C114.095 183.035 115.2 181.646 115.2 180V117L115.225 116.48C115.487 113.742 117.793 111.6 120.6 111.6C123.582 111.6 126 114.018 126 117V162L126.024 162.42C126.232 164.21 127.754 165.6 129.6 165.6C131.588 165.6 133.2 163.988 133.2 162V98.9999L133.225 98.4798C133.487 95.7415 135.793 93.5999 138.6 93.5999C141.582 93.5999 144 96.0176 144 98.9999V162L144.024 162.42C144.232 164.21 145.754 165.6 147.6 165.6C149.588 165.6 151.2 163.988 151.2 162V109.694L151.225 109.186C151.485 106.508 153.784 104.4 156.6 104.4C159.592 104.4 162 106.78 162 109.694V162L162.024 162.42C162.232 164.21 163.754 165.6 165.6 165.6C167.588 165.6 169.2 163.988 169.2 162V124.094L169.225 123.586C169.485 120.908 171.784 118.8 174.6 118.8C177.592 118.8 180 121.18 180 124.094V190.8L179.988 191.847C179.833 198.386 178.169 203.185 173.396 210.417C172.879 211.2 171.992 212.239 170.743 213.537L169.585 214.712L168.251 216.015L166.919 217.279L161.995 221.831L160.159 223.562L158.4 225.309V241.2L158.424 241.62C158.632 243.41 160.154 244.8 162 244.8L162.42 244.776C164.21 244.568 165.6 243.046 165.6 241.2V228.319L165.958 227.982L171.848 222.527L173.299 221.15L174.813 219.669C176.942 217.547 178.436 215.851 179.405 214.383C185.181 205.631 187.2 199.349 187.2 190.8V124.094L187.181 123.408C186.822 116.818 181.318 111.6 174.6 111.6C172.669 111.6 170.838 112.031 169.2 112.803V109.694L169.181 109.008C168.822 102.418 163.318 97.1999 156.6 97.1999C154.662 97.1999 152.826 97.6341 151.184 98.4101L151.181 98.3086Z" fill="#000091"/>
</svg>
