<?xml version="1.0" standalone="no"?>
<!DOCTYPE svg PUBLIC "-//W3C//DTD SVG 20010904//EN"
 "http://www.w3.org/TR/2001/REC-SVG-20010904/DTD/svg10.dtd">
<svg version="1.0" xmlns="http://www.w3.org/2000/svg"
 width="600.000000pt" height="600.000000pt" viewBox="0 0 600.000000 600.000000"
 preserveAspectRatio="xMidYMid meet">
<metadata>
Created by potrace 1.11, written by Peter Selinger 2001-2013
</metadata>
<g transform="translate(0.000000,600.000000) scale(0.100000,-0.100000)"
fill="#000000" stroke="none">
<path d="M0 3000 l0 -3000 478 0 477 0 -85 38 c-130 57 -190 95 -256 164 -118
123 -168 252 -168 433 0 124 20 234 66 365 33 94 146 327 182 375 31 42 136
215 136 225 0 5 4 10 8 12 5 2 40 53 80 113 39 61 79 121 89 135 10 14 77 113
149 220 182 272 312 463 322 476 5 5 22 30 38 55 16 24 31 46 35 49 25 22 169
252 163 261 -4 7 -3 9 3 6 7 -4 42 39 84 101 40 59 90 130 111 157 21 28 36
56 33 63 -3 7 0 10 5 7 5 -3 40 41 77 97 37 57 71 105 75 106 4 2 8 10 8 18 0
8 4 14 9 14 5 0 17 13 28 29 10 16 51 77 91 135 l73 106 -10 833 c-11 879 -13
913 -62 1072 -27 92 -79 196 -92 188 -6 -4 -7 -1 -2 6 5 9 -15 35 -56 77 l-63
64 -1013 0 -1013 0 0 -3000z"/>
<path d="M3989 5993 c-1 -5 -1 -11 0 -15 0 -4 -7 -4 -16 -1 -11 4 -14 3 -9 -5
4 -7 1 -12 -8 -12 -10 0 -13 -7 -11 -21 4 -18 2 -19 -13 -8 -9 7 -14 10 -10 5
4 -5 -3 -17 -15 -27 -12 -10 -16 -18 -9 -19 6 0 12 -5 12 -11 0 -5 -4 -7 -10
-4 -13 8 -13 -8 0 -21 6 -6 3 -10 -10 -11 -11 -1 -18 2 -15 8 4 5 3 9 -1 9
-12 0 -41 -40 -54 -73 -7 -17 -16 -41 -21 -52 -5 -11 -12 -29 -14 -40 -3 -11
-13 -51 -24 -90 -10 -40 -15 -74 -10 -79 5 -6 9 -15 9 -20 0 -6 -4 -5 -9 3 -7
10 -10 6 -14 -15 -7 -39 -7 -31 -12 -274 -11 -502 -11 -819 -2 -813 6 4 7 1 2
-6 -4 -7 -9 -151 -12 -319 l-4 -306 27 -54 c15 -29 39 -66 54 -82 15 -16 25
-31 23 -34 -8 -7 37 -61 50 -61 7 0 13 -10 15 -22 2 -13 10 -23 17 -23 9 0 12
-6 8 -17 -4 -11 -3 -14 5 -9 7 4 12 2 12 -4 0 -7 9 -23 20 -37 11 -14 20 -20
20 -12 0 8 6 5 15 -7 8 -10 14 -23 15 -29 0 -5 -5 -3 -10 5 -7 10 -10 11 -10
2 0 -7 14 -21 31 -31 18 -11 26 -22 20 -25 -6 -4 -11 -2 -11 3 0 6 -5 11 -11
11 -6 0 4 -18 21 -40 27 -35 35 -39 49 -28 13 10 14 10 4 -2 -18 -19 -16 -41
2 -34 8 4 15 1 15 -5 0 -6 -6 -11 -12 -11 -9 0 -8 -3 2 -10 8 -5 15 -13 15
-18 0 -19 73 -103 78 -90 4 8 6 7 6 -4 1 -10 6 -18 12 -18 6 0 9 -7 5 -15 -3
-8 -1 -15 3 -15 16 0 22 32 9 49 -10 13 -9 13 7 -1 17 -16 17 -18 2 -42 -9
-14 -13 -27 -8 -31 5 -3 12 1 15 7 4 7 4 3 2 -10 -2 -12 0 -20 5 -16 5 3 9 0
9 -6 0 -6 5 -8 12 -4 8 5 9 2 4 -11 -8 -21 18 -65 39 -65 7 0 17 -4 20 -10 4
-6 -1 -7 -12 -3 -16 6 -17 5 -3 -11 8 -10 19 -28 25 -40 13 -27 58 -36 48 -10
-4 11 -8 13 -11 6 -3 -9 -7 -8 -18 2 -16 17 -19 36 -4 36 6 0 10 -7 10 -16 0
-8 4 -13 9 -9 11 6 34 -29 25 -38 -3 -3 -1 -16 5 -29 l12 -23 -17 23 c-31 42
-33 22 -3 -23 17 -25 33 -45 36 -45 3 0 0 7 -7 14 -9 11 -9 19 0 33 11 17 11
17 6 0 -3 -11 -3 -24 1 -30 4 -7 8 -16 9 -22 0 -5 2 -16 2 -24 2 -11 5 -11 17
-1 13 11 15 9 13 -11 -2 -16 2 -23 10 -21 8 1 11 -2 6 -9 -4 -7 1 -18 11 -26
11 -7 15 -13 10 -13 -5 0 1 -7 13 -16 13 -9 19 -20 15 -27 -4 -7 0 -6 10 2 18
14 24 37 8 26 -5 -3 -12 -1 -15 4 -10 16 11 22 24 7 9 -12 8 -20 -5 -39 -15
-24 -15 -26 4 -32 13 -4 18 -11 14 -22 -5 -12 -3 -14 7 -8 10 6 12 4 7 -9 -6
-14 -3 -17 9 -12 12 5 15 2 10 -10 -8 -22 54 -116 70 -103 8 7 10 2 6 -17 -3
-19 -1 -25 7 -20 6 4 9 11 6 16 -3 4 3 7 12 6 10 -2 18 -9 18 -17 0 -8 -6 -13
-13 -11 -8 1 -12 -3 -9 -10 2 -7 9 -12 15 -11 6 2 9 -6 7 -17 -2 -12 12 -36
41 -67 24 -26 44 -54 44 -62 0 -8 6 -11 16 -7 12 5 15 2 10 -10 -7 -19 10 -53
41 -77 13 -10 21 -23 18 -28 -3 -5 4 -22 17 -39 16 -22 28 -30 43 -26 18 4 18
4 4 -7 -15 -11 -15 -15 -2 -32 14 -17 15 -18 9 -2 -4 12 -2 16 5 11 6 -3 9
-15 6 -25 -3 -11 -1 -19 4 -19 5 0 15 -15 23 -34 8 -18 20 -37 27 -42 9 -5 8
1 -3 19 -10 14 -18 30 -18 34 0 4 9 -5 19 -21 11 -16 17 -34 15 -41 -3 -7 2
-15 11 -19 9 -3 13 -10 10 -16 -3 -5 0 -7 7 -5 8 3 24 -9 37 -27 l22 -33 -25
28 c-14 15 -26 22 -26 15 0 -7 10 -24 23 -38 24 -26 27 -31 27 -52 0 -9 4 -8
10 2 9 13 11 13 20 0 5 -8 10 -19 10 -25 0 -5 -5 -3 -10 5 -5 8 -10 10 -10 4
0 -6 9 -23 20 -36 10 -14 17 -28 15 -32 -3 -3 -2 -4 2 -1 4 3 8 15 10 26 2 15
-1 20 -11 16 -10 -4 -13 -1 -9 9 10 27 34 -5 28 -37 -3 -16 0 -39 6 -50 10
-19 12 -20 29 -4 19 17 34 7 24 -18 -3 -8 2 -17 12 -21 16 -6 16 -8 -1 -26
-17 -19 -17 -21 9 -46 14 -15 26 -33 26 -40 0 -8 5 -14 10 -14 13 0 13 13 -1
27 -7 7 -6 12 5 16 8 3 18 1 22 -5 4 -6 3 -8 -3 -5 -12 7 -11 -58 0 -70 5 -4
12 -1 17 7 6 9 10 10 10 3 0 -6 -5 -15 -11 -18 -7 -5 -5 -11 4 -18 8 -7 18
-25 21 -40 4 -15 10 -25 15 -23 5 3 11 -8 15 -25 3 -17 10 -28 15 -25 5 3 7
-4 3 -16 -4 -17 -2 -20 13 -14 14 5 15 4 7 -6 -7 -10 -4 -27 12 -63 13 -27 25
-45 28 -40 3 6 3 4 2 -3 -4 -16 17 -63 26 -57 4 2 5 -6 3 -19 -3 -12 2 -39 10
-59 9 -20 19 -58 23 -84 3 -26 10 -53 15 -58 10 -14 10 -296 0 -310 -5 -5 -11
-26 -15 -45 -3 -19 -7 -39 -9 -45 -14 -37 -27 -64 -36 -69 -6 -4 -7 -14 -4
-23 5 -12 3 -14 -7 -8 -10 6 -12 4 -7 -9 4 -10 3 -15 -3 -11 -5 3 -14 -5 -21
-17 -6 -13 -23 -36 -38 -52 -14 -16 -20 -26 -13 -22 8 5 12 0 12 -16 0 -18 -2
-20 -10 -8 -6 10 -10 11 -10 3 0 -7 -9 -13 -19 -13 -14 0 -18 -5 -14 -18 6
-25 -23 -50 -40 -33 -9 10 -8 11 8 6 17 -6 18 -5 5 5 -13 10 -13 11 3 6 9 -3
17 -1 17 4 0 18 -16 18 -38 0 -21 -18 -21 -19 -5 -36 17 -17 17 -18 0 -11 -10
4 -23 7 -28 7 -6 0 -7 6 -3 13 4 6 -2 4 -13 -5 -11 -10 -26 -18 -34 -18 -12 0
-11 -2 1 -10 12 -8 9 -10 -12 -10 -45 0 -61 -10 -46 -28 11 -13 10 -14 -11 -7
-17 5 -21 4 -16 -5 6 -9 3 -9 -11 -2 -14 7 -28 6 -49 -4 -28 -13 -28 -13 -5
-11 14 1 28 7 32 12 5 6 8 6 8 -2 0 -9 104 -12 435 -13 l435 0 0 3000 0 3000
-1005 0 c-553 0 -1006 -3 -1006 -7z m-7 -50 c-6 -2 -9 -10 -6 -15 4 -7 2 -8
-5 -4 -13 9 -5 26 12 25 9 0 8 -2 -1 -6z m-32 -53 c0 -5 -7 -10 -15 -10 -8 0
-15 5 -15 10 0 6 7 10 15 10 8 0 15 -4 15 -10z m-100 -91 c0 -11 -4 -18 -10
-14 -5 3 -7 12 -3 20 7 21 13 19 13 -6z m-15 -28 c3 -5 2 -12 -3 -15 -5 -3 -9
1 -9 9 0 17 3 19 12 6z m-16 -84 c1 -5 -3 -5 -9 -2 -5 3 -10 16 -9 28 0 21 1
21 9 2 5 -11 9 -24 9 -28z m-36 -67 c-3 -12 -8 -19 -11 -16 -5 6 5 36 12 36 2
0 2 -9 -1 -20z m-56 -1847 c-3 -10 -5 -4 -5 12 0 17 2 24 5 18 2 -7 2 -21 0
-30z m83 -68 c0 -5 -5 -3 -10 5 -5 8 -10 20 -10 25 0 6 5 3 10 -5 5 -8 10 -19
10 -25z m4 -27 c-3 -5 -10 -5 -16 -2 -8 5 -9 1 -4 -11 5 -15 4 -16 -9 -5 -21
18 -19 26 9 26 14 0 22 -4 20 -8z m9 -25 c-5 -12 -3 -14 8 -8 8 5 11 4 6 0 -4
-5 -14 -10 -22 -11 -12 -2 -12 2 -5 17 13 23 22 25 13 2z m40 -64 c-6 -6 -9
-19 -6 -28 7 -17 5 -16 -17 13 -8 11 -10 17 -3 13 6 -4 14 -3 18 3 3 5 9 10
13 10 3 0 1 -5 -5 -11z m23 -19 c0 -12 -4 -16 -9 -11 -5 5 -6 14 -3 20 10 15
12 14 12 -9z m186 -232 c-7 -7 -12 -20 -12 -30 0 -10 -4 -18 -8 -18 -15 0 -8
45 8 52 23 10 25 9 12 -4z m58 -108 c0 -5 -4 -10 -9 -10 -6 0 -13 5 -16 10 -3
6 1 10 9 10 9 0 16 -4 16 -10z m27 -22 c-3 -7 -5 -2 -5 12 0 14 2 19 5 13 2
-7 2 -19 0 -25z m-41 -7 c-3 -4 6 -19 19 -31 14 -13 25 -27 25 -32 0 -5 -13 6
-29 24 -25 29 -31 48 -15 48 3 0 3 -4 0 -9z m164 -221 c0 -5 -5 -10 -11 -10
-5 0 -7 5 -4 10 3 6 8 10 11 10 2 0 4 -4 4 -10z m30 -25 c11 -13 10 -14 -4 -9
-9 3 -16 10 -16 15 0 13 6 11 20 -6z m150 -217 c0 -4 -4 -8 -10 -8 -5 0 -10 4
-10 9 0 5 -3 18 -6 28 -5 16 -4 16 10 -1 9 -11 16 -23 16 -28z m80 2 c9 -16 8
-20 -5 -20 -8 0 -15 9 -15 20 0 11 2 20 5 20 2 0 9 -9 15 -20z m47 -174 c-3
-8 1 -17 9 -20 8 -3 14 -11 14 -17 0 -7 -8 -5 -20 6 -22 20 -27 45 -9 45 6 0
9 -6 6 -14z m29 -71 c-4 -10 2 -19 17 -25 13 -5 16 -9 7 -9 -22 -1 -40 18 -33
35 3 8 7 14 10 14 3 0 2 -7 -1 -15z m89 -45 c-10 -11 -22 -20 -28 -20 -5 0 1
9 14 20 31 25 37 25 14 0z m65 -160 c0 -6 -9 -2 -20 7 -11 10 -20 19 -20 21 0
1 9 -2 20 -8 11 -6 20 -15 20 -20z m-11 -34 c-2 -2 -13 8 -23 22 l-19 27 24
-22 c12 -12 21 -24 18 -27z m37 -16 c0 -12 -4 -16 -9 -11 -5 5 -6 14 -3 20 10
15 12 14 12 -9z m74 -110 c8 -14 6 -18 -6 -16 -18 3 -35 26 -28 38 7 11 21 1
34 -22z m41 -87 c-12 -20 -14 -14 -5 12 4 9 9 14 11 11 3 -2 0 -13 -6 -23z
m30 -36 c-10 -9 -11 -8 -5 6 3 10 9 15 12 12 3 -3 0 -11 -7 -18z m149 -127 c0
-5 -4 -10 -10 -10 -5 0 -10 5 -10 10 0 6 5 10 10 10 6 0 10 -4 10 -10z m-17
-57 c-3 -7 -6 -13 -8 -13 -2 0 -5 6 -8 13 -3 8 1 14 8 14 7 0 11 -6 8 -14z
m41 -9 c5 -14 4 -15 -9 -4 -17 14 -19 20 -6 20 5 0 12 -7 15 -16z m116 -226
c0 -4 -4 -8 -9 -8 -6 0 -12 4 -15 8 -3 5 1 9 9 9 8 0 15 -4 15 -9z m194 -338
c-5 -5 -10 3 -11 18 -1 22 0 24 9 8 6 -10 6 -22 2 -26z m53 -72 c-3 -8 -6 -5
-6 6 -1 11 2 17 5 13 3 -3 4 -12 1 -19z m-7 -33 c0 -5 -5 -3 -10 5 -5 8 -10
20 -10 25 0 6 5 3 10 -5 5 -8 10 -19 10 -25z m117 -397 c-3 -8 -6 -5 -6 6 -1
11 2 17 5 13 3 -3 4 -12 1 -19z m-22 -327 c3 -5 1 -12 -5 -16 -5 -3 -10 1 -10
9 0 18 6 21 15 7z m-18 -76 c-9 -19 -13 -21 -15 -9 -3 13 12 33 25 34 0 0 -4
-11 -10 -25z m-50 -90 c-9 -9 -14 -10 -19 -1 -5 7 -8 7 -8 -3 0 -8 -3 -12 -6
-8 -10 10 3 23 25 24 17 1 18 -1 8 -12z m-245 -217 c-4 -4 -21 -3 -37 1 -30 9
-30 9 7 8 20 -1 34 -5 30 -9z"/>
<path d="M4846 2137 c3 -10 9 -15 12 -12 3 3 0 11 -7 18 -10 9 -11 8 -5 -6z"/>
<path d="M5224 1549 c-3 -6 0 -15 7 -20 8 -5 10 -9 5 -9 -6 0 -5 -5 1 -11 6
-6 16 -8 23 -4 8 5 6 11 -6 19 -9 7 -14 18 -10 24 4 7 3 12 -3 12 -5 0 -13 -5
-17 -11z"/>
</g>
</svg>
