<svg width="481" height="276" viewBox="0 0 481 276" fill="none" xmlns="http://www.w3.org/2000/svg">
<g clip-path="url(#clip0)">
<path opacity="0.15" d="M240.495 276C373.326 276 481 266.127 481 253.96C481 241.793 373.326 231.91 240.495 231.91C107.664 231.91 0 241.783 0 253.96C0 266.138 107.674 276 240.495 276Z" fill="#7B61FF"/>
<path d="M383.495 246.061C383.495 246.061 378.915 248.999 377.999 249.736C377.083 250.473 372.868 251.387 373.42 252.674C373.971 253.961 379.28 254.688 380.706 254.688C382.131 254.688 387.846 251.75 389.313 251.407C390.781 251.065 390.791 249.404 390.229 248.116C389.629 246.989 388.887 245.943 388.023 245.002L384.172 246.04L383.495 246.061Z" fill="white" stroke="#263238" stroke-linecap="round" stroke-linejoin="round"/>
<path d="M435.536 245.602C435.536 245.602 432.05 249.755 431.498 250.71C430.946 251.665 427.813 253.077 427.813 254.541C427.813 256.005 433.122 255.278 434.777 255.081C435.766 254.931 436.709 254.559 437.533 253.992C438.357 253.426 439.041 252.68 439.533 251.81C440.46 249.973 441.188 246.142 440.085 244.689C438.982 243.235 435.536 245.602 435.536 245.602Z" fill="white" stroke="#263238" stroke-linecap="round" stroke-linejoin="round"/>
<path d="M391.561 164.795L391.416 165.896L390.271 174.647C390.271 174.647 380.091 188.974 376.355 196.448C374.45 200.248 371.796 204.753 372.191 206.041L383.495 246.061C384.353 246.484 385.287 246.735 386.243 246.798C387.121 246.766 387.987 246.583 388.803 246.258L388.293 209.165L404.02 191.943L406.029 194.497C406.029 194.497 411.233 212.924 413.45 215.851C415.667 218.779 434.621 246.103 434.621 246.103C435.6 246.559 436.663 246.81 437.743 246.84C439.398 246.84 440.127 244.639 440.127 244.639C440.127 244.639 426.471 211.086 426.096 209.986C425.721 208.885 426.003 182.06 426.003 182.06L423.786 169.104L421.225 160.902C417.014 161.8 412.698 162.104 408.402 161.806C400.336 161.442 392.644 160.902 392.644 160.902L391.561 164.795Z" fill="#263238" stroke="#263238" stroke-linecap="round" stroke-linejoin="round"/>
<path d="M369.933 76.8439C369.933 76.8439 367.372 80.6746 366.977 83.0727C366.827 84.6538 367.289 86.232 368.268 87.4848L366.79 90.5992C366.79 90.5992 371.734 100.628 374.669 105.185C377.604 109.743 382.36 117.414 385.296 118.878C388.231 120.342 393.903 126.353 393.903 126.353L397.203 119.231C397.203 119.231 387.513 107.158 381.465 98.7694C377.801 93.6812 374.437 88.3847 371.39 82.9066C371.381 81.3179 371.503 79.7312 371.754 78.1623C371.997 76.7915 372.119 75.4019 372.119 74.0098L369.933 76.8439Z" fill="#263238" stroke="#263238" stroke-linecap="round" stroke-linejoin="round"/>
<path d="M399.627 116.459C399.627 116.459 392.102 125.397 390.645 131.242C389.188 137.087 391.009 155.119 391.009 157.694C391.009 160.269 389.531 162.989 391.561 164.816C393.591 166.643 399.627 165.729 401.813 165.553C403.999 165.376 414.459 165.553 417.582 164.629C420.704 163.705 422.151 162.428 422.151 160.258C422.151 158.088 418.31 140.741 417.728 137.824C417.145 134.907 419.206 124.868 416.447 120.124C413.689 115.379 404.925 114.642 399.627 116.459Z" fill="white" stroke="#263238" stroke-linecap="round" stroke-linejoin="round"/>
<path d="M399.628 117.195C399.628 117.195 394.122 132.145 394.309 133.245C394.496 134.345 397.057 174.833 397.057 174.833C397.057 174.833 399.617 181.062 411.16 180.117C422.703 179.172 431.675 177.542 431.675 177.542C431.675 177.542 428.198 163.87 425.076 157.662C421.953 151.454 420.319 147.81 420.319 144.893C420.319 141.976 419.029 122.521 418.3 119.407C417.982 117.813 417.424 116.276 416.645 114.849L415.552 113.936L399.628 117.195Z" fill="#F3AC3F" stroke="#263238" stroke-linecap="round" stroke-linejoin="round"/>
<path d="M395.225 148.205L404.166 170.089C404.166 170.089 400.481 171.563 399.222 172.819C398.514 173.525 397.775 174.2 397.005 174.833L395.225 148.205Z" fill="#F3AC3F" stroke="#263238" stroke-linecap="round" stroke-linejoin="round"/>
<path d="M407.132 87.8267C407.132 87.8267 401.449 92.3841 401.449 93.6611C401.449 94.938 399.981 96.7755 399.981 96.7755C399.981 96.7755 397.025 97.1388 396.859 98.2496C396.934 99.3945 397.246 100.511 397.775 101.53C397.775 101.53 395.943 107.759 396.682 109.192C397.421 110.624 402.719 110.832 402.719 110.832L402.906 114.85L415.552 112.846L415.375 109.731C415.375 109.731 422.151 102.464 425.451 99.3501C428.75 96.2356 424.535 90.775 420.496 86.581C416.458 82.3869 406.965 82.4284 406.206 84.5773C405.977 85.1459 405.945 85.7738 406.112 86.3629C406.287 86.9469 406.644 87.4599 407.132 87.8267V87.8267Z" fill="white" stroke="#263238" stroke-linecap="round" stroke-linejoin="round"/>
<path d="M420.507 86.5506C416.479 82.3981 406.976 82.3981 406.216 84.547C405.983 85.1178 405.946 85.7496 406.112 86.3434C406.278 86.9371 406.637 87.4592 407.132 87.8276C407.132 87.8276 413.377 88.5646 412.451 90.2049C411.524 91.8452 408.412 91.8452 409.151 92.9352C409.89 94.0253 412.451 96.4026 411.535 96.9528C410.619 97.503 410.057 98.5931 410.619 98.9564C411.181 99.3198 412.086 98.4062 414.303 98.7696C416.52 99.1329 415.958 104.241 413.939 104.998C411.92 105.756 410.983 104.812 414.678 108.113C415.113 108.488 415.614 108.78 416.156 108.974C417.988 107.012 422.859 101.842 425.523 99.3509C428.719 96.2157 424.535 90.7447 420.507 86.5506Z" fill="#263238" stroke="#263238" stroke-linecap="round" stroke-linejoin="round"/>
<path d="M412.492 105.516L409.193 104.789L406.986 106.429" stroke="#263238" stroke-linecap="round" stroke-linejoin="round"/>
<path d="M416.291 110.625L399.44 115.182L398.337 118.65L418.311 115.006L416.291 110.625Z" fill="#F3AC3F" stroke="#263238" stroke-linecap="round" stroke-linejoin="round"/>
<path d="M373.794 82.3565L373.232 78.5257C373.934 76.3765 374.484 74.1806 374.877 71.9543C374.877 70.6774 373.607 67.8017 373.607 67.0335C373.607 66.2653 372.504 65.2168 372.129 66.6702C371.754 68.1236 371.026 73.5946 371.026 73.5946C371.026 73.5946 368.653 77.6122 368.809 79.6158C369.245 81.7598 369.919 83.8489 370.817 85.8446L374.117 83.8306L373.794 82.3565Z" fill="white" stroke="#263238" stroke-linecap="round" stroke-linejoin="round"/>
<path d="M376.167 85.2726L373.794 82.3555L369.392 85.8229L371.952 90.2038L376.167 85.2726Z" fill="white" stroke="#263238" stroke-linecap="round" stroke-linejoin="round"/>
<path d="M416.104 122.854C414.892 119.791 412.616 117.264 409.693 115.733C406.575 114.214 403.325 112.984 399.982 112.058L375.023 83.7891L370.079 88.7202C370.079 88.7202 380.487 110.417 382.569 114.072C384.65 117.726 407.85 142.735 407.85 142.735" fill="#F3AC3F"/>
<path d="M416.104 122.854C414.892 119.791 412.616 117.264 409.693 115.733C406.575 114.214 403.325 112.984 399.982 112.058L375.023 83.7891L370.079 88.7202C370.079 88.7202 380.487 110.417 382.569 114.072C384.65 117.726 407.85 142.735 407.85 142.735" stroke="#263238" stroke-linecap="round" stroke-linejoin="round"/>
<path d="M198.882 242.344C198.882 242.344 195.375 247.306 194.636 250.067C193.897 252.829 194.084 256.494 195.926 256.13C197.769 255.767 202.015 251.168 202.39 249.901C202.765 248.635 204.045 242.738 204.045 242.738L199.621 242.365L198.882 242.344Z" fill="white" stroke="#263238" stroke-linecap="round" stroke-linejoin="round"/>
<path d="M262.186 245.469C262.186 245.469 262.186 250.66 263.299 251.355C264.413 252.051 271.969 255.207 274.186 255.393C276.403 255.58 277.142 255.207 275.841 252.642C274.54 250.078 267.171 245.105 267.171 245.105L262.186 245.469Z" fill="white" stroke="#263238" stroke-linecap="round" stroke-linejoin="round"/>
<path d="M216.816 158.555L212.569 176.38L210.352 209.828C210.352 209.828 202.234 223.791 201.495 228.93C200.756 234.069 198.372 244.554 198.372 244.554C199.625 245.148 200.919 245.651 202.244 246.06C202.796 246.06 209.447 236.509 213.131 232.834C216.816 229.159 225.142 213.317 225.455 212.58C225.767 211.842 231.7 188.505 232.105 187.768C232.511 187.031 234.687 186.117 234.687 186.117C234.687 186.117 245.803 202.032 247.177 203.371C249.243 205.745 251.125 208.271 252.808 210.929C252.808 210.929 260.374 240.879 260.926 242.343C261.327 243.72 261.575 245.137 261.665 246.568L268.493 248.042C268.493 248.042 269.045 228.017 268.68 223.241C268.316 218.466 266.776 208.167 266.776 208.167C266.776 208.167 255.524 177.48 254.973 176.753C254.421 176.027 251.09 168.666 251.09 168.666L249.987 161.679C243.494 163.489 236.664 163.742 230.055 162.417C219.001 160.205 216.816 158.555 216.816 158.555Z" fill="#263238" stroke="#263238" stroke-linecap="round" stroke-linejoin="round"/>
<path d="M227.224 108.736C223.203 111.373 219.033 113.775 214.734 115.93C209.072 118.629 207.719 121.318 207.719 122.668C207.719 124.017 202.796 146.316 203.16 147.583C203.524 148.85 206.855 150.646 208.947 151.144C210.853 151.527 212.832 151.31 214.609 150.521C215.223 150.033 217.19 141.707 217.19 141.707C217.19 141.707 216.087 156.771 215.598 158.733C215.109 160.695 219.657 165.719 224.091 166.581C228.525 167.443 240.443 167.432 243.523 166.456C246.604 165.481 248.728 165.221 249.675 163.342C250.622 161.463 251.278 148.403 251.402 147.541C251.527 146.68 252.506 138.852 252.506 138.852L255.712 149.628L256.94 151.839C256.94 151.839 257.554 150.479 261.374 148.279C265.194 146.078 266.411 145.829 266.411 145.829C266.411 145.829 264.194 138.562 262.841 134.409C261.488 130.256 260.135 122.647 258.418 119.584C256.7 116.522 253.619 115.172 249.435 112.598C245.251 110.023 239.089 108.559 238.361 108.186C237.632 107.812 231.065 107.303 227.224 108.736Z" fill="white" stroke="#263238" stroke-linecap="round" stroke-linejoin="round"/>
<path d="M217.211 141.654L219.814 132.695" stroke="#263238" stroke-linecap="round" stroke-linejoin="round"/>
<path d="M254.338 130.474L254.775 128.449" stroke="#263238" stroke-linecap="round" stroke-linejoin="round"/>
<path d="M252.527 138.84L253.942 132.311" stroke="#263238" stroke-linecap="round" stroke-linejoin="round"/>
<path d="M230.44 122.905L233.022 126.58L234.51 129.892L230.826 160.392L236.03 165.168L240.089 159.842L236.404 130.255L238.611 126.03L241.557 121.234L236.217 118.119L230.44 122.905Z" fill="#DD6A57" stroke="#263238" stroke-linecap="round" stroke-linejoin="round"/>
<path d="M228.64 107.417C228.64 107.417 226.079 108.082 225.517 109.618C224.955 111.155 225.736 120.508 226.558 122.501C227.201 124.002 227.942 125.458 228.775 126.862C228.775 126.862 235.634 122.501 236.852 122.283C238.07 122.065 245.116 125.73 245.116 125.73C245.055 122.123 244.28 118.563 242.837 115.255C240.401 109.151 234.718 105.704 232.241 105.476C231.517 105.416 230.792 105.564 230.15 105.902C229.508 106.241 228.977 106.756 228.619 107.386L228.64 107.417Z" fill="white" stroke="#263238" stroke-linecap="round" stroke-linejoin="round"/>
<path d="M227.62 106.648C227.62 106.648 227.963 110.53 228.296 113.188C228.629 115.845 232.761 124.607 234.198 125.864C235.634 127.12 238.632 123.081 239.672 121.306C240.107 120.496 240.601 119.718 241.15 118.981C241.15 118.981 234.01 115.524 231.783 111.527C229.556 107.53 229.764 105.651 228.754 105.526C227.745 105.402 227.62 106.648 227.62 106.648Z" fill="white" stroke="#263238" stroke-linecap="round" stroke-linejoin="round"/>
<path d="M231.221 116.199L236.706 125.013C236.706 125.013 239.236 122.698 239.662 121.348C240.089 119.999 231.221 116.199 231.221 116.199Z" fill="#263238" stroke="#263238" stroke-linecap="round" stroke-linejoin="round"/>
<path d="M225.476 100.399C225 101.674 224.818 103.04 224.945 104.395C225.122 106.825 226.517 108.548 227.214 108.735C227.849 108.851 228.494 108.91 229.139 108.911C229.272 111.46 229.983 113.945 231.221 116.178C233.147 119.137 239.6 123.29 241.505 121.213C243.409 119.137 245.876 110.832 246.709 106.804C247.26 104.226 247.666 101.62 247.926 98.997L235.031 96.0487L228.921 94.668L225.476 100.399Z" fill="white" stroke="#263238" stroke-linecap="round" stroke-linejoin="round"/>
<path d="M232.97 98.6964C233.161 99.3195 233.197 99.9796 233.076 100.62C232.954 101.26 232.679 101.861 232.272 102.371C230.878 103.794 230.357 103.763 230.357 103.763C230.357 103.763 230.701 106.015 230.17 106.015C229.941 106.026 229.713 105.984 229.504 105.891C229.289 105.807 229.094 105.679 228.931 105.517C228.768 105.354 228.641 105.16 228.557 104.946C228.473 104.734 228.431 104.509 228.432 104.282C228.391 103.348 228.088 102.446 227.557 101.676L225.476 100.461C224.969 97.9365 225.025 95.3313 225.642 92.8309C226.683 88.8341 234.188 87.2665 240.464 87.443C246.74 87.6195 248.312 95.6028 248.312 95.6028C249.638 96.2063 250.921 96.9 252.152 97.6791C252.673 98.2085 253.193 99.4231 250.227 100.98C247.26 102.538 242.035 103.057 238.892 101.852C236.816 101.004 234.831 99.9463 232.97 98.6964V98.6964Z" fill="#263238" stroke="#263238" stroke-linecap="round" stroke-linejoin="round"/>
<path d="M241.931 107.084C241.931 107.084 241.713 113.188 241.484 114.351C241.455 114.572 241.377 114.784 241.255 114.971C241.133 115.157 240.971 115.314 240.78 115.43C240.589 115.546 240.375 115.617 240.152 115.639C239.93 115.66 239.706 115.632 239.496 115.555C239.219 115.445 238.981 115.258 238.809 115.015C238.102 114.085 237.501 113.079 237.019 112.015" fill="white"/>
<path d="M241.931 107.084C241.931 107.084 241.713 113.188 241.484 114.351C241.455 114.572 241.377 114.784 241.255 114.971C241.133 115.157 240.971 115.314 240.78 115.43C240.589 115.546 240.375 115.617 240.152 115.639C239.93 115.66 239.706 115.632 239.496 115.555C239.219 115.445 238.981 115.258 238.809 115.015C238.102 114.085 237.501 113.079 237.019 112.015" stroke="#263238" stroke-linecap="round" stroke-linejoin="round"/>
<path d="M265.735 143.117C265.735 143.117 260.416 143.989 258.21 145.463C256.003 146.938 255.212 148.204 255.774 149.616C256.241 151.005 256.858 152.338 257.616 153.592C258.543 155.066 260.198 153.966 260.198 153.966C260.045 153.801 259.928 153.607 259.854 153.395C259.777 153.182 259.746 152.956 259.761 152.73C259.777 152.505 259.84 152.286 259.948 152.087C260.056 151.888 260.205 151.715 260.385 151.578C261.676 150.291 266.474 148.464 266.474 148.464H268.139C268.878 148.464 268.139 146.439 267.577 145.515C267.015 144.591 266.984 142.754 265.735 143.117Z" fill="white" stroke="#263238" stroke-linecap="round" stroke-linejoin="round"/>
<path d="M203.129 151.941C203.129 151.941 203.129 157.267 203.493 162.603C203.857 167.939 208.291 182.816 208.291 182.816L212.725 181.705C212.725 181.705 212.538 167.742 212.538 163.33C212.538 158.918 212.351 153.592 212.351 153.592L203.129 151.941Z" fill="white" stroke="#263238" stroke-linecap="round" stroke-linejoin="round"/>
<path d="M202.317 148.225C202.346 147.994 202.436 147.776 202.577 147.592C202.714 147.406 202.897 147.259 203.108 147.166C203.322 147.071 203.556 147.035 203.789 147.061C204.021 147.086 204.242 147.173 204.43 147.311C205.648 148.113 207.032 148.628 208.479 148.817C210.244 149.131 212.047 149.187 213.829 148.983C214.008 148.962 214.19 148.983 214.359 149.045C214.525 149.117 214.674 149.223 214.797 149.356C214.916 149.498 214.998 149.667 215.034 149.849C215.07 150.03 215.06 150.218 215.005 150.394C214.646 151.859 214.063 153.259 213.277 154.547C212.351 155.461 207.927 155.461 205.71 154.724C203.493 153.986 202.942 153.447 202.39 151.609C202.164 150.494 202.14 149.348 202.317 148.225V148.225Z" fill="white" stroke="#263238" stroke-linecap="round" stroke-linejoin="round"/>
<path d="M288.394 166.279C288.818 164.942 289.581 163.736 290.611 162.781C292.276 161.317 293.015 160.943 291.35 160.767C289.684 160.59 287.655 163.154 287.655 163.154L288.394 166.279Z" fill="white" stroke="#263238" stroke-linecap="round" stroke-linejoin="round"/>
<path d="M260.156 153.966C261.284 155.091 262.593 156.021 264.028 156.717C266.797 158.191 280.681 165.728 280.681 165.728L285.657 162.779C285.657 162.779 277.913 159.291 274.405 155.616C270.898 151.941 268.16 148.453 268.16 148.453C268.16 148.453 258.866 149.003 260.156 153.966Z" fill="white" stroke="#263238" stroke-linecap="round" stroke-linejoin="round"/>
<path d="M278.225 163.705C278.225 163.705 278.964 167.557 280.307 167.744C281.649 167.931 287.874 167.38 288.425 166.28C288.977 165.179 289.352 161.318 288.425 161.089C287.499 160.861 278.225 163.705 278.225 163.705Z" fill="white" stroke="#263238" stroke-linecap="round" stroke-linejoin="round"/>
<path d="M208.853 187.281C207.982 186.177 206.838 185.319 205.533 184.789C203.451 184 202.64 183.917 204.138 183.159C205.637 182.401 208.437 184.104 208.437 184.104L208.853 187.281Z" fill="white" stroke="#263238" stroke-linecap="round" stroke-linejoin="round"/>
<path d="M217.43 181.301C217.43 181.301 218.107 185.173 216.972 185.796C215.838 186.419 209.759 188.111 208.843 187.27C207.927 186.429 206.22 182.941 207.022 182.453C207.823 181.965 217.43 181.301 217.43 181.301Z" fill="white" stroke="#263238" stroke-linecap="round" stroke-linejoin="round"/>
<path d="M94.2266 188.693C94.2266 188.693 95.1529 188.506 102.72 186.305C107.564 184.756 111.984 182.113 115.636 178.582L113.232 163.508L97.9111 165.719L94.2266 188.693Z" fill="#7B61FF" stroke="#263238" stroke-linecap="round" stroke-linejoin="round"/>
<path d="M56.5276 239.832C55.005 242.952 54.0097 246.302 53.582 249.746C53.2073 254.532 55.9759 256.183 56.9023 254.937C58.1956 252.464 59.068 249.795 59.4835 247.037L60.0352 240.974L56.5276 239.832Z" fill="white" stroke="#263238" stroke-linecap="round" stroke-linejoin="round"/>
<path d="M124.536 243.08C124.536 243.08 123.797 249.693 123.599 252.818C123.401 255.943 127.294 258.881 127.835 259.047C128.376 259.213 128.949 259.047 129.917 256.835C130.885 254.624 130.854 249.309 130.302 247.648C129.75 245.987 128.647 243.423 128.647 243.423L124.536 243.08Z" fill="white" stroke="#263238" stroke-linecap="round" stroke-linejoin="round"/>
<path d="M98.6605 146.242C98.6605 146.242 91.2081 155.066 88.6165 162.416C86.0248 169.766 83.9743 178.861 82.2257 183.729C80.7657 187.885 79.5323 192.117 78.5308 196.405C78.5308 196.405 73.743 201.191 72.4419 205.416C71.1409 209.641 56.0176 240.869 56.0176 240.869C56.0176 240.869 56.9439 242.156 57.6829 242.332C58.4219 242.509 60.0768 241.606 60.0768 241.606C60.0768 241.606 86.8366 206.693 88.502 204.119C90.1673 201.544 95.4027 195.595 95.9647 194.671C96.5268 193.747 100.69 180.968 102.21 179.099C103.306 177.635 104.267 176.075 105.082 174.438L106.186 175.175L107.476 175.352C107.476 175.352 113.284 187 114.762 191.775C116.24 196.55 120.487 222.639 121.59 227.425C122.693 232.211 124.182 244.741 124.182 244.741C124.848 244.949 125.524 245.135 126.263 245.291C127.392 245.275 128.511 245.089 129.584 244.741C129.584 244.741 133.83 225.629 134.018 219.016C134.205 212.403 132.904 197.692 132.904 195.492C132.904 193.291 129.584 162.967 127.918 158.928C126.253 154.89 120.726 147.716 120.726 147.716L98.6605 146.242Z" fill="#263238" stroke="#263238" stroke-linecap="round" stroke-linejoin="round"/>
<path d="M109.548 111.518L98.4731 115.006C98.4731 115.006 98.4731 136.319 98.6604 139.08C98.8478 141.842 97.3594 146.43 98.2857 147.531C99.2121 148.631 103.636 153.043 111.765 153.23C119.893 153.417 122.1 150.842 122.1 150.842L123.755 143.679C123.755 143.679 129.115 129.342 129.115 127.142C129.115 124.941 123.755 118.504 120.622 115.93C117.489 113.355 109.548 111.518 109.548 111.518Z" fill="white" stroke="#263238" stroke-linecap="round" stroke-linejoin="round"/>
<path d="M80.9351 136.691C78.5769 138.27 76.111 139.681 73.5556 140.917L58.7861 148.267L60.4515 151.755C64.0528 151.118 67.6878 150.688 71.3386 150.468C76.1368 150.291 84.2553 147.166 84.8694 146.242C85.4835 145.318 87.2633 140.366 87.2633 140.366L80.9351 136.691Z" fill="white" stroke="#263238" stroke-linecap="round" stroke-linejoin="round"/>
<path d="M108.07 111.703C108.07 111.703 100.128 133.379 99.7429 136.504C99.3578 139.629 96.2353 147.529 96.048 148.63C95.8606 149.73 90.7189 160.932 90.7189 160.932C90.7189 160.932 96.2561 143.667 96.8078 140.169C97.1116 137.938 96.8577 135.666 96.0688 133.556C96.0688 133.556 92.3322 141.467 91.7701 142.017C91.2081 142.567 87.4611 148.879 87.4611 148.879L80.9351 136.681C80.9351 136.681 88.1376 124.223 89.6156 122.147C91.0936 120.071 94.2265 114.61 96.4435 113.509C98.6604 112.409 108.07 111.703 108.07 111.703Z" fill="#7B61FF" stroke="#263238" stroke-linecap="round" stroke-linejoin="round"/>
<path d="M118.978 114.455C118.978 114.455 113.253 138.332 113.253 142.205C113.253 146.077 112.701 158.005 112.15 164.618C111.598 171.231 110.484 192.368 110.484 192.368C114.028 192.909 117.623 193.031 121.195 192.731C126.399 192.181 135.225 188.693 135.225 188.693C135.225 188.693 130.604 165.542 128.761 160.029C127.211 155.257 125.919 150.406 124.889 145.495C124.889 144.935 129.865 128.771 129.865 126.56C129.865 124.349 120.986 115.005 118.978 114.455Z" fill="#7B61FF" stroke="#263238" stroke-linecap="round" stroke-linejoin="round"/>
<path d="M53.8733 149.648C53.9796 148.254 53.7252 146.856 53.1343 145.589C52.0935 143.616 51.5835 143.014 53.1863 143.44C54.7892 143.865 55.7468 147.021 55.7468 147.021L53.8733 149.648Z" fill="white" stroke="#263238" stroke-linecap="round" stroke-linejoin="round"/>
<path d="M64.2612 150.966C64.2612 150.966 62.1796 154.288 60.8785 153.998C59.5775 153.707 53.9778 150.883 53.8737 149.648C53.7696 148.413 54.8417 144.706 55.768 144.862C56.6944 145.018 64.2612 150.966 64.2612 150.966Z" fill="white" stroke="#263238" stroke-linecap="round" stroke-linejoin="round"/>
<path d="M126.753 91.9174C127.219 93.3435 127.567 94.8052 127.793 96.288C127.731 97.1936 127.563 98.0889 127.294 98.956C127.294 98.956 130.312 101.634 130.489 102.299C130.666 102.963 128.813 103.97 128.813 103.97C128.813 103.97 128.97 110.978 128.97 111.476C128.97 111.974 120.757 112.317 120.757 112.317L112.171 122.335L108.143 112.483L109.995 106.97C109.995 106.97 104.5 103.835 106.488 98.956C107.463 96.7508 108.996 94.8368 110.938 93.4024C112.88 91.9681 115.163 91.0627 117.562 90.7755C120.512 90.392 123.506 90.5043 126.42 91.1077L126.753 91.9174Z" fill="white" stroke="#263238" stroke-linecap="round" stroke-linejoin="round"/>
<path d="M120.768 112.317L116.604 111.518L116.354 117.155L120.768 112.317Z" fill="#263238" stroke="#263238" stroke-linecap="round" stroke-linejoin="round"/>
<path d="M128.033 105.683C128.033 105.683 125.951 106.005 125.077 104.863" stroke="#263238" stroke-linecap="round" stroke-linejoin="round"/>
<path d="M127.138 93.9509C127.138 93.9509 121.611 92.6117 120.601 94.6153C119.592 96.619 120.435 97.6259 119.56 99.4635C118.686 101.301 115.543 103.616 115.543 103.616C115.543 103.616 112.514 100.273 111.504 101.945C110.495 103.616 110.838 106.097 111.848 106.948C112.857 107.8 115.699 107.281 115.699 107.281L111.348 109.295C111.348 109.295 111.504 111.797 107.487 112.793C103.469 113.79 98.6291 111.132 99.264 107.789C99.8989 104.447 105.509 102.443 105.509 102.443C105.509 102.443 99.6075 95.2694 104.468 89.9852C109.329 84.7011 118.977 87.1304 118.977 87.1304C118.977 87.1304 120.32 85.6666 124.182 85.3032C128.043 84.9399 129.719 88.8018 129.719 90.9819C129.719 93.1619 127.138 93.9509 127.138 93.9509Z" fill="#263238" stroke="#263238" stroke-linecap="round" stroke-linejoin="round"/>
<path d="M405.727 38.4324L403.76 0.519531L371.015 18.2198L371.754 21.1681L384.14 27.4593L325.853 141.125L140.981 191.174L13.1561 104.334C12.5973 103.948 11.9669 103.678 11.302 103.539C10.6371 103.4 9.95109 103.395 9.28416 103.524C8.28501 103.724 7.36678 104.212 6.6434 104.928C5.92002 105.644 5.42332 106.556 5.21494 107.551C5.00655 108.546 5.09565 109.581 5.47118 110.526C5.84671 111.471 6.49215 112.285 7.3274 112.867L137.088 201.016C137.96 201.605 138.991 201.916 140.044 201.908C140.502 201.909 140.957 201.846 141.397 201.721L330.829 150.458C331.524 150.271 332.172 149.942 332.733 149.493C333.288 149.035 333.745 148.47 334.076 147.832L393.351 32.2036L405.727 38.4324Z" fill="#FCDC59" stroke="#263238" stroke-linecap="round" stroke-linejoin="round"/>
<path d="M122.933 154.361L121.892 158.233C120.738 160.413 119.409 162.497 117.916 164.462C115.48 167.67 106.727 176.629 106.727 176.629L104.26 179.67L103.969 182.328L105.978 183.096C105.978 183.096 107.018 183.491 107.799 183.906C108.58 184.321 110.755 184.705 111.411 184.217C112.066 183.73 113.628 179.733 113.628 179.733L114.221 176.618C114.221 176.618 124.629 168.5 126.992 166.04C129.355 163.579 131.415 161.358 132.113 159.935C132.81 158.513 132.238 154.143 132.238 154.143L122.933 154.361Z" fill="white" stroke="#263238" stroke-linecap="round" stroke-linejoin="round"/>
<path d="M122.673 135.57L120.851 155.097C122.586 155.717 124.359 156.224 126.159 156.613C129.084 157.226 135.173 155.575 135.173 155.575C135.173 155.575 134.236 139.318 133.018 133.379C131.801 127.441 128.397 122.998 126.211 122.24" fill="#7B61FF"/>
<path d="M122.673 135.57L120.851 155.097C122.586 155.717 124.359 156.224 126.159 156.613C129.084 157.226 135.173 155.575 135.173 155.575C135.173 155.575 134.236 139.318 133.018 133.379C131.801 127.441 128.397 122.998 126.211 122.24" stroke="#263238" stroke-linecap="round" stroke-linejoin="round"/>
</g>
<defs>
<clipPath id="clip0">
<rect width="481" height="276" fill="white"/>
</clipPath>
</defs>
</svg>
