          <svg class="section-principle-animation" width="387" height="231" viewBox="0 0 387 231" fill="none" xmlns="http://www.w3.org/2000/svg">
                <path d="M355.321 212.669C374.832 197.067 386.063 173.33 386.408 148.361C386.629 132.62 385.497 112.853 380.202 95.928C362.739 40.1212 313.408 9.84798 277.317 3.39198C241.226 -3.06402 204.058 8.77198 176.048 27.602C148.037 46.432 150.73 43.204 102.789 36.21C54.8475 29.216 15.5249 49.66 2.59687 87.32C-10.3311 124.98 28.9915 146.322 33.3009 166.051C37.6102 185.779 30.0689 220.744 104.944 229.352C179.818 237.96 202.442 195.996 239.61 207.832C269.517 217.36 314.075 245.696 355.321 212.669Z" fill="#92E3A9"/>
                <path opacity="0.7" d="M355.321 212.669C374.832 197.067 386.063 173.33 386.408 148.361C386.629 132.62 385.497 112.853 380.202 95.928C362.739 40.1212 313.408 9.84798 277.317 3.39198C241.226 -3.06402 204.058 8.77198 176.048 27.602C148.037 46.432 150.73 43.204 102.789 36.21C54.8475 29.216 15.5249 49.66 2.59687 87.32C-10.3311 124.98 28.9915 146.322 33.3009 166.051C37.6102 185.779 30.0689 220.744 104.944 229.352C179.818 237.96 202.442 195.996 239.61 207.832C269.517 217.36 314.075 245.696 355.321 212.669Z" fill="white"/>
                <path d="M55.8979 22.5565C55.1384 21.771 53.8186 21.0447 51.5293 20.9855C46.385 20.8618 47.7586 24.4986 46.385 25.3756C45.0114 26.2525 44.629 24.8752 43.2446 25.7522C41.8602 26.6291 42.4905 28.383 41.3647 28.6359C40.2389 28.8887 38.7306 27.5061 37.3462 28.383C35.9618 29.2599 35.9672 29.997 35.337 29.997C34.7068 29.997 33.457 29.4967 32.7029 29.997C31.9488 30.4973 31.0869 31.1268 31.0869 31.1268H44.5536" stroke="#263238" stroke-linecap="round" stroke-linejoin="round"/>
                <path d="M57.3145 24.7998L56.9266 24.6223C56.8663 24.1537 56.7085 23.7029 56.4634 23.2988" stroke="#263238" stroke-linecap="round" stroke-linejoin="round"/>
                <path d="M46.272 31.1325H62.8252C62.8252 31.1325 63.2023 30.0027 61.8233 29.2495C60.4443 28.4963 59.8141 29.1257 59.3131 28.4963C58.8121 27.8668 60.3096 26.5864 57.9718 25.1445" stroke="#263238" stroke-linecap="round" stroke-linejoin="round"/>
                <path d="M211.309 62.9334C210.544 62.1426 209.224 61.4163 206.935 61.3625C201.79 61.2387 203.164 64.8702 201.79 65.7472C200.417 66.6241 200.034 65.2468 198.655 66.1238C197.276 67.0007 197.901 68.76 196.77 69.0074C195.639 69.2549 194.136 67.8776 192.757 68.76C191.378 69.6423 191.373 70.374 190.748 70.374C190.123 70.374 188.862 69.8736 188.114 70.374C187.365 70.8743 186.498 71.5038 186.498 71.5038H199.964" stroke="#263238" stroke-linecap="round" stroke-linejoin="round"/>
                <path d="M212.725 65.1768L212.332 64.9993C212.272 64.5305 212.114 64.0795 211.869 63.6758" stroke="#263238" stroke-linecap="round" stroke-linejoin="round"/>
                <path d="M201.683 71.5138H218.23C218.23 71.5138 218.608 70.384 217.229 69.6362C215.85 68.8884 215.219 69.5071 214.718 68.883C214.217 68.2589 215.715 66.9731 213.377 65.5312" stroke="#263238" stroke-linecap="round" stroke-linejoin="round"/>
                <path d="M320.986 7.16369C319.618 5.74337 317.216 4.43603 313.111 4.33381C303.835 4.10785 306.302 10.6876 303.835 12.2424C301.368 13.7972 300.668 11.3386 298.179 12.9203C295.691 14.502 296.822 17.6654 294.791 18.1174C292.76 18.5693 290.04 16.0676 287.551 17.6816C285.063 19.2956 285.063 20.6191 283.931 20.6191C282.8 20.6191 280.538 19.7152 279.18 20.6191C277.823 21.5229 276.239 22.6527 276.239 22.6527H300.528" stroke="#263238" stroke-linecap="round" stroke-linejoin="round"/>
                <path d="M323.54 11.2257C323.319 11.1181 323.087 11.0105 322.839 10.9029C322.73 10.0591 322.445 9.24747 322.004 8.51953" stroke="#263238" stroke-linecap="round" stroke-linejoin="round"/>
                <path d="M303.636 22.6365H333.468C333.468 22.6365 334.146 20.6029 331.658 19.2471C329.169 17.8913 328.043 19.0211 327.138 17.8913C326.33 16.8853 328.932 14.4481 324.72 11.8496" stroke="#263238" stroke-linecap="round" stroke-linejoin="round"/>
                <path d="M141.002 31.1644H173.817C173.817 31.1644 174.938 27.8126 170.833 25.5799C166.728 23.3472 164.87 25.2087 163.378 23.3472C161.886 21.4858 167.483 16.6438 156.3 11.8071C156.3 11.8071 155.551 1.3807 140.269 1.00948C133.676 0.848077 130.692 2.76874 129.097 5.21126" stroke="#263238" stroke-linecap="round" stroke-linejoin="round"/>
                <path d="M130.988 31.1641H136.45" stroke="#263238" stroke-linecap="round" stroke-linejoin="round"/>
                <path d="M127.11 10.3555C126.641 11.9426 126.135 13.3145 124.987 14.0408C120.888 16.6447 119.773 12.5505 115.668 15.1598C111.564 17.7691 113.46 22.9769 110.083 23.7194C106.705 24.4618 102.25 20.373 98.151 22.9769C94.0518 25.5809 94.0518 27.8189 92.188 27.8189C90.3242 27.8189 86.5966 26.3341 84.3612 27.8189C82.1257 29.3038 79.5132 31.1707 79.5132 31.1707H121.427" stroke="#263238" stroke-linecap="round" stroke-linejoin="round"/>
                <path d="M345.819 124.201L365.033 85.4433L370.803 88.2947L369.429 66.877L351.545 78.7721L357.314 81.6235L338.095 120.381" stroke="#263238" stroke-linecap="round" stroke-linejoin="round"/>
                <path d="M336.446 65.3435L348.555 40.9183L352.191 42.7152L351.33 29.2168L340.055 36.7111L343.691 38.5081L331.582 62.9386" stroke="#263238" stroke-linecap="round" stroke-linejoin="round"/>
                <path d="M212.483 23.3311C215.081 17.3737 219.926 12.679 225.966 10.2645C232.006 7.84994 238.756 7.91013 244.752 10.432C250.749 12.9538 255.508 17.7342 258 23.737C260.492 29.7398 260.514 36.4814 258.063 42.5008C255.612 48.5202 250.885 53.3324 244.905 55.8944C238.926 58.4565 232.177 58.562 226.12 56.188C220.064 53.8141 215.188 49.152 212.55 43.2122C209.911 37.2723 209.723 30.5333 212.025 24.4555" stroke="#263238" stroke-miterlimit="10"/>
                <path d="M212.202 23.2289C214.83 17.2001 219.731 12.4485 225.842 10.004C231.954 7.55959 238.783 7.61927 244.851 10.1702C250.919 12.7211 255.736 17.5576 258.257 23.6314C260.779 29.7052 260.802 36.5268 258.322 42.6176C255.841 48.7084 251.058 53.5775 245.008 56.1694C238.957 58.7614 232.128 58.8674 226 56.4645C219.872 54.0615 214.939 49.3433 212.271 43.3324C209.602 37.3216 209.413 30.5025 211.744 24.3534" stroke="#263238" stroke-width="0.5" stroke-miterlimit="10"/>
                <path d="M218.742 25.6923C220.733 21.2982 224.373 17.8617 228.878 16.1237C233.383 14.3857 238.391 14.4855 242.823 16.4015C247.254 18.3175 250.755 21.8964 252.569 26.3663C254.383 30.8362 254.366 35.8391 252.52 40.2963C250.675 44.7535 247.15 48.3079 242.705 50.1931C238.26 52.0783 233.252 52.1434 228.759 50.3741C224.266 48.6049 220.65 45.1432 218.69 40.7354C216.729 36.3276 216.581 31.3268 218.279 26.8113" stroke="#263238" stroke-miterlimit="10"/>
                <path d="M218.462 25.585C220.353 21.4279 223.716 18.1161 227.905 16.2865C232.093 14.457 236.811 14.239 241.151 15.6744C245.491 17.1099 249.146 20.0974 251.414 24.0623C253.681 28.0272 254.4 32.6895 253.433 37.1521C252.466 41.6148 249.881 45.5627 246.175 48.2363C242.469 50.91 237.904 52.1205 233.358 51.6351C228.812 51.1497 224.607 49.0027 221.551 45.6069C218.494 42.2112 216.803 37.8067 216.803 33.2407C216.798 31.0072 217.204 28.7917 217.999 26.704" stroke="#263238" stroke-width="0.5" stroke-miterlimit="10"/>
                <path d="M226.337 28.8251L226.45 28.5991C227.588 26.4338 229.48 24.7594 231.769 23.8923C234.059 23.0253 236.587 23.0255 238.876 23.8929C241.165 24.7604 243.057 26.435 244.195 28.6006C245.332 30.7661 245.636 33.2727 245.049 35.6468C244.463 38.021 243.026 40.0984 241.01 41.4868C238.995 42.8751 236.54 43.4782 234.109 43.1822C231.679 42.8862 229.441 41.7116 227.818 39.8802C226.196 38.0489 225.301 35.6875 225.303 33.2421C225.301 32.0343 225.52 30.8364 225.949 29.7074" stroke="#263238" stroke-width="0.5" stroke-miterlimit="10"/>
                <path d="M226.887 28.7605H226.806L226.736 28.7336L226.456 28.626L218.747 25.7208L218.467 25.6132L212.488 23.3589L212.208 23.2567L202.577 19.6252L203.051 16.0744C203.06 16.0094 203.047 15.9432 203.015 15.8859C202.983 15.8286 202.933 15.7833 202.873 15.757L195.251 12.303C195.196 12.2793 195.136 12.2718 195.078 12.2814C195.019 12.291 194.965 12.3173 194.921 12.3571C194.877 12.3969 194.846 12.4486 194.831 12.5058C194.816 12.563 194.817 12.6234 194.836 12.6796L196.382 17.2526L195.245 16.8222C195.17 16.7887 195.088 16.771 195.005 16.7701C194.922 16.7691 194.84 16.7851 194.764 16.8169C194.688 16.8488 194.619 16.8958 194.561 16.9552C194.504 17.0146 194.459 17.0852 194.429 17.1624C194.4 17.2397 194.387 17.3222 194.39 17.4047C194.394 17.4873 194.415 17.5683 194.451 17.6427C194.487 17.7171 194.537 17.7834 194.6 17.8375C194.663 17.8916 194.736 17.9324 194.814 17.9574L195.999 18.404L192.444 21.1316C192.397 21.1679 192.361 21.2175 192.342 21.274C192.323 21.3305 192.321 21.3914 192.337 21.449C192.351 21.5063 192.382 21.5579 192.427 21.5972C192.471 21.6366 192.526 21.6618 192.584 21.6696L201.122 22.9823H201.165C201.227 22.9824 201.287 22.9639 201.338 22.9294C201.389 22.8948 201.428 22.8458 201.451 22.7887L202.253 20.755L211.745 24.3327L212.025 24.4349L217.999 26.6838L218.279 26.7914L225.955 29.6858L226.235 29.788L226.461 29.8741" stroke="#263238" stroke-miterlimit="10"/>
                <path d="M226.725 28.7268H226.806H226.887L232.376 30.7981L232.979 28.9904C233.018 28.8703 233.095 28.7656 233.197 28.6912C233.3 28.6169 233.423 28.5766 233.55 28.5762V28.5762C233.678 28.5785 233.803 28.6214 233.905 28.6988C234.008 28.7761 234.083 28.8838 234.121 29.0066L235.198 32.5681C235.239 32.7052 235.231 32.8523 235.175 32.9839C235.119 33.1156 235.019 33.2235 234.891 33.2891L232.144 34.6556C232.06 34.6979 231.968 34.72 231.875 34.7201C231.729 34.721 231.587 34.6695 231.476 34.5749C231.386 34.4952 231.322 34.3913 231.29 34.2757C231.259 34.1602 231.262 34.0379 231.298 33.9239L231.966 31.9817L226.461 29.8943C226.383 29.8657 226.313 29.8197 226.256 29.7598" stroke="#263238" stroke-miterlimit="10"/>
                <path d="M73.2643 92.711L78.1123 93.787L79.2328 88.8805L74.5841 87.8045C74.5841 87.67 74.5841 87.5301 74.5841 87.3902C74.5868 85.8999 74.2863 84.4246 73.7006 83.0539L77.4713 80.0519L74.3309 76.1191L70.7434 79.0135C69.4785 77.9178 67.9811 77.1231 66.364 76.6894V72.0195H61.3275V76.528C59.6654 76.8506 58.1003 77.5521 56.7542 78.5778L53.1074 75.6725L49.967 79.6053L53.5276 82.4406C52.773 83.9316 52.3677 85.5745 52.3425 87.2449L47.7046 88.3209L48.825 93.2275L53.3983 92.1838C54.092 93.6566 55.0994 94.9602 56.3502 96.0036L54.1955 100.421L58.7365 102.605L60.8319 98.2578C62.3796 98.6387 63.9919 98.6773 65.556 98.3708L67.7107 102.874L72.2516 100.69L70.1401 96.3102C71.429 95.3493 72.4947 94.1216 73.2643 92.711V92.711ZM58.5156 87.4332C58.5156 86.4564 58.8056 85.5015 59.349 84.6894C59.8924 83.8772 60.6647 83.2442 61.5682 82.8703C62.4718 82.4965 63.4661 82.3987 64.4253 82.5893C65.3845 82.7799 66.2656 83.2502 66.9572 83.9409C67.6488 84.6317 68.1197 85.5117 68.3105 86.4697C68.5013 87.4278 68.4034 88.4208 68.0291 89.3233C67.6549 90.2257 67.0211 90.997 66.2079 91.5397C65.3947 92.0824 64.4386 92.3721 63.4606 92.3721C62.8112 92.3721 62.1682 92.2443 61.5682 91.9961C60.9683 91.7479 60.4232 91.3841 59.964 90.9255C59.5048 90.4669 59.1405 89.9225 58.892 89.3233C58.6435 88.724 58.5156 88.0818 58.5156 87.4332V87.4332Z" stroke="#263238" stroke-linecap="round" stroke-linejoin="round"/>
                <path d="M367.241 142.821L370.522 143.568L371.281 140.244L368.13 139.523C368.13 139.431 368.13 139.334 368.13 139.243C368.132 138.232 367.931 137.231 367.538 136.3L370.091 134.266L367.936 131.576L365.555 133.545C364.699 132.803 363.684 132.265 362.587 131.975V128.795H359.145V131.845C358.02 132.067 356.96 132.544 356.048 133.239L353.575 131.27L351.421 133.96L353.834 135.88C353.325 136.882 353.051 137.986 353.031 139.108L349.934 139.808L350.694 143.133L353.796 142.428C354.266 143.425 354.948 144.308 355.795 145.016L354.351 148.007L357.427 149.486L358.849 146.538C359.427 146.683 360.02 146.757 360.616 146.759C361.097 146.756 361.576 146.709 362.049 146.619L363.519 149.669L366.6 148.19L365.168 145.225C366.02 144.578 366.726 143.758 367.241 142.821V142.821ZM357.244 139.27C357.244 138.608 357.44 137.961 357.808 137.411C358.177 136.86 358.7 136.431 359.312 136.178C359.924 135.925 360.598 135.859 361.248 135.988C361.898 136.117 362.495 136.436 362.963 136.904C363.432 137.372 363.751 137.968 363.88 138.617C364.01 139.266 363.943 139.939 363.69 140.55C363.436 141.162 363.007 141.684 362.456 142.052C361.905 142.42 361.257 142.616 360.594 142.616C359.706 142.616 358.853 142.264 358.225 141.636C357.597 141.008 357.244 140.157 357.244 139.27V139.27Z" stroke="#263238" stroke-linecap="round" stroke-linejoin="round"/>
                <path d="M82.5456 68.5979L86.5209 69.5017L87.4366 65.4775L83.6229 64.6113C83.6229 64.4983 83.6229 64.3854 83.6229 64.2724C83.6303 63.0533 83.3902 61.8454 82.9172 60.7216L86.0146 58.2575L83.4397 55.0295L80.4771 57.386C79.4385 56.4888 78.2102 55.8377 76.8842 55.4815V51.6348H72.7526V55.3416C71.3826 55.6055 70.0922 56.1817 68.9819 57.0255L65.9869 54.6422L63.4121 57.8702L66.3317 60.1943C65.7145 61.417 65.383 62.7634 65.3621 64.1325L61.5537 65.0041L62.4748 69.0283L66.2455 68.1729C66.8134 69.3803 67.6389 70.449 68.6641 71.304L66.9134 74.9248L70.641 76.7163L72.3594 73.1494C73.0644 73.3232 73.7878 73.4117 74.514 73.413C75.0962 73.4121 75.6769 73.3563 76.2485 73.2462L78.0261 76.9369L81.7537 75.1454L80.0192 71.5569C81.0662 70.7652 81.9282 69.7555 82.5456 68.5979V68.5979ZM70.4525 64.2939C70.4514 63.4924 70.6884 62.7087 71.1334 62.0418C71.5785 61.3748 72.2116 60.8547 72.9527 60.5473C73.6938 60.2399 74.5095 60.1589 75.2967 60.3146C76.0838 60.4703 76.8071 60.8557 77.3749 61.422C77.9427 61.9884 78.3295 62.7102 78.4865 63.4962C78.6434 64.2822 78.5634 65.097 78.2566 65.8376C77.9497 66.5781 77.4298 67.2112 76.7627 67.6566C76.0955 68.1019 75.3111 68.3397 74.5086 68.3397C73.9746 68.3397 73.4459 68.2343 72.9527 68.0298C72.4595 67.8252 72.0116 67.5253 71.6348 67.1474C71.2579 66.7695 70.9595 66.321 70.7566 65.8276C70.5537 65.3343 70.4504 64.8057 70.4525 64.2724V64.2939Z" stroke="#263238" stroke-linecap="round" stroke-linejoin="round"/>
                <path d="M298.088 206.278C298.088 206.278 294.743 208.43 294.075 208.968C293.407 209.506 290.331 210.173 290.735 211.12C291.139 212.066 295.012 212.588 296.084 212.588C297.156 212.588 301.293 210.436 302.365 210.189C303.437 209.941 303.442 208.72 303.033 207.784C302.591 206.963 302.048 206.2 301.417 205.514L298.61 206.315L298.088 206.278Z" fill="white" stroke="#263238" stroke-linecap="round" stroke-linejoin="round"/>
                <path d="M336.053 205.912C336.053 205.912 333.511 208.984 333.112 209.651C332.714 210.318 330.419 211.383 330.419 212.454C330.419 213.525 334.297 212.992 335.499 212.852C336.221 212.74 336.909 212.466 337.511 212.05C338.113 211.635 338.613 211.088 338.973 210.453C339.646 209.113 340.18 206.31 339.377 205.245C338.574 204.179 336.053 205.912 336.053 205.912Z" fill="white" stroke="#263238" stroke-linecap="round" stroke-linejoin="round"/>
                <path d="M303.97 146.764L303.862 147.571L303.033 153.973C303.033 153.973 295.599 164.459 292.879 169.919C291.489 172.706 289.55 176.015 289.819 176.946L298.088 206.278C298.714 206.585 299.395 206.768 300.092 206.816C300.733 206.793 301.366 206.659 301.961 206.417L301.584 179.27L313.057 166.665L314.528 168.531C314.528 168.531 318.336 182.024 319.941 184.16C321.547 186.296 335.39 206.31 335.39 206.31C336.103 206.642 336.877 206.825 337.664 206.848C338.87 206.848 339.404 205.234 339.404 205.234C339.404 205.234 329.444 180.674 329.169 179.872C328.894 179.071 329.099 159.428 329.099 159.428L327.483 149.949L325.614 143.939C325.614 143.939 322.139 144.876 316.257 144.607C310.375 144.338 304.762 143.939 304.762 143.939L303.97 146.764Z" fill="#263238" stroke="#263238" stroke-linecap="round" stroke-linejoin="round"/>
                <path d="M288.193 82.4152C288.193 82.4152 286.324 85.2181 286.038 86.9559C285.927 88.1119 286.262 89.2667 286.975 90.1839L285.898 92.4542C285.898 92.4542 289.507 99.7979 291.646 103.134C293.784 106.469 297.258 112.08 299.397 113.151C301.535 114.222 305.678 118.623 305.678 118.623L308.086 113.415C308.086 113.415 301.029 104.575 296.607 98.4368C293.933 94.7101 291.478 90.8318 289.254 86.8214C289.249 85.6593 289.339 84.4988 289.523 83.3513C289.698 82.3366 289.787 81.3089 289.787 80.2793L288.193 82.4152Z" fill="#263238" stroke="#263238" stroke-linecap="round" stroke-linejoin="round"/>
                <path d="M309.852 111.386C309.852 111.386 304.369 117.928 303.302 122.2C302.236 126.471 303.566 139.69 303.566 141.568C303.566 143.445 302.489 145.441 303.97 146.776C305.452 148.11 309.852 147.443 311.452 147.314C313.052 147.184 320.68 147.314 322.953 146.641C325.226 145.969 326.293 145.027 326.293 143.44C326.293 141.853 323.486 129.156 323.061 127.02C322.635 124.884 324.138 117.541 322.129 114.065C320.119 110.59 313.726 110.052 309.852 111.386Z" fill="white" stroke="#263238" stroke-linecap="round" stroke-linejoin="round"/>
                <path d="M308.915 112.322C308.915 112.322 302.23 119.128 301.293 122.733C300.356 126.337 297.016 133.283 295.949 136.355C295.02 138.778 293.941 141.141 292.717 143.429L293.919 148.234L296.994 144.898C296.994 144.898 300.07 134.348 301.675 129.942C303.281 125.536 303.544 121.398 303.83 120.199C304.115 118.999 308.915 112.322 308.915 112.322Z" fill="#263238" stroke="#263238" stroke-linecap="round" stroke-linejoin="round"/>
                <path d="M309.852 111.919C309.852 111.919 305.839 122.867 305.974 123.669C306.109 124.471 307.978 154.109 307.978 154.109C307.978 154.109 309.852 158.65 318.272 157.983C326.691 157.315 333.236 156.11 333.236 156.11C333.236 156.11 330.699 146.098 328.426 141.557C326.152 137.017 324.951 134.348 324.951 132.212C324.951 130.077 324.014 115.793 323.481 113.522C323.248 112.356 322.841 111.232 322.274 110.187L321.477 109.52L309.852 111.919Z" fill="#92E3A9" stroke="#263238" stroke-linecap="round" stroke-linejoin="round"/>
                <path d="M306.642 134.617L313.192 150.639C313.192 150.639 310.499 151.715 309.583 152.64C309.07 153.157 308.53 153.647 307.967 154.109L306.642 134.617Z" fill="#92E3A9" stroke="#263238" stroke-linecap="round" stroke-linejoin="round"/>
                <path d="M315.331 90.4257C315.331 90.4257 311.188 93.7613 311.188 94.6974C311.188 95.6335 310.111 96.9678 310.111 96.9678C310.111 96.9678 307.956 97.2368 307.838 98.0438C307.719 98.8508 308.506 100.449 308.506 100.449C308.506 100.449 307.17 104.989 307.709 106.055C308.247 107.12 312.115 107.26 312.115 107.26L312.25 110.197L321.477 108.728L321.342 106.458C321.342 106.458 326.287 101.116 328.695 98.8454C331.103 96.575 328.027 92.5723 325.086 89.5003C322.145 86.4283 315.191 86.4283 314.657 88.0316C314.492 88.4493 314.469 88.9095 314.59 89.3419C314.712 89.7742 314.972 90.1549 315.331 90.4257Z" fill="white" stroke="#263238" stroke-linecap="round" stroke-linejoin="round"/>
                <path d="M311.856 95.2297C312.152 95.0831 312.481 95.0182 312.809 95.0419C313.138 95.0655 313.455 95.1768 313.726 95.3642" stroke="#263238" stroke-linecap="round" stroke-linejoin="round"/>
                <path d="M311.996 97.1565C311.894 97.5869 311.959 97.9742 312.137 98.0119C312.314 98.0496 312.546 97.7429 312.648 97.3125C312.751 96.8821 312.686 96.5001 312.508 96.4571C312.33 96.4141 312.099 96.7261 311.996 97.1565Z" fill="#263238"/>
                <path d="M325.091 89.4886C322.15 86.4166 315.196 86.4166 314.663 88.0199C314.495 88.4384 314.469 88.9006 314.59 89.3351C314.71 89.7697 314.971 90.1526 315.331 90.4247C315.331 90.4247 319.877 90.9627 319.209 92.1625C318.541 93.3622 316.268 93.3622 316.801 94.1638C317.335 94.9654 319.209 96.6978 318.541 97.1013C317.873 97.5048 317.464 98.301 317.873 98.57C318.283 98.839 318.951 98.1665 320.567 98.4355C322.183 98.7045 321.768 102.438 320.297 102.976C318.827 103.514 318.143 102.842 320.836 105.247C321.152 105.523 321.518 105.739 321.913 105.881C323.249 104.445 326.81 100.657 328.738 98.8337C331.081 96.5633 328.033 92.5606 325.091 89.4886Z" fill="#263238" stroke="#263238" stroke-linecap="round" stroke-linejoin="round"/>
                <path d="M319.209 103.374L316.802 102.842L315.196 104.042" stroke="#263238" stroke-linecap="round" stroke-linejoin="round"/>
                <path d="M322.015 107.113L309.718 110.449L308.915 112.988L323.486 110.32L322.015 107.113Z" fill="#92E3A9" stroke="#263238" stroke-linecap="round" stroke-linejoin="round"/>
                <path d="M291.005 86.4173L290.601 83.6143C290.601 83.6143 291.802 79.7461 291.802 78.81C291.802 77.8739 290.87 75.738 290.87 75.2054C290.87 74.6728 290.067 73.8711 289.793 74.9364C289.518 76.0016 288.99 80.0097 288.99 80.0097C288.99 80.0097 287.255 82.9472 287.374 84.4159C287.492 85.8847 288.839 88.9567 288.839 88.9567L291.247 87.4879L291.005 86.4173Z" fill="white" stroke="#263238" stroke-linecap="round" stroke-linejoin="round"/>
                <path d="M292.739 88.5592L291.004 86.418L287.794 88.9573L289.663 92.1638L292.739 88.5592Z" fill="white" stroke="#263238" stroke-linecap="round" stroke-linejoin="round"/>
                <path d="M321.881 116.062C320.994 113.823 319.333 111.975 317.2 110.854C314.927 109.741 312.556 108.84 310.116 108.164L291.936 87.4727L288.327 91.0773C288.327 91.0773 295.949 106.964 297.42 109.633C298.89 112.301 315.864 130.615 315.864 130.615" fill="#92E3A9"/>
                <path d="M321.881 116.062C320.994 113.823 319.333 111.975 317.2 110.854C314.927 109.741 312.556 108.84 310.116 108.164L291.936 87.4727L288.327 91.0773C288.327 91.0773 295.949 106.964 297.42 109.633C298.89 112.301 315.864 130.615 315.864 130.615" stroke="#263238" stroke-linecap="round" stroke-linejoin="round"/>
                <path d="M163.389 203.527C163.389 203.527 160.83 207.159 160.292 209.176C159.753 211.194 159.888 213.884 161.234 213.615C162.581 213.346 165.678 209.983 165.948 209.042C166.217 208.1 167.16 203.796 167.16 203.796L163.928 203.527H163.389Z" fill="white" stroke="#263238" stroke-linecap="round" stroke-linejoin="round"/>
                <path d="M209.58 205.814C209.58 205.814 209.58 209.58 210.388 210.118C211.196 210.656 216.717 212.942 218.333 213.077C219.949 213.211 220.488 212.942 219.545 211.059C218.602 209.176 213.216 205.545 213.216 205.545L209.58 205.814Z" fill="white" stroke="#263238" stroke-linecap="round" stroke-linejoin="round"/>
                <path d="M176.452 142.195L173.354 155.242L171.738 179.721C171.738 179.721 165.813 189.943 165.274 193.709C164.736 197.475 162.985 205.141 162.985 205.141C162.985 205.141 165.409 206.217 165.813 206.217C166.217 206.217 171.065 199.223 173.758 196.533C176.452 193.843 182.512 182.276 182.781 181.738C183.05 181.2 187.36 164.119 187.629 163.581C187.898 163.043 189.514 162.37 189.514 162.37C189.514 162.37 197.627 174.018 198.607 174.997C200.174 176.563 202.712 180.528 202.712 180.528C202.712 180.528 208.233 202.451 208.637 203.527C208.929 204.536 209.11 205.573 209.176 206.621L214.158 207.697C214.158 207.697 214.562 193.036 214.293 189.539C214.024 186.042 212.946 178.51 212.946 178.51C212.946 178.51 204.732 156.049 204.328 155.511C203.924 154.973 201.5 149.593 201.5 149.593L200.692 144.482C195.954 145.807 190.97 145.992 186.148 145.02C178.068 143.406 176.452 142.195 176.452 142.195Z" fill="#263238" stroke="#263238" stroke-linecap="round" stroke-linejoin="round"/>
                <path d="M184.063 105.724C181.138 107.656 178.102 109.415 174.97 110.991C170.839 112.966 169.853 114.94 169.853 115.925C169.853 116.909 166.26 133.232 166.53 134.125C166.799 135.018 169.223 136.369 170.753 136.729C172.283 137.09 174.432 136.638 174.879 136.277C175.326 135.917 176.764 129.821 176.764 129.821C176.764 129.821 175.956 140.85 175.601 142.287C175.245 143.723 178.563 147.398 181.795 148.027C185.027 148.657 193.732 148.651 195.978 147.936C198.225 147.22 199.749 147.037 200.466 145.692C201.182 144.347 201.634 134.755 201.726 134.125C201.818 133.496 202.534 127.761 202.534 127.761L204.866 135.653L205.766 137.267C205.766 137.267 206.213 136.277 208.998 134.663C211.783 133.049 212.677 132.872 212.677 132.872C212.677 132.872 211.061 127.583 210.075 124.533C209.09 121.482 208.098 115.925 206.843 113.681C205.588 111.438 203.342 110.453 200.288 108.57C197.234 106.687 192.746 105.611 192.208 105.342C191.669 105.073 186.87 104.675 184.063 105.724Z" fill="white" stroke="#263238" stroke-linecap="round" stroke-linejoin="round"/>
                <path d="M176.764 129.822L178.66 123.264" stroke="#263238" stroke-linecap="round" stroke-linejoin="round"/>
                <path d="M203.848 121.639L204.171 120.154" stroke="#263238" stroke-linecap="round" stroke-linejoin="round"/>
                <path d="M202.534 127.762L203.563 122.984" stroke="#263238" stroke-linecap="round" stroke-linejoin="round"/>
                <path d="M186.417 116.102L188.302 118.792L189.38 121.213L186.686 143.54L190.457 147.037L193.42 143.137L190.726 121.482L192.342 118.389L194.492 114.876L190.592 112.605L186.417 116.102Z" fill="#92E3A9" stroke="#263238" stroke-linecap="round" stroke-linejoin="round"/>
                <path d="M185.103 104.762C185.103 104.762 183.233 105.251 182.824 106.376C182.415 107.5 182.986 114.344 183.557 115.807C184.021 116.906 184.561 117.972 185.173 118.997C185.173 118.997 190.171 115.807 191.066 115.646C191.96 115.484 197.093 118.169 197.093 118.169C197.093 118.169 197.255 114.995 195.477 110.524C193.7 106.053 189.552 103.53 187.742 103.363C187.214 103.319 186.685 103.427 186.217 103.675C185.749 103.923 185.362 104.301 185.103 104.762Z" fill="white" stroke="#263238" stroke-linecap="round" stroke-linejoin="round"/>
                <path d="M184.359 104.197C184.359 104.197 184.607 107.043 184.85 108.991C185.092 110.938 188.108 117.373 189.159 118.266C190.209 119.159 192.391 116.232 193.15 114.93C193.47 114.338 193.83 113.768 194.228 113.225C194.228 113.225 189.019 110.702 187.392 107.775C185.765 104.848 185.922 103.471 185.189 103.38C184.456 103.288 184.359 104.197 184.359 104.197Z" fill="white" stroke="#263238" stroke-linecap="round" stroke-linejoin="round"/>
                <path d="M186.988 111.191L190.99 117.647C190.99 117.647 192.832 115.947 193.145 114.957C193.457 113.967 186.988 111.191 186.988 111.191Z" fill="#263238" stroke="#263238" stroke-linecap="round" stroke-linejoin="round"/>
                <path d="M182.792 99.6295C182.444 100.562 182.314 101.561 182.409 102.551C182.533 104.332 183.551 105.601 184.063 105.725C184.525 105.812 184.994 105.855 185.464 105.854C185.464 105.854 185.588 109.028 186.988 111.191C188.389 113.354 193.097 116.399 194.492 114.876C195.887 113.354 197.675 107.253 198.311 104.332C198.711 102.443 199.007 100.534 199.2 98.6127L189.789 96.4607L185.334 95.4492L182.792 99.6295Z" fill="white" stroke="#263238" stroke-linecap="round" stroke-linejoin="round"/>
                <path d="M188.259 98.3813C188.259 98.3813 188.771 100.033 187.753 101.071C186.735 102.11 186.353 102.088 186.353 102.088C186.353 102.088 186.606 103.74 186.223 103.74C186.055 103.743 185.888 103.712 185.732 103.649C185.576 103.585 185.435 103.492 185.316 103.373C185.197 103.253 185.104 103.112 185.041 102.956C184.979 102.8 184.948 102.633 184.952 102.465C184.919 101.784 184.699 101.125 184.316 100.56L182.792 99.6725C182.422 97.8227 182.465 95.9143 182.916 94.0827C183.681 91.1613 189.148 90.0154 193.732 90.1445C198.316 90.2736 199.453 96.1163 199.453 96.1163C200.423 96.555 201.359 97.0638 202.254 97.6388C202.636 98.0208 203.019 98.9085 200.853 100.054C198.688 101.2 194.874 101.577 192.585 100.689C191.068 100.069 189.619 99.2953 188.259 98.3813Z" fill="#263238" stroke="#263238" stroke-linecap="round" stroke-linejoin="round"/>
                <path d="M191.346 105.139C191.195 105.613 190.888 105.936 190.651 105.866C190.414 105.796 190.344 105.328 190.489 104.876C190.635 104.424 190.947 104.08 191.179 104.155C191.41 104.23 191.491 104.671 191.346 105.139Z" fill="#263238"/>
                <path d="M196.635 105.548C196.49 106.021 196.178 106.344 195.946 106.269C195.714 106.193 195.633 105.731 195.779 105.284C195.924 104.838 196.237 104.488 196.474 104.558C196.711 104.628 196.781 105.074 196.635 105.548Z" fill="#263238"/>
                <path d="M189.412 103.547C189.412 103.547 190.231 102.325 192.105 102.815" stroke="#263238" stroke-linecap="round" stroke-linejoin="round"/>
                <path d="M195.192 103.378C195.359 103.22 195.556 103.098 195.773 103.02C195.989 102.942 196.219 102.91 196.449 102.926C196.678 102.941 196.902 103.005 197.106 103.111C197.309 103.218 197.489 103.366 197.632 103.545" stroke="#263238" stroke-linecap="round" stroke-linejoin="round"/>
                <path d="M192.644 109.238C191.869 109.263 191.102 109.399 190.366 109.642C189.143 110.051 187.354 109.561 188.168 110.621C188.981 111.681 190.527 112.004 192.154 112.004C193.781 112.004 195.251 111.923 195.742 111.191C196.232 110.46 196.959 109.728 196.393 109.642C195.828 109.556 193.625 109.4 193.377 109.4C193.127 109.373 192.882 109.319 192.644 109.238Z" fill="#263238" stroke="#263238" stroke-linecap="round" stroke-linejoin="round"/>
                <path d="M194.798 104.52C194.798 104.52 194.637 108.99 194.475 109.808C194.449 110.025 194.358 110.229 194.213 110.392C194.068 110.556 193.877 110.672 193.665 110.724C193.453 110.777 193.23 110.763 193.025 110.686C192.82 110.609 192.644 110.472 192.52 110.292C192.003 109.613 191.565 108.876 191.216 108.097" fill="white"/>
                <path d="M194.798 104.52C194.798 104.52 194.637 108.99 194.475 109.808C194.449 110.025 194.358 110.229 194.213 110.392C194.068 110.556 193.877 110.672 193.665 110.724C193.453 110.777 193.23 110.763 193.025 110.686C192.82 110.609 192.644 110.472 192.52 110.292C192.003 109.613 191.565 108.876 191.216 108.097" stroke="#263238" stroke-linecap="round" stroke-linejoin="round"/>
                <path d="M212.138 130.898C212.138 130.898 208.26 131.533 206.644 132.609C205.028 133.685 204.462 134.621 204.866 135.654C205.212 136.669 205.663 137.644 206.213 138.565C206.886 139.641 208.098 138.834 208.098 138.834C207.985 138.713 207.899 138.571 207.844 138.415C207.789 138.26 207.768 138.094 207.78 137.93C207.793 137.766 207.84 137.606 207.918 137.46C207.996 137.315 208.103 137.187 208.233 137.085C209.176 136.144 212.677 134.799 212.677 134.799H213.889C214.428 134.799 213.889 133.319 213.485 132.647C213.081 131.974 213.081 130.629 212.138 130.898Z" fill="white" stroke="#263238" stroke-linecap="round" stroke-linejoin="round"/>
                <path d="M166.486 137.354C166.486 137.354 166.486 141.254 166.756 145.155C167.025 149.055 170.257 159.95 170.257 159.95L173.489 159.143C173.489 159.143 173.354 148.921 173.354 145.693C173.354 142.465 173.22 138.564 173.22 138.564L166.486 137.354Z" fill="white" stroke="#263238" stroke-linecap="round" stroke-linejoin="round"/>
                <path d="M165.899 134.637C165.919 134.469 165.983 134.309 166.085 134.172C166.186 134.036 166.321 133.929 166.477 133.861C166.632 133.793 166.803 133.767 166.972 133.785C167.141 133.803 167.302 133.865 167.44 133.965C168.327 134.553 169.336 134.93 170.392 135.068C171.681 135.297 172.996 135.338 174.297 135.191C174.427 135.174 174.56 135.19 174.683 135.237C174.806 135.284 174.915 135.361 175 135.461C175.085 135.561 175.144 135.681 175.171 135.81C175.197 135.938 175.192 136.072 175.153 136.198C174.814 137.311 174.302 138.828 173.893 139.237C173.22 139.91 169.988 139.91 168.372 139.372C166.756 138.834 166.352 138.43 165.948 137.085C165.788 136.278 165.771 135.45 165.899 134.637Z" fill="white" stroke="#263238" stroke-linecap="round" stroke-linejoin="round"/>
                <path d="M228.702 147.845C229.009 146.867 229.566 145.986 230.318 145.289C231.53 144.213 232.069 143.944 230.857 143.81C229.645 143.675 228.164 145.558 228.164 145.558L228.702 147.845Z" fill="white" stroke="#263238" stroke-linecap="round" stroke-linejoin="round"/>
                <path d="M208.098 138.834C208.921 139.66 209.877 140.342 210.926 140.851C212.946 141.927 223.046 147.442 223.046 147.442L226.682 145.29C226.682 145.29 221.026 142.734 218.468 140.044C215.909 137.354 213.889 134.799 213.889 134.799C213.889 134.799 207.156 135.202 208.098 138.834Z" fill="white" stroke="#263238" stroke-linecap="round" stroke-linejoin="round"/>
                <path d="M221.296 145.962C221.296 145.962 221.835 148.786 222.777 148.921C223.72 149.055 228.299 148.652 228.703 147.845C229.107 147.038 229.376 144.213 228.703 144.079C228.029 143.944 221.296 145.962 221.296 145.962Z" fill="white" stroke="#263238" stroke-linecap="round" stroke-linejoin="round"/>
                <path d="M170.666 163.221C170.032 162.414 169.199 161.785 168.248 161.397C166.734 160.822 166.136 160.757 167.224 160.203C168.312 159.649 170.359 160.892 170.359 160.892L170.666 163.221Z" fill="white" stroke="#263238" stroke-linecap="round" stroke-linejoin="round"/>
                <path d="M176.926 158.848C176.926 158.848 177.421 161.678 176.586 162.135C175.751 162.592 171.329 163.83 170.661 163.211C169.993 162.592 168.743 160.047 169.33 159.687C169.918 159.326 176.926 158.848 176.926 158.848Z" fill="white" stroke="#263238" stroke-linecap="round" stroke-linejoin="round"/>
                <path d="M40.7397 180.106C40.7397 180.106 41.2083 178.411 41.2191 178.304C41.4023 177.018 40.9929 174.435 39.6839 173.801C39.4633 173.702 39.2243 173.651 38.9825 173.65C38.7408 173.65 38.5017 173.7 38.2807 173.798C38.0597 173.896 37.8618 174.039 37.6999 174.219C37.5379 174.398 37.4156 174.609 37.3407 174.839C36.9906 175.802 37.4377 176.991 37.9602 177.793C38.585 178.75 40.7397 180.106 40.7397 180.106Z" fill="#263238"/>
                <path d="M14.9592 179.546C16.0042 180.004 18.5521 179.945 18.5575 179.945C18.5629 179.945 18.0188 178.277 17.9596 178.175C17.4209 177.007 15.6272 175.076 14.1889 175.269C13.9507 175.308 13.7234 175.397 13.5218 175.529C13.3201 175.662 13.1487 175.835 13.0186 176.038C12.8885 176.241 12.8027 176.469 12.7667 176.708C12.7308 176.946 12.7455 177.189 12.8099 177.421C13.047 178.417 14.0704 179.159 14.9592 179.546Z" fill="#263238"/>
                <path d="M15.8428 186.927C16.9202 187.083 19.1987 186.427 19.3819 186.389C19.7544 187.69 20.2151 188.965 20.7609 190.203C21.0733 190.93 21.4127 191.645 21.7574 192.355C21.5527 192.049 21.3642 191.78 21.3319 191.742C20.4862 190.763 18.2668 189.369 16.931 189.934C16.7113 190.035 16.5153 190.18 16.3556 190.361C16.1959 190.543 16.0761 190.755 16.004 190.985C15.9318 191.216 15.909 191.459 15.9369 191.698C15.9648 191.938 16.0429 192.169 16.166 192.377C16.6616 193.275 17.8467 193.716 18.8055 193.856C19.7643 193.996 21.7305 193.474 22.2422 193.318C22.3823 193.593 22.5115 193.856 22.6516 194.141C23.3088 195.454 23.9767 196.762 24.5854 198.058C24.8009 198.515 24.9948 198.978 25.1941 199.435C25.011 199.166 24.8494 198.94 24.8224 198.897C23.9767 197.918 21.7574 196.519 20.4215 197.09C20.2026 197.19 20.0073 197.336 19.8481 197.516C19.6889 197.697 19.5694 197.909 19.4973 198.139C19.4253 198.368 19.4022 198.611 19.4296 198.85C19.4571 199.089 19.5344 199.319 19.6566 199.527C20.1522 200.42 21.3372 200.866 22.2961 201.006C23.2549 201.146 25.0271 200.673 25.6412 200.506C25.8297 200.979 26.0183 201.458 26.1799 201.926C26.2822 202.249 26.4007 202.556 26.4869 202.884C26.5731 203.212 26.67 203.53 26.7562 203.847C26.9071 204.471 27.0633 205.106 27.1926 205.719C27.2895 206.139 27.3703 206.542 27.4511 206.951C27.241 206.494 26.8155 205.606 26.7724 205.536C26.0775 204.46 24.0791 202.723 22.6893 203.078C22.4572 203.144 22.2416 203.258 22.0566 203.413C21.8716 203.568 21.7214 203.76 21.6157 203.977C21.51 204.193 21.4512 204.43 21.4431 204.671C21.4351 204.912 21.4779 205.152 21.5689 205.375C21.919 206.338 23.0233 206.957 23.9498 207.242C24.9679 207.554 27.2303 207.269 27.5104 207.242C27.645 207.914 27.7689 208.571 27.882 209.195C28.1083 210.491 28.286 211.664 28.4207 212.665H29.3688C29.2072 211.626 28.9971 210.4 28.7278 209.033C28.5931 208.35 28.4315 207.618 28.2645 206.881C28.945 206.609 29.6088 206.296 30.2522 205.945C30.9955 206.752 32.9024 207.694 33.1502 207.812C32.8916 208.447 32.6115 209.066 32.3799 209.647C31.8843 210.782 31.4103 211.799 30.9902 212.67H32.0136C32.3745 211.874 32.7678 210.97 33.1718 209.98C33.4357 209.335 33.7104 208.635 33.9798 207.92C34.2545 207.979 36.4899 208.431 37.535 208.194C38.4776 207.984 39.625 207.452 40.0505 206.515C40.1572 206.301 40.2177 206.067 40.2283 205.828C40.2389 205.589 40.1993 205.35 40.1121 205.127C40.0248 204.904 39.8918 204.702 39.7217 204.533C39.5515 204.365 39.3479 204.234 39.124 204.148C37.7504 203.686 35.6442 205.224 34.8739 206.3C34.8308 206.365 34.4107 207.086 34.1521 207.543C34.2652 207.253 34.373 206.967 34.4807 206.666C34.7016 206.064 34.9063 205.461 35.1217 204.815L35.4126 203.852C35.515 203.535 35.5796 203.185 35.6712 202.846C35.8597 202.061 36.0105 201.232 36.1452 200.441C36.6839 200.63 38.5423 201.286 39.5172 201.216C40.4922 201.146 41.6719 200.791 42.2537 199.936C42.3927 199.738 42.4885 199.514 42.5348 199.277C42.5811 199.041 42.577 198.797 42.5226 198.562C42.4682 198.327 42.3648 198.106 42.2192 197.913C42.0735 197.721 41.8889 197.561 41.6773 197.445C40.3845 196.778 38.0682 197.983 37.1525 198.919C37.0932 198.978 36.5061 199.704 36.1937 200.113C36.2691 199.624 36.3499 199.134 36.4091 198.634C36.5869 197.197 36.727 195.734 36.867 194.276C36.9101 193.829 36.9586 193.383 37.0071 192.942C37.1902 193.012 39.4041 193.829 40.4922 193.754C41.4618 193.69 42.6738 193.334 43.234 192.474C43.3728 192.276 43.4683 192.051 43.5143 191.814C43.5602 191.577 43.5556 191.333 43.5007 191.098C43.4458 190.863 43.3418 190.642 43.1956 190.45C43.0494 190.258 42.8643 190.099 42.6523 189.983C41.3649 189.316 39.0486 190.521 38.1275 191.457C38.0575 191.527 37.2171 192.581 37.0124 192.856C37.1202 191.877 37.2333 190.903 37.3787 189.945C37.5689 188.64 37.8405 187.348 38.1921 186.077C38.2783 186.109 40.5838 186.981 41.6988 186.9C42.6631 186.835 43.8535 186.48 44.4353 185.62C44.5743 185.422 44.6701 185.198 44.7164 184.961C44.7627 184.724 44.7586 184.481 44.7042 184.245C44.6498 184.01 44.5464 183.79 44.4008 183.597C44.2551 183.405 44.0705 183.245 43.8589 183.129C42.5661 182.461 40.2552 183.667 39.3341 184.603C39.2748 184.667 38.6284 185.464 38.3322 185.851L38.2622 185.813C38.659 184.557 39.1693 183.34 39.7866 182.176C40.1152 181.531 40.4653 180.928 40.8208 180.353C41.2356 180.562 43.1317 181.482 44.1444 181.52C45.1571 181.558 46.3529 181.342 47.0047 180.546C47.1645 180.365 47.2842 180.153 47.3561 179.922C47.428 179.692 47.4505 179.449 47.422 179.209C47.3935 178.97 47.3148 178.739 47.1909 178.531C47.067 178.324 46.9008 178.146 46.7031 178.007C45.4964 177.205 43.0563 178.174 42.0436 178.981C41.9897 179.024 41.5049 179.519 41.1117 179.906C41.2733 179.648 41.4403 179.368 41.6019 179.137C42.2106 178.222 42.8247 177.426 43.3741 176.721C43.6865 176.323 43.9774 175.968 44.2575 175.645C44.7962 175.645 46.827 175.575 47.7211 175.155C48.6153 174.736 49.6065 173.972 49.8166 172.971C49.8747 172.737 49.8829 172.493 49.8404 172.256C49.798 172.019 49.7059 171.793 49.5702 171.593C49.4345 171.394 49.2582 171.225 49.0528 171.098C48.8475 170.971 48.6176 170.889 48.3783 170.857C46.9347 170.701 45.2163 172.681 44.6884 173.864C44.64 173.966 44.1121 175.65 44.1498 175.65H44.1821C43.9074 175.962 43.6165 176.296 43.3095 176.673C42.7708 177.367 42.1136 178.152 41.4834 179.061C40.7898 180.026 40.1566 181.032 39.5873 182.074C38.9429 183.239 38.4022 184.457 37.9713 185.716C37.9713 185.716 37.9713 185.716 37.9713 185.759C37.9713 185.334 37.9713 184.145 37.9713 184.054C37.8097 182.768 36.727 180.385 35.2779 180.121C35.0395 180.083 34.7956 180.096 34.5624 180.158C34.3291 180.221 34.1118 180.332 33.9246 180.484C33.7374 180.637 33.5846 180.827 33.4762 181.043C33.3678 181.258 33.3063 181.494 33.2956 181.735C33.2095 182.757 33.9528 183.78 34.6746 184.425C35.488 185.151 37.7504 185.856 37.9066 185.91C37.5077 187.199 37.1946 188.513 36.9694 189.843C36.8347 190.618 36.7162 191.408 36.6138 192.194C36.6138 191.828 36.6138 191.5 36.6138 191.451C36.4468 190.171 35.3695 187.782 33.9205 187.519C33.6821 187.481 33.4386 187.495 33.2057 187.558C32.9729 187.621 32.7559 187.732 32.5689 187.884C32.3819 188.036 32.2291 188.226 32.1204 188.441C32.0118 188.656 31.9497 188.892 31.9382 189.133C31.8574 190.155 32.5954 191.177 33.3172 191.823C34.039 192.468 35.9728 193.114 36.4792 193.281L36.366 194.19C36.1937 195.648 36.0267 197.1 35.8274 198.521C35.752 199.021 35.6604 199.511 35.5742 200.006C35.5742 199.678 35.5742 199.403 35.5742 199.36C35.4072 198.074 34.3299 195.691 32.8809 195.427C32.6424 195.389 32.3985 195.402 32.1653 195.464C31.9321 195.527 31.7147 195.638 31.5275 195.791C31.3403 195.943 31.1875 196.133 31.0791 196.349C30.9707 196.564 30.9092 196.8 30.8986 197.041C30.8124 198.064 31.5558 199.086 32.2776 199.731C32.9994 200.377 34.7447 200.958 35.348 201.157C35.2402 201.657 35.1379 202.158 35.014 202.637C34.917 202.965 34.8524 203.282 34.7393 203.605L34.4322 204.563C34.2114 205.16 33.9905 205.778 33.7643 206.359C33.6081 206.763 33.4519 207.145 33.2956 207.532C33.3764 207.032 33.5111 206.053 33.5111 205.972C33.4935 204.838 33.1856 203.726 32.6169 202.744C32.6276 202.617 32.6276 202.489 32.6169 202.362C32.5871 202.123 32.5071 201.893 32.3823 201.686C32.2574 201.48 32.0905 201.302 31.8923 201.165C31.6941 201.027 31.4691 200.933 31.232 200.888C30.9949 200.843 30.751 200.849 30.5161 200.904C29.1102 201.281 28.2214 203.745 28.1514 205.036C28.1514 205.111 28.1999 205.945 28.243 206.472C28.1675 206.166 28.1029 205.87 28.0275 205.558C27.882 204.934 27.7151 204.32 27.5427 203.659L27.2518 202.701C27.1602 202.378 27.0202 202.045 26.9124 201.717C26.6323 200.958 26.3145 200.205 25.9752 199.452C26.5138 199.322 28.4423 198.833 29.2072 198.236C29.9721 197.638 30.7908 196.686 30.7801 195.659C30.7867 195.415 30.7412 195.173 30.6466 194.948C30.5521 194.723 30.4106 194.521 30.2317 194.355C30.0528 194.189 29.8406 194.063 29.6091 193.985C29.3776 193.908 29.1323 193.88 28.8894 193.905C27.4403 194.061 26.196 196.363 25.9267 197.633C25.9267 197.708 25.8243 198.645 25.7866 199.156C25.5819 198.704 25.3772 198.252 25.151 197.805C24.5046 196.503 23.8151 195.207 23.1256 193.916C22.9155 193.517 22.7108 193.119 22.5062 192.721C22.7001 192.678 24.9948 192.145 25.862 191.484C26.6323 190.892 27.4457 189.929 27.4403 188.907C27.4468 188.664 27.4015 188.423 27.3076 188.199C27.2137 187.975 27.0733 187.773 26.8956 187.607C26.7179 187.441 26.507 187.315 26.2768 187.237C26.0467 187.159 25.8025 187.13 25.5604 187.153C24.1168 187.309 22.8671 189.606 22.5977 190.876C22.5977 190.973 22.4577 192.312 22.4469 192.657C21.989 191.78 21.5419 190.903 21.1379 190.026C20.5914 188.834 20.1218 187.608 19.732 186.357C19.8236 186.357 22.226 185.819 23.1095 185.114C23.8798 184.522 24.6931 183.559 24.6878 182.537C24.6946 182.296 24.6505 182.056 24.5582 181.833C24.4659 181.61 24.3276 181.408 24.1522 181.242C23.9768 181.076 23.7683 180.949 23.5404 180.869C23.3125 180.789 23.0702 180.758 22.8294 180.778C21.3857 180.934 20.136 183.231 19.8721 184.501C19.8721 184.587 19.759 185.609 19.7266 186.115H19.6458C19.2824 184.846 19.0336 183.548 18.9025 182.236C18.8217 181.515 18.784 180.821 18.7678 180.148C19.2257 180.089 21.3103 179.815 22.1776 179.293C23.0448 178.771 23.9228 177.921 24.0306 176.899C24.0632 176.66 24.0451 176.417 23.9776 176.186C23.91 175.955 23.7945 175.74 23.6385 175.557C23.4826 175.373 23.2896 175.224 23.0722 175.12C22.8549 175.015 22.6179 174.958 22.3769 174.951C20.9225 174.951 19.425 177.103 19.021 178.324C19.021 178.394 18.854 179.099 18.757 179.615C18.757 179.309 18.757 178.997 18.757 178.701C18.757 177.625 18.8324 176.603 18.8971 175.71C18.9402 175.204 18.994 174.747 19.0425 174.322C19.4627 174.036 21.1433 172.847 21.6604 172.003C22.1776 171.158 22.5762 169.98 22.1991 169.028C22.1187 168.8 21.9912 168.593 21.8248 168.418C21.6585 168.244 21.4571 168.106 21.2338 168.015C21.0106 167.923 20.7705 167.88 20.5293 167.888C20.2882 167.895 20.0513 167.954 19.8344 168.059C18.5416 168.726 18.2184 171.32 18.4177 172.6C18.4177 172.708 18.924 174.402 18.9563 174.391C18.8971 174.8 18.8432 175.242 18.7894 175.726C18.7032 176.613 18.6116 177.619 18.5847 178.722C18.5398 179.908 18.5686 181.096 18.6708 182.279C18.7697 183.607 18.9897 184.923 19.328 186.211V186.254C19.0964 185.894 18.4231 184.915 18.3638 184.845C17.5181 183.866 15.2988 182.467 13.9629 183.037C13.7434 183.137 13.5475 183.282 13.3878 183.463C13.2281 183.643 13.1083 183.855 13.0362 184.085C12.964 184.315 12.9412 184.558 12.969 184.797C12.9969 185.036 13.0749 185.267 13.198 185.474C13.699 186.34 14.884 186.787 15.8428 186.927Z" fill="#263238"/>
                <path opacity="0.3" d="M14.9592 179.546C16.0042 180.004 18.5521 179.945 18.5575 179.945C18.5629 179.945 18.0188 178.277 17.9596 178.175C17.4209 177.007 15.6272 175.076 14.1889 175.269C13.9507 175.308 13.7234 175.397 13.5218 175.529C13.3201 175.662 13.1487 175.835 13.0186 176.038C12.8885 176.241 12.8027 176.469 12.7667 176.708C12.7308 176.946 12.7455 177.189 12.8099 177.421C13.047 178.417 14.0704 179.159 14.9592 179.546Z" fill="#263238"/>
                <path opacity="0.3" d="M40.7397 180.106C40.7397 180.106 41.2083 178.411 41.2191 178.304C41.4023 177.018 40.9929 174.435 39.6839 173.801C39.4633 173.702 39.2243 173.651 38.9825 173.65C38.7408 173.65 38.5017 173.7 38.2807 173.798C38.0597 173.896 37.8618 174.039 37.6999 174.219C37.5379 174.398 37.4156 174.609 37.3407 174.839C36.9906 175.802 37.4377 176.991 37.9602 177.793C38.585 178.75 40.7397 180.106 40.7397 180.106Z" fill="#263238"/>
                <path opacity="0.3" d="M15.8428 186.927C16.9202 187.083 19.1987 186.427 19.3819 186.389C19.7544 187.69 20.2151 188.965 20.7609 190.203C21.0733 190.93 21.4127 191.645 21.7574 192.355C21.5527 192.049 21.3642 191.78 21.3319 191.742C20.4862 190.763 18.2668 189.369 16.931 189.934C16.7113 190.035 16.5153 190.18 16.3556 190.361C16.1959 190.543 16.0761 190.755 16.004 190.985C15.9318 191.216 15.909 191.459 15.9369 191.698C15.9648 191.938 16.0429 192.169 16.166 192.377C16.6616 193.275 17.8467 193.716 18.8055 193.856C19.7643 193.996 21.7305 193.474 22.2422 193.318C22.3823 193.593 22.5115 193.856 22.6516 194.141C23.3088 195.454 23.9767 196.762 24.5854 198.058C24.8009 198.515 24.9948 198.978 25.1941 199.435C25.011 199.166 24.8494 198.94 24.8224 198.897C23.9767 197.918 21.7574 196.519 20.4215 197.09C20.2026 197.19 20.0073 197.336 19.8481 197.516C19.6889 197.697 19.5694 197.909 19.4973 198.139C19.4253 198.368 19.4022 198.611 19.4296 198.85C19.4571 199.089 19.5344 199.319 19.6566 199.527C20.1522 200.42 21.3372 200.866 22.2961 201.006C23.2549 201.146 25.0271 200.673 25.6412 200.506C25.8297 200.979 26.0183 201.458 26.1799 201.926C26.2822 202.249 26.4007 202.556 26.4869 202.884C26.5731 203.212 26.67 203.53 26.7562 203.847C26.9071 204.471 27.0633 205.106 27.1926 205.719C27.2895 206.139 27.3703 206.542 27.4511 206.951C27.241 206.494 26.8155 205.606 26.7724 205.536C26.0775 204.46 24.0791 202.723 22.6893 203.078C22.4572 203.144 22.2416 203.258 22.0566 203.413C21.8716 203.568 21.7214 203.76 21.6157 203.977C21.51 204.193 21.4512 204.43 21.4431 204.671C21.4351 204.912 21.4779 205.152 21.5689 205.375C21.919 206.338 23.0233 206.957 23.9498 207.242C24.9679 207.554 27.2303 207.269 27.5104 207.242C27.645 207.914 27.7689 208.571 27.882 209.195C28.1083 210.491 28.286 211.664 28.4207 212.665H29.3688C29.2072 211.626 28.9971 210.4 28.7278 209.033C28.5931 208.35 28.4315 207.618 28.2645 206.881C28.945 206.609 29.6088 206.296 30.2522 205.945C30.9955 206.752 32.9024 207.694 33.1502 207.812C32.8916 208.447 32.6115 209.066 32.3799 209.647C31.8843 210.782 31.4103 211.799 30.9902 212.67H32.0136C32.3745 211.874 32.7678 210.97 33.1718 209.98C33.4357 209.335 33.7104 208.635 33.9798 207.92C34.2545 207.979 36.4899 208.431 37.535 208.194C38.4776 207.984 39.625 207.452 40.0505 206.515C40.1572 206.301 40.2177 206.067 40.2283 205.828C40.2389 205.589 40.1993 205.35 40.1121 205.127C40.0248 204.904 39.8918 204.702 39.7217 204.533C39.5515 204.365 39.3479 204.234 39.124 204.148C37.7504 203.686 35.6442 205.224 34.8739 206.3C34.8308 206.365 34.4107 207.086 34.1521 207.543C34.2652 207.253 34.373 206.967 34.4807 206.666C34.7016 206.064 34.9063 205.461 35.1217 204.815L35.4126 203.852C35.515 203.535 35.5796 203.185 35.6712 202.846C35.8597 202.061 36.0105 201.232 36.1452 200.441C36.6839 200.63 38.5423 201.286 39.5172 201.216C40.4922 201.146 41.6719 200.791 42.2537 199.936C42.3927 199.738 42.4885 199.514 42.5348 199.277C42.5811 199.041 42.577 198.797 42.5226 198.562C42.4682 198.327 42.3648 198.106 42.2192 197.913C42.0735 197.721 41.8889 197.561 41.6773 197.445C40.3845 196.778 38.0682 197.983 37.1525 198.919C37.0932 198.978 36.5061 199.704 36.1937 200.113C36.2691 199.624 36.3499 199.134 36.4091 198.634C36.5869 197.197 36.727 195.734 36.867 194.276C36.9101 193.829 36.9586 193.383 37.0071 192.942C37.1902 193.012 39.4041 193.829 40.4922 193.754C41.4618 193.69 42.6738 193.334 43.234 192.474C43.3728 192.276 43.4683 192.051 43.5143 191.814C43.5602 191.577 43.5556 191.333 43.5007 191.098C43.4458 190.863 43.3418 190.642 43.1956 190.45C43.0494 190.258 42.8643 190.099 42.6523 189.983C41.3649 189.316 39.0486 190.521 38.1275 191.457C38.0575 191.527 37.2171 192.581 37.0124 192.856C37.1202 191.877 37.2333 190.903 37.3787 189.945C37.5689 188.64 37.8405 187.348 38.1921 186.077C38.2783 186.109 40.5838 186.981 41.6988 186.9C42.6631 186.835 43.8535 186.48 44.4353 185.62C44.5743 185.422 44.6701 185.198 44.7164 184.961C44.7627 184.724 44.7586 184.481 44.7042 184.245C44.6498 184.01 44.5464 183.79 44.4008 183.597C44.2551 183.405 44.0705 183.245 43.8589 183.129C42.5661 182.461 40.2552 183.667 39.3341 184.603C39.2748 184.667 38.6284 185.464 38.3322 185.851L38.2622 185.813C38.659 184.557 39.1693 183.34 39.7866 182.176C40.1152 181.531 40.4653 180.928 40.8208 180.353C41.2356 180.562 43.1317 181.482 44.1444 181.52C45.1571 181.558 46.3529 181.342 47.0047 180.546C47.1645 180.365 47.2842 180.153 47.3561 179.922C47.428 179.692 47.4505 179.449 47.422 179.209C47.3935 178.97 47.3148 178.739 47.1909 178.531C47.067 178.324 46.9008 178.146 46.7031 178.007C45.4964 177.205 43.0563 178.174 42.0436 178.981C41.9897 179.024 41.5049 179.519 41.1117 179.906C41.2733 179.648 41.4403 179.368 41.6019 179.137C42.2106 178.222 42.8247 177.426 43.3741 176.721C43.6865 176.323 43.9774 175.968 44.2575 175.645C44.7962 175.645 46.827 175.575 47.7211 175.155C48.6153 174.736 49.6065 173.972 49.8166 172.971C49.8747 172.737 49.8829 172.493 49.8404 172.256C49.798 172.019 49.7059 171.793 49.5702 171.593C49.4345 171.394 49.2582 171.225 49.0528 171.098C48.8475 170.971 48.6176 170.889 48.3783 170.857C46.9347 170.701 45.2163 172.681 44.6884 173.864C44.64 173.966 44.1121 175.65 44.1498 175.65H44.1821C43.9074 175.962 43.6165 176.296 43.3095 176.673C42.7708 177.367 42.1136 178.152 41.4834 179.061C40.7898 180.026 40.1566 181.032 39.5873 182.074C38.9429 183.239 38.4022 184.457 37.9713 185.716C37.9713 185.716 37.9713 185.716 37.9713 185.759C37.9713 185.334 37.9713 184.145 37.9713 184.054C37.8097 182.768 36.727 180.385 35.2779 180.121C35.0395 180.083 34.7956 180.096 34.5624 180.158C34.3291 180.221 34.1118 180.332 33.9246 180.484C33.7374 180.637 33.5846 180.827 33.4762 181.043C33.3678 181.258 33.3063 181.494 33.2956 181.735C33.2095 182.757 33.9528 183.78 34.6746 184.425C35.488 185.151 37.7504 185.856 37.9066 185.91C37.5077 187.199 37.1946 188.513 36.9694 189.843C36.8347 190.618 36.7162 191.408 36.6138 192.194C36.6138 191.828 36.6138 191.5 36.6138 191.451C36.4468 190.171 35.3695 187.782 33.9205 187.519C33.6821 187.481 33.4386 187.495 33.2057 187.558C32.9729 187.621 32.7559 187.732 32.5689 187.884C32.3819 188.036 32.2291 188.226 32.1204 188.441C32.0118 188.656 31.9497 188.892 31.9382 189.133C31.8574 190.155 32.5954 191.177 33.3172 191.823C34.039 192.468 35.9728 193.114 36.4792 193.281L36.366 194.19C36.1937 195.648 36.0267 197.1 35.8274 198.521C35.752 199.021 35.6604 199.511 35.5742 200.006C35.5742 199.678 35.5742 199.403 35.5742 199.36C35.4072 198.074 34.3299 195.691 32.8809 195.427C32.6424 195.389 32.3985 195.402 32.1653 195.464C31.9321 195.527 31.7147 195.638 31.5275 195.791C31.3403 195.943 31.1875 196.133 31.0791 196.349C30.9707 196.564 30.9092 196.8 30.8986 197.041C30.8124 198.064 31.5558 199.086 32.2776 199.731C32.9994 200.377 34.7447 200.958 35.348 201.157C35.2402 201.657 35.1379 202.158 35.014 202.637C34.917 202.965 34.8524 203.282 34.7393 203.605L34.4322 204.563C34.2114 205.16 33.9905 205.778 33.7643 206.359C33.6081 206.763 33.4519 207.145 33.2956 207.532C33.3764 207.032 33.5111 206.053 33.5111 205.972C33.4935 204.838 33.1856 203.726 32.6169 202.744C32.6276 202.617 32.6276 202.489 32.6169 202.362C32.5871 202.123 32.5071 201.893 32.3823 201.686C32.2574 201.48 32.0905 201.302 31.8923 201.165C31.6941 201.027 31.4691 200.933 31.232 200.888C30.9949 200.843 30.751 200.849 30.5161 200.904C29.1102 201.281 28.2214 203.745 28.1514 205.036C28.1514 205.111 28.1999 205.945 28.243 206.472C28.1675 206.166 28.1029 205.87 28.0275 205.558C27.882 204.934 27.7151 204.32 27.5427 203.659L27.2518 202.701C27.1602 202.378 27.0202 202.045 26.9124 201.717C26.6323 200.958 26.3145 200.205 25.9752 199.452C26.5138 199.322 28.4423 198.833 29.2072 198.236C29.9721 197.638 30.7908 196.686 30.7801 195.659C30.7867 195.415 30.7412 195.173 30.6466 194.948C30.5521 194.723 30.4106 194.521 30.2317 194.355C30.0528 194.189 29.8406 194.063 29.6091 193.985C29.3776 193.908 29.1323 193.88 28.8894 193.905C27.4403 194.061 26.196 196.363 25.9267 197.633C25.9267 197.708 25.8243 198.645 25.7866 199.156C25.5819 198.704 25.3772 198.252 25.151 197.805C24.5046 196.503 23.8151 195.207 23.1256 193.916C22.9155 193.517 22.7108 193.119 22.5062 192.721C22.7001 192.678 24.9948 192.145 25.862 191.484C26.6323 190.892 27.4457 189.929 27.4403 188.907C27.4468 188.664 27.4015 188.423 27.3076 188.199C27.2137 187.975 27.0733 187.773 26.8956 187.607C26.7179 187.441 26.507 187.315 26.2768 187.237C26.0467 187.159 25.8025 187.13 25.5604 187.153C24.1168 187.309 22.8671 189.606 22.5977 190.876C22.5977 190.973 22.4577 192.312 22.4469 192.657C21.989 191.78 21.5419 190.903 21.1379 190.026C20.5914 188.834 20.1218 187.608 19.732 186.357C19.8236 186.357 22.226 185.819 23.1095 185.114C23.8798 184.522 24.6931 183.559 24.6878 182.537C24.6946 182.296 24.6505 182.056 24.5582 181.833C24.4659 181.61 24.3276 181.408 24.1522 181.242C23.9768 181.076 23.7683 180.949 23.5404 180.869C23.3125 180.789 23.0702 180.758 22.8294 180.778C21.3857 180.934 20.136 183.231 19.8721 184.501C19.8721 184.587 19.759 185.609 19.7266 186.115H19.6458C19.2824 184.846 19.0336 183.548 18.9025 182.236C18.8217 181.515 18.784 180.821 18.7678 180.148C19.2257 180.089 21.3103 179.815 22.1776 179.293C23.0448 178.771 23.9228 177.921 24.0306 176.899C24.0632 176.66 24.0451 176.417 23.9776 176.186C23.91 175.955 23.7945 175.74 23.6385 175.557C23.4826 175.373 23.2896 175.224 23.0722 175.12C22.8549 175.015 22.6179 174.958 22.3769 174.951C20.9225 174.951 19.425 177.103 19.021 178.324C19.021 178.394 18.854 179.099 18.757 179.615C18.757 179.309 18.757 178.997 18.757 178.701C18.757 177.625 18.8324 176.603 18.8971 175.71C18.9402 175.204 18.994 174.747 19.0425 174.322C19.4627 174.036 21.1433 172.847 21.6604 172.003C22.1776 171.158 22.5762 169.98 22.1991 169.028C22.1187 168.8 21.9912 168.593 21.8248 168.418C21.6585 168.244 21.4571 168.106 21.2338 168.015C21.0106 167.923 20.7705 167.88 20.5293 167.888C20.2882 167.895 20.0513 167.954 19.8344 168.059C18.5416 168.726 18.2184 171.32 18.4177 172.6C18.4177 172.708 18.924 174.402 18.9563 174.391C18.8971 174.8 18.8432 175.242 18.7894 175.726C18.7032 176.613 18.6116 177.619 18.5847 178.722C18.5398 179.908 18.5686 181.096 18.6708 182.279C18.7697 183.607 18.9897 184.923 19.328 186.211V186.254C19.0964 185.894 18.4231 184.915 18.3638 184.845C17.5181 183.866 15.2988 182.467 13.9629 183.037C13.7434 183.137 13.5475 183.282 13.3878 183.463C13.2281 183.643 13.1083 183.855 13.0362 184.085C12.964 184.315 12.9412 184.558 12.969 184.797C12.9969 185.036 13.0749 185.267 13.198 185.474C13.699 186.34 14.884 186.787 15.8428 186.927Z" fill="#263238"/>
                <path d="M367.883 180.106C367.883 180.106 368.346 178.411 368.362 178.304C368.54 177.018 368.13 174.435 366.822 173.801C366.601 173.702 366.362 173.651 366.12 173.65C365.878 173.65 365.639 173.7 365.418 173.798C365.197 173.896 364.999 174.039 364.837 174.219C364.676 174.398 364.553 174.609 364.478 174.839C364.128 175.802 364.575 176.991 365.103 177.793C365.717 178.75 367.877 180.106 367.883 180.106Z" fill="#263238"/>
                <path d="M342.075 179.546C343.12 180.004 345.668 179.945 345.674 179.945C345.679 179.945 345.135 178.277 345.076 178.175C344.537 177.007 342.749 175.076 341.305 175.269C341.067 175.308 340.84 175.397 340.638 175.529C340.436 175.662 340.265 175.835 340.135 176.038C340.005 176.241 339.919 176.469 339.883 176.708C339.847 176.946 339.862 177.189 339.926 177.421C340.163 178.417 341.187 179.159 342.075 179.546Z" fill="#263238"/>
                <path d="M342.959 186.926C344.036 187.083 346.314 186.426 346.498 186.388C346.872 187.689 347.333 188.963 347.877 190.203C348.189 190.929 348.528 191.645 348.878 192.355L348.453 191.742C347.602 190.762 345.383 189.369 344.047 189.934C343.828 190.035 343.632 190.181 343.473 190.362C343.314 190.543 343.194 190.756 343.122 190.986C343.05 191.216 343.027 191.459 343.055 191.698C343.082 191.938 343.159 192.169 343.282 192.376C343.777 193.275 344.962 193.716 345.921 193.856C346.88 193.996 348.846 193.474 349.363 193.318L349.767 194.141C350.424 195.454 351.092 196.761 351.701 198.058C351.917 198.515 352.116 198.978 352.31 199.435C352.127 199.166 351.97 198.94 351.943 198.897C351.092 197.918 348.873 196.519 347.537 197.089C347.318 197.19 347.122 197.335 346.962 197.516C346.802 197.698 346.682 197.91 346.61 198.14C346.538 198.371 346.515 198.614 346.543 198.853C346.571 199.093 346.649 199.324 346.772 199.532C347.268 200.425 348.453 200.871 349.412 201.011C350.371 201.151 352.148 200.678 352.757 200.511C352.945 200.984 353.134 201.463 353.296 201.931C353.398 202.254 353.522 202.561 353.603 202.889C353.683 203.217 353.786 203.535 353.872 203.852C354.023 204.476 354.179 205.111 354.308 205.724C354.405 206.144 354.486 206.547 354.567 206.956C354.362 206.499 353.931 205.611 353.888 205.541C353.199 204.465 351.195 202.728 349.805 203.083C349.573 203.149 349.357 203.263 349.172 203.418C348.987 203.573 348.837 203.765 348.731 203.981C348.626 204.198 348.567 204.435 348.559 204.676C348.551 204.917 348.594 205.157 348.685 205.38C349.035 206.343 350.139 206.962 351.065 207.247C352.084 207.559 354.346 207.274 354.626 207.247C354.761 207.919 354.89 208.576 354.998 209.2C355.224 210.496 355.402 211.669 355.536 212.67H356.484C356.323 211.631 356.113 210.405 355.843 209.038C355.709 208.355 355.553 207.623 355.38 206.886C356.061 206.614 356.724 206.301 357.368 205.95C358.111 206.757 360.018 207.699 360.266 207.817C360.007 208.452 359.727 209.071 359.496 209.652C359 210.787 358.531 211.804 358.106 212.675H359.135C359.49 211.879 359.883 210.975 360.287 209.985C360.557 209.34 360.826 208.64 361.095 207.925C361.37 207.984 363.606 208.436 364.651 208.199C365.599 207.989 366.741 207.457 367.166 206.52C367.273 206.304 367.333 206.068 367.343 205.827C367.352 205.586 367.31 205.345 367.22 205.121C367.13 204.898 366.994 204.695 366.82 204.527C366.647 204.36 366.44 204.23 366.213 204.148C364.839 203.685 362.733 205.224 361.963 206.3C361.92 206.364 361.499 207.085 361.241 207.543C361.354 207.252 361.462 206.967 361.569 206.666C361.79 206.063 361.995 205.461 362.21 204.815L362.501 203.852C362.604 203.535 362.674 203.185 362.76 202.846C362.948 202.06 363.099 201.232 363.234 200.441C363.773 200.629 365.636 201.286 366.606 201.216C367.576 201.146 368.761 200.791 369.342 199.935C369.481 199.738 369.577 199.514 369.624 199.277C369.67 199.04 369.666 198.796 369.611 198.561C369.557 198.326 369.454 198.105 369.308 197.913C369.162 197.72 368.978 197.561 368.766 197.444C367.473 196.777 365.157 197.982 364.241 198.919C364.182 198.978 363.595 199.704 363.282 200.113C363.358 199.623 363.439 199.134 363.498 198.633C363.681 197.197 363.816 195.734 363.956 194.276C363.999 193.829 364.047 193.382 364.096 192.941C364.284 193.011 366.493 193.829 367.581 193.754C368.551 193.689 369.736 193.334 370.323 192.473C370.461 192.276 370.556 192.051 370.602 191.815C370.648 191.578 370.643 191.335 370.589 191.1C370.535 190.865 370.432 190.644 370.287 190.452C370.141 190.259 369.957 190.099 369.746 189.982C368.454 189.315 366.137 190.52 365.216 191.456C365.146 191.526 364.306 192.581 364.107 192.855C364.209 191.876 364.322 190.902 364.473 189.945C364.669 188.65 364.948 187.368 365.308 186.109C365.394 186.141 367.7 187.013 368.815 186.932C369.784 186.867 370.996 186.512 371.556 185.651C371.694 185.454 371.789 185.229 371.835 184.992C371.88 184.755 371.875 184.512 371.82 184.277C371.766 184.042 371.662 183.821 371.516 183.629C371.37 183.437 371.186 183.277 370.975 183.16C369.687 182.493 367.371 183.698 366.45 184.635C366.391 184.699 365.744 185.495 365.448 185.883L365.378 185.845C365.775 184.589 366.285 183.372 366.902 182.208C367.231 181.563 367.581 180.96 367.937 180.384C368.351 180.594 370.247 181.514 371.26 181.552C372.273 181.59 373.474 181.374 374.12 180.578C374.28 180.397 374.401 180.185 374.473 179.955C374.545 179.725 374.568 179.482 374.54 179.242C374.512 179.003 374.434 178.772 374.311 178.564C374.187 178.357 374.021 178.178 373.824 178.039C372.612 177.237 370.177 178.206 369.159 179.013C369.105 179.056 368.594 179.551 368.227 179.938C368.389 179.68 368.556 179.4 368.718 179.169C369.326 178.254 369.94 177.458 370.49 176.753C370.802 176.355 371.098 176 371.373 175.677C371.912 175.677 373.943 175.607 374.842 175.187C375.742 174.768 376.722 174.004 376.932 173.003C376.99 172.769 376.999 172.525 376.956 172.288C376.914 172.05 376.822 171.825 376.686 171.625C376.55 171.426 376.374 171.257 376.169 171.13C375.963 171.003 375.733 170.921 375.494 170.889C374.05 170.733 372.332 172.713 371.804 173.896C371.761 173.998 371.228 175.682 371.265 175.682H371.298C371.023 175.994 370.759 176.328 370.425 176.704C369.886 177.399 369.229 178.184 368.599 179.093C367.907 180.059 367.274 181.065 366.703 182.106C366.059 183.271 365.518 184.489 365.087 185.748C365.087 185.748 365.087 185.748 365.087 185.791C365.087 185.366 365.087 184.177 365.087 184.086C364.92 182.8 363.837 180.417 362.394 180.153C362.155 180.115 361.911 180.128 361.678 180.19C361.445 180.253 361.227 180.364 361.04 180.516C360.853 180.669 360.7 180.859 360.592 181.075C360.483 181.29 360.422 181.526 360.411 181.767C360.325 182.789 361.069 183.811 361.79 184.457C362.604 185.183 364.872 185.888 365.022 185.942C364.615 187.233 364.296 188.551 364.069 189.885C363.929 190.66 363.81 191.451 363.708 192.237C363.708 191.871 363.708 191.543 363.708 191.494C363.541 190.214 362.464 187.825 361.015 187.561C360.776 187.524 360.532 187.537 360.299 187.6C360.066 187.663 359.849 187.774 359.661 187.926C359.474 188.079 359.32 188.268 359.211 188.484C359.102 188.699 359.039 188.934 359.027 189.175C358.946 190.198 359.684 191.22 360.411 191.865C361.139 192.511 363.062 193.157 363.568 193.323L363.455 194.233C363.282 195.691 363.115 197.143 362.916 198.563C362.841 199.064 362.755 199.553 362.663 200.048C362.663 199.72 362.663 199.446 362.663 199.403C362.496 198.117 361.419 195.734 359.97 195.47C359.731 195.432 359.487 195.444 359.254 195.507C359.021 195.57 358.803 195.681 358.616 195.833C358.429 195.986 358.276 196.176 358.168 196.391C358.059 196.607 357.998 196.843 357.987 197.084C357.907 198.106 358.645 199.128 359.366 199.774C360.088 200.42 361.833 201.001 362.437 201.2C362.329 201.7 362.227 202.2 362.103 202.679C362.006 203.007 361.941 203.325 361.828 203.648L361.521 204.605C361.3 205.202 361.079 205.821 360.853 206.402C360.697 206.806 360.541 207.188 360.39 207.575C360.465 207.075 360.6 206.095 360.6 206.015C360.582 204.88 360.274 203.769 359.706 202.787C359.716 202.66 359.716 202.532 359.706 202.405C359.675 202.165 359.595 201.935 359.469 201.729C359.344 201.522 359.176 201.345 358.978 201.207C358.779 201.07 358.554 200.976 358.316 200.931C358.079 200.886 357.835 200.891 357.599 200.947C356.194 201.323 355.305 203.787 355.24 205.079C355.24 205.154 355.283 205.988 355.326 206.515C355.256 206.208 355.186 205.913 355.111 205.6C354.965 204.976 354.798 204.363 354.626 203.701L354.335 202.744C354.244 202.421 354.109 202.087 353.996 201.759C353.716 201.001 353.398 200.247 353.059 199.494C353.597 199.365 355.526 198.875 356.291 198.278C357.055 197.681 357.874 196.729 357.869 195.701C357.875 195.46 357.83 195.221 357.738 194.998C357.645 194.775 357.507 194.575 357.331 194.409C357.156 194.243 356.948 194.116 356.721 194.035C356.493 193.955 356.251 193.923 356.01 193.942C354.567 194.098 353.317 196.401 353.048 197.67C353.048 197.746 352.945 198.682 352.908 199.193C352.703 198.741 352.498 198.289 352.277 197.843C351.631 196.541 350.936 195.244 350.247 193.953C350.037 193.555 349.832 193.157 349.627 192.758C349.821 192.715 352.121 192.183 352.983 191.521C353.753 190.929 354.567 189.966 354.561 188.944C354.568 188.703 354.524 188.463 354.432 188.24C354.34 188.017 354.201 187.816 354.026 187.65C353.85 187.484 353.642 187.356 353.414 187.276C353.186 187.196 352.944 187.165 352.703 187.185C351.259 187.341 350.01 189.638 349.74 190.908C349.74 191.005 349.6 192.344 349.59 192.688C349.132 191.812 348.69 190.935 348.286 190.058C347.732 188.869 347.257 187.645 346.864 186.394C346.955 186.394 349.358 185.856 350.241 185.151C351.012 184.559 351.857 183.596 351.82 182.574C351.826 182.333 351.782 182.093 351.69 181.87C351.598 181.647 351.459 181.446 351.284 181.28C351.109 181.114 350.9 180.986 350.672 180.906C350.444 180.826 350.202 180.795 349.961 180.815C348.518 180.971 347.268 183.268 347.004 184.538C347.004 184.624 346.891 185.646 346.858 186.152H346.778C346.414 184.884 346.165 183.585 346.034 182.273C345.954 181.552 345.921 180.858 345.9 180.185C346.358 180.126 348.448 179.852 349.309 179.33C350.171 178.808 351.055 177.958 351.162 176.936C351.195 176.697 351.177 176.454 351.109 176.223C351.042 175.992 350.926 175.777 350.77 175.594C350.614 175.41 350.421 175.261 350.204 175.157C349.987 175.053 349.75 174.995 349.509 174.988C348.054 174.988 346.557 177.14 346.158 178.362C346.158 178.431 345.991 179.136 345.889 179.653C345.889 179.346 345.889 179.034 345.889 178.738C345.889 177.662 345.959 176.64 346.029 175.747C346.072 175.241 346.121 174.784 346.169 174.359C346.589 174.074 348.27 172.885 348.787 172.04C349.304 171.195 349.708 170.017 349.326 169.065C349.245 168.837 349.116 168.63 348.95 168.455C348.783 168.28 348.581 168.143 348.357 168.052C348.134 167.96 347.893 167.917 347.652 167.925C347.41 167.932 347.173 167.991 346.955 168.096C345.663 168.764 345.339 171.357 345.539 172.637C345.539 172.745 346.045 174.44 346.077 174.429C346.018 174.838 345.964 175.279 345.91 175.763C345.824 176.651 345.733 177.657 345.706 178.76C345.666 179.946 345.695 181.133 345.792 182.316C345.896 183.643 346.116 184.959 346.449 186.249V186.292C346.223 185.931 345.55 184.952 345.485 184.882C344.639 183.903 342.42 182.504 341.084 183.074C340.865 183.174 340.669 183.319 340.509 183.5C340.349 183.681 340.229 183.893 340.157 184.123C340.085 184.352 340.062 184.595 340.09 184.834C340.118 185.074 340.196 185.304 340.319 185.512C340.815 186.34 342 186.787 342.959 186.926Z" fill="#263238"/>
                <path opacity="0.3" d="M342.075 179.546C343.12 180.004 345.668 179.945 345.674 179.945C345.679 179.945 345.135 178.277 345.076 178.175C344.537 177.007 342.749 175.076 341.305 175.269C341.067 175.308 340.84 175.397 340.638 175.529C340.436 175.662 340.265 175.835 340.135 176.038C340.005 176.241 339.919 176.469 339.883 176.708C339.847 176.946 339.862 177.189 339.926 177.421C340.163 178.417 341.187 179.159 342.075 179.546Z" fill="#263238"/>
                <path opacity="0.3" d="M367.883 180.106C367.883 180.106 368.346 178.411 368.362 178.304C368.54 177.018 368.13 174.435 366.822 173.801C366.601 173.702 366.362 173.651 366.12 173.65C365.878 173.65 365.639 173.7 365.418 173.798C365.197 173.896 364.999 174.039 364.837 174.219C364.676 174.398 364.553 174.609 364.478 174.839C364.128 175.802 364.575 176.991 365.103 177.793C365.717 178.75 367.877 180.106 367.883 180.106Z" fill="#263238"/>
                <path opacity="0.3" d="M342.959 186.926C344.036 187.083 346.314 186.426 346.498 186.388C346.872 187.689 347.333 188.963 347.877 190.203C348.189 190.929 348.528 191.645 348.878 192.355L348.453 191.742C347.602 190.762 345.383 189.369 344.047 189.934C343.828 190.035 343.632 190.181 343.473 190.362C343.314 190.543 343.194 190.756 343.122 190.986C343.05 191.216 343.027 191.459 343.055 191.698C343.082 191.938 343.159 192.169 343.282 192.376C343.777 193.275 344.962 193.716 345.921 193.856C346.88 193.996 348.846 193.474 349.363 193.318L349.767 194.141C350.424 195.454 351.092 196.761 351.701 198.058C351.917 198.515 352.116 198.978 352.31 199.435C352.127 199.166 351.97 198.94 351.943 198.897C351.092 197.918 348.873 196.519 347.537 197.089C347.318 197.19 347.122 197.335 346.962 197.516C346.802 197.698 346.682 197.91 346.61 198.14C346.538 198.371 346.515 198.614 346.543 198.853C346.571 199.093 346.649 199.324 346.772 199.532C347.268 200.425 348.453 200.871 349.412 201.011C350.371 201.151 352.148 200.678 352.757 200.511C352.945 200.984 353.134 201.463 353.296 201.931C353.398 202.254 353.522 202.561 353.603 202.889C353.683 203.217 353.786 203.535 353.872 203.852C354.023 204.476 354.179 205.111 354.308 205.724C354.405 206.144 354.486 206.547 354.567 206.956C354.362 206.499 353.931 205.611 353.888 205.541C353.199 204.465 351.195 202.728 349.805 203.083C349.573 203.149 349.357 203.263 349.172 203.418C348.987 203.573 348.837 203.765 348.731 203.981C348.626 204.198 348.567 204.435 348.559 204.676C348.551 204.917 348.594 205.157 348.685 205.38C349.035 206.343 350.139 206.962 351.065 207.247C352.084 207.559 354.346 207.274 354.626 207.247C354.761 207.919 354.89 208.576 354.998 209.2C355.224 210.496 355.402 211.669 355.536 212.67H356.484C356.323 211.631 356.113 210.405 355.843 209.038C355.709 208.355 355.553 207.623 355.38 206.886C356.061 206.614 356.724 206.301 357.368 205.95C358.111 206.757 360.018 207.699 360.266 207.817C360.007 208.452 359.727 209.071 359.496 209.652C359 210.787 358.531 211.804 358.106 212.675H359.135C359.49 211.879 359.883 210.975 360.287 209.985C360.557 209.34 360.826 208.64 361.095 207.925C361.37 207.984 363.606 208.436 364.651 208.199C365.599 207.989 366.741 207.457 367.166 206.52C367.273 206.304 367.333 206.068 367.343 205.827C367.352 205.586 367.31 205.345 367.22 205.121C367.13 204.898 366.994 204.695 366.82 204.527C366.647 204.36 366.44 204.23 366.213 204.148C364.839 203.685 362.733 205.224 361.963 206.3C361.92 206.364 361.499 207.085 361.241 207.543C361.354 207.252 361.462 206.967 361.569 206.666C361.79 206.063 361.995 205.461 362.21 204.815L362.501 203.852C362.604 203.535 362.674 203.185 362.76 202.846C362.948 202.06 363.099 201.232 363.234 200.441C363.773 200.629 365.636 201.286 366.606 201.216C367.576 201.146 368.761 200.791 369.342 199.935C369.481 199.738 369.577 199.514 369.624 199.277C369.67 199.04 369.666 198.796 369.611 198.561C369.557 198.326 369.454 198.105 369.308 197.913C369.162 197.72 368.978 197.561 368.766 197.444C367.473 196.777 365.157 197.982 364.241 198.919C364.182 198.978 363.595 199.704 363.282 200.113C363.358 199.623 363.439 199.134 363.498 198.633C363.681 197.197 363.816 195.734 363.956 194.276C363.999 193.829 364.047 193.382 364.096 192.941C364.284 193.011 366.493 193.829 367.581 193.754C368.551 193.689 369.736 193.334 370.323 192.473C370.461 192.276 370.556 192.051 370.602 191.815C370.648 191.578 370.643 191.335 370.589 191.1C370.535 190.865 370.432 190.644 370.287 190.452C370.141 190.259 369.957 190.099 369.746 189.982C368.454 189.315 366.137 190.52 365.216 191.456C365.146 191.526 364.306 192.581 364.107 192.855C364.209 191.876 364.322 190.902 364.473 189.945C364.669 188.65 364.948 187.368 365.308 186.109C365.394 186.141 367.7 187.013 368.815 186.932C369.784 186.867 370.996 186.512 371.556 185.651C371.694 185.454 371.789 185.229 371.835 184.992C371.88 184.755 371.875 184.512 371.82 184.277C371.766 184.042 371.662 183.821 371.516 183.629C371.37 183.437 371.186 183.277 370.975 183.16C369.687 182.493 367.371 183.698 366.45 184.635C366.391 184.699 365.744 185.495 365.448 185.883L365.378 185.845C365.775 184.589 366.285 183.372 366.902 182.208C367.231 181.563 367.581 180.96 367.937 180.384C368.351 180.594 370.247 181.514 371.26 181.552C372.273 181.59 373.474 181.374 374.12 180.578C374.28 180.397 374.401 180.185 374.473 179.955C374.545 179.725 374.568 179.482 374.54 179.242C374.512 179.003 374.434 178.772 374.311 178.564C374.187 178.357 374.021 178.178 373.824 178.039C372.612 177.237 370.177 178.206 369.159 179.013C369.105 179.056 368.594 179.551 368.227 179.938C368.389 179.68 368.556 179.4 368.718 179.169C369.326 178.254 369.94 177.458 370.49 176.753C370.802 176.355 371.098 176 371.373 175.677C371.912 175.677 373.943 175.607 374.842 175.187C375.742 174.768 376.722 174.004 376.932 173.003C376.99 172.769 376.999 172.525 376.956 172.288C376.914 172.05 376.822 171.825 376.686 171.625C376.55 171.426 376.374 171.257 376.169 171.13C375.963 171.003 375.733 170.921 375.494 170.889C374.05 170.733 372.332 172.713 371.804 173.896C371.761 173.998 371.228 175.682 371.265 175.682H371.298C371.023 175.994 370.759 176.328 370.425 176.704C369.886 177.399 369.229 178.184 368.599 179.093C367.907 180.059 367.274 181.065 366.703 182.106C366.059 183.271 365.518 184.489 365.087 185.748C365.087 185.748 365.087 185.748 365.087 185.791C365.087 185.366 365.087 184.177 365.087 184.086C364.92 182.8 363.837 180.417 362.394 180.153C362.155 180.115 361.911 180.128 361.678 180.19C361.445 180.253 361.227 180.364 361.04 180.516C360.853 180.669 360.7 180.859 360.592 181.075C360.483 181.29 360.422 181.526 360.411 181.767C360.325 182.789 361.069 183.811 361.79 184.457C362.604 185.183 364.872 185.888 365.022 185.942C364.615 187.233 364.296 188.551 364.069 189.885C363.929 190.66 363.81 191.451 363.708 192.237C363.708 191.871 363.708 191.543 363.708 191.494C363.541 190.214 362.464 187.825 361.015 187.561C360.776 187.524 360.532 187.537 360.299 187.6C360.066 187.663 359.849 187.774 359.661 187.926C359.474 188.079 359.32 188.268 359.211 188.484C359.102 188.699 359.039 188.934 359.027 189.175C358.946 190.198 359.684 191.22 360.411 191.865C361.139 192.511 363.062 193.157 363.568 193.323L363.455 194.233C363.282 195.691 363.115 197.143 362.916 198.563C362.841 199.064 362.755 199.553 362.663 200.048C362.663 199.72 362.663 199.446 362.663 199.403C362.496 198.117 361.419 195.734 359.97 195.47C359.731 195.432 359.487 195.444 359.254 195.507C359.021 195.57 358.803 195.681 358.616 195.833C358.429 195.986 358.276 196.176 358.168 196.391C358.059 196.607 357.998 196.843 357.987 197.084C357.907 198.106 358.645 199.128 359.366 199.774C360.088 200.42 361.833 201.001 362.437 201.2C362.329 201.7 362.227 202.2 362.103 202.679C362.006 203.007 361.941 203.325 361.828 203.648L361.521 204.605C361.3 205.202 361.079 205.821 360.853 206.402C360.697 206.806 360.541 207.188 360.39 207.575C360.465 207.075 360.6 206.095 360.6 206.015C360.582 204.88 360.274 203.769 359.706 202.787C359.716 202.66 359.716 202.532 359.706 202.405C359.675 202.165 359.595 201.935 359.469 201.729C359.344 201.522 359.176 201.345 358.978 201.207C358.779 201.07 358.554 200.976 358.316 200.931C358.079 200.886 357.835 200.891 357.599 200.947C356.194 201.323 355.305 203.787 355.24 205.079C355.24 205.154 355.283 205.988 355.326 206.515C355.256 206.208 355.186 205.913 355.111 205.6C354.965 204.976 354.798 204.363 354.626 203.701L354.335 202.744C354.244 202.421 354.109 202.087 353.996 201.759C353.716 201.001 353.398 200.247 353.059 199.494C353.597 199.365 355.526 198.875 356.291 198.278C357.055 197.681 357.874 196.729 357.869 195.701C357.875 195.46 357.83 195.221 357.738 194.998C357.645 194.775 357.507 194.575 357.331 194.409C357.156 194.243 356.948 194.116 356.721 194.035C356.493 193.955 356.251 193.923 356.01 193.942C354.567 194.098 353.317 196.401 353.048 197.67C353.048 197.746 352.945 198.682 352.908 199.193C352.703 198.741 352.498 198.289 352.277 197.843C351.631 196.541 350.936 195.244 350.247 193.953C350.037 193.555 349.832 193.157 349.627 192.758C349.821 192.715 352.121 192.183 352.983 191.521C353.753 190.929 354.567 189.966 354.561 188.944C354.568 188.703 354.524 188.463 354.432 188.24C354.34 188.017 354.201 187.816 354.026 187.65C353.85 187.484 353.642 187.356 353.414 187.276C353.186 187.196 352.944 187.165 352.703 187.185C351.259 187.341 350.01 189.638 349.74 190.908C349.74 191.005 349.6 192.344 349.59 192.688C349.132 191.812 348.69 190.935 348.286 190.058C347.732 188.869 347.257 187.645 346.864 186.394C346.955 186.394 349.358 185.856 350.241 185.151C351.012 184.559 351.857 183.596 351.82 182.574C351.826 182.333 351.782 182.093 351.69 181.87C351.598 181.647 351.459 181.446 351.284 181.28C351.109 181.114 350.9 180.986 350.672 180.906C350.444 180.826 350.202 180.795 349.961 180.815C348.518 180.971 347.268 183.268 347.004 184.538C347.004 184.624 346.891 185.646 346.858 186.152H346.778C346.414 184.884 346.165 183.585 346.034 182.273C345.954 181.552 345.921 180.858 345.9 180.185C346.358 180.126 348.448 179.852 349.309 179.33C350.171 178.808 351.055 177.958 351.162 176.936C351.195 176.697 351.177 176.454 351.109 176.223C351.042 175.992 350.926 175.777 350.77 175.594C350.614 175.41 350.421 175.261 350.204 175.157C349.987 175.053 349.75 174.995 349.509 174.988C348.054 174.988 346.557 177.14 346.158 178.362C346.158 178.431 345.991 179.136 345.889 179.653C345.889 179.346 345.889 179.034 345.889 178.738C345.889 177.662 345.959 176.64 346.029 175.747C346.072 175.241 346.121 174.784 346.169 174.359C346.589 174.074 348.27 172.885 348.787 172.04C349.304 171.195 349.708 170.017 349.326 169.065C349.245 168.837 349.116 168.63 348.95 168.455C348.783 168.28 348.581 168.143 348.357 168.052C348.134 167.96 347.893 167.917 347.652 167.925C347.41 167.932 347.173 167.991 346.955 168.096C345.663 168.764 345.339 171.357 345.539 172.637C345.539 172.745 346.045 174.44 346.077 174.429C346.018 174.838 345.964 175.279 345.91 175.763C345.824 176.651 345.733 177.657 345.706 178.76C345.666 179.946 345.695 181.133 345.792 182.316C345.896 183.643 346.116 184.959 346.449 186.249V186.292C346.223 185.931 345.55 184.952 345.485 184.882C344.639 183.903 342.42 182.504 341.084 183.074C340.865 183.174 340.669 183.319 340.509 183.5C340.349 183.681 340.229 183.893 340.157 184.123C340.085 184.352 340.062 184.595 340.09 184.834C340.118 185.074 340.196 185.304 340.319 185.512C340.815 186.34 342 186.787 342.959 186.926Z" fill="#263238"/>
                <path d="M87.0327 164.255C87.0327 164.255 87.706 164.12 93.2274 162.506C96.764 161.375 99.9905 159.442 102.654 156.857L100.903 145.828L89.726 147.442L87.0327 164.255Z" fill="#92E3A9" stroke="#263238" stroke-linecap="round" stroke-linejoin="round"/>
                <path d="M59.5606 201.645C59.5606 201.645 57.6752 205.411 57.4059 208.908C57.1366 212.405 59.1566 213.615 59.8299 212.674C60.5032 211.732 61.5806 208.37 61.7152 206.89L62.1192 202.452L59.5606 201.645Z" fill="white" stroke="#263238" stroke-linecap="round" stroke-linejoin="round"/>
                <path d="M109.15 204.066C109.15 204.066 108.612 208.908 108.466 211.195C108.321 213.481 111.16 215.633 111.558 215.773C111.957 215.913 112.366 215.773 113.04 214.159C113.713 212.545 113.718 208.645 113.32 207.434C112.921 206.224 112.113 204.341 112.113 204.341L109.15 204.066Z" fill="white" stroke="#263238" stroke-linecap="round" stroke-linejoin="round"/>
                <path d="M90.2647 133.184C90.2647 133.184 84.8296 139.64 82.9443 145.02C81.0589 150.4 79.556 157.06 78.2794 160.622C77.2124 163.664 76.3133 166.762 75.5861 169.902C75.5861 169.902 72.0847 173.399 71.1421 176.493C70.1994 179.586 59.1567 202.451 59.1567 202.451C59.1567 202.451 59.8301 203.393 60.3687 203.527C60.9074 203.662 62.1194 202.989 62.1194 202.989C62.1194 202.989 81.6461 177.434 82.8581 175.551C84.0701 173.668 87.8946 169.31 88.2986 168.638C88.7026 167.965 91.7461 158.604 92.8234 157.259C93.6213 156.187 94.3208 155.046 94.9134 153.848L95.7214 154.386L96.6641 154.521C96.6641 154.521 100.903 163.043 101.981 166.54C103.058 170.037 106.155 189.136 106.963 192.633C107.771 196.13 108.849 205.276 108.849 205.276C109.335 205.436 109.83 205.57 110.33 205.679C111.003 205.814 112.754 205.276 112.754 205.276C112.754 205.276 115.851 191.288 115.986 186.446C116.121 181.604 115.178 170.844 115.178 169.23C115.178 167.616 112.754 145.423 111.542 142.464C110.33 139.505 106.29 134.26 106.29 134.26L90.2647 133.184Z" fill="#263238" stroke="#263238" stroke-linecap="round" stroke-linejoin="round"/>
                <path d="M98.2099 107.764L90.1299 110.319C90.1299 110.319 90.1299 125.921 90.2646 127.939C90.3992 129.956 89.3219 133.319 89.9952 134.126C90.6686 134.933 93.9006 138.161 99.8259 138.295C105.751 138.43 107.367 136.547 107.367 136.547L108.579 131.301C108.579 131.301 112.485 120.81 112.485 119.196C112.485 117.582 108.579 112.875 106.29 110.992C104.001 109.109 98.2099 107.764 98.2099 107.764Z" fill="white" stroke="#263238" stroke-linecap="round" stroke-linejoin="round"/>
                <path d="M77.3368 126.191C75.6164 127.348 73.8164 128.382 71.9501 129.285L61.1768 134.665L62.3888 137.22C65.0165 136.752 67.6695 136.438 70.3341 136.279C73.8354 136.144 79.7608 133.858 80.1648 133.185C80.5688 132.513 81.9154 128.881 81.9154 128.881L77.3368 126.191Z" fill="white" stroke="#263238" stroke-linecap="round" stroke-linejoin="round"/>
                <path d="M97.1324 107.898C97.1324 107.898 91.3418 123.769 91.0724 126.056C90.8031 128.342 88.5138 134.126 88.3791 134.933C88.2444 135.74 84.4738 143.944 84.4738 143.944C84.4738 143.944 88.5138 131.301 88.9178 128.746C89.1388 127.112 88.9538 125.449 88.3791 123.904C88.3791 123.904 85.648 129.693 85.244 130.096C84.84 130.5 82.0982 135.121 82.0982 135.121L77.3364 126.19C77.3364 126.19 82.5884 117.044 83.6658 115.565C84.7431 114.085 87.0324 110.05 88.6484 109.243C90.2644 108.436 97.1324 107.898 97.1324 107.898Z" fill="#92E3A9" stroke="#263238" stroke-linecap="round" stroke-linejoin="round"/>
                <path d="M105.078 109.916C105.078 109.916 100.903 127.401 100.903 130.226C100.903 133.05 100.499 141.793 100.095 146.635C99.6913 151.477 98.8833 166.944 98.8833 166.944C101.467 167.339 104.089 167.43 106.694 167.213C110.465 166.81 116.929 164.254 116.929 164.254C116.929 164.254 113.562 147.307 112.215 143.272C111.083 139.783 110.139 136.236 109.387 132.647C109.387 132.243 113.023 120.407 113.023 118.793C113.023 117.179 106.559 110.32 105.078 109.916Z" fill="#92E3A9" stroke="#263238" stroke-linecap="round" stroke-linejoin="round"/>
                <path d="M57.5889 135.675C57.6693 134.655 57.4837 133.632 57.0502 132.705C56.3176 131.263 55.919 130.817 57.0933 131.134C58.2676 131.451 58.9571 133.749 58.9571 133.749L57.5889 135.675Z" fill="white" stroke="#263238" stroke-linecap="round" stroke-linejoin="round"/>
                <path d="M65.1681 136.644C65.1681 136.644 63.6275 139.076 62.701 138.856C61.7745 138.635 57.6645 136.58 57.589 135.676C57.5136 134.772 58.2947 132.055 58.9734 132.174C59.6521 132.292 65.1681 136.644 65.1681 136.644Z" fill="white" stroke="#263238" stroke-linecap="round" stroke-linejoin="round"/>
                <path d="M110.766 93.4155C111.117 94.4591 111.382 95.5298 111.558 96.6166C111.508 97.279 111.385 97.9339 111.192 98.5696C111.192 98.5696 113.395 100.528 113.519 101.017C113.643 101.507 112.296 102.239 112.296 102.239C112.296 102.239 112.415 107.371 112.415 107.737C112.415 108.103 106.419 108.35 106.419 108.35L100.155 115.683L97.2188 108.474L98.5655 104.439C98.5655 104.439 94.5255 102.115 95.996 98.5696C97.4666 95.0241 100.769 93.0712 104.076 92.5816C106.229 92.3003 108.414 92.3821 110.54 92.8237L110.766 93.4155Z" fill="white" stroke="#263238" stroke-linecap="round" stroke-linejoin="round"/>
                <path d="M106.398 108.35L103.327 107.764L103.149 111.89L106.398 108.35Z" fill="#263238" stroke="#263238" stroke-linecap="round" stroke-linejoin="round"/>
                <path d="M109.915 99.0428C109.915 99.4732 109.759 99.8175 109.56 99.8175C109.36 99.8175 109.204 99.4732 109.204 99.0428C109.204 98.6124 109.366 98.2734 109.56 98.2734C109.754 98.2734 109.915 98.6178 109.915 99.0428Z" fill="#263238"/>
                <path d="M108.73 97.8002C108.73 97.8002 109.086 97.09 110.389 97.4451" stroke="#263238" stroke-linecap="round" stroke-linejoin="round"/>
                <path d="M111.698 103.492C111.698 103.492 110.152 103.728 109.543 102.895" stroke="#263238" stroke-linecap="round" stroke-linejoin="round"/>
                <path d="M111.046 94.9067C111.046 94.9067 107.012 93.9276 106.274 95.3963C105.536 96.8651 106.155 97.5967 105.541 98.9417C104.927 100.287 102.605 101.998 102.605 101.998C102.605 101.998 100.402 99.5497 99.6642 100.771C98.9262 101.992 99.174 103.827 99.912 104.44C100.65 105.053 102.724 104.682 102.724 104.682L99.5457 106.151C99.5457 106.151 99.6642 107.986 96.7285 108.717C93.7927 109.449 90.2645 107.496 90.7331 105.053C91.2017 102.611 95.2579 101.142 95.2579 101.142C95.2579 101.142 90.9486 95.8859 94.5253 91.9962C98.1021 88.1064 105.051 89.9195 105.051 89.9195C105.051 89.9195 106.031 88.8435 108.822 88.5745C111.612 88.3055 112.862 91.1408 112.862 92.7332C112.862 94.3257 111.046 94.9067 111.046 94.9067Z" fill="#263238" stroke="#263238" stroke-linecap="round" stroke-linejoin="round"/>
                <path d="M314.307 54.2657L312.868 26.5156L288.984 39.476L289.523 41.628L298.556 46.2333L256.05 129.435L121.146 166.073L27.8869 102.503C27.0604 101.939 26.0436 101.727 25.0602 101.912C24.0768 102.097 23.2073 102.665 22.643 103.49C22.0787 104.315 21.8658 105.331 22.0512 106.313C22.2365 107.295 22.805 108.164 23.6314 108.727L118.307 173.271C118.942 173.704 119.694 173.933 120.462 173.928C120.795 173.928 121.127 173.883 121.448 173.793L259.643 136.268C260.15 136.13 260.623 135.888 261.031 135.558C261.439 135.227 261.774 134.814 262.013 134.347L305.279 49.6765L314.307 54.2657Z" fill="#263238" stroke="#263238" stroke-linecap="round" stroke-linejoin="round"/>
                <path d="M313.768 52.1133L312.33 24.3633L288.984 39.4757L298.018 44.081L255.511 127.283L120.608 163.921L27.3483 100.35C26.5219 99.7868 25.5051 99.5742 24.5216 99.7593C23.5382 99.9445 22.6687 100.512 22.1044 101.338C21.5401 102.163 21.3272 103.179 21.5126 104.161C21.698 105.143 22.2664 106.011 23.0929 106.575L117.769 171.119C118.403 171.552 119.155 171.781 119.924 171.775C120.257 171.776 120.589 171.731 120.909 171.641L259.104 134.115C259.612 133.978 260.084 133.736 260.493 133.405C260.901 133.074 261.235 132.662 261.474 132.195L304.74 47.5242L313.768 52.1133Z" fill="#92E3A9" stroke="#263238" stroke-linecap="round" stroke-linejoin="round"/>
                <path d="M309.885 29.168L294.366 39.2017L301.643 42.9085L257.37 129.586L120.112 166.842L25.8456 102.573C25.7285 102.493 25.5969 102.437 25.4583 102.409C25.3197 102.38 25.1767 102.379 25.0377 102.405C24.8986 102.432 24.7661 102.485 24.6478 102.563C24.5295 102.641 24.4276 102.741 24.3481 102.858C24.1867 103.093 24.1255 103.383 24.178 103.664C24.2306 103.944 24.3925 104.192 24.6282 104.353L119.326 168.913C119.505 169.036 119.717 169.102 119.935 169.102C120.029 169.1 120.123 169.087 120.215 169.064L258.41 131.533C258.554 131.495 258.689 131.428 258.805 131.335C258.922 131.243 259.019 131.127 259.088 130.995L303.577 43.9307L310.854 47.6375L309.885 29.168Z" fill="white"/>
                <path d="M107.976 139.124L107.238 141.959C106.401 143.568 105.431 145.105 104.34 146.553C102.562 148.905 96.1792 155.463 96.1792 155.463L94.3746 157.685L94.1646 159.632L95.6297 160.197C95.6297 160.197 96.3623 160.482 96.9602 160.789C97.5582 161.096 99.1149 161.375 99.5943 161.015C100.074 160.654 101.21 157.733 101.21 157.733L101.641 155.479C101.641 155.479 109.226 149.534 110.96 147.732C112.695 145.929 114.192 144.31 114.699 143.266C115.205 142.223 114.79 139.021 114.79 139.021L107.976 139.124Z" fill="white" stroke="#263238" stroke-linecap="round" stroke-linejoin="round"/>
                <path d="M107.788 125.372L106.457 139.661C107.724 140.117 109.019 140.487 110.335 140.77C112.463 141.222 116.907 140.049 116.907 140.049C116.907 140.049 116.223 128.154 115.334 123.801C114.445 119.449 111.968 116.194 110.373 115.65" fill="#92E3A9"/>
                <path d="M107.788 125.372L106.457 139.661C107.724 140.117 109.019 140.487 110.335 140.77C112.463 141.222 116.907 140.049 116.907 140.049C116.907 140.049 116.223 128.154 115.334 123.801C114.445 119.449 111.968 116.194 110.373 115.65" stroke="#263238" stroke-linecap="round" stroke-linejoin="round"/>
                <path d="M278.395 212.676H375.893" stroke="#263238" stroke-linecap="round" stroke-linejoin="round"/>
                <path d="M266.544 212.676H273.547" stroke="#263238" stroke-linecap="round" stroke-linejoin="round"/>
                <path d="M90.3999 212.676H260.619" stroke="#263238" stroke-linecap="round" stroke-linejoin="round"/>
                <path d="M9.06104 212.676H85.5517" stroke="#263238" stroke-linecap="round" stroke-linejoin="round"/>
                </svg> 