<svg width="75" height="75" fill="none" xmlns="http://www.w3.org/2000/svg"><g clip-path="url(#clip0)" stroke="#263238"><path d="M19.54 41.08l10.55 27.48 5.11-12.43 12.42 5.07-12.13-25.81-15.95 5.69z" fill="#7B61FF" stroke-miterlimit="10"/><path d="M15.77 35.1L2.99 61.61l12.54-4.74 4.78 12.52 10.52-26.51-15.06-7.78z" fill="#DD6A57" stroke-miterlimit="10"/><path opacity=".3" d="M35.49 35.39l-11.33 4.04-8.39-4.33L2.99 61.62l12.54-4.75 4.81 12.53 5.11-12.93 4.65 12.09 5.11-12.43 12.41 5.07-12.13-25.81z" fill="#fff" stroke-miterlimit="10"/><path d="M47.59 28.42c0-1 2.17-2.15 2-3.12-.17-.97-2.54-1.48-2.82-2.41-.28-.93 1.47-2.68 1.07-3.57-.4-.89-2.86-.69-3.38-1.52-.52-.83.66-3 0-3.72-.66-.72-2.94.14-3.68-.51-.74-.65-.18-3-1-3.57-.82-.57-2.77 1-3.68.55-.91-.45-1-2.87-2-3.15-1-.28-2.38 1.72-3.38 1.58-1-.14-1.79-2.46-2.79-2.46s-1.83 2.32-2.79 2.46c-.96.14-2.44-1.85-3.38-1.58s-1.13 2.74-2 3.15c-.87.41-2.84-1.13-3.67-.55-.83.58-.27 2.93-1 3.58-.73.65-3-.25-3.68.5-.68.75.55 2.88 0 3.72-.55.84-3 .62-3.37 1.52-.37.9 1.35 2.61 1.07 3.57s-2.65 1.43-2.8 2.41c-.15.98 2 2.12 2 3.12s-2.17 2.15-2 3.12c.17.97 2.54 1.47 2.83 2.42.29.95-1.49 2.66-1.07 3.55.42.89 2.86.7 3.37 1.53.51.83-.67 3 0 3.72.67.72 2.93-.15 3.68.5s.18 3 1 3.58c.82.58 2.77-1 3.67-.55.9.45 1 2.86 2 3.14 1 .28 2.37-1.71 3.38-1.56 1.01.15 1.79 2.44 2.79 2.44s1.82-2.31 2.79-2.44c.97-.13 2.43 1.83 3.38 1.56.95-.27 1.12-2.74 2-3.14.88-.4 2.83 1.12 3.67.55.84-.57.27-2.93 1-3.58.73-.65 3 .24 3.68-.5.68-.74-.55-2.89 0-3.72.55-.83 3-.63 3.38-1.53.38-.9-1.35-2.6-1.07-3.56s2.68-1.42 2.82-2.41c.14-.99-2.02-2.11-2.02-3.12z" fill="#F3AC3F" stroke-miterlimit="10"/><path d="M27.99 42.02a13.6 13.6 0 10-13.58-13.6 13.58 13.58 0 0013.58 13.6z" fill="#fff" stroke-linecap="round" stroke-linejoin="round" stroke-dasharray="2 2"/><path d="M27.99 19.07l2.09 6.46h6.78l-5.48 4 2.09 6.46-5.48-4-5.48 4 2.09-6.46-5.48-4h6.78l2.09-6.46z" fill="#92E3A9" stroke-miterlimit="10"/><path opacity=".3" d="M47.61 28.4c0-1 2.17-2.15 2-3.12-.17-.97-2.55-1.48-2.83-2.42-.28-.94 1.48-2.67 1.07-3.56-.41-.89-2.82-.69-3.34-1.55-.52-.86.67-3 0-3.73s-2.93.15-3.68-.5-.18-3-1-3.58c-.82-.58-2.77 1-3.68.55-.91-.45-1-2.86-2-3.14-1-.28-2.38 1.71-3.38 1.58-1-.13-1.79-2.46-2.79-2.46s-1.82 2.32-2.79 2.46c-.97.14-2.43-1.85-3.38-1.58-.95.27-1.12 2.74-2 3.14-.88.4-2.84-1.12-3.67-.55-.83.57-.27 2.93-1 3.59-.73.66-3-.25-3.68.49-.68.74.55 2.89 0 3.73-.55.84-3 .62-3.38 1.52-.38.9 1.35 2.6 1.07 3.56s-2.67 1.46-2.84 2.45c-.17.99 2 2.12 2 3.12s-2.17 2.14-2 3.11c.17.97 2.55 1.48 2.83 2.43.28.95-1.49 2.66-1.07 3.55.42.89 2.86.7 3.38 1.52.52.82-.68 3 0 3.72.68.72 2.92-.14 3.68.51.76.65.18 3 1 3.58.82.58 2.77-1 3.67-.56.9.44 1 2.87 2 3.15 1 .28 2.38-1.71 3.38-1.57 1 .14 1.79 2.45 2.79 2.45s1.82-2.31 2.79-2.45c.97-.14 2.43 1.84 3.38 1.57.95-.27 1.12-2.74 2-3.15.88-.41 2.84 1.13 3.67.56.83-.57.27-2.94 1-3.58.73-.64 3 .24 3.68-.51.68-.75-.55-2.88 0-3.72.55-.84 3-.62 3.38-1.52.38-.9-1.35-2.61-1.07-3.56.28-.95 2.68-1.43 2.83-2.42.15-.99-2.02-2.11-2.02-3.11z" fill="#fff" stroke-miterlimit="10"/></g><defs><clipPath id="clip0"><path fill="#fff" transform="translate(2 6)" d="M0 0h48.16v64.77H0z"/></clipPath></defs></svg>