                <svg width="121" height="114" viewBox="0 0 121 114" fill="none" xmlns="http://www.w3.org/2000/svg">
                    <path d="M109.824 19.6382C106.864 15.6882 103.164 12.36 98.9319 9.8416C91.9041 5.64014 83.9734 3.11208 75.9482 1.7133C50.5538 -2.70888 36.6335 1.96996 26.134 9.57468C19.1802 14.6231 16.994 25.3565 14.9406 33.1614C13.7875 37.5425 12.7595 41.9698 11.3259 46.2688C9.09896 52.9419 4.04051 58.3316 2.35435 65.2126C0.568713 72.4734 0.709014 80.1217 3.18085 87.2106C8.06585 101.214 16.3665 109.329 35.4142 112.024C45.6178 113.472 53.819 109.229 62.2855 104.124C67.5047 100.978 72.9151 98.1416 78.9047 96.8583C85.2309 95.5057 91.7383 95.3184 98.0825 94.0607C112.273 91.2504 116.827 77.7374 118.671 64.938C120.903 49.4411 119.505 32.5043 109.824 19.6382Z" fill="#92E3A9"/>
                    <path opacity="0.7" d="M109.824 19.6382C106.864 15.6882 103.164 12.36 98.9319 9.8416C91.9041 5.64014 83.9734 3.11208 75.9482 1.7133C50.5538 -2.70888 36.6335 1.96996 26.134 9.57468C19.1802 14.6231 16.994 25.3565 14.9406 33.1614C13.7875 37.5425 12.7595 41.9698 11.3259 46.2688C9.09896 52.9419 4.04051 58.3316 2.35435 65.2126C0.568713 72.4734 0.709014 80.1217 3.18085 87.2106C8.06585 101.214 16.3665 109.329 35.4142 112.024C45.6178 113.472 53.819 109.229 62.2855 104.124C67.5047 100.978 72.9151 98.1416 78.9047 96.8583C85.2309 95.5057 91.7383 95.3184 98.0825 94.0607C112.273 91.2504 116.827 77.7374 118.671 64.938C120.903 49.4411 119.505 32.5043 109.824 19.6382Z" fill="white"/>
                    <g opacity="0.2">
                    <path opacity="0.2" d="M118.966 7.97852H70.3051L68.5781 12.144H118.966V7.97852Z" stroke="black" stroke-linejoin="round"/>
                    <path opacity="0.2" d="M118.966 12.1445H70.3051L68.5781 16.3126H118.966V12.1445Z" stroke="black" stroke-linejoin="round"/>
                    <path opacity="0.2" d="M118.966 16.3125H70.3051L68.5781 20.478H118.966V16.3125Z" stroke="black" stroke-linejoin="round"/>
                    <path opacity="0.2" d="M118.966 20.4766H70.3051L68.5781 24.6447H118.966V20.4766Z" stroke="black" stroke-linejoin="round"/>
                    <path opacity="0.2" d="M118.966 24.6465H70.3051L68.5781 28.812H118.966V24.6465Z" stroke="black" stroke-linejoin="round"/>
                    <path opacity="0.2" d="M118.966 28.8105H70.3051L68.5781 32.9786H118.966V28.8105Z" stroke="black" stroke-linejoin="round"/>
                    <path opacity="0.2" d="M118.966 32.9785H70.3051L68.5781 37.144H118.966V32.9785Z" stroke="black" stroke-linejoin="round"/>
                    <path opacity="0.2" d="M118.966 37.1445H70.3051L68.5781 41.3126H118.966V37.1445Z" stroke="black" stroke-linejoin="round"/>
                    <path opacity="0.2" d="M118.966 41.3125H70.3051L68.5781 45.478H118.966V41.3125Z" stroke="black" stroke-linejoin="round"/>
                    <path opacity="0.2" d="M118.966 45.4785H70.3051L68.5781 49.6466H118.966V45.4785Z" stroke="black" stroke-linejoin="round"/>
                    <path opacity="0.2" d="M118.966 49.6465H70.3051L68.5781 53.812H118.966V49.6465Z" stroke="black" stroke-linejoin="round"/>
                    <path opacity="0.2" d="M118.966 53.8125H70.3051L68.5781 57.9806H118.966V53.8125Z" stroke="black" stroke-linejoin="round"/>
                    <path opacity="0.2" d="M118.966 57.9805H70.3051L68.5781 62.146H118.966V57.9805Z" stroke="black" stroke-linejoin="round"/>
                    <path opacity="0.2" d="M118.966 62.1465H70.3051L68.5781 66.3146H118.966V62.1465Z" stroke="black" stroke-linejoin="round"/>
                    <path opacity="0.2" d="M118.966 66.3145H70.3051L68.5781 70.48H118.966V66.3145Z" stroke="black" stroke-linejoin="round"/>
                    <path opacity="0.2" d="M118.966 70.4785H70.3051L68.5781 74.6466H118.966V70.4785Z" stroke="black" stroke-linejoin="round"/>
                    <path opacity="0.2" d="M120 6.58984H68.0605V76.0359H120V6.58984Z" stroke="black" stroke-linejoin="round"/>
                    </g>
                    <g opacity="0.2">
                    <path opacity="0.2" d="M24.1164 101.082H6.66309V110.35H24.1164V101.082Z" stroke="black" stroke-linejoin="round"/>
                    <path opacity="0.2" d="M16.8057 104.633H13.9717V106.014H16.8057V104.633Z" stroke="black" stroke-linejoin="round"/>
                    <path opacity="0.2" d="M25.0091 89.0371H5.76758V112.75H25.0091V89.0371Z" stroke="black" stroke-linejoin="round"/>
                    <path opacity="0.2" d="M24.1164 90.2383H6.66309V99.5061H24.1164V90.2383Z" stroke="black" stroke-linejoin="round"/>
                    <path opacity="0.2" d="M16.8057 93.7891H13.9717V95.1699H16.8057V93.7891Z" stroke="black" stroke-linejoin="round"/>
                    <path opacity="0.2" d="M17.3024 87.5371H10.4404V89.0385H17.3024V87.5371Z" stroke="black" stroke-linejoin="round"/>
                    <path opacity="0.2" d="M14.1704 82.8867H12.9766V87.5399H14.1704V82.8867Z" stroke="black" stroke-linejoin="round"/>
                    <path opacity="0.2" d="M19.8383 72.0781H7.00977V82.8834H19.8383V72.0781Z" stroke="black" stroke-linejoin="round"/>
                    </g>
                    <g opacity="0.2">
                    <path opacity="0.2" d="M96.3562 101.524V81.7102C96.3565 81.336 96.2835 80.9654 96.1413 80.6196C95.9992 80.2738 95.7906 79.9596 95.5276 79.695C95.2646 79.4304 94.9523 79.2205 94.6086 79.0775C94.265 78.9344 93.8966 78.861 93.5247 78.8613H67.6533V101.722" stroke="black" stroke-linejoin="round"/>
                    <path opacity="0.2" d="M67.8699 78.8613H41.5165C41.1447 78.8613 40.7767 78.935 40.4333 79.0782C40.0899 79.2214 39.7779 79.4313 39.5152 79.6959C39.2525 79.9605 39.0441 80.2746 38.9021 80.6202C38.7601 80.9658 38.6872 81.3362 38.6875 81.7102V101.524" stroke="black" stroke-linejoin="round"/>
                    <path opacity="0.2" d="M98.9122 103.425V110.098H67.666V101.523H97.0296C97.2775 101.523 97.5231 101.572 97.7522 101.668C97.9812 101.763 98.1892 101.903 98.3642 102.08C98.5392 102.257 98.6777 102.467 98.7717 102.698C98.8658 102.928 98.9135 103.176 98.9122 103.425Z" stroke="black" stroke-linejoin="round"/>
                    <path opacity="0.2" d="M67.9035 101.523H38.0119C37.7648 101.523 37.5201 101.572 37.2918 101.668C37.0636 101.763 36.8562 101.902 36.6816 102.078C36.507 102.254 36.3685 102.463 36.2742 102.693C36.1799 102.923 36.1315 103.169 36.1318 103.418V110.091H67.9035" stroke="black" stroke-linejoin="round"/>
                    <path opacity="0.2" d="M36.1318 112.88V110.08H98.9659V112.88" stroke="black" stroke-linejoin="round"/>
                    <path opacity="0.2" d="M38.6873 90.1542C38.5101 89.9684 38.2974 89.8207 38.062 89.7197C37.8266 89.6187 37.5734 89.5665 37.3175 89.5664H31.6264C31.3773 89.5661 31.1305 89.6151 30.9003 89.7108C30.6701 89.8065 30.4608 89.9469 30.2845 90.124C30.1083 90.3011 29.9684 90.5115 29.873 90.743C29.7776 90.9745 29.7285 91.2227 29.7285 91.4734V112.745" stroke="black" stroke-linejoin="round"/>
                    <path opacity="0.2" d="M104.654 112.606V91.4734C104.654 90.9676 104.454 90.4826 104.098 90.125C103.743 89.7673 103.261 89.5664 102.758 89.5664H97.0672C96.823 89.5653 96.581 89.6133 96.3555 89.7076" stroke="black" stroke-linejoin="round"/>
                    </g>
                    <path d="M108.998 6.16812V68.0223C108.998 68.771 108.702 69.4891 108.176 70.0186C107.65 70.548 106.936 70.8455 106.192 70.8455H17.4203C16.6761 70.8455 15.9623 70.548 15.4361 70.0186C14.9099 69.4891 14.6143 68.771 14.6143 68.0223V6.16812C14.6143 5.48743 14.883 4.83461 15.3614 4.35329C15.8398 3.87197 16.4886 3.60156 17.1652 3.60156H106.447C107.124 3.60156 107.772 3.87197 108.251 4.35329C108.729 4.83461 108.998 5.48743 108.998 6.16812Z" fill="#92E3A9" stroke="#263238" stroke-miterlimit="10"/>
                    <path d="M108.998 6.16812V11.5066H14.6143V6.16812C14.6143 5.48743 14.883 4.83461 15.3614 4.35329C15.8398 3.87197 16.4886 3.60156 17.1652 3.60156H106.447C107.124 3.60156 107.772 3.87197 108.251 4.35329C108.729 4.83461 108.998 5.48743 108.998 6.16812Z" fill="#C9C9C9" stroke="#263238" stroke-miterlimit="10"/>
                    <path d="M75.4437 10.4728H25.0938C24.8669 10.4721 24.6496 10.3809 24.4894 10.2193C24.3292 10.0576 24.2393 9.83868 24.2393 9.61041C24.2393 9.38214 24.3292 9.16318 24.4894 9.00153C24.6496 8.83988 24.8669 8.74873 25.0938 8.74805H75.4437C75.6711 8.74805 75.8891 8.8389 76.0498 9.00063C76.2105 9.16235 76.3008 9.3817 76.3008 9.61041C76.3008 9.83913 76.2105 10.0585 76.0498 10.2202C75.8891 10.3819 75.6711 10.4728 75.4437 10.4728Z" fill="white" stroke="#263238" stroke-miterlimit="10"/>
                    <path d="M104.215 8.91992H107.47" stroke="#263238" stroke-miterlimit="10"/>
                    <path d="M104.215 9.60938H107.47" stroke="#263238" stroke-miterlimit="10"/>
                    <path d="M104.215 10.3008H107.47" stroke="#263238" stroke-miterlimit="10"/>
                    <path d="M108.998 6.16813V7.70806H14.6143V6.16813C14.6143 5.48743 14.883 4.83462 15.3614 4.35329C15.8398 3.87197 16.4886 3.60156 17.1652 3.60156H106.447C107.124 3.60156 107.772 3.87197 108.251 4.35329C108.729 4.83462 108.998 5.48743 108.998 6.16813Z" fill="#263238" stroke="#263238" stroke-miterlimit="10"/>
                    <path d="M99.5952 5.74022C99.5982 5.58416 99.555 5.43073 99.471 5.29951C99.387 5.16829 99.266 5.06523 99.1235 5.00349C98.981 4.94176 98.8235 4.92414 98.671 4.95289C98.5185 4.98164 98.378 5.05546 98.2674 5.16491C98.1568 5.27437 98.0811 5.4145 98.05 5.56742C98.0189 5.72035 98.0338 5.87912 98.0928 6.02349C98.1518 6.16785 98.2522 6.29125 98.3812 6.37794C98.5103 6.46462 98.662 6.51067 98.8172 6.51019C98.9187 6.51189 99.0196 6.49323 99.1139 6.4553C99.2083 6.41737 99.2941 6.36092 99.3665 6.28925C99.439 6.21759 99.4965 6.13213 99.5357 6.03787C99.575 5.9436 99.5952 5.84242 99.5952 5.74022Z" fill="white" stroke="#263238" stroke-miterlimit="10"/>
                    <path d="M102.82 5.73899C102.822 5.58365 102.779 5.43106 102.695 5.30065C102.611 5.17024 102.49 5.06792 102.348 5.0067C102.206 4.94547 102.05 4.92813 101.898 4.95687C101.746 4.98561 101.606 5.05913 101.496 5.16808C101.386 5.27703 101.311 5.41647 101.28 5.56866C101.249 5.72085 101.263 5.8789 101.322 6.02269C101.38 6.16647 101.48 6.2895 101.608 6.37609C101.736 6.46269 101.887 6.50894 102.042 6.50896C102.143 6.51067 102.244 6.49201 102.338 6.45408C102.433 6.41615 102.519 6.3597 102.591 6.28803C102.663 6.21636 102.721 6.13091 102.76 6.03664C102.799 5.94238 102.82 5.8412 102.82 5.73899Z" fill="white" stroke="#263238" stroke-miterlimit="10"/>
                    <path d="M106.044 5.73899C106.047 5.58365 106.003 5.43106 105.919 5.30065C105.835 5.17024 105.715 5.06792 105.573 5.0067C105.431 4.94547 105.274 4.92813 105.122 4.95687C104.971 4.98561 104.831 5.05913 104.721 5.16808C104.611 5.27703 104.535 5.41647 104.504 5.56866C104.473 5.72085 104.488 5.8789 104.546 6.02269C104.605 6.16647 104.704 6.2895 104.833 6.37609C104.961 6.46269 105.112 6.50894 105.266 6.50896C105.368 6.51067 105.469 6.49201 105.563 6.45408C105.657 6.41615 105.743 6.3597 105.816 6.28803C105.888 6.21636 105.946 6.13091 105.985 6.03664C106.024 5.94238 106.044 5.8412 106.044 5.73899Z" fill="white" stroke="#263238" stroke-miterlimit="10"/>
                    <path d="M103.911 14.1426H19.958V67.0035H103.911V14.1426Z" fill="white" stroke="#263238" stroke-miterlimit="10"/>
                    <path d="M101.769 16.332H22.0986V64.8092H101.769V16.332Z" stroke="#92E3A9" stroke-width="5" stroke-miterlimit="10"/>
                    <path d="M99.7326 18.7578H24.1338V62.3894H99.7326V18.7578Z" stroke="#92E3A9" stroke-miterlimit="10"/>
                    <path d="M49.291 23.8619V24.311H48.7655V23.8336C48.7655 23.3845 48.5895 23.115 48.1865 23.115C47.7834 23.115 47.6074 23.3716 47.6074 23.8336V26.4669C47.6074 26.9135 47.7911 27.1856 48.1865 27.1856C48.5819 27.1856 48.7655 26.9135 48.7655 26.4669V25.8176H49.291V26.4284C49.291 27.183 48.9364 27.6809 48.1712 27.6809C47.4059 27.6809 47.0615 27.183 47.0615 26.4284V23.8619C47.0615 23.1073 47.4161 22.6094 48.1712 22.6094C48.9262 22.6094 49.291 23.1047 49.291 23.8619Z" fill="#263238"/>
                    <path d="M51.5543 24.8635V25.3614H50.3426V27.1323H51.8298V27.6457H49.7891V22.6562H51.8298V23.1696H50.3426V24.8712L51.5543 24.8635Z" fill="#263238"/>
                    <path d="M53.4415 22.6562C54.2195 22.6562 54.5435 23.0566 54.5435 23.7958V24.2013C54.5435 24.7506 54.3521 25.0919 53.9287 25.2279C54.3802 25.364 54.5511 25.7413 54.5511 26.2674V27.0374C54.5349 27.2419 54.5691 27.4473 54.6506 27.6354H54.0919C54.0136 27.4447 53.9821 27.2378 54.0001 27.0322V26.2494C54.0001 25.6848 53.745 25.5077 53.2782 25.5077H52.8879V27.6354H52.3369V22.6562H53.4415ZM53.2986 25.0047C53.7374 25.0047 54.0001 24.8635 54.0001 24.3219V23.8446C54.0001 23.398 53.8369 23.1619 53.4262 23.1619H52.8879V25.0047H53.2986Z" fill="#263238"/>
                    <path d="M55.8443 27.6378V23.1618H54.9336V22.6484H57.3085V23.1618H56.3978V27.6378H55.8443Z" fill="#263238"/>
                    <path d="M58.2424 22.6562V27.6379H57.6914V22.6562H58.2424Z" fill="#263238"/>
                    <path d="M60.4998 24.9764V25.4897H59.3596V27.6457H58.8086V22.6562H60.7753V23.1696H59.3596V24.9841L60.4998 24.9764Z" fill="#263238"/>
                    <path d="M61.7655 22.6562V27.6379H61.2119V22.6562H61.7655Z" fill="#263238"/>
                    <path d="M64.5149 23.8619V24.311H63.9843V23.8336C63.9843 23.3845 63.8083 23.115 63.4052 23.115C63.0022 23.115 62.8236 23.3716 62.8236 23.8336V26.4669C62.8236 26.9135 63.0073 27.1856 63.4052 27.1856C63.8032 27.1856 63.9843 26.9135 63.9843 26.4669V25.8176H64.5072V26.4284C64.5072 27.183 64.1552 27.6809 63.3899 27.6809C62.6246 27.6809 62.2803 27.183 62.2803 26.4284V23.8619C62.2803 23.1073 62.6323 22.6094 63.3899 22.6094C64.1475 22.6094 64.5149 23.1047 64.5149 23.8619Z" fill="#263238"/>
                    <path d="M65.5765 26.6344L65.3852 27.6379H64.875L65.8214 22.6562H66.6198L67.5688 27.6379H67.0203L66.829 26.6344H65.5765ZM65.6479 26.157H66.7499L66.1913 23.2825L65.6479 26.157Z" fill="#263238"/>
                    <path d="M68.7238 27.6378V23.1618H67.8105V22.6484H70.188V23.1618H69.2748V27.6378H68.7238Z" fill="#263238"/>
                    <path d="M71.1272 22.6562V27.6379H70.5762V22.6562H71.1272Z" fill="#263238"/>
                    <path d="M71.6377 23.8619C71.6377 23.0919 72.0127 22.6094 72.7677 22.6094C73.5228 22.6094 73.908 23.0996 73.908 23.8619V26.4284C73.908 27.183 73.533 27.6809 72.7677 27.6809C72.0025 27.6809 71.6377 27.1984 71.6377 26.4284V23.8619ZM72.181 26.4669C72.181 26.9212 72.3724 27.1856 72.7677 27.1856C73.1631 27.1856 73.3545 26.9289 73.3545 26.4669V23.8311C73.3545 23.3819 73.1708 23.1124 72.7677 23.1124C72.3647 23.1124 72.181 23.3691 72.181 23.8311V26.4669Z" fill="#263238"/>
                    <path d="M74.9255 27.6379H74.4434V22.6562H75.1423L76.2877 26.2494V22.6562H76.7774V27.6379H76.2035L74.928 23.611L74.9255 27.6379Z" fill="#263238"/>
                    <path d="M43.3857 30.4141H81.3612" stroke="#263238" stroke-miterlimit="10"/>
                    <path d="M94.6211 35.2891H97.2485" stroke="#263238" stroke-miterlimit="10"/>
                    <path d="M72.1396 35.2891H93.2331" stroke="#263238" stroke-miterlimit="10"/>
                    <path d="M59.9287 35.2891H70.9359" stroke="#263238" stroke-miterlimit="10"/>
                    <path d="M43.5518 35.2891H58.8164" stroke="#263238" stroke-miterlimit="10"/>
                    <path d="M33.6514 35.2891H41.9776" stroke="#263238" stroke-miterlimit="10"/>
                    <path d="M27.499 35.2891H32.4503" stroke="#263238" stroke-miterlimit="10"/>
                    <path d="M59.0947 37.627H97.2487" stroke="#263238" stroke-miterlimit="10"/>
                    <path d="M29.4883 37.627H57.8927" stroke="#263238" stroke-miterlimit="10"/>
                    <path d="M27.499 37.627H28.3791" stroke="#263238" stroke-miterlimit="10"/>
                    <path d="M94.3428 39.9648H97.2483" stroke="#263238" stroke-miterlimit="10"/>
                    <path d="M78.708 39.9648H92.9549" stroke="#263238" stroke-miterlimit="10"/>
                    <path d="M57.1504 39.9648H77.5985" stroke="#263238" stroke-miterlimit="10"/>
                    <path d="M54.0059 39.9648H55.9497" stroke="#263238" stroke-miterlimit="10"/>
                    <path d="M27.499 39.9648H52.3398" stroke="#263238" stroke-miterlimit="10"/>
                    <path d="M85.6475 42.3047H97.249" stroke="#263238" stroke-miterlimit="10"/>
                    <path d="M44.1992 42.3047H84.5368" stroke="#263238" stroke-miterlimit="10"/>
                    <path d="M40.498 42.3047H42.7199" stroke="#263238" stroke-miterlimit="10"/>
                    <path d="M27.499 42.3047H39.297" stroke="#263238" stroke-miterlimit="10"/>
                    <path d="M89.9961 44.6426H97.2483" stroke="#263238" stroke-miterlimit="10"/>
                    <path d="M59.0029 44.6426H88.517" stroke="#263238" stroke-miterlimit="10"/>
                    <path d="M47.1592 44.6426H57.6154" stroke="#263238" stroke-miterlimit="10"/>
                    <path d="M30.5986 44.6426H45.7715" stroke="#263238" stroke-miterlimit="10"/>
                    <path d="M27.499 44.6426H29.675" stroke="#263238" stroke-miterlimit="10"/>
                    <path d="M30.3174 54.9459L32.7101 61.2006L33.8683 58.3722L36.6819 59.5246L33.932 53.6523L30.3174 54.9459Z" fill="#263238" stroke="#263238" stroke-linecap="round" stroke-linejoin="round"/>
                    <path d="M29.4627 53.5859L26.5674 59.6199L29.4091 58.5394L30.4983 61.3909L32.8758 55.3569L29.4627 53.5859Z" fill="#263238" stroke="#263238" stroke-linecap="round" stroke-linejoin="round"/>
                    <path d="M36.6742 52.0663C36.6742 51.8379 37.1665 51.5761 37.1359 51.3554C37.1053 51.1346 36.5594 51.0191 36.4956 50.8061C36.4318 50.5931 36.8298 50.1978 36.7379 49.9951C36.6461 49.7923 36.09 49.8385 35.9726 49.6486C35.8553 49.4587 36.1232 48.971 35.9726 48.8016C35.8221 48.6322 35.3069 48.835 35.1385 48.6861C34.9701 48.5373 35.0977 47.9957 34.9089 47.8725C34.7202 47.7493 34.2814 48.0933 34.0748 47.9983C33.8681 47.9033 33.8426 47.3464 33.6258 47.2822C33.409 47.2181 33.0876 47.6723 32.8605 47.6415C32.6335 47.6107 32.4549 47.082 32.2279 47.082C32.0009 47.082 31.8147 47.6107 31.5953 47.6415C31.3759 47.6723 31.0443 47.2206 30.83 47.2822C30.6157 47.3438 30.5749 47.9059 30.3785 47.9983C30.1821 48.0907 29.7357 47.7416 29.5469 47.8725C29.3581 48.0034 29.4857 48.5398 29.3173 48.6887C29.149 48.8376 28.6286 48.6322 28.4832 48.8016C28.3378 48.971 28.6082 49.4587 28.4832 49.6486C28.3582 49.8385 27.8072 49.7898 27.7179 49.9951C27.6286 50.2004 28.024 50.588 27.9602 50.8061C27.8965 51.0243 27.3531 51.1321 27.32 51.3554C27.2868 51.5787 27.7817 51.8379 27.7817 52.0663C27.7817 52.2947 27.2893 52.5539 27.32 52.7747C27.3506 52.9954 27.8965 53.1109 27.9602 53.3265C28.024 53.5421 27.6235 53.9322 27.7179 54.135C27.8123 54.3377 28.3658 54.2941 28.4832 54.4814C28.6005 54.6688 28.3301 55.159 28.4832 55.3284C28.6362 55.4978 29.1464 55.295 29.3173 55.4439C29.4882 55.5928 29.3581 56.1343 29.5469 56.2575C29.7357 56.3807 30.1744 56.0368 30.3785 56.1317C30.5826 56.2267 30.6132 56.7836 30.83 56.8478C31.0468 56.912 31.3683 56.4577 31.5953 56.4911C31.8223 56.5244 32.0009 57.048 32.2279 57.048C32.4549 57.048 32.6412 56.5219 32.8605 56.4911C33.0799 56.4603 33.4115 56.9094 33.6258 56.8478C33.8401 56.7862 33.8809 56.2241 34.0773 56.1317C34.2737 56.0393 34.7202 56.3884 34.9089 56.2575C35.0977 56.1266 34.9701 55.5902 35.1385 55.4439C35.3069 55.2976 35.8272 55.4978 35.9726 55.3284C36.1181 55.159 35.8477 54.6714 35.9726 54.4814C36.0976 54.2915 36.6486 54.3403 36.7379 54.135C36.8272 53.9296 36.4318 53.5421 36.4956 53.3239C36.5594 53.1058 37.1027 53.0005 37.1359 52.7747C37.169 52.5488 36.6742 52.2947 36.6742 52.0663Z" fill="#92E3A9" stroke="#263238" stroke-miterlimit="10"/>
                    <path d="M32.2336 55.1613C33.9327 55.1613 35.31 53.7754 35.31 52.066C35.31 50.3565 33.9327 48.9707 32.2336 48.9707C30.5346 48.9707 29.1572 50.3565 29.1572 52.066C29.1572 53.7754 30.5346 55.1613 32.2336 55.1613Z" fill="#263238" stroke="#263238" stroke-linecap="round" stroke-linejoin="round"/>
                    <path d="M32.2338 49.9375L32.7082 51.4081H34.2439L33.0016 52.3141L33.476 53.7848L32.2338 52.8762L30.9915 53.7848L31.4659 52.3141L30.2236 51.4081H31.7593L32.2338 49.9375Z" fill="#92E3A9"/>
                    <path d="M40.2939 50.582H52.0281" stroke="#263238" stroke-miterlimit="10"/>
                    <path d="M40.2939 53.4023H52.0281" stroke="#263238" stroke-miterlimit="10"/>
                    <path d="M90.6902 57.2796C93.0993 57.2796 95.0522 55.3147 95.0522 52.8908C95.0522 50.4669 93.0993 48.502 90.6902 48.502C88.2811 48.502 86.3281 50.4669 86.3281 52.8908C86.3281 55.3147 88.2811 57.2796 90.6902 57.2796Z" stroke="#92E3A9" stroke-miterlimit="10"/>
                    <path d="M91.3214 55.8049C92.9178 55.4532 93.9287 53.866 93.5791 52.2598C93.2296 50.6535 91.6521 49.6365 90.0556 49.9882C88.4592 50.3399 87.4484 51.9271 87.7979 53.5333C88.1475 55.1395 89.725 56.1565 91.3214 55.8049Z" fill="#92E3A9"/>
                    <path d="M105.055 102.272C105.055 102.272 104.162 100.732 103.716 99.8975C103.404 99.2937 103.127 98.6725 102.887 98.0368C102.887 98.0368 103.971 98.6784 104.29 98.9351C104.609 99.1917 105.948 100.796 105.948 100.796L106.33 100.347L105.884 98.8709L107.351 100.539L108.052 97.5234L109.136 100.411L111.177 97.8443L111.305 100.411L113.792 98.4217L112.899 101.566L111.942 102.913H105.119L105.055 102.272Z" fill="#92E3A9" stroke="#263238" stroke-miterlimit="10"/>
                    <path d="M104.672 102.272C104.672 102.272 104.098 102.015 103.141 100.86C102.531 100.111 101.976 99.3178 101.483 98.4858C101.483 98.4858 103.652 99.7049 104.417 100.282C105.07 100.844 105.668 101.467 106.203 102.143C106.203 102.143 105.565 100.539 105.501 99.7691C105.437 98.9991 105.374 97.3309 105.374 97.3309C105.374 97.3309 107.223 99.1916 107.35 99.7049C107.478 100.218 108.18 101.951 108.18 101.951C108.391 101.169 108.561 100.376 108.69 99.5766C108.817 98.6142 109.838 97.0742 109.838 97.0742C109.838 97.0742 109.965 98.165 110.029 99.2558C110.093 100.347 109.455 102.4 109.455 102.4C109.455 102.4 110.284 100.411 111.113 99.4483C111.764 98.733 112.467 98.0681 113.218 97.4592C113.218 97.4592 112.58 99.4483 112.325 100.347C112.086 101.046 111.765 101.714 111.368 102.336C111.967 101.575 112.605 100.846 113.281 100.154C113.904 99.653 114.565 99.2024 115.258 98.8066C115.258 98.8066 114.557 100.154 114.047 100.924C113.571 101.592 113.06 102.235 112.516 102.849H104.672V102.272Z" fill="#92E3A9" stroke="#263238" stroke-miterlimit="10"/>
                    <path d="M113.652 102.143L113.21 106.057L112.453 112.75H104.461L103.703 106.057L103.262 102.143H113.652Z" fill="white" stroke="#263238" stroke-miterlimit="10"/>
                    <path d="M113.21 106.057L112.453 112.75H104.461L103.703 106.057H113.21Z" fill="#92E3A9" stroke="#263238" stroke-miterlimit="10"/>
                    <path d="M105.182 107.918C105.394 107.918 105.565 107.746 105.565 107.533C105.565 107.321 105.394 107.148 105.182 107.148C104.971 107.148 104.8 107.321 104.8 107.533C104.8 107.746 104.971 107.918 105.182 107.918Z" fill="#263238"/>
                    <path d="M107.988 107.918C108.199 107.918 108.371 107.746 108.371 107.533C108.371 107.321 108.199 107.148 107.988 107.148C107.777 107.148 107.605 107.321 107.605 107.533C107.605 107.746 107.777 107.918 107.988 107.918Z" fill="#263238"/>
                    <path d="M106.266 109.907C106.478 109.907 106.649 109.734 106.649 109.522C106.649 109.309 106.478 109.137 106.266 109.137C106.055 109.137 105.884 109.309 105.884 109.522C105.884 109.734 106.055 109.907 106.266 109.907Z" fill="#263238"/>
                    <path d="M109.646 109.907C109.858 109.907 110.029 109.734 110.029 109.522C110.029 109.309 109.858 109.137 109.646 109.137C109.435 109.137 109.264 109.309 109.264 109.522C109.264 109.734 109.435 109.907 109.646 109.907Z" fill="#263238"/>
                    <path d="M111.879 109.907C112.09 109.907 112.261 109.734 112.261 109.522C112.261 109.309 112.09 109.137 111.879 109.137C111.667 109.137 111.496 109.309 111.496 109.522C111.496 109.734 111.667 109.907 111.879 109.907Z" fill="#263238"/>
                    <path d="M110.794 107.918C111.005 107.918 111.176 107.746 111.176 107.533C111.176 107.321 111.005 107.148 110.794 107.148C110.582 107.148 110.411 107.321 110.411 107.533C110.411 107.746 110.582 107.918 110.794 107.918Z" fill="#263238"/>
                    <path d="M105.182 111.51C105.394 111.51 105.565 111.338 105.565 111.125C105.565 110.913 105.394 110.74 105.182 110.74C104.971 110.74 104.8 110.913 104.8 111.125C104.8 111.338 104.971 111.51 105.182 111.51Z" fill="#263238"/>
                    <path d="M107.988 111.51C108.199 111.51 108.371 111.338 108.371 111.125C108.371 110.913 108.199 110.74 107.988 110.74C107.777 110.74 107.605 110.913 107.605 111.125C107.605 111.338 107.777 111.51 107.988 111.51Z" fill="#263238"/>
                    <path d="M110.794 111.51C111.005 111.51 111.176 111.338 111.176 111.125C111.176 110.913 111.005 110.74 110.794 110.74C110.582 110.74 110.411 110.913 110.411 111.125C110.411 111.338 110.582 111.51 110.794 111.51Z" fill="#263238"/>
                    <path d="M66.3255 69.3835C66.3302 67.4274 65.3028 65.8392 64.0306 65.836C62.7585 65.8329 61.7233 67.4161 61.7186 69.3722C61.7138 71.3283 62.7413 72.9166 64.0134 72.9197C65.2856 72.9229 66.3207 71.3396 66.3255 69.3835Z" fill="white" stroke="#263238" stroke-linecap="round" stroke-linejoin="round"/>
                    <path d="M66.9151 60.5101C66.9151 60.5101 65.6728 61.2262 64.4892 60.4511C63.3056 59.676 64.1346 59.3218 64.3718 58.8444C64.6091 58.367 64.0173 58.249 63.8974 57.5945C63.7775 56.94 64.1933 56.4036 64.4305 56.3446C64.6678 56.2856 64.6091 55.6285 64.6091 54.974C64.6091 54.3196 65.3744 53.7241 65.7315 53.7241C66.0886 53.7241 66.3233 53.2493 66.5605 52.6539C66.7978 52.0584 67.2722 51.522 68.0911 51.8839C68.9099 52.2458 69.3334 52.2407 69.7492 51.6452C70.165 51.0498 71.1675 50.9317 71.5348 51.2294C71.9021 51.5272 72.0654 52.1226 72.7771 51.5272C73.4888 50.9317 74.374 51.0523 74.7872 51.4681C75.2005 51.8839 75.1418 52.3613 75.8076 52.1226C76.4734 51.8839 77.5218 52.2407 77.759 52.9567C77.9963 53.6728 79.2896 54.4453 79.7717 54.2657C80.2538 54.086 81.0727 54.2657 80.6569 55.1588C80.2411 56.052 80.7181 56.6474 81.0727 56.6474C81.4272 56.6474 82.1976 56.8861 81.7818 57.6587C81.366 58.4312 81.0727 59.0292 81.5446 59.2653C82.0165 59.5015 82.7869 59.563 82.1976 60.5768C81.6084 61.5906 81.1313 61.529 81.3099 62.1168C81.4885 62.7045 81.8405 62.8867 81.3099 63.3077C80.7793 63.7286 80.1263 63.9031 80.1263 64.2599C80.1263 64.6166 80.8354 64.7937 80.0064 65.0914C79.5283 65.267 79.0319 65.3875 78.5269 65.4507C78.5269 65.4507 77.3458 62.2348 73.9709 61.1646C70.5961 60.0943 68.6472 60.2098 67.8768 60.6282C67.1064 61.0465 66.9151 60.5101 66.9151 60.5101Z" fill="#263238" stroke="#263238" stroke-linecap="round" stroke-linejoin="round"/>
                    <path d="M68.106 82.3359L63.7695 84.3481C63.7695 84.3481 61.5272 96.837 61.6879 100.302C61.8486 103.767 63.7695 112.388 63.7695 112.388H74.1874C74.1874 112.388 72.5854 101.832 73.3864 98.0459C74.1874 94.2602 76.1108 83.8656 76.1108 83.8656C76.1108 83.8656 72.9068 82.9801 71.9452 82.8185C70.9835 82.6568 68.106 82.3359 68.106 82.3359Z" fill="white" stroke="#263238" stroke-miterlimit="10"/>
                    <path d="M63.1322 88.1699L75.1215 89.212C75.0246 89.7253 74.9276 90.2386 74.8281 90.7519L62.8899 89.7253C62.9638 89.1812 63.0531 88.6601 63.1322 88.1699ZM73.392 98.0358C73.4838 97.5995 73.5909 97.0759 73.7083 96.4959L62.0608 95.4846C61.9945 96.0236 61.9358 96.5446 61.8823 97.04L73.392 98.0435V98.0358ZM74.4123 92.8462L62.5532 91.8196C62.4766 92.3329 62.4001 92.8462 62.3287 93.3749L74.1113 94.4015C74.221 93.9036 74.3205 93.3852 74.4225 92.8565L74.4123 92.8462ZM61.696 99.3242C61.6807 99.6938 61.6782 100.02 61.696 100.292C61.696 100.479 61.719 100.682 61.7369 100.895L73.1675 101.629C73.1675 101.08 73.1675 100.551 73.1675 100.058L61.696 99.3242ZM63.8439 84.3047L63.7725 84.3381C63.7725 84.3381 63.6705 84.913 63.5174 85.8498L75.5475 86.8969C75.6546 86.3143 75.7541 85.7907 75.8357 85.357L63.8439 84.3047ZM73.5374 107.255L62.7088 107.139C62.8108 107.683 62.9154 108.21 63.0149 108.71L73.7287 108.833C73.6777 108.341 73.6114 107.812 73.5552 107.275L73.5374 107.255ZM62.2445 104.668L73.3588 105.325C73.3146 104.8 73.2763 104.273 73.244 103.746L61.992 103.082C62.0838 103.603 62.1705 104.137 62.2624 104.678L62.2445 104.668Z" fill="#263238"/>
                    <path d="M67.4665 80.0705C67.4665 80.0705 66.5864 83.4532 66.5073 85.2267C66.4283 87.0002 68.2675 88.4477 70.9102 88.2064C73.5529 87.9652 74.0325 85.065 74.0325 84.3386C74.0325 83.6123 74.1881 77.5039 74.1881 77.5039C73.3022 78.2666 72.3646 78.9664 71.3821 79.5982C69.8694 80.5632 67.4665 80.0705 67.4665 80.0705Z" fill="#B5B5B5" stroke="#263238" stroke-miterlimit="10"/>
                    <path d="M69.8693 82.9796C72.3718 81.7733 73.6192 79.4044 74.1829 77.9004C74.1829 77.6437 74.1829 77.5 74.1829 77.5C73.297 78.2627 72.3594 78.9625 71.3769 79.5943C69.8464 80.5619 67.4536 80.0794 67.4536 80.0794C67.4536 80.0794 66.9052 82.1943 66.6348 83.9549C67.7593 83.8128 68.8525 83.4832 69.8693 82.9796Z" fill="#263238" stroke="#263238" stroke-miterlimit="10"/>
                    <path d="M78.4453 67.1441C78.4453 67.1441 78.3433 63.5715 77.0245 61.5285C75.7057 59.4855 72.9252 58.2356 69.8207 58.7669C65.9688 59.4342 64.2393 62.3395 63.6296 64.7906C63.02 67.2417 63.7317 70.8143 63.7317 73.2603C63.7317 75.7062 66.5734 80.1002 67.3846 80.8162C68.1958 81.5323 69.4483 81.7684 70.8793 81.0395C72.1931 80.3671 74.3537 78.0803 75.6725 76.7533C76.9913 75.4264 77.777 71.4791 77.9811 70.5602C78.1851 69.6414 78.4453 67.1441 78.4453 67.1441Z" fill="#B5B5B5" stroke="#263238" stroke-linecap="round" stroke-linejoin="round"/>
                    <path d="M67.6853 74.084C67.6853 74.084 67.5654 74.854 69.3408 74.7385" stroke="#263238" stroke-linecap="round" stroke-linejoin="round"/>
                    <path d="M67.1523 76.1074C67.1523 76.1074 69.2237 77.537 71.295 76.169" stroke="#263238" stroke-linecap="round" stroke-linejoin="round"/>
                    <path d="M71.2949 71.3435C71.2949 71.3435 71.8255 70.4503 73.3663 71.2228" stroke="#263238" stroke-width="2" stroke-linecap="round" stroke-linejoin="round"/>
                    <path d="M67.1524 70.809C67.1524 71.2376 66.9534 71.579 66.7085 71.579C66.4636 71.579 66.2646 71.2325 66.2646 70.809C66.2646 70.3855 66.4636 70.0391 66.7085 70.0391C66.9534 70.0391 67.1524 70.383 67.1524 70.809Z" fill="#263238"/>
                    <path d="M65.2598 68.3696C65.2598 68.3696 65.7929 67.1787 67.5556 67.7741" stroke="#263238" stroke-linecap="round" stroke-linejoin="round"/>
                    <path d="M70.5244 68.263C70.5244 68.263 72.1825 67.3699 74.0166 68.7378" stroke="#263238" stroke-linecap="round" stroke-linejoin="round"/>
                    <path d="M69.8208 58.7677C65.9689 59.435 64.2394 62.3404 63.6297 64.7914C63.5023 65.3356 63.4271 65.8908 63.4053 66.4494C63.6042 65.8258 64.6374 63.0898 67.5658 62.3429C70.882 61.5114 73.7798 62.5816 74.7849 64.0112C75.79 65.4408 75.5502 67.2861 75.9099 68.1793C76.1343 68.744 77.2618 69.596 78.0603 70.1453C78.2439 69.0494 78.4455 67.1321 78.4455 67.1321C78.4455 67.1321 78.3434 63.5595 77.0246 61.5165C75.7058 59.4735 72.9253 58.2364 69.8208 58.7677Z" fill="#263238" stroke="#263238" stroke-linecap="round" stroke-linejoin="round"/>
                    <path d="M77.4476 67.7742C77.4476 67.7742 77.7435 64.6199 76.8557 62.5358C75.968 60.4518 74.9043 59.5586 74.9043 59.5586C74.9043 59.5586 77.3889 60.8701 78.2766 62.1252C79.1643 63.3802 79.2817 66.4113 79.0419 68.4954L77.2078 68.1976L77.4476 67.7742Z" fill="#92E3A9" stroke="#263238" stroke-miterlimit="10"/>
                    <path d="M79.8327 70.8684C79.4755 72.7908 78.172 74.1588 76.9195 73.9252C75.667 73.6917 74.9451 71.9387 75.3022 70.0163C75.6594 68.094 76.9629 66.726 78.2128 66.9596C79.4628 67.1931 80.1898 68.9461 79.8327 70.8684Z" fill="white" stroke="#263238" stroke-linecap="round" stroke-linejoin="round"/>
                    <path d="M79.6064 71.1154C79.8772 69.6566 79.3277 68.3294 78.3791 68.1511C77.4305 67.9728 76.4419 69.011 76.171 70.4698C75.9002 71.9287 76.4497 73.2559 77.3983 73.4341C78.347 73.6124 79.3355 72.5743 79.6064 71.1154Z" fill="#92E3A9" stroke="#263238" stroke-miterlimit="10"/>
                    <path d="M65.1446 104.534C65.7415 108.794 66.4762 112.616 66.4762 112.616H62.1014C62.1014 112.616 60.9815 106.813 59.6193 103.592C58.8541 101.759 58.6679 101.025 58.6551 100.725C58.0607 102.149 54.3568 110.95 53.6936 111.248C52.9717 111.569 50.3289 110.991 49.357 110.683C48.3851 110.375 48.3188 108.992 48.4795 108.427C48.6402 107.862 55.367 91.5057 56.0047 90.4612C56.6026 89.3968 57.0604 88.2589 57.3669 87.0759C57.446 86.5933 57.2853 85.4641 58.0072 85.0637C58.4434 84.8198 61.5096 84.1064 63.8743 83.5776C65.4201 83.2312 66.6624 82.9668 66.6624 82.9668C66.6624 82.9668 64.7492 90.1352 64.4227 95.2119C64.2824 97.4627 64.6778 101.138 65.1446 104.531C65.1472 104.531 65.1472 104.531 65.1446 104.534Z" fill="#92E3A9" stroke="#263238" stroke-miterlimit="10"/>
                    <path d="M65.145 104.532C64.594 103.621 62.3594 99.7097 62.061 95.6366C61.7931 91.9818 63.2421 85.9837 63.8798 83.5737C65.4256 83.2272 66.6679 82.9629 66.6679 82.9629C66.6679 82.9629 64.7496 90.1364 64.4231 95.2131C64.2828 97.464 64.668 101.139 65.145 104.532Z" fill="#92E3A9" stroke="#263238" stroke-miterlimit="10"/>
                    <path d="M59.2725 92.2812C59.4714 91.4111 59.6194 90.9414 59.6194 90.9414" stroke="#263238" stroke-miterlimit="10"/>
                    <path d="M58.7397 100.53C58.7397 100.53 58.2576 98.8358 58.6581 95.7765C58.7652 94.968 58.88 94.2494 58.9948 93.6309" stroke="#263238" stroke-miterlimit="10"/>
                    <path d="M93.9727 101.236C92.1309 101.154 82.9221 95.382 82.9221 95.382C82.9221 95.382 80.037 101.07 79.958 102.224C79.8789 103.379 82.2002 112.616 82.2002 112.616H72.3511C72.3511 112.616 72.0527 109.375 71.9915 105.82C71.9634 104.18 71.9915 102.484 72.1114 100.987C72.5118 96.288 74.1113 83.0215 74.1113 83.0215L75.7158 83.1857C75.7158 83.1857 76.1699 83.3397 76.8816 83.5887C78.7769 84.2509 82.4936 85.606 84.1236 86.5659C86.3633 87.8851 89.4805 90.0308 91.0111 91.0215C92.5416 92.0122 96.1359 94.2374 96.8552 97.2069C97.5746 100.176 95.8144 101.318 93.9727 101.236Z" fill="#92E3A9" stroke="#263238" stroke-miterlimit="10"/>
                    <path d="M76.8816 83.5784C76.6647 86.879 76.027 94.7404 74.6521 98.5441C73.3358 102.181 72.3894 104.745 71.9915 105.82C71.9634 104.18 71.9915 102.484 72.1114 100.987C72.5118 96.288 74.1113 83.0215 74.1113 83.0215L75.7158 83.1857C75.7158 83.1857 76.1699 83.3295 76.8816 83.5784Z" stroke="#263238" stroke-miterlimit="10"/>
                    <path d="M82.9218 95.379L79.2383 94.2266" stroke="#263238" stroke-miterlimit="10"/>
                    <path d="M77.6826 91.7305C77.7898 92.9496 78.1239 94.297 78.9989 95.0516" stroke="#263238" stroke-miterlimit="10"/>
                    <path d="M77.7158 89.1973C77.6642 89.6592 77.6378 90.1235 77.6367 90.5883" stroke="#263238" stroke-miterlimit="10"/>
                    <path d="M77.249 93.4824C77.249 93.4824 78.1291 95.1327 79.1699 95.7102" stroke="#263238" stroke-miterlimit="10"/>
                    <path d="M82.7669 81.6715C82.6187 81.0667 82.5417 80.4464 82.5373 79.8236C82.5373 78.8303 82.7669 78.2708 82.4072 78.3041C82.0475 78.3375 81.42 78.7995 81.2236 79.5874C81.0272 80.3754 81.4532 81.1068 81.5195 81.3712C81.5597 81.5333 81.582 81.6995 81.5858 81.8665C81.5858 81.8665 78.7288 81.9641 78.2033 81.9641C77.6778 81.9641 77.1523 82.2618 77.1523 82.7571C77.1523 83.2525 77.711 83.5271 77.711 83.5271L77.9661 83.6606C77.9661 83.6606 77.637 84.2868 77.8666 84.6179C77.9935 84.8066 78.1493 84.9738 78.3283 85.1132C78.2594 85.2134 78.2171 85.3297 78.2055 85.451C78.1938 85.5723 78.2133 85.6946 78.262 85.8062C78.3469 86.0311 78.4949 86.2264 78.688 86.3683C78.688 86.3683 78.262 86.7661 78.8206 87.2948C79.3793 87.8235 80.5935 87.8569 81.4455 87.8569C82.2975 87.8569 83.022 87.8877 83.022 87.8877L83.3842 87.921L86.4045 92.4485L89.2615 89.2428C89.2615 89.2428 85.0576 85.1363 84.499 84.4203C83.9403 83.7042 82.7669 81.6715 82.7669 81.6715Z" fill="#B5B5B5" stroke="#263238" stroke-miterlimit="10"/>
                    <path d="M89.1665 88.8594L85.2432 92.5655C85.2432 92.5655 88.8476 97.4009 90.7684 99.8314C92.6893 102.262 96.2146 102.655 97.735 101.441C99.2553 100.227 99.4186 97.4933 98.0564 95.7942C96.6942 94.0952 89.1665 88.8594 89.1665 88.8594Z" fill="#92E3A9" stroke="#263238" stroke-miterlimit="10"/>
                    <path d="M62.9123 108.329C62.9123 108.329 68.6723 109.33 69.2105 109.33C69.7488 109.33 75.4322 107.861 75.8148 108.169C76.1975 108.477 78.7331 110.644 79.3478 111.262C79.7131 111.627 80.0234 112.044 80.2687 112.499H74.9705L73.3583 112.112C73.3583 112.112 71.991 112.748 71.2232 112.748C70.4554 112.748 67.884 112.599 67.884 112.599L63.3587 112.525C63.3587 112.525 61.8358 109.951 62.9123 108.329Z" fill="#B5B5B5" stroke="#263238" stroke-miterlimit="10"/>
                    <path d="M76.5832 112.502C76.5832 112.502 75.2772 111.034 74.7415 110.646C74.4168 110.41 74.0581 110.226 73.6777 110.1" stroke="#263238" stroke-miterlimit="10"/>
                    <path d="M78.3508 112.577C78.3508 112.577 75.8152 109.795 75.5091 109.562C75.1704 109.364 74.8088 109.209 74.4326 109.1" stroke="#263238" stroke-miterlimit="10"/>
                    <path d="M50.3164 105.699C50.3164 105.699 48.0205 107.555 47.6277 108.779C47.2349 110.004 47.7807 111.484 49.0103 111.949C50.2398 112.414 63.9535 112.665 63.9535 112.665C63.7291 112.77 62.724 111.823 63.2954 110.558C63.6831 109.701 64.7545 108.471 64.7545 108.471L53.3111 105.535" fill="#92E3A9"/>
                    <path d="M50.3164 105.699C50.3164 105.699 48.0205 107.555 47.6277 108.779C47.2349 110.004 47.7807 111.484 49.0103 111.949C50.2398 112.414 63.9535 112.665 63.9535 112.665C63.7291 112.77 62.724 111.823 63.2954 110.558C63.6831 109.701 64.7545 108.471 64.7545 108.471L53.3111 105.535" stroke="#263238" stroke-miterlimit="10"/>
                    <path d="M69.663 112.143H22.5986V112.751H69.663V112.143Z" fill="#263238" stroke="#263238" stroke-miterlimit="10"/>
                    <path d="M52.59 112.751H23.2366L20.5225 92.2129H49.8758L52.59 112.751Z" fill="white" stroke="#263238" stroke-miterlimit="10"/>
                    <path d="M51.9927 112.751H22.6419L19.9277 92.2129H49.2785L51.9927 112.751Z" fill="white" stroke="#263238" stroke-miterlimit="10"/>
                    <path d="M24.9102 112.75H51.9039L49.8632 97.248C46.2511 99.558 41.8508 102.548 37.055 106.231C33.3997 109.075 29.2938 111.279 24.9102 112.75Z" fill="#263238" stroke="#263238" stroke-miterlimit="10"/>
                    <path d="M35.0261 104.081C36.0912 104.081 36.9546 103.279 36.9546 102.29C36.9546 101.3 36.0912 100.498 35.0261 100.498C33.9611 100.498 33.0977 101.3 33.0977 102.29C33.0977 103.279 33.9611 104.081 35.0261 104.081Z" fill="white" stroke="#263238" stroke-miterlimit="10"/>
                    <path d="M0 112.75H117.809" stroke="#263238" stroke-miterlimit="10"/>
                    </svg>