<svg width="75" height="75" fill="none" xmlns="http://www.w3.org/2000/svg"><path d="M29.462 51.707c6.273-2.048 10.298-3.6 14.879-3.654 0 0 6.525.84 9.225 0 7.895-2.462 8.582-11.43 4.32-18.05-4.414-6.856-12.357-4.9-12.357-4.9-9.508 1.746-15.85-.18-19.168-1.784-2.659-1.281-5.872-.804-7.92 1.316a4.682 4.682 0 00-1.06 1.611c-2.918 7.99.442 15.799 1.641 20.567.443 1.768 4.165 6.943 10.44 4.894z" stroke="#263238" stroke-linecap="round" stroke-linejoin="round" stroke-dasharray="2 2"/><path d="M32.368 18.654c-.254 2.991-.52 6.024-.454 9.014.157 7.243.884 14.463 1.345 21.69.275 4.307 1.126 8.86.259 13.14-.812 4.012-4.007 7.324-8.192 7.621-4.606.328-7.934-3.972-7.432-8.298.376-3.24 2.324-6.233 2.439-9.498.153-4.396-4.984-3.829-8.323-6.66-3.93-3.327-7.809-7.75-8.95-12.905-.33-1.481-.414-3.06.135-4.483 2.486-6.43 13.037-8.045 17.138-2.58 4.224 5.634 2.56 13.828 9.473 14.596 6.914.769 13.7-2.176 20.358-3.84 6.658-1.666 14.083 2.433 12.931 11.138-1.152 8.704-11.907 8.46-16.9 2.433-4.993-6.026-2.689-18.31-1.665-23.182.564-2.671 2.01-5.069 3.28-7.452.999-1.88 2.259-3.841 1.935-6.06-.956-6.544-11.88-8.394-15.201-2.747-.004.007-1.69 2.327-2.176 8.073z" stroke="#263238" stroke-linecap="round" stroke-linejoin="round" stroke-dasharray="2 2"/><path d="M20.721 57.253a7.547 7.547 0 100-15.095 7.547 7.547 0 000 15.095z" fill="#92E3A9" stroke="#263238" stroke-miterlimit="10"/><path opacity=".3" d="M20.721 57.253a7.547 7.547 0 100-15.095 7.547 7.547 0 000 15.095z" fill="#fff" stroke="#263238" stroke-miterlimit="10"/><path d="M20.668 30.954a7.547 7.547 0 100-15.095 7.547 7.547 0 000 15.095z" fill="#DD6A57" stroke="#263238" stroke-miterlimit="10"/><path opacity=".3" d="M20.668 30.954a7.547 7.547 0 100-15.095 7.547 7.547 0 000 15.095z" fill="#fff" stroke="#263238" stroke-miterlimit="10"/><path d="M43.708 32.755a7.547 7.547 0 100-15.095 7.547 7.547 0 000 15.095z" fill="#F3AC3F" stroke="#263238" stroke-miterlimit="10"/><path opacity=".3" d="M43.708 32.755a7.547 7.547 0 100-15.095 7.547 7.547 0 000 15.095z" fill="#fff" stroke="#263238" stroke-miterlimit="10"/><path d="M44.608 56.155a7.547 7.547 0 100-15.094 7.547 7.547 0 000 15.094z" fill="#7B61FF" stroke="#263238" stroke-miterlimit="10"/><path opacity=".3" d="M44.608 56.155a7.547 7.547 0 100-15.094 7.547 7.547 0 000 15.094z" fill="#fff" stroke="#263238" stroke-miterlimit="10"/></svg>