                <svg width="122" height="127" viewBox="0 0 122 127" fill="none" xmlns="http://www.w3.org/2000/svg">
                    <path d="M43.0462 7.40029C43.0462 7.40029 33.7644 2.39324 25.9105 10.2615C18.0566 18.1297 28.0525 23.4944 30.9084 33.8661C33.7644 44.2379 12.3448 38.5155 4.4909 46.3837C-3.36295 54.252 3.74122 65.339 9.13181 66.9484C14.5224 68.5578 25.1965 64.2661 26.6245 72.4919C26.6245 72.4919 29.1234 76.0684 22.3406 86.4401C15.5577 96.8119 15.9147 107.899 28.4095 110.402C40.9042 112.906 43.7602 96.0966 53.042 98.6001C62.3238 101.104 59.8249 120.774 77.6745 117.913C95.5242 115.052 86.528 101.64 91.9186 95.6317C97.3092 89.659 104.449 97.5272 112.303 91.4472C120.157 85.3672 107.662 72.1343 108.733 63.1931C109.804 54.252 118.372 53.5367 119.086 46.0261C119.8 38.5155 114.445 39.5885 102.664 29.5744C90.8833 19.5603 96.5952 12.4073 88.3843 7.75794C80.1735 3.10853 72.6766 17.0567 61.9668 14.1956C55.5053 12.4431 49.1865 10.1899 43.0462 7.40029Z" fill="#92E3A9"/>
                    <path opacity="0.8" d="M43.0462 7.40029C43.0462 7.40029 33.7644 2.39324 25.9105 10.2615C18.0566 18.1297 28.0525 23.4944 30.9084 33.8661C33.7644 44.2379 12.3448 38.5155 4.4909 46.3837C-3.36295 54.252 3.74122 65.339 9.13181 66.9484C14.5224 68.5578 25.1965 64.2661 26.6245 72.4919C26.6245 72.4919 29.1234 76.0684 22.3406 86.4401C15.5577 96.8119 15.9147 107.899 28.4095 110.402C40.9042 112.906 43.7602 96.0966 53.042 98.6001C62.3238 101.104 59.8249 120.774 77.6745 117.913C95.5242 115.052 86.528 101.64 91.9186 95.6317C97.3092 89.659 104.449 97.5272 112.303 91.4472C120.157 85.3672 107.662 72.1343 108.733 63.1931C109.804 54.252 118.372 53.5367 119.086 46.0261C119.8 38.5155 114.445 39.5885 102.664 29.5744C90.8833 19.5603 96.5952 12.4073 88.3843 7.75794C80.1735 3.10853 72.6766 17.0567 61.9668 14.1956C55.5053 12.4431 49.1865 10.1899 43.0462 7.40029Z" fill="white"/>
                    <path d="M54.0417 89.3369C66.465 85.2598 74.4617 82.184 83.565 82.0767C83.565 82.0767 96.5239 83.7576 101.879 82.0767C117.551 77.1769 118.907 59.3662 110.447 46.2048C101.665 32.6142 85.9212 36.4768 85.9212 36.4768C67.0719 39.946 54.47 36.1191 47.9014 32.9361C42.6179 30.3968 36.2634 31.3267 32.1937 35.5469C31.2655 36.441 30.5515 37.5497 30.0874 38.73C24.3041 54.6452 30.9799 70.1671 33.336 79.6089C34.2285 83.1496 41.6183 93.4141 54.0417 89.3369Z" stroke="#263238" stroke-linecap="round" stroke-linejoin="round" stroke-dasharray="2 2"/>
                    <path d="M59.8247 23.6734C59.3249 29.6103 58.7894 35.6545 58.9322 41.5915C59.2535 55.9688 60.6815 70.3462 61.6097 84.6878C62.1452 93.2356 63.8587 102.284 62.1094 110.796C60.503 118.772 54.1485 125.352 45.8663 125.924C36.7272 126.568 30.1229 118.02 31.1224 109.437C31.8721 102.999 35.7276 97.0624 35.9775 90.5532C36.2988 81.8267 26.0888 82.9354 19.4844 77.3203C11.6306 70.7396 3.95524 61.9415 1.70618 51.7128C1.06359 48.7801 0.885094 45.6329 1.99177 42.8074C6.91828 30.0395 27.8381 26.8207 35.9775 37.6931C44.3669 48.8874 41.0468 65.1604 54.7554 66.6982C68.4639 68.2361 81.9226 62.3707 95.1313 59.0804C108.34 55.79 123.048 63.9086 120.763 81.2187C118.479 98.5288 97.1662 98.028 87.2418 86.0469C77.3174 74.0657 81.9226 49.6743 83.9217 39.982C85.0284 34.6889 87.9201 29.8964 90.419 25.1755C92.4182 21.456 94.9171 17.5576 94.2746 13.1228C92.3825 0.140237 70.713 -3.54352 64.1086 7.65081C64.1086 7.65081 60.7886 12.2644 59.8247 23.6734Z" stroke="#263238" stroke-linecap="round" stroke-linejoin="round" stroke-dasharray="2 2"/>
                    <path d="M88.8125 100.352C97.0736 100.352 103.771 93.6424 103.771 85.3662C103.771 77.09 97.0736 70.3809 88.8125 70.3809C80.5514 70.3809 73.8545 77.09 73.8545 85.3662C73.8545 93.6424 80.5514 100.352 88.8125 100.352Z" fill="#92E3A9" stroke="#263238" stroke-miterlimit="10"/>
                    <path opacity="0.3" d="M88.8125 100.352C97.0736 100.352 103.771 93.6424 103.771 85.3662C103.771 77.09 97.0736 70.3809 88.8125 70.3809C80.5514 70.3809 73.8545 77.09 73.8545 85.3662C73.8545 93.6424 80.5514 100.352 88.8125 100.352Z" fill="white" stroke="#263238" stroke-miterlimit="10"/>
                    <path d="M88.8128 70.381C88.8128 70.381 81.2445 69.5584 80.0307 73.3137C78.817 77.069 83.922 76.3895 83.1009 78.1419C82.2798 79.8944 78.9598 82.1476 80.2806 84.7226C81.6015 87.2977 84.0291 90.0873 81.3516 89.1574C78.6742 88.2276 77.9959 87.9414 78.5314 90.9099C79.0669 93.8426 81.8871 94.6652 86.4209 94.2718C90.9547 93.8784 90.562 96.0242 93.0967 96.2746C95.6313 96.5607 98.2017 95.0586 98.2017 91.3033C98.2017 87.548 95.1316 88.3706 97.9161 86.4751C100.701 84.5796 100.201 79.7514 99.3798 78.285C98.5587 76.8187 96.9522 77.4624 96.9522 75.6027C96.9522 73.7429 93.1681 70.1307 88.8128 70.381Z" fill="#263238" stroke="#263238" stroke-miterlimit="10"/>
                    <path d="M84.6712 72.1336C84.6712 72.1336 81.851 71.7759 81.9581 73.5284C82.0652 75.2809 86.9203 78.7858 91.4898 78.8573C96.0593 78.9646 96.5234 76.6041 95.8808 76.1392" stroke="white" stroke-width="0.75" stroke-linecap="round" stroke-linejoin="round"/>
                    <path d="M87.5632 73.5996C87.5632 73.5996 85.3142 73.8857 85.5998 75.3878C85.8854 76.89 87.2776 77.641 89.4196 78.4636" stroke="white" stroke-width="0.75" stroke-linecap="round" stroke-linejoin="round"/>
                    <path d="M98.7724 82.791C98.7724 82.791 98.5939 85.1157 95.7022 86.6178C92.8106 88.1199 90.2045 90.3731 92.7035 91.4818C95.2025 92.6263 96.6304 93.9138 95.7022 94.1999" stroke="white" stroke-width="0.75" stroke-linecap="round" stroke-linejoin="round"/>
                    <path d="M84.4574 89.7305C84.4574 89.7305 83.3508 92.3413 81.6372 91.8763C79.9236 91.4114 79.3881 90.0881 80.5305 90.0881C81.6729 90.0881 81.7443 90.6603 81.7443 90.6603" stroke="white" stroke-width="0.75" stroke-linecap="round" stroke-linejoin="round"/>
                    <path d="M93.3821 79C93.3821 79 95.6669 78.9643 95.3099 81.2174C94.9529 83.4706 92.7752 83.6494 92.2397 85.3304" stroke="white" stroke-width="0.75" stroke-linecap="round" stroke-linejoin="round"/>
                    <path d="M88.8125 100.388C92.1683 100.388 95.4169 99.2435 98.0586 97.1691C97.0234 96.3823 95.1313 95.0232 94.0603 94.3079C92.4896 93.2708 90.3833 89.9804 87.5987 90.5526C85.3497 91.0176 79.3165 93.6284 77.0317 94.6298C79.8877 98.2778 84.2073 100.388 88.8125 100.388Z" fill="white" stroke="#263238" stroke-miterlimit="10"/>
                    <path d="M87.1346 90.0514C87.1346 90.0514 82.9935 91.2674 82.458 94.7366C81.9225 98.2415 85.8851 95.7022 85.8851 95.7022C85.8851 95.7022 87.9557 98.7422 89.8477 97.8123C91.7398 96.8825 91.9897 93.6636 90.9187 91.5178C89.812 89.4077 87.1346 90.0514 87.1346 90.0514Z" fill="white" stroke="#263238" stroke-miterlimit="10"/>
                    <path d="M87.0277 87.5113C87.0634 88.6558 86.8849 89.8003 86.5636 90.8732C86.0281 92.4826 84.3146 94.7358 85.8496 95.7372C87.3847 96.7386 89.3125 93.5556 89.8123 90.8732C90.3121 88.1909 90.669 85.0078 90.669 85.0078L87.0277 87.5113Z" fill="white"/>
                    <path opacity="0.5" d="M86.6704 90.5156C87.1702 90.6944 87.67 90.8017 88.2055 90.8732C88.6696 90.909 88.8481 90.8374 88.9195 90.6944C88.8481 91.3739 88.6339 93.1979 87.8842 94.557C87.67 94.9861 87.4558 95.308 87.313 95.6299C88.4554 94.8788 89.4906 92.733 89.8476 90.8732C90.3474 88.1909 90.7044 85.0078 90.7044 85.0078L87.0274 87.5113C87.0274 88.5485 86.9203 89.5499 86.6704 90.5156Z" fill="#92E3A9"/>
                    <path d="M87.0277 87.5113C87.0634 88.6558 86.8849 89.8003 86.5636 90.8732C86.0281 92.4826 84.3146 94.7358 85.8496 95.7372C87.3847 96.7386 89.3125 93.5556 89.8123 90.8732C90.3121 88.1909 90.669 85.0078 90.669 85.0078L87.0277 87.5113Z" stroke="#263238" stroke-miterlimit="10"/>
                    <path d="M84.7783 77.1406C84.7783 77.1406 83.4932 82.5053 83.4932 84.5082C83.4932 86.511 85.3138 88.943 87.67 89.1576C90.633 89.4079 91.7397 85.4023 92.3823 83.1133C92.9535 81.1463 93.3105 79.4296 93.4176 79.0004C88.8838 80.7171 84.7783 77.1406 84.7783 77.1406Z" fill="white"/>
                    <path opacity="0.5" d="M93.382 79C92.9179 79.1788 92.4538 79.2861 91.9897 79.3576C91.7755 80.7167 91.1329 84.0786 89.6692 86.1172C88.4197 87.8696 87.0632 88.5134 86.3135 88.728C86.7419 88.9426 87.206 89.0856 87.6701 89.1214C90.6331 89.3718 91.7398 85.3661 92.3824 83.0772" fill="#92E3A9"/>
                    <path d="M84.7783 77.1406C84.7783 77.1406 83.4932 82.5053 83.4932 84.5082C83.4932 86.511 85.3138 88.943 87.67 89.1576C90.633 89.4079 91.7397 85.4023 92.3823 83.1133C92.9535 81.1463 93.3105 79.4296 93.4176 79.0004C88.8838 80.7171 84.7783 77.1406 84.7783 77.1406Z" stroke="#263238" stroke-miterlimit="10"/>
                    <path d="M87.2419 80.9316C87.0634 81.5039 86.8135 82.0761 86.4922 82.5768C86.0281 83.149 85.0285 82.6483 85.3141 82.9702C85.6354 83.3994 86.1352 83.6498 86.6707 83.6855" stroke="#263238" stroke-linecap="round" stroke-linejoin="round"/>
                    <path d="M84.9927 84.7949C84.9927 84.7949 85.8852 86.0825 87.6701 85.4387" stroke="#263238" stroke-linecap="round" stroke-linejoin="round"/>
                    <path d="M86.3852 80.5031C86.3495 80.825 86.1353 81.0396 85.9568 81.0396C85.7783 81.0396 85.6712 80.7177 85.7426 80.3958C85.814 80.074 85.9925 79.8594 86.171 79.8594C86.3495 79.8594 86.4209 80.217 86.3852 80.5031Z" fill="#263238"/>
                    <path d="M89.3125 81.3605C89.2411 81.6824 89.0269 81.897 88.8484 81.8612C88.6699 81.8255 88.5985 81.5393 88.6699 81.2175C88.7413 80.8956 88.9555 80.681 89.134 80.7168C89.3125 80.7525 89.3839 81.0387 89.3125 81.3605Z" fill="#263238"/>
                    <path d="M85.1714 78.9296C85.1714 78.9296 85.6355 77.8209 87.0277 78.4647" stroke="#263238" stroke-linecap="round" stroke-linejoin="round"/>
                    <path d="M88.6699 79.4296C88.6699 79.4296 89.9551 79.0362 90.3121 80.3238" stroke="#263238" stroke-linecap="round" stroke-linejoin="round"/>
                    <path d="M36.7276 100.354C44.9886 100.354 51.6856 93.6444 51.6856 85.3682C51.6856 77.092 44.9886 70.3828 36.7276 70.3828C28.4665 70.3828 21.7695 77.092 21.7695 85.3682C21.7695 93.6444 28.4665 100.354 36.7276 100.354Z" fill="#92E3A9" stroke="#263238" stroke-miterlimit="10"/>
                    <path opacity="0.3" d="M36.7276 100.354C44.9886 100.354 51.6856 93.6444 51.6856 85.3682C51.6856 77.092 44.9886 70.3828 36.7276 70.3828C28.4665 70.3828 21.7695 77.092 21.7695 85.3682C21.7695 93.6444 28.4665 100.354 36.7276 100.354Z" fill="white" stroke="#263238" stroke-miterlimit="10"/>
                    <path d="M27.3389 97.0618C33.4435 101.962 42.2612 101.354 47.6161 95.667C45.9382 93.4853 42.4754 89.7658 38.6556 89.7658C34.4073 89.73 29.338 94.8444 27.3389 97.0618Z" fill="white" stroke="#263238" stroke-miterlimit="10"/>
                    <path d="M35.0495 88.623C35.0495 88.623 32.5149 88.9091 32.3007 90.8762C32.0865 92.8432 33.5859 96.0978 33.7644 96.4554C33.9428 96.8131 37.1915 93.5585 38.4053 93.5585C39.619 93.5585 42.832 95.311 42.832 95.311C42.832 95.311 41.8324 91.2338 40.0117 89.7317C38.1911 88.2296 35.5493 88.0508 35.0495 88.623Z" fill="white" stroke="#263238" stroke-miterlimit="10"/>
                    <path opacity="0.5" d="M31.7296 81.4341C31.7296 81.4341 30.623 80.3612 30.0518 81.2195C29.4806 82.0779 29.9804 83.1151 30.7658 83.7588C31.5511 84.4026 32.8006 84.4741 32.8006 83.9734C32.8006 83.4727 31.7296 81.4341 31.7296 81.4341Z" fill="#92E3A9" stroke="#263238" stroke-miterlimit="10"/>
                    <path d="M31.7296 81.4341C31.7296 81.4341 30.623 80.3612 30.0518 81.2195C29.4806 82.0779 29.9804 83.1151 30.7658 83.7588C31.5511 84.4026 32.8006 84.4741 32.8006 83.9734C32.8006 83.4727 31.7296 81.4341 31.7296 81.4341Z" stroke="#263238" stroke-miterlimit="10"/>
                    <path d="M41.083 78.8937C41.083 78.8937 41.5828 77.5704 42.2968 78.9652C43.0108 80.36 41.6542 81.576 41.6542 81.576L41.083 78.8937Z" fill="white" stroke="#263238" stroke-miterlimit="10"/>
                    <path d="M32.8008 83.9727C32.8008 83.9727 34.2645 89.1943 34.6214 91.0183C34.9784 92.8423 36.6563 95.4531 37.8701 94.5947C39.0839 93.7364 39.0482 92.127 38.2985 90.7322C37.8344 89.7665 37.4417 88.7651 37.1204 87.7637L32.8008 83.9727Z" fill="white"/>
                    <path opacity="0.5" d="M38.3342 90.7322C37.8701 89.7665 37.4774 88.7651 37.1561 87.7637L32.8008 83.9727C32.8008 83.9727 33.9789 88.2644 34.4787 90.4103C35.1212 90.911 35.8352 91.2686 36.5849 91.4832C37.2632 91.6621 37.9415 91.5905 38.5484 91.2686C38.5127 91.0898 38.4056 90.911 38.3342 90.7322Z" fill="#92E3A9"/>
                    <path d="M32.8008 83.9727C32.8008 83.9727 34.2645 89.1943 34.6214 91.0183C34.9784 92.8423 36.6563 95.4531 37.8701 94.5947C39.0839 93.7364 39.0482 92.127 38.2985 90.7322C37.8344 89.7665 37.4417 88.7651 37.1204 87.7637L32.8008 83.9727Z" stroke="#263238" stroke-miterlimit="10"/>
                    <path d="M30.1947 78.5365C30.1947 78.5365 33.6219 86.7624 35.0499 88.6579C36.4778 90.5535 40.4048 90.6965 42.0826 87.9426C43.7605 85.1888 41.8684 81.4692 41.5828 79.7883C41.2972 78.1074 40.5119 75.3535 41.0116 74.8528C41.5114 74.3521 43.5463 73.9944 42.7609 72.6711C41.9755 71.3478 40.7974 72.0274 40.6546 71.0617C40.5119 70.0961 41.2258 67.8071 38.5484 67.4137C35.8709 67.0203 31.1586 70.2391 29.2666 72.7069C27.3745 75.1747 26.8033 77.4278 30.1947 78.5365Z" fill="#263238" stroke="#263238" stroke-miterlimit="10"/>
                    <path d="M31.2658 76.0695C31.2658 76.0695 29.0167 75.8907 30.1591 73.7448C31.3015 71.599 38.7626 68.702 38.8697 70.2757C38.9768 71.8493 37.2989 72.35 37.2989 72.35" stroke="white" stroke-width="0.75" stroke-linecap="round" stroke-linejoin="round"/>
                    <path d="M34.3 74.03C34.3 74.03 32.6221 73.6724 33.1933 72.4206C33.7645 71.1689 37.8699 70.6324 37.1202 71.3834C36.6918 71.8126 36.1563 72.206 35.6208 72.4921" stroke="white" stroke-width="0.75" stroke-linecap="round" stroke-linejoin="round"/>
                    <path d="M39.6904 83.4727C39.6904 83.4727 38.4766 85.4397 36.5132 84.4741" stroke="white" stroke-width="0.75" stroke-linecap="round" stroke-linejoin="round"/>
                    <path d="M41.5827 79.7516C41.2971 78.1779 40.5831 75.6744 40.9044 74.9233C40.6902 74.3869 39.9406 73.1709 37.7272 73.0636C34.9069 72.9205 31.8368 74.5299 31.2656 76.032C30.6944 77.5341 32.051 76.7473 32.5865 77.856C33.122 78.9647 31.8011 80.2523 32.0867 81.0391C32.3723 81.8259 33.7646 84.9732 33.7646 84.9732C33.9788 84.1148 37.2631 82.6485 37.2631 82.6485C37.7272 82.7558 38.227 82.8273 38.7268 82.7916C39.3694 82.72 39.0124 82.1478 39.0124 82.1478L42.3681 82.3624C42.0468 81.3252 41.6898 80.3953 41.5827 79.7516Z" fill="white"/>
                    <path opacity="0.5" d="M33.8716 76.6411C33.7288 75.2106 32.8006 74.9244 32.1937 74.8887C31.8011 75.2106 31.5155 75.604 31.3013 76.0331C30.7301 77.571 32.0866 76.7484 32.6221 77.8571C33.1576 78.9658 31.8367 80.2534 32.1223 81.0402C32.4079 81.827 33.8002 84.9743 33.8002 84.9743C33.8716 84.6882 34.2643 84.3663 34.7284 84.0444C34.0144 83.0073 33.1576 81.7913 32.6578 81.076C31.694 79.7169 34.0858 78.8586 33.8716 76.6411Z" fill="#92E3A9"/>
                    <path d="M41.5827 79.7516C41.2971 78.1779 40.5831 75.6744 40.9044 74.9233C40.6902 74.3869 39.9406 73.1709 37.7272 73.0636C34.9069 72.9205 31.8368 74.5299 31.2656 76.032C30.6944 77.5341 32.051 76.7473 32.5865 77.856C33.122 78.9647 31.8011 80.2523 32.0867 81.0391C32.3723 81.8259 33.7646 84.9732 33.7646 84.9732C33.9788 84.1148 37.2631 82.6485 37.2631 82.6485C37.7272 82.7558 38.227 82.8273 38.7268 82.7916C39.3694 82.72 39.0124 82.1478 39.0124 82.1478L42.3681 82.3624C42.0468 81.3252 41.6898 80.3953 41.5827 79.7516Z" stroke="#263238" stroke-miterlimit="10"/>
                    <path d="M35.4425 79.4303C35.5496 79.8238 35.4425 80.2172 35.264 80.2529C35.0855 80.2887 34.8356 80.0026 34.7642 79.6092C34.6928 79.2158 34.7642 78.8223 34.9427 78.7866C35.1212 78.7508 35.3711 79.0012 35.4425 79.4303Z" fill="#263238"/>
                    <path d="M39.7618 78.5358C39.8689 78.9292 39.7618 79.3226 39.5833 79.3584C39.4048 79.3942 39.1549 79.108 39.0835 78.7146C39.0121 78.3212 39.0835 77.9278 39.262 77.8921C39.4405 77.8563 39.6547 78.1066 39.7618 78.5358Z" fill="#263238"/>
                    <path d="M33.7646 77.4996C33.7646 77.4996 34.0502 75.8902 35.7281 76.5697" stroke="#263238" stroke-linecap="round" stroke-linejoin="round"/>
                    <path d="M40.1904 75.8543C38.9409 75.0675 38.5125 76.2119 38.5125 76.2119C38.5125 76.2119 37.7271 77.0703 38.0484 78.6439" stroke="#263238" stroke-linecap="round" stroke-linejoin="round"/>
                    <path d="M33.9785 81.7919L36.0848 80.9336" stroke="#263238" stroke-width="0.5" stroke-linecap="round" stroke-linejoin="round"/>
                    <path d="M39.0479 80.2896L40.7971 80.1465" stroke="#263238" stroke-width="0.5" stroke-linecap="round" stroke-linejoin="round"/>
                    <path d="M88.8125 53.6446C97.0736 53.6446 103.771 46.9354 103.771 38.6592C103.771 30.383 97.0736 23.6738 88.8125 23.6738C80.5514 23.6738 73.8545 30.383 73.8545 38.6592C73.8545 46.9354 80.5514 53.6446 88.8125 53.6446Z" fill="#92E3A9" stroke="#263238" stroke-miterlimit="10"/>
                    <path opacity="0.3" d="M88.8125 53.6446C97.0736 53.6446 103.771 46.9354 103.771 38.6592C103.771 30.383 97.0736 23.6738 88.8125 23.6738C80.5514 23.6738 73.8545 30.383 73.8545 38.6592C73.8545 46.9354 80.5514 53.6446 88.8125 53.6446Z" fill="white" stroke="#263238" stroke-miterlimit="10"/>
                    <path d="M101.619 35.7071C103.635 30.2623 100.684 24.1443 95.027 22.0421C89.3703 19.9399 83.1503 22.6496 81.1343 28.0944C79.1182 33.5392 82.0695 39.6573 87.7262 41.7594C93.3829 43.8616 99.6029 41.1519 101.619 35.7071Z" fill="#263238" stroke="#263238" stroke-miterlimit="10"/>
                    <path d="M101.522 29.7891C102.021 31.5773 101.986 33.4371 101.415 35.1895" stroke="white" stroke-width="0.75" stroke-linecap="round" stroke-linejoin="round"/>
                    <path d="M100.772 36.6211C100.772 36.6211 100.093 37.4794 99.7363 37.9444" stroke="white" stroke-width="0.75" stroke-linecap="round" stroke-linejoin="round"/>
                    <path d="M85.2425 25.2461C85.2425 25.2461 83.7431 27.0343 84.6713 29.216" stroke="white" stroke-width="0.75" stroke-linecap="round" stroke-linejoin="round"/>
                    <path d="M88.8126 53.6802C91.5614 53.6802 94.2745 52.9291 96.6307 51.4628C94.8814 49.8534 90.3476 45.8477 88.2057 45.6689C85.9566 45.4901 79.4236 47.6002 77.3174 48.2797C80.1733 51.7131 84.3858 53.6802 88.8126 53.6802Z" fill="white" stroke="#263238" stroke-miterlimit="10"/>
                    <path d="M91.0257 47.5635C91.0971 47.3847 91.1328 47.2058 91.2042 47.0628C90.0618 46.3117 88.9552 45.7395 88.2055 45.668C87.2773 45.668 86.3491 45.7753 85.4209 45.9899C85.0282 47.0628 84.9211 48.1357 84.5998 49.9597C84.1714 52.4275 84.814 53.1428 86.6347 52.2129C88.4554 51.283 90.3117 49.7451 91.0257 47.5635Z" fill="white" stroke="#263238" stroke-miterlimit="10"/>
                    <path d="M86.6707 42.9866C86.6707 42.9866 87.0991 43.7734 86.5993 45.6689C86.0995 47.5645 84.8143 50.676 85.4212 51.284C86.0281 51.892 89.5981 49.1739 89.7408 47.1353C89.8836 45.0967 89.8836 41.0195 89.8836 41.0195L86.6707 42.9866Z" fill="white"/>
                    <path opacity="0.5" d="M86.8489 44.2026L89.1337 45.9908L88.9552 48.852C89.3479 48.3513 89.6335 47.7433 89.7049 47.1353C89.8477 45.0967 89.8476 41.0195 89.8476 41.0195L86.6704 42.9866C86.8489 43.38 86.8846 43.7734 86.8489 44.2026Z" fill="#92E3A9"/>
                    <path d="M86.6707 42.9866C86.6707 42.9866 87.0991 43.7734 86.5993 45.6689C86.0995 47.5645 84.8143 50.676 85.4212 51.284C86.0281 51.892 89.5981 49.1739 89.7408 47.1353C89.8836 45.0967 89.8836 41.0195 89.8836 41.0195L86.6707 42.9866Z" stroke="#263238" stroke-miterlimit="10"/>
                    <path d="M83.0291 34.0443C83.0291 34.0443 82.5294 32.721 81.8511 33.6867C81.1728 34.6523 81.9939 35.7968 82.3509 35.7968C82.7078 35.7968 83.0291 34.0443 83.0291 34.0443Z" fill="white" stroke="#263238" stroke-miterlimit="10"/>
                    <path d="M84.7073 29.8242C84.7073 29.8242 82.601 33.9729 82.1012 36.7983C81.6014 39.6237 83.7077 43.9155 85.814 43.9155C87.9202 43.9155 91.1689 40.6609 91.1689 40.6609C91.1689 40.6609 94.2033 40.7324 94.6674 39.731C95.1315 38.7296 94.596 37.907 93.8106 37.907H92.2041C92.2041 37.907 91.7757 38.1216 91.9899 36.083C92.2041 34.0444 92.8467 33.1146 92.8467 33.1146C92.8467 33.1146 87.3133 33.5437 84.7073 29.8242Z" fill="white"/>
                    <path opacity="0.5" d="M90.312 39.3383C89.4195 41.6272 87.3846 43.2724 84.9571 43.6658H84.9214C85.207 43.8089 85.4926 43.9161 85.8139 43.9161C87.9201 43.9161 91.1688 40.6616 91.1688 40.6616C91.1688 40.6616 94.2032 40.7331 94.6673 39.7317C95.1314 38.7303 94.5959 37.9077 93.8105 37.9077H92.204C92.204 37.9077 91.7756 38.1223 91.9898 36.0837C92.204 34.0451 92.8466 33.1152 92.8466 33.1152C92.8466 33.1152 92.4896 33.151 91.8827 33.1152H91.847" fill="#92E3A9"/>
                    <path d="M84.7073 29.8242C84.7073 29.8242 82.601 33.9729 82.1012 36.7983C81.6014 39.6237 83.7077 43.9155 85.814 43.9155C87.9202 43.9155 91.1689 40.6609 91.1689 40.6609C91.1689 40.6609 94.2033 40.7324 94.6674 39.731C95.1315 38.7296 94.596 37.907 93.8106 37.907H92.2041C92.2041 37.907 91.7757 38.1216 91.9899 36.083C92.2041 34.0444 92.8467 33.1146 92.8467 33.1146C92.8467 33.1146 87.3133 33.5437 84.7073 29.8242Z" stroke="#263238" stroke-miterlimit="10"/>
                    <path d="M85.0996 34.4748C85.0282 34.8682 84.8497 35.1543 84.7069 35.1185C84.5641 35.0828 84.5284 34.7609 84.6355 34.3675C84.7426 33.9741 84.8854 33.688 85.0282 33.7237C85.171 33.7595 85.171 34.0814 85.0996 34.4748Z" fill="#263238"/>
                    <path d="M88.5269 35.9767C88.4555 36.3701 88.277 36.6563 88.1342 36.6205C87.9914 36.5847 87.9557 36.2628 88.0628 35.8694C88.1699 35.476 88.3127 35.1899 88.4555 35.2257C88.5983 35.2614 88.5983 35.6191 88.5269 35.9767Z" fill="#263238"/>
                    <path d="M85.6712 35.4043C85.6712 35.4043 84.0647 36.5845 84.2789 36.8706C84.8858 37.3713 85.5998 37.729 86.3852 37.8005C87.0278 37.8005 86.885 37.0137 86.885 37.0137" stroke="#263238" stroke-linecap="round" stroke-linejoin="round"/>
                    <path d="M84.4927 38.7655C85.2781 39.1946 86.2062 39.3735 87.0987 39.2662C87.8484 39.1946 88.5267 38.7655 88.9194 38.0859" stroke="#263238" stroke-linecap="round" stroke-linejoin="round"/>
                    <path d="M84.6357 32.7216C84.6357 32.7216 85.0641 31.7917 85.9566 32.8647" stroke="#263238" stroke-linecap="round" stroke-linejoin="round"/>
                    <path d="M88.3486 34.0447C88.3486 34.0447 89.8123 33.6156 89.8123 35.0461" stroke="#263238" stroke-linecap="round" stroke-linejoin="round"/>
                    <path d="M39.156 53.4779C47.3072 52.1347 52.8281 44.4258 51.4873 36.2597C50.1466 28.0936 42.4518 22.5625 34.3006 23.9058C26.1494 25.249 20.6284 32.9578 21.9692 41.124C23.31 49.2901 31.0047 54.8211 39.156 53.4779Z" fill="#92E3A9" stroke="#263238" stroke-miterlimit="10"/>
                    <path opacity="0.3" d="M39.156 53.4779C47.3072 52.1347 52.8281 44.4258 51.4873 36.2597C50.1466 28.0936 42.4518 22.5625 34.3006 23.9058C26.1494 25.249 20.6284 32.9578 21.9692 41.124C23.31 49.2901 31.0047 54.8211 39.156 53.4779Z" fill="white" stroke="#263238" stroke-miterlimit="10"/>
                    <path d="M26.4101 46.2755C26.1602 47.3126 24.9822 47.1696 25.3392 48.4213C30.3014 54.2152 38.7978 55.3597 45.1166 51.0679C46.1876 49.7804 46.8302 48.4571 46.8659 47.3842C46.973 44.0938 43.5101 41.6618 43.3316 40.0882C43.1531 38.5145 44.6525 34.9381 44.6525 34.9381C44.6525 34.9381 47.2586 34.5447 48.1867 32.22C49.1149 29.8953 45.5807 24.6379 42.4034 23.0285C39.2262 21.419 33.907 22.8496 31.301 26.6764C28.6949 30.5033 31.8721 33.8651 30.1943 35.6534C28.5164 37.4416 24.1254 37.5131 23.6613 41.0896C23.1615 44.7018 26.6957 45.1668 26.4101 46.2755Z" fill="#263238" stroke="#263238" stroke-miterlimit="10"/>
                    <path d="M42.4035 26.6406C42.4035 26.6406 43.3317 28.9653 39.6547 30.3244C35.9776 31.6834 33.1217 30.9681 32.1935 33.4001C31.2653 35.8321 31.9793 37.5131 32.0864 38.7648C32.1935 40.0166 29.2305 39.802 27.4455 41.4114C25.6605 43.0208 29.2305 44.8806 30.1944 45.9535C31.1582 47.0265 30.944 48.6001 29.2305 49.1366" stroke="white" stroke-width="0.75" stroke-linecap="round" stroke-linejoin="round"/>
                    <path d="M31.2295 31.5058C31.2295 31.5058 32.5861 28.1439 34.6923 27.6075C36.7986 27.071 39.119 28.6446 40.6898 27.1783C42.2606 25.7119 41.9393 24.639 40.7969 23.8164" stroke="white" stroke-width="0.75" stroke-linecap="round" stroke-linejoin="round"/>
                    <path d="M43.9741 28.0371C43.9741 28.0371 47.6512 30.4691 46.4017 32.3646C45.1522 34.2602 44.7238 31.9355 44.7238 31.9355" stroke="white" stroke-width="0.75" stroke-linecap="round" stroke-linejoin="round"/>
                    <path d="M28.5879 51.283C34.3355 55.0025 41.868 54.3587 46.9017 49.6735C45.795 48.6721 44.6169 47.7065 43.4031 46.8481C41.0827 45.2387 39.1906 44.7023 37.9054 44.7738C37.9054 44.7738 36.8701 45.2387 34.9067 47.0985C33.6215 48.3503 30.5514 50.1743 28.5879 51.283Z" fill="white" stroke="#263238" stroke-miterlimit="10"/>
                    <path d="M41.3684 47.3493C41.3684 46.7413 41.297 46.0975 41.1185 45.5253C40.1189 45.0246 39.0479 44.7742 37.9412 44.81C37.9412 44.81 37.1201 45.1677 35.5494 46.5982C35.5137 46.8486 35.5137 47.1347 35.5137 47.3851C35.5137 49.8528 36.8345 51.8199 38.441 51.8199C40.0475 51.8199 41.3684 49.8171 41.3684 47.3493Z" fill="white" stroke="#263238" stroke-miterlimit="10"/>
                    <path d="M37.1554 40.0176C37.1554 40.0176 37.1554 42.6284 36.8698 45.0604C36.5843 47.4924 36.9769 50.1032 38.7262 50.282C40.4755 50.4609 40.2256 46.2764 40.0471 44.5597C39.94 43.4868 39.94 42.4496 40.0471 41.3766L37.1554 40.0176Z" fill="white"/>
                    <path opacity="0.5" d="M36.8345 45.6332L39.976 42.5575C39.976 42.4502 39.976 42.3787 39.976 42.2714L39.3334 41.0554L37.1558 39.9824C37.1558 39.9824 37.1558 42.5932 36.8702 45.0252C36.8702 45.2398 36.8345 45.4544 36.8345 45.6332Z" fill="#92E3A9"/>
                    <path d="M37.1554 40.0176C37.1554 40.0176 37.1554 42.6284 36.8698 45.0604C36.5843 47.4924 36.9769 50.1032 38.7262 50.282C40.4755 50.4609 40.2256 46.2764 40.0471 44.5597C39.94 43.4868 39.94 42.4496 40.0471 41.3766L37.1554 40.0176Z" stroke="#263238" stroke-miterlimit="10"/>
                    <path d="M43.51 28.3223C43.51 28.3223 43.6885 29.5383 40.5112 31.0404C37.334 32.5425 35.7632 33.7585 35.4776 35.1533C35.192 36.5481 35.085 37.1204 35.085 37.1204C35.085 37.1204 34.4424 35.7971 33.2286 36.4766C32.0148 37.1561 33.1215 39.6597 34.2639 39.7669C35.4062 39.8742 35.6561 39.4808 35.6561 39.4808C35.6561 39.4808 39.2975 43.1288 41.4394 43.1288C43.5814 43.1288 44.4382 41.0545 44.9023 37.4065C45.3664 33.8658 43.51 28.3223 43.51 28.3223Z" fill="white"/>
                    <path opacity="0.5" d="M36.5129 35.8327C36.62 34.6525 37.0484 33.5438 37.7267 32.5781C36.4058 33.4365 35.6561 34.2591 35.4776 35.1889C35.192 36.5838 35.085 37.156 35.085 37.156C35.085 37.156 34.4424 35.8327 33.2286 36.5122C32.0148 37.1918 33.1215 39.6953 34.2639 39.8026C35.4062 39.9099 35.6561 39.5165 35.6561 39.5165C35.6561 39.5165 39.2975 43.1645 41.4394 43.1645C40.7968 42.8426 40.19 42.4492 39.6545 42.02C38.405 41.0186 36.4058 38.1574 36.5129 35.8327Z" fill="#92E3A9"/>
                    <path d="M43.51 28.3223C43.51 28.3223 43.6885 29.5383 40.5112 31.0404C37.334 32.5425 35.7632 33.7585 35.4776 35.1533C35.192 36.5481 35.085 37.1204 35.085 37.1204C35.085 37.1204 34.4424 35.7971 33.2286 36.4766C32.0148 37.1561 33.1215 39.6597 34.2639 39.7669C35.4062 39.8742 35.6561 39.4808 35.6561 39.4808C35.6561 39.4808 39.2975 43.1288 41.4394 43.1288C43.5814 43.1288 44.4382 41.0545 44.9023 37.4065C45.3664 33.8658 43.51 28.3223 43.51 28.3223Z" stroke="#263238" stroke-miterlimit="10"/>
                    <path d="M42.8677 34.0098C42.6535 34.582 42.6892 35.2615 42.9748 35.798C43.4746 36.7279 43.7245 37.014 43.546 37.2644C43.3318 37.622 42.8677 37.7293 42.5107 37.5147" stroke="#263238" stroke-linecap="round" stroke-linejoin="round"/>
                    <path d="M42.4749 39.6959C42.4749 39.6959 40.6899 40.3754 40.083 39.0879" stroke="#263238" stroke-linecap="round" stroke-linejoin="round"/>
                    <path d="M40.7254 35.3676C40.7254 35.761 40.6183 36.0829 40.4755 36.0829C40.3327 36.0829 40.2256 35.761 40.2256 35.3676C40.2256 34.9742 40.3327 34.6523 40.4755 34.6523C40.6183 34.6523 40.7254 34.9742 40.7254 35.3676Z" fill="#263238"/>
                    <path d="M43.7245 35.2958C43.8625 35.2958 43.9744 34.9756 43.9744 34.5805C43.9744 34.1855 43.8625 33.8652 43.7245 33.8652C43.5865 33.8652 43.4746 34.1855 43.4746 34.5805C43.4746 34.9756 43.5865 35.2958 43.7245 35.2958Z" fill="#263238"/>
                    <path d="M38.9404 33.3287C38.9404 33.3287 39.2974 32.3273 40.7611 32.5419" stroke="#263238" stroke-linecap="round" stroke-linejoin="round"/>
                    <path d="M42.9033 32.3275C42.9033 32.3275 43.3317 31.2903 44.2599 32.1487" stroke="#263238" stroke-linecap="round" stroke-linejoin="round"/>
                    </svg>