<svg width="389" height="351" viewBox="0 0 389 351" fill="none" xmlns="http://www.w3.org/2000/svg">
<path d="M139.24 342.24H10.3102C6.14022 342.24 2.48022 339.06 1.31022 334.46C-0.359782 327.66 4.10022 320.91 10.3102 320.91H139.24C143.41 320.91 147.07 324.09 148.24 328.69C149.87 335.49 145.41 342.24 139.24 342.24Z" fill="#D3CAFF"/>
<path d="M380.34 343.32H262.16C258.34 343.32 254.98 340.15 253.95 335.55C252.42 328.75 256.51 322 262.16 322H380.34C384.16 322 387.52 325.18 388.55 329.77C390.08 336.58 386 343.32 380.34 343.32Z" fill="#D3CAFF"/>
<path d="M292.266 334H226.734C224.606 334 222.739 331.463 222.18 327.798C221.331 322.381 223.598 317 226.734 317H292.266C294.394 317 296.261 319.537 296.82 323.202C297.669 328.619 295.402 334 292.266 334Z" fill="#C1B9FC"/>
<path d="M168.338 351H76.6452C75.1807 350.974 73.7628 350.245 72.6107 348.926C71.4586 347.607 70.6365 345.77 70.2715 343.701C69.9799 342.24 69.9223 340.701 70.1031 339.203C70.2838 337.705 70.6982 336.287 71.3142 335.06C71.9302 333.832 72.7313 332.828 73.6556 332.124C74.5799 331.42 75.6028 331.035 76.6452 331H168.358C169.823 331.026 171.241 331.755 172.393 333.074C173.545 334.393 174.367 336.23 174.732 338.299V338.299C175.022 339.762 175.077 341.302 174.895 342.802C174.712 344.301 174.296 345.719 173.678 346.946C173.06 348.173 172.257 349.177 171.331 349.88C170.406 350.583 169.382 350.966 168.338 351V351Z" fill="#C1B9FC"/>
<path d="M293.899 0.5H99.3193V145.66H293.899V0.5Z" fill="#263238" stroke="#263238" stroke-linecap="round" stroke-linejoin="round"/>
<path d="M288.339 5.15039H104.899V141H288.339V5.15039Z" fill="white" stroke="#263238" stroke-linecap="round" stroke-linejoin="round"/>
<path d="M123.11 24.6007L121.6 41.7907L136.66 43.2907L138.17 23.7207L123.11 24.6007Z" fill="white" stroke="#263238" stroke-linecap="round" stroke-linejoin="round"/>
<path d="M170.09 54.0996V66.7896L184.54 67.9996L185.14 55.6596L170.09 54.0996Z" fill="white" stroke="#263238" stroke-linecap="round" stroke-linejoin="round"/>
<path d="M165.899 33.1992V45.8392L180.349 47.0492L180.999 34.6992L165.899 33.1992Z" fill="white" stroke="#263238" stroke-linecap="round" stroke-linejoin="round"/>
<path d="M149.17 80.8691V93.5191L163.63 94.7191L164.24 82.3691L149.17 80.8691Z" fill="white" stroke="#263238" stroke-linecap="round" stroke-linejoin="round"/>
<path d="M143 22.7903L186.68 17.0703L187 24.0003L145.14 29.7203L143 22.7903Z" fill="#F3AC3F" stroke="#263238" stroke-linecap="round" stroke-linejoin="round"/>
<path d="M192.47 114L236.06 120.16L234.5 126.92L192.65 121.24L192.47 114Z" fill="white" stroke="#263238" stroke-linecap="round" stroke-linejoin="round"/>
<path d="M140 48.9995V65.8495H154.75L154.14 48.6895L140 48.9995Z" fill="#F3AC3F" stroke="#263238" stroke-linecap="round" stroke-linejoin="round"/>
<path d="M260.43 69.8991V86.7891H275.18L274.57 69.6191L260.43 69.8991Z" fill="#F3AC3F" stroke="#263238" stroke-linecap="round" stroke-linejoin="round"/>
<path d="M212.899 17.3591V39.3591L227.349 41.1491V16.7891L212.899 17.3591Z" fill="#F3AC3F" stroke="#263238" stroke-linecap="round" stroke-linejoin="round"/>
<path d="M254.4 39.9996L238.4 37.5996L236.64 54.0996L251.69 56.5196L254.4 39.9996Z" fill="white" stroke="#263238" stroke-linecap="round" stroke-linejoin="round"/>
<path d="M222.439 63.27L229.669 81.94L247.139 73.51L238.139 57.25L222.439 63.27Z" fill="#F3AC3F" stroke="#263238" stroke-linecap="round" stroke-linejoin="round"/>
<path d="M187.899 40.2608L192.109 80.3108L211.109 78.8008L207.499 37.8008L187.899 40.2608Z" fill="white" stroke="#263238" stroke-linecap="round" stroke-linejoin="round"/>
<path d="M129.739 78.1895L126.739 100.779L140.599 101.999L143.899 79.1095L129.739 78.1895Z" fill="#F3AC3F" stroke="#263238" stroke-linecap="round" stroke-linejoin="round"/>
<path d="M186.219 78.8594L170.899 80.9994L174.809 103.289L191.069 100.579L186.219 78.8594Z" fill="#F3AC3F" stroke="#263238" stroke-linecap="round" stroke-linejoin="round"/>
<path d="M269 60.6195C268.584 57.9331 267.557 55.3778 266 53.1495C264.429 50.9283 262.379 49.0895 260 47.7695" stroke="#263238" stroke-linecap="round" stroke-linejoin="round"/>
<path d="M259 51.1098L258 46.3398L265.62 46.8198" stroke="#263238" stroke-linecap="round" stroke-linejoin="round"/>
<path d="M224.749 22.5605L216.189 34.0005" stroke="#263238" stroke-linecap="round" stroke-linejoin="round"/>
<path d="M216.189 23.5098L224.749 32.0798" stroke="#263238" stroke-linecap="round" stroke-linejoin="round"/>
<path d="M124.84 48.25C125.103 51.3642 126.429 54.2932 128.596 56.5455C130.763 58.7978 133.638 60.2364 136.74 60.62" stroke="#263238" stroke-linecap="round" stroke-linejoin="round"/>
<path d="M135.31 56.7891L139.12 61.5491L132 63.4491" stroke="#263238" stroke-linecap="round" stroke-linejoin="round"/>
<path d="M208.11 27.7904C208.11 27.7904 192.4 24.4004 185.27 34.4504" stroke="#263238" stroke-linecap="round" stroke-linejoin="round"/>
<path d="M183.369 31.5898L182.899 37.7898L189.999 34.9298" stroke="#263238" stroke-linecap="round" stroke-linejoin="round"/>
<path d="M286.72 313.921C286.72 313.921 272.81 321.351 272.65 322.921C272.49 324.491 281.22 324.531 287.65 323.721C294.08 322.911 299.78 321.951 298.8 319.201C297.82 316.451 287.5 313.551 287.5 313.551L286.72 313.921Z" fill="white" stroke="#263238" stroke-linecap="round" stroke-linejoin="round"/>
<path d="M339.26 320.711C339.26 320.711 345.06 327.971 345.72 331.711C346.38 335.451 343.13 335.101 336.34 331.881C332.385 330.059 328.948 327.278 326.34 323.791L339.26 320.711Z" fill="white" stroke="#263238" stroke-linecap="round" stroke-linejoin="round"/>
<path d="M308.62 240.619C309.42 243.459 309.99 244.899 309.99 244.899" stroke="white" stroke-linecap="round" stroke-linejoin="round"/>
<path d="M303.36 172.27C303.36 172.27 302.72 203.27 304.65 219.8C305.304 225.618 306.305 231.391 307.65 237.09" stroke="white" stroke-linecap="round" stroke-linejoin="round"/>
<path d="M333 249.91C333.611 251.332 334.109 252.8 334.49 254.3" stroke="white" stroke-linecap="round" stroke-linejoin="round"/>
<path d="M332.1 176C331.449 183.402 330.3 190.752 328.66 198C324.75 215.2 321.22 225.76 321.61 229.64C321.92 232.64 328.08 239.9 331.93 247.55" stroke="white" stroke-linecap="round" stroke-linejoin="round"/>
<path d="M310.32 67.2402C310.32 67.2402 287.32 72.2402 285.91 74.0202C284.5 75.8002 262.63 107.32 262.63 107.32L234.38 91.3202L231 97.7902L260.54 123.68L285.27 109.62L288.18 122.71C288.18 122.71 283.66 150.19 283.01 156.49C282.36 162.79 282.2 165.87 282.2 165.87C290.51 168.148 299.142 169.023 307.74 168.46C316.865 167.951 325.833 165.87 334.25 162.31C334.25 162.31 327.91 143.4 325.35 136.79C322.79 130.18 320 122.4 320 122.4L328.26 104L338.43 127.82L352.83 122.65C352.83 122.65 341.83 77.4502 340.67 75.6502C339.51 73.8502 322.72 68.0002 322.72 68.0002L310.32 67.2402Z" fill="#7B61FF" stroke="#263238" stroke-linecap="round" stroke-linejoin="round"/>
<path d="M288.65 91.4891L286 82.6191" stroke="#263238" stroke-linecap="round" stroke-linejoin="round"/>
<path d="M285.26 109.6C285.26 109.6 282.03 100.06 282.83 97.4703C283.63 94.8803 288.34 91.9803 288.65 91.4703C288.96 90.9603 291.08 85.8203 291.08 85.8203" stroke="#263238" stroke-linecap="round" stroke-linejoin="round"/>
<path d="M322.76 91.2207L328.26 103.941L322 97.0907" stroke="#263238" stroke-linecap="round" stroke-linejoin="round"/>
<path d="M311.45 64.1691C311.45 64.1691 306.76 64.9791 305.63 66.7591C304.5 68.5391 298.63 81.2991 298.63 81.2991L309.45 76.6191L316.23 85.8291C316.23 85.8291 325.12 69.4991 325.23 68.2191C325.34 66.9391 319.74 63.3691 319.23 63.3691C318.72 63.3691 311.45 64.1691 311.45 64.1691Z" fill="white" stroke="#263238" stroke-linecap="round" stroke-linejoin="round"/>
<path d="M308.519 60.6203C308.779 64.7129 308.779 68.8178 308.519 72.9103C308.029 76.3003 306.419 81.1403 307.219 80.9903C308.019 80.8403 317.889 69.8303 319.219 67.5703C320.549 65.3103 320.659 59.3203 320.659 59.3203C320.659 59.3203 312.719 61.4403 308.519 60.6203Z" fill="white" stroke="#263238" stroke-linecap="round" stroke-linejoin="round"/>
<path d="M324.9 25.4693C320.65 21.3593 310.33 20.1593 304.27 25.6093C303.093 26.7557 302.218 28.1741 301.72 29.7393C304.008 28.5109 306.529 27.7783 309.12 27.5893C314.43 27.1293 319.75 30.7793 321.26 34.3693C322.77 37.9593 323.05 46.2493 323.05 46.2493C323.05 46.2493 325.05 43.0593 326.23 42.7593C326.568 42.6799 326.922 42.7097 327.242 42.8444C327.562 42.9792 327.831 43.212 328.01 43.5093C328.01 43.5093 329.11 29.5593 324.9 25.4693Z" fill="#263238" stroke="#263238" stroke-linecap="round" stroke-linejoin="round"/>
<path d="M342.35 119.369L306 135.999L307.29 140.689C307.29 140.689 355.22 130.519 355.22 129.179C355.22 127.839 351.27 117.289 351.27 117.289" fill="#7B61FF"/>
<path d="M342.35 119.369L306 135.999L307.29 140.689C307.29 140.689 355.22 130.519 355.22 129.179C355.22 127.839 351.27 117.289 351.27 117.289" stroke="#263238" stroke-linecap="round" stroke-linejoin="round"/>
<path d="M296.42 114.64C297.24 115.892 297.82 117.286 298.13 118.75C298.98 121.83 300.01 131.24 300.39 133.63C300.77 136.02 304.83 147.63 304.83 147.63L301.93 148.32L291.83 118.37C291.83 118.37 293.17 113.61 296.42 114.64Z" fill="white" stroke="#263238" stroke-linecap="round" stroke-linejoin="round"/>
<path d="M272.84 122.889L282.22 155.059L303.22 149.879L295 118.369L272.84 122.889Z" fill="white" stroke="#263238" stroke-linecap="round" stroke-linejoin="round"/>
<path d="M272.84 122.89C272.84 122.89 270.92 123.89 270.92 121.99C270.92 120.09 271.78 119.43 273.84 119.26C275.9 119.09 289.75 116.36 292.99 114.98C296.23 113.6 296.38 114.64 296.38 114.64C295.799 115.047 295.354 115.618 295.1 116.28C294.839 116.945 294.79 117.675 294.96 118.37L272.84 122.89Z" fill="white" stroke="#263238" stroke-linecap="round" stroke-linejoin="round"/>
<path d="M332.53 168.27C332.53 168.27 332.53 169.51 332.41 171.76" stroke="white" stroke-linecap="round" stroke-linejoin="round"/>
<path d="M112.629 73.1602C112.629 73.1602 122.449 101.57 124.729 108.76C127.009 115.95 129.249 128.58 128.729 130.51C128.209 132.44 118.919 122.96 115.059 124.38C111.199 125.8 111.559 128.38 111.559 128.38L107.149 117.15L112.629 73.1602Z" fill="#FCDC59" stroke="#263238" stroke-linecap="round" stroke-linejoin="round"/>
<path d="M110.649 118.46C110.649 118.46 115.719 112.81 121.489 114.04" stroke="#263238" stroke-linecap="round" stroke-linejoin="round"/>
<path d="M110.37 116.5C110.37 116.5 113.25 109.09 119.84 109.09" stroke="#263238" stroke-linecap="round" stroke-linejoin="round"/>
<path d="M116.31 134C116.31 134 112.45 132.07 111.58 130.14C110.71 128.21 110.86 121.9 113.15 119.97C115.44 118.04 122.45 118.39 124.15 119.09C125.85 119.79 128.35 124.18 129.42 126.81C130.49 129.44 130.47 132.95 129.05 134.35C128.511 134.974 127.823 135.452 127.05 135.74C126.257 136.017 125.406 136.082 124.58 135.93C123 135.6 116.31 134 116.31 134Z" fill="#FCDC59" stroke="#263238" stroke-linecap="round" stroke-linejoin="round"/>
<path d="M69.4794 63.6992C69.4794 63.6992 46.8794 76.1292 45.6294 79.5192C44.3794 82.9092 60.3194 148.789 60.3194 148.789C60.5891 149.503 61.0707 150.117 61.6994 150.549C62.3247 150.979 63.061 151.219 63.8194 151.239C66.4594 151.239 103.819 150.539 105.039 150.239C106.259 149.939 106.799 147.979 106.799 147.089C106.799 146.199 113.449 74.9992 112.579 73.2492C111.709 71.4992 84.5794 60.4492 84.5794 60.4492L74.8994 60.7892L69.4794 63.6992Z" fill="#FCDC59" stroke="#263238" stroke-linecap="round" stroke-linejoin="round"/>
<path d="M73.1693 54.2298C71.1086 55.9711 69.2169 57.903 67.5193 59.9998C65.2593 62.9998 66.5193 67.5398 67.8693 70.8698C69.2193 74.1998 73.6493 83.5098 73.6493 83.5098C73.6493 83.5098 83.6493 74.3898 84.1893 74.0398C84.7293 73.6898 99.6093 76.8398 99.6093 76.8398C99.6093 76.8398 97.8593 67.5398 92.7693 60.5298C87.6793 53.5198 82.0693 51.9298 79.7693 51.7598C77.4693 51.5898 73.1693 54.2298 73.1693 54.2298Z" fill="#FCDC59" stroke="#263238" stroke-linecap="round" stroke-linejoin="round"/>
<path d="M69.2999 47.21C69.2999 47.21 71.5599 55.28 72.1199 57.38C72.6799 59.48 75.9699 65.45 78.2499 68.38C80.5299 71.31 85.6199 75.75 85.9699 74.16C86.3199 72.57 89.4699 48.74 87.8899 45.06C86.3099 41.38 72.8199 30.67 69.4799 32.63C66.1399 34.59 69.2999 47.21 69.2999 47.21Z" fill="white" stroke="#263238" stroke-linecap="round" stroke-linejoin="round"/>
<path d="M100.389 46.6906C100.389 46.6906 98.4692 50.5406 91.4492 47.6906C84.4292 44.8406 81.4492 40.8506 80.5792 38.2206L79.0892 33.7906C80.4992 32.1206 82.4792 30.3306 82.3292 28.8506C82.2337 27.901 81.8887 26.9937 81.3292 26.2206L91.0992 21.7006C91.0992 21.7006 93.8992 20.4806 92.6792 16.9606C91.4592 13.4406 83.8992 9.00057 74.0992 12.4006C64.2992 15.8006 59.7092 23.8806 61.7692 30.9006C63.8292 37.9206 70.1892 49.0006 70.1892 49.0006C70.1892 49.0006 72.6393 49.8806 73.8693 48.6506C75.0993 47.4206 73.5192 42.6506 73.5192 42.6506L74.0692 42.1906C75.1992 44.6106 77.9592 50.1906 78.7792 52.1206C79.8392 54.5706 80.1892 56.3206 84.5692 56.8506C88.9492 57.3806 100.179 60.1806 101.229 56.3206C102.279 52.4606 100.389 46.6906 100.389 46.6906Z" fill="#263238" stroke="#263238" stroke-linecap="round" stroke-linejoin="round"/>
<path d="M75.4492 25.1209C75.4492 25.1209 79.6492 27.5709 78.7792 29.8509C77.9092 32.1309 75.6192 34.7609 75.7792 35.5009C75.9392 36.2409 80.8692 47.7809 82.7792 49.7109C84.6892 51.6409 97.8592 53.2209 99.7792 51.2909C101.699 49.3609 98.3692 38.9309 95.9092 32.1509C93.4492 25.3709 91.7092 19.7109 91.7092 19.7109L75.4492 25.1209Z" fill="white" stroke="#263238" stroke-linecap="round" stroke-linejoin="round"/>
<path d="M75.2094 44.7903C74.6894 44.0903 72.4094 39.3503 70.1294 40.2703C67.8494 41.1903 68.9094 45.0003 70.8294 47.4603C72.7494 49.9203 76.6294 47.6303 76.6294 47.6303" fill="white"/>
<path d="M75.2094 44.7903C74.6894 44.0903 72.4094 39.3503 70.1294 40.2703C67.8494 41.1903 68.9094 45.0003 70.8294 47.4603C72.7494 49.9203 76.6294 47.6303 76.6294 47.6303" stroke="#263238" stroke-linecap="round" stroke-linejoin="round"/>
<path d="M50.5495 77.9004C50.5495 77.9004 46.0295 80.1604 44.5495 82.8204C43.0695 85.4804 42.9795 91.0504 43.5495 93.3404C44.1195 95.6304 67.3995 124.55 67.3995 124.55L77.2195 114.73L65.5995 86.0004" fill="#FCDC59"/>
<path d="M50.5495 77.9004C50.5495 77.9004 46.0295 80.1604 44.5495 82.8204C43.0695 85.4804 42.9795 91.0504 43.5495 93.3404C44.1195 95.6304 67.3995 124.55 67.3995 124.55L77.2195 114.73L65.5995 86.0004" stroke="#263238" stroke-linecap="round" stroke-linejoin="round"/>
<path d="M78.2496 106.141C78.2496 106.141 71.2496 107.541 69.4796 109.821C67.7096 112.101 63.3496 121.561 63.3496 126.001C63.3496 130.441 73.5196 133.721 77.5496 133.721C81.5796 133.721 87.1896 131.611 87.8896 127.051C88.5896 122.491 85.6296 114.621 84.7396 113.381C83.8496 112.141 78.2496 106.141 78.2496 106.141Z" fill="#FCDC59" stroke="#263238" stroke-linecap="round" stroke-linejoin="round"/>
<path d="M40.7297 315.699C40.7297 315.699 25.4697 328.329 23.8997 330.789C22.3297 333.249 26.3497 333.239 28.8097 332.539C31.2697 331.839 35.5897 331.139 38.6297 329.029C40.5471 327.652 42.365 326.142 44.0697 324.509L44.2397 326.959C44.2397 326.959 47.0497 326.079 47.2397 325.559C47.4297 325.039 48.1597 319.419 48.1597 319.419L40.7297 315.699Z" fill="white" stroke="#263238" stroke-linecap="round" stroke-linejoin="round"/>
<path d="M126.13 315.699C126.13 315.699 141.39 328.329 142.96 330.789C144.53 333.249 140.51 333.239 138.05 332.539C135.59 331.839 131.22 331.139 128.23 329.029C126.309 327.661 124.494 326.15 122.8 324.509L122.62 326.959C122.62 326.959 119.82 326.079 119.62 325.559C119.42 325.039 118.71 319.419 118.71 319.419L126.13 315.699Z" fill="white" stroke="#263238" stroke-linecap="round" stroke-linejoin="round"/>
<path d="M124.8 275.719C124.63 268.169 119.22 256.599 119.22 256.069C119.22 255.539 111.43 186.449 111.43 186.449L106.52 148.789L83.0801 149.119L59.6301 148.789L54.7301 186.489C54.7301 186.489 46.9001 255.549 46.9001 256.069C46.9001 256.589 41.4801 268.169 41.2501 275.719C41.0201 283.269 39.3301 316.719 39.3301 316.719L48.1301 319.359C48.1301 319.359 63.8701 265.359 66.4001 254.949C68.9301 244.539 73.8501 219.349 75.7201 209.879C77.5901 200.409 82.6501 185.149 82.6501 185.149L83.0801 185.049L83.5001 185.149C83.5001 185.149 88.5901 200.409 90.4401 209.879C92.2901 219.349 97.2201 244.609 99.7501 254.949C102.28 265.289 118 319.359 118 319.359L126.86 316.789C126.86 316.789 125 283.259 124.8 275.719Z" fill="#263238" stroke="#263238" stroke-linecap="round" stroke-linejoin="round"/>
<path d="M124.37 139.101C124.37 139.101 127.89 133.451 127 129.811C126.11 126.171 120.7 123.151 116.48 124.551C112.26 125.951 112.1 131.551 112.1 134.901C112.1 138.251 110.52 152.791 110.52 152.791L104.38 163.311L109.11 168.741C109.11 168.741 114.03 159.441 117.71 153.311C120.303 148.758 122.53 144.006 124.37 139.101V139.101Z" fill="white" stroke="#263238" stroke-linecap="round" stroke-linejoin="round"/>
<path d="M109.82 154.711L102.65 158.391L97.75 165.391L98.62 166.271C99.7925 165.477 101.023 164.772 102.3 164.161C103.88 163.461 106.69 162.411 106.69 162.411" fill="white"/>
<path d="M109.82 154.711L102.65 158.391L97.75 165.391L98.62 166.271C99.7925 165.477 101.023 164.772 102.3 164.161C103.88 163.461 106.69 162.411 106.69 162.411" stroke="#263238" stroke-linecap="round" stroke-linejoin="round"/>
<path d="M282.189 165.869C282.189 185.189 285.969 203.759 288.029 222.529C290.299 243.209 289.079 263.979 288.589 285.069C287.679 323.759 285.399 310.349 298.829 319.239C300.059 298.829 304.299 276.899 308.259 256.609C312.699 233.859 313.349 211.219 312.559 189.049" fill="#263238"/>
<path d="M312.56 219.19C312.56 246.81 318.48 275.38 323.75 302.35C325.1 309.26 325.61 316.42 328.25 322.91C332.36 323.12 336.25 323.45 339.71 320.91C337.41 317.29 338.05 312.31 337.55 308.2C336.9 302.83 335.42 297.57 334.88 292.11C333.54 278.53 332.42 265.55 333.23 251.81C334.12 236.68 336.81 221.64 337.63 206.55C338.45 191.46 336.96 176.36 335.93 161.42C326.61 167.88 317.01 166.23 306.54 167.81C297.37 169.2 291.83 167.81 282.42 165.59" fill="#263238"/>
<path d="M319 60.5793C320 64.3693 321.33 67.7993 321.51 71.8193C321.77 77.8193 326.65 79.3493 329.89 83.8193C332.53 87.4193 332.3 91.0493 332.89 95.3093C333.76 101.059 336.41 106.939 340.89 110.839C343.73 113.309 345.24 112.519 348.76 112.349C352.51 112.159 355.11 114.059 358.24 115.719C361.93 117.719 365.64 118.599 368.42 114.959C371.96 110.319 373.04 104.689 372.82 98.9593C372.34 86.8593 363.01 80.3893 356.34 71.4193C348.09 60.3293 351.34 46.3093 344.34 34.9193C339.34 26.8193 329.06 20.3393 319.34 20.8593C313.58 21.1693 304.34 22.9293 301.25 28.3993C301.347 28.6332 301.414 28.8785 301.45 29.1293C303.94 29.1293 306.23 27.7693 309.07 28.0393C311.864 28.2088 314.591 28.9688 317.07 30.2693C318.486 31.1125 319.707 32.2478 320.65 33.5997C321.593 34.9515 322.238 36.4889 322.54 38.1093C323.17 40.6393 321.86 43.8793 323.07 46.1093C324.57 44.7893 327.41 42.3593 329.07 44.7293C330.53 46.8393 328.14 49.2693 326.94 50.8493C324.16 54.5293 320.59 58.2193 321.02 63.2193" fill="#263238"/>
<path d="M302.23 29.5605C300.32 32.7705 302.71 36.3005 302.37 39.4605C302.136 40.6828 301.802 41.8836 301.37 43.0505C301.13 43.9105 300.22 45.7005 300.56 46.5805C300.9 47.4605 302.35 47.7105 302.83 48.6705C303.52 50.0305 303.7 51.9005 304.23 53.3905C305.4 56.6505 306.71 60.3105 310.23 61.4705C312.695 62.1807 315.326 62.0505 317.71 61.1005C320.217 60.2853 322.324 58.5531 323.61 56.2505C324.49 54.8805 326.68 52.7705 326.96 51.1905" fill="white"/>
<path d="M301.84 29.3299C300.992 31.108 300.818 33.1332 301.35 35.0299C301.621 36.1219 301.819 37.2311 301.94 38.3499C301.921 39.6501 301.66 40.9353 301.17 42.1399C300.76 43.4099 299.63 45.3499 300.17 46.6999C300.411 47.2187 300.819 47.6413 301.33 47.8999C301.846 48.2734 302.278 48.7502 302.6 49.2999C302.921 49.8526 303.125 50.4652 303.2 51.0999C304.03 54.5099 305.2 58.7499 308.2 60.9299C311.54 63.3599 316.67 62.5099 320.03 60.5499C321.661 59.4718 323.029 58.0396 324.03 56.3599C325.15 54.7399 326.89 53.2899 327.35 51.3599C327.49 50.7899 326.62 50.5499 326.49 51.1199C326.1 52.7499 324.71 54.0299 323.72 55.3299C322.842 56.6919 321.808 57.9471 320.64 59.0699C317.64 61.5299 311.99 62.6699 308.64 60.2299C305.78 58.1299 304.74 53.9599 303.92 50.7099C303.823 49.9985 303.574 49.3164 303.19 48.7099C302.807 48.0999 302.295 47.5811 301.69 47.1899C300.75 46.5399 300.86 45.8099 301.18 44.8299C301.4 44.1599 301.66 43.5099 301.87 42.8299C302.621 40.9704 302.879 38.9485 302.62 36.9599C302.2 34.5499 301.32 32.1499 302.62 29.8399C302.9 29.3299 302.12 28.8399 301.84 29.3799V29.3299Z" fill="#263238"/>
<path d="M309.39 41.3094C312.433 44.153 315.876 46.535 319.61 48.3794C322.75 50.0394 326.47 51.4694 329.38 49.2194C331.25 47.7694 332.38 44.9794 332.51 42.2194C332.616 39.4277 332.1 36.6474 331 34.0794C328.11 26.9594 322.21 22.0794 316 21.5394C313.7 21.3863 311.399 21.8275 309.318 22.8204C307.238 23.8134 305.448 25.3248 304.12 27.2094C300.7 31.8694 306.37 38.3394 309.39 41.3094Z" fill="#263238"/>
<path d="M306.9 140.789C304.647 142.46 301.996 143.512 299.21 143.839C297.298 144.227 295.323 144.182 293.43 143.709C292.128 143.388 291.006 142.565 290.31 141.419C289.983 140.836 289.859 140.16 289.96 139.499C290.074 138.84 290.405 138.239 290.9 137.789C291.691 137.309 292.605 137.07 293.53 137.099C295.8 136.939 298.07 136.729 300.33 136.439C300.73 136.439 301.23 136.259 301.33 135.859C301.46 135.269 300.56 134.939 300.45 134.349C300.439 134.131 300.51 133.917 300.65 133.749C300.787 133.579 300.984 133.468 301.2 133.439C301.636 133.391 302.077 133.456 302.48 133.629C303.939 134.009 305.301 134.69 306.48 135.629" fill="white"/>
<path d="M306.9 140.789C304.647 142.46 301.996 143.512 299.21 143.839C297.298 144.227 295.323 144.182 293.43 143.709C292.128 143.388 291.006 142.565 290.31 141.419C289.983 140.836 289.859 140.16 289.96 139.499C290.074 138.84 290.405 138.239 290.9 137.789C291.691 137.309 292.605 137.07 293.53 137.099C295.8 136.939 298.07 136.729 300.33 136.439C300.73 136.439 301.23 136.259 301.33 135.859C301.46 135.269 300.56 134.939 300.45 134.349C300.439 134.131 300.51 133.917 300.65 133.749C300.787 133.579 300.984 133.468 301.2 133.439C301.636 133.391 302.077 133.456 302.48 133.629C303.939 134.009 305.301 134.69 306.48 135.629" stroke="#263238" stroke-linecap="round" stroke-linejoin="round"/>
<path d="M234.439 91.0692L223.899 81.2592C222.339 79.7992 220.779 78.3492 219.089 77.0392C218.05 76.1302 216.798 75.4974 215.449 75.1992C215.441 75.9123 215.71 76.6007 216.199 77.1192L221.609 84.5192" fill="white"/>
<path d="M234.439 91.0692L223.899 81.2592C222.339 79.7992 220.779 78.3492 219.089 77.0392C218.05 76.1302 216.798 75.4974 215.449 75.1992C215.441 75.9123 215.71 76.6007 216.199 77.1192L221.609 84.5192" stroke="#263238" stroke-linecap="round" stroke-linejoin="round"/>
<path d="M230.37 98.1291C227.369 97.5053 224.524 96.2882 222 94.5491C221.143 94.0581 220.387 93.4102 219.77 92.6391C218.39 90.7191 218.84 87.9591 220.05 85.9191C220.253 85.5281 220.54 85.1867 220.89 84.9191C221.275 84.7282 221.701 84.6387 222.13 84.6591C222.56 84.6778 222.977 84.8088 223.34 85.0391C225.53 86.1991 226.5 88.7791 227.1 91.1791" fill="white"/>
<path d="M230.37 98.1291C227.369 97.5053 224.524 96.2882 222 94.5491C221.143 94.0581 220.387 93.4102 219.77 92.6391C218.39 90.7191 218.84 87.9591 220.05 85.9191C220.253 85.5281 220.54 85.1867 220.89 84.9191C221.275 84.7282 221.701 84.6387 222.13 84.6591C222.56 84.6778 222.977 84.8088 223.34 85.0391C225.53 86.1991 226.5 88.7791 227.1 91.1791" stroke="#263238" stroke-linecap="round" stroke-linejoin="round"/>
<path d="M93.8398 29.5293C96.2383 32.0475 98.5015 34.6912 100.62 37.4493C99.0415 38.4275 97.2652 39.0423 95.4198 39.2493" fill="white"/>
<path d="M93.8398 29.5293C96.2383 32.0475 98.5015 34.6912 100.62 37.4493C99.0415 38.4275 97.2652 39.0423 95.4198 39.2493" stroke="#263238" stroke-linecap="round" stroke-linejoin="round"/>
<path d="M92.4693 22.791C94.9293 21.791 96.1693 18.981 96.4693 16.341C96.8004 13.1236 96.1 9.88419 94.4693 7.09096C94.0101 6.19815 93.3193 5.44521 92.4693 4.91096C90.4693 3.78096 87.8693 5.02096 86.1893 6.63096C84.5093 8.24096 83.1893 10.291 81.0293 11.261C79.5131 11.7792 77.9535 12.1607 76.3693 12.401C74.8093 12.781 73.1893 13.621 72.6493 15.131C72.4337 15.9383 72.4651 16.7916 72.7393 17.581C73.0161 18.3781 73.5245 19.0744 74.1993 19.581C77.9993 22.611 87.8993 24.581 92.4693 22.791Z" fill="#263238" stroke="#263238" stroke-linecap="round" stroke-linejoin="round"/>
<path d="M95.7301 41.7896C96.4201 41.5796 98.6101 40.4896 99.3201 40.5996C99.6701 41.1696 99.9601 42.4896 99.3201 42.6596C98.3201 42.9396 94.6501 43.4296 93.7101 43.9396C93.1797 44.1864 92.7243 44.5694 92.3901 45.0496C92.2228 45.2894 92.1385 45.5774 92.1501 45.8696C92.1672 46.1621 92.2756 46.4419 92.4601 46.6696C92.6974 46.8472 92.9713 46.9699 93.2618 47.0287C93.5524 47.0875 93.8524 47.0809 94.1401 47.0096C95.9275 46.7908 97.6769 46.3299 99.3401 45.6396C100.304 47.9287 100.555 50.4555 100.06 52.8896C100.02 53.174 99.9065 53.4429 99.7301 53.6696C99.4885 53.8821 99.1891 54.0179 98.8701 54.0596C94.9205 54.9717 90.7803 54.557 87.0901 52.8796C85.3001 52.0196 77.8301 46.4296 80.3701 43.8796C81.3701 42.8796 86.2201 43.5696 87.6701 43.4196C90.4015 43.1273 93.0998 42.5816 95.7301 41.7896V41.7896Z" fill="#263238" stroke="#263238" stroke-linecap="round" stroke-linejoin="round"/>
<path d="M86.8296 58.61L88.4096 47L95.9496 47.17C95.9496 47.17 96.8296 47.87 96.1296 48.4C95.4296 48.93 91.3996 49.4 91.3996 49.4L91.2196 51.5L96.6496 50.8C97.261 51.6829 97.7899 52.6202 98.2296 53.6C98.4096 54.3 97.0096 58.87 97.0096 58.87L95.5996 59.22L95.0796 56.77L92.6296 57.77C92.6296 57.77 92.0996 63.77 91.5696 64.26C90.5571 65.0195 89.502 65.7206 88.4096 66.36C88.4096 66.36 86.4796 115.99 86.4796 118.27C86.4796 124.41 82.7996 126.69 78.5696 127.21C74.3396 127.73 71.8996 123.89 71.3796 120.72C70.8596 117.55 86.8296 58.61 86.8296 58.61Z" fill="white" stroke="#263238" stroke-linecap="round" stroke-linejoin="round"/>
</svg>
