            <svg id="hero-anim-background" width="395" height="345" viewBox="0 0 395 345" fill="none" xmlns="http://www.w3.org/2000/svg">
                <path d="M340.052 84.9663C374.962 125.966 359.752 185.656 329.992 225.536C285.122 285.696 174.992 317.886 103.662 269.696C49.5322 233.126 12.5322 167.246 31.5922 109.246C46.5922 63.5763 92.9122 14.7963 149.832 2.08633C194.472 -7.91367 196.652 20.2163 217.342 40.1563C225.852 48.3563 240.342 48.5063 252.242 49.3563C270.952 50.6863 289.182 52.2363 305.952 59.9563C320.442 66.6063 331.662 75.1563 340.052 84.9663Z" fill="#92E3A9"/>
                <path opacity="0.7" d="M340.052 84.9663C374.962 125.966 359.752 185.656 329.992 225.536C285.122 285.696 174.992 317.886 103.662 269.696C49.5322 233.126 12.5322 167.246 31.5922 109.246C46.5922 63.5763 92.9122 14.7963 149.832 2.08633C194.472 -7.91367 196.652 20.2163 217.342 40.1563C225.852 48.3563 240.342 48.5063 252.242 49.3563C270.952 50.6863 289.182 52.2363 305.952 59.9563C320.442 66.6063 331.662 75.1563 340.052 84.9663Z" fill="white"/>
                <path d="M184.702 344.158C280.794 344.158 358.692 335.746 358.692 325.368C358.692 314.991 280.794 306.578 184.702 306.578C88.6099 306.578 10.7119 314.991 10.7119 325.368C10.7119 335.746 88.6099 344.158 184.702 344.158Z" fill="#92E3A9"/>
                <path opacity="0.5" d="M184.702 344.158C280.794 344.158 358.692 335.746 358.692 325.368C358.692 314.991 280.794 306.578 184.702 306.578C88.6099 306.578 10.7119 314.991 10.7119 325.368C10.7119 335.746 88.6099 344.158 184.702 344.158Z" fill="white"/>
                <path d="M394.622 83.5566H309.812V307.487H394.622V83.5566Z" fill="white" stroke="#263238" stroke-width="0.75" stroke-miterlimit="10"/>
                <path d="M388.422 89.5059H316.012V147.166H388.422V89.5059Z" stroke="#263238" stroke-width="0.75" stroke-miterlimit="10"/>
                <path d="M388.742 160.736H316.332V218.396H388.742V160.736Z" stroke="#263238" stroke-width="0.75" stroke-miterlimit="10"/>
                <path d="M388.742 231.967H316.332V289.627H388.742V231.967Z" stroke="#263238" stroke-width="0.75" stroke-miterlimit="10"/>
                <path d="M361.682 94.7168H342.762V108.107H361.682V94.7168Z" fill="#263238"/>
                <path d="M361.682 167.627H342.762V181.017H361.682V167.627Z" fill="#263238"/>
                <path d="M361.682 240.527H342.762V253.917H361.682V240.527Z" fill="#263238"/>
                <path d="M269.862 34.6973H97.7119V163.147H269.862V34.6973Z" fill="#263238" stroke="#263238" stroke-linecap="round" stroke-linejoin="round"/>
                <path d="M264.982 38.8066H102.612V159.027H264.982V38.8066Z" fill="white" stroke="#263238" stroke-linecap="round" stroke-linejoin="round"/>
                <path d="M118.772 56.0168L117.432 71.2068L130.762 72.5368L132.092 55.2168L118.772 56.0168Z" fill="white" stroke="#263238" stroke-linecap="round" stroke-linejoin="round"/>
                <path d="M160.342 82.127V93.327L173.132 94.387L173.662 83.467L160.342 82.127Z" fill="white" stroke="#263238" stroke-linecap="round" stroke-linejoin="round"/>
                <path d="M156.642 63.627V74.817L169.432 75.887L169.962 64.957L156.642 63.627Z" fill="white" stroke="#263238" stroke-linecap="round" stroke-linejoin="round"/>
                <path d="M141.832 105.816V117.006L154.622 118.076L155.162 107.146L141.832 105.816Z" fill="white" stroke="#263238" stroke-linecap="round" stroke-linejoin="round"/>
                <path d="M136.352 54.4174L175.002 49.3574L175.262 55.4874L138.222 60.5474L136.352 54.4174Z" fill="#92E3A9" stroke="#263238" stroke-linecap="round" stroke-linejoin="round"/>
                <path d="M180.142 135.098L218.722 140.548L217.342 146.528L180.302 141.508L180.142 135.098Z" fill="white" stroke="#263238" stroke-linecap="round" stroke-linejoin="round"/>
                <path d="M133.692 77.5979V92.5279H146.752L146.212 77.3379L133.692 77.5979Z" fill="#92E3A9" stroke="#263238" stroke-linecap="round" stroke-linejoin="round"/>
                <path d="M240.282 96.1079V111.028H253.342L252.802 95.8379L240.282 96.1079Z" fill="#92E3A9" stroke="#263238" stroke-linecap="round" stroke-linejoin="round"/>
                <path d="M198.182 49.6179V69.0779L210.972 70.6679V49.0879L198.182 49.6179Z" fill="#92E3A9" stroke="#263238" stroke-linecap="round" stroke-linejoin="round"/>
                <path d="M234.951 69.6066L220.831 67.4766L219.231 82.1266L232.551 84.2666L234.951 69.6066Z" fill="white" stroke="#263238" stroke-linecap="round" stroke-linejoin="round"/>
                <path d="M206.172 99.9882L212.572 116.508L228.032 109.048L220.032 94.6582L206.172 99.9882Z" fill="#92E3A9" stroke="#263238" stroke-linecap="round" stroke-linejoin="round"/>
                <path d="M176.062 69.8763L179.792 105.316L196.582 103.986L193.382 67.7363L176.062 69.8763Z" fill="white" stroke="#263238" stroke-linecap="round" stroke-linejoin="round"/>
                <path d="M124.632 103.447L121.962 123.437L134.222 124.507L137.152 104.247L124.632 103.447Z" fill="#92E3A9" stroke="#263238" stroke-linecap="round" stroke-linejoin="round"/>
                <path d="M174.611 104.037L161.021 105.907L164.481 125.627L178.871 123.227L174.611 104.037Z" fill="#92E3A9" stroke="#263238" stroke-linecap="round" stroke-linejoin="round"/>
                <path d="M247.872 87.8973C247.492 85.5183 246.573 83.2575 245.187 81.2871C243.801 79.3167 241.983 77.6888 239.872 76.5273" stroke="#263238" stroke-linecap="round" stroke-linejoin="round"/>
                <path d="M239.022 79.4778L238.182 75.2578L244.922 75.6878" stroke="#263238" stroke-linecap="round" stroke-linejoin="round"/>
                <path d="M208.712 54.2168L201.132 64.3168" stroke="#263238" stroke-linecap="round" stroke-linejoin="round"/>
                <path d="M201.132 55.0566L208.712 62.6366" stroke="#263238" stroke-linecap="round" stroke-linejoin="round"/>
                <path d="M120.302 76.9473C120.533 79.7038 121.706 82.2967 123.624 84.2906C125.541 86.2846 128.086 87.558 130.832 87.8973" stroke="#263238" stroke-linecap="round" stroke-linejoin="round"/>
                <path d="M129.562 84.5273L132.932 88.7373L126.622 90.4173" stroke="#263238" stroke-linecap="round" stroke-linejoin="round"/>
                <path d="M193.981 58.8465C193.981 58.8465 180.081 55.8465 173.771 64.7365" stroke="#263238" stroke-linecap="round" stroke-linejoin="round"/>
                <path d="M172.092 62.207L171.662 67.687L177.982 65.157" stroke="#263238" stroke-linecap="round" stroke-linejoin="round"/>
                <path d="M62.662 241.957C62.662 241.957 49.162 252.677 42.662 263.847C36.162 275.017 36.402 282.597 36.402 282.597C36.402 282.597 55.402 268.967 59.762 259.767C62.3645 254.215 63.3687 248.048 62.662 241.957Z" fill="#92E3A9"/>
                <path d="M5.66162 227.006C5.66162 227.006 2.66162 246.256 9.79162 258.106C16.9216 269.956 36.3616 282.286 36.3616 282.286C36.3616 282.286 39.1716 273.636 28.9516 260.496C18.7316 247.356 5.66162 227.006 5.66162 227.006Z" fill="#92E3A9"/>
                <path d="M37.3718 260.947C36.7156 250.311 33.4975 239.991 27.9918 230.867C18.7918 215.597 7.78182 200.127 5.19182 193.547C3.47027 188.985 2.07673 184.307 1.02182 179.547C1.02182 179.547 -2.80818 192.247 4.36182 209.137C11.5318 226.027 37.3718 260.947 37.3718 260.947Z" fill="#92E3A9"/>
                <path d="M36.6616 254.856C43.7284 245.612 49.8774 235.702 55.0216 225.266C62.5116 209.476 61.3216 193.086 61.3216 193.086C61.3216 193.086 47.2416 211.336 42.7616 225.576C39.8968 235.144 37.856 244.94 36.6616 254.856Z" fill="#92E3A9"/>
                <path d="M34.5316 223.696C34.5316 223.696 31.9716 201.016 25.8616 188.426C19.7516 175.836 7.23159 156.426 7.23159 156.426C7.23159 156.426 5.66159 178.116 15.5316 195.496C21.0491 205.42 27.4056 214.855 34.5316 223.696Z" fill="#92E3A9"/>
                <path d="M34.022 210.617C34.022 210.617 46.742 191.667 50.222 178.117C53.702 164.567 56.732 141.627 56.732 141.627C56.732 141.627 41.472 157.247 37.732 176.857C35.5377 187.984 34.2965 199.279 34.022 210.617Z" fill="#92E3A9"/>
                <path d="M40.342 128.816C40.342 128.816 28.342 137.636 30.282 156.126C32.222 174.616 33.982 180.856 33.982 180.856C32.102 168.206 40.342 128.816 40.342 128.816Z" fill="#92E3A9"/>
                <g opacity="0.5">
                <path opacity="0.5" d="M62.662 241.957C62.662 241.957 49.162 252.677 42.662 263.847C36.162 275.017 36.402 282.597 36.402 282.597C36.402 282.597 55.402 268.967 59.762 259.767C62.3645 254.215 63.3687 248.048 62.662 241.957Z" fill="white"/>
                <path opacity="0.5" d="M5.66162 227.006C5.66162 227.006 2.66162 246.256 9.79162 258.106C16.9216 269.956 36.3616 282.286 36.3616 282.286C36.3616 282.286 39.1716 273.636 28.9516 260.496C18.7316 247.356 5.66162 227.006 5.66162 227.006Z" fill="white"/>
                <path opacity="0.5" d="M37.3718 260.947C36.7156 250.311 33.4975 239.991 27.9918 230.867C18.7918 215.597 7.78182 200.127 5.19182 193.547C3.47027 188.985 2.07673 184.307 1.02182 179.547C1.02182 179.547 -2.80818 192.247 4.36182 209.137C11.5318 226.027 37.3718 260.947 37.3718 260.947Z" fill="white"/>
                <path opacity="0.5" d="M36.6616 254.856C43.7284 245.612 49.8774 235.702 55.0216 225.266C62.5116 209.476 61.3216 193.086 61.3216 193.086C61.3216 193.086 47.2416 211.336 42.7616 225.576C39.8968 235.144 37.856 244.94 36.6616 254.856Z" fill="white"/>
                <path opacity="0.5" d="M34.5316 223.696C34.5316 223.696 31.9716 201.016 25.8616 188.426C19.7516 175.836 7.23159 156.426 7.23159 156.426C7.23159 156.426 5.66159 178.116 15.5316 195.496C21.0491 205.42 27.4056 214.855 34.5316 223.696Z" fill="white"/>
                <path opacity="0.5" d="M34.022 210.617C34.022 210.617 46.742 191.667 50.222 178.117C53.702 164.567 56.732 141.627 56.732 141.627C56.732 141.627 41.472 157.247 37.732 176.857C35.5377 187.984 34.2965 199.279 34.022 210.617Z" fill="white"/>
                <path opacity="0.5" d="M40.342 128.816C40.342 128.816 28.342 137.636 30.282 156.126C32.222 174.616 33.982 180.856 33.982 180.856C32.102 168.206 40.342 128.816 40.342 128.816Z" fill="white"/>
                </g>
                <path d="M36.122 288.477C36.122 288.477 37.222 285.547 37.222 263.237C37.222 240.927 34.302 232.147 34.302 210.237C34.302 188.327 32.832 167.807 32.832 167.807" stroke="#92E3A9" stroke-width="0.75" stroke-miterlimit="10"/>
                <path d="M34.4519 221.486C34.4519 221.486 26.4519 204.356 23.1319 197.926C20.0219 191.926 16.4019 182.326 16.4019 182.326" stroke="#92E3A9" stroke-width="0.75" stroke-miterlimit="10"/>
                <path d="M17.022 224.236C17.022 224.236 34.782 257.236 37.372 260.946" stroke="#92E3A9" stroke-width="0.75" stroke-miterlimit="10"/>
                <path d="M37.2119 252.076L51.5819 217.816" stroke="#92E3A9" stroke-width="0.75" stroke-miterlimit="10"/>
                <path d="M20.082 260.947C23.442 266.447 37.212 280.827 37.212 280.827C37.212 280.827 46.382 271.037 52.212 262.167" stroke="#92E3A9" stroke-width="0.75" stroke-miterlimit="10"/>
                <path d="M34.4517 207.416L43.3217 177.436" stroke="#92E3A9" stroke-width="0.75" stroke-miterlimit="10"/>
                <path d="M45.9116 284.605H25.8916V291.755H27.7816L30.2116 307.485H41.5816L44.0216 291.755H45.9116V284.605Z" fill="#92E3A9"/>
                <path d="M45.9116 284.605H25.8916V291.755H27.7816L30.2116 307.485H41.5816L44.0216 291.755H45.9116V284.605Z" fill="#92E3A9"/>
                <path d="M263.551 312.048C263.551 312.048 251.241 318.628 251.101 320.048C250.961 321.468 258.681 321.478 264.401 320.758C270.121 320.038 275.131 319.188 274.271 316.758C273.411 314.328 264.271 311.758 264.271 311.758L263.551 312.048Z" fill="#92E3A9" stroke="#263238" stroke-linecap="round" stroke-linejoin="round"/>
                <path d="M310.042 318.057C310.042 318.057 315.182 324.487 315.762 327.777C316.342 331.067 313.472 330.777 307.462 327.927C303.958 326.311 300.91 323.851 298.592 320.767L310.042 318.057Z" fill="#92E3A9" stroke="#263238" stroke-linecap="round" stroke-linejoin="round"/>
                <path d="M261.111 179.158C261.111 179.158 259.541 191.598 261.401 209.908C263.261 228.218 265.831 251.538 265.831 267.698C265.831 283.858 263.691 300.458 263.121 305.748C262.906 308.366 262.427 310.956 261.691 313.478C261.691 313.478 266.551 315.478 271.131 316.768C275.711 318.058 284.571 318.768 284.571 318.768C284.571 318.768 285.571 307.468 285.571 287.588C285.571 267.708 284.141 250.968 284.141 250.968C284.141 250.968 288.861 279.428 290.291 293.738C291.157 302.486 291.254 311.293 290.581 320.058C290.581 320.058 291.011 321.628 299.881 321.198C304.971 321.008 309.996 319.994 314.761 318.198C314.761 318.198 310.661 289.018 310.321 276.698C309.981 264.378 304.891 251.948 301.321 243.698C297.751 235.448 297.171 232.538 298.321 227.968C299.471 223.398 306.181 201.218 306.181 190.918C306.181 180.618 305.611 177.918 305.611 177.918C305.611 177.918 304.181 175.768 286.731 175.198C269.281 174.628 261.111 179.158 261.111 179.158Z" fill="#263238" stroke="#263238" stroke-linecap="round" stroke-linejoin="round"/>
                <path d="M282.932 247.188C283.642 249.697 284.142 250.967 284.142 250.967" stroke="white" stroke-linecap="round" stroke-linejoin="round"/>
                <path d="M278.282 186.697C278.282 186.697 277.712 214.157 279.422 228.757C280.007 233.907 280.905 239.017 282.112 244.057" stroke="white" stroke-linecap="round" stroke-linejoin="round"/>
                <path d="M304.502 255.408C305.046 256.664 305.487 257.961 305.822 259.288" stroke="white" stroke-linecap="round" stroke-linejoin="round"/>
                <path d="M303.711 190.008C303.131 196.552 302.112 203.05 300.661 209.458C297.201 224.678 294.081 234.028 294.431 237.458C294.701 240.128 300.151 246.538 303.561 253.308" stroke="white" stroke-linecap="round" stroke-linejoin="round"/>
                <path d="M290.322 54.0975C290.322 54.0975 287.322 48.1976 294.082 43.0976C300.842 37.9976 311.942 43.6376 312.882 49.0076C313.822 54.3776 310.192 58.4076 311.672 61.2276C313.152 64.0476 319.862 65.1176 323.352 69.2276C326.842 73.3376 328.182 80.2276 326.172 84.3976C324.162 88.5676 320.262 91.9176 322.682 94.4676C325.102 97.0176 331.271 102.258 331.271 108.028C331.271 113.798 326.032 119.838 321.602 122.128C317.172 124.418 309.122 121.318 304.952 119.038C300.782 116.758 297.302 110.038 298.512 103.728C299.722 97.4176 304.282 96.8876 302.142 93.3976C300.002 89.9076 295.962 87.3976 297.842 83.9976C299.722 80.5976 302.402 78.0876 302.002 75.1376C301.602 72.1876 297.442 69.6376 297.442 69.6376C297.442 69.6376 292.872 59.4276 291.932 57.4176C290.992 55.4076 290.322 54.0975 290.322 54.0975Z" fill="#263238" stroke="#263238" stroke-linecap="round" stroke-linejoin="round"/>
                <path d="M296.892 54.5477C296.892 54.5477 298.832 47.4077 305.332 48.3777C311.832 49.3477 306.332 56.8177 307.602 62.3777C308.872 67.9377 321.892 67.5777 322.542 76.9977C323.192 86.4177 311.822 90.9977 313.772 98.1077C315.722 105.218 327.412 104.928 324.822 112.718C322.232 120.508 319.292 121.168 316.702 118.248" stroke="white" stroke-width="0.75" stroke-linecap="round" stroke-linejoin="round"/>
                <path d="M304.661 72.6973C304.661 72.6973 314.081 76.2673 313.751 81.4673C313.421 86.6673 304.011 88.2873 307.581 96.0773" stroke="white" stroke-width="0.75" stroke-linecap="round" stroke-linejoin="round"/>
                <path d="M284.431 93.7578C284.431 93.7578 264.121 98.1878 262.831 99.7578C261.541 101.328 242.231 129.218 242.231 129.218L217.231 115.058L214.231 120.788L240.371 143.698L262.261 131.258L264.831 142.838C264.831 142.838 260.831 167.158 260.261 172.738C259.691 178.318 259.541 181.038 259.541 181.038C266.896 183.05 274.533 183.823 282.141 183.328C290.215 182.873 298.151 181.032 305.601 177.888C305.601 177.888 300.021 161.148 297.731 155.288C295.441 149.428 293.011 142.558 293.011 142.558L300.311 126.248L309.311 147.348L322.051 142.768C322.051 142.768 312.291 102.768 311.291 101.218C310.291 99.6678 295.411 94.4878 295.411 94.4878L284.431 93.7578Z" fill="#92E3A9" stroke="#263238" stroke-linecap="round" stroke-linejoin="round"/>
                <path d="M265.261 115.217L262.911 107.367" stroke="#263238" stroke-linecap="round" stroke-linejoin="round"/>
                <path d="M281.252 107.018C279.073 112.802 277.223 118.704 275.712 124.698C273.292 134.388 275.022 138.198 275.022 144.428C275.022 150.658 276.412 181.798 276.412 181.798" stroke="#263238" stroke-linecap="round" stroke-linejoin="round"/>
                <path d="M262.261 131.237C262.261 131.237 259.401 122.797 260.111 120.507C260.821 118.217 264.981 115.647 265.261 115.217C265.541 114.787 267.411 110.217 267.411 110.217" stroke="#263238" stroke-linecap="round" stroke-linejoin="round"/>
                <path d="M295.442 114.979L300.312 126.229L294.752 120.169" stroke="#263238" stroke-linecap="round" stroke-linejoin="round"/>
                <path d="M285.432 91.0381C285.432 91.0381 281.282 91.7581 280.282 93.3281C279.282 94.8981 274.132 106.198 274.132 106.198L283.712 102.058L289.712 110.208C289.712 110.208 297.582 95.7581 297.712 94.6181C297.842 93.4781 292.852 90.3281 292.422 90.3281C291.992 90.3281 285.432 91.0381 285.432 91.0381Z" fill="white" stroke="#263238" stroke-linecap="round" stroke-linejoin="round"/>
                <path d="M282.861 90.178C283.092 93.0367 283.092 95.9094 282.861 98.7681C282.431 101.768 281.001 106.058 281.711 105.918C282.421 105.778 291.151 96.048 292.301 94.048C293.451 92.048 293.581 86.748 293.581 86.748C293.581 86.748 286.581 90.898 282.861 90.178Z" fill="white" stroke="#263238" stroke-linecap="round" stroke-linejoin="round"/>
                <path d="M300.122 72.7571C300.122 72.7571 301.062 60.4071 297.302 56.7571C293.542 53.1071 284.412 52.0571 279.042 56.8871C273.672 61.7171 275.822 77.5671 276.632 81.9971C277.442 86.4271 281.732 92.0571 285.092 91.9271C288.452 91.7971 292.872 87.6271 294.092 86.2871C295.312 84.9471 296.092 81.1871 296.092 81.1871C296.092 81.1871 299.992 79.7071 300.662 77.4271C301.001 75.8534 300.811 74.2118 300.122 72.7571Z" fill="white" stroke="#263238" stroke-linecap="round" stroke-linejoin="round"/>
                <path d="M282.022 70.4473C282.126 71.6946 281.866 72.9455 281.272 74.0473C280.322 75.3673 279.182 75.5573 279.372 76.3173C279.562 77.0773 281.462 77.6973 281.462 77.6973" stroke="#263238" stroke-linecap="round" stroke-linejoin="round"/>
                <path d="M282.222 82.6277C282.222 82.6277 282.882 84.7377 284.332 84.7377C285.782 84.7377 284.992 82.0977 284.992 82.0977C284.11 82.4481 283.17 82.628 282.222 82.6277Z" fill="#263238"/>
                <path d="M281.012 82.0173C281.012 82.0173 283.852 83.3373 285.742 81.4473" stroke="#263238" stroke-linecap="round" stroke-linejoin="round"/>
                <path d="M278.731 73.1974C279.046 73.1974 279.301 72.5617 279.301 71.7774C279.301 70.9932 279.046 70.3574 278.731 70.3574C278.416 70.3574 278.161 70.9932 278.161 71.7774C278.161 72.5617 278.416 73.1974 278.731 73.1974Z" fill="#263238"/>
                <path d="M286.121 72.3477C286.121 73.1377 285.871 73.7677 285.561 73.7677C285.251 73.7677 284.991 73.1377 284.991 72.3477C284.991 71.5577 285.241 70.9277 285.561 70.9277C285.881 70.9277 286.121 71.5677 286.121 72.3477Z" fill="#263238"/>
                <path d="M276.661 68.9378C276.77 68.6526 276.934 68.3917 277.143 68.1703C277.353 67.9488 277.605 67.7711 277.884 67.6474C278.163 67.5238 278.464 67.4566 278.769 67.4498C279.074 67.443 279.377 67.4967 279.661 67.6078" stroke="#263238" stroke-linecap="round" stroke-linejoin="round"/>
                <path d="M283.661 67.4183C284.12 67.2357 284.614 67.1563 285.107 67.1856C285.6 67.2149 286.08 67.3523 286.514 67.588C286.949 67.8236 287.326 68.1518 287.619 68.5493C287.912 68.9469 288.114 69.404 288.211 69.8883" stroke="#263238" stroke-linecap="round" stroke-linejoin="round"/>
                <path d="M297.302 56.7871C293.542 53.1571 284.412 52.0871 279.042 56.9171C278.007 57.933 277.234 59.1858 276.792 60.5671C278.819 59.4829 281.05 58.8357 283.342 58.6671C288.042 58.2571 292.742 61.4871 294.082 64.6671C295.422 67.8471 295.662 75.1771 295.662 75.1771C295.662 75.1771 297.412 72.3571 298.482 72.0871C298.787 72.0124 299.107 72.0371 299.397 72.1576C299.687 72.2782 299.93 72.4883 300.092 72.7571C300.092 72.7571 301.062 60.4071 297.302 56.7871Z" fill="#263238" stroke="#263238" stroke-linecap="round" stroke-linejoin="round"/>
                <path d="M312.782 139.887L280.602 154.587L281.742 158.737C281.742 158.737 324.162 149.737 324.162 148.547C324.162 147.357 320.662 138.027 320.662 138.027" fill="#92E3A9"/>
                <path d="M312.782 139.887L280.602 154.587L281.742 158.737C281.742 158.737 324.162 149.737 324.162 148.547C324.162 147.357 320.662 138.027 320.662 138.027" stroke="#263238" stroke-linecap="round" stroke-linejoin="round"/>
                <path d="M272.131 135.698C272.86 136.807 273.375 138.041 273.651 139.338C274.401 142.058 275.311 150.388 275.651 152.508C275.991 154.628 279.581 164.918 279.581 164.918L277.011 165.528L268.071 139.028C268.071 139.028 269.261 134.788 272.131 135.698Z" fill="white" stroke="#263238" stroke-linecap="round" stroke-linejoin="round"/>
                <path d="M251.271 142.998L259.572 171.468L278.161 166.888L270.871 138.998L251.271 142.998Z" fill="white" stroke="#263238" stroke-linecap="round" stroke-linejoin="round"/>
                <path d="M251.271 142.998C251.271 142.998 249.571 143.878 249.571 142.208C249.571 140.538 250.331 139.938 252.151 139.788C253.971 139.638 266.231 137.218 269.101 135.998C271.971 134.778 272.101 135.698 272.101 135.698C271.586 136.059 271.19 136.566 270.965 137.155C270.741 137.743 270.697 138.385 270.841 138.998L251.271 142.998Z" fill="white" stroke="#263238" stroke-linecap="round" stroke-linejoin="round"/>
                <path d="M280.602 154.588C280.602 154.588 273.872 153.158 273.442 153.158C273.012 153.158 264.722 159.028 264.722 159.028L265.432 161.458C265.95 161.576 266.481 161.623 267.012 161.598C268.152 161.598 272.302 161.308 272.302 161.308L266.722 162.698L267.152 163.698C267.152 163.698 274.872 162.268 275.882 162.118C276.892 161.968 281.742 158.688 281.742 158.688L280.602 154.588Z" fill="white" stroke="#263238" stroke-linecap="round" stroke-linejoin="round"/>
                <path d="M215.482 109.637L209.332 107.457L202.462 102.627L201.892 103.917L207.392 110.007L205.042 115.357L209.762 118.937L214.052 121.217L217.202 115.067L215.482 109.637Z" fill="white" stroke="#263238" stroke-linecap="round" stroke-linejoin="round"/>
                <path d="M216.911 114.497C216.911 114.497 216.201 109.497 215.201 108.347C213.995 107.198 212.701 106.145 211.331 105.197L209.761 102.627C209.761 102.627 208.901 102.767 208.901 103.487C209.241 105.004 209.72 106.487 210.331 107.917C210.704 108.905 211.238 109.824 211.911 110.637C211.911 110.637 210.911 112.927 211.481 114.357C211.966 115.384 212.646 116.308 213.481 117.077" fill="white"/>
                <path d="M216.911 114.497C216.911 114.497 216.201 109.497 215.201 108.347C213.995 107.198 212.701 106.145 211.331 105.197L209.761 102.627C209.761 102.627 208.901 102.767 208.901 103.487C209.241 105.004 209.72 106.487 210.331 107.917C210.704 108.905 211.238 109.824 211.911 110.637C211.911 110.637 210.911 112.927 211.481 114.357C211.966 115.384 212.646 116.308 213.481 117.077" stroke="#263238" stroke-linecap="round" stroke-linejoin="round"/>
                <path d="M205.662 107.348C205.662 107.348 202.802 115.068 203.232 115.648C203.662 116.228 207.522 117.358 207.952 116.928C208.382 116.498 210.672 110.928 210.672 110.928L205.662 107.348Z" fill="white" stroke="#263238" stroke-linecap="round" stroke-linejoin="round"/>
                <path d="M304.091 183.158C304.091 183.158 304.091 184.258 303.981 186.248" stroke="white" stroke-linecap="round" stroke-linejoin="round"/>
                <path d="M109.492 98.9961C109.492 98.9961 118.182 124.136 120.202 130.496C122.222 136.856 124.202 148.036 123.762 149.746C123.322 151.456 115.072 143.066 111.662 144.316C108.252 145.566 108.562 147.886 108.562 147.886L104.662 137.946L109.492 98.9961Z" fill="#92E3A9" stroke="#263238" stroke-linecap="round" stroke-linejoin="round"/>
                <path d="M107.742 139.077C107.742 139.077 112.232 134.077 117.332 135.167" stroke="#263238" stroke-linecap="round" stroke-linejoin="round"/>
                <path d="M107.492 137.347C107.492 137.347 110.042 130.787 115.872 130.787" stroke="#263238" stroke-linecap="round" stroke-linejoin="round"/>
                <path d="M112.752 152.848C112.752 152.848 109.332 151.138 108.562 149.438C107.792 147.738 107.932 142.138 109.952 140.438C111.972 138.738 118.182 139.038 119.732 139.658C121.282 140.278 123.452 144.158 124.392 146.488C125.332 148.818 125.322 151.918 124.072 153.158C123.584 153.719 122.959 154.143 122.257 154.389C121.556 154.634 120.802 154.692 120.072 154.558C118.662 154.248 112.752 152.848 112.752 152.848Z" fill="#92E3A9" stroke="#263238" stroke-linecap="round" stroke-linejoin="round"/>
                <path d="M71.3119 90.6173C71.3119 90.6173 51.3119 101.617 50.2019 104.617C49.0919 107.617 63.2019 165.917 63.2019 165.917C63.4455 166.545 63.8702 167.087 64.4221 167.473C64.974 167.86 65.6283 168.073 66.3019 168.087C68.6319 168.087 101.692 167.467 102.772 167.157C103.852 166.847 104.332 165.157 104.332 164.367C104.332 163.577 110.222 100.577 109.452 99.0273C108.682 97.4773 84.6619 87.6973 84.6619 87.6973L76.1219 88.0073L71.3119 90.6173Z" fill="#92E3A9" stroke="#263238" stroke-linecap="round" stroke-linejoin="round"/>
                <path d="M74.572 82.2375C72.7497 83.7849 71.0758 85.4991 69.572 87.3575C67.572 89.9975 68.642 94.0275 69.882 96.9775C71.122 99.9275 75.002 108.158 75.002 108.158C75.002 108.158 83.852 100.088 84.322 99.7775C84.792 99.4675 97.972 102.258 97.972 102.258C97.972 102.258 96.422 94.0275 91.922 87.8275C87.422 81.6275 82.452 80.2175 80.442 80.0675C78.432 79.9175 74.572 82.2375 74.572 82.2375Z" fill="#92E3A9" stroke="#263238" stroke-linecap="round" stroke-linejoin="round"/>
                <path d="M71.1519 76.0263C71.1519 76.0263 73.1519 83.1663 73.6419 85.0263C74.1319 86.8863 77.0519 92.1663 79.0719 94.8063C81.0919 97.4463 85.5919 101.326 85.9019 99.9263C86.2119 98.5263 89.0019 77.4263 87.6019 74.1663C86.2019 70.9063 74.2619 61.4363 71.3119 63.1663C68.3619 64.8963 71.1519 76.0263 71.1519 76.0263Z" fill="white" stroke="#263238" stroke-linecap="round" stroke-linejoin="round"/>
                <path d="M98.6623 75.5666C98.6623 75.5666 96.9623 78.9766 90.7523 76.4966C84.5423 74.0166 81.9023 70.4466 81.1323 68.1166L79.8123 64.1166C81.0623 62.6366 82.8123 61.0566 82.6823 59.7466C82.5834 58.9014 82.2625 58.0975 81.7523 57.4166L90.4423 53.4166C90.4423 53.4166 92.9223 52.3366 91.8423 49.2266C90.7623 46.1166 84.0823 42.2266 75.3923 45.2266C66.7023 48.2266 62.6623 55.3866 64.4823 61.5966C66.3023 67.8066 71.9323 77.5966 71.9323 77.5966C71.9323 77.5966 74.1023 78.3766 75.1923 77.2866C76.2823 76.1966 74.8823 72.0166 74.8823 72.0166L75.3723 71.6166C76.3723 73.7566 78.8123 78.7066 79.5423 80.3966C80.4723 82.5666 80.7823 84.1166 84.6623 84.5866C88.5423 85.0566 98.4723 87.5366 99.4023 84.1166C100.332 80.6966 98.6623 75.5666 98.6623 75.5666Z" fill="#263238" stroke="#263238" stroke-linecap="round" stroke-linejoin="round"/>
                <path d="M77.6617 56.5273C75.1223 56.8271 72.7073 57.7931 70.6617 59.3273C66.8917 61.9773 66.4717 64.3273 66.4717 64.3273L74.0217 60.5573C74.0217 60.5573 68.7017 65.1673 68.0217 66.4273C67.3417 67.6873 73.6217 63.7673 73.6217 63.7673L70.2617 67.9673L74.3217 66.4273" stroke="white" stroke-width="0.5" stroke-linecap="round" stroke-linejoin="round"/>
                <path d="M76.5918 56.4773C76.5918 56.4773 80.3118 58.6473 79.5418 60.6673C78.7718 62.6873 76.7418 65.0073 76.9018 65.6673C77.0618 66.3273 81.4018 76.5373 83.1018 78.2373C84.8018 79.9373 96.4518 81.3473 98.1618 79.6373C99.8718 77.9273 96.9218 68.6973 94.7418 62.6973C92.5618 56.6973 91.0218 51.6973 91.0218 51.6973L76.5918 56.4773Z" fill="white" stroke="#263238" stroke-linecap="round" stroke-linejoin="round"/>
                <path d="M93.1519 59.4863L91.4619 61.3863L94.8419 68.7663L91.6719 70.4563" stroke="#263238" stroke-linecap="round" stroke-linejoin="round"/>
                <path d="M87.9717 64.5175C88.2317 65.1675 88.1417 65.8075 87.7817 65.9475C87.4217 66.0875 86.9317 65.6775 86.6717 65.0375C86.4117 64.3975 86.5017 63.7475 86.8617 63.6075C87.2217 63.4675 87.7217 63.8775 87.9717 64.5175Z" fill="#263238"/>
                <path d="M93.5615 62.1457C93.8215 62.7857 93.7415 63.4257 93.3815 63.5657C93.0215 63.7057 92.5216 63.3057 92.2616 62.6557C92.0016 62.0057 92.0915 61.3757 92.4515 61.2257C92.8115 61.0757 93.3115 61.4957 93.5615 62.1457Z" fill="#263238"/>
                <path d="M88.1621 73.0273L92.0821 73.4473" stroke="#263238" stroke-linecap="round" stroke-linejoin="round"/>
                <path d="M88.0218 62.1172H83.1318" stroke="#263238" stroke-linecap="round" stroke-linejoin="round"/>
                <path d="M76.3823 73.8867C75.9223 73.2667 73.9023 69.0767 71.8823 69.8867C69.8623 70.6967 70.8023 74.0767 72.5023 76.2467C74.2023 78.4167 77.6323 76.3967 77.6323 76.3967" fill="white"/>
                <path d="M76.3823 73.8867C75.9223 73.2667 73.9023 69.0767 71.8823 69.8867C69.8623 70.6967 70.8023 74.0767 72.5023 76.2467C74.2023 78.4167 77.6323 76.3967 77.6323 76.3967" stroke="#263238" stroke-linecap="round" stroke-linejoin="round"/>
                <path d="M54.5522 103.188C54.5522 103.188 50.5522 105.187 49.2722 107.537C47.9922 109.887 47.8822 114.827 48.3422 116.847C48.8022 118.867 69.4522 144.467 69.4522 144.467L78.1422 135.777L67.9022 110.327" fill="#92E3A9"/>
                <path d="M54.5522 103.188C54.5522 103.188 50.5522 105.187 49.2722 107.537C47.9922 109.887 47.8822 114.827 48.3422 116.847C48.8022 118.867 69.4522 144.467 69.4522 144.467L78.1422 135.777L67.9022 110.327" stroke="#263238" stroke-linecap="round" stroke-linejoin="round"/>
                <path d="M79.0718 128.176C79.0718 128.176 72.8618 129.416 71.3118 131.436C69.7618 133.456 65.8818 141.826 65.8818 145.706C65.8818 149.586 74.8818 152.536 78.4518 152.536C82.0218 152.536 86.9818 150.676 87.6018 146.636C88.2218 142.596 85.6018 135.636 84.8118 134.536C84.0218 133.436 79.0718 128.176 79.0718 128.176Z" fill="#92E3A9" stroke="#263238" stroke-linecap="round" stroke-linejoin="round"/>
                <path d="M86.6624 86.117L88.0624 75.877L94.7324 76.027C94.7324 76.027 95.5124 76.647 94.8924 77.117C94.2724 77.587 90.7024 78.047 90.7024 78.047L90.5424 79.907L95.3524 79.287C95.8959 80.0678 96.3647 80.8982 96.7524 81.767C96.9124 82.387 95.6724 86.427 95.6724 86.427L94.4224 86.737L93.9624 84.567L91.7924 85.497C91.7924 85.497 91.3224 90.777 90.8524 91.237C89.9619 91.9142 89.0301 92.5354 88.0624 93.097C88.0624 93.097 86.3524 137.017 86.3524 139.037C86.3524 144.467 83.0924 146.487 79.3524 146.947C75.6124 147.407 73.4524 144.007 72.9924 141.207C72.5324 138.407 86.6624 86.117 86.6624 86.117Z" fill="white" stroke="#263238" stroke-linecap="round" stroke-linejoin="round"/>
                <path d="M45.862 313.627C45.862 313.627 32.362 324.797 30.962 326.977C29.562 329.157 33.132 329.147 35.312 328.527C37.492 327.907 41.312 327.287 44.002 325.417C45.7012 324.203 47.3089 322.866 48.812 321.417L48.962 323.587C48.962 323.587 51.452 322.807 51.602 322.347C51.752 321.887 52.412 316.917 52.412 316.917L45.862 313.627Z" fill="#92E3A9" stroke="#263238" stroke-linecap="round" stroke-linejoin="round"/>
                <path d="M121.442 313.627C121.442 313.627 134.942 324.797 136.332 326.977C137.722 329.157 134.162 329.147 131.992 328.527C129.822 327.907 125.942 327.287 123.302 325.417C121.6 324.206 119.992 322.869 118.492 321.417L118.332 323.587C118.332 323.587 115.852 322.807 115.692 322.347C115.532 321.887 114.892 316.917 114.892 316.917L121.442 313.627Z" fill="#92E3A9" stroke="#263238" stroke-linecap="round" stroke-linejoin="round"/>
                <path d="M120.262 278.247C120.112 271.567 115.322 261.327 115.322 260.857C115.322 260.387 108.432 199.247 108.432 199.247L104.082 165.887L83.3421 166.177L62.5921 165.887L58.2521 199.247C58.2521 199.247 51.3621 260.397 51.3621 260.857C51.3621 261.317 46.5621 271.567 46.3621 278.247C46.1621 284.927 44.6621 314.557 44.6621 314.557L52.4521 316.887C52.4521 316.887 66.3821 269.087 68.6221 259.887C70.8621 250.687 75.2121 228.387 76.8621 220.007C78.5121 211.627 83.0021 198.127 83.0021 198.127L83.3821 198.037L83.7521 198.127C83.7521 198.127 88.2521 211.627 89.8921 220.007C91.5321 228.387 95.8921 250.737 98.1321 259.887C100.372 269.037 114.312 316.887 114.312 316.887L122.102 314.557C122.102 314.557 120.412 284.917 120.262 278.247Z" fill="#263238" stroke="#263238" stroke-linecap="round" stroke-linejoin="round"/>
                <path d="M92.5616 185.787L85.6416 194.897" stroke="white" stroke-linecap="round" stroke-linejoin="round"/>
                <path d="M67.0615 174.496L77.6315 183.606" stroke="white" stroke-linecap="round" stroke-linejoin="round"/>
                <path d="M65.2422 177.047L72.8922 182.147" stroke="white" stroke-linecap="round" stroke-linejoin="round"/>
                <path d="M86.7317 168.666L82.7217 178.506L86.3717 181.416L84.5517 187.246" stroke="white" stroke-linecap="round" stroke-linejoin="round"/>
                <path d="M119.882 157.347C119.882 157.347 122.992 152.347 122.212 149.127C121.432 145.907 116.632 143.227 112.902 144.467C109.172 145.707 109.022 150.677 109.022 153.627C109.022 156.577 107.622 169.457 107.622 169.457L102.192 178.767L106.382 183.577C106.382 183.577 110.732 175.347 113.992 169.917C116.284 165.889 118.254 161.686 119.882 157.347Z" fill="white" stroke="#263238" stroke-linecap="round" stroke-linejoin="round"/>
                <path d="M107.002 171.156L100.662 174.416L96.3223 180.626L97.0923 181.406C98.1342 180.708 99.2235 180.083 100.352 179.536C101.752 178.916 104.232 177.986 104.232 177.986" fill="white"/>
                <path d="M107.002 171.156L100.662 174.416L96.3223 180.626L97.0923 181.406C98.1342 180.708 99.2235 180.083 100.352 179.536C101.752 178.916 104.232 177.986 104.232 177.986" stroke="#263238" stroke-linecap="round" stroke-linejoin="round"/>
            </svg> 