                <svg width="120" height="128" viewBox="0 0 120 128" fill="none" xmlns="http://www.w3.org/2000/svg">
                    <path d="M89.9333 0.883142C86.0402 -0.0358578 81.9633 -0.305432 78.0212 0.399135C67.5775 2.27083 59.629 10.4622 50.7578 16.2672C44.9245 20.0784 38.5172 22.9298 31.7801 24.7128C24.7298 26.5814 17.0664 27.3749 11.1655 31.6666C5.9544 35.4437 2.8216 41.5091 1.2368 47.7368C-0.697446 55.3278 -0.498196 63.6202 2.80014 70.7271C6.33758 78.3518 13.0906 84.0281 20.2727 88.3995C32.3227 95.727 46.6901 100.111 60.6099 97.8315C68.6627 96.5174 76.2617 93.0282 82.9871 88.4148C95.687 79.7119 105.266 66.9378 111.029 52.7393C113.549 46.5238 116.614 38.7122 116.4 31.9086C116.203 25.6563 113.242 18.8465 109.542 13.9146C104.751 7.5122 97.7285 2.72727 89.9333 0.883142Z" fill="#92E3A9"/>
                    <path opacity="0.7" d="M89.9333 0.883142C86.0402 -0.0358578 81.9633 -0.305432 78.0212 0.399135C67.5775 2.27083 59.629 10.4622 50.7578 16.2672C44.9245 20.0784 38.5172 22.9298 31.7801 24.7128C24.7298 26.5814 17.0664 27.3749 11.1655 31.6666C5.9544 35.4437 2.8216 41.5091 1.2368 47.7368C-0.697446 55.3278 -0.498196 63.6202 2.80014 70.7271C6.33758 78.3518 13.0906 84.0281 20.2727 88.3995C32.3227 95.727 46.6901 100.111 60.6099 97.8315C68.6627 96.5174 76.2617 93.0282 82.9871 88.4148C95.687 79.7119 105.266 66.9378 111.029 52.7393C113.549 46.5238 116.614 38.7122 116.4 31.9086C116.203 25.6563 113.242 18.8465 109.542 13.9146C104.751 7.5122 97.7285 2.72727 89.9333 0.883142Z" fill="white"/>
                    <path d="M67.9807 127.778C96.7102 127.778 120 124.606 120 120.693C120 116.78 96.7102 113.607 67.9807 113.607C39.2513 113.607 15.9614 116.78 15.9614 120.693C15.9614 124.606 39.2513 127.778 67.9807 127.778Z" fill="#92E3A9"/>
                    <path opacity="0.5" d="M67.9807 127.778C96.7102 127.778 120 124.606 120 120.693C120 116.78 96.7102 113.607 67.9807 113.607C39.2513 113.607 15.9614 116.78 15.9614 120.693C15.9614 124.606 39.2513 127.778 67.9807 127.778Z" fill="white"/>
                    <path d="M63.9131 106.939H106.641" stroke="#263238" stroke-linecap="round" stroke-linejoin="round"/>
                    <path d="M24.8848 106.939H58.2513" stroke="#263238" stroke-linecap="round" stroke-linejoin="round"/>
                    <path d="M99.5572 74.4043H71.8218V109.084H99.5572V74.4043Z" fill="#263238" stroke="#263238" stroke-linecap="round" stroke-linejoin="round"/>
                    <path d="M100.636 74.4043H78.9639V109.084H100.636V74.4043Z" fill="white" stroke="#263238" stroke-linecap="round" stroke-linejoin="round"/>
                    <path d="M98.5087 76.5918H81.4683V87.4636H98.5087V76.5918Z" fill="white" stroke="#263238" stroke-linecap="round" stroke-linejoin="round"/>
                    <path d="M94.3184 80.9844H85.668V83.0644H94.3184V80.9844Z" fill="#263238" stroke="#263238" stroke-linecap="round" stroke-linejoin="round"/>
                    <path d="M98.5087 91.5098H81.4683V102.382H98.5087V91.5098Z" fill="white" stroke="#263238" stroke-linecap="round" stroke-linejoin="round"/>
                    <path d="M94.3184 95.9023H85.668V97.9823H94.3184V95.9023Z" fill="#263238" stroke="#263238" stroke-linecap="round" stroke-linejoin="round"/>
                    <path d="M34.1482 110.365C34.1482 110.978 30.8346 111.486 26.7484 111.486C22.6623 111.486 19.3486 110.984 19.3486 110.365C19.3486 109.747 22.6623 109.244 26.7484 109.244C30.8346 109.244 34.1482 109.747 34.1482 110.365Z" fill="#263238"/>
                    <path d="M19.3486 110.364L17.2305 101.049H36.2664L34.1482 110.364H19.3486Z" fill="#263238"/>
                    <path d="M36.2667 101.05C36.2667 101.847 32.0058 102.493 26.7641 102.493C21.5223 102.493 17.2461 101.847 17.2461 101.05C17.2461 100.254 21.507 99.6074 26.7641 99.6074C32.0212 99.6074 36.2667 100.254 36.2667 101.05Z" fill="#263238"/>
                    <path d="M34.4332 100.988C34.4332 101.187 33.8202 101.368 32.7595 101.512C30.764 101.737 28.7565 101.84 26.7484 101.819C24.7402 101.842 22.7326 101.739 20.7372 101.512C19.6919 101.371 19.0635 101.191 19.0635 100.991C19.0635 100.532 22.5059 100.158 26.7484 100.158C30.9908 100.158 34.4332 100.529 34.4332 100.988Z" fill="white"/>
                    <path d="M32.7597 101.511C30.7641 101.736 28.7566 101.839 26.7485 101.817C24.7403 101.84 22.7327 101.738 20.7373 101.511C21.3504 101.205 23.8027 100.99 26.7485 100.99C29.6943 100.99 32.1435 101.208 32.7597 101.511Z" fill="#92E3A9"/>
                    <path d="M33.3667 104.089C34.1361 103.954 34.9147 103.783 35.6872 103.596" stroke="white" stroke-linecap="round" stroke-linejoin="round"/>
                    <path d="M21.1299 104.287C24.2052 104.666 27.3114 104.729 30.3996 104.474" stroke="white" stroke-linecap="round" stroke-linejoin="round"/>
                    <path d="M17.8467 103.754C17.8467 103.754 18.7172 103.953 20.1794 104.164" stroke="white" stroke-linecap="round" stroke-linejoin="round"/>
                    <path d="M22.4634 50.2776C24.2015 49.0037 25.8298 47.5866 27.3312 46.041C29.3727 43.8262 28.2723 40.2207 28.2723 40.2207C28.2723 40.2207 26.8591 41.4767 24.6612 43.67C22.4634 45.8634 22.4634 47.4349 22.4634 47.4349V50.2776Z" fill="#92E3A9"/>
                    <path d="M25.6543 60.062C27.3939 58.7899 29.0223 57.3726 30.5221 55.8254C32.5606 53.629 31.4632 50.0234 31.4632 50.0234C31.4632 50.0234 30.05 51.2763 27.8522 53.4727C25.6543 55.6692 25.6543 57.2376 25.6543 57.2376V60.062Z" fill="#92E3A9"/>
                    <path d="M22.8984 52.9081C21.0365 51.8229 19.2678 50.5851 17.6107 49.2076C15.3484 47.2348 16.0596 43.5312 16.0596 43.5312C16.0596 43.5312 17.5923 44.6432 20.017 46.5946C22.4417 48.5459 22.6011 50.1113 22.6011 50.1113L22.8984 52.9081Z" fill="#92E3A9"/>
                    <path d="M27.052 64.4456C25.0868 63.5628 23.1982 62.5187 21.4056 61.3241C18.9533 59.5994 19.2598 55.8438 19.2598 55.8438C19.2598 55.8438 20.9029 56.7628 23.5146 58.4629C26.1263 60.1631 26.4542 61.6825 26.4542 61.6825L27.052 64.4456Z" fill="#92E3A9"/>
                    <path d="M25.7306 77.1398C23.9938 75.8653 22.3657 74.4493 20.8628 72.9063C18.8212 70.6945 19.9248 67.0859 19.9248 67.0859C19.9248 67.0859 21.3379 68.3388 23.5358 70.5353C25.7336 72.7317 25.7336 74.3062 25.7336 74.3062L25.7306 77.1398Z" fill="#92E3A9"/>
                    <path d="M26.1661 80.1794C27.7076 78.6672 29.1186 77.0276 30.384 75.2781C32.0915 72.8274 30.4913 69.3965 30.4913 69.3965C30.4913 69.3965 29.2652 70.8424 27.4076 73.3298C25.55 75.8172 25.7676 77.3673 25.7676 77.3673L26.1661 80.1794Z" fill="#92E3A9"/>
                    <path d="M27.9346 89.3343C26.1978 88.0588 24.5696 86.6418 23.0668 85.0977C21.0253 82.9013 22.1258 79.2773 22.1258 79.2773C22.1258 79.2773 23.5389 80.5272 25.7368 82.7267C27.9346 84.9261 27.9346 86.4976 27.9346 86.4976V89.3343Z" fill="#92E3A9"/>
                    <path d="M25.7491 97.506C24.3939 95.8359 23.1799 94.0561 22.1197 92.185C20.7004 89.5474 22.6776 86.334 22.6776 86.334C22.6776 86.334 23.729 87.8994 25.2985 90.5828C26.868 93.2663 26.4695 94.7857 26.4695 94.7857L25.7491 97.506Z" fill="#92E3A9"/>
                    <path d="M24.3267 102.272C24.3267 102.272 27.3675 92.8671 27.9469 89.4055C28.5262 85.944 26.5 83.0338 25.8318 77.8292C25.1635 72.6246 27.671 67.4139 26.7882 63.3519C25.9053 59.2899 23.7473 56.4073 22.8767 51.9165C22.585 50.3061 22.3804 48.6812 22.2637 47.0488" stroke="#263238" stroke-linecap="round" stroke-linejoin="round"/>
                    <path d="M20.2529 49.3379L22.6225 51.1514" stroke="#263238" stroke-linecap="round" stroke-linejoin="round"/>
                    <path d="M23.5054 47.2969L22.5122 49.0583" stroke="#263238" stroke-linecap="round" stroke-linejoin="round"/>
                    <path d="M22.6226 60.1836C24.661 61.6662 26.6443 63.152 26.6443 63.152" stroke="#263238" stroke-linecap="round" stroke-linejoin="round"/>
                    <path d="M29.1795 54.6738C27.3065 56.8182 25.6543 60.0592 25.6543 60.0592" stroke="#263238" stroke-linecap="round" stroke-linejoin="round"/>
                    <path d="M21.4116 70.8535C23.0929 72.53 24.521 74.4422 25.651 76.5299" stroke="#263238" stroke-linecap="round" stroke-linejoin="round"/>
                    <path d="M29.5071 72.7324C29.5071 72.7324 29.3416 72.9561 28.1829 74.6623C27.3584 75.959 26.6408 77.3206 26.0371 78.7335" stroke="#263238" stroke-linecap="round" stroke-linejoin="round"/>
                    <path d="M23.8335 82.7559C24.6877 83.6955 25.4618 84.7048 26.1479 85.7732C26.8373 86.9285 27.4348 88.1361 27.935 89.3849" stroke="#263238" stroke-linecap="round" stroke-linejoin="round"/>
                    <path d="M23.0117 89.5156C23.3949 90.3519 24.3298 92.4319 25.1575 94.0279C25.662 95.1132 25.8663 96.3138 25.7491 97.5048" stroke="#263238" stroke-linecap="round" stroke-linejoin="round"/>
                    <path d="M36.5518 70.1742C35.601 69.1855 34.7336 68.1199 33.9585 66.9884C32.9162 65.3924 33.9983 63.248 33.9983 63.248C33.9983 63.248 34.7524 64.1916 35.8897 65.8059C37.0269 67.4203 36.8583 68.4036 36.8583 68.4036L36.5518 70.1742Z" fill="#92E3A9"/>
                    <path d="M33.4864 75.9692C32.5348 74.9811 31.6674 73.9154 30.893 72.7833C29.8508 71.1873 30.9329 69.043 30.9329 69.043C30.9329 69.043 31.6839 69.9865 32.8242 71.6009C33.9646 73.2152 33.7929 74.1986 33.7929 74.1986L33.4864 75.9692Z" fill="#92E3A9"/>
                    <path d="M35.9751 71.7876C37.2655 71.3125 38.5134 70.7294 39.7057 70.0446C41.3395 69.0521 41.2935 66.6504 41.2935 66.6504C41.2935 66.6504 40.2114 67.1773 38.4826 68.1361C36.7537 69.0949 36.4809 70.063 36.4809 70.063L35.9751 71.7876Z" fill="#92E3A9"/>
                    <path d="M32.1343 78.5666C33.4634 78.227 34.7616 77.7762 36.015 77.2188C37.7439 76.407 37.9523 74.0176 37.9523 74.0176C37.9523 74.0176 36.8212 74.4158 35.0004 75.2C33.1796 75.9842 32.7995 76.8879 32.7995 76.8879L32.1343 78.5666Z" fill="#92E3A9"/>
                    <path d="M31.5732 86.6638C32.8022 86.0485 33.9773 85.3313 35.0862 84.5195C36.6188 83.3646 36.3123 80.9844 36.3123 80.9844C36.3123 80.9844 35.2854 81.6185 33.67 82.755C32.0545 83.8915 31.8828 84.8809 31.8828 84.8809L31.5732 86.6638Z" fill="#92E3A9"/>
                    <path d="M30.9755 88.53C30.1759 87.4156 29.4695 86.2373 28.8634 85.0071C28.0603 83.2764 29.4366 81.3066 29.4366 81.3066C29.4366 81.3066 30.0497 82.3482 30.9417 84.1096C31.8338 85.871 31.5334 86.8206 31.5334 86.8206L30.9755 88.53Z" fill="#92E3A9"/>
                    <path d="M28.9804 96.5341C27.7887 95.8532 26.6557 95.0745 25.5931 94.206C24.1432 92.9807 24.5754 90.6035 24.5754 90.6035C24.5754 90.6035 25.5625 91.2958 27.1105 92.5273C28.6585 93.7587 28.775 94.7482 28.775 94.7482L28.9804 96.5341Z" fill="#92E3A9"/>
                    <path d="M28.8696 94.0676C30.0968 93.455 31.2717 92.7429 32.3825 91.9385C33.9152 90.7806 33.6087 88.4004 33.6087 88.4004C33.6087 88.4004 32.5879 89.0376 30.9694 90.171C29.3509 91.3044 29.1823 92.297 29.1823 92.297L28.8696 94.0676Z" fill="#92E3A9"/>
                    <path d="M29.354 99.4468C30.3897 98.5466 31.3465 97.5597 32.214 96.4968C33.3911 94.9927 32.4991 92.7656 32.4991 92.7656C32.4991 92.7656 31.6684 93.6387 30.3932 95.1489C29.118 96.6591 29.2038 97.6578 29.2038 97.6578L29.354 99.4468Z" fill="#92E3A9"/>
                    <path d="M29.734 102.588C29.734 102.588 28.8511 96.3598 28.8634 94.1175C28.8757 91.8751 30.4758 90.2883 31.4475 87.0902C32.4192 83.8921 31.4475 80.3508 32.4192 77.9002C33.391 75.4495 35.0646 73.878 36.0977 71.1608C36.4605 70.1814 36.7676 69.1821 37.0173 68.168" stroke="#263238" stroke-linecap="round" stroke-linejoin="round"/>
                    <path d="M38.0354 69.8281L36.3525 70.7104" stroke="#263238" stroke-linecap="round" stroke-linejoin="round"/>
                    <path d="M36.2207 68.2012L36.6499 69.4112" stroke="#263238" stroke-linecap="round" stroke-linejoin="round"/>
                    <path d="M35.3623 76.3672C33.9339 77.0871 32.5269 77.8039 32.5269 77.8039" stroke="#263238" stroke-linecap="round" stroke-linejoin="round"/>
                    <path d="M31.8584 72.2109C32.5294 73.4043 33.0748 74.6639 33.4861 75.9696" stroke="#263238" stroke-linecap="round" stroke-linejoin="round"/>
                    <path d="M34.9605 83.2031C33.7249 84.0727 32.6212 85.1157 31.6836 86.3002" stroke="#263238" stroke-linecap="round" stroke-linejoin="round"/>
                    <path d="M29.6821 83.5C29.6821 83.5 29.7557 83.6532 30.2952 84.854C30.6808 85.7542 30.9885 86.6858 31.2148 87.6386" stroke="#263238" stroke-linecap="round" stroke-linejoin="round"/>
                    <path d="M25.9609 92.9199C26.3261 93.2889 26.7185 93.6299 27.135 93.94C27.7938 94.5095 28.4001 95.1369 28.9466 95.8148" stroke="#263238" stroke-linecap="round" stroke-linejoin="round"/>
                    <path d="M32.1618 90.3945C31.5249 90.8964 30.9293 91.4485 30.3809 92.0457C29.8249 92.6963 29.3196 93.3886 28.8696 94.1165" stroke="#263238" stroke-linecap="round" stroke-linejoin="round"/>
                    <path d="M31.9442 94.7324C31.6132 95.2103 30.7978 96.4142 30.105 97.3332C29.6731 97.9595 29.414 98.6886 29.354 99.4469" stroke="#263238" stroke-linecap="round" stroke-linejoin="round"/>
                    <path opacity="0.2" d="M22.4634 50.2776C24.2015 49.0037 25.8298 47.5866 27.3312 46.041C29.3727 43.8262 28.2723 40.2207 28.2723 40.2207C28.2723 40.2207 26.8591 41.4767 24.6612 43.67C22.4634 45.8634 22.4634 47.4349 22.4634 47.4349V50.2776Z" fill="black"/>
                    <path opacity="0.2" d="M25.6543 60.062C27.3939 58.7899 29.0223 57.3726 30.5221 55.8254C32.5606 53.629 31.4632 50.0234 31.4632 50.0234C31.4632 50.0234 30.05 51.2763 27.8522 53.4727C25.6543 55.6692 25.6543 57.2376 25.6543 57.2376V60.062Z" fill="black"/>
                    <path opacity="0.2" d="M22.8984 52.9081C21.0365 51.8229 19.2678 50.5851 17.6107 49.2076C15.3484 47.2348 16.0596 43.5312 16.0596 43.5312C16.0596 43.5312 17.5923 44.6432 20.017 46.5946C22.4417 48.5459 22.6011 50.1113 22.6011 50.1113L22.8984 52.9081Z" fill="black"/>
                    <path opacity="0.2" d="M27.052 64.4456C25.0868 63.5628 23.1982 62.5187 21.4056 61.3241C18.9533 59.5994 19.2598 55.8438 19.2598 55.8438C19.2598 55.8438 20.9029 56.7628 23.5146 58.4629C26.1263 60.1631 26.4542 61.6825 26.4542 61.6825L27.052 64.4456Z" fill="black"/>
                    <path opacity="0.2" d="M25.7306 77.1398C23.9938 75.8653 22.3657 74.4493 20.8628 72.9063C18.8212 70.6945 19.9248 67.0859 19.9248 67.0859C19.9248 67.0859 21.3379 68.3388 23.5358 70.5353C25.7336 72.7317 25.7336 74.3062 25.7336 74.3062L25.7306 77.1398Z" fill="black"/>
                    <path opacity="0.2" d="M27.9346 89.3343C26.1978 88.0588 24.5696 86.6418 23.0668 85.0977C21.0253 82.9013 22.1258 79.2773 22.1258 79.2773C22.1258 79.2773 23.5389 80.5272 25.7368 82.7267C27.9346 84.9261 27.9346 86.4976 27.9346 86.4976V89.3343Z" fill="black"/>
                    <path opacity="0.2" d="M36.5518 70.1742C35.601 69.1855 34.7336 68.1199 33.9585 66.9884C32.9162 65.3924 33.9983 63.248 33.9983 63.248C33.9983 63.248 34.7524 64.1916 35.8897 65.8059C37.0269 67.4203 36.8583 68.4036 36.8583 68.4036L36.5518 70.1742Z" fill="black"/>
                    <path opacity="0.2" d="M32.8241 71.6008C31.6838 69.9865 30.9328 69.043 30.9328 69.043C30.8177 69.2858 30.7233 69.5379 30.6507 69.7965C30.5588 69.5515 30.4913 69.4075 30.4913 69.4075C30.4913 69.4075 29.2652 70.8534 27.4076 73.3408C25.55 75.8283 25.7676 77.3783 25.7676 77.3783L26.1661 80.1782C27.7076 78.666 29.1186 77.0264 30.3841 75.2769C30.8177 74.6393 31.0795 73.9007 31.1443 73.1325C31.8525 74.1345 32.6354 75.0817 33.4862 75.9661L33.7928 74.1955C33.7928 74.1955 33.9644 73.2122 32.8241 71.6008Z" fill="black"/>
                    <path opacity="0.2" d="M35.9751 71.7876C37.2655 71.3125 38.5134 70.7294 39.7057 70.0446C41.3395 69.0521 41.2935 66.6504 41.2935 66.6504C41.2935 66.6504 40.2114 67.1773 38.4826 68.1361C36.7537 69.0949 36.4809 70.063 36.4809 70.063L35.9751 71.7876Z" fill="black"/>
                    <path opacity="0.2" d="M32.1343 78.5666C33.4634 78.227 34.7616 77.7762 36.015 77.2188C37.7439 76.407 37.9523 74.0176 37.9523 74.0176C37.9523 74.0176 36.8212 74.4158 35.0004 75.2C33.1796 75.9842 32.7995 76.8879 32.7995 76.8879L32.1343 78.5666Z" fill="black"/>
                    <path opacity="0.2" d="M31.5732 86.6638C32.8022 86.0485 33.9773 85.3313 35.0862 84.5195C36.6188 83.3646 36.3123 80.9844 36.3123 80.9844C36.3123 80.9844 35.2854 81.6185 33.67 82.755C32.0545 83.8915 31.8828 84.8809 31.8828 84.8809L31.5732 86.6638Z" fill="black"/>
                    <path opacity="0.2" d="M30.9755 88.53C30.1759 87.4156 29.4695 86.2373 28.8634 85.0071C28.0603 83.2764 29.4366 81.3066 29.4366 81.3066C29.4366 81.3066 30.0497 82.3482 30.9417 84.1096C31.8338 85.871 31.5334 86.8206 31.5334 86.8206L30.9755 88.53Z" fill="black"/>
                    <path opacity="0.2" d="M28.9802 96.5349L28.7748 94.749C28.7748 94.749 28.6584 93.7564 27.1104 92.528C26.6046 92.1237 26.157 91.7775 25.7861 91.4957C25.6482 91.2108 25.4796 90.9045 25.3018 90.5767C23.7323 87.9177 22.684 86.334 22.684 86.334C22.684 86.334 20.7068 89.5474 22.1261 92.185C23.1843 94.0558 24.3962 95.8356 25.7493 97.506L26.4482 94.8746C27.2576 95.4791 28.1031 96.0335 28.9802 96.5349Z" fill="black"/>
                    <path opacity="0.2" d="M28.8696 94.0676C30.0968 93.455 31.2717 92.7429 32.3825 91.9385C33.9152 90.7806 33.6087 88.4004 33.6087 88.4004C33.6087 88.4004 32.5879 89.0376 30.9694 90.171C29.3509 91.3044 29.1823 92.297 29.1823 92.297L28.8696 94.0676Z" fill="black"/>
                    <path opacity="0.2" d="M29.354 99.4468C30.3897 98.5466 31.3465 97.5597 32.214 96.4968C33.3911 94.9927 32.4991 92.7656 32.4991 92.7656C32.4991 92.7656 31.6684 93.6387 30.3932 95.1489C29.118 96.6591 29.2038 97.6578 29.2038 97.6578L29.354 99.4468Z" fill="black"/>
                    <path d="M114.378 9H21.5801V58.6566H114.378V9Z" fill="#263238"/>
                    <path d="M111.938 11.6504H24.0996V56.2311H111.938V11.6504Z" fill="white"/>
                    <path d="M50.5967 14.7031V50.0601" stroke="#263238" stroke-linecap="round" stroke-linejoin="round"/>
                    <path d="M80.4966 14.7031V51.2701" stroke="#263238" stroke-linecap="round" stroke-linejoin="round"/>
                    <path d="M31.7695 21.8867H101.482" stroke="#263238" stroke-linecap="round" stroke-linejoin="round"/>
                    <path d="M36.2019 16.5086H35.2148V16.043H37.7376V16.5086H36.7537V19.0113H36.2019V16.5086Z" fill="#263238"/>
                    <path d="M37.6854 17.8799C37.6763 17.6393 37.7393 17.4014 37.8665 17.1969C37.9936 16.9924 38.1791 16.8306 38.399 16.7322C38.6189 16.6339 38.8632 16.6035 39.1005 16.645C39.3378 16.6865 39.5573 16.798 39.7307 16.9651C39.9041 17.1323 40.0236 17.3474 40.0737 17.5829C40.1238 17.8184 40.1023 18.0635 40.0119 18.2867C39.9215 18.5099 39.7664 18.7009 39.5665 18.8353C39.3666 18.9697 39.1311 19.0413 38.8901 19.0409C38.7333 19.0493 38.5765 19.0254 38.4294 18.9706C38.2822 18.9158 38.148 18.8313 38.035 18.7224C37.9219 18.6134 37.8326 18.4824 37.7724 18.3375C37.7123 18.1925 37.6827 18.0367 37.6854 17.8799ZM39.5676 17.8799C39.561 17.7483 39.516 17.6216 39.4381 17.5154C39.3603 17.4091 39.253 17.328 39.1295 17.282C39.006 17.2361 38.8717 17.2272 38.7433 17.2567C38.6149 17.2861 38.4979 17.3525 38.4068 17.4477C38.3157 17.5428 38.2545 17.6626 38.2307 17.7921C38.207 17.9216 38.2217 18.0553 38.2731 18.1765C38.3245 18.2978 38.4104 18.4013 38.52 18.4744C38.6297 18.5474 38.7584 18.5867 38.8901 18.5875C38.9824 18.5898 39.0741 18.5729 39.1594 18.5378C39.2447 18.5026 39.3217 18.4501 39.3855 18.3834C39.4493 18.3168 39.4984 18.2376 39.5298 18.1509C39.5612 18.0642 39.574 17.9718 39.5676 17.8799Z" fill="#263238"/>
                    <path d="M44.0061 15.8627V19.0118H43.4973V18.7054C43.4038 18.8105 43.2876 18.8927 43.1574 18.9458C43.0272 18.9989 42.8865 19.0215 42.7462 19.0118C42.4381 19.0118 42.1426 18.8895 41.9247 18.6717C41.7069 18.454 41.5845 18.1587 41.5845 17.8508C41.5845 17.5429 41.7069 17.2475 41.9247 17.0298C42.1426 16.8121 42.4381 16.6898 42.7462 16.6898C42.883 16.6833 43.0195 16.7075 43.1457 16.7605C43.2719 16.8135 43.3847 16.894 43.4758 16.9961V15.832L44.0061 15.8627ZM43.485 17.8814C43.479 17.749 43.4342 17.6212 43.3562 17.514C43.2782 17.4068 43.1705 17.3248 43.0463 17.2782C42.9221 17.2316 42.7869 17.2225 42.6576 17.252C42.5283 17.2815 42.4104 17.3482 42.3187 17.444C42.227 17.5398 42.1655 17.6604 42.1418 17.7908C42.118 17.9212 42.1331 18.0558 42.1851 18.1777C42.2372 18.2996 42.3239 18.4036 42.4346 18.4767C42.5452 18.5498 42.6749 18.5889 42.8076 18.589C42.8997 18.5909 42.9912 18.5737 43.0763 18.5384C43.1613 18.5031 43.2382 18.4505 43.3019 18.384C43.3655 18.3174 43.4147 18.2384 43.4462 18.1519C43.4778 18.0654 43.491 17.9733 43.485 17.8814Z" fill="#263238"/>
                    <path d="M44.5185 17.8799C44.5093 17.6393 44.5723 17.4014 44.6995 17.1969C44.8266 16.9924 45.0121 16.8306 45.232 16.7322C45.4519 16.6339 45.6962 16.6035 45.9335 16.645C46.1708 16.6865 46.3903 16.798 46.5637 16.9651C46.7371 17.1323 46.8566 17.3474 46.9067 17.5829C46.9568 17.8184 46.9353 18.0635 46.8449 18.2867C46.7545 18.5099 46.5994 18.7009 46.3995 18.8353C46.1996 18.9697 45.9641 19.0413 45.7231 19.0409C45.5664 19.0493 45.4095 19.0254 45.2624 18.9706C45.1152 18.9158 44.981 18.8313 44.868 18.7224C44.7549 18.6134 44.6656 18.4824 44.6054 18.3375C44.5453 18.1925 44.5157 18.0367 44.5185 17.8799ZM46.4006 17.8799C46.394 17.7483 46.349 17.6216 46.2711 17.5154C46.1933 17.4091 46.086 17.328 45.9625 17.282C45.839 17.2361 45.7047 17.2272 45.5763 17.2567C45.4479 17.2861 45.3309 17.3525 45.2398 17.4477C45.1487 17.5428 45.0875 17.6626 45.0637 17.7921C45.04 17.9216 45.0547 18.0553 45.1061 18.1765C45.1576 18.2978 45.2434 18.4013 45.3531 18.4744C45.4627 18.5474 45.5914 18.5867 45.7231 18.5875C45.8154 18.5898 45.9071 18.5729 45.9924 18.5378C46.0777 18.5026 46.1547 18.4501 46.2185 18.3834C46.2823 18.3168 46.3314 18.2376 46.3628 18.1509C46.3942 18.0642 46.407 17.9718 46.4006 17.8799Z" fill="#263238"/>
                    <path d="M59.4067 16.043H60.6942C61.6598 16.043 62.3189 16.6373 62.3189 17.5287C62.3189 18.4201 61.6598 19.0113 60.6942 19.0113H59.4067V16.043ZM60.6942 18.5457C60.8327 18.5533 60.9714 18.5326 61.1017 18.4848C61.2319 18.4371 61.3511 18.3633 61.4519 18.268C61.5526 18.1726 61.6329 18.0578 61.6877 17.9304C61.7426 17.803 61.7709 17.6658 61.7709 17.5272C61.7709 17.3885 61.7426 17.2513 61.6877 17.1239C61.6329 16.9965 61.5526 16.8817 61.4519 16.7863C61.3511 16.691 61.2319 16.6172 61.1017 16.5695C60.9714 16.5217 60.8327 16.501 60.6942 16.5086H59.9738V18.5457H60.6942Z" fill="#263238"/>
                    <path d="M62.6806 17.8799C62.6714 17.6394 62.7344 17.4017 62.8614 17.1973C62.9884 16.9928 63.1737 16.831 63.3934 16.7326C63.6131 16.6341 63.8572 16.6036 64.0945 16.6448C64.3317 16.6861 64.5512 16.7972 64.7247 16.9641C64.8982 17.1309 65.0179 17.3457 65.0684 17.581C65.1188 17.8163 65.0977 18.0613 65.0078 18.2845C64.9179 18.5078 64.7633 18.6991 64.5638 18.8338C64.3643 18.9686 64.1291 19.0407 63.8883 19.0409C63.7313 19.0497 63.5741 19.0261 63.4266 18.9715C63.2791 18.9169 63.1445 18.8325 63.0311 18.7235C62.9178 18.6146 62.8281 18.4834 62.7678 18.3382C62.7075 18.1931 62.6778 18.037 62.6806 17.8799ZM64.5627 17.8799C64.5561 17.7482 64.511 17.6214 64.433 17.5151C64.355 17.4088 64.2475 17.3276 64.1239 17.2818C64.0002 17.2359 63.8658 17.2272 63.7373 17.2569C63.6088 17.2866 63.4918 17.3533 63.4008 17.4488C63.3098 17.5442 63.2489 17.6642 63.2255 17.794C63.2021 17.9237 63.2173 18.0574 63.2691 18.1786C63.321 18.2998 63.4073 18.4032 63.5174 18.4758C63.6274 18.5485 63.7564 18.5873 63.8883 18.5875C63.9804 18.5899 64.072 18.573 64.1572 18.5378C64.2423 18.5026 64.3192 18.45 64.3827 18.3833C64.4463 18.3166 64.4951 18.2374 64.5261 18.1506C64.5571 18.0639 64.5696 17.9717 64.5627 17.8799Z" fill="#263238"/>
                    <path d="M65.5376 16.0543C65.5374 16.0113 65.5462 15.9688 65.5635 15.9295C65.5808 15.8902 65.6061 15.855 65.6379 15.8261C65.6697 15.7972 65.7073 15.7753 65.7481 15.7619C65.7889 15.7484 65.832 15.7437 65.8748 15.748C65.9178 15.7432 65.9613 15.7476 66.0025 15.7608C66.0437 15.7741 66.0816 15.7959 66.1137 15.8248C66.1458 15.8538 66.1715 15.8892 66.189 15.9287C66.2064 15.9683 66.2153 16.0111 66.2151 16.0543C66.207 16.1385 66.1679 16.2167 66.1052 16.2736C66.0426 16.3305 65.961 16.3621 65.8763 16.3621C65.7917 16.3621 65.7101 16.3305 65.6474 16.2736C65.5848 16.2167 65.5456 16.1385 65.5376 16.0543ZM65.6081 16.7466H66.1384V19.0104H65.5989L65.6081 16.7466Z" fill="#263238"/>
                    <path d="M69.0721 17.7125V19.0113H68.5387V17.786C68.5387 17.3816 68.3395 17.1733 67.9992 17.1733C67.9109 17.1701 67.8229 17.186 67.7413 17.2199C67.6597 17.2538 67.5864 17.305 67.5264 17.3699C67.4664 17.4347 67.4212 17.5118 67.3938 17.5958C67.3664 17.6798 67.3575 17.7687 67.3678 17.8565V19.0021H66.8252V16.7475H67.331V17.0539C67.4306 16.9483 67.5523 16.8662 67.6875 16.8132C67.8226 16.7602 67.9678 16.7378 68.1127 16.7475C68.242 16.7362 68.3723 16.7534 68.4943 16.798C68.6163 16.8425 68.727 16.9134 68.8185 17.0054C68.9101 17.0975 68.9803 17.2086 69.0241 17.3308C69.0679 17.4529 69.0843 17.5833 69.0721 17.7125Z" fill="#263238"/>
                    <path d="M72.036 16.7479V18.6686C72.036 19.4926 71.6069 19.8664 70.8099 19.8664C70.4175 19.8866 70.0292 19.7791 69.7033 19.56L69.9424 19.1587C70.1836 19.3393 70.4778 19.4352 70.7792 19.4314C71.2789 19.4314 71.4996 19.2016 71.4996 18.7452V18.6257C71.4019 18.7277 71.2835 18.8078 71.1525 18.8606C71.0214 18.9134 70.8806 18.9378 70.7394 18.932C70.5906 18.9399 70.4417 18.9174 70.3019 18.8659C70.1621 18.8145 70.0343 18.7351 69.9262 18.6326C69.8181 18.5301 69.732 18.4067 69.6732 18.2699C69.6143 18.1331 69.584 17.9858 69.584 17.8369C69.584 17.688 69.6143 17.5407 69.6732 17.4039C69.732 17.2671 69.8181 17.1437 69.9262 17.0412C70.0343 16.9388 70.1621 16.8594 70.3019 16.8079C70.4417 16.7564 70.5906 16.7339 70.7394 16.7418C70.8868 16.7342 71.0341 16.7598 71.1704 16.8165C71.3067 16.8732 71.4286 16.9597 71.5272 17.0695V16.7632L72.036 16.7479ZM71.5118 17.8109C71.5198 17.6737 71.4865 17.5372 71.4162 17.4191C71.3459 17.3009 71.2419 17.2064 71.1175 17.1478C70.9931 17.0892 70.8541 17.069 70.7181 17.09C70.5822 17.1109 70.4556 17.172 70.3547 17.2654C70.2538 17.3588 70.1831 17.4802 70.1517 17.614C70.1204 17.7478 70.1298 17.8879 70.1787 18.0164C70.2276 18.1448 70.3139 18.2557 70.4263 18.3348C70.5388 18.4139 70.6724 18.4576 70.8099 18.4603C70.8987 18.4672 70.9879 18.4554 71.0719 18.4257C71.1559 18.3959 71.2327 18.349 71.2973 18.2878C71.362 18.2266 71.4132 18.1526 71.4475 18.0704C71.4818 17.9883 71.4985 17.8999 71.4965 17.8109H71.5118Z" fill="#263238"/>
                    <path d="M87.6265 16.043H88.9262C89.8887 16.043 90.5478 16.6373 90.5478 17.5287C90.5478 18.4201 89.8887 19.0113 88.9262 19.0113H87.6265V16.043ZM88.8955 18.5457C89.0341 18.5533 89.1727 18.5326 89.303 18.4848C89.4333 18.4371 89.5524 18.3633 89.6532 18.268C89.754 18.1726 89.8342 18.0578 89.8891 17.9304C89.9439 17.803 89.9722 17.6658 89.9722 17.5272C89.9722 17.3885 89.9439 17.2513 89.8891 17.1239C89.8342 16.9965 89.754 16.8817 89.6532 16.7863C89.5524 16.691 89.4333 16.6172 89.303 16.5695C89.1727 16.5217 89.0341 16.501 88.8955 16.5086H88.1752V18.5457H88.8955Z" fill="#263238"/>
                    <path d="M90.8975 17.8801C90.8877 17.6388 90.9504 17.4001 91.0775 17.1947C91.2046 16.9893 91.3903 16.8266 91.6107 16.7276C91.831 16.6285 92.076 16.5976 92.3142 16.6389C92.5523 16.6801 92.7726 16.7916 92.9467 16.9591C93.1209 17.1265 93.2409 17.3421 93.2914 17.5783C93.3419 17.8145 93.3205 18.0603 93.23 18.2843C93.1395 18.5082 92.984 18.6999 92.7836 18.8348C92.5831 18.9697 92.3469 19.0415 92.1052 19.0411C91.9482 19.05 91.791 19.0264 91.6435 18.9718C91.496 18.9172 91.3614 18.8328 91.248 18.7238C91.1347 18.6148 91.045 18.4837 90.9847 18.3385C90.9244 18.1933 90.8947 18.0373 90.8975 17.8801ZM92.7796 17.8801C92.773 17.7485 92.7279 17.6216 92.6499 17.5153C92.5719 17.409 92.4645 17.3279 92.3408 17.282C92.2171 17.2361 92.0827 17.2275 91.9542 17.2572C91.8257 17.2869 91.7087 17.3536 91.6177 17.449C91.5268 17.5445 91.4658 17.6645 91.4424 17.7942C91.419 17.924 91.4342 18.0577 91.4861 18.1789C91.5379 18.3001 91.6243 18.4034 91.7343 18.4761C91.8444 18.5488 91.9733 18.5876 92.1052 18.5877C92.1974 18.5901 92.289 18.5732 92.3741 18.5381C92.4593 18.5029 92.5361 18.4503 92.5997 18.3836C92.6632 18.3169 92.7121 18.2376 92.7431 18.1509C92.7741 18.0642 92.7865 17.9719 92.7796 17.8801Z" fill="#263238"/>
                    <path d="M96.0594 17.7115V19.0103H95.5291V17.785C95.5291 17.3806 95.3298 17.1723 94.9895 17.1723C94.901 17.1686 94.8126 17.1842 94.7306 17.2179C94.6486 17.2516 94.575 17.3027 94.5146 17.3677C94.4543 17.4326 94.4088 17.5098 94.3812 17.5941C94.3537 17.6783 94.3447 17.7675 94.355 17.8555V19.0011H93.8247V16.7465H94.3305V17.0529C94.4302 16.9475 94.552 16.8655 94.6871 16.8125C94.8222 16.7596 94.9673 16.737 95.1122 16.7465C95.2406 16.7371 95.3695 16.7557 95.4899 16.8011C95.6104 16.8465 95.7195 16.9176 95.8097 17.0095C95.8999 17.1013 95.9689 17.2117 96.012 17.333C96.0551 17.4542 96.0713 17.5834 96.0594 17.7115Z" fill="#263238"/>
                    <path d="M98.8827 18.0491H97.1017C97.1363 18.2139 97.2305 18.3603 97.3661 18.4603C97.5018 18.5603 97.6695 18.6069 97.8374 18.5913C97.951 18.5954 98.0643 18.5757 98.1699 18.5335C98.2754 18.4913 98.371 18.4275 98.4505 18.3462L98.7355 18.674C98.5639 18.847 98.3462 18.9672 98.1082 19.0203C97.8703 19.0735 97.6221 19.0573 97.3931 18.9738C97.164 18.8904 96.9637 18.743 96.8159 18.5492C96.6681 18.3555 96.579 18.1234 96.5591 17.8806C96.5544 17.7261 96.5815 17.5722 96.6388 17.4286C96.6961 17.285 96.7823 17.1547 96.8921 17.0458C97.002 16.9369 97.133 16.8518 97.2772 16.7956C97.4213 16.7395 97.5755 16.7136 97.7301 16.7196C97.8846 16.7137 98.0386 16.7403 98.1822 16.7975C98.3258 16.8548 98.4558 16.9415 98.5638 17.052C98.6718 17.1626 98.7554 17.2945 98.8093 17.4393C98.8632 17.5841 98.8861 17.7386 98.8765 17.8928C98.8888 17.9357 98.8857 17.997 98.8827 18.0491ZM97.0986 17.6968H98.3983C98.3768 17.5414 98.2998 17.3991 98.1815 17.2961C98.0632 17.1931 97.9115 17.1364 97.7546 17.1364C97.5977 17.1364 97.4461 17.1931 97.3277 17.2961C97.2094 17.3991 97.1324 17.5414 97.1109 17.6968H97.0986Z" fill="#263238"/>
                    <path d="M32.735 26.5017C32.735 26.5017 31.8828 28.3213 33.1243 30.5483L36.3766 30.1746C36.3766 30.1746 35.8463 27.1817 35.8739 26.0605L32.735 26.5017Z" fill="#92E3A9" stroke="#263238" stroke-miterlimit="10"/>
                    <path d="M32.7349 26.3117L35.8738 26.0605C36.0119 27.1504 36.2763 28.2206 36.6616 29.2495L33.4828 29.6477C33.0945 28.5715 32.8432 27.4507 32.7349 26.3117Z" fill="white" stroke="#263238" stroke-miterlimit="10"/>
                    <path d="M37.333 32.2071L40.4719 31.959C40.6102 33.0478 40.8746 34.117 41.2597 35.1449L38.081 35.5339C37.6948 34.4602 37.4436 33.3427 37.333 32.2071Z" fill="#92E3A9" stroke="#263238" stroke-miterlimit="10"/>
                    <path d="M38.2065 38.3751L41.3485 38.127C41.4851 39.2158 41.7485 40.285 42.1333 41.3128L38.9545 41.7111C38.5676 40.6344 38.3164 39.5138 38.2065 38.3751Z" fill="white" stroke="#263238" stroke-miterlimit="10"/>
                    <path d="M41.6123 26.2872L45.1283 26.0605C45.1053 27.3348 45.3077 28.6031 45.726 29.807L42.2438 30.2114C42.2438 30.2114 41.6123 29.2587 41.6123 26.2872Z" fill="white" stroke="#263238" stroke-miterlimit="10"/>
                    <path d="M42.1333 25.7314L45.6493 25.5078C45.6312 26.783 45.8388 28.0513 46.2624 29.2543L42.7801 29.6586C42.7801 29.6586 42.1333 28.6937 42.1333 25.7314Z" fill="#92E3A9" stroke="#263238" stroke-miterlimit="10"/>
                    <path d="M44.9043 26.5256C44.9047 26.5522 44.8997 26.5787 44.8897 26.6034C44.8797 26.6281 44.8648 26.6506 44.8459 26.6694C44.8271 26.6883 44.8046 26.7032 44.7799 26.7132C44.7551 26.7232 44.7286 26.7281 44.702 26.7277C44.6751 26.7281 44.6485 26.7232 44.6236 26.7132C44.5987 26.7033 44.576 26.6884 44.5569 26.6696C44.5378 26.6508 44.5226 26.6284 44.5123 26.6036C44.5019 26.5789 44.4966 26.5524 44.4966 26.5256C44.4966 26.4711 44.5182 26.4189 44.5567 26.3804C44.5952 26.3419 44.6475 26.3203 44.702 26.3203C44.7288 26.3203 44.7553 26.3256 44.7801 26.336C44.8048 26.3463 44.8273 26.3615 44.8461 26.3806C44.8649 26.3997 44.8798 26.4224 44.8898 26.4472C44.8997 26.4721 44.9047 26.4987 44.9043 26.5256Z" fill="#263238"/>
                    <path d="M35.2514 26.9318C35.2519 26.9585 35.2469 26.9849 35.2369 27.0097C35.2269 27.0344 35.212 27.0568 35.1931 27.0757C35.1742 27.0945 35.1518 27.1094 35.127 27.1194C35.1023 27.1295 35.0758 27.1344 35.0491 27.134C35.0223 27.1344 34.9957 27.1295 34.9708 27.1195C34.9459 27.1095 34.9232 27.0947 34.9041 27.0759C34.885 27.057 34.8698 27.0346 34.8594 27.0099C34.8491 26.9852 34.8437 26.9586 34.8438 26.9318C34.8438 26.8774 34.8654 26.8252 34.9039 26.7867C34.9424 26.7482 34.9947 26.7266 35.0491 26.7266C35.076 26.7266 35.1025 26.7319 35.1273 26.7422C35.152 26.7526 35.1745 26.7678 35.1933 26.7869C35.2121 26.806 35.227 26.8286 35.2369 26.8535C35.2469 26.8784 35.2519 26.905 35.2514 26.9318Z" fill="#263238"/>
                    <path d="M39.0773 32.7502C39.0773 32.7908 39.0652 32.8304 39.0427 32.8642C39.0201 32.8979 38.988 32.9242 38.9505 32.9398C38.913 32.9553 38.8717 32.9594 38.8318 32.9515C38.792 32.9435 38.7554 32.924 38.7267 32.8953C38.6979 32.8666 38.6784 32.83 38.6705 32.7902C38.6625 32.7504 38.6666 32.7091 38.6821 32.6716C38.6977 32.6341 38.724 32.6021 38.7578 32.5795C38.7916 32.557 38.8313 32.5449 38.8719 32.5449C38.9264 32.5449 38.9786 32.5665 39.0171 32.605C39.0556 32.6435 39.0773 32.6957 39.0773 32.7502Z" fill="#263238"/>
                    <path d="M43.669 33.2712L46.6792 32.9648C46.7063 34.3241 46.9051 35.6745 47.2708 36.9839L44.1901 37.2566C44.1901 37.2566 43.6292 35.8413 43.669 33.2712Z" fill="white" stroke="#263238" stroke-miterlimit="10"/>
                    <path d="M30.678 34.1007C30.678 34.1007 29.2741 36.5697 30.865 39.0847L34.0622 38.711C34.0622 38.711 33.2376 35.807 33.7097 33.9414L30.678 34.1007Z" fill="white" stroke="#263238" stroke-miterlimit="10"/>
                    <path d="M30.6779 34.1007L33.7096 33.9414C33.7135 35.2138 33.8772 36.4807 34.197 37.7124L31.1469 38.1259C31.1469 38.1259 30.3622 37.1702 30.6779 34.1007Z" fill="#92E3A9" stroke="#263238" stroke-miterlimit="10"/>
                    <path d="M32.6524 34.6456C32.653 34.6864 32.6414 34.7265 32.6191 34.7607C32.5968 34.7949 32.5647 34.8217 32.5271 34.8376C32.4894 34.8535 32.4479 34.8579 32.4078 34.85C32.3676 34.8422 32.3308 34.8226 32.3019 34.7937C32.2729 34.7648 32.2533 34.728 32.2455 34.6879C32.2377 34.6478 32.242 34.6063 32.2579 34.5687C32.2738 34.531 32.3006 34.499 32.3349 34.4767C32.3691 34.4544 32.4092 34.4428 32.4501 34.4434C32.5038 34.4434 32.5552 34.4647 32.5932 34.5026C32.6311 34.5405 32.6524 34.5919 32.6524 34.6456Z" fill="#263238"/>
                    <path d="M46.1338 33.751C46.1338 33.8055 46.1122 33.8577 46.0736 33.8962C46.0351 33.9346 45.9829 33.9563 45.9284 33.9563C45.9016 33.9563 45.875 33.9509 45.8503 33.9406C45.8255 33.9302 45.8031 33.9151 45.7843 33.896C45.7654 33.8769 45.7506 33.8542 45.7406 33.8293C45.7306 33.8045 45.7257 33.7778 45.7261 33.751C45.7257 33.7244 45.7306 33.6979 45.7407 33.6732C45.7507 33.6485 45.7656 33.626 45.7844 33.6071C45.8033 33.5883 45.8258 33.5734 45.8505 33.5634C45.8752 33.5534 45.9017 33.5484 45.9284 33.5489C45.9552 33.5484 45.9819 33.5534 46.0068 33.5634C46.0317 33.5733 46.0543 33.5882 46.0735 33.607C46.0926 33.6258 46.1077 33.6482 46.1181 33.6729C46.1285 33.6977 46.1338 33.7242 46.1338 33.751Z" fill="#263238"/>
                    <path d="M40.9502 38.8794C40.9538 38.9083 40.9512 38.9376 40.9425 38.9653C40.9339 38.9931 40.9195 39.0187 40.9002 39.0405C40.8809 39.0622 40.8573 39.0797 40.8307 39.0916C40.8042 39.1035 40.7755 39.1097 40.7464 39.1097C40.7173 39.1097 40.6886 39.1035 40.662 39.0916C40.6355 39.0797 40.6118 39.0622 40.5926 39.0405C40.5733 39.0187 40.5589 38.9931 40.5503 38.9653C40.5416 38.9376 40.539 38.9083 40.5425 38.8794C40.5487 38.8297 40.5728 38.7839 40.6103 38.7507C40.6479 38.7175 40.6963 38.6992 40.7464 38.6992C40.7965 38.6992 40.8449 38.7175 40.8825 38.7507C40.92 38.7839 40.9441 38.8297 40.9502 38.8794Z" fill="#263238"/>
                    <path d="M56.2954 35.3477L59.4374 35.0996C59.574 36.1888 59.8384 37.2581 60.2252 38.2855L57.0434 38.6868C56.6568 37.609 56.4056 36.4874 56.2954 35.3477Z" fill="#92E3A9" stroke="#263238" stroke-miterlimit="10"/>
                    <path d="M57.0986 42.7266L60.2376 42.4785C60.3758 43.5674 60.6402 44.6365 61.0254 45.6644L57.8466 46.0626C57.4582 44.9864 57.2069 43.8656 57.0986 42.7266Z" fill="white" stroke="#263238" stroke-miterlimit="10"/>
                    <path d="M68.0205 26.2872L71.5365 26.0605C71.5135 27.3348 71.7159 28.6031 72.1342 29.807L68.6642 30.2114C68.6642 30.2114 68.0205 29.2587 68.0205 26.2872Z" fill="white" stroke="#263238" stroke-miterlimit="10"/>
                    <path d="M68.5415 25.7314L72.0575 25.5078C72.034 26.7776 72.2342 28.0416 72.6491 29.242L69.1668 29.6464C69.1668 29.6464 68.5415 28.6937 68.5415 25.7314Z" fill="#92E3A9" stroke="#263238" stroke-miterlimit="10"/>
                    <path d="M71.3156 26.5256C71.3156 26.58 71.2939 26.6322 71.2554 26.6707C71.2169 26.7092 71.1646 26.7308 71.1102 26.7308C71.0557 26.7308 71.0035 26.7092 70.9649 26.6707C70.9264 26.6322 70.9048 26.58 70.9048 26.5256C70.9048 26.4711 70.9264 26.4189 70.9649 26.3804C71.0035 26.3419 71.0557 26.3203 71.1102 26.3203C71.1646 26.3203 71.2169 26.3419 71.2554 26.3804C71.2939 26.4189 71.3156 26.4711 71.3156 26.5256Z" fill="#263238"/>
                    <path d="M58.0395 35.8908C58.0399 35.9175 58.035 35.9439 58.025 35.9686C58.015 35.9934 58.0001 36.0158 57.9812 36.0347C57.9623 36.0535 57.9399 36.0684 57.9151 36.0784C57.8904 36.0884 57.8639 36.0934 57.8372 36.093C57.8104 36.0934 57.7838 36.0884 57.7589 36.0785C57.734 36.0685 57.7113 36.0537 57.6922 36.0348C57.6731 36.016 57.6579 35.9936 57.6475 35.9689C57.6372 35.9441 57.6318 35.9176 57.6318 35.8908C57.6318 35.8364 57.6535 35.7841 57.692 35.7457C57.7305 35.7072 57.7827 35.6855 57.8372 35.6855C57.864 35.6855 57.8906 35.6909 57.9154 35.7012C57.9401 35.7116 57.9625 35.7267 57.9814 35.7458C58.0002 35.7649 58.015 35.7876 58.025 35.8125C58.035 35.8374 58.0399 35.864 58.0395 35.8908Z" fill="#263238"/>
                    <path d="M63.2969 34.6852L66.3071 34.3789C66.3347 35.7373 66.5345 37.0868 66.9018 38.3949L63.8181 38.6706C63.8181 38.6706 63.2571 37.2431 63.2969 34.6852Z" fill="white" stroke="#263238" stroke-miterlimit="10"/>
                    <path d="M65.7613 35.1642C65.7613 35.2187 65.7397 35.2709 65.7012 35.3094C65.6626 35.3479 65.6104 35.3695 65.5559 35.3695C65.5153 35.3695 65.4756 35.3574 65.4419 35.3349C65.4081 35.3123 65.3818 35.2803 65.3662 35.2428C65.3507 35.2053 65.3466 35.164 65.3545 35.1242C65.3625 35.0844 65.382 35.0478 65.4107 35.0191C65.4395 34.9904 65.476 34.9708 65.5159 34.9629C65.5557 34.955 65.597 34.9591 65.6345 34.9746C65.6721 34.9901 65.7041 35.0164 65.7267 35.0502C65.7493 35.084 65.7613 35.1236 65.7613 35.1642Z" fill="#263238"/>
                    <path d="M59.2657 43.2701C59.2692 43.2989 59.2666 43.3282 59.258 43.3559C59.2493 43.3837 59.2349 43.4093 59.2156 43.4311C59.1964 43.4528 59.1727 43.4703 59.1462 43.4822C59.1197 43.4942 59.0909 43.5003 59.0618 43.5003C59.0327 43.5003 59.004 43.4942 58.9775 43.4822C58.951 43.4703 58.9273 43.4528 58.908 43.4311C58.8887 43.4093 58.8743 43.3837 58.8657 43.3559C58.8571 43.3282 58.8544 43.2989 58.858 43.2701C58.8641 43.2203 58.8882 43.1746 58.9257 43.1414C58.9633 43.1082 59.0117 43.0898 59.0618 43.0898C59.112 43.0898 59.1604 43.1082 59.1979 43.1414C59.2355 43.1746 59.2596 43.2203 59.2657 43.2701Z" fill="#263238"/>
                    <path d="M87.3628 26.3117L90.5017 26.0605C90.6398 27.1504 90.9042 28.2206 91.2895 29.2495L88.1107 29.6477C87.7224 28.5715 87.4711 27.4507 87.3628 26.3117Z" fill="#92E3A9" stroke="#263238" stroke-miterlimit="10"/>
                    <path d="M92.8315 38.3751L95.9735 38.127C96.1101 39.2161 96.3746 40.2854 96.7614 41.3128L93.5795 41.7111C93.1926 40.6344 92.9414 39.5138 92.8315 38.3751Z" fill="#92E3A9" stroke="#263238" stroke-miterlimit="10"/>
                    <path d="M96.7612 25.7314L100.277 25.5078C100.254 26.7818 100.455 28.0499 100.872 29.2543L97.3896 29.6586C97.3896 29.6586 96.7612 28.6937 96.7612 25.7314Z" fill="#92E3A9" stroke="#263238" stroke-miterlimit="10"/>
                    <path d="M99.5322 26.5256C99.5323 26.5524 99.5269 26.5789 99.5166 26.6036C99.5062 26.6284 99.491 26.6508 99.4719 26.6696C99.4528 26.6884 99.4301 26.7033 99.4052 26.7132C99.3803 26.7232 99.3537 26.7281 99.3269 26.7277C99.3002 26.7281 99.2737 26.7232 99.2489 26.7132C99.2242 26.7032 99.2017 26.6883 99.1829 26.6694C99.164 26.6506 99.1491 26.6281 99.1391 26.6034C99.1291 26.5787 99.1241 26.5522 99.1245 26.5256C99.1241 26.4987 99.1291 26.4721 99.139 26.4472C99.149 26.4224 99.1639 26.3997 99.1827 26.3806C99.2015 26.3615 99.224 26.3463 99.2487 26.336C99.2735 26.3256 99.3 26.3203 99.3269 26.3203C99.3813 26.3203 99.4336 26.3419 99.4721 26.3804C99.5106 26.4189 99.5322 26.4711 99.5322 26.5256Z" fill="#263238"/>
                    <path d="M89.8766 26.9318C89.8766 26.9862 89.8549 27.0384 89.8164 27.0769C89.7779 27.1154 89.7257 27.137 89.6712 27.137C89.6167 27.137 89.5645 27.1154 89.526 27.0769C89.4875 27.0384 89.4658 26.9862 89.4658 26.9318C89.4658 26.8774 89.4875 26.8252 89.526 26.7867C89.5645 26.7482 89.6167 26.7266 89.6712 26.7266C89.7257 26.7266 89.7779 26.7482 89.8164 26.7867C89.8549 26.8252 89.8766 26.8774 89.8766 26.9318Z" fill="#263238"/>
                    <path d="M85.3029 34.1007L88.3346 33.9414C88.3384 35.2138 88.5022 36.4807 88.8219 37.7124L85.7719 38.1259C85.7719 38.1259 84.9872 37.1702 85.3029 34.1007Z" fill="#92E3A9" stroke="#263238" stroke-miterlimit="10"/>
                    <path d="M87.2773 34.6456C87.2777 34.6724 87.2728 34.699 87.2628 34.7239C87.2528 34.7488 87.238 34.7714 87.2192 34.7905C87.2003 34.8096 87.1779 34.8248 87.1531 34.8351C87.1284 34.8455 87.1018 34.8508 87.075 34.8508C87.0205 34.8508 86.9683 34.8292 86.9298 34.7907C86.8913 34.7522 86.8696 34.7 86.8696 34.6456C86.8696 34.6188 86.875 34.5922 86.8853 34.5675C86.8957 34.5427 86.9108 34.5203 86.93 34.5015C86.9491 34.4827 86.9717 34.4679 86.9966 34.4579C87.0215 34.4479 87.0482 34.443 87.075 34.4434C87.1017 34.443 87.1282 34.4479 87.1529 34.4579C87.1776 34.4679 87.2001 34.4828 87.219 34.5017C87.2379 34.5205 87.2528 34.543 87.2628 34.5677C87.2728 34.5924 87.2777 34.6189 87.2773 34.6456Z" fill="#263238"/>
                    <path d="M95.5753 38.8799C95.5759 38.9208 95.5643 38.9609 95.5419 38.9951C95.5196 39.0293 95.4876 39.0561 95.4499 39.072C95.4123 39.0879 95.3707 39.0922 95.3306 39.0844C95.2905 39.0766 95.2536 39.057 95.2247 39.0281C95.1958 38.9992 95.1762 38.9624 95.1683 38.9223C95.1605 38.8822 95.1648 38.8407 95.1808 38.803C95.1967 38.7654 95.2235 38.7334 95.2577 38.7111C95.292 38.6888 95.3321 38.6772 95.373 38.6778C95.4266 38.6778 95.4781 38.6991 95.516 38.737C95.554 38.7749 95.5753 38.8263 95.5753 38.8799Z" fill="#263238"/>
                    <path opacity="0.2" d="M21.5801 9.25977L24.1029 11.6492V56.2299L21.5801 58.656V9.25977Z" fill="black"/>
                    <path opacity="0.2" d="M114.381 9V58.43L111.941 56.2305V11.6498L114.381 9Z" fill="black"/>
                    <path d="M54.2598 25.9648L60.8656 25.4961" stroke="#263238" stroke-linecap="round" stroke-linejoin="round"/>
                    <path d="M54.2598 27.166L60.8656 26.6973" stroke="#263238" stroke-linecap="round" stroke-linejoin="round"/>
                    <path d="M54.2598 28.3691L60.8656 27.9004" stroke="#263238" stroke-linecap="round" stroke-linejoin="round"/>
                    <path d="M70.5034 37.9513C70.81 36.8485 71.8154 36.0551 72.8852 35.6446C75.0861 34.7991 77.3055 35.6875 78.0963 37.9574C78.6726 39.6116 78.5408 41.7743 77.0112 42.8588C76.3544 43.296 75.6087 43.5821 74.8279 43.6966C74.0471 43.811 73.2506 43.7508 72.4959 43.5204C71.3617 43.1467 70.4023 42.0408 70.5249 40.8523" stroke="#263238" stroke-linecap="round" stroke-linejoin="round"/>
                    <path d="M77.0603 30.1992C76.6516 31.786 76.2633 33.3749 75.8955 34.9658" stroke="#263238" stroke-linecap="round" stroke-linejoin="round"/>
                    <path d="M74.8257 33.2305C75.0386 33.8908 75.3396 34.5193 75.7208 35.0991C76.3586 34.8551 76.9027 34.4154 77.2749 33.8431" stroke="#263238" stroke-linecap="round" stroke-linejoin="round"/>
                    <path d="M72.4897 38.2579L75.6287 38.0098C75.767 39.0986 76.0313 40.1677 76.4165 41.1956L73.2377 41.5969C72.8495 40.5196 72.5983 39.3978 72.4897 38.2579Z" fill="#92E3A9" stroke="#263238" stroke-miterlimit="10"/>
                    <path d="M74.2339 38.8009C74.2339 38.8278 74.2286 38.8543 74.2182 38.879C74.2079 38.9038 74.1927 38.9262 74.1736 38.945C74.1544 38.9638 74.1318 38.9786 74.1069 38.9886C74.082 38.9986 74.0553 39.0035 74.0285 39.0031C74.0018 39.0035 73.9753 38.9986 73.9506 38.9886C73.9259 38.9786 73.9034 38.9637 73.8845 38.9448C73.8657 38.926 73.8508 38.9035 73.8408 38.8788C73.8307 38.8541 73.8258 38.8276 73.8262 38.8009C73.8258 38.7741 73.8307 38.7475 73.8407 38.7226C73.8507 38.6977 73.8655 38.6751 73.8844 38.656C73.9032 38.6369 73.9256 38.6217 73.9504 38.6114C73.9751 38.601 74.0017 38.5957 74.0285 38.5957C74.083 38.5957 74.1352 38.6173 74.1737 38.6558C74.2123 38.6943 74.2339 38.7465 74.2339 38.8009Z" fill="#263238"/>
                    <path d="M48.6414 123.298C48.6841 123.489 48.7669 123.668 48.8842 123.823C49.0016 123.979 49.1508 124.108 49.322 124.202C50.5481 124.726 52.7552 123.896 54.3216 123.507C55.888 123.117 59.2752 121.944 59.5817 120.639C59.6359 120.447 59.6273 120.242 59.5572 120.054C59.2691 119.368 57.9632 119.426 57.1478 119.426C56.1455 119.426 53.7116 119.163 53.0157 118.859C52.3199 118.556 48.4545 120.425 48.4545 120.425C48.4545 120.425 48.2675 122.159 48.6414 123.298Z" fill="#92E3A9"/>
                    <path d="M39.9079 119.745C39.9673 119.935 40.072 120.107 40.213 120.248C40.3539 120.388 40.527 120.492 40.7172 120.551C41.8453 120.9 42.4553 120.204 43.0622 119.466C43.6691 118.728 44.3221 118.547 45.2815 117.858C46.241 117.169 46.3146 115.827 45.8548 115.502C45.8378 115.489 45.8193 115.477 45.7996 115.469C45.2815 115.208 43.3228 115.904 43.3228 115.904L40.3248 115.41C40.3248 115.41 40.1072 116.513 39.8896 117.555C39.7516 118.216 39.6688 119.095 39.9079 119.745Z" fill="#92E3A9"/>
                    <path d="M39.9082 119.749C39.9675 119.938 40.0722 120.111 40.2132 120.251C40.3542 120.392 40.5273 120.496 40.7175 120.554C41.8455 120.903 42.4555 120.208 43.0625 119.47C43.6694 118.732 44.3223 118.551 45.2818 117.862C46.2413 117.172 46.3148 115.831 45.855 115.506C45.9395 116.044 45.8097 116.594 45.4933 117.038C45.1312 117.521 44.6859 117.936 44.1783 118.263C43.6719 118.592 43.2014 118.973 42.7743 119.399C42.5812 119.617 42.2563 119.681 42.0172 119.847C41.6616 120.092 41.3459 120.321 40.9259 120.226C40.5576 120.138 40.2113 119.975 39.9082 119.749Z" fill="#FDFEFF"/>
                    <path d="M48.6416 123.299C48.6843 123.489 48.767 123.668 48.8844 123.824C49.0017 123.98 49.1509 124.109 49.3221 124.202C50.5483 124.726 52.6664 124.371 54.3217 123.507C55.8851 123.118 59.2754 121.945 59.5819 120.64C59.636 120.447 59.6274 120.242 59.5574 120.055C59.3857 120.428 58.9167 120.974 57.7366 121.586C55.3977 122.845 52.1882 123.608 51.0571 123.792C50.303 123.927 49.2547 123.559 48.6416 123.299Z" fill="#FDFEFF"/>
                    <path d="M40.8031 69.2682C40.6591 69.1855 37.4558 77.576 37.373 77.9282C37.0524 79.2953 36.949 80.7043 37.0665 82.1036C37.32 84.695 38.3162 87.1584 39.9356 89.1982C41.4683 91.1526 44.6962 94.0996 43.6141 96.8995C42.955 98.6149 38.4673 106.396 39.6567 115.751C39.6567 115.751 41.0698 118.125 43.7275 115.751L46.2503 110.611L48.2305 120.107C48.2305 120.107 50.8698 123.008 53.1106 120.107C52.9261 115.071 53.4147 110.032 54.5636 105.125C55.7897 100.031 56.7798 94.8899 57.5339 89.7006C57.8803 87.3296 58.4535 84.8238 58.147 82.4375C57.8405 79.9255 55.0816 72.7543 54.162 70.3955C54.1865 70.3955 51.2254 75.2019 40.8031 69.2682Z" fill="#263238"/>
                    <path d="M45.4318 102.75C45.2356 104.263 45.5176 105.908 45.7751 107.4" stroke="#FDFEFF" stroke-linecap="round" stroke-linejoin="round"/>
                    <path d="M43.6753 83.5703L46.5506 84.6884C46.5506 84.6884 47.6174 92.6899 47.6174 94.2123C47.6174 95.2447 46.5261 98.1058 45.864 100.645" stroke="#FDFEFF" stroke-linecap="round" stroke-linejoin="round"/>
                    <path d="M48.6413 119.862C48.6413 119.862 48.1784 121.967 48.6413 123.299C49.1041 124.632 50.1218 124.525 51.302 124.525C52.4822 124.525 57.0343 122.638 58.2512 122.117C59.4682 121.596 59.9586 120.441 59.557 120.046C59.1555 119.651 58.9195 119.537 57.1477 119.418C55.3759 119.299 53.5459 119.295 53.0309 118.857" stroke="#263238" stroke-miterlimit="10"/>
                    <path d="M48.6416 123.299C49.5772 123.773 50.648 123.911 51.6733 123.688C53.2979 123.293 58.9504 121.589 59.5574 120.055" stroke="#263238" stroke-miterlimit="10"/>
                    <path d="M40.2301 116.149C40.2301 116.149 39.6477 118.097 39.7581 118.86C39.8684 119.622 39.7274 120.468 41.0424 120.627C42.3575 120.786 43.0503 119.402 43.3537 119.16C43.6572 118.918 45.429 118.078 45.9011 117.114C46.1028 116.738 46.1533 116.3 46.0421 115.888C45.8735 115.383 45.5056 115.404 45.0458 115.481C44.4626 115.587 43.887 115.733 43.3231 115.916" stroke="#263238" stroke-miterlimit="10"/>
                    <path d="M39.8315 119.835C40.4048 120.04 41.0332 120.248 41.6125 120.061C42.29 119.844 42.6885 119.161 43.2494 118.726C43.4548 118.569 43.6816 118.444 43.9024 118.306C44.4289 117.998 44.8927 117.594 45.2695 117.114C45.6312 116.624 45.8673 116.22 45.8397 115.613" stroke="#263238" stroke-miterlimit="10"/>
                    <path d="M69.5991 51.3091C69.5991 51.3091 69.8873 50.0439 70.8253 49.7774C71.7633 49.5109 72.1035 50.1266 72.545 49.8111C72.9864 49.4956 73.4125 48.2794 73.7711 47.9976C74.1298 47.7158 74.6662 47.2042 74.9973 47.2379C75.3283 47.2716 74.6202 48.1784 74.6202 48.1784C74.6202 48.1784 75.3283 48.1385 75.2578 48.4234C75.1935 48.6375 75.104 48.8432 74.9911 49.0361C75.3503 48.8752 75.6743 48.6452 75.9445 48.3591C76.3613 47.8996 76.9131 47.3022 77.6089 47.7127C77.6089 47.7127 78.0258 47.918 77.8297 48.1875C77.6335 48.4571 77.048 50.289 76.297 50.7362C75.546 51.1835 74.4302 51.2172 73.7895 51.2999C73.1488 51.3826 70.6659 53.0736 70.6659 53.0736L69.6175 51.8482L69.5991 51.3091Z" fill="white"/>
                    <path d="M70.7058 53.0846C71.4599 52.3157 72.2385 51.9787 73.1581 51.5223C73.7712 51.2159 74.5222 51.3415 75.2027 51.2588C76.0855 51.1547 76.4993 50.591 76.9132 49.8497C77.2381 49.2585 77.4986 48.4589 77.9707 48.0393C77.7187 47.9804 77.4557 47.9878 77.2074 48.0607C76.7446 48.22 76.3982 48.7224 76.0641 49.1482C75.7441 49.5698 75.2918 49.8719 74.7797 50.0059C74.7363 50.023 74.6881 50.023 74.6448 50.0059C74.5252 49.9385 74.5865 49.721 74.6632 49.5893L75.1782 48.7193C75.21 48.6792 75.2327 48.6327 75.2449 48.583C75.2571 48.5333 75.2583 48.4816 75.2487 48.4314C75.2088 48.3088 75.0678 48.3027 74.9421 48.3272C74.4139 48.4439 73.9274 48.7024 73.5351 49.0747C73.1857 49.381 72.8485 49.8252 72.4101 49.8344C72.2003 49.8138 71.9941 49.7654 71.7971 49.6904C71.5221 49.628 71.2355 49.6394 70.9664 49.7233C70.6972 49.8072 70.4551 49.9607 70.2644 50.1683C69.8475 50.6002 69.5379 51.0229 69.5624 51.6999" stroke="#263238" stroke-linecap="round" stroke-linejoin="round"/>
                    <path d="M77.7014 47.9473C77.7014 47.7788 77.5604 47.6747 77.4286 47.641C77.2901 47.595 77.1435 47.5786 76.9983 47.5929C76.8531 47.6071 76.7125 47.6517 76.5856 47.7237C76.4012 47.8566 76.2371 48.0155 76.0982 48.1954C75.7234 48.6197 75.3053 49.0037 74.8506 49.3411" stroke="#263238" stroke-linecap="round" stroke-linejoin="round"/>
                    <path d="M72.9805 49.5001C73.4709 48.8292 73.7468 47.9684 74.4089 47.4813C74.5735 47.3465 74.7737 47.2625 74.9852 47.2393C74.9959 47.2348 75.0074 47.2324 75.019 47.2324C75.0305 47.2324 75.042 47.2348 75.0527 47.2393C75.0741 47.2638 75.0527 47.3037 75.0527 47.3343C74.8595 47.7111 74.6634 48.0817 74.4611 48.4555L74.4886 48.4003" stroke="#263238" stroke-linecap="round" stroke-linejoin="round"/>
                    <path d="M70.8099 53.4299C70.6076 53.7883 64.1488 65.2942 63.033 65.9559C61.9173 66.6175 61.8406 66.3633 61.0681 65.9804C60.2957 65.5974 55.0692 60.1202 55.0692 60.1202L54.5634 62.4391L53.3771 67.7847L56.8502 76.7265C53.4292 79.1496 47.6326 79.5969 47.6326 79.5969L46.3421 74.5087L43.9573 79.1313C42.4796 78.8704 41.0514 78.3816 39.724 77.6823C38.6972 77.1687 37.7086 76.5821 36.7659 75.927L40.0949 67.9623C39.1108 68.603 37.9587 68.9377 36.7843 68.9242C35.4879 68.8914 34.2323 68.4639 33.1855 67.6989C33.2291 65.2327 33.4721 62.774 33.912 60.3469C34.5251 56.7659 35.3282 53.6811 35.5827 53.1174C36.0088 52.1739 38.5101 49.3434 38.5101 49.3434C39.7025 48.6327 42.2928 48.2314 42.2928 48.2314L41.8422 45.7807C42.4133 45.5281 43.0186 45.3609 43.6385 45.2845C44.2125 45.2125 44.7933 45.2125 45.3673 45.2845C45.4685 45.2845 45.5696 45.309 45.6739 45.3274C47.0919 45.5705 48.442 46.1125 49.6343 46.9172V48.6848C51.9364 49.1075 55.4738 51.1937 56.323 51.886C57.1721 52.5783 61.4912 59.1216 61.4912 59.1216L69.1883 51.3192L70.8099 53.4299Z" fill="#92E3A9"/>
                    <path opacity="0.2" d="M71.0003 53.6408C70.798 53.9992 64.3393 65.502 63.2265 66.1637C62.1138 66.8254 62.031 66.5711 61.2616 66.1882C60.4922 65.8053 55.2627 60.3464 55.2627 60.3464L56.8904 53.3008C56.8904 53.3008 61.2647 60.0125 62.2058 62.6378L71.0003 53.6408Z" fill="black"/>
                    <path opacity="0.2" d="M45.6743 45.2943V48.3117C45.6743 48.3117 41.72 50.6613 41.0548 52.0337C40.3896 53.4061 41.1988 63.7295 44.7761 67.4729L43.2435 67.3289L39.7121 77.683C38.6853 77.1694 37.6968 76.5828 36.7541 75.9277L40.083 67.963C39.1024 68.6013 37.955 68.9359 36.7847 68.9249C36.9748 68.1928 38.5963 61.4657 33.9155 60.3476C34.5286 56.7665 35.3317 53.6818 35.5862 53.1181C36.0122 52.1746 38.5136 49.3441 38.5136 49.3441C39.706 48.6334 42.2962 48.2321 42.2962 48.2321L41.8456 45.7814C42.4168 45.5288 43.022 45.3615 43.6419 45.2852L45.6743 45.2943Z" fill="black"/>
                    <path d="M49.5854 33.7911C49.5854 33.7911 51.02 34.4038 51.2499 35.5617C51.4798 36.7197 51.6545 37.9358 52.2982 38.4168C52.942 38.8977 53.273 39.0754 53.0431 39.4798C52.9466 39.6641 52.8337 39.8394 52.7059 40.0036C52.7059 40.0036 53.2976 43.9859 52.6078 44.473C51.9181 44.96 50.082 43.9246 50.082 43.9246C49.7609 44.073 49.4831 44.3008 49.275 44.5866C49.0668 44.8723 48.9352 45.2065 48.8926 45.5574C48.7363 46.7827 48.8712 46.3937 48.8712 46.3937C48.8712 46.3937 46.0725 45.0305 43.2217 45.5023L43.3259 41.9335C43.3259 41.9335 45.2755 32.7374 49.5854 33.7911Z" fill="white"/>
                    <path d="M50.928 38.1564C50.9648 38.4321 50.8943 38.6711 50.7717 38.6864C50.6491 38.7017 50.5172 38.4934 50.4805 38.2146C50.4437 37.9359 50.5142 37.7031 50.6368 37.6847C50.7594 37.6663 50.8851 37.8807 50.928 38.1564Z" fill="#263238"/>
                    <path d="M48.3287 32.8066C48.3287 32.8066 51.1764 34.4149 51.3756 36.0231C51.5749 37.6314 51.86 38.1981 52.706 38.7005C53.5521 39.2029 52.706 40.0024 52.706 40.0024C52.706 40.0024 53.0922 44.0307 52.6079 44.4718C52.1236 44.9129 49.5426 44.1502 48.3164 42.3275" stroke="#263238" stroke-linecap="round" stroke-linejoin="round"/>
                    <path opacity="0.6" d="M47.8813 45.8906L47.9488 48.375C47.9488 48.375 52.7553 51.8427 54.2144 53.2059L53.6626 66.225L56.8261 52.5472C56.8261 52.5472 53.9968 49.3185 49.6347 48.7058V46.9383C49.0893 46.5276 48.5015 46.1764 47.8813 45.8906Z" fill="white"/>
                    <path d="M49.8921 43.8047C49.4836 44.1265 49.1788 44.5611 49.0154 45.0545C48.9013 45.4366 48.8294 45.8301 48.8008 46.2278" stroke="#263238" stroke-linecap="round" stroke-linejoin="round"/>
                    <path d="M48.0712 39.6011C48.0712 39.6011 46.9462 38.4156 46.3669 38.7004C45.7875 38.9853 45.4779 40.0881 45.9561 41.4789C46.4343 42.8697 47.6451 43.0381 48.3287 42.4255" stroke="#263238" stroke-linecap="round" stroke-linejoin="round"/>
                    <path d="M43.3381 43.4766C43.3197 44.1474 43.2891 44.7356 43.2339 45.3544" stroke="#263238" stroke-linecap="round" stroke-linejoin="round"/>
                    <path d="M48.0713 39.602C48.0713 39.602 50.8301 37.5679 50.6002 34.5291C50.6002 34.5291 49.089 31.959 45.4657 31.959C41.8425 31.959 40.2546 33.2272 39.7059 35.8617C39.1572 38.4961 38.8783 42.1599 41.0915 43.4771C43.3047 44.7943 45.5669 43.7835 46.1279 41.9148C46.1279 41.9148 45.0519 39.7705 46.1064 38.9066C46.9003 38.2572 48.0713 39.602 48.0713 39.602Z" fill="#263238"/>
                    <path d="M42.2408 48.0438L41.7104 45.7891C41.7104 45.7891 46.2043 44.1503 49.6283 46.9256V48.589" stroke="#263238" stroke-linecap="round" stroke-linejoin="round"/>
                    <path d="M53.3741 67.4756L56.8502 76.7269C56.8502 76.7269 52.2522 79.4839 47.6296 79.5973L46.3422 74.5091L43.9542 79.1286C41.7135 78.5649 39.0129 78.1544 36.7629 75.9274L40.3463 67.8095L35.2915 53.4915L38.5101 49.3438C38.5101 49.3438 41.4498 47.4047 47.9484 48.3757C54.447 49.3468 56.838 52.4408 56.838 52.4408L53.3741 67.4756Z" stroke="#263238" stroke-linecap="round" stroke-linejoin="round"/>
                    <path d="M53.3745 67.4746C53.3745 67.4746 51.9338 68.173 49.5796 67.4746" stroke="#263238" stroke-linecap="round" stroke-linejoin="round"/>
                    <path d="M49.417 68.6182C50.6711 68.7574 51.9325 68.4303 52.9606 67.6992" stroke="#263238" stroke-linecap="round" stroke-linejoin="round"/>
                    <g opacity="0.3">
                    <path opacity="0.3" d="M40.7144 34.9418C41.2171 34.3873 41.9681 34.1361 42.6976 33.9585C43.6281 33.6952 44.6038 33.6315 45.5607 33.7716C46.038 33.8453 46.4933 34.0225 46.8947 34.2908C47.2961 34.5591 47.6339 34.912 47.8843 35.3247" stroke="white" stroke-linecap="round" stroke-linejoin="round"/>
                    <path opacity="0.3" d="M40.5825 35.9258C40.8247 36.9553 41.363 37.8916 42.1309 38.6193C42.8989 39.347 43.8631 39.8344 44.9047 40.0215" stroke="white" stroke-linecap="round" stroke-linejoin="round"/>
                    </g>
                    <path d="M56.8506 52.4414L61.4916 59.1225C61.4916 59.1225 62.3591 61.4354 61.8778 63.6501" stroke="#263238" stroke-linecap="round" stroke-linejoin="round"/>
                    <path d="M61.4916 59.1207L69.1857 51.3184L70.8196 53.4382C70.8196 53.4382 66.7886 62.0155 63.0366 65.9703C62.9097 66.1017 62.7579 66.2066 62.5902 66.279C62.4224 66.3514 62.242 66.3899 62.0592 66.3921C61.8765 66.3944 61.6952 66.3605 61.5257 66.2923C61.3561 66.2241 61.2018 66.123 61.0717 65.9948L55.0728 60.1346" stroke="#263238" stroke-linecap="round" stroke-linejoin="round"/>
                    <path d="M35.2919 53.4902C35.2919 53.4902 33.0113 62.812 33.1891 67.6857C33.1891 67.6857 36.3158 70.5438 40.3467 67.8083" stroke="#263238" stroke-linecap="round" stroke-linejoin="round"/>
                    <path d="M38.7924 63.4102C38.6187 64.4521 38.2405 65.4495 37.6797 66.3448" stroke="#263238" stroke-linecap="round" stroke-linejoin="round"/>
                    <path d="M39.0928 37.1201C38.7846 37.9546 38.6288 38.8376 38.633 39.727C38.4705 43.8135 39.0713 47.8969 38.9763 51.9804C38.9426 53.3864 38.8169 54.8293 38.2161 56.1005C37.6153 57.3718 36.4627 58.4624 35.0649 58.6339C34.3989 58.6942 33.7279 58.6063 33.1 58.3766C32.1336 58.0665 31.2637 57.5126 30.5741 56.7684C29.8264 55.8893 29.3307 54.8244 29.1395 53.6866C28.8638 52.2392 28.9555 50.7457 29.4062 49.3428C30.2798 46.6257 32.398 44.515 33.8111 42.0337C34.5055 40.8082 35.0275 39.4929 35.3622 38.1249C35.6289 37.0252 35.8343 35.7937 36.7202 35.0861C37.3257 34.6502 38.0727 34.4568 38.8138 34.5439C39.3196 34.5837 40.5917 34.6327 40.4569 35.3802C40.3588 35.9162 39.3472 36.5228 39.0928 37.1201Z" fill="#263238"/>
                    <g opacity="0.3">
                    <path opacity="0.3" d="M39.7549 35.6875C38.8753 35.8611 38.0924 36.3572 37.5601 37.0783C37.1407 37.702 36.8433 38.3994 36.6834 39.1338C35.4021 44.0351 36.196 49.2428 35.3285 54.2115C35.0649 55.7186 34.5928 57.2963 33.4219 58.2796" stroke="white" stroke-linecap="round" stroke-linejoin="round"/>
                    <path opacity="0.3" d="M33.4282 46.9818C33.6336 46.6755 33.8482 46.3691 34.0628 46.0628C34.1946 45.879 34.3325 45.6891 34.4613 45.4961" stroke="white" stroke-linecap="round" stroke-linejoin="round"/>
                    <path opacity="0.3" d="M31.5735 57.0028C30.7275 55.2322 30.749 53.1338 31.3038 51.2529C31.5727 50.3589 31.9364 49.4963 32.3889 48.6797" stroke="white" stroke-linecap="round" stroke-linejoin="round"/>
                    </g>
                    <path d="M93.0554 56.7092C93.2644 55.8476 93.2024 54.9426 92.8776 54.1176C92.4762 53.2665 92.0301 52.4373 91.5411 51.6332C91.5411 51.6332 91.6545 49.7033 91.161 49.0416C90.6675 48.38 89.1317 45.9783 88.77 45.963C88.4083 45.9477 88.4635 47.6019 89.0766 48.7016L88.9754 49.4491C88.9754 49.4491 86.6488 48.2513 85.9499 47.9725C85.251 47.6938 83.4976 46.9126 83.1205 47.2619C82.7435 47.6111 85.4686 48.5576 85.9499 49.3265C85.9499 49.3265 81.6216 48.8732 81.7013 49.4491C81.781 50.025 83.2493 50.1138 83.2493 50.1138C83.2493 50.1138 82.7956 50.1965 82.9213 50.5549C83.047 50.9133 86.2196 51.6332 86.2196 51.6332C87.0629 52.919 88.2758 53.9197 89.6988 54.5036C92.1266 55.5206 93.0554 56.7092 93.0554 56.7092Z" fill="white"/>
                    <path d="M93.3805 56.4475C93.3346 54.0305 91.5413 51.6319 91.5413 51.6319C91.5413 51.6319 91.6915 49.4876 90.873 48.6115C90.7311 48.4602 90.5971 48.3018 90.4715 48.1367C90.3458 47.9774 90.2201 47.8058 90.0944 47.6312C89.5151 46.8317 88.9817 45.9923 88.7702 45.9617C88.4974 45.9219 88.5801 47.4321 88.8622 48.1306C88.8921 48.2084 88.9312 48.2825 88.9786 48.3511C89.0491 48.4539 89.0865 48.5757 89.0859 48.7003C89.1074 49.2303 88.7058 49.9686 89.1197 50.6486" stroke="#263238" stroke-linecap="round" stroke-linejoin="round"/>
                    <path d="M88.9848 49.4484C88.9848 49.4484 83.8227 46.5719 82.9307 47.4143C82.9307 47.4143 85.6895 48.7346 85.9592 49.3258" stroke="#263238" stroke-linecap="round" stroke-linejoin="round"/>
                    <path d="M86.9156 50.6959C86.9156 50.6959 83.7736 49.7125 82.9306 50.2272C82.0876 50.7418 86.2289 51.6332 86.2289 51.6332C86.2289 51.6332 87.7156 53.8572 88.7701 53.7316" stroke="#263238" stroke-linecap="round" stroke-linejoin="round"/>
                    <path d="M82.9307 50.2386C82.9307 50.2386 81.6647 50.0395 81.7045 49.4605C81.7444 48.8815 85.6895 48.8478 87.2375 49.8495" stroke="#263238" stroke-linecap="round" stroke-linejoin="round"/>
                    <path d="M88.9784 48.3514C89.0489 48.4542 89.0863 48.576 89.0857 48.7006L85.6862 50.0883C85.611 50.1192 85.5266 50.119 85.4516 50.0876C85.3766 50.0563 85.3171 49.9965 85.2862 49.9214C85.2553 49.8462 85.2555 49.7619 85.2869 49.6869C85.3182 49.6119 85.378 49.5525 85.4532 49.5216L88.8619 48.1309C88.8919 48.2087 88.931 48.2828 88.9784 48.3514Z" fill="#263238"/>
                    <path d="M92.3198 47.3834L90.4806 48.137C90.3549 47.9777 90.2292 47.8062 90.1035 47.6316L92.0991 46.8167C92.1731 46.7919 92.2537 46.7962 92.3246 46.8288C92.3956 46.8614 92.4514 46.9197 92.4807 46.992C92.51 47.0643 92.5106 47.145 92.4825 47.2178C92.4543 47.2905 92.3994 47.3497 92.329 47.3834H92.3198Z" fill="#263238"/>
                    <path d="M92.0377 53.3418L82.7343 54.4477L79.8008 56.9933L86.8327 70.5577L97.019 69.8685L97.7393 66.5111L92.0377 53.3418Z" fill="white"/>
                    <path d="M92.0379 53.3418L90.873 55.6669L97.0191 69.8685L97.7395 66.5111L92.0379 53.3418Z" fill="#263238"/>
                    <path opacity="0.9" d="M92.0379 53.3418L90.873 55.6669L97.0191 69.8685L97.7395 66.5111L92.0379 53.3418Z" fill="white"/>
                    <path d="M79.8008 56.9924L90.8729 55.666L97.019 69.8676L86.8327 70.5569L79.8008 56.9924Z" fill="#263238"/>
                    <path opacity="0.6" d="M79.8008 56.9924L90.8729 55.666L97.019 69.8676L86.8327 70.5569L79.8008 56.9924Z" fill="white"/>
                    <path d="M90.8729 55.666L79.8008 56.9924L86.8327 70.5569L97.019 69.8676L90.8729 55.666Z" stroke="#263238" stroke-linecap="round" stroke-linejoin="round"/>
                    <path d="M90.873 55.6669L92.0379 53.3418" stroke="#263238" stroke-linecap="round" stroke-linejoin="round"/>
                    <path d="M97.019 69.8685L97.7393 66.5111L92.0377 53.3418L82.7343 54.4477L79.8008 56.9933" stroke="#263238" stroke-linecap="round" stroke-linejoin="round"/>
                    <path d="M86.9398 65.0258C86.9398 65.0258 86.5382 63.0377 85.4378 62.5751C84.3373 62.1126 80.9654 62.4557 80.8397 63.1388C80.7141 63.8219 81.9954 64.5724 81.9954 64.5724C81.9954 64.5724 81.8084 66.8301 83.0376 67.6633C84.2668 68.4966 86.4095 68.1137 86.4095 68.1137L87.5253 68.3985L88.1384 65.1728L86.9398 65.0258Z" fill="white"/>
                    <path d="M87.363 64.9421L86.9277 65.0217C86.9277 65.0217 86.474 62.6752 85.2387 62.47C84.0033 62.2647 80.705 62.5527 80.8306 63.3736C80.9563 64.1946 81.9832 64.5683 81.9832 64.5683C81.9832 64.5683 81.9403 67.2855 83.2615 67.7787C84.5827 68.2719 86.3912 68.1096 86.3912 68.1096C86.1858 68.0177 86.5598 68.1555 86.989 68.2627" stroke="#263238" stroke-linecap="round" stroke-linejoin="round"/>
                    <path d="M114.672 115.93L114.835 119.731C114.835 119.731 112.143 121.376 110.893 120.957C109.642 120.537 105.602 118.402 105.602 118.402C105.602 118.402 105.418 116.218 107.882 116.257C110.347 116.297 113.743 117.621 113.743 117.621L114.672 115.93Z" fill="#92E3A9"/>
                    <path opacity="0.2" d="M114.672 115.93L114.835 119.731C114.835 119.731 112.143 121.376 110.893 120.957C109.642 120.537 105.602 118.402 105.602 118.402C105.602 118.402 105.418 116.218 107.882 116.257C110.347 116.297 113.743 117.621 113.743 117.621L114.672 115.93Z" fill="black"/>
                    <path d="M106.739 116.79C107.555 117.244 108.403 117.636 109.277 117.963C109.724 118.133 110.201 118.211 110.678 118.193L111.061 117.927L111.595 117.66L111.779 117.072L110.218 116.741C110.218 116.741 107.88 116.321 106.739 116.79Z" fill="white"/>
                    <path d="M105.832 117.512L105.602 118.4C105.602 118.4 108.698 120.593 110.464 120.851C112.229 121.108 114.835 119.733 114.835 119.733L114.81 119.16C114.81 119.16 113.223 120.063 111.745 120.128C110.268 120.192 105.832 117.512 105.832 117.512Z" fill="white"/>
                    <path d="M111.828 116.943C111.828 116.943 108.079 116.437 106.819 116.765C105.559 117.093 105.593 118.401 105.593 118.401C105.593 118.401 109.884 121.311 111.641 120.986C112.767 120.756 113.845 120.331 114.826 119.73V115.705" stroke="#263238" stroke-linecap="round" stroke-linejoin="round"/>
                    <path d="M105.832 117.512C105.832 117.512 110.265 120.18 111.754 120.125C113.244 120.07 114.835 118.939 114.835 118.939" stroke="#263238" stroke-linecap="round" stroke-linejoin="round"/>
                    <path d="M106.641 116.922C107.993 117.139 108.732 118.199 110.096 118.261C110.463 118.272 110.827 118.183 111.148 118.003C111.468 117.823 111.733 117.558 111.914 117.237" stroke="#263238" stroke-linecap="round" stroke-linejoin="round"/>
                    <path d="M99.1279 117.835L99.0115 123.242C99.0115 123.242 96.0258 123.983 94.3705 123.361C92.7152 122.739 89.3096 118.359 89.3096 118.359C89.3096 118.359 90.3273 116.377 92.4976 117.207C94.6678 118.037 97.6228 119.471 97.6228 119.471L99.1279 117.835Z" fill="#92E3A9"/>
                    <path opacity="0.2" d="M99.1279 117.835L99.0115 123.242C99.0115 123.242 96.0258 123.983 94.3705 123.361C92.7152 122.739 89.3096 118.359 89.3096 118.359C89.3096 118.359 90.3273 116.377 92.4976 117.207C94.6678 118.037 97.6228 119.471 97.6228 119.471L99.1279 117.835Z" fill="black"/>
                    <path d="M89.3125 118.359L89.6742 117.66C89.6742 117.66 91.7403 119.85 92.2123 120.307C92.6844 120.763 94.0516 122.09 95.2287 122.5C96.4058 122.911 98.8581 122.479 98.8581 122.479L99.0144 123.242C99.0144 123.242 95.3881 123.817 94.542 123.425C93.696 123.033 90.2505 119.906 89.3125 118.359Z" fill="white"/>
                    <path d="M91.106 116.943C91.106 116.943 92.4854 118.074 92.9452 118.475C93.405 118.876 94.1928 119.498 94.9561 119.48C95.5196 119.42 96.0607 119.226 96.5347 118.916L94.6587 118.077C94.6587 118.077 92.044 116.68 91.106 116.943Z" fill="white"/>
                    <path d="M95.0601 118.357C95.0601 118.357 92.7151 117 91.21 116.945C89.7049 116.89 89.3125 118.357 89.3125 118.357C89.3125 118.357 92.9909 123.35 95.0601 123.565C96.3876 123.686 97.726 123.573 99.0144 123.231L99.1278 118.774" stroke="#263238" stroke-linecap="round" stroke-linejoin="round"/>
                    <path d="M89.7109 117.613C89.7109 117.613 93.4721 122.034 95.0202 122.45C96.5682 122.867 99.0358 122.45 99.0358 122.45" stroke="#263238" stroke-linecap="round" stroke-linejoin="round"/>
                    <path d="M90.7349 116.992C91.3766 117.138 91.9597 117.473 92.4086 117.954C92.8525 118.433 93.3551 118.854 93.9045 119.207C94.4777 119.513 95.2287 119.614 95.7651 119.244" stroke="#263238" stroke-linecap="round" stroke-linejoin="round"/>
                    <path d="M98.6222 34.6621C98.6222 34.6621 96.4765 36.5614 96.2772 37.8541C96.078 39.1468 96.7677 40.6601 96.7094 41.2238C96.6512 41.7874 95.5507 42.9178 95.7408 43.2609C95.9914 43.6124 96.2792 43.9359 96.5991 44.2258C96.5991 44.2258 96.4673 47.0012 98.1318 47.9968L98.9042 48.1775L102.383 46.2844L102.929 46.8971L107.932 45.9781C107.558 45.2119 107.344 44.3784 107.3 43.5274C107.23 42.1091 107.932 39.3766 107.932 39.3766L106.525 36.4542L98.6222 34.6621Z" fill="white"/>
                    <path d="M111.077 70.5569L112.879 77.7343C112.879 77.7343 111.478 78.4573 109.572 79.3671C106.154 80.9998 101.108 83.2391 99.5662 83.0431C97.166 82.7122 91.5411 76.8705 91.5411 76.8705L94.9681 69.4204C94.9681 69.4204 87.7921 69.641 86.4096 69.1784C86.4096 69.1784 86.0295 66.4214 87.0074 64.0627L95.7069 64.4946L95.7927 63.7563C95.7927 63.7563 97.5921 57.3938 98.6834 54.9247C99.7746 52.4557 101.001 50.2378 101.001 50.2378L103.196 48.6235L102.583 46.9693C102.583 46.9693 105.142 45.0945 107.892 45.1558C108.814 45.164 109.715 45.4293 110.494 45.9216L109.982 47.6616C109.982 47.6616 114.694 53.1756 115.414 55.0381C116.135 56.9006 112.732 66.6849 111.077 70.5569Z" fill="#92E3A9"/>
                    <path opacity="0.2" d="M94.2817 70.8972L100.593 71.9877C100.593 71.9877 104.637 68.4986 106.056 59.7344C106.056 59.7344 103.039 67.1967 100.627 69.1419L94.9684 69.3839L94.2817 70.8972Z" fill="black"/>
                    <path opacity="0.2" d="M111.077 70.5582L112.879 77.7356C112.879 77.7356 111.444 78.2901 109.538 79.1999C109.132 77.1197 108.606 75.0649 107.962 73.0457C107.893 72.7728 107.773 72.5151 107.61 72.286C107.424 71.9891 107.185 71.7294 106.905 71.5201C106.114 71.0759 105.029 70.206 104.56 69.4279C105.96 69.7128 107.625 70.3806 109.05 70.3071C109.23 70.3163 109.407 70.2621 109.55 70.1539C109.645 70.0446 109.708 69.9109 109.731 69.7679C110.328 67.4704 110.923 65.1749 111.518 62.8815C111.76 62.1054 111.89 61.2988 111.904 60.486C111.874 59.4629 111.481 58.4887 111.092 57.5391C110.107 55.1374 109.113 52.7399 108.109 50.3464C107.994 49.9891 107.782 49.6709 107.496 49.4274C107.234 49.2671 106.938 49.1705 106.632 49.1455C105.583 48.9863 104.253 48.6585 103.192 48.6187C104.394 47.62 106.154 47.2003 107.702 46.9982C107.86 46.3992 107.918 45.7781 107.873 45.1602C108.795 45.1684 109.696 45.4337 110.476 45.926L109.964 47.666C109.964 47.666 114.675 53.18 115.396 55.0425C116.116 56.905 112.732 66.6862 111.077 70.5582Z" fill="black"/>
                    <path d="M98.4319 39.9943C98.4718 40.2761 98.3982 40.5181 98.2725 40.5334C98.1468 40.5487 98.012 40.3374 97.966 40.0555C97.92 39.7737 98.0028 39.5317 98.1284 39.5164C98.2541 39.5011 98.3982 39.7125 98.4319 39.9943Z" fill="#263238"/>
                    <path d="M104.072 42.7638L105.792 42.292C105.792 42.292 106.224 40.454 106.031 39.3604C105.838 38.2668 104.37 38.1749 103.928 38.2086C103.487 38.2423 103.567 39.8812 103.567 39.8812" stroke="#263238" stroke-linecap="round" stroke-linejoin="round"/>
                    <path d="M97.9142 35.168L96.2773 37.8545C96.1492 38.0633 96.1054 38.313 96.1547 38.553L96.7096 41.2364C96.7368 41.3713 96.735 41.5104 96.7044 41.6446C96.6737 41.7787 96.6149 41.9048 96.5318 42.0145C96.2252 42.4128 95.7716 43.0469 95.7409 43.2736C95.7102 43.5002 96.0168 43.7177 96.2773 43.8862C96.3894 43.9588 96.485 44.0541 96.5579 44.166C96.6308 44.2779 96.6793 44.4038 96.7004 44.5357C96.8475 45.4087 96.9119 46.294 97.528 47.259C98.3342 48.5241 99.3458 48.129 99.3458 48.129L102.411 46.2909C102.653 46.1347 103.371 43.583 103.371 43.583" stroke="#263238" stroke-linecap="round" stroke-linejoin="round"/>
                    <path d="M97.2549 38.4885C97.2549 38.4885 98.2327 37.3091 99.1707 38.5651" stroke="#263238" stroke-linecap="round" stroke-linejoin="round"/>
                    <path d="M97.7852 44.4741C97.7852 44.4741 100.29 42.8444 100.664 42.0234C100.664 42.0234 100.869 44.4159 99.8819 44.8417C98.8948 45.2675 97.7852 44.4741 97.7852 44.4741Z" fill="#263238"/>
                    <path d="M107.619 45.1559C107.619 45.1559 106.966 43.0391 107.346 41.627" stroke="#263238" stroke-linecap="round" stroke-linejoin="round"/>
                    <path d="M92.6077 77.9219C92.6077 77.9219 92.5035 87.2191 93.276 98.9088C94.0485 110.598 95.152 119.09 95.152 119.09C95.152 119.09 97.6901 121.185 99.6765 119.09L103.097 88.763L110.822 116.995C110.822 116.995 112.355 118.346 113.673 117.684C114.483 117.263 115.143 116.603 115.564 115.794C115.564 115.794 112.067 85.2739 112.067 78.1149C112.067 78.1149 100.998 83.2705 99.5631 83.0499C98.1285 82.8293 92.6077 77.9219 92.6077 77.9219Z" fill="#263238"/>
                    <path d="M103.098 88.7628V86.7625L105.872 85.4023" stroke="white" stroke-linecap="round" stroke-linejoin="round"/>
                    <path d="M105.872 69.8691C105.872 69.8691 107.475 71.0179 110.617 71.2476" stroke="#263238" stroke-linecap="round" stroke-linejoin="round"/>
                    <path d="M105.872 71.2461C107.198 71.6136 108.6 71.6136 109.927 71.2461" stroke="#263238" stroke-linecap="round" stroke-linejoin="round"/>
                    <path d="M103.539 39.2772C103.328 39.1118 103.766 40.9498 102.564 41.0356C102.44 41.0645 102.31 41.0646 102.185 41.036C102.06 41.0073 101.944 40.9506 101.844 40.8702C101.678 40.6603 101.56 40.4167 101.498 40.1564C101.289 39.4825 101.078 38.8085 100.869 38.1346C100.731 37.6996 100.563 37.2156 100.198 36.9675C99.921 36.8169 99.6236 36.7075 99.3151 36.6428C98.6254 36.4253 97.9725 35.8708 97.9235 35.1509C97.9235 35.1509 95.2198 35.3899 94.806 34.3453C94.1745 32.7523 95.1861 32.0539 96.5716 32.0661C97.9572 32.0784 99.2324 32.7339 100.725 32.2285C102.218 31.723 105.431 30.4671 106.105 32.0079C106.105 32.0079 107.27 31.4933 107.966 33.4263C108.661 35.3592 110.262 39.2466 108.806 40.4444C107.349 41.6421 107.69 42.3773 107 42.2824C106.31 42.1874 106.105 41.1459 106.105 41.1459C106.105 41.1459 106.473 38.6952 104.916 38.3092C103.358 37.9232 103.539 39.2772 103.539 39.2772Z" fill="#263238"/>
                    <path d="M105.222 30.5781C105.517 30.7217 105.751 30.9674 105.879 31.2698C106.008 31.5722 106.023 31.9108 105.921 32.2231" stroke="#263238" stroke-linecap="round" stroke-linejoin="round"/>
                    <path opacity="0.6" d="M103.196 48.5502L102.693 46.9358L104.336 46.0566L104.753 47.7905L103.196 48.5502Z" fill="white"/>
                    <path d="M106.104 32.0095C106.456 31.7809 106.877 31.6861 107.293 31.7424C107.708 31.7986 108.089 32.0021 108.367 32.3158" stroke="#263238" stroke-linecap="round" stroke-linejoin="round"/>
                    <path d="M103.144 48.4732L102.567 46.9415C102.567 46.9415 105.02 45.4098 107.503 45.1586C108.579 45.0453 109.449 45.5569 110.485 45.8969L109.973 47.6369" stroke="#263238" stroke-linecap="round" stroke-linejoin="round"/>
                    <path d="M94.9681 69.405L91.541 76.855C93.1687 78.9105 98.7998 82.7305 99.5662 83.0276C100.332 83.3248 112.879 77.7342 112.879 77.7342L111.08 70.5568C111.08 70.5568 116.392 57.7582 115.564 55.4178C114.737 53.0774 110.132 47.4838 109.191 46.9691C108.25 46.4545 105.869 47.3122 105.869 47.3122C105.869 47.3122 102.512 48.6325 101.326 49.818C100.139 51.0035 97.3407 57.7398 96.7767 60.6592" stroke="#263238" stroke-linecap="round" stroke-linejoin="round"/>
                    <path d="M95.7072 64.4792L87.0077 64.0473C85.7295 67.1106 86.413 69.163 86.413 69.163C88.9726 69.7757 100.627 69.163 100.627 69.163C103.319 66.4306 106.525 58.665 106.525 58.665C106.699 56.9669 106.348 55.2564 105.519 53.7637" stroke="#263238" stroke-linecap="round" stroke-linejoin="round"/>
                    <path opacity="0.6" d="M103.196 51.4336L102.583 53.3421C102.583 53.3421 95.5937 63.4143 95.7684 65.381C95.7684 65.381 95.6458 64.4191 96.8934 60.3418C97.7725 57.658 99.0263 55.1118 100.618 52.7784L103.196 51.4336Z" fill="white"/>
                    <path d="M96.3781 66.9426C95.8434 66.0777 95.6176 65.0573 95.7374 64.0478C95.952 62.3813 98.3644 56.1903 100.627 52.7778L103.56 51.2461" stroke="#263238" stroke-linecap="round" stroke-linejoin="round"/>
                    <path d="M102.785 46.807L102.396 46.2832" stroke="#263238" stroke-linecap="round" stroke-linejoin="round"/>
                    </svg>