<svg width="75" height="75" fill="none" xmlns="http://www.w3.org/2000/svg"><path d="M57.48 63.04l-42.82 7.8L3.58 10.09l35.97-6.56 8.2 6.11 9.73 53.4z" fill="#fff" stroke="#263238" stroke-miterlimit="10"/><path d="M39.55 3.53l8.2 6.11-7.78 2.42-.42-8.53z" fill="#fff" stroke="#263238" stroke-linejoin="round"/><path d="M22.3 25.13l21.14-3.85M23.99 34.4l21.14-3.86M25.75 44.04l21.14-3.85M27.51 53.69l21.14-3.85" stroke="#263238" stroke-linecap="round" stroke-linejoin="round" stroke-dasharray="2 2"/><path d="M19.15 38.079a2.76 2.76 0 10-.99-5.432 2.76 2.76 0 00.99 5.432z" fill="#F3AC3F" stroke="#263238" stroke-miterlimit="10"/><path opacity=".3" d="M18.86 38.14a2.76 2.76 0 10-3.21-2.23 2.77 2.77 0 003.21 2.23z" fill="#fff" stroke="#263238" stroke-miterlimit="10"/><path d="M20.91 47.73a2.76 2.76 0 10-3.21-2.22 2.77 2.77 0 003.21 2.22z" fill="#92E3A9" stroke="#263238" stroke-miterlimit="10"/><path opacity=".3" d="M20.62 47.78a2.76 2.76 0 10-1.008-5.426 2.76 2.76 0 001.008 5.426z" fill="#fff" stroke="#263238" stroke-miterlimit="10"/><path d="M22.67 57.38a2.76 2.76 0 10-.99-5.43 2.76 2.76 0 00.99 5.43z" fill="#DD6A57" stroke="#263238" stroke-miterlimit="10"/><path opacity=".3" d="M22.34 57.429A2.76 2.76 0 1021.331 52a2.76 2.76 0 001.01 5.428z" fill="#fff" stroke="#263238" stroke-miterlimit="10"/><path d="M17.47 28.82a2.76 2.76 0 10-3.22-2.23 2.77 2.77 0 003.22 2.23z" fill="#7B61FF" stroke="#263238" stroke-miterlimit="10"/><path opacity=".3" d="M17.47 28.82a2.76 2.76 0 10-3.22-2.23 2.77 2.77 0 003.22 2.23z" fill="#fff" stroke="#263238" stroke-miterlimit="10"/></svg>