<svg width="101" height="78" viewBox="0 0 101 78" fill="none" xmlns="http://www.w3.org/2000/svg">
<path d="M28.4 75.96C21.04 75.96 15.408 73.048 11.504 67.224C7.59995 61.336 5.64795 52.728 5.64795 41.4C5.64795 30.072 7.59995 21.496 11.504 15.672C15.408 9.78397 21.04 6.83997 28.4 6.83997C35.76 6.83997 41.392 9.78397 45.296 15.672C49.2 21.496 51.152 30.072 51.152 41.4C51.152 52.728 49.2 61.336 45.296 67.224C41.392 73.048 35.76 75.96 28.4 75.96ZM28.4 69.24C32.944 69.24 36.4 66.904 38.768 62.232C41.136 57.56 42.32 50.616 42.32 41.4C42.32 32.184 41.136 25.24 38.768 20.568C36.4 15.896 32.944 13.56 28.4 13.56C23.856 13.56 20.4 15.896 18.0319 20.568C15.6639 25.24 14.4799 32.184 14.4799 41.4C14.4799 50.616 15.6639 57.56 18.0319 62.232C20.4 66.904 23.856 69.24 28.4 69.24Z" fill="#F6F8FC"/>
<path d="M67.1652 67.992H78.6852V18.168L65.4372 25.944V17.88L81.8532 7.79996H87.5172V67.992H98.9412V75H67.1652V67.992Z" fill="#F6F8FC"/>
<path fill-rule="evenodd" clip-rule="evenodd" d="M9.84266 68.3376L9.83705 68.3292C5.62097 61.9705 3.64795 52.9045 3.64795 41.4C3.64795 29.9005 5.61914 20.8618 9.83974 14.5627C14.1324 8.09115 20.4047 4.83997 28.4 4.83997C36.3952 4.83997 42.6675 8.09115 46.9602 14.5627C51.1808 20.8618 53.152 29.9005 53.152 41.4C53.152 52.9045 51.1789 61.9705 46.9628 68.3292L46.9573 68.3376C42.6604 74.7476 36.3873 77.96 28.4 77.96C20.4126 77.96 14.1395 74.7476 9.84266 68.3376ZM45.296 15.672C41.392 9.78397 35.76 6.83997 28.4 6.83997C21.04 6.83997 15.408 9.78397 11.504 15.672C7.59995 21.496 5.64795 30.072 5.64795 41.4C5.64795 52.728 7.59995 61.336 11.504 67.224C15.408 73.048 21.04 75.96 28.4 75.96C35.76 75.96 41.392 73.048 45.296 67.224C49.2 61.336 51.152 52.728 51.152 41.4C51.152 30.072 49.2 21.496 45.296 15.672ZM33.28 65.831C34.663 64.8961 35.9151 63.4367 36.984 61.3278C39.1398 57.0744 40.32 50.5064 40.32 41.4C40.32 32.2935 39.1398 25.7255 36.984 21.4722C35.9151 19.3632 34.663 17.9038 33.28 16.969C31.9123 16.0445 30.31 15.56 28.4 15.56C26.4899 15.56 24.8876 16.0445 23.5199 16.969C22.1369 17.9038 20.8848 19.3632 19.8159 21.4722C17.6601 25.7255 16.4799 32.2935 16.4799 41.4C16.4799 50.5064 17.6601 57.0744 19.8159 61.3278C20.8848 63.4367 22.1369 64.8961 23.5199 65.831C24.8876 66.7554 26.4899 67.24 28.4 67.24C30.31 67.24 31.9123 66.7554 33.28 65.831ZM65.1652 65.992H76.6852V21.6609L63.4372 29.4369V16.7611L81.2882 5.79996H89.5172V65.992H100.941V77H65.1652V65.992ZM87.5172 67.992V7.79996H81.8532L65.4372 17.88V25.944L78.6852 18.168V67.992H67.1652V75H98.9412V67.992H87.5172ZM38.768 62.232C36.4 66.904 32.944 69.24 28.4 69.24C23.856 69.24 20.4 66.904 18.0319 62.232C15.6639 57.56 14.4799 50.616 14.4799 41.4C14.4799 32.184 15.6639 25.24 18.0319 20.568C20.4 15.896 23.856 13.56 28.4 13.56C32.944 13.56 36.4 15.896 38.768 20.568C41.136 25.24 42.32 32.184 42.32 41.4C42.32 50.616 41.136 57.56 38.768 62.232Z" fill="#F6F8FC"/>
<path fill-rule="evenodd" clip-rule="evenodd" d="M6.67331 62.7808L6.6705 62.7766C2.61046 56.6532 0.647949 47.8162 0.647949 36.4C0.647949 24.9863 2.60953 16.1789 6.67185 10.1173C10.7702 3.93756 16.7223 0.839966 24.4 0.839966C32.0774 0.839966 38.0296 3.93747 42.1279 10.1171C46.1903 16.1787 48.152 24.9861 48.152 36.4C48.152 47.8162 46.1894 56.6532 42.1294 62.7766L42.1266 62.7808C38.0262 68.8978 32.0736 71.96 24.4 71.96C16.7263 71.96 10.7737 68.8978 6.67331 62.7808ZM41.296 10.672C37.392 4.78397 31.76 1.83997 24.4 1.83997C17.0399 1.83997 11.4079 4.78397 7.50395 10.672C3.59995 16.496 1.64795 25.072 1.64795 36.4C1.64795 47.728 3.59995 56.336 7.50395 62.224C11.4079 68.048 17.0399 70.96 24.4 70.96C31.76 70.96 37.392 68.048 41.296 62.224C45.2 56.336 47.152 47.728 47.152 36.4C47.152 25.072 45.2 16.496 41.296 10.672ZM29.84 61.6595C31.3955 60.6081 32.7495 59.0024 33.876 56.7799C36.1379 52.3172 37.32 45.5612 37.32 36.4C37.32 27.2387 36.1379 20.4827 33.876 16.0201C32.7495 13.7976 31.3955 12.1919 29.84 11.1405C28.2921 10.0942 26.491 9.55997 24.4 9.55997C22.3089 9.55997 20.5078 10.0942 18.9599 11.1405C17.4044 12.1919 16.0504 13.7976 14.9239 16.0201C12.662 20.4827 11.4799 27.2387 11.4799 36.4C11.4799 45.5612 12.662 52.3172 14.9239 56.7799C16.0504 59.0024 17.4044 60.6081 18.9599 61.6595C20.5078 62.7057 22.3089 63.24 24.4 63.24C26.491 63.24 28.2921 62.7057 29.84 61.6595ZM62.1652 61.992H73.6852V14.9145L60.4372 22.6905V12.3205L77.5707 1.79996H84.5172V61.992H95.9412V71H62.1652V61.992ZM83.5172 62.992V2.79996H77.8532L61.4372 12.88V20.944L74.6852 13.168V62.992H63.1652V70H94.9412V62.992H83.5172ZM34.768 57.232C32.4 61.904 28.9439 64.24 24.4 64.24C19.8559 64.24 16.4 61.904 14.0319 57.232C11.6639 52.56 10.4799 45.616 10.4799 36.4C10.4799 27.184 11.6639 20.24 14.0319 15.568C16.4 10.896 19.8559 8.55997 24.4 8.55997C28.9439 8.55997 32.4 10.896 34.768 15.568C37.136 20.24 38.32 27.184 38.32 36.4C38.32 45.616 37.136 52.56 34.768 57.232Z" fill="#4941C0"/>
</svg>
