<svg width="106" height="78" viewBox="0 0 106 78" fill="none" xmlns="http://www.w3.org/2000/svg">
<path d="M28.4 75.96C21.04 75.96 15.408 73.048 11.504 67.224C7.59995 61.336 5.64795 52.728 5.64795 41.4C5.64795 30.072 7.59995 21.496 11.504 15.672C15.408 9.78397 21.04 6.83997 28.4 6.83997C35.76 6.83997 41.392 9.78397 45.296 15.672C49.2 21.496 51.152 30.072 51.152 41.4C51.152 52.728 49.2 61.336 45.296 67.224C41.392 73.048 35.76 75.96 28.4 75.96ZM28.4 69.24C32.944 69.24 36.4 66.904 38.768 62.232C41.136 57.56 42.32 50.616 42.32 41.4C42.32 32.184 41.136 25.24 38.768 20.568C36.4 15.896 32.944 13.56 28.4 13.56C23.856 13.56 20.4 15.896 18.0319 20.568C15.6639 25.24 14.4799 32.184 14.4799 41.4C14.4799 50.616 15.6639 57.56 18.0319 62.232C20.4 66.904 23.856 69.24 28.4 69.24Z" fill="#F6F8FC"/>
<path d="M60.9252 67.416C65.5332 64.088 70.1092 60.12 74.6532 55.512C79.2612 50.84 83.1652 45.88 86.3652 40.632C89.5652 35.384 91.1652 30.424 91.1652 25.752C91.1652 22.168 90.1412 19.352 88.0932 17.304C86.0452 15.192 83.2612 14.136 79.7412 14.136C76.5412 14.136 73.5012 14.904 70.6212 16.44C67.8052 17.976 65.5652 20.024 63.9012 22.584L59.1972 17.304C61.1812 14.04 63.9972 11.48 67.6452 9.62396C71.3572 7.76796 75.4212 6.83997 79.8372 6.83997C86.1092 6.83997 91.0692 8.53597 94.7172 11.928C98.3652 15.256 100.189 19.768 100.189 25.464C100.189 32.248 97.5012 39.32 92.1252 46.68C86.8132 54.04 80.2852 61.144 72.5412 67.992H103.165V75H60.9252V67.416Z" fill="#F6F8FC"/>
<path fill-rule="evenodd" clip-rule="evenodd" d="M9.84266 68.3376L9.83705 68.3292C5.62097 61.9705 3.64795 52.9045 3.64795 41.4C3.64795 29.9005 5.61914 20.8618 9.83974 14.5627C14.1324 8.09115 20.4047 4.83997 28.4 4.83997C36.3952 4.83997 42.6675 8.09115 46.9602 14.5627C51.1808 20.8618 53.152 29.9005 53.152 41.4C53.152 52.9045 51.1789 61.9705 46.9628 68.3292L46.9573 68.3376C42.6604 74.7476 36.3873 77.96 28.4 77.96C20.4126 77.96 14.1395 74.7476 9.84266 68.3376ZM45.296 15.672C41.392 9.78397 35.76 6.83997 28.4 6.83997C21.04 6.83997 15.408 9.78397 11.504 15.672C7.59995 21.496 5.64795 30.072 5.64795 41.4C5.64795 52.728 7.59995 61.336 11.504 67.224C15.408 73.048 21.04 75.96 28.4 75.96C35.76 75.96 41.392 73.048 45.296 67.224C49.2 61.336 51.152 52.728 51.152 41.4C51.152 30.072 49.2 21.496 45.296 15.672ZM33.28 65.831C34.663 64.8961 35.9151 63.4367 36.984 61.3278C39.1398 57.0744 40.32 50.5064 40.32 41.4C40.32 32.2935 39.1398 25.7255 36.984 21.4722C35.9151 19.3632 34.663 17.9038 33.28 16.969C31.9123 16.0445 30.31 15.56 28.4 15.56C26.4899 15.56 24.8876 16.0445 23.5199 16.969C22.1369 17.9038 20.8848 19.3632 19.8159 21.4722C17.6601 25.7255 16.4799 32.2935 16.4799 41.4C16.4799 50.5064 17.6601 57.0744 19.8159 61.3278C20.8848 63.4367 22.1369 64.8961 23.5199 65.831C24.8876 66.7554 26.4899 67.24 28.4 67.24C30.31 67.24 31.9123 66.7554 33.28 65.831ZM58.9252 66.3933L59.7542 65.7946C64.2606 62.54 68.7528 58.6471 73.2291 54.1077C77.7362 49.538 81.5431 44.6986 84.6576 39.5908C87.7253 34.5598 89.1652 29.9579 89.1652 25.752C89.1652 22.5649 88.267 20.3062 86.679 18.7182L86.6681 18.7073L86.6574 18.6963C85.0589 17.0479 82.8346 16.136 79.7412 16.136C76.8794 16.136 74.1647 16.8185 71.5708 18.2002C69.0347 19.5851 67.0505 21.4087 65.5781 23.6739L64.1504 25.8703L56.7196 17.5296L57.4882 16.2651C59.6791 12.6606 62.7837 9.8534 66.7383 7.84141L66.7507 7.83507C70.7582 5.83142 75.1311 4.83997 79.8372 4.83997C86.4742 4.83997 91.9655 6.64228 96.0719 10.4566C100.196 14.2225 102.189 19.304 102.189 25.464C102.189 32.7948 99.2827 40.2704 93.7435 47.8551C89.2385 54.0963 83.8861 60.1412 77.6943 65.992H105.165V77H58.9252V66.3933ZM72.5412 67.992C73.2924 67.3277 74.0321 66.661 74.7604 65.992C81.5402 59.7634 87.3285 53.326 92.1252 46.68C97.5012 39.32 100.189 32.248 100.189 25.464C100.189 19.768 98.3652 15.256 94.7172 11.928C91.0692 8.53597 86.1092 6.83997 79.8372 6.83997C75.4212 6.83997 71.3572 7.76796 67.6452 9.62396C63.9972 11.48 61.1812 14.04 59.1972 17.304L63.9012 22.584C64.2753 22.0085 64.6785 21.4588 65.1108 20.9351C66.6015 19.129 68.4383 17.6307 70.6212 16.44C73.5012 14.904 76.5412 14.136 79.7412 14.136C83.2612 14.136 86.0452 15.192 88.0932 17.304C90.1412 19.352 91.1652 22.168 91.1652 25.752C91.1652 30.424 89.5652 35.384 86.3652 40.632C83.1652 45.88 79.2612 50.84 74.6532 55.512C70.1092 60.12 65.5332 64.088 60.9252 67.416V75H103.165V67.992H72.5412ZM38.768 62.232C36.4 66.904 32.944 69.24 28.4 69.24C23.856 69.24 20.4 66.904 18.0319 62.232C15.6639 57.56 14.4799 50.616 14.4799 41.4C14.4799 32.184 15.6639 25.24 18.0319 20.568C20.4 15.896 23.856 13.56 28.4 13.56C32.944 13.56 36.4 15.896 38.768 20.568C41.136 25.24 42.32 32.184 42.32 41.4C42.32 50.616 41.136 57.56 38.768 62.232Z" fill="#F6F8FC"/>
<path fill-rule="evenodd" clip-rule="evenodd" d="M6.67331 62.7808L6.6705 62.7766C2.61046 56.6532 0.647949 47.8162 0.647949 36.4C0.647949 24.9863 2.60953 16.1789 6.67185 10.1173C10.7702 3.93756 16.7223 0.839966 24.4 0.839966C32.0774 0.839966 38.0296 3.93747 42.1279 10.1171C46.1903 16.1787 48.152 24.9861 48.152 36.4C48.152 47.8162 46.1894 56.6532 42.1294 62.7766L42.1266 62.7808C38.0262 68.8978 32.0736 71.96 24.4 71.96C16.7263 71.96 10.7737 68.8978 6.67331 62.7808ZM41.296 10.672C37.392 4.78397 31.76 1.83997 24.4 1.83997C17.0399 1.83997 11.4079 4.78397 7.50395 10.672C3.59995 16.496 1.64795 25.072 1.64795 36.4C1.64795 47.728 3.59995 56.336 7.50395 62.224C11.4079 68.048 17.0399 70.96 24.4 70.96C31.76 70.96 37.392 68.048 41.296 62.224C45.2 56.336 47.152 47.728 47.152 36.4C47.152 25.072 45.2 16.496 41.296 10.672ZM29.84 61.6595C31.3955 60.6081 32.7495 59.0024 33.876 56.7799C36.1379 52.3172 37.32 45.5612 37.32 36.4C37.32 27.2387 36.1379 20.4827 33.876 16.0201C32.7495 13.7976 31.3955 12.1919 29.84 11.1405C28.2921 10.0942 26.491 9.55997 24.4 9.55997C22.3089 9.55997 20.5078 10.0942 18.9599 11.1405C17.4044 12.1919 16.0504 13.7976 14.9239 16.0201C12.662 20.4827 11.4799 27.2387 11.4799 36.4C11.4799 45.5612 12.662 52.3172 14.9239 56.7799C16.0504 59.0024 17.4044 60.6081 18.9599 61.6595C20.5078 62.7057 22.3089 63.24 24.4 63.24C26.491 63.24 28.2921 62.7057 29.84 61.6595ZM55.9252 61.9047L56.3397 61.6053C60.8969 58.314 65.431 54.3835 69.9412 49.8098C74.4987 45.189 78.3541 40.2893 81.5114 35.1114C84.6452 29.9719 86.1652 25.1909 86.1652 20.752C86.1652 17.3664 85.2041 14.8291 83.3861 13.0111L83.3807 13.0056L83.3753 13.0001C81.5521 11.1199 79.0479 10.136 75.7412 10.136C72.7103 10.136 69.833 10.8612 67.096 12.3201C64.4199 13.7805 62.3078 15.7163 60.7396 18.129L60.0258 19.2271L53.9584 12.4168L54.3427 11.7846C56.4302 8.35031 59.3904 5.66669 63.1917 3.73269L63.198 3.72952C67.0577 1.79969 71.2761 0.839966 75.8372 0.839966C82.2916 0.839966 87.5173 2.58909 91.3945 6.19229C95.2806 9.73924 97.1892 14.536 97.1892 20.464C97.1892 27.5213 94.3921 34.7949 88.9347 42.2671C84.0263 49.0675 78.0961 55.642 71.1493 61.992H100.165V71H55.9252V61.9047ZM68.5412 62.992C68.9175 62.6592 69.2909 62.3259 69.6614 61.992C76.9167 55.453 83.0713 48.6824 88.1252 41.68C93.5012 34.32 96.1892 27.248 96.1892 20.464C96.1892 14.768 94.3652 10.256 90.7172 6.92797C87.0692 3.53596 82.1092 1.83997 75.8372 1.83997C71.4212 1.83997 67.3572 2.76797 63.6452 4.62396C59.9972 6.47997 57.1812 9.03997 55.1972 12.304L59.9012 17.584C60.0889 17.2952 60.2839 17.013 60.4862 16.7373C62.0778 14.5685 64.1228 12.8027 66.6212 11.44C69.5012 9.90397 72.5412 9.13597 75.7412 9.13597C79.2612 9.13597 82.0452 10.192 84.0932 12.304C86.1412 14.352 87.1652 17.168 87.1652 20.752C87.1652 25.424 85.5652 30.384 82.3652 35.632C79.1652 40.88 75.2612 45.84 70.6532 50.512C66.1092 55.12 61.5332 59.088 56.9252 62.416V70H99.1652V62.992H68.5412ZM34.768 57.232C32.4 61.904 28.9439 64.24 24.4 64.24C19.8559 64.24 16.4 61.904 14.0319 57.232C11.6639 52.56 10.4799 45.616 10.4799 36.4C10.4799 27.184 11.6639 20.24 14.0319 15.568C16.4 10.896 19.8559 8.55997 24.4 8.55997C28.9439 8.55997 32.4 10.896 34.768 15.568C37.136 20.24 38.32 27.184 38.32 36.4C38.32 45.616 37.136 52.56 34.768 57.232Z" fill="#4941C0"/>
</svg>
