<svg width="106" height="78" viewBox="0 0 106 78" fill="none" xmlns="http://www.w3.org/2000/svg">
<path d="M28.4 75.96C21.04 75.96 15.408 73.048 11.504 67.224C7.59995 61.336 5.64795 52.728 5.64795 41.4C5.64795 30.072 7.59995 21.496 11.504 15.672C15.408 9.78397 21.04 6.83997 28.4 6.83997C35.76 6.83997 41.392 9.78397 45.296 15.672C49.2 21.496 51.152 30.072 51.152 41.4C51.152 52.728 49.2 61.336 45.296 67.224C41.392 73.048 35.76 75.96 28.4 75.96ZM28.4 69.24C32.944 69.24 36.4 66.904 38.768 62.232C41.136 57.56 42.32 50.616 42.32 41.4C42.32 32.184 41.136 25.24 38.768 20.568C36.4 15.896 32.944 13.56 28.4 13.56C23.856 13.56 20.4 15.896 18.0319 20.568C15.6639 25.24 14.4799 32.184 14.4799 41.4C14.4799 50.616 15.6639 57.56 18.0319 62.232C20.4 66.904 23.856 69.24 28.4 69.24Z" fill="#F6F8FC"/>
<path d="M80.5092 75.96C75.7732 75.96 71.5172 75.096 67.7412 73.368C64.0292 71.576 61.2772 69.144 59.4852 66.072L63.9012 60.888C65.5652 63.256 67.8692 65.144 70.8132 66.552C73.8212 67.96 76.9572 68.664 80.2212 68.664C84.4452 68.664 87.8052 67.512 90.3012 65.208C92.8612 62.904 94.1412 59.928 94.1412 56.28C94.1412 52.248 92.5412 49.08 89.3412 46.776C86.2052 44.472 81.8852 43.32 76.3812 43.32H72.9252V36.312H76.2852C80.9572 36.312 84.7012 35.16 87.5172 32.856C90.3332 30.488 91.7412 27.448 91.7412 23.736C91.7412 20.664 90.7492 18.296 88.7652 16.632C86.7812 14.968 83.9972 14.136 80.4132 14.136C77.1492 14.136 74.1092 14.84 71.2932 16.248C68.4772 17.592 66.2052 19.48 64.4772 21.912L60.1572 16.728C62.2052 13.656 65.0852 11.256 68.7972 9.52797C72.5732 7.73597 76.7012 6.83997 81.1812 6.83997C87.0052 6.83997 91.6772 8.31197 95.1972 11.256C98.7812 14.136 100.573 17.976 100.573 22.776C100.573 26.552 99.4212 29.944 97.1172 32.952C94.8772 35.896 91.7412 38.072 87.7092 39.48C92.6372 40.568 96.4132 42.616 99.0372 45.624C101.725 48.568 103.069 52.248 103.069 56.664C103.069 60.44 102.141 63.8 100.285 66.744C98.4292 69.624 95.7732 71.896 92.3172 73.56C88.9252 75.16 84.9892 75.96 80.5092 75.96Z" fill="#F6F8FC"/>
<path fill-rule="evenodd" clip-rule="evenodd" d="M9.84266 68.3376L9.83705 68.3292C5.62097 61.9705 3.64795 52.9045 3.64795 41.4C3.64795 29.9005 5.61914 20.8618 9.83974 14.5627C14.1324 8.09115 20.4047 4.83997 28.4 4.83997C36.3952 4.83997 42.6675 8.09115 46.9602 14.5627C51.1808 20.8618 53.152 29.9005 53.152 41.4C53.152 52.9045 51.1789 61.9705 46.9628 68.3292L46.9573 68.3376C42.6604 74.7476 36.3873 77.96 28.4 77.96C20.4126 77.96 14.1395 74.7476 9.84266 68.3376ZM45.296 15.672C41.392 9.78397 35.76 6.83997 28.4 6.83997C21.04 6.83997 15.408 9.78397 11.504 15.672C7.59995 21.496 5.64795 30.072 5.64795 41.4C5.64795 52.728 7.59995 61.336 11.504 67.224C15.408 73.048 21.04 75.96 28.4 75.96C35.76 75.96 41.392 73.048 45.296 67.224C49.2 61.336 51.152 52.728 51.152 41.4C51.152 30.072 49.2 21.496 45.296 15.672ZM33.28 65.831C34.663 64.8961 35.9151 63.4367 36.984 61.3278C39.1398 57.0744 40.32 50.5064 40.32 41.4C40.32 32.2935 39.1398 25.7255 36.984 21.4722C35.9151 19.3632 34.663 17.9038 33.28 16.969C31.9123 16.0445 30.31 15.56 28.4 15.56C26.4899 15.56 24.8876 16.0445 23.5199 16.969C22.1369 17.9038 20.8848 19.3632 19.8159 21.4722C17.6601 25.7255 16.4799 32.2935 16.4799 41.4C16.4799 50.5064 17.6601 57.0744 19.8159 61.3278C20.8848 63.4367 22.1369 64.8961 23.5199 65.831C24.8876 66.7554 26.4899 67.24 28.4 67.24C30.31 67.24 31.9123 66.7554 33.28 65.831ZM66.8902 75.178L66.8717 75.1691C62.8596 73.2322 59.7807 70.5479 57.7576 67.0797L57.043 65.8547L64.0531 57.6255L65.5376 59.7381C66.9786 61.7888 68.9976 63.4652 71.668 64.7438C74.4133 66.0277 77.258 66.664 80.2212 66.664C84.0704 66.664 86.9025 65.6235 88.9446 63.7384L88.9539 63.7298L88.9633 63.7214C91.0745 61.8213 92.1412 59.3989 92.1412 56.28C92.1412 52.874 90.8368 50.3173 88.1726 48.399L88.1648 48.3934L88.157 48.3877C85.4805 46.4213 81.6304 45.32 76.3812 45.32H70.9252V34.312H76.2852C80.6225 34.312 83.8736 33.2483 86.2403 31.3166C88.5928 29.3339 89.7412 26.8591 89.7412 23.736C89.7412 21.1334 88.9251 19.3764 87.48 18.1643C85.9731 16.9005 83.7066 16.136 80.4132 16.136C77.4479 16.136 74.7156 16.7728 72.1876 18.0368L72.1712 18.045L72.1547 18.0529C69.6312 19.2573 67.6293 20.9287 66.1076 23.0704L64.6033 25.1874L57.6647 16.8611L58.4931 15.6186C60.7652 12.2105 63.9423 9.58317 67.9466 7.71784C72.0077 5.79187 76.429 4.83997 81.1812 4.83997C87.3372 4.83997 92.4993 6.39923 96.4652 9.70921C100.535 12.9865 102.573 17.4074 102.573 22.776C102.573 26.9926 101.276 30.8111 98.7063 34.1664C97.2053 36.1382 95.3579 37.7832 93.1879 39.1114C96.1221 40.3555 98.5869 42.071 100.529 44.2922C103.581 47.6427 105.069 51.8152 105.069 56.664C105.069 60.7841 104.051 64.5202 101.977 67.8106L101.972 67.819L101.966 67.8274C99.8874 71.0533 96.9323 73.5577 93.1848 75.362L93.1777 75.3654L93.1704 75.3688C89.4647 77.1168 85.2276 77.96 80.5092 77.96C75.5263 77.96 70.9805 77.0498 66.909 75.1866L66.8902 75.178ZM99.0372 45.624C97.0031 43.2922 94.2767 41.5373 90.8581 40.3593C89.8667 40.0177 88.817 39.7246 87.7092 39.48C88.7719 39.1089 89.7724 38.6844 90.7106 38.2066C93.3321 36.8716 95.4676 35.12 97.1172 32.952C99.4212 29.944 100.573 26.552 100.573 22.776C100.573 17.976 98.7812 14.136 95.1972 11.256C91.6772 8.31197 87.0052 6.83997 81.1812 6.83997C76.7012 6.83997 72.5732 7.73597 68.7972 9.52797C65.0852 11.256 62.2052 13.656 60.1572 16.728L64.4772 21.912C64.8744 21.353 65.3003 20.8227 65.755 20.3212C67.2784 18.6408 69.1245 17.283 71.2932 16.248C74.1092 14.84 77.1492 14.136 80.4132 14.136C83.9972 14.136 86.7812 14.968 88.7652 16.632C90.7492 18.296 91.7412 20.664 91.7412 23.736C91.7412 27.448 90.3332 30.488 87.5172 32.856C84.7012 35.16 80.9572 36.312 76.2852 36.312H72.9252V43.32H76.3812C81.8852 43.32 86.2052 44.472 89.3412 46.776C92.5412 49.08 94.1412 52.248 94.1412 56.28C94.1412 59.928 92.8612 62.904 90.3012 65.208C87.8052 67.512 84.4452 68.664 80.2212 68.664C76.9572 68.664 73.8212 67.96 70.8132 66.552C68.5594 65.4741 66.6807 64.1149 65.1771 62.4744C64.7166 61.9719 64.2913 61.4432 63.9012 60.888L59.4852 66.072C61.2772 69.144 64.0292 71.576 67.7412 73.368C71.5172 75.096 75.7732 75.96 80.5092 75.96C84.9892 75.96 88.9252 75.16 92.3172 73.56C95.7732 71.896 98.4292 69.624 100.285 66.744C102.141 63.8 103.069 60.44 103.069 56.664C103.069 52.248 101.725 48.568 99.0372 45.624ZM38.768 62.232C36.4 66.904 32.944 69.24 28.4 69.24C23.856 69.24 20.4 66.904 18.0319 62.232C15.6639 57.56 14.4799 50.616 14.4799 41.4C14.4799 32.184 15.6639 25.24 18.0319 20.568C20.4 15.896 23.856 13.56 28.4 13.56C32.944 13.56 36.4 15.896 38.768 20.568C41.136 25.24 42.32 32.184 42.32 41.4C42.32 50.616 41.136 57.56 38.768 62.232Z" fill="#F6F8FC"/>
<path fill-rule="evenodd" clip-rule="evenodd" d="M6.67331 62.7808L6.6705 62.7766C2.61046 56.6532 0.647949 47.8162 0.647949 36.4C0.647949 24.9863 2.60953 16.1789 6.67185 10.1173C10.7702 3.93756 16.7223 0.839966 24.4 0.839966C32.0774 0.839966 38.0296 3.93747 42.1279 10.1171C46.1903 16.1787 48.152 24.9861 48.152 36.4C48.152 47.8162 46.1894 56.6532 42.1294 62.7766L42.1266 62.7808C38.0262 68.8978 32.0736 71.96 24.4 71.96C16.7263 71.96 10.7737 68.8978 6.67331 62.7808ZM41.296 10.672C37.392 4.78397 31.76 1.83997 24.4 1.83997C17.0399 1.83997 11.4079 4.78397 7.50395 10.672C3.59995 16.496 1.64795 25.072 1.64795 36.4C1.64795 47.728 3.59995 56.336 7.50395 62.224C11.4079 68.048 17.0399 70.96 24.4 70.96C31.76 70.96 37.392 68.048 41.296 62.224C45.2 56.336 47.152 47.728 47.152 36.4C47.152 25.072 45.2 16.496 41.296 10.672ZM29.84 61.6595C31.3955 60.6081 32.7495 59.0024 33.876 56.7799C36.1379 52.3172 37.32 45.5612 37.32 36.4C37.32 27.2387 36.1379 20.4827 33.876 16.0201C32.7495 13.7976 31.3955 12.1919 29.84 11.1405C28.2921 10.0942 26.491 9.55997 24.4 9.55997C22.3089 9.55997 20.5078 10.0942 18.9599 11.1405C17.4044 12.1919 16.0504 13.7976 14.9239 16.0201C12.662 20.4827 11.4799 27.2387 11.4799 36.4C11.4799 45.5612 12.662 52.3172 14.9239 56.7799C16.0504 59.0024 17.4044 60.6081 18.9599 61.6595C20.5078 62.7057 22.3089 63.24 24.4 63.24C26.491 63.24 28.2921 62.7057 29.84 61.6595ZM63.3157 69.273L63.3065 69.2685C59.4444 67.4041 56.529 64.8459 54.6214 61.5758L54.2641 60.9633L59.9771 54.2567L60.7194 55.313C62.272 57.5224 64.4335 59.3047 67.241 60.6481C70.1175 61.9939 73.1077 62.664 76.2212 62.664C80.2578 62.664 83.3538 61.5677 85.6229 59.4732L85.6322 59.4646C87.9678 57.3626 89.1412 54.6634 89.1412 51.28C89.1412 47.561 87.689 44.6986 84.7569 42.5875L84.7491 42.5819C81.8429 40.4466 77.7578 39.32 72.3812 39.32H67.9252V30.312H72.2852C76.7899 30.312 80.2873 29.2041 82.8785 27.0865C85.463 24.9111 86.7412 22.1536 86.7412 18.736C86.7412 15.8987 85.8372 13.8362 84.1226 12.3982C82.3772 10.9342 79.8519 10.136 76.4132 10.136C73.2986 10.136 70.4124 10.8064 67.7404 12.1424L67.7322 12.1465L67.7239 12.1504C65.0542 13.4246 62.9172 15.2043 61.2924 17.4912L60.5403 18.5497L54.911 11.7945L55.3251 11.1733C57.4851 7.93327 60.5137 5.41965 64.3717 3.623C68.2903 1.76395 72.565 0.839966 77.1812 0.839966C83.171 0.839966 88.0881 2.35551 91.8311 5.4825C95.6581 8.56113 97.5732 12.6917 97.5732 17.776C97.5732 21.7726 96.3483 25.3782 93.9111 28.56C92.0825 30.9625 89.7014 32.8664 86.793 34.2826C90.5229 35.5041 93.536 37.3854 95.7834 39.9581C98.6531 43.1054 100.069 47.0316 100.069 51.664C100.069 55.612 99.0963 59.1601 97.1311 62.2773L97.1258 62.2857C95.1583 65.3386 92.3527 67.7268 88.751 69.461L88.7438 69.4644C85.195 71.1384 81.1084 71.96 76.5092 71.96C71.6497 71.96 67.2488 71.0729 63.3251 69.2773L63.3157 69.273ZM95.0372 40.624C92.7227 37.9708 89.512 36.0645 85.4051 34.9051C84.8558 34.75 84.2905 34.6083 83.7092 34.48C84.2691 34.2844 84.8117 34.0741 85.337 33.849C88.5949 32.4528 91.1882 30.4872 93.1172 27.952C95.4212 24.944 96.5732 21.552 96.5732 17.776C96.5732 12.976 94.7812 9.13597 91.1972 6.25597C87.6772 3.31197 83.0052 1.83997 77.1812 1.83997C72.7012 1.83997 68.5732 2.73597 64.7972 4.52797C61.0852 6.25597 58.2052 8.65597 56.1572 11.728L60.4772 16.912C60.6763 16.6317 60.8827 16.3586 61.0963 16.0928C62.7361 14.052 64.8017 12.4371 67.2932 11.248C70.1092 9.83997 73.1492 9.13597 76.4132 9.13597C79.9972 9.13597 82.7812 9.96797 84.7652 11.632C86.7492 13.296 87.7412 15.664 87.7412 18.736C87.7412 22.448 86.3332 25.488 83.5172 27.856C80.7012 30.16 76.9572 31.312 72.2852 31.312H68.9252V38.32H72.3812C77.8852 38.32 82.2052 39.472 85.3412 41.776C88.5412 44.08 90.1412 47.248 90.1412 51.28C90.1412 54.928 88.8612 57.904 86.3012 60.208C83.8052 62.512 80.4452 63.664 76.2212 63.664C72.9572 63.664 69.8212 62.96 66.8132 61.552C64.2168 60.3102 62.1182 58.6951 60.5174 56.7067C60.3031 56.4405 60.0977 56.1676 59.9012 55.888L55.4852 61.072C57.2772 64.144 60.0292 66.576 63.7412 68.368C67.5172 70.096 71.7732 70.96 76.5092 70.96C80.9892 70.96 84.9252 70.16 88.3172 68.56C91.7732 66.896 94.4292 64.624 96.2852 61.744C98.1412 58.8 99.0692 55.44 99.0692 51.664C99.0692 47.248 97.7252 43.568 95.0372 40.624ZM34.768 57.232C32.4 61.904 28.9439 64.24 24.4 64.24C19.8559 64.24 16.4 61.904 14.0319 57.232C11.6639 52.56 10.4799 45.616 10.4799 36.4C10.4799 27.184 11.6639 20.24 14.0319 15.568C16.4 10.896 19.8559 8.55997 24.4 8.55997C28.9439 8.55997 32.4 10.896 34.768 15.568C37.136 20.24 38.32 27.184 38.32 36.4C38.32 45.616 37.136 52.56 34.768 57.232Z" fill="#4941C0"/>
</svg>
