<svg viewBox="0 0 110 18" xmlns="http://www.w3.org/2000/svg" fill-rule="evenodd" clip-rule="evenodd" stroke-linejoin="round" stroke-miterlimit="1.414"><g fill="#fff" fill-rule="nonzero"><path d="M0 13.33V1.476h2.266v3.785c.728-.684 1.568-1.058 2.523-1.122a4.69 4.69 0 0 1 .409-.016c1.431 0 2.607.492 3.527 1.475.818.888 1.227 1.963 1.227 3.224 0 1.209-.369 2.262-1.108 3.16-.863 1.038-2.028 1.556-3.493 1.556-1.102 0-2.022-.294-2.761-.882a6.724 6.724 0 0 1-.511-.465v1.139H0zm4.874-7.25c-.977 0-1.721.363-2.233 1.09-.34.471-.511 1.022-.511 1.652 0 1.016.386 1.781 1.159 2.294.466.31 1.011.465 1.636.465 1.022 0 1.784-.379 2.283-1.138.307-.46.461-.995.461-1.604 0-.974-.375-1.728-1.125-2.262-.477-.332-1.034-.497-1.67-.497zM21.455 9.833h-7.311c.205.791.727 1.321 1.568 1.588.318.107.665.16 1.039.16.773 0 1.398-.224 1.875-.673a3.7 3.7 0 0 0 .204-.209h2.471c-.136.396-.386.808-.749 1.235-.989 1.07-2.238 1.604-3.749 1.604-1.5 0-2.75-.481-3.749-1.443-.909-.877-1.364-1.936-1.364-3.176 0-1.348.506-2.476 1.517-3.385.954-.866 2.107-1.299 3.459-1.299 1.5 0 2.715.503 3.647 1.508.818.887 1.227 1.978 1.227 3.272 0 .289-.028.561-.085.818zm-7.379-1.877h5.232c-.262-1.048-.989-1.63-2.182-1.748a5.294 5.294 0 0 0-.426-.016c-1.306 0-2.158.529-2.556 1.588a2.99 2.99 0 0 0-.068.176zM24.164 13.33V6.384h-1.107V4.443h1.107V1.476h2.267v2.967h1.363v1.941h-1.363v6.946h-2.267zM39.212 4.443v8.887h-2.079v-1.155c-.75.802-1.625 1.251-2.625 1.347a7.431 7.431 0 0 1-.511.016c-1.488 0-2.687-.497-3.596-1.491-.772-.856-1.158-1.899-1.158-3.128 0-1.476.522-2.663 1.567-3.561.886-.749 1.966-1.123 3.238-1.123 1.238 0 2.221.406 2.948 1.219.046.053.091.112.137.176V4.443h2.079zm-4.925 1.749c-1 0-1.755.374-2.267 1.123-.329.47-.494 1.021-.494 1.652 0 .994.398 1.727 1.193 2.197.454.278.988.417 1.602.417.897 0 1.585-.267 2.062-.802a3.14 3.14 0 0 0 .681-1.828c0-1.016-.386-1.781-1.158-2.294-.466-.31-1.006-.465-1.619-.465zM42.961 11.726a.925.925 0 0 0-.938.914c0 .465.426.866.921.866.528 0 .971-.385.971-.866 0-.497-.443-.914-.954-.914zM54.191 4.443h2.164v7.203c0 1.625-.318 2.828-.954 3.609-.909 1.08-2.221 1.62-3.937 1.62-1.806 0-3.192-.567-4.158-1.701a4.435 4.435 0 0 1-.699-1.122h2.574c.545.566 1.198.877 1.959.93.125.011.262.016.409.016 1.682 0 2.562-.946 2.642-2.839-.727.802-1.568 1.251-2.522 1.347a4.842 4.842 0 0 1-.58.032c-1.454 0-2.624-.508-3.51-1.523-.75-.867-1.125-1.931-1.125-3.193 0-1.422.506-2.577 1.517-3.464.863-.749 1.908-1.123 3.135-1.123 1.364 0 2.392.444 3.085 1.331V4.443zm-2.829 1.749c-1.034 0-1.784.401-2.249 1.203-.25.438-.375.946-.375 1.524 0 1.101.42 1.882 1.261 2.342.397.213.863.32 1.397.32 1.068 0 1.84-.395 2.318-1.187.25-.417.375-.909.375-1.475 0-1.048-.398-1.818-1.193-2.31a2.764 2.764 0 0 0-1.33-.417h-.204zM63.546 4.235c1.477 0 2.704.486 3.681 1.46.909.898 1.364 1.983 1.364 3.256 0 1.251-.5 2.331-1.5 3.24-.988.898-2.164 1.347-3.528 1.347-1.397 0-2.59-.465-3.578-1.395-.955-.909-1.432-1.995-1.432-3.256 0-1.294.5-2.396 1.5-3.305.977-.898 2.141-1.347 3.493-1.347zm.017 1.957c-.852 0-1.556.326-2.113.978a2.562 2.562 0 0 0-.613 1.685c0 .909.358 1.636 1.073 2.181a2.724 2.724 0 0 0 1.67.545c.875 0 1.585-.336 2.131-1.01a2.608 2.608 0 0 0 .596-1.684c0-.867-.346-1.572-1.039-2.118a2.72 2.72 0 0 0-1.705-.577zM79.122 4.443v8.887h-2.096v-.85c-.659.609-1.375.951-2.147 1.026l-.563.032c-1.272 0-2.232-.438-2.88-1.315-.431-.599-.664-1.412-.698-2.438a8.383 8.383 0 0 1-.017-.578V4.443h2.266V8.79c0 1.123.153 1.866.46 2.23.296.374.739.561 1.329.561.807 0 1.381-.272 1.722-.818.238-.342.357-1.053.357-2.133V4.443h2.267zM84.694 13.33l-3.8-8.887h2.522l2.182 5.887 2.147-5.887h2.556l-3.8 8.887h-1.807zM91.572 11.726c-.481 0-.881.401-.881.914 0 .465.4.866.865.866.497 0 .914-.385.914-.866 0-.497-.417-.914-.898-.914zM95.407 5.53h1.765l-1.785 8.266c-.465 2.134-1.106 3.201-1.94 3.201-.233 0-.388-.136-.388-.33 0-.058.019-.097.078-.194a.584.584 0 0 0 .097-.33.762.762 0 0 0-.776-.756c-.408 0-.718.368-.718.834 0 .66.679 1.183 1.532 1.183 1.766 0 3.144-1.94 3.997-5.568l1.456-6.306h2.153l.117-.621H98.88c.582-3.105 1.339-4.482 2.425-4.482.272 0 .427.097.427.252 0 .039-.019.097-.077.194a.652.652 0 0 0-.117.408c0 .465.291.776.718.776.446 0 .834-.369.834-.796 0-.718-.718-1.261-1.688-1.261-.95 0-1.727.427-2.445 1.339-.582.776-.989 1.668-1.591 3.57h-1.823l-.136.621zM103.323 13.33c1.067-3.396 1.397-4.191 2.29-5.685.679-1.106 1.222-1.708 1.552-1.708.136 0 .233.078.33.272.155.33.31.427.698.427.582 0 .912-.349.912-.97s-.368-1.009-.912-1.009c-.446 0-.989.291-1.494.834-.815.815-1.63 1.999-1.94 2.755l-.291.718 1.086-4.268-.058-.039c-1.416.252-1.63.291-3.046.524v.329c.427-.077.505-.097.66-.097.427 0 .679.194.679.544 0 .252-.155 1.047-.311 1.63l-1.649 5.743h1.494z"/></g></svg>
