<svg width="500" height="360" viewBox="0 0 500 360" fill="none" xmlns="http://www.w3.org/2000/svg">
<g clip-path="url(#clip0_15_3334)">
<rect width="500" height="360" fill="white"/>
<path d="M415.83 160.1C412.964 125.829 401.388 92.8597 382.2 64.3199C351.46 18.8699 301.29 -5.68008 246.71 7.69992C195.1 20.3599 182 76.2399 139 101C106 120 56 151 64 206C66.61 223.93 78.48 237 94.76 244.37C117.02 254.42 148.15 250.37 168 265C191 282 210 306 260 324C299.55 338.24 344.15 321.2 374 294.25C410.82 261.08 420 207.59 415.83 160.1Z" fill="#4941C0"/>
<path opacity="0.7" d="M415.83 160.1C412.964 125.829 401.388 92.8597 382.2 64.3199C351.46 18.8699 301.29 -5.68008 246.71 7.69992C195.1 20.3599 182 76.2399 139 101C106 120 56 151 64 206C66.61 223.93 78.48 237 94.76 244.37C117.02 254.42 148.15 250.37 168 265C191 282 210 306 260 324C299.55 338.24 344.15 321.2 374 294.25C410.82 261.08 420 207.59 415.83 160.1Z" fill="white"/>
<path d="M377.2 259.43L228.65 301.24C227.046 301.634 225.359 301.508 223.832 300.878C222.306 300.249 221.02 299.15 220.16 297.74L107.51 95C107.128 94.3975 106.898 93.7114 106.839 93.0004C106.781 92.2895 106.895 91.5749 107.174 90.918C107.452 90.2612 107.885 89.6816 108.437 89.2291C108.988 88.7766 109.641 88.4647 110.34 88.32L258.89 46.51C260.491 46.1137 262.176 46.2385 263.701 46.8662C265.227 47.4938 266.512 48.5917 267.37 50L380 252.74C380.382 253.341 380.612 254.026 380.673 254.735C380.733 255.445 380.621 256.159 380.346 256.816C380.071 257.473 379.641 258.053 379.093 258.509C378.546 258.964 377.896 259.28 377.2 259.43Z" fill="#263238" stroke="black" stroke-miterlimit="10"/>
<path d="M226.56 292.35C226.56 292.35 312.4 271.93 370.18 251.92L226.56 292.35Z" fill="#884849"/>
<path d="M370.18 251.92L226.56 292.35L115.47 92.43L259.09 52.01L370.18 251.92Z" fill="white" stroke="#263238" stroke-miterlimit="10"/>
<path d="M216.55 94.35L227.7 91.21" stroke="#263238" stroke-miterlimit="10"/>
<path d="M139.21 116.12L207.92 96.78" stroke="#263238" stroke-miterlimit="10"/>
<path d="M204.32 106.77L232.02 98.97" stroke="#263238" stroke-miterlimit="10"/>
<path d="M161.87 118.72L196.76 108.9" stroke="#263238" stroke-miterlimit="10"/>
<path d="M143.52 123.88L155.39 120.54" stroke="#263238" stroke-miterlimit="10"/>
<path d="M182.37 121.93L236.34 106.74" stroke="#263238" stroke-miterlimit="10"/>
<path d="M147.84 131.65L170.5 125.27" stroke="#263238" stroke-miterlimit="10"/>
<path d="M266.56 88.4999C265.139 86.1777 263.018 84.3667 260.502 83.3279C257.986 82.2891 255.205 82.0762 252.56 82.7199C247.39 84.1799 245.3 89.1199 247.88 93.7699C249.297 96.0953 251.418 97.9091 253.935 98.9484C256.452 99.9876 259.235 100.198 261.88 99.5499C267 98.0999 269.14 93.1499 266.56 88.4999Z" fill="white" stroke="#263238" stroke-miterlimit="10"/>
<path d="M169.6 147.6L158.45 150.74" stroke="#263238" stroke-miterlimit="10"/>
<path d="M246.94 125.83L178.23 145.17" stroke="#263238" stroke-miterlimit="10"/>
<path d="M190.46 150.71L162.76 158.51" stroke="#263238" stroke-miterlimit="10"/>
<path d="M232.91 138.76L198.02 148.58" stroke="#263238" stroke-miterlimit="10"/>
<path d="M251.26 133.6L239.39 136.94" stroke="#263238" stroke-miterlimit="10"/>
<path d="M221.04 151.08L167.08 166.27" stroke="#263238" stroke-miterlimit="10"/>
<path d="M255.58 141.36L232.91 147.74" stroke="#263238" stroke-miterlimit="10"/>
<path d="M285.8 123.13C284.383 120.804 282.262 118.991 279.745 117.951C277.227 116.912 274.445 116.701 271.8 117.35C266.63 118.8 264.54 123.75 267.12 128.35C268.536 130.677 270.657 132.491 273.174 133.531C275.692 134.57 278.475 134.78 281.12 134.13C286.28 132.72 288.38 127.77 285.8 123.13Z" fill="white" stroke="#263238" stroke-miterlimit="10"/>
<path d="M255.03 163.59L266.18 160.45" stroke="#263238" stroke-miterlimit="10"/>
<path d="M177.69 185.36L246.4 166.02" stroke="#263238" stroke-miterlimit="10"/>
<path d="M242.8 176.02L270.5 168.22" stroke="#263238" stroke-miterlimit="10"/>
<path d="M200.35 187.97L235.24 178.14" stroke="#263238" stroke-miterlimit="10"/>
<path d="M182 193.13L193.87 189.79" stroke="#263238" stroke-miterlimit="10"/>
<path d="M220.85 191.17L274.81 175.99" stroke="#263238" stroke-miterlimit="10"/>
<path d="M186.32 200.9L208.98 194.52" stroke="#263238" stroke-miterlimit="10"/>
<path d="M305.659 164.299C307.373 159.94 304.291 154.649 298.776 152.481C293.261 150.313 287.401 152.089 285.687 156.448C283.974 160.806 287.056 166.097 292.571 168.265C298.086 170.433 303.946 168.658 305.659 164.299Z" fill="white" stroke="#263238" stroke-miterlimit="10"/>
<path d="M208.08 216.85L196.93 219.99" stroke="#263238" stroke-miterlimit="10"/>
<path d="M285.42 195.08L216.71 214.42" stroke="#263238" stroke-miterlimit="10"/>
<path d="M228.94 219.96L201.24 227.75" stroke="#263238" stroke-miterlimit="10"/>
<path d="M271.39 208.01L236.5 217.83" stroke="#263238" stroke-miterlimit="10"/>
<path d="M289.74 202.84L277.87 206.18" stroke="#263238" stroke-miterlimit="10"/>
<path d="M259.52 220.33L205.56 235.52" stroke="#263238" stroke-miterlimit="10"/>
<path d="M294.05 210.61L271.39 216.99" stroke="#263238" stroke-miterlimit="10"/>
<path d="M324.27 192.37C322.852 190.046 320.731 188.233 318.214 187.194C315.697 186.155 312.915 185.943 310.27 186.59C305.1 188.05 303.01 192.99 305.59 197.64C307.007 199.965 309.128 201.779 311.645 202.818C314.162 203.858 316.945 204.068 319.59 203.42C324.76 202 326.86 197 324.27 192.37Z" fill="white" stroke="#263238" stroke-miterlimit="10"/>
<path d="M293.51 232.84L304.66 229.7" stroke="#263238" stroke-miterlimit="10"/>
<path d="M216.17 254.61L284.88 235.27" stroke="#263238" stroke-miterlimit="10"/>
<path d="M281.28 245.26L308.98 237.47" stroke="#263238" stroke-miterlimit="10"/>
<path d="M238.83 257.21L273.72 247.39" stroke="#263238" stroke-miterlimit="10"/>
<path d="M220.48 262.38L232.35 259.03" stroke="#263238" stroke-miterlimit="10"/>
<path d="M259.33 260.42L313.29 245.23" stroke="#263238" stroke-miterlimit="10"/>
<path d="M224.8 270.14L247.46 263.76" stroke="#263238" stroke-miterlimit="10"/>
<path d="M344.137 233.542C345.85 229.183 342.768 223.892 337.253 221.724C331.738 219.556 325.878 221.332 324.164 225.691C322.451 230.049 325.533 235.34 331.048 237.508C336.563 239.676 342.423 237.901 344.137 233.542Z" fill="white" stroke="#263238" stroke-miterlimit="10"/>
<path d="M210.47 55.4L191.59 60.71C190.16 60.77 188.59 60.6599 188.15 59.9299C187.15 58.0499 188.43 56.2899 188.83 54.6299C189.293 52.7166 188.995 50.6983 188 49C186.543 46.6109 184.362 44.7481 181.775 43.6819C179.187 42.6156 176.327 42.4013 173.61 43.07C168.31 44.57 166.17 49.64 168.81 54.4C170.105 56.5986 172.047 58.3446 174.37 59.3999C174.37 59.3999 178.2 61.11 178.97 62.49C179.38 63.22 178.31 64.0799 177.22 64.7299L156.87 70.46C156.103 70.6213 155.386 70.9658 154.78 71.4642C154.175 71.9626 153.699 72.6001 153.394 73.3221C153.088 74.0442 152.962 74.8295 153.026 75.611C153.09 76.3925 153.341 77.1469 153.76 77.8099L156.51 82.75L222.58 64.16L219.83 59.21C218.879 57.6604 217.459 56.455 215.775 55.7696C214.091 55.0843 212.232 54.9547 210.47 55.4V55.4ZM176.84 48.94C177.71 48.7243 178.627 48.7923 179.456 49.1341C180.286 49.4758 180.984 50.0735 181.45 50.8399C181.657 51.1669 181.781 51.5392 181.813 51.9248C181.844 52.3105 181.781 52.698 181.63 53.0541C181.478 53.4102 181.243 53.7241 180.943 53.969C180.644 54.2139 180.289 54.3824 179.91 54.46C179.042 54.6758 178.128 54.6089 177.3 54.269C176.473 53.929 175.775 53.3338 175.31 52.57C175.103 52.2429 174.979 51.8707 174.947 51.4851C174.915 51.0995 174.977 50.712 175.127 50.3554C175.277 49.9989 175.512 49.684 175.81 49.4375C176.108 49.191 176.461 49.0203 176.84 48.94V48.94Z" fill="#F5E461" stroke="#263238" stroke-miterlimit="10"/>
<path d="M251.21 89.0799L259.36 94.7699L267.76 75.9399" stroke="#4941C0" stroke-width="6" stroke-linecap="round" stroke-linejoin="round"/>
<path d="M270.15 123.17L278.3 128.85L286.7 110.03" stroke="#4941C0" stroke-width="6" stroke-linecap="round" stroke-linejoin="round"/>
<path d="M403.82 118.51C403.82 118.51 405.99 113.89 404.63 110.35C403.27 106.81 378.24 101.1 378.24 101.1C378.24 101.1 372.53 101.1 372.8 104.37C373.07 107.64 393.75 120.15 395.38 121.23C397.01 122.31 403.27 124.77 403.82 118.51Z" fill="white" stroke="#263238" stroke-linecap="round" stroke-linejoin="round"/>
<path d="M380.31 96.5299C378.769 95.9593 377.257 95.3118 375.78 94.5899C373.62 93.5099 375.99 98.4799 376.86 98.6899C377.73 98.8999 379.86 99.3399 379.86 99.3399L380.31 96.5299Z" fill="white" stroke="#263238" stroke-linecap="round" stroke-linejoin="round"/>
<path d="M305.61 144.9L293.1 160.13L294.18 162.31L311.87 158L436.38 85.5201C437.623 84.7927 438.708 83.8237 439.571 82.6703C440.433 81.517 441.056 80.2026 441.403 78.8046C441.75 77.4066 441.813 75.9534 441.589 74.5305C441.365 73.1077 440.859 71.7441 440.1 70.5201V70.5201C439.341 69.3078 438.349 68.2585 437.181 67.4334C436.014 66.6082 434.693 66.0236 433.297 65.7137C431.901 65.4038 430.458 65.3747 429.05 65.6282C427.643 65.8817 426.3 66.4126 425.1 67.1901L305.61 144.9Z" fill="#4941C0" stroke="#263238" stroke-linecap="round" stroke-linejoin="round"/>
<path d="M368.17 116.67L364.11 119.29" stroke="#263238" stroke-linecap="round" stroke-linejoin="round"/>
<path d="M403.12 94.1899L373.13 113.49" stroke="#263238" stroke-linecap="round" stroke-linejoin="round"/>
<path d="M294.26 159.81C294.26 159.81 291.15 161.11 291.63 162.42C292.11 163.73 296.57 160.56 296.57 160.56L294.26 159.81Z" fill="#4941C0" stroke="#263238" stroke-linecap="round" stroke-linejoin="round"/>
<path d="M293.1 160.13L294.18 162.31L311.87 158C302.07 154.19 305.61 144.94 305.61 144.94L293.1 160.13Z" fill="white" stroke="#263238" stroke-linecap="round" stroke-linejoin="round"/>
<path d="M440.1 70.45C439.341 69.2377 438.349 68.1885 437.181 67.3633C436.014 66.5381 434.693 65.9536 433.297 65.6437C431.901 65.3337 430.458 65.3047 429.05 65.5581C427.643 65.8116 426.3 66.3425 425.1 67.12L403.38 81.26C402.795 82.7508 402.496 84.3386 402.5 85.94C402.438 89.1507 403.65 92.2553 405.87 94.5751C408.091 96.8949 411.14 98.2413 414.35 98.32L436.42 85.48C437.664 84.7493 438.749 83.7766 439.61 82.6193C440.471 81.462 441.092 80.1438 441.435 78.7425C441.778 77.3412 441.837 75.8853 441.608 74.461C441.378 73.0367 440.865 71.6728 440.1 70.45V70.45Z" fill="white" stroke="#263238" stroke-linecap="round" stroke-linejoin="round"/>
<path d="M440.1 70.45C439.342 69.2377 438.35 68.1885 437.182 67.3633C436.014 66.5381 434.693 65.9536 433.297 65.6437C431.901 65.3337 430.458 65.3047 429.05 65.5581C427.643 65.8116 426.3 66.3425 425.1 67.12L408.6 77.87C407.802 79.5157 407.388 81.3211 407.39 83.15C407.369 84.7066 407.655 86.252 408.232 87.6979C408.808 89.1438 409.665 90.4618 410.751 91.5763C411.838 92.6909 413.134 93.5803 414.565 94.1935C415.996 94.8067 417.533 95.1318 419.09 95.15C419.36 95.15 419.64 95.15 419.9 95.15L436.42 85.54C437.672 84.8094 438.764 83.834 439.631 82.672C440.498 81.51 441.122 80.1852 441.465 78.7767C441.809 77.3682 441.865 75.905 441.63 74.4744C441.396 73.0437 440.875 71.675 440.1 70.45V70.45Z" fill="#263238" stroke="#263238" stroke-linecap="round" stroke-linejoin="round"/>
<path d="M366.5 101.5C366.5 101.5 364.08 101.5 364.08 102.6C364.08 103.7 363.44 107.6 364.84 107.49C366.24 107.38 366.12 104.93 366.24 104.07C366.36 103.21 366.5 101.5 366.5 101.5Z" fill="white" stroke="#263238" stroke-linecap="round" stroke-linejoin="round"/>
<path d="M369.14 97.5201C369.14 97.5201 366.98 96.8501 366.48 98.1801C365.98 99.5101 365.48 105.83 366.98 105.66C368.48 105.49 368.81 99.8501 369.14 97.5201Z" fill="white" stroke="#263238" stroke-linecap="round" stroke-linejoin="round"/>
<path d="M372.47 97.85C372.47 97.85 369.97 95.69 369.14 97.52C368.31 99.35 368.14 104.52 369.14 104.52C370.14 104.52 371.64 102.36 371.97 101.2C372.219 100.097 372.386 98.9774 372.47 97.85Z" fill="white" stroke="#263238" stroke-linecap="round" stroke-linejoin="round"/>
<path d="M376 98.85C376 98.85 372.84 96.19 372.34 96.69C371.84 97.19 369.84 102.31 371.34 103.34C372.84 104.37 374.74 99.77 374.74 99.77L376 98.85Z" fill="white" stroke="#263238" stroke-linecap="round" stroke-linejoin="round"/>
<path d="M330.33 114.63C330.33 114.63 330.68 119.96 332.1 121.21C332.958 121.953 333.733 122.788 334.41 123.7C334.606 125.056 334.726 126.421 334.77 127.79C334.77 129.39 335.84 129.21 336.77 129.21C337.7 129.21 339.26 132.21 340.15 133.65C341.846 135.745 343.872 137.549 346.15 138.99C347.75 139.88 350.42 136.5 350.42 136.5L351.66 140.06L364.29 131.88L358.07 119.78C357.703 115.586 356.426 111.521 354.33 107.87C350.77 101.47 345.97 97.8701 337.97 100.22C329.97 102.57 330.33 114.63 330.33 114.63Z" fill="white" stroke="#263238" stroke-linecap="round" stroke-linejoin="round"/>
<path d="M344.94 90.93C341.957 91.0605 339.012 91.6508 336.21 92.68C331.54 94.33 330.39 100.83 326.32 103.16C322.25 105.49 323.99 101.16 321.95 102.28C319.91 103.4 317.88 113.63 322.24 116.54C326.6 119.45 333.01 115.67 333.01 115.67C333.01 115.67 332.43 117.67 334.17 118.29C335.223 118.639 336.295 118.93 337.38 119.16C337.38 119.16 337.08 122.66 339.7 122.36C342.32 122.06 340 118 340 118C340 118 344.95 127.6 348.74 128.77C352.53 129.94 358.05 124.69 359.5 122.36C360.95 120.03 359.79 103.45 356.59 97.05C353.39 90.65 344.94 90.93 344.94 90.93Z" fill="#263238" stroke="#263238" stroke-linecap="round" stroke-linejoin="round"/>
<path d="M340.11 124.23C340.11 124.23 338.33 117.47 341.17 118.36C344.01 119.25 345.62 125.3 345.44 126.01C345.26 126.72 343.84 127.07 343.13 126.9" fill="white"/>
<path d="M340.11 124.23C340.11 124.23 338.33 117.47 341.17 118.36C344.01 119.25 345.62 125.3 345.44 126.01C345.26 126.72 343.84 127.07 343.13 126.9" stroke="#263238" stroke-linecap="round" stroke-linejoin="round"/>
<path d="M360.66 126.68C357.344 128.543 354.175 130.656 351.18 133C348.18 135.67 345.49 143.67 345.49 143.67C345.49 143.67 363.81 131.22 367.01 129.45C370.21 127.68 370.92 126.78 370.92 126.78C370.92 126.78 364.22 125.79 360.66 126.68Z" fill="white" stroke="#263238" stroke-linecap="round" stroke-linejoin="round"/>
<path d="M385.32 115.79C386.094 114.419 387.147 113.227 388.412 112.29C389.676 111.353 391.123 110.692 392.66 110.35C397.83 109.26 404.66 112.8 405.45 118.51C406.24 124.22 401.91 126.95 399.19 126.95C396.47 126.95 394.02 123.14 394.02 123.14C394.02 123.14 385.32 119.87 385.32 115.79Z" fill="white" stroke="#263238" stroke-linecap="round" stroke-linejoin="round"/>
<path d="M312.41 176.46L321.12 153.33C320.146 154.201 318.886 154.685 317.58 154.69C315.4 154.69 310.24 153.88 311.58 153.06C312.92 152.24 318.1 148.71 318.1 148.71C318.1 148.71 314.3 149.53 313.21 148.71C312.12 147.89 311.58 146.8 312.39 146.53C313.2 146.26 314.84 146.53 317.83 145.44C320.82 144.35 322.18 143.27 324.63 143.27C327.08 143.27 329.26 147.62 329.26 148.98C329.26 150.34 327.35 176.18 327.35 177.27C327.35 178.36 327.35 179.45 320.28 180.27C313.21 181.09 312.14 179.45 312.41 176.46Z" fill="white" stroke="#263238" stroke-linecap="round" stroke-linejoin="round"/>
<path d="M321.12 153.33L322.41 148.25" stroke="#263238" stroke-linecap="round" stroke-linejoin="round"/>
<path d="M320.84 170.74C320.84 170.74 312.14 173.19 310.51 177C308.88 180.81 309.15 186.52 312.41 189.79C315.67 193.06 317.04 193.87 320.57 192.51C324.1 191.15 324.93 188.97 325.2 186.79C325.47 184.61 327.37 177.27 320.84 170.74Z" fill="white" stroke="#263238" stroke-linecap="round" stroke-linejoin="round"/>
<path d="M317.31 286.09C317.31 286.09 309.69 282.55 306.7 283.91C303.71 285.27 303.7 286.63 307.51 292.62C311.32 298.61 321.93 305.95 325.51 304.31C329.09 302.67 325.78 291.8 325.78 291.8L317.31 286.09Z" fill="white" stroke="#263238" stroke-linecap="round" stroke-linejoin="round"/>
<path d="M311.87 294.52C309.227 291.593 307.005 288.311 305.27 284.77C303.87 286.01 304.47 287.83 307.51 292.62C311.32 298.62 321.93 305.95 325.51 304.31C325.964 304.018 326.339 303.618 326.599 303.144C326.859 302.671 326.997 302.14 327 301.6C322 303.71 316.83 300 311.87 294.52Z" fill="white" stroke="#263238" stroke-linecap="round" stroke-linejoin="round"/>
<path d="M356.48 202.84L356.75 211.01C356.75 211.01 340.16 217.26 332 223.01C323.84 228.76 318.4 233.07 317.58 238.51C316.76 243.95 317.31 286.12 317.31 286.12C317.31 286.12 314.86 286.66 315.68 288.29C316.5 289.92 318.12 295.91 320.3 296.45C322.48 296.99 325.2 298.09 325.74 296.73C326.28 295.37 327.92 287.21 329.01 284.49C330.1 281.77 332 269 333.63 260C334.585 254.976 335.13 249.883 335.26 244.77C341.004 243.97 346.655 242.603 352.13 240.69C361.65 237.42 375.52 231.44 375.52 231.44C375.52 231.44 386.68 259.44 389.13 264.9C391.58 270.36 401.13 282.58 403 286.12C404.87 289.66 416.87 304.89 416.87 304.89C416.87 304.89 421.5 300.81 424.49 300.81H428.57C428.57 300.81 423.67 287.21 419.57 279.04C415.47 270.87 407.06 257.55 407.06 257.55C407.06 257.55 399.45 209.96 399.17 206.68C398.64 200.4 394.62 190.92 394.62 190.92C394.62 190.92 381.51 188.15 356.48 202.84Z" fill="#F5E461" stroke="#263238" stroke-linecap="round" stroke-linejoin="round"/>
<path d="M416.87 304.86C416.171 306 415.537 307.179 414.97 308.39C414.7 309.21 408.71 310.03 409.53 312.75C410.35 315.47 416.6 317.64 419.59 317.92C422.58 318.2 428.59 314.11 429.66 313.02C430.3 312.38 431.26 308.15 430.75 304.86C430.418 303.323 429.663 301.91 428.57 300.78C428.57 300.78 423.4 292.89 416.87 304.86Z" fill="white" stroke="#263238" stroke-linecap="round" stroke-linejoin="round"/>
<path d="M430.75 304.86C430.472 303.479 429.834 302.196 428.9 301.14C427.774 301.149 426.661 301.387 425.63 301.839C424.599 302.291 423.67 302.948 422.9 303.77C420.18 307.03 421.54 314.38 418.27 315.47C415.84 316.28 411.59 313.31 409.59 311.75C409.479 312.074 409.479 312.426 409.59 312.75C410.4 315.47 416.66 317.64 419.65 317.92C422.64 318.2 428.65 314.11 429.72 313.02C430.3 312.38 431.26 308.15 430.75 304.86Z" fill="white" stroke="#263238" stroke-linecap="round" stroke-linejoin="round"/>
<path d="M423.67 306.76C422.59 311.66 423.95 314.92 419.59 317.92C422.59 318.19 428.59 314.11 429.66 313.02C430.3 312.38 431.26 308.15 430.75 304.86C430.633 304.178 430.407 303.52 430.08 302.91H429.66C429.66 302.91 424.76 301.87 423.67 306.76Z" fill="#263238" stroke="#263238" stroke-linecap="round" stroke-linejoin="round"/>
<path d="M391 113.89C386.38 114.43 374.41 122.59 373.59 123.41C372.77 124.23 369.51 126.13 368.15 127.22C368.15 127.22 340.15 144.63 337.68 146.22C335.21 147.81 330.34 151.12 330.61 152.22C330.88 153.32 316.19 177.22 316.19 177.22C316.19 177.22 311.84 182.94 315.92 188.1C320 193.26 323.81 189.74 325.71 188.65C327.61 187.56 342.58 173.41 342.58 173.41L356.38 206.41C356.38 206.41 375.49 193.6 395.9 194.41L382.29 141.09C382.29 141.09 401.07 126.95 401.61 122.09C402.15 117.23 395.65 113.34 391 113.89Z" fill="white"/>
<path d="M391 113.89C386.38 114.43 374.41 122.59 373.59 123.41C372.77 124.23 369.51 126.13 368.15 127.22C368.15 127.22 340.15 144.63 337.68 146.22C335.21 147.81 330.34 151.12 330.61 152.22C330.88 153.32 316.19 177.22 316.19 177.22C316.19 177.22 311.84 182.94 315.92 188.1C320 193.26 323.81 189.74 325.71 188.65C327.61 187.56 342.58 173.41 342.58 173.41L356.38 206.41C356.38 206.41 375.49 193.6 395.9 194.41L382.29 141.09C382.29 141.09 401.07 126.95 401.61 122.09C402.15 117.23 395.65 113.34 391 113.89Z" stroke="#263238" stroke-linecap="round" stroke-linejoin="round"/>
<path d="M360.78 172C360.74 172.11 360.71 172.224 360.69 172.34C360.81 172 360.85 171.87 360.78 172Z" fill="#263238"/>
</g>
<defs>
<clipPath id="clip0_15_3334">
<rect width="500" height="360" fill="white"/>
</clipPath>
</defs>
</svg>
