<svg xmlns="http://www.w3.org/2000/svg" width="282.35" height="82.125" class="logo"><style></style><g fill="#fff"><path d="M17.69 48.329c8.332 0 10.814-.45 11.715-1.128.334-.226.676-.676.676-2.14 0-3.153-2.141-7.099-8.673-7.099-6.648 0-12.394 6.086-12.505 9.803 0 .227 0 .564.79.564h7.998zm-6.984 3.377c-2.93 0-3.042.226-3.042 3.043 0 11.38 6.644 21.065 18.696 21.065 3.72 0 6.877-1.127 10.364-5.519 1.128-.338 1.918.337 2.03 1.35-3.714 7.664-11.83 10.48-17.684 10.48-7.326 0-13.068-3.153-16.337-7.438C1.358 70.295 0 65.001 0 60.045c0-13.855 9.129-25.46 22.647-25.46 9.685 0 15.995 6.645 15.995 13.407 0 1.575-.226 2.475-.452 2.926-.338.677-1.91.788-6.644.788h-20.84m50.238-10.813c-1.91 0-2.022.337-2.022 2.704v21.067c0 6.532.79 12.505 8.224 12.505a8.669 8.669 0 0 0 3.042-.564c1.013-.342 2.478-1.577 2.812-1.577.901 0 1.358 1.235 1.128 1.914-2.03 2.367-6.08 5.183-11.83 5.183-9.69 0-11.715-5.409-11.715-12.168V44.161c0-3.042-.107-3.268-2.359-3.268h-3.16c-.676-.453-.787-1.691-.338-2.367 3.264-1.012 6.087-2.476 7.208-3.492 1.464-1.349 3.605-4.39 4.733-6.645.567-.227 1.917-.227 2.367.563v5.07c0 2.028.114 2.14 2.025 2.14h12.505c1.35 1.016 1.123 4.058.11 4.73h-12.73M94.97 77.054c2.248 0 5.75-1.687 6.87-2.815 1.35-1.354 1.466-2.93 1.466-5.294l.226-6.643c0-1.243-.452-1.465-1.128-1.465-.675 0-2.593.448-4.622 1.126-6.643 2.25-9.912 3.937-9.912 8.333 0 1.918 1.35 6.758 7.1 6.758zm6.982-19.823c1.691-.564 1.802-1.582 1.918-3.268l.11-5.183c.112-4.171-1.238-9.802-8.227-9.802-3.149 0-6.982 1.578-7.207 5.071-.112 1.805-.223 3.153-1.12 3.83-1.696 1.353-4.734 2.14-6.426 2.14-1.012 0-1.58-.562-1.58-1.576 0-5.858 12.731-13.857 20.955-13.857 8.11 0 12.053 4.734 11.715 13.18l-.675 19.6c-.227 5.185.79 9.804 5.182 9.804a6.467 6.467 0 0 0 2.819-.68c.557-.337 1.128-.786 1.466-.786.445 0 .79.675.79 1.466 0 .559-3.947 4.956-9.467 4.956-2.709 0-5.412-1.013-7.323-3.499-.452-.67-1.128-1.573-1.802-1.573-.791 0-2.141 1.013-4.396 2.256-2.475 1.35-4.953 2.816-8.11 2.816-3.267 0-5.972-.906-7.882-2.594-2.144-1.914-3.494-4.733-3.494-7.886 0-4.396 2.14-6.981 9.348-9.575l13.406-4.84m37.066 10.698c0 8.113.222 9.24 4.281 9.8l2.7.338c.786.56.564 2.478-.219 2.815a174.236 174.236 0 0 0-10.936-.337c-4.05 0-7.43.115-10.813.337-.787-.337-1.013-2.255-.223-2.815l2.593-.338c4.167-.56 4.28-1.687 4.28-9.8V17.011c0-6.644-.113-7.32-3.49-9.35l-1.13-.677c-.566-.338-.566-1.914 0-2.25 2.818-.901 8.108-2.592 12.167-4.733.452 0 .901.225 1.127.675-.115 3.38-.337 9.014-.337 13.97v53.282m29.29 9.125c2.247 0 5.742-1.687 6.871-2.815 1.35-1.354 1.464-2.93 1.464-5.294l.226-6.643c0-1.243-.453-1.465-1.135-1.465-.671 0-2.585.448-4.615 1.126-6.644 2.25-9.911 3.937-9.911 8.333 0 1.918 1.353 6.758 7.1 6.758zm6.981-19.823c1.691-.564 1.807-1.582 1.919-3.268l.11-5.183c.115-4.171-1.239-9.802-8.22-9.802-3.157 0-6.989 1.578-7.212 5.071-.115 1.805-.226 3.153-1.127 3.83-1.691 1.353-4.73 2.14-6.421 2.14-1.013 0-1.577-.562-1.577-1.576 0-5.858 12.728-13.857 20.952-13.857 8.108 0 12.051 4.734 11.718 13.18l-.678 19.6c-.228 5.185.79 9.804 5.185 9.804 1.121 0 2.132-.342 2.811-.68.56-.337 1.125-.786 1.466-.786.448 0 .794.675.794 1.466 0 .559-3.95 4.956-9.466 4.956-2.705 0-5.414-1.013-7.324-3.499-.448-.67-1.123-1.573-1.803-1.573-.786 0-2.14 1.013-4.396 2.256-2.477 1.35-4.951 2.816-8.107 2.816-3.269 0-5.973-.906-7.884-2.594-2.14-1.914-3.495-4.733-3.495-7.886 0-4.396 2.145-6.981 9.352-9.575l13.403-4.84m35.601 7.993c0 3.948.901 7.438 2.815 9.805 1.918 2.363 4.956 3.717 8.561 3.717 10.587 0 14.757-9.014 14.757-18.7 0-11.603-5.964-20.617-17.123-20.617-3.375 0-6.087.792-7.656 1.802-1.128.79-1.354 2.03-1.354 6.424v17.57zm-8.336-48.212c0-6.644-.111-7.32-3.494-9.35l-1.127-.677c-.562-.338-.562-1.914 0-2.25 2.592-1.014 7.996-2.48 12.281-4.733.449 0 .902.225 1.124.675-.222 3.942-.448 9.014-.448 13.97v21.291c0 1.916.448 2.363 1.123 2.363 2.935-1.688 7.438-3.715 12.958-3.715 12.842 0 21.514 9.685 21.514 22.081 0 14.979-10.812 25.459-25.91 25.459-4.162 0-7.32-.676-9.574-1.466-2.367-.675-3.825-1.465-4.733-1.465-.901 0-1.804.905-2.36 1.687-.115.116-.226.116-.451.116-.458 0-.903-.227-1.13-.675.116-1.577.227-3.717.227-9.575V17.011"/><path d="M222.763 16.627c0 1.913 1.253 3.246 2.992 3.246 1.146 0 2.059-.55 2.78-1.314v-4.243c-.662-.571-1.53-1.016-2.696-1.016-1.845 0-3.076 1.442-3.076 3.327zm7.23 4.882c0 1.121-.295 1.99-.824 2.627-.764.932-2.034 1.316-3.438 1.316-1.42 0-2.52-.443-3.072-.976-.323-.318-.468-.677-.468-1.038 0-.615.448-1.1 1.059-1.1.529 0 .89.4.89.908a.978.978 0 0 1-.185.593c.273.173.862.36 1.776.36.89 0 1.739-.231 2.267-.888.338-.426.537-.974.537-1.74v-1.76c-.744.764-1.634 1.333-3.011 1.333-2.355 0-4.293-1.866-4.293-4.493 0-2.443 1.789-4.644 4.477-4.644 1.208 0 2.165.487 2.888 1.164v-.997h2.863v1.297h-1.466v8.038m10.587-4.816c0-1.995-1.266-3.414-3.115-3.414-1.845 0-3.117 1.42-3.117 3.414 0 2.015 1.272 3.413 3.117 3.413 1.849 0 3.115-1.398 3.115-3.413zm-7.76 0c0-2.545 1.841-4.686 4.645-4.686 2.8 0 4.645 2.117 4.645 4.686 0 2.568-1.845 4.687-4.645 4.687-2.819 0-4.645-2.102-4.645-4.687m12.244 3.479c-.276-.486-.425-1.126-.425-1.847v-4.854h-1.443v-1.297h2.908v5.874c0 .51.08.917.249 1.213.28.53.745.761 1.48.761 1.128 0 2.126-.72 2.973-1.591v-4.96h-1.485v-1.297h2.95v7.763h1.443v1.272h-2.865v-1.674c-.844.998-2.079 1.845-3.375 1.845-1.187 0-1.965-.445-2.41-1.208m10.433-6.701h-1.185v-1.297h4.197v1.25h-1.443l2.674 5.964 2.65-5.964h-1.488v-1.25h4.18v1.297h-1.185l-3.797 8.038h-.805l-3.798-8.038m9.233 6.576c0-.744.554-1.339 1.289-1.339.743 0 1.297.595 1.297 1.34 0 .737-.554 1.332-1.297 1.332-.735 0-1.289-.595-1.289-1.333m8.335-13.215c-.279.064-.533.188-.698.425-.326.378-.495.993-.495 1.887v3.03h2.34v1.297h-2.34v6.466h1.765v1.272h-4.687v-1.272h1.465v-6.466H268.8v-1.297h1.615v-2.69c0-1.466.257-2.442.951-3.14.53-.513 1.166-.829 2.06-.829.978 0 1.65.468 1.65 1.21 0 .595-.4.998-.914.998-.59 0-.927-.384-1.097-.89m9.291 6.36c0 .57-.45 1.08-1.017 1.08-.552 0-.935-.36-1.082-.76-.682.192-1.507.995-1.95 1.906v4.518H280v1.272h-4.6v-1.272h1.443v-6.466H275.4v-1.297h2.839v2.058c.701-1.253 1.78-2.225 2.762-2.225.89 0 1.354.572 1.354 1.185"/></g></svg>