<svg xmlns="http://www.w3.org/2000/svg" viewBox="0 0 500 500"><g id="freepik--background-simple--inject-5"><path d="M482.12,291.52s3.26-126.85-71.48-186.37c-66-52.53-158.46-62.1-222.38.6-22.77,22.35-35.77,60.65-64,76.43-31.71,17.7-74.33,29.11-97.11,86.56S26.49,391.58,74,420.58s114.87-17.79,180.24-31.1S472.31,449,482.12,291.52Z" style="fill:#FFD63E"></path><path d="M482.12,291.52s3.26-126.85-71.48-186.37c-66-52.53-158.46-62.1-222.38.6-22.77,22.35-35.77,60.65-64,76.43-31.71,17.7-74.33,29.11-97.11,86.56S26.49,391.58,74,420.58s114.87-17.79,180.24-31.1S472.31,449,482.12,291.52Z" style="fill:#fff;opacity:0.7000000000000001"></path></g><g id="freepik--Floor--inject-5"><line x1="38.02" y1="451.13" x2="460.06" y2="451.13" style="fill:none;stroke:#263238;stroke-linecap:round;stroke-linejoin:round"></line></g><g id="freepik--Plants--inject-5"><path d="M56.25,379.59c2.41,1,8.29.9,8.29.9s-1.27-3.84-1.38-4.08c-1.3-2.69-5.38-7.15-8.7-6.69a4,4,0,0,0-3.18,5C51.84,377,54.2,378.7,56.25,379.59Z" style="fill:#263238"></path><path d="M58.3,396.62c2.5.36,7.74-1.17,8.16-1.29a70.17,70.17,0,0,0,3.2,8.8c.72,1.67,1.5,3.33,2.31,5-.48-.7-.92-1.32-1-1.4-2-2.26-7.07-5.47-10.16-4.16a4,4,0,0,0-1.74,5.63c1.14,2.08,3.87,3.1,6.08,3.42s6.74-.9,7.93-1.23c.31.63.62,1.26.94,1.89,1.52,3,3.06,6,4.47,9,.5,1.05,1,2.11,1.41,3.17-.43-.62-.79-1.14-.86-1.22-2-2.25-7.07-5.47-10.16-4.15a4,4,0,0,0-1.74,5.63c1.14,2.07,3.87,3.09,6.08,3.41s6.3-.77,7.71-1.17c.44,1.1.88,2.2,1.25,3.28.23.75.52,1.45.71,2.21l.63,2.23c.34,1.43.71,2.9,1,4.31.22,1,.41,1.91.6,2.85-.48-1.06-1.48-3.11-1.58-3.27-1.59-2.53-6.17-6.49-9.41-5.65a4,4,0,0,0-2.58,5.3c.81,2.22,3.35,3.64,5.49,4.29,2.36.72,7.56.06,8.21,0,.32,1.55.61,3.07.86,4.51.19,1.06.36,2.08.52,3.06h2.09c-.2-1.1-.42-2.24-.66-3.43-.31-1.58-.68-3.27-1.07-5a45,45,0,0,0,4.58-2.16c1.72,1.85,6.11,4,6.68,4.29-.59,1.48-1.19,2.9-1.77,4.24-.3.71-.6,1.37-.9,2h2.21l.52-1.26c.61-1.49,1.24-3.1,1.86-4.76.63.14,5.79,1.17,8.19.63,2.18-.5,4.82-1.73,5.79-3.89a4,4,0,0,0-2.2-5.48c-3.17-1.06-8,2.56-9.79,5-.1.14-1.06,1.81-1.65,2.87.25-.68.5-1.33.75-2,.51-1.39,1-2.78,1.47-4.28l.66-2.22c.24-.73.39-1.54.6-2.32.42-1.81.77-3.67,1.08-5.55,1.21.44,5.53,1.93,7.77,1.77s5-1,6.31-3a4,4,0,0,0-1.34-5.75c-3-1.53-8.31,1.31-10.43,3.42-.13.13-1.48,1.82-2.2,2.76.18-1.13.36-2.26.5-3.41.41-3.32.71-6.7,1-10.06.1-1,.21-2.06.31-3.09.43.16,5.53,2.05,8,1.87,2.23-.16,5-1,6.31-3a4,4,0,0,0-1.34-5.75c-3-1.53-8.31,1.31-10.43,3.42-.16.16-2.1,2.59-2.56,3.23.24-2.26.49-4.51.84-6.73a68.66,68.66,0,0,1,1.91-8.85c.2.08,5.52,2.08,8.09,1.89,2.23-.16,5-1,6.31-3a4,4,0,0,0-1.34-5.75c-3-1.53-8.31,1.31-10.43,3.42-.17.17-2.25,2.78-2.6,3.28.05-.16.09-.34.14-.51a51.1,51.1,0,0,1,3.49-8.38c.76-1.49,1.57-2.87,2.39-4.2.95.47,5.32,2.59,7.65,2.68s5.11-.43,6.6-2.26a4,4,0,0,0-.7-5.86c-2.79-1.85-8.41.39-10.74,2.26-.13.1-1.31,1.28-2.15,2.14.38-.59.76-1.21,1.13-1.77,1.4-2.11,2.81-4,4.07-5.59.73-.92,1.4-1.74,2-2.49,1.18,0,5.92-.18,8-1.15s4.33-2.73,4.81-5.05a4,4,0,0,0-3.32-4.87c-3.33-.36-7.28,4.21-8.49,7-.11.24-1.32,4.12-1.26,4.12h.07c-.63.72-1.3,1.49-2,2.35-1.3,1.61-2.75,3.43-4.2,5.52a68.74,68.74,0,0,0-4.36,7,51.52,51.52,0,0,0-3.72,8.4l0,.11c0-1,0-3.73-.06-3.94-.39-3-2.88-8.47-6.18-9.07a4,4,0,0,0-4.57,3.73c-.19,2.36,1.53,4.72,3.2,6.2,1.88,1.68,7.1,3.3,7.51,3.43a70.29,70.29,0,0,0-2.19,9.1c-.32,1.79-.58,3.61-.82,5.43,0-.85,0-1.61,0-1.71-.39-3-2.88-8.47-6.18-9.08a4,4,0,0,0-4.56,3.74c-.19,2.36,1.52,4.71,3.19,6.2s6.11,3,7.29,3.35c-.09.7-.18,1.4-.26,2.1-.4,3.36-.78,6.72-1.26,10-.16,1.16-.37,2.29-.57,3.43,0-.76,0-1.39,0-1.49-.38-3-2.88-8.47-6.17-9.07A4,4,0,0,0,93,420c-.19,2.36,1.52,4.72,3.19,6.2s5.69,2.84,7.08,3.28c-.24,1.16-.48,2.32-.77,3.43-.21.75-.37,1.49-.62,2.23s-.48,1.48-.71,2.21c-.5,1.38-1,2.81-1.53,4.15-.36.93-.72,1.81-1.07,2.7.17-1.14.48-3.4.48-3.59a15.29,15.29,0,0,0-2.07-7.49,4.34,4.34,0,0,0-.06-.88A4,4,0,0,0,92,428.85c-3.24.86-5.28,6.55-5.43,9.54,0,.17.11,2.1.2,3.31-.16-.7-.31-1.39-.49-2.11-.34-1.43-.73-2.85-1.13-4.38-.22-.73-.45-1.47-.68-2.21s-.52-1.51-.78-2.27c-.64-1.75-1.38-3.49-2.16-5.23,1.25-.3,5.68-1.44,7.46-2.81s3.65-3.59,3.63-5.95a4,4,0,0,0-4.29-4.06c-3.33.37-6.21,5.68-6.81,8.61,0,.19-.23,2.34-.32,3.52-.47-1-1-2.08-1.46-3.12-1.5-3-3.1-6-4.69-9L73.63,410c.45-.11,5.75-1.35,7.74-2.88,1.77-1.36,3.65-3.59,3.63-6a4,4,0,0,0-4.29-4.06c-3.33.37-6.21,5.68-6.81,8.61-.05.22-.32,3.32-.35,4.11-1.06-2-2.09-4-3-6.07a69.88,69.88,0,0,1-3.28-8.44c.21-.05,5.74-1.32,7.78-2.89,1.77-1.36,3.65-3.59,3.63-6a4,4,0,0,0-4.29-4.06c-3.33.37-6.21,5.68-6.81,8.61,0,.23-.34,3.56-.35,4.17,0-.17-.13-.34-.18-.5a51.76,51.76,0,0,1-1.7-8.92c-.19-1.66-.28-3.26-.33-4.82,1-.13,5.87-.78,7.86-2s4-3.17,4.26-5.52a4,4,0,0,0-3.82-4.5c-3.35,0-6.79,5-7.71,7.81,0,.15-.39,1.78-.61,3,0-.7,0-1.43,0-2.1,0-2.54.16-4.86.32-6.91.09-1.17.2-2.22.32-3.2,1-.67,4.84-3.41,6-5.37s2.11-4.66,1.23-6.86A4,4,0,0,0,67.38,353c-3,1.54-3.74,7.54-3.25,10.49,0,.25,1.17,4.16,1.23,4.13l0,0c-.13.94-.25,2-.37,3.07-.2,2.05-.41,4.38-.47,6.92a72.4,72.4,0,0,0,.21,8.21,52,52,0,0,0,1.54,9.07l0,.1c-.53-.82-2.08-3.09-2.22-3.25-2-2.26-7.08-5.47-10.16-4.16a4,4,0,0,0-1.75,5.64C53.36,395.28,56.09,396.3,58.3,396.62Z" style="fill:#263238"></path><path d="M115.73,380.79s1.07-3.91,1.1-4.16c.41-3-.54-8.93-3.56-10.38a4,4,0,0,0-5.39,2.39c-.81,2.23.22,4.95,1.44,6.83C110.75,377.67,115.73,380.79,115.73,380.79Z" style="fill:#263238"></path><path d="M377.63,379.59c2.4,1,8.28.9,8.29.9s-1.27-3.84-1.38-4.08c-1.3-2.69-5.39-7.15-8.71-6.69a4,4,0,0,0-3.17,5C373.21,377,375.58,378.7,377.63,379.59Z" style="fill:#263238"></path><path d="M379.68,396.62c2.5.36,7.74-1.17,8.16-1.29a70.09,70.09,0,0,0,3.19,8.8c.73,1.67,1.51,3.33,2.31,5-.48-.7-.91-1.32-1-1.4-2-2.26-7.08-5.47-10.16-4.16a4,4,0,0,0-1.75,5.63c1.14,2.08,3.87,3.1,6.08,3.42s6.75-.9,7.93-1.23c.32.63.63,1.26.94,1.89,1.53,3,3.06,6,4.48,9,.5,1.05.95,2.11,1.41,3.17l-.86-1.22c-2-2.25-7.08-5.47-10.16-4.15a4,4,0,0,0-1.75,5.63c1.14,2.07,3.87,3.09,6.08,3.41s6.31-.77,7.72-1.17c.43,1.1.87,2.2,1.24,3.28.24.75.52,1.45.72,2.21s.42,1.49.62,2.23c.35,1.43.71,2.9,1,4.31.21,1,.4,1.91.6,2.85-.49-1.06-1.48-3.11-1.58-3.27-1.6-2.53-6.17-6.49-9.41-5.65a4,4,0,0,0-2.59,5.3c.82,2.22,3.36,3.64,5.5,4.29,2.35.72,7.56.06,8.21,0,.32,1.55.61,3.07.86,4.51.19,1.06.36,2.08.52,3.06h2.08c-.2-1.1-.41-2.24-.65-3.43-.31-1.58-.68-3.27-1.07-5a45,45,0,0,0,4.58-2.16c1.71,1.85,6.11,4,6.68,4.29-.6,1.48-1.19,2.9-1.77,4.24-.31.71-.61,1.37-.9,2h2.2l.53-1.26c.61-1.49,1.23-3.1,1.86-4.76.63.14,5.79,1.17,8.19.63,2.18-.5,4.82-1.73,5.79-3.89a4,4,0,0,0-2.2-5.48c-3.18-1.06-8,2.56-9.79,5-.11.14-1.07,1.81-1.66,2.87.25-.68.51-1.33.76-2,.5-1.39,1-2.78,1.47-4.28q.33-1.1.66-2.22c.23-.73.39-1.54.59-2.32.43-1.81.78-3.67,1.09-5.55,1.21.44,5.53,1.93,7.77,1.77s5-1,6.31-3a4,4,0,0,0-1.34-5.75c-3-1.53-8.31,1.31-10.43,3.42-.13.13-1.48,1.82-2.2,2.76.17-1.13.35-2.26.49-3.41.41-3.32.72-6.7,1-10.06.1-1,.21-2.06.32-3.09.43.16,5.53,2.05,8,1.87,2.23-.16,5-1,6.31-3a4,4,0,0,0-1.34-5.75c-3-1.53-8.31,1.31-10.43,3.42-.16.16-2.1,2.59-2.56,3.23.23-2.26.49-4.51.83-6.73a70.39,70.39,0,0,1,1.92-8.85c.2.08,5.52,2.08,8.08,1.89,2.23-.16,5-1,6.32-3a4,4,0,0,0-1.34-5.75c-3-1.53-8.32,1.31-10.44,3.42-.16.17-2.24,2.78-2.59,3.28,0-.16.08-.34.13-.51a51.11,51.11,0,0,1,3.5-8.38c.76-1.49,1.57-2.87,2.38-4.2,1,.47,5.33,2.59,7.66,2.68s5.1-.43,6.6-2.26a4,4,0,0,0-.7-5.86c-2.8-1.85-8.41.39-10.75,2.26-.12.1-1.3,1.28-2.15,2.14.38-.59.76-1.21,1.14-1.77,1.39-2.11,2.81-4,4.07-5.59.72-.92,1.4-1.74,2-2.49,1.17,0,5.91-.18,8-1.15s4.34-2.73,4.82-5.05a4,4,0,0,0-3.32-4.87c-3.33-.36-7.28,4.21-8.5,7-.1.24-1.32,4.12-1.26,4.12H445c-.63.72-1.3,1.49-2,2.35-1.3,1.61-2.76,3.43-4.21,5.52a70.55,70.55,0,0,0-4.35,7,51.52,51.52,0,0,0-3.72,8.4.45.45,0,0,0,0,.11c0-1,0-3.73-.06-3.94-.39-3-2.89-8.47-6.18-9.07a4,4,0,0,0-4.57,3.73c-.19,2.36,1.52,4.72,3.19,6.2,1.88,1.68,7.1,3.3,7.52,3.43a68.68,68.68,0,0,0-2.19,9.1c-.32,1.79-.58,3.61-.82,5.43,0-.85,0-1.61,0-1.71-.39-3-2.88-8.47-6.18-9.08a4,4,0,0,0-4.57,3.74c-.19,2.36,1.53,4.71,3.19,6.2s6.12,3,7.29,3.35c-.08.7-.17,1.4-.26,2.1-.39,3.36-.77,6.72-1.25,10-.17,1.16-.37,2.29-.58,3.43,0-.76,0-1.39,0-1.49-.39-3-2.88-8.47-6.18-9.07a4,4,0,0,0-4.57,3.73c-.18,2.36,1.53,4.72,3.2,6.2s5.68,2.84,7.08,3.28c-.25,1.16-.49,2.32-.77,3.43-.22.75-.37,1.49-.63,2.23s-.47,1.48-.7,2.21c-.51,1.38-1,2.81-1.54,4.15-.35.93-.71,1.81-1.07,2.7.18-1.14.49-3.4.49-3.59a15.42,15.42,0,0,0-2.08-7.49,5.2,5.2,0,0,0-.05-.88,4,4,0,0,0-4.86-3.35c-3.23.86-5.28,6.55-5.42,9.54,0,.17.1,2.1.2,3.31-.17-.7-.32-1.39-.49-2.11-.35-1.43-.73-2.85-1.13-4.38-.23-.73-.45-1.47-.68-2.21s-.52-1.51-.78-2.27c-.65-1.75-1.38-3.49-2.16-5.23,1.25-.3,5.68-1.44,7.46-2.81s3.65-3.59,3.63-5.95a4,4,0,0,0-4.29-4.06c-3.33.37-6.21,5.68-6.81,8.61,0,.19-.24,2.34-.32,3.52-.48-1-1-2.08-1.47-3.12-1.49-3-3.09-6-4.68-9-.49-.91-1-1.83-1.44-2.74.45-.11,5.75-1.35,7.74-2.88,1.77-1.36,3.65-3.59,3.63-6a4,4,0,0,0-4.29-4.06c-3.33.37-6.22,5.68-6.82,8.61,0,.22-.32,3.32-.35,4.11-1.05-2-2.08-4-3-6.07a70,70,0,0,1-3.29-8.44c.21-.05,5.75-1.32,7.79-2.89,1.77-1.36,3.65-3.59,3.63-6a4,4,0,0,0-4.29-4.06c-3.33.37-6.21,5.68-6.81,8.61-.05.23-.35,3.56-.36,4.17-.05-.17-.12-.34-.17-.5a50.87,50.87,0,0,1-1.71-8.92c-.19-1.66-.27-3.26-.33-4.82,1.06-.13,5.88-.78,7.87-2s4-3.17,4.26-5.52a4,4,0,0,0-3.82-4.5c-3.35,0-6.8,5-7.72,7.81,0,.15-.38,1.78-.61,3,0-.7,0-1.43,0-2.1,0-2.54.16-4.86.31-6.91.1-1.17.21-2.22.33-3.2,1-.67,4.84-3.41,6-5.37s2.11-4.66,1.24-6.86a4,4,0,0,0-5.46-2.24c-3,1.54-3.75,7.54-3.25,10.49,0,.25,1.17,4.16,1.22,4.13l.06,0c-.13.94-.26,2-.37,3.07-.21,2.05-.41,4.38-.47,6.92a70.14,70.14,0,0,0,.21,8.21,52,52,0,0,0,1.53,9.07l0,.1c-.53-.82-2.08-3.09-2.22-3.25-2-2.26-7.08-5.47-10.16-4.16a4,4,0,0,0-1.75,5.64C374.74,395.28,377.47,396.3,379.68,396.62Z" style="fill:#263238"></path><path d="M437.11,380.79c.05,0,1.06-3.91,1.1-4.16.41-3-.55-8.93-3.57-10.38a4,4,0,0,0-5.39,2.39c-.8,2.23.23,4.95,1.44,6.83C432.12,377.67,437.1,380.79,437.11,380.79Z" style="fill:#263238"></path></g><g id="freepik--chart-2--inject-5"><path d="M417.57,180.12A35.31,35.31,0,1,0,431.13,248h0l.32-.14,1-.46c.52-.25,1.05-.5,1.56-.77s.94-.52,1.4-.79.91-.54,1.35-.83c.89-.58,1.74-1.18,2.57-1.83l0,0a33.41,33.41,0,0,0,4.62-4.36c.35-.39.68-.79,1-1.21s.55-.69.82-1c.05-.07.11-.16.17-.23.31-.42.61-.85.9-1.28l.83-1.3a.24.24,0,0,1,.06-.09c.26-.45.52-.9.77-1.35,0,0,0,0,0,0,.25-.46.49-.93.71-1.4l.42-.88.39-.9c.21-.49.41-1,.6-1.51,0-.11.08-.22.12-.33.32-.91.61-1.85.86-2.81.09-.32.16-.64.24-1l.18-.81.06-.3c.06-.28.1-.57.16-.85s.12-.68.16-1,.08-.64.13-1l.06-.6c0-.25.06-.51.07-.78s0-.43,0-.66,0-.52,0-.77c0-.42,0-.85,0-1.28A35.31,35.31,0,0,0,417.57,180.12Zm8,54.6a20.63,20.63,0,0,1-8,1.61,20.9,20.9,0,1,1,20.89-20.89,20.66,20.66,0,0,1-2.1,9.13A20.93,20.93,0,0,1,425.6,234.72Z" style="fill:#FFD63E;stroke:#263238;stroke-linecap:round;stroke-linejoin:round"></path><path d="M449.32,230.87c-.22.47-.46.94-.71,1.4,0,0,0,0,0,0-.25.45-.51.9-.77,1.35a.24.24,0,0,0-.06.09l-.83,1.3c-.29.43-.59.86-.9,1.28-.06.07-.12.16-.17.23-.27.36-.54.7-.82,1s-.67.82-1,1.21a35.24,35.24,0,0,1-4.62,4.36l0,0c-.83.64-1.68,1.25-2.57,1.83-.44.29-.9.57-1.35.83s-.93.53-1.4.79c-.95.5-1.93,1-2.92,1.37l-5.53-13.31a20.93,20.93,0,0,0,10.76-10.15Z" style="fill:#fff;stroke:#263238;stroke-linecap:round;stroke-linejoin:round"></path><path d="M452.87,215.44c0,.43,0,.86,0,1.28,0,.25,0,.51,0,.77s0,.44,0,.66,0,.53-.07.78l-.06.6c-.05.32-.08.64-.13,1s-.1.69-.16,1-.1.57-.16.85l-.06.3-.18.81c-.08.32-.15.64-.24,1-.25.95-.54,1.9-.86,2.81,0,.11-.09.22-.12.33-.19.51-.39,1-.6,1.51l-.39.9-.42.88-13-6.3a20.66,20.66,0,0,0,2.1-9.13,20.9,20.9,0,0,0-20.89-20.91V180.12A35.31,35.31,0,0,1,452.87,215.44Z" style="fill:#263238;stroke:#263238;stroke-linecap:round;stroke-linejoin:round"></path><line x1="426.13" y1="265.6" x2="443.4" y2="265.6" style="fill:none;stroke:#263238;stroke-linecap:round;stroke-linejoin:round"></line><line x1="426.13" y1="270.62" x2="443.4" y2="270.62" style="fill:none;stroke:#263238;stroke-linecap:round;stroke-linejoin:round"></line><line x1="443.4" y1="275.63" x2="426.13" y2="275.63" style="fill:none;stroke:#263238;stroke-linecap:round;stroke-linejoin:round"></line><line x1="354.5" y1="205.65" x2="371.77" y2="205.65" style="fill:none;stroke:#263238;stroke-linecap:round;stroke-linejoin:round"></line><line x1="354.5" y1="210.66" x2="371.77" y2="210.66" style="fill:none;stroke:#263238;stroke-linecap:round;stroke-linejoin:round"></line><line x1="371.77" y1="215.68" x2="354.5" y2="215.68" style="fill:none;stroke:#263238;stroke-linecap:round;stroke-linejoin:round"></line><polyline points="437.83 237.75 448.97 248.33 448.97 276.32" style="fill:none;stroke:#263238;stroke-linecap:round;stroke-linejoin:round"></polyline><line x1="391.38" y1="205.68" x2="376.53" y2="205.68" style="fill:none;stroke:#263238;stroke-linecap:round;stroke-linejoin:round"></line></g><g id="freepik--chart-1--inject-5"><rect x="384.71" y="116.93" width="11.25" height="33.74" style="fill:#FFD63E;stroke:#263238;stroke-linecap:round;stroke-linejoin:round"></rect><rect x="400.77" y="105.69" width="11.25" height="44.98" style="fill:#263238;stroke:#263238;stroke-linecap:round;stroke-linejoin:round"></rect><rect x="416.84" y="92.84" width="11.25" height="57.83" style="fill:#FFD63E;stroke:#263238;stroke-linecap:round;stroke-linejoin:round"></rect><rect x="432.9" y="83.73" width="11.25" height="66.94" style="fill:#263238;stroke:#263238;stroke-linecap:round;stroke-linejoin:round"></rect><line x1="385.24" y1="113.19" x2="428.98" y2="72.24" style="fill:none;stroke:#263238;stroke-linecap:round;stroke-linejoin:round;stroke-width:2px"></line><polygon points="431.93 78.08 435.58 66.06 423.34 68.91 431.93 78.08" style="fill:#263238"></polygon></g><g id="freepik--Calendar--inject-5"><path d="M141.86,89.68v66.51H53.64V89.68H64.71V92a1.5,1.5,0,0,0,3,0V89.68H80.49V92a1.49,1.49,0,1,0,3,0V89.68H96.26V92a1.49,1.49,0,0,0,3,0V89.68H112V92a1.49,1.49,0,0,0,3,0V89.68H127.8V92a1.5,1.5,0,0,0,3,0V89.68Z" style="fill:#FFD63E;stroke:#263238;stroke-linecap:round;stroke-linejoin:round"></path><rect x="63.44" y="107.88" width="9.8" height="9.8" style="fill:#fff;stroke:#263238;stroke-linecap:round;stroke-linejoin:round"></rect><rect x="78.14" y="107.88" width="9.8" height="9.8" style="fill:#fff;stroke:#263238;stroke-linecap:round;stroke-linejoin:round"></rect><rect x="92.85" y="107.88" width="9.8" height="9.8" style="fill:#fff;stroke:#263238;stroke-linecap:round;stroke-linejoin:round"></rect><rect x="107.55" y="107.88" width="9.8" height="9.8" style="fill:#fff;stroke:#263238;stroke-linecap:round;stroke-linejoin:round"></rect><rect x="122.25" y="107.88" width="9.8" height="9.8" style="fill:#263238;stroke:#263238;stroke-linecap:round;stroke-linejoin:round"></rect><rect x="63.44" y="123.98" width="9.8" height="9.8" style="fill:#fff;stroke:#263238;stroke-linecap:round;stroke-linejoin:round"></rect><rect x="78.14" y="123.98" width="9.8" height="9.8" style="fill:#fff;stroke:#263238;stroke-linecap:round;stroke-linejoin:round"></rect><rect x="92.85" y="123.98" width="9.8" height="9.8" style="fill:#263238;stroke:#263238;stroke-linecap:round;stroke-linejoin:round"></rect><rect x="107.55" y="123.98" width="9.8" height="9.8" style="fill:#fff;stroke:#263238;stroke-linecap:round;stroke-linejoin:round"></rect><rect x="122.25" y="123.98" width="9.8" height="9.8" style="fill:#fff;stroke:#263238;stroke-linecap:round;stroke-linejoin:round"></rect><rect x="63.44" y="140.09" width="9.8" height="9.8" style="fill:#fff;stroke:#263238;stroke-linecap:round;stroke-linejoin:round"></rect><rect x="78.14" y="140.09" width="9.8" height="9.8" style="fill:#263238;stroke:#263238;stroke-linecap:round;stroke-linejoin:round"></rect><rect x="92.85" y="140.09" width="9.8" height="9.8" style="fill:#fff;stroke:#263238;stroke-linecap:round;stroke-linejoin:round"></rect><rect x="107.55" y="140.09" width="9.8" height="9.8" style="fill:#fff;stroke:#263238;stroke-linecap:round;stroke-linejoin:round"></rect><rect x="122.25" y="140.09" width="9.8" height="9.8" style="fill:#263238;stroke:#263238;stroke-linecap:round;stroke-linejoin:round"></rect><path d="M67.7,83.43V92a1.5,1.5,0,0,1-3,0V83.43a1.5,1.5,0,0,1,3,0Z" style="fill:#263238;stroke:#263238;stroke-linecap:round;stroke-linejoin:round"></path><path d="M83.47,83.43V92a1.49,1.49,0,1,1-3,0V83.43a1.49,1.49,0,1,1,3,0Z" style="fill:#263238;stroke:#263238;stroke-linecap:round;stroke-linejoin:round"></path><path d="M99.24,83.43V92a1.49,1.49,0,0,1-3,0V83.43a1.49,1.49,0,1,1,3,0Z" style="fill:#263238;stroke:#263238;stroke-linecap:round;stroke-linejoin:round"></path><path d="M115,83.43V92a1.49,1.49,0,0,1-3,0V83.43a1.49,1.49,0,1,1,3,0Z" style="fill:#263238;stroke:#263238;stroke-linecap:round;stroke-linejoin:round"></path><path d="M130.79,83.43V92a1.5,1.5,0,0,1-3,0V83.43a1.5,1.5,0,0,1,3,0Z" style="fill:#263238;stroke:#263238;stroke-linecap:round;stroke-linejoin:round"></path></g><g id="freepik--Gears--inject-5"><path d="M109.89,229.37a33,33,0,0,0-.34-4.69l5.85-2.6-2.93-9-6.13,1.3a33.4,33.4,0,0,0-5.89-8.31l3.2-5.55L96,194.93l-4.19,4.65a33.5,33.5,0,0,0-9.66-3.27L81.46,190H72l-.66,6.22a33.74,33.74,0,0,0-9.73,3l-4.28-4.74L49.64,200l3.13,5.43a33.53,33.53,0,0,0-6.1,8.16l-6.25-1.32-2.93,9,5.72,2.55a33.4,33.4,0,0,0-.46,5.51,34.37,34.37,0,0,0,.33,4.68l-5.84,2.61,2.93,9,6.13-1.3a33.4,33.4,0,0,0,5.89,8.31L49,258.24l7.67,5.57,4.19-4.65a33.18,33.18,0,0,0,9.66,3.26l.67,6.37h9.48l.65-6.23a33.1,33.1,0,0,0,9.74-3l4.28,4.75,7.67-5.57-3.13-5.43a34,34,0,0,0,6.1-8.17l6.25,1.33,2.93-9-5.72-2.55A33.28,33.28,0,0,0,109.89,229.37Zm-52.68,0a19.11,19.11,0,1,1,19.11,19.11A19.12,19.12,0,0,1,57.21,229.37Z" style="fill:#263238;stroke:#263238;stroke-linecap:round;stroke-linejoin:round"></path><path d="M155.71,199.1a22.6,22.6,0,0,0-.21-3l3.72-1.66-1.87-5.73-3.9.82a21.17,21.17,0,0,0-3.75-5.29l2-3.53-4.88-3.54-2.67,3a21.11,21.11,0,0,0-6.14-2.08l-.43-4h-6l-.41,4a21.24,21.24,0,0,0-6.2,1.93l-2.72-3-4.88,3.54,2,3.46a21.27,21.27,0,0,0-3.88,5.19l-4-.84L109.63,194l3.64,1.62a21.28,21.28,0,0,0-.29,3.5,22.63,22.63,0,0,0,.21,3l-3.71,1.65,1.86,5.74,3.9-.82A21.43,21.43,0,0,0,119,214l-2,3.53,4.88,3.54,2.67-3a21.17,21.17,0,0,0,6.15,2.08l.42,4.05h6l.41-4a21.24,21.24,0,0,0,6.2-1.93l2.72,3,4.89-3.54-2-3.46a21.2,21.2,0,0,0,3.88-5.19l4,.84,1.87-5.74-3.64-1.62A21.32,21.32,0,0,0,155.71,199.1Zm-33.53,0a12.17,12.17,0,1,1,12.17,12.17A12.17,12.17,0,0,1,122.18,199.1Z" style="fill:#FFD63E;stroke:#263238;stroke-linecap:round;stroke-linejoin:round"></path></g><g id="freepik--Rocket--inject-5"><path d="M152,305.13a109.68,109.68,0,0,0,.58-11.41,95.43,95.43,0,0,0-3.4-26.39L204.68,203a893.64,893.64,0,0,0,.54,102.15Z" style="fill:none;stroke:#263238;stroke-linecap:round;stroke-linejoin:round"></path><path d="M365.63,293.72a109.68,109.68,0,0,0,.58,11.41H311.73a889.36,889.36,0,0,0,.44-103.73L369,267.32A95.45,95.45,0,0,0,365.63,293.72Z" style="fill:none;stroke:#263238;stroke-linecap:round;stroke-linejoin:round"></path><path d="M394.87,293.72A106.68,106.68,0,0,1,393.52,311H367q-.47-2.82-.77-5.87a109.68,109.68,0,0,1-.58-11.41,95.45,95.45,0,0,1,3.4-26.4c2.68-9,6.71-14.79,11.22-14.79C388.32,252.53,394.87,271,394.87,293.72Z" style="fill:none;stroke:#263238;stroke-linecap:round;stroke-linejoin:round"></path><path d="M393.52,311s0,.09,0,.13q-.18,1.1-.39,2.16c-.45,2.36-1,4.58-1.58,6.64H369c-.6-2.06-1.13-4.28-1.58-6.64q-.21-1.07-.39-2.16s0-.09,0-.13Z" style="fill:none;stroke:#263238;stroke-linecap:round;stroke-linejoin:round"></path><path d="M393.52,311s0,.09,0,.13q-.18,1.1-.39,2.16c-.45,2.36-1,4.58-1.58,6.64H369c-.6-2.06-1.13-4.28-1.58-6.64q-.21-1.07-.39-2.16s0-.09,0-.13Z" style="fill:none;stroke:#263238;stroke-linecap:round;stroke-linejoin:round"></path><path d="M206.77,175.93c-.91,9-1.59,18.13-2.09,27a893.64,893.64,0,0,0,.54,102.15c.07,1,.11,1.55.11,1.55H311.62s0-.53.11-1.55a889.36,889.36,0,0,0,.44-103.73c-.65-11.17-1.58-22.57-2.89-33.84a353.19,353.19,0,0,0-6.56-37.73m-2.13-8.91c-2.31-9.18-4.82-17.87-7.37-25.9H223.73c-6.59,20.78-13,46-16.06,72.54m50.8,117.18a33.37,33.37,0,1,1,33.37-33.37A33.37,33.37,0,0,1,258.47,284.74Zm0-84.66a33.38,33.38,0,1,1,24.13-56.44l5.83,8.33a33.41,33.41,0,0,1-30,48.11Z" style="fill:none;stroke:#263238;stroke-linecap:round;stroke-linejoin:round"></path><circle cx="258.47" cy="251.37" r="33.37" transform="translate(-31.42 465.74) rotate(-80.68)" style="fill:none;stroke:#263238;stroke-linecap:round;stroke-linejoin:round"></circle><path d="M291.84,166.7a33.35,33.35,0,1,1-9.24-23.06l5.83,8.33A33.4,33.4,0,0,1,291.84,166.7Z" style="fill:none;stroke:#263238;stroke-linecap:round;stroke-linejoin:round"></path><path d="M235.52,62.12q1.22-3,2.33-5.68l.36-.86.69-1.65,1.12-2.6.5-1.13c.7-1.59,1.32-3,1.85-4.13.07-.17.15-.33.22-.49l.06-.14.34-.73q.51-1.11.84-1.8l.16-.33.41-.85a66.18,66.18,0,0,1,8.12-13.62,7.5,7.5,0,0,1,11.91,0,66.19,66.19,0,0,1,8.11,13.62s.57,1.16,1.58,3.34c.05.12.11.24.17.37.82,1.8,1.91,4.22,3.2,7.21q.25.59.51,1.2c.85,2,1.78,4.21,2.76,6.63.11.26.22.54.33.81.23.55.45,1.1.67,1.67a.87.87,0,0,1,.07.17c.21.51.41,1,.62,1.56l.35.89c1.4,3.58,2.89,7.5,4.41,11.72.26.7.51,1.42.77,2.14.48,1.36,1,2.74,1.45,4.15.16.45.32.91.47,1.37q1.67,4.83,3.32,10.06H255.66" style="fill:none;stroke:#263238;stroke-linecap:round;stroke-linejoin:round"></path><path d="M246.64,95H223.73c.53-1.66,1.05-3.29,1.58-4.89.18-.56.37-1.11.55-1.66,1.18-3.55,2.36-7,3.52-10.19l1.11-3.06c.13-.34.26-.69.38-1q.38-1,.75-2" style="fill:none;stroke:#263238;stroke-linecap:round;stroke-linejoin:round"></path><line x1="255.66" y1="95.02" x2="246.64" y2="95.02" style="fill:none;stroke:#263238;stroke-linecap:round;stroke-linejoin:round"></line><path d="M288.43,152l-5.83-8.33a33.23,33.23,0,1,0,5.83,8.33Zm-30,39.11a24.38,24.38,0,1,1,24.37-24.38A24.38,24.38,0,0,1,258.47,191.08Z" style="fill:none;stroke:#263238;stroke-linecap:round;stroke-linejoin:round"></path><path d="M258.47,218a33.37,33.37,0,1,0,33.37,33.37A33.37,33.37,0,0,0,258.47,218Zm0,57.74a24.37,24.37,0,1,1,24.37-24.37A24.37,24.37,0,0,1,258.47,275.74Z" style="fill:none;stroke:#263238;stroke-linecap:round;stroke-linejoin:round"></path><rect x="205.33" y="306.68" width="106.4" height="30.59" style="fill:none;stroke:#263238;stroke-linecap:round;stroke-linejoin:round"></rect><line x1="219.03" y1="337.26" x2="219.03" y2="307.6" style="fill:none;stroke:#263238;stroke-linecap:round;stroke-linejoin:round"></line><line x1="238.96" y1="337.26" x2="238.96" y2="307.6" style="fill:none;stroke:#263238;stroke-linecap:round;stroke-linejoin:round"></line><line x1="258.89" y1="337.26" x2="258.89" y2="307.6" style="fill:none;stroke:#263238;stroke-linecap:round;stroke-linejoin:round"></line><line x1="278.82" y1="337.26" x2="278.82" y2="307.6" style="fill:none;stroke:#263238;stroke-linecap:round;stroke-linejoin:round"></line><line x1="298.75" y1="337.26" x2="298.75" y2="307.6" style="fill:none;stroke:#263238;stroke-linecap:round;stroke-linejoin:round"></line><path d="M152.57,293.72a109.68,109.68,0,0,1-.58,11.41q-.28,3-.77,5.87H124.69a106.68,106.68,0,0,1-1.35-17.28c0-22.75,6.54-41.19,14.62-41.19,4.51,0,8.54,5.76,11.21,14.8A95.43,95.43,0,0,1,152.57,293.72Z" style="fill:none;stroke:#263238;stroke-linecap:round;stroke-linejoin:round"></path><path d="M151.22,311c-.06.41-.13.81-.2,1.2l-.09.5c-.19,1-.4,2-.62,3-.1.49-.22,1-.34,1.45l-.36,1.4c-.12.46-.25.92-.38,1.36H126.68c-.2-.68-.39-1.37-.57-2.09q-.14-.52-.27-1.08c-.17-.73-.34-1.47-.5-2.23-.07-.38-.15-.77-.23-1.16-.15-.73-.28-1.48-.4-2.24,0,0,0-.09,0-.13Z" style="fill:none;stroke:#263238;stroke-linecap:round;stroke-linejoin:round"></path><path d="M151.23,311c-.07.4-.13.8-.21,1.2l-.09.5c-.19,1-.4,2-.62,3-.1.49-.22,1-.34,1.45l-.36,1.4c-.12.46-.25.92-.38,1.36H126.68c-.2-.68-.39-1.37-.57-2.09q-.14-.52-.27-1.08c-.17-.73-.34-1.47-.5-2.23-.07-.38-.15-.77-.23-1.16-.14-.73-.27-1.48-.4-2.24,0,0,0-.09,0-.13Z" style="fill:none;stroke:#263238;stroke-linecap:round;stroke-linejoin:round"></path></g><g id="freepik--character-2--inject-5"><path d="M300.81,458.17s-1.51,2.08-2.07,2.08a47.53,47.53,0,0,0-6.78,2.07c-1.89.75-3,1.26-1.7,3,4.15,5.47,14.32,6.41,19.6,7.54s8.67,1.13,9.23-2.83-.38-10.93-.38-10.93S308.35,461.19,300.81,458.17Z" style="fill:#fff;stroke:#263238;stroke-linecap:round;stroke-linejoin:round"></path><path d="M319.07,470.17a39.35,39.35,0,0,1-17.5-.88c-7.36-2.16-10.19-4.74-11.26-6.2-.73.5-.91,1.11-.05,2.24,4.15,5.47,14.32,6.41,19.6,7.54S318.45,474,319.07,470.17Z" style="fill:#fff;stroke:#263238;stroke-linecap:round;stroke-linejoin:round"></path><path d="M339.82,457.61s-3.77,3.2-4.52,3.95-4.9,1.14-4.34,3.4,3.77,4,6.41,4.33,9.05,3.39,10.55,3.2,6,.19,6.79-4.14-.38-10.37-.38-10.37Z" style="fill:#fff;stroke:#263238;stroke-linecap:round;stroke-linejoin:round"></path><path d="M345.66,469.1c-3.39-1.13-4.9-1.13-9.61-2.26a12.63,12.63,0,0,1-5.1-2.58,1.51,1.51,0,0,0,0,.7c.57,2.26,3.77,4,6.41,4.33s9.05,3.39,10.55,3.2,6,.19,6.78-4.11C352.51,470.07,348.45,470,345.66,469.1Z" style="fill:#fff;stroke:#263238;stroke-linecap:round;stroke-linejoin:round"></path><path d="M297.42,321s-2.45,21.67-1.32,41.84,4.34,43.72,5.09,50.31,1.7,34.49,1.7,36.19a19.06,19.06,0,0,1-.95,4.52l-1.5,1.13-.38,3.39a53,53,0,0,0,11.12,4.15c5.27,1.13,8.1-.38,8.29-1.7s-.19-4.33-.19-6.78-.38-5.09-.38-7.92.57-32.79.76-36.93.19-7.17.37-10.56,2.45-34.48,2.45-34.48l2.83-5.09s2.07,35.62,3.2,38.63,10.18,51.26,10.93,52.39-1.5,2.07-1.31,3.2,1.88,6.6,1.88,6.6,5.09,2.26,8.29,2.45,4.71-.19,6-2.64a9.79,9.79,0,0,0,1.13-6.22,66.33,66.33,0,0,0-1.32-6.59c-.56-2.64-.37-26.95-1.88-35.06s-4.71-12.81-4.9-19.41,1.88-32.22,1.32-39.38-.19-10.93-1.89-17.34-4.33-13.38-4.33-13.38S319.09,329.65,297.42,321Z" style="fill:#263238;stroke:#263238;stroke-linecap:round;stroke-linejoin:round"></path><path d="M311.43,255.44s-8.55,5.26-12,6.57-9.36,2.3-10,5.59-1.65,8.55-1.65,8.55-6.08,16.1-7.06,19.22-.49,8.05,1.81,9.37,4.93,1.15,7.39.49,8.71-8.54,8.71-8.54-1,17.91-1.48,19.22-2.14,5.75-.66,7.07,19.56,6.74,24.16,6.74,18.57-2.14,20.7-3.62,2.8-1.81,3-4.44-.16-2.13.17-5.75,5.25-26.78,5.91-29.25,4.77-13.47,3.95-18.24-9-13-12.82-14S318,254.13,311.43,255.44Z" style="fill:#FFD63E;stroke:#263238;stroke-linecap:round;stroke-linejoin:round"></path><path d="M315.54,218.14s-4,5.91-3.46,8.05.5,2.79,0,3.45-3.61,2.47-2.79,3.62a26.3,26.3,0,0,0,3.12,3.12s.5,4.93,1.32,5.42,2.13.82,3-2.46,3.45-12.66,3.45-14S320.63,217.15,315.54,218.14Z" style="fill:#fff;stroke:#263238;stroke-linecap:round;stroke-linejoin:round"></path><path d="M321.12,211.73s-7.89.33-8.54,3.12,3.28,5.92,3.94,6.41-1.81,2.47-1.15,4a18.57,18.57,0,0,0,2.14,3.28s-2.14,10.85-2.47,11.34-2.3-5.42-2.63-3.45-.16,3.94-.49,4.93-2.46,4.76-1.48,6.24,1.64,2.14,4.6,1.48l3-.66-.49,5.59,19.39-1.81s-.5-6.73.16-9.36,8.55-12.66,6.41-20.54S325.56,210.58,321.12,211.73Z" style="fill:#fff;stroke:#263238;stroke-linecap:round;stroke-linejoin:round"></path><path d="M343.47,222.25c-2.14-7.89-17.91-11.67-22.35-10.52,0,0-7.89.33-8.54,3.12s3.28,5.92,3.94,6.41-1.81,2.47-1.15,4a18.57,18.57,0,0,0,2.14,3.28s-2.14,10.85-2.47,11.34-2.3-5.42-2.63-3.45-.16,3.94-.49,4.93-2.46,4.76-1.48,6.24,1.64,2.14,4.6,1.48l3-.66s2.47-2,2.63-3.45.33-8.38.49-9.53,1.15-2.63,2.3-2.46a8.12,8.12,0,0,1,1.81,4.76c.33,3.29,1.48,5.1,4.44,5.76a13.43,13.43,0,0,0,7.55-1.13C338.51,239.13,345.5,229.73,343.47,222.25Z" style="fill:#263238;stroke:#263238;stroke-linecap:round;stroke-linejoin:round"></path><path d="M319.31,234.41s1.81-5.43,3.29-3.45,1.15,7.39-.66,8.87S318.66,237,319.31,234.41Z" style="fill:#fff;stroke:#263238;stroke-linecap:round;stroke-linejoin:round"></path><path d="M308.8,257.58s3.61-5.59,7.89-7.07,18.56-1.81,20.86-1.64,3.95,5.58,3.95,5.58Z" style="fill:#FFD63E;stroke:#263238;stroke-linecap:round;stroke-linejoin:round"></path><path d="M297,282.72c.82,5.59,1.64,14,1.64,14l-6.9-20.87" style="fill:none;stroke:#263238;stroke-linecap:round;stroke-linejoin:round"></path><path d="M298.61,296.69s-10.35-.83-13.31-1.81" style="fill:none;stroke:#263238;stroke-linecap:round;stroke-linejoin:round"></path><path d="M299.1,299.81s3,14.46,8.22,20.05" style="fill:none;stroke:#263238;stroke-linecap:round;stroke-linejoin:round"></path><path d="M298.45,304.08s.65,14.46,2.95,17.42" style="fill:none;stroke:#263238;stroke-linecap:round;stroke-linejoin:round"></path><path d="M285.46,281.9s-2.95,0-3.45,1.15,1.48,3.94,1.48,3.94Z" style="fill:#fff;stroke:#263238;stroke-linecap:round;stroke-linejoin:round"></path><path d="M282,284.69s-3.28,1.15-2,2.63a7.91,7.91,0,0,0,2.47,2l1-2.3Z" style="fill:#fff;stroke:#263238;stroke-linecap:round;stroke-linejoin:round"></path><path d="M280,287.32s-1,1.95-.52,2.54a9.22,9.22,0,0,0,2.61,1.42l.38-2Z" style="fill:#fff;stroke:#263238;stroke-linecap:round;stroke-linejoin:round"></path><path d="M279.67,290.38a2,2,0,0,0-.3,1.64c.3.82,1.94,1.42,1.94,1.42l.82-2.16Z" style="fill:none;stroke:#263238;stroke-linecap:round;stroke-linejoin:round"></path></g><g id="freepik--character-1--inject-5"><path d="M257.85,252s-.44-6.23-1.33-4.74-.15,6.67-.15,6.67-3.26-5.49-3.7-3.86S254.3,255,254.3,255s-3.71-2.52-3.71-1.33,1.78,3.85,1.78,3.85l-.74,1.34s1.78.89,2.67.29,3.11-4.3,3.11-4.3Z" style="fill:#fff;stroke:#263238;stroke-linecap:round;stroke-linejoin:round"></path><polygon points="178.11 271.45 156.47 272.78 158.1 305.69 180.18 303.46 178.11 271.45" style="fill:#FFD63E;stroke:#263238;stroke-linecap:round;stroke-linejoin:round"></polygon><path d="M162,271.89s.74-2.07,1.63-2.07,2.52,4.59,1.48,4.59-1.63-2.07-1.63-2.07Z" style="fill:#fff;stroke:#263238;stroke-linecap:round;stroke-linejoin:round"></path><path d="M164.77,270.26s1.48-1.78,2.22-1,1.48,5.34.59,5.19-1.48-2.22-1.48-2.22Z" style="fill:#fff;stroke:#263238;stroke-linecap:round;stroke-linejoin:round"></path><path d="M167,269.22s1.78-1,2.37.45.45,4-.15,4.3-1-.89-1-.89A24,24,0,0,0,167,269.22Z" style="fill:#fff;stroke:#263238;stroke-linecap:round;stroke-linejoin:round"></path><path d="M169.36,269.67s1.93-1.34,2.08,0a6.07,6.07,0,0,1-.45,3.7,1.48,1.48,0,0,1-1.78.6S169.81,270.85,169.36,269.67Z" style="fill:#fff;stroke:#263238;stroke-linecap:round;stroke-linejoin:round"></path><path d="M171.14,314.88s-6.39,16.23-6.39,27.85,12,41.26,12.59,43.59-2.71,13-1.93,18.79,3.48,28.47,3.68,29.83-1.79,27.47-1.79,30,1.93,3.1,3.48,3.29,4.65,0,5.62-.58,2.32-1.55,2.32-1.55a11,11,0,0,0,.59-3.49c.19-2.71,0-11,0-12s2.13-29.25,2.13-29.25.8,28.18.39,36c-.05,1-2.8,10.5-.09,11.47s10.06-.62,12.38-.83c3.63-.33,8.83-3.09,8.05-3.86a7.15,7.15,0,0,0-4.26-2.71c-1.57-.48-6.18-3.38-6.76-5.31s-.16-9.1-.16-10.07,5.95-20.46,6.73-24a199.56,199.56,0,0,0,2.32-23c.2-6.58-.19-10.65.2-13s9.49-18.79,9.29-33.51-4.65-35.84-4.65-35.84Z" style="fill:#fff;stroke:#263238;stroke-linecap:round;stroke-linejoin:round"></path><path d="M189.39,459.78a6.47,6.47,0,0,1-4,2,22,22,0,0,1-7.83-1c-.13,2.1-.21,3.63-.21,4.15,0,2.52,1.93,3.1,3.48,3.29s4.65,0,5.62-.58,2.32-1.55,2.32-1.55a11,11,0,0,0,.59-3.49C189.35,461.94,189.38,460.93,189.39,459.78Z" style="fill:#fff;stroke:#263238;stroke-linecap:round;stroke-linejoin:round"></path><path d="M212.21,464.19a7.15,7.15,0,0,0-4.26-2.71,16,16,0,0,1-3.64-2l.51,2.66s-8.84,1.67-13.77-.55c-.55,3.05-.9,6.73.73,7.32,2.71,1,10.06-.62,12.38-.83C207.79,467.72,213,465,212.21,464.19Z" style="fill:#fff;stroke:#263238;stroke-linecap:round;stroke-linejoin:round"></path><path d="M183,260.48s-14.38,4.74-14.53,6.22-10.67,33.65-11.26,35-.74,2.38,1.18,3.86,4,5.33,7.12,4.59,5.48-3.7,6.08-4.74a8.45,8.45,0,0,0,1-3.11A47.29,47.29,0,0,1,174,296.5c.29-.6.44,5.93-.3,8.74s-3.56,8.3-2.52,9.64a12.18,12.18,0,0,0,3.56,2.52s5.48,2.52,19.12,2.52,19.86-.3,21.05-1.19,1-2.67,1.18-4.15-1.48-11-1.33-11.71,1.19-6.82,1.19-6.82,10.82,12,14.82,11.71a6.27,6.27,0,0,0,5.33-3.26l15.42-40.17s2.52-1.78,3.56-2.67,4-6.82,4.44-8.59a13.71,13.71,0,0,0,.15-5.49c-.29-1.33-1.18.74-1.33,1.93s-.45,2.52-.45,2.52-2.37,4.74-2.81,5.19a23.18,23.18,0,0,1-3.41,1.63s3.11-4.15,3.26-5.19.89-3-.59-1.63a28.08,28.08,0,0,0-3.56,4.74s-4.3,2.82-4.45,4-1,4.15-1,4.6-14.37,23.57-14.37,23.57l-4.9-7.27s-3.11-12-5.92-13.63-8.16-2.52-8.16-2.52-10.82-6.38-15.86-7.41S183,260.48,183,260.48Z" style="fill:#fff;stroke:#263238;stroke-linecap:round;stroke-linejoin:round"></path><line x1="173.96" y1="296.5" x2="170.99" y2="277.67" style="fill:none;stroke:#263238;stroke-linecap:round;stroke-linejoin:round"></line><path d="M214.5,227.46a9.69,9.69,0,0,1,1.57,4.81c.27,3.13-.22,6.29.27,7.09s3.17,1.85,2.72,3.17-2.6,2.58-2.6,2.58-.14,6-1.31,7.46-7,.24-7,.24l-1.93,7.07L190.71,255s2-.72.58-5.56a28.43,28.43,0,0,0-2.37-6.3s-.69-8.2,9.36-13.43S214.5,227.46,214.5,227.46Z" style="fill:#fff;stroke:#263238;stroke-linecap:round;stroke-linejoin:round"></path><path d="M214.46,237.79c.16,1,0,1.87-.37,1.93s-.79-.71-1-1.72,0-1.88.36-1.94S214.29,236.78,214.46,237.79Z" style="fill:#263238"></path><path d="M211.17,234.78s1.73-2.38,3.32-.78" style="fill:none;stroke:#263238;stroke-linecap:round;stroke-linejoin:round"></path><path d="M214.93,246.38a3.53,3.53,0,0,1-3-1.27" style="fill:none;stroke:#263238;stroke-linecap:round;stroke-linejoin:round"></path><path d="M209,232.08s-2.36,5.57-4,6.55a17.73,17.73,0,0,1-2.57,1.36A52.59,52.59,0,0,1,197,247.8c-2.56,2.73-2.38,2.23-4.17,1.73s-6.31-2.95-9.34-8.79S181,226,187.78,221.18s18.92-5,22.76-4.21,8.2,3.88,7.61,7.21S212.6,231.1,209,232.08Z" style="fill:#263238;stroke:#263238;stroke-linecap:round;stroke-linejoin:round"></path><path d="M204.72,241.75s-3-5.7-4.55-2.6.94,8,3,7.21" style="fill:#fff;stroke:#263238;stroke-linecap:round;stroke-linejoin:round"></path><ellipse cx="180.22" cy="235.18" rx="10.15" ry="8.45" transform="translate(-74.73 386.16) rotate(-83.17)" style="fill:#263238;stroke:#263238;stroke-linecap:round;stroke-linejoin:round"></ellipse><path d="M183,260.48s2.37-4.6,3.7-5.34,7.12-1.48,13.2,0,10.37,5.93,11,7.71a23,23,0,0,0,1,2.67s-13.93-5.34-18.52-5.93S183,260.48,183,260.48Z" style="fill:#fff;stroke:#263238;stroke-linecap:round;stroke-linejoin:round"></path><polyline points="217.83 276.93 215.91 296.05 219.76 285.38" style="fill:none;stroke:#263238;stroke-linecap:round;stroke-linejoin:round"></polyline><line x1="230.88" y1="288.94" x2="234.14" y2="293.24" style="fill:none;stroke:#263238;stroke-linecap:round;stroke-linejoin:round"></line><path d="M258.3,249.51c-.15,1.18-.45,2.52-.45,2.52s-2.37,4.74-2.81,5.19a23.18,23.18,0,0,1-3.41,1.63s3.11-4.15,3.26-5.19.89-3-.59-1.63a28.08,28.08,0,0,0-3.56,4.74s-4.3,2.82-4.45,4-1,4.15-1,4.6c0,.27-5.31,8.93-9.48,15.67l8,3.42,7.73-20.13s2.52-1.78,3.56-2.67,4-6.82,4.44-8.59a13.71,13.71,0,0,0,.15-5.49C259.34,246.25,258.45,248.32,258.3,249.51Z" style="fill:#fff;stroke:#263238;stroke-linecap:round;stroke-linejoin:round"></path><path d="M219.57,352.61c-.19-14.72-4.65-35.84-4.65-35.84l-43.78-1.89s-6.39,16.23-6.39,27.85,12,41.26,12.59,43.59-2.71,13-1.93,18.79c.53,4,2,15.85,2.88,23.38a38.27,38.27,0,0,0,12.58,1.16c.34-4.67.62-8.27.62-8.27s0,3.52.09,8.35A24,24,0,0,0,205.35,431c1.17-4.17,2.14-7.68,2.41-8.86a199.56,199.56,0,0,0,2.32-23c.2-6.58-.19-10.65.2-13S219.77,367.33,219.57,352.61Z" style="fill:#263238;stroke:#263238;stroke-linecap:round;stroke-linejoin:round"></path><path d="M184.5,348.67l6.63,2.13s3,37.6,2.77,40.38-4.83,17.89-2.42,30.2" style="fill:none;stroke:#fff;stroke-linecap:round;stroke-linejoin:round"></path></g></svg>
