<svg width="180" height="184" viewBox="0 0 180 184" fill="none" xmlns="http://www.w3.org/2000/svg">
<path opacity="0.1" d="M30.5174 122.877C42.2339 151.583 69.9514 172.879 100.361 176.609C165.099 183.02 160.662 108.748 113.809 83.8366C65.0601 48.3224 -18.7245 75.4773 42.6004 136.031" fill="#A558A0"/>
<path d="M127.653 95.4499C129.396 95.7468 131.006 96.567 132.271 97.8015C133.536 99.0361 134.395 100.626 134.735 102.361C134.916 103.537 134.973 104.729 134.905 105.917C134.864 106.184 134.917 106.456 135.055 106.687C135.194 106.919 135.408 107.095 135.662 107.185C136.848 107.66 137.857 108.49 138.552 109.561C139.247 110.633 139.593 111.893 139.543 113.169C139.543 115.364 139.543 117.56 139.543 119.755C139.589 120.101 139.555 120.452 139.443 120.782C139.331 121.112 139.144 121.411 138.897 121.657C138.65 121.902 138.349 122.087 138.019 122.197C137.688 122.307 137.337 122.339 136.992 122.291C126.138 122.291 115.274 122.291 104.399 122.291C104.079 122.337 103.752 122.314 103.442 122.223C103.131 122.132 102.843 121.975 102.599 121.763C102.354 121.551 102.158 121.289 102.023 120.995C101.889 120.701 101.819 120.381 101.819 120.057C101.819 119.733 101.889 119.413 102.023 119.119C102.158 118.824 102.354 118.562 102.599 118.35C102.843 118.138 103.131 117.982 103.442 117.891C103.752 117.8 104.079 117.776 104.399 117.823H134.982C134.982 116.076 135.059 114.375 134.982 112.689C134.941 112.275 134.75 111.889 134.446 111.605C134.142 111.32 133.744 111.156 133.328 111.143C132.921 111.12 132.513 111.12 132.106 111.143H55.8965C53.4072 111.143 52.897 111.654 52.897 114.143V117.869H83.0468C83.4176 117.846 83.7894 117.846 84.1601 117.869C84.7014 117.933 85.2004 118.194 85.5625 118.601C85.9246 119.009 86.1246 119.535 86.1246 120.08C86.1246 120.625 85.9246 121.151 85.5625 121.559C85.2004 121.966 84.7014 122.227 84.1601 122.291C83.8255 122.314 83.4897 122.314 83.1551 122.291H51.3508C49.1398 122.291 48.4286 121.58 48.4286 119.338C48.4286 117.096 48.4286 115.241 48.4286 113.153C48.3887 111.877 48.7368 110.619 49.427 109.546C50.1171 108.472 51.1168 107.633 52.294 107.139C52.5478 107.055 52.765 106.886 52.9087 106.661C53.0524 106.435 53.1138 106.167 53.0825 105.902C53.0095 104.714 53.0614 103.522 53.2371 102.346C53.5238 100.759 54.2584 99.2865 55.3542 98.103C56.4499 96.9196 57.8613 96.0741 59.4217 95.6664L60.0556 95.4654C60.154 95.4247 60.2474 95.3728 60.334 95.3108V94.0275C60.334 82.4314 60.334 70.8353 60.334 59.2237C60.2203 54.5717 61.1054 49.9495 62.9298 45.6686C64.7541 41.3878 67.4753 37.5479 70.9096 34.408C80.4957 25.5795 91.829 22.8892 104.229 26.8319C116.629 30.7746 124.082 39.4948 126.942 52.1114C127.446 54.5628 127.684 57.0614 127.653 59.5638C127.653 71.0672 127.653 82.555 127.653 94.0584V95.4499ZM100.503 95.2489H101.863C108.45 95.2489 115.037 95.2489 121.623 95.2489C122.767 95.2489 123.061 94.9552 123.061 93.8265C123.061 82.3231 123.061 70.8353 123.061 59.3319C123.086 57.142 122.884 54.9555 122.458 52.8072C121.484 48.1676 119.388 43.8374 116.353 40.1956C113.318 36.5538 109.437 33.7114 105.049 31.9171C100.661 30.1229 95.9002 29.4315 91.1831 29.9034C86.466 30.3754 81.9365 31.9964 77.991 34.6245C74.0423 37.0723 70.783 40.4866 68.5213 44.5448C66.2595 48.6029 65.07 53.1708 65.0652 57.8167C64.8332 69.9076 65.0652 81.9984 64.9724 94.0893C64.9724 94.9552 65.2043 95.2489 66.1011 95.2489C72.9041 95.2489 79.7226 95.2489 86.5257 95.2489C86.8369 95.2248 87.1467 95.1835 87.4534 95.1252V93.8729C87.4534 89.2344 87.4534 84.596 87.4534 79.9575C87.4875 79.5795 87.4194 79.1992 87.2562 78.8565C87.093 78.5138 86.8407 78.2212 86.5257 78.0094C84.3139 76.3025 82.7606 73.8831 82.1291 71.1616C81.4976 68.4401 81.8268 65.5839 83.061 63.0775C84.2951 60.571 86.3581 58.5685 88.9002 57.4096C91.4424 56.2507 94.3071 56.0067 97.0086 56.7189C99.2072 57.2109 101.213 58.3376 102.777 59.9593C104.341 61.581 105.394 63.6262 105.806 65.8412C106.353 68.1046 106.216 70.4792 105.412 72.6646C104.608 74.8499 103.174 76.7477 101.291 78.1176C101.021 78.3003 100.803 78.5506 100.659 78.8435C100.516 79.1364 100.451 79.4618 100.472 79.7875C100.472 84.3486 100.472 88.9252 100.472 93.5018L100.503 95.2489ZM130.328 106.551C130.429 105.389 130.429 104.22 130.328 103.057C129.957 101.001 128.163 99.8564 125.612 99.8564H62.4367C62.0299 99.8329 61.6221 99.8329 61.2153 99.8564C60.3947 99.9202 59.6165 100.246 58.9956 100.786C58.3747 101.327 57.9441 102.052 57.7674 102.856C57.569 104.088 57.481 105.335 57.5045 106.582L130.328 106.551ZM95.818 95.2335C95.818 94.7542 95.818 94.3058 95.818 93.8729C95.818 88.6623 95.818 83.4673 95.818 78.2568C95.7588 77.6208 95.8979 76.9821 96.2163 76.4284C96.5346 75.8747 97.0167 75.4332 97.5961 75.1645C98.8583 74.4973 99.8955 73.4723 100.578 72.2181C101.26 70.9639 101.556 69.5362 101.431 68.114C101.334 66.3114 100.584 64.6058 99.3199 63.3165C98.0562 62.0273 96.366 61.2428 94.5657 61.11C92.8428 60.9587 91.1205 61.4064 89.6893 62.3776C88.2582 63.3487 87.2058 64.7837 86.7099 66.4406C86.2139 68.0975 86.3047 69.8747 86.9668 71.4725C87.629 73.0702 88.822 74.3906 90.3447 75.2108C90.9006 75.4553 91.3672 75.8661 91.6801 76.3866C91.9929 76.9072 92.1368 77.5119 92.0918 78.1176C92.0918 83.39 92.0918 88.6778 92.0918 93.9656C92.0918 94.3831 92.0918 94.816 92.1846 95.2489L95.818 95.2335Z" fill="#A558A0"/>
<path d="M45.9084 60.6768C47.2536 60.6768 48.5833 60.6768 49.913 60.6768C50.5035 60.6768 51.0698 60.9113 51.4873 61.3289C51.9048 61.7464 52.1394 62.3127 52.1394 62.9032C52.1394 63.4937 51.9048 64.06 51.4873 64.4776C51.0698 64.8951 50.5035 65.1297 49.913 65.1297C47.2072 65.1297 44.486 65.1297 41.7802 65.1297C41.1897 65.1297 40.6234 64.8951 40.2059 64.4776C39.7883 64.06 39.5538 63.4937 39.5538 62.9032C39.5538 62.3127 39.7883 61.7464 40.2059 61.3289C40.6234 60.9113 41.1897 60.6768 41.7802 60.6768H45.893H45.9084Z" fill="#A558A0"/>
<path d="M142.233 60.6773C143.563 60.6773 144.908 60.6773 146.238 60.6773C146.828 60.6773 147.395 60.9119 147.812 61.3294C148.23 61.747 148.464 62.3133 148.464 62.9038C148.464 63.4943 148.23 64.0606 147.812 64.4781C147.395 64.8957 146.828 65.1302 146.238 65.1302C143.455 65.1302 140.672 65.1302 137.889 65.1302C137.298 65.1302 136.732 64.8957 136.314 64.4781C135.897 64.0606 135.662 63.4943 135.662 62.9038C135.662 62.3133 135.897 61.747 136.314 61.3294C136.732 60.9119 137.298 60.6773 137.889 60.6773C139.419 60.6464 140.826 60.6773 142.233 60.6773Z" fill="#A558A0"/>
<path d="M59.1899 41.1805C59.1815 41.5471 59.0864 41.9064 58.9123 42.2291C58.7383 42.5517 58.4902 42.8285 58.1884 43.0368C57.8866 43.245 57.5398 43.3787 57.1763 43.4269C56.8129 43.4751 56.4432 43.4365 56.0976 43.3142C53.3764 41.8918 50.717 40.3147 48.0885 38.6758C47.6839 38.3391 47.4136 37.8682 47.3271 37.349C47.2405 36.8297 47.3434 36.2967 47.617 35.8469C47.8906 35.3972 48.3167 35.0608 48.8176 34.8989C49.3185 34.737 49.8609 34.7605 50.3459 34.965C52.9898 36.4029 55.5873 37.8873 58.0766 39.4643C58.6178 39.8354 58.8343 40.6085 59.1899 41.1805Z" fill="#A558A0"/>
<path d="M128.766 41.0104C129.141 40.376 129.61 39.8025 130.158 39.3096C132.524 37.8562 134.951 36.4802 137.378 35.135C137.63 34.9747 137.912 34.8674 138.206 34.8195C138.5 34.7716 138.802 34.7842 139.091 34.8566C139.38 34.9289 139.652 35.0595 139.889 35.2402C140.126 35.421 140.324 35.6483 140.471 35.9081C140.625 36.1659 140.726 36.4525 140.765 36.7504C140.805 37.0482 140.784 37.3511 140.703 37.6405C140.622 37.9299 140.483 38.1998 140.294 38.4336C140.105 38.6674 139.871 38.8603 139.605 39.0004C137.177 40.4383 134.75 41.8608 132.276 43.1904C131.906 43.3797 131.493 43.47 131.078 43.4527C130.663 43.4354 130.259 43.3111 129.906 43.0918C129.552 42.8724 129.262 42.5655 129.062 42.2008C128.863 41.8361 128.761 41.4261 128.766 41.0104Z" fill="#A558A0"/>
<path d="M64.6014 16.8596C65.1116 16.3184 65.5445 15.4835 66.1475 15.3134C66.5201 15.1971 66.9143 15.1673 67.3001 15.2262C67.6859 15.2852 68.0532 15.4313 68.374 15.6536C70.4922 17.8491 72.4713 20.1683 74.4039 22.5184C74.6821 22.9667 74.7895 23.5002 74.7066 24.0212C74.6237 24.5422 74.3559 25.0159 73.9524 25.3556C73.5488 25.6954 73.0364 25.8785 72.5088 25.8714C71.9813 25.8643 71.474 25.6675 71.0797 25.317C69.0543 23.0905 67.0907 20.8022 65.158 18.4985C64.8942 17.9819 64.7067 17.4299 64.6014 16.8596V16.8596Z" fill="#A558A0"/>
<path d="M123.231 17.5088C123.011 18.0086 122.742 18.4851 122.427 18.9312C120.742 20.9257 119.026 22.8739 117.309 24.8375C117.134 25.1033 116.904 25.329 116.634 25.4995C116.365 25.67 116.063 25.7816 115.747 25.8269C115.432 25.8721 115.11 25.8501 114.804 25.7622C114.498 25.6743 114.213 25.5225 113.97 25.3168C113.724 25.102 113.526 24.837 113.391 24.5397C113.256 24.2423 113.186 23.9195 113.186 23.5929C113.186 23.2662 113.256 22.9434 113.391 22.646C113.526 22.3487 113.724 22.0837 113.97 21.8689C115.717 19.8434 117.48 17.818 119.242 15.8235C119.533 15.449 119.94 15.1819 120.399 15.0643C120.858 14.9467 121.343 14.9853 121.778 15.1741C122.23 15.367 122.613 15.6945 122.873 16.1122C123.133 16.5299 123.258 17.0175 123.231 17.5088V17.5088Z" fill="#A558A0"/>
<path d="M91.7672 14.1538C91.7672 12.8859 91.7672 11.6335 91.7672 10.3657C91.7524 10.0589 91.8004 9.75246 91.9082 9.46492C92.016 9.17738 92.1814 8.91487 92.3942 8.69343C92.6069 8.47199 92.8626 8.29628 93.1456 8.17706C93.4286 8.05785 93.7329 7.99762 94.04 8.00007C94.3378 8.00592 94.6314 8.07147 94.9034 8.19282C95.1754 8.31417 95.4203 8.48887 95.6236 8.70657C95.8269 8.92426 95.9844 9.18053 96.0868 9.4602C96.1893 9.73987 96.2346 10.0373 96.2201 10.3348C96.2201 12.9014 96.2201 15.468 96.2201 18.0655C96.2201 18.656 95.9855 19.2223 95.568 19.6398C95.1504 20.0574 94.5841 20.292 93.9936 20.292C93.4031 20.292 92.8368 20.0574 92.4193 19.6398C92.0017 19.2223 91.7672 18.656 91.7672 18.0655C91.7362 16.7513 91.7672 15.4525 91.7672 14.1538Z" fill="#A558A0"/>
<path d="M91.7517 120.003C91.7598 119.423 91.9968 118.871 92.411 118.465C92.8252 118.06 93.383 117.834 93.9627 117.838C94.5532 117.838 95.1195 118.073 95.537 118.491C95.9545 118.908 96.1891 119.474 96.1891 120.065C96.1891 120.655 95.9545 121.222 95.537 121.639C95.1195 122.057 94.5532 122.291 93.9627 122.291C93.6657 122.292 93.3717 122.232 93.0983 122.116C92.8249 122 92.5776 121.83 92.3713 121.617C92.1649 121.403 92.0037 121.15 91.8972 120.873C91.7908 120.596 91.7413 120.3 91.7517 120.003V120.003Z" fill="#A558A0"/>
<path d="M151 114.931V121.858H150.845V114.916L151 114.931Z" fill="#A558A0"/>
<path d="M100.518 95.249V93.5792C100.518 88.9407 100.518 84.426 100.518 79.8649C100.497 79.5392 100.562 79.2138 100.706 78.9209C100.85 78.628 101.067 78.3777 101.338 78.195C103.221 76.8251 104.655 74.9273 105.458 72.742C106.262 70.5566 106.399 68.182 105.853 65.9186C105.441 63.7036 104.387 61.6584 102.823 60.0367C101.259 58.415 99.2536 57.2883 97.055 56.7964C94.3441 56.0603 91.4615 56.2898 88.9013 57.4457C86.3411 58.6015 84.2624 60.6117 83.0216 63.1318C81.7807 65.6519 81.4548 68.5251 82.0997 71.2592C82.7447 73.9932 84.3203 76.4178 86.5566 78.1177C86.8716 78.3295 87.1239 78.6221 87.2871 78.9648C87.4503 79.3075 87.5184 79.6878 87.4843 80.0659C87.4843 84.7043 87.4843 89.3427 87.4843 93.9812V95.1253C87.1617 95.1749 86.8364 95.2059 86.5102 95.2181C79.7072 95.2181 72.8887 95.2181 66.0856 95.2181C65.1889 95.2181 64.9415 94.9243 64.9569 94.0585C64.9569 81.9676 64.8178 69.8768 65.0497 57.7859C65.0545 53.14 66.244 48.5721 68.5058 44.514C70.7675 40.4558 74.0268 37.0415 77.9755 34.5937C81.921 31.9656 86.4505 30.3446 91.1676 29.8726C95.8847 29.4007 100.646 30.092 105.034 31.8863C109.422 33.6805 113.303 36.523 116.338 40.1648C119.373 43.8066 121.469 48.1368 122.443 52.7764C122.868 54.9246 123.07 57.1112 123.046 59.3011C123.046 70.8044 123.046 82.2923 123.046 93.7956C123.046 94.9243 122.752 95.2336 121.608 95.2181C115.021 95.2181 108.435 95.2181 101.848 95.2181L100.518 95.249Z" fill="white"/>
<path d="M130.344 106.552H57.5046C57.4811 105.305 57.569 104.057 57.7674 102.826C57.9588 102.046 58.39 101.346 59.0003 100.825C59.6105 100.303 60.3691 99.9865 61.1689 99.919C61.5758 99.8955 61.9836 99.8955 62.3904 99.919H125.551C128.102 99.919 129.895 101.063 130.266 103.12C130.389 104.259 130.415 105.408 130.344 106.552V106.552Z" fill="white"/>
<path d="M95.8336 95.2336H92.1847C92.1847 94.8007 92.1074 94.3678 92.0919 93.9503C92.0919 88.6625 92.0919 83.3747 92.0919 78.1023C92.1506 77.4944 92.0183 76.8832 91.7135 76.3539C91.4087 75.8246 90.9464 75.4035 90.3911 75.1492C88.8685 74.3289 87.6755 73.0085 87.0133 71.4108C86.3511 69.8131 86.2604 68.0358 86.7563 66.3789C87.2523 64.7221 88.3047 63.287 89.7358 62.3159C91.1669 61.3448 92.8893 60.8971 94.6121 61.0483C96.4125 61.1811 98.1027 61.9656 99.3663 63.2548C100.63 64.5441 101.38 66.2497 101.477 68.0524C101.603 69.4745 101.306 70.9022 100.624 72.1564C99.942 73.4107 98.9048 74.4356 97.6426 75.1028C97.0631 75.3715 96.5811 75.813 96.2627 76.3667C95.9443 76.9204 95.8052 77.5591 95.8645 78.1951C95.8645 83.4056 95.8645 88.6007 95.8645 93.8112C95.8954 94.3059 95.8645 94.7543 95.8336 95.2336Z" fill="white"/>
</svg>
