<svg width="180" height="184" viewBox="0 0 180 184" fill="none" xmlns="http://www.w3.org/2000/svg">
<path opacity="0.1" d="M27.8892 111.387C40.0633 140.883 68.8636 162.765 100.461 166.599C167.727 173.186 163.118 96.8693 114.434 71.2725C63.7812 34.7808 -23.2762 62.6831 40.4442 124.903" fill="#F3AC3F"/>
<path d="M90.3767 80.7627H59.9663C57.2454 80.7627 56.3651 79.5783 57.1494 76.9374L73.3629 22.0708C73.9231 20.1822 74.5153 19.75 76.564 19.75H105.054C107.631 19.75 108.575 21.1745 107.583 23.6073C106.702 25.768 105.822 27.9448 104.926 30.1215C104.029 32.2983 103.037 32.7304 101.564 32.1062C100.092 31.482 99.8199 30.2816 100.588 28.4089L102.061 24.7597C102.071 24.664 102.071 24.5674 102.061 24.4716H77.5243C72.4666 41.5654 67.3822 58.7766 62.2711 76.1051H92.5854C95.0823 76.1051 95.9626 77.1615 95.4664 79.5783C93.1296 90.9849 90.7875 102.402 88.44 113.83C88.358 114.29 88.358 114.762 88.44 115.222L120.019 60.948H118.498C109.535 60.948 100.556 60.948 91.5931 60.948C91.0885 61.0411 90.5676 60.9833 90.0957 60.7819C89.6237 60.5804 89.2217 60.2442 88.9398 59.8155C88.6579 59.3867 88.5088 58.8843 88.511 58.3712C88.5132 57.858 88.6666 57.357 88.9522 56.9306C90.2326 54.2257 91.225 51.3768 92.3934 48.6238C92.5061 48.2305 92.7221 47.8746 93.019 47.5932C93.3159 47.3118 93.6829 47.115 94.0816 47.0235C94.4803 46.932 94.8963 46.949 95.2862 47.0729C95.6762 47.1967 96.0258 47.4227 96.2987 47.7275C96.6449 48.0702 96.871 48.5157 96.9431 48.9974C97.0152 49.4792 96.9295 49.9714 96.6988 50.4004C95.9306 52.273 95.0983 54.1457 94.314 56.2424H95.7705C104.942 56.2424 114.097 56.2424 123.268 56.2424C125.957 56.2424 127.013 58.2751 125.701 60.5319C112.192 83.6117 98.7368 106.713 85.335 129.835C84.4867 131.324 83.5744 131.836 82.406 131.516C82.108 131.441 81.8286 131.306 81.5848 131.119C81.341 130.932 81.138 130.697 80.9881 130.428C80.8383 130.16 80.7448 129.864 80.7134 129.559C80.6819 129.253 80.7133 128.944 80.8054 128.651C81.5737 124.65 82.406 120.648 83.2222 116.663C85.6444 104.926 88.0559 93.1883 90.4567 81.4509C90.4511 81.2196 90.4243 80.9892 90.3767 80.7627V80.7627Z" fill="#F3AC3F"/>
<path d="M42.6164 44.926C43.0628 45.0646 43.4966 45.2413 43.9128 45.4542C46.4843 46.916 49.0452 48.3885 51.5954 49.8717C51.9095 49.9964 52.1937 50.186 52.4294 50.4281C52.6652 50.6702 52.8472 50.9593 52.9635 51.2766C53.0799 51.5938 53.1279 51.9321 53.1045 52.2692C53.0811 52.6063 52.9869 52.9347 52.8278 53.2328C52.1076 54.5133 50.7631 54.8333 49.2266 53.889C46.5697 52.3685 43.8968 50.832 41.2239 49.2795C40.7594 49.0361 40.3911 48.6425 40.1789 48.1629C39.9667 47.6833 39.9232 47.146 40.0555 46.6386C40.2243 46.1047 40.5699 45.6442 41.0354 45.3329C41.5009 45.0216 42.0585 44.8781 42.6164 44.926Z" fill="#F3AC3F"/>
<path d="M143.323 47.3904C142.967 48.065 142.502 48.6762 141.946 49.199C139.161 50.9116 136.328 52.5121 133.479 54.1127C133.215 54.2779 132.919 54.3864 132.61 54.4315C132.301 54.4765 131.986 54.4571 131.686 54.3743C131.385 54.2916 131.104 54.1475 130.862 53.9509C130.62 53.7543 130.421 53.5097 130.278 53.2324C130.123 52.9746 130.022 52.688 129.98 52.39C129.939 52.0919 129.959 51.7886 130.038 51.4984C130.117 51.2081 130.255 50.9369 130.442 50.7013C130.629 50.4656 130.862 50.2704 131.126 50.1273C133.959 48.4468 136.808 46.7662 139.705 45.1976C140.084 45.0168 140.502 44.933 140.921 44.9538C141.34 44.9746 141.747 45.0995 142.106 45.317C142.465 45.5346 142.764 45.838 142.976 46.1999C143.189 46.5619 143.308 46.971 143.323 47.3904V47.3904Z" fill="#F3AC3F"/>
<path d="M50.6191 96.8637C51.1396 96.8182 51.6599 96.9522 52.0938 97.2433C52.5276 97.5345 52.8488 97.9653 53.0039 98.4642C53.1804 98.9604 53.1724 99.5036 52.9813 99.9944C52.7903 100.485 52.429 100.891 51.9635 101.137C49.7548 102.466 47.514 103.73 45.2893 105.01C44.649 105.379 44.0408 105.779 43.3846 106.083C42.8491 106.36 42.2261 106.414 41.6507 106.234C41.0753 106.055 40.5941 105.655 40.3116 105.122C40.1615 104.874 40.0623 104.598 40.0197 104.311C39.9771 104.024 39.992 103.731 40.0634 103.449C40.1349 103.168 40.2616 102.904 40.436 102.672C40.6105 102.439 40.8293 102.244 41.0798 102.097C43.9608 100.385 46.8578 98.7363 49.7708 97.0878C50.039 96.966 50.3257 96.8902 50.6191 96.8637V96.8637Z" fill="#F3AC3F"/>
<path d="M132.519 96.8635C132.851 96.9304 133.173 97.0379 133.479 97.1836C136.28 98.7842 139.097 100.385 141.866 101.985C142.153 102.126 142.408 102.325 142.614 102.569C142.821 102.813 142.974 103.097 143.066 103.404C143.157 103.71 143.185 104.032 143.146 104.349C143.107 104.667 143.003 104.973 142.841 105.248C142.678 105.523 142.461 105.762 142.201 105.949C141.942 106.136 141.647 106.268 141.335 106.336C141.022 106.404 140.699 106.406 140.386 106.343C140.072 106.281 139.775 106.154 139.513 105.971C136.728 104.37 133.975 102.769 131.222 101.169C130.753 100.932 130.383 100.538 130.175 100.055C129.967 99.5721 129.936 99.0316 130.086 98.5281C130.244 98.0165 130.57 97.5735 131.012 97.2712C131.454 96.969 131.985 96.8252 132.519 96.8635V96.8635Z" fill="#F3AC3F"/>
<path d="M39.5593 77.9773C37.9588 77.9773 36.4863 77.9773 34.9498 77.9773C34.6242 78.0015 34.2972 77.9583 33.9891 77.8501C33.6811 77.742 33.3987 77.5714 33.1598 77.3489C32.9208 77.1265 32.7304 76.8571 32.6005 76.5576C32.4706 76.2581 32.404 75.9349 32.4049 75.6085C32.4124 75.2908 32.485 74.978 32.6183 74.6896C32.7516 74.4011 32.9427 74.1431 33.1798 73.9315C33.4169 73.7199 33.6949 73.5593 33.9966 73.4596C34.2983 73.3598 34.6173 73.3231 34.9338 73.3517H44.2649C44.5848 73.3251 44.9068 73.3651 45.2104 73.4692C45.5141 73.5733 45.7928 73.7394 46.029 73.9567C46.2652 74.1741 46.4538 74.4381 46.5827 74.732C46.7117 75.026 46.7783 75.3435 46.7783 75.6645C46.7783 75.9855 46.7117 76.303 46.5827 76.5969C46.4538 76.8909 46.2652 77.1549 46.029 77.3722C45.7928 77.5896 45.5141 77.7556 45.2104 77.8598C44.9068 77.9639 44.5848 78.0039 44.2649 77.9773C42.7124 77.9933 41.1439 77.9773 39.5593 77.9773Z" fill="#F3AC3F"/>
<path d="M143.563 73.3356H148.156C148.476 73.309 148.798 73.349 149.102 73.4532C149.405 73.5573 149.684 73.7233 149.92 73.9406C150.156 74.158 150.345 74.422 150.474 74.7159C150.603 75.0099 150.67 75.3274 150.67 75.6484C150.67 75.9694 150.603 76.2869 150.474 76.5809C150.345 76.8748 150.156 77.1388 149.92 77.3562C149.684 77.5736 149.405 77.7395 149.102 77.8437C148.798 77.9478 148.476 77.9878 148.156 77.9612C144.955 77.9612 141.93 77.9612 138.825 77.9612C138.505 77.9878 138.183 77.9478 137.88 77.8437C137.576 77.7395 137.297 77.5736 137.061 77.3562C136.825 77.1388 136.636 76.8748 136.507 76.5809C136.378 76.2869 136.312 75.9694 136.312 75.6484C136.312 75.3274 136.378 75.0099 136.507 74.7159C136.636 74.422 136.825 74.158 137.061 73.9406C137.297 73.7233 137.576 73.5573 137.88 73.4532C138.183 73.349 138.505 73.309 138.825 73.3356H143.563Z" fill="#F3AC3F"/>
<path d="M98.4913 41.965C98.1847 41.9695 97.8803 41.9118 97.5966 41.7956C97.3129 41.6793 97.0556 41.5068 96.8402 41.2885C96.6249 41.0702 96.456 40.8105 96.3436 40.5252C96.2313 40.2399 96.1778 39.9348 96.1865 39.6283C96.2348 39.0481 96.4994 38.5073 96.9278 38.113C97.3562 37.7188 97.9171 37.5 98.4993 37.5C99.0815 37.5 99.6424 37.7188 100.071 38.113C100.499 38.5073 100.764 39.0481 100.812 39.6283C100.821 39.9362 100.767 40.2426 100.654 40.529C100.54 40.8154 100.37 41.0758 100.153 41.2944C99.9358 41.5129 99.6766 41.685 99.3909 41.8003C99.1053 41.9156 98.7992 41.9717 98.4913 41.965V41.965Z" fill="#F3AC3F"/>
</svg>
