<svg width="180" height="184" viewBox="0 0 180 184" fill="none" xmlns="http://www.w3.org/2000/svg">
<path opacity="0.1" d="M27.8892 110.558C40.0633 140.318 68.8636 162.395 100.461 166.263C167.727 172.908 163.118 95.9106 114.434 70.0852C63.7812 33.2678 -23.2762 61.4192 40.4442 124.195" fill="#484D7A"/>
<path d="M129.218 102.234H130.822C131.214 102.228 131.603 102.301 131.966 102.449C132.329 102.596 132.659 102.814 132.937 103.09C133.215 103.367 133.435 103.696 133.583 104.059C133.732 104.421 133.807 104.81 133.803 105.202C133.803 106.182 133.803 107.176 133.803 108.157C133.812 108.565 133.738 108.971 133.585 109.35C133.432 109.729 133.204 110.073 132.914 110.361C132.624 110.648 132.278 110.874 131.898 111.024C131.518 111.173 131.111 111.244 130.702 111.231C129.232 111.231 127.774 111.231 126.144 111.231V122.746C126.144 122.958 126.144 123.184 126.144 123.409C126.162 123.61 126.139 123.813 126.076 124.005C126.013 124.197 125.911 124.374 125.777 124.526C125.643 124.677 125.48 124.8 125.297 124.886C125.114 124.971 124.915 125.019 124.713 125.025C124.519 125.013 124.329 124.96 124.156 124.871C123.982 124.783 123.829 124.659 123.705 124.509C123.581 124.359 123.489 124.185 123.434 123.998C123.38 123.811 123.364 123.615 123.388 123.422C123.388 120.162 123.388 116.916 123.388 113.656V111.311H58.6698V123.237C58.6698 124.257 58.1928 124.88 57.3447 124.959C56.4967 125.039 55.7679 124.363 55.7546 123.25V111.231H51.6468C51.1679 111.303 50.6787 111.262 50.2187 111.11C49.7588 110.958 49.341 110.7 48.9992 110.357C48.6574 110.014 48.401 109.595 48.251 109.135C48.1009 108.674 48.0612 108.185 48.1353 107.706V105.414C48.104 104.991 48.164 104.565 48.3111 104.167C48.4581 103.769 48.6889 103.407 48.9878 103.106C49.2867 102.804 49.6468 102.57 50.0438 102.42C50.4408 102.27 50.8654 102.206 51.289 102.234H61.8898V83.3509C61.7757 81.3399 62.3298 79.3476 63.4658 77.6843C64.6019 76.021 66.2561 74.78 68.1708 74.1547L77.6056 70.4975L78.4934 70.0999L75.0481 68.6158C70.8873 66.8269 70.2247 65.3693 71.5763 61.0495C72.37 58.2766 72.7364 55.399 72.6629 52.5158C72.6629 48.5405 72.5304 44.5652 72.8219 40.6694C73.1646 37.0819 74.7873 33.7377 77.3933 31.2484C79.9993 28.7592 83.4144 27.2914 87.0138 27.1136C90.0032 26.9234 93.0031 26.9721 95.9847 27.2593C99.672 27.7066 103.064 29.5001 105.51 32.2955C107.955 35.0909 109.282 38.6913 109.236 42.4053C109.236 46.3806 109.236 50.2499 109.236 54.1722C109.22 56.8786 109.668 59.5677 110.561 62.1228C110.796 62.6755 110.917 63.2701 110.916 63.8708C110.915 64.4714 110.793 65.0657 110.556 65.6178C110.32 66.1699 109.974 66.6685 109.54 67.0835C109.106 67.4986 108.592 67.8215 108.03 68.0328L103.511 70.0734L104.359 70.4975L113.635 74.1282C115.579 74.7425 117.261 75.9894 118.413 77.6704C119.566 79.3514 120.123 81.3697 119.996 83.404C119.996 89.2477 119.996 95.0781 119.996 100.909V102.128H126.303C126.303 101.783 126.303 101.478 126.303 101.16C126.303 92.3263 126.303 83.4923 126.303 74.6583C126.335 73.3624 126.102 72.0737 125.619 70.8707C125.136 69.6678 124.413 68.5759 123.494 67.6617C123.371 67.4843 123.189 67.3555 122.981 67.2974C122.773 67.2394 122.552 67.2557 122.354 67.3437C121.553 67.6301 120.684 67.6748 119.858 67.4722C119.031 67.2696 118.282 66.8287 117.703 66.2041C116.696 65.2235 115.702 64.2297 114.735 63.2226C114.32 62.8033 113.992 62.3062 113.769 61.76C113.546 61.2137 113.433 60.6289 113.436 60.0388C113.439 59.4488 113.558 58.8652 113.787 58.3213C114.015 57.7774 114.349 57.2838 114.768 56.8688C115.187 56.4537 115.684 56.1254 116.231 55.9024C116.777 55.6795 117.362 55.5663 117.952 55.5694C118.542 55.5725 119.126 55.6917 119.669 55.9204C120.213 56.149 120.707 56.4825 121.122 56.9019C122.103 57.856 123.07 58.8365 124.037 59.8039C124.664 60.404 125.107 61.1695 125.316 62.0116C125.525 62.8537 125.49 63.7377 125.217 64.561C125.182 64.7277 125.185 64.9002 125.226 65.0654C125.267 65.2307 125.346 65.3844 125.455 65.5151C126.707 66.7573 127.689 68.2448 128.338 69.8844C128.988 71.5239 129.292 73.28 129.232 75.0426C129.232 83.6822 129.232 92.2689 129.232 100.962L129.218 102.234ZM130.914 105.109H73.4712C71.8679 105.109 71.1258 104.645 71.1391 103.638C71.1523 102.631 71.8414 102.234 73.4182 102.234H117.08C117.114 102.068 117.136 101.899 117.147 101.73C117.147 95.3829 117.147 89.0489 117.147 82.7017C117.167 81.4578 116.793 80.2395 116.079 79.2208C115.365 78.2021 114.347 77.4354 113.171 77.0302C111.647 76.3942 110.071 75.8376 108.547 75.2016C108.316 75.079 108.052 75.0347 107.794 75.0753C107.535 75.116 107.298 75.2393 107.116 75.4268C103.14 78.7263 99.165 81.9861 95.1897 85.2458C94.0624 86.3139 92.5685 86.9092 91.0156 86.9092C89.4627 86.9092 87.9688 86.3139 86.8415 85.2458C82.8662 82.0038 78.8909 78.7484 74.9156 75.4798C74.7365 75.2882 74.4992 75.161 74.2405 75.1179C73.9818 75.0748 73.7161 75.1182 73.4845 75.2413C72.0799 75.8509 70.6355 76.3544 69.2177 76.911C67.8661 77.3374 66.6986 78.2084 65.9047 79.3824C65.1108 80.5564 64.7373 81.9643 64.8448 83.3775C64.8448 89.3139 64.8448 95.2371 64.8448 101.174V102.287C65.5074 102.287 66.0374 102.287 66.5674 102.287C66.9189 102.287 67.2559 102.426 67.5044 102.675C67.7529 102.923 67.8925 103.26 67.8925 103.612C67.9207 103.786 67.9137 103.964 67.8721 104.136C67.8304 104.307 67.7549 104.469 67.65 104.611C67.5451 104.753 67.4129 104.872 67.2611 104.962C67.1093 105.053 66.9411 105.111 66.7662 105.136C66.4494 105.176 66.1289 105.176 65.8121 105.136H51.0637V108.316H130.914V105.109ZM96.8858 40.9609C94.4453 43.2459 91.5703 45.0169 88.4316 46.1686C85.2514 47.3611 81.9916 48.302 78.7054 49.3621C78.5998 51.194 78.9073 53.0263 79.6052 54.7234C80.3031 56.4205 81.3735 57.9391 82.7373 59.1668C84.1012 60.3945 85.7235 61.2999 87.4844 61.8162C89.2453 62.3324 91.0997 62.4463 92.9105 62.1493C98.1447 61.288 101.444 58.0415 102.942 52.9531C103.246 51.9063 103.882 51.4425 104.717 51.628C105.552 51.8135 105.963 52.6086 105.698 53.6554C105.186 56.2721 103.854 58.6578 101.895 60.4664C101.189 61.0108 100.646 61.7388 100.326 62.5707C100.006 63.4027 99.9205 64.3066 100.079 65.1838C100.172 66.1644 100.079 67.1714 100.079 68.3508L106.705 65.5151C108.176 64.879 108.348 64.2827 107.911 62.7323C107.332 60.8823 106.92 58.9843 106.678 57.0609C106.427 54.3047 106.466 51.522 106.44 48.7525C106.471 48.4921 106.413 48.2288 106.276 48.0052C106.139 47.7816 105.931 47.6107 105.684 47.5202C104.569 47.0497 103.511 46.454 102.531 45.7445C100.609 44.2737 98.794 42.6173 96.8858 40.9609ZM106.453 44.7374C106.453 43.7304 106.453 42.9088 106.453 42.0872C106.423 39.1419 105.323 36.3081 103.358 34.1139C101.393 31.9197 98.6969 30.5149 95.7727 30.1613C92.6865 29.8954 89.5832 29.8954 86.497 30.1613C84.0171 30.3655 81.6804 31.4076 79.8715 33.1163C75.6179 36.8001 75.2999 41.6632 75.7239 46.8311C80.1402 46.1922 84.4475 44.9482 88.5244 43.1341C92.1154 41.3054 95.5607 39.2648 97.4556 35.4087C97.5296 35.2551 97.6344 35.1183 97.7634 35.0068C97.8924 34.8953 98.043 34.8115 98.2057 34.7606C98.3685 34.7097 98.5399 34.6927 98.7095 34.7107C98.879 34.7288 99.0431 34.7814 99.1915 34.8654C99.5088 34.9826 99.7693 35.2167 99.9195 35.5197C100.07 35.8228 100.099 36.1718 99.9998 36.4953C99.8275 37.0651 99.4565 37.5686 99.2445 38.1252C99.1918 38.2418 99.1646 38.3683 99.1646 38.4962C99.1646 38.6242 99.1918 38.7506 99.2445 38.8672C101.184 41.3166 103.629 43.3188 106.413 44.7374H106.453ZM84.7346 63.8984C84.7346 65.1308 84.7346 66.1776 84.7346 67.2244C84.8492 68.3014 84.5778 69.384 83.9687 70.2795C83.3596 71.1749 82.4523 71.8251 81.4086 72.1141L77.3405 73.7175C77.6983 74.0355 77.9368 74.274 78.2019 74.486L88.6437 82.9932C88.9481 83.3123 89.3141 83.5663 89.7195 83.7399C90.1249 83.9134 90.5613 84.0029 91.0024 84.0029C91.4434 84.0029 91.8798 83.9134 92.2852 83.7399C92.6906 83.5663 93.0566 83.3123 93.361 82.9932C96.9256 80.0912 100.464 77.176 103.962 74.2872C104.167 74.144 104.389 74.0281 104.624 73.9427C103.29 73.2646 101.919 72.6629 100.517 72.1406C99.4676 71.8649 98.5518 71.2232 97.9345 70.3313C97.3173 69.4395 97.0393 68.3563 97.1508 67.2775V63.9117C95.1879 64.7491 93.0755 65.1797 90.9414 65.1774C88.8073 65.1751 86.6958 64.74 84.7346 63.8984V63.8984ZM81.8591 68.417C81.8591 66.4559 81.8591 64.7465 81.8591 63.0239C81.8718 62.7647 81.8175 62.5066 81.7015 62.2745C81.5854 62.0424 81.4115 61.8441 81.1966 61.6988C78.6381 59.6033 76.8559 56.7106 76.1347 53.4831C75.8697 52.3435 75.7769 51.1774 75.6046 50.0246C75.6046 54.6227 75.4854 59.1943 73.8158 63.5672C73.6936 63.8908 73.7028 64.2494 73.8415 64.5663C73.9801 64.8832 74.2372 65.1334 74.5578 65.2633C76.9165 66.2836 79.2752 67.2775 81.8591 68.417ZM122.619 63.1166C122.599 62.8766 122.522 62.6449 122.394 62.4408C121.201 61.2085 120.035 59.9364 118.75 58.81C118.448 58.6275 118.093 58.5517 117.742 58.5949C117.392 58.6382 117.066 58.7978 116.817 59.0484C116.568 59.2989 116.41 59.6258 116.369 59.9766C116.328 60.3275 116.406 60.6819 116.59 60.9832C117.712 62.288 118.934 63.5021 120.247 64.614C121.175 65.2898 122.593 64.4417 122.619 63.0239V63.1166Z" fill="#484D7A"/>
<path d="M107.689 83.9834C108.205 83.9536 108.717 84.0943 109.146 84.3841C109.574 84.6738 109.896 85.0964 110.06 85.5868C110.236 86.2749 110.648 86.8792 111.225 87.2936C111.802 87.7079 112.506 87.9059 113.214 87.8527C113.715 87.8981 114.191 88.0884 114.585 88.4003C114.979 88.7123 115.273 89.1323 115.432 89.609C115.591 90.0857 115.608 90.5984 115.48 91.0843C115.352 91.5702 115.085 92.0083 114.712 92.3448C114.088 92.7451 113.624 93.3516 113.401 94.0587C113.178 94.7657 113.211 95.5285 113.493 96.2141C113.619 96.6835 113.592 97.181 113.416 97.6339C113.239 98.0869 112.922 98.4716 112.512 98.7318C112.155 99.0517 111.704 99.2476 111.226 99.2906C110.749 99.3336 110.27 99.2213 109.862 98.9703C109.255 98.466 108.491 98.1899 107.702 98.1899C106.913 98.1899 106.149 98.466 105.542 98.9703C105.134 99.2259 104.653 99.3398 104.174 99.2943C103.695 99.2488 103.244 99.0464 102.892 98.7186C102.482 98.4256 102.169 98.0165 101.995 97.544C101.82 97.0716 101.791 96.5575 101.911 96.0684C101.909 96.0375 101.909 96.0065 101.911 95.9756C102.187 95.3541 102.225 94.6527 102.017 94.0051C101.81 93.3575 101.371 92.809 100.785 92.4641C100.341 92.1404 100.019 91.6771 99.8699 91.1485C99.7209 90.6199 99.7538 90.0566 99.9632 89.5489C100.131 89.0422 100.454 88.6015 100.887 88.2897C101.321 87.978 101.841 87.8111 102.375 87.813H102.468C103.072 87.8533 103.671 87.6766 104.157 87.3147C104.643 86.9527 104.984 86.4293 105.118 85.8386C105.269 85.2816 105.607 84.7933 106.075 84.4556C106.543 84.1179 107.112 83.9512 107.689 83.9834V83.9834ZM102.958 90.4367C103.806 91.4305 104.76 92.1063 105.038 92.9941C105.171 94.0957 105.113 95.2119 104.866 96.2936C105.226 95.8943 105.664 95.5723 106.152 95.347C106.641 95.1218 107.17 94.9979 107.708 94.9831C108.245 94.9682 108.78 95.0626 109.28 95.2605C109.78 95.4585 110.235 95.7558 110.617 96.1346C110.372 95.6636 110.225 95.1483 110.182 94.6192C110.14 94.0901 110.204 93.558 110.371 93.0541C110.538 92.5502 110.804 92.0848 111.153 91.6853C111.503 91.2859 111.929 90.9604 112.406 90.7282C111.33 90.6435 110.277 90.3746 109.292 89.9331C108.57 89.1548 107.988 88.2584 107.569 87.2829C107.505 87.8074 107.329 88.3121 107.054 88.7635C106.78 89.2149 106.412 89.6027 105.976 89.901C105.54 90.1993 105.045 90.4014 104.524 90.4937C104.004 90.5861 103.47 90.5666 102.958 90.4367V90.4367Z" fill="#484D7A"/>
</svg>
