<svg xmlns="http://www.w3.org/2000/svg" viewBox="0 0 494.27 320.72"><defs><style>.a{fill:#efefef;}.b,.e{fill:#df9885;}.ab,.ak,.c,.d,.n{fill:#090938;}.ab,.ac,.ad,.ae,.af,.ai,.aj,.ak,.al,.an,.d,.e,.f,.g,.l,.m,.n,.o,.s,.u,.v,.w,.x,.z{stroke:#090938;}.ab,.ac,.ad,.ae,.af,.ag,.ah,.aj,.ak,.al,.d,.f,.g,.l,.m,.n,.o,.s,.u,.v,.w,.x{stroke-linecap:round;}.ab,.ac,.ad,.af,.ag,.ah,.aj,.ak,.al,.d,.f,.g,.l,.m,.n,.o,.s,.u,.v,.w,.x{stroke-linejoin:round;}.d,.e,.f,.g{stroke-width:0.81px;}.aa,.ae,.ai,.an,.e,.z{stroke-miterlimit:10;}.ad,.aj,.f,.m,.q,.u{fill:#fff;}.aa,.ac,.ae,.ag,.al,.an,.g,.o,.s,.v,.x,.z{fill:none;}.h{fill:#367d8e;}.i,.l{fill:#9fe0f7;}.j{fill:#5ba7bc;}.k{fill:#1c6272;}.l,.m,.n,.o{stroke-width:0.84px;}.p{fill:#292968;}.r{fill:#c2c2f2;}.s{stroke-width:0.47px;}.t{fill:#7474c1;}.u,.v,.w{stroke-width:0.69px;}.w{fill:#cacadb;}.x{stroke-width:1.38px;}.af,.y{fill:#92e3a9;}.z{stroke-width:0.65px;}.aa{stroke:#6666c6;stroke-width:3.25px;}.ab,.ac,.ad,.af{stroke-width:0.77px;}.ae{stroke-width:1.54px;}.ag,.ah{stroke:#263238;}.ag,.ah,.ai,.aj,.ak,.al,.an{stroke-width:0.97px;}.ah{fill:#f7f9f8;}.ai,.am{fill:#ecc962;}.ao{fill:#f4dea8;}</style></defs><path class="a" d="M140.34,106.71c-34.3,14-110.3,104.1-32.61,164,48.9,37.8,114.71,24.8,144.61,18.1,124-27.8,155.19-133.7,107.69-180.4C316.23,65.41,205.94,80,140.34,106.71Z"/><path class="b" d="M177.84,273.31h-56v8h56Z"/><path class="c" d="M146.23,276.91a1.61,1.61,0,0,1-.3,1.1,1,1,0,0,1-.8.4.81.81,0,0,1-.8-.4,1.61,1.61,0,0,1-.3-1.1v-.6c0-.5,29.3,49.7.3-1.1a1,1,0,0,1,.8-.4,1,1,0,0,1,.8.3,1.61,1.61,0,0,1,.3,1.1Zm-.39-.6a1.65,1.65,0,0,0-.2-.8c-.1-.2-.3-.2-.5-.2a.76.76,0,0,0-.5.2,1.55,1.55,0,0,0-.2.8v.7a1.55,1.55,0,0,0,.2.8.55.55,0,0,0,.5.3.76.76,0,0,0,.5-.2,1.55,1.55,0,0,0,.2-.8Zm3.09.6a1.61,1.61,0,0,1-.3,1.1,1,1,0,0,1-.8.4.81.81,0,0,1-.8-.4,1.61,1.61,0,0,1-.3-1.1v-.6a1.61,1.61,0,0,1,.3-1.1,1,1,0,0,1,.8-.4,1,1,0,0,1,.8.3,1.61,1.61,0,0,1,.3,1.1Zm-.5-.6a1.55,1.55,0,0,0-.2-.8c-.1-.2-.3-.2-.5-.2a.81.81,0,0,0-.5.2,1.56,1.56,0,0,0-.19.8v.7a1.67,1.67,0,0,0,.19.8.57.57,0,0,0,.5.3.76.76,0,0,0,.5-.2,1.46,1.46,0,0,0,.2-.8Zm3.11.6a1.61,1.61,0,0,1-.31,1.1,1,1,0,0,1-.8.4.82.82,0,0,1-.8-.4,1.61,1.61,0,0,1-.3-1.1v-.6a1.61,1.61,0,0,1,.3-1.1,1,1,0,0,1,.8-.4,1,1,0,0,1,.8.3,1.61,1.61,0,0,1,.31,1.1Zm-.41-.6a1.55,1.55,0,0,0-.2-.8c-.1-.2-.3-.2-.5-.2a.79.79,0,0,0-.5.2,1.55,1.55,0,0,0-.2.8v.7a1.65,1.65,0,0,0,.2.8.56.56,0,0,0,.5.3.76.76,0,0,0,.5-.2,1.46,1.46,0,0,0,.2-.8Zm2.3,2H153v-2.8l-.9.3v-.4l1.2-.5h.1v3.4Zm3.41-1.4a1.66,1.66,0,0,1-.3,1.1,1,1,0,0,1-.81.4.82.82,0,0,1-.8-.4,1.61,1.61,0,0,1-.3-1.1v-.6a1.61,1.61,0,0,1,.3-1.1,1,1,0,0,1,.8-.4,1,1,0,0,1,.81.3,1.66,1.66,0,0,1,.3,1.1Zm-.41-.6a1.55,1.55,0,0,0-.2-.8c-.1-.2-.3-.2-.5-.2a.81.81,0,0,0-.5.2,1.56,1.56,0,0,0-.19.8v.7a1.67,1.67,0,0,0,.19.8.57.57,0,0,0,.5.3.76.76,0,0,0,.5-.2,1.46,1.46,0,0,0,.2-.8Zm2.3,2h-.39v-2.8l-.9.3v-.4l1.2-.5h.1v3.4Zm3.4-1.4a1.61,1.61,0,0,1-.3,1.1,1,1,0,0,1-.8.4.81.81,0,0,1-.8-.4,1.61,1.61,0,0,1-.3-1.1v-.6a1.61,1.61,0,0,1,.3-1.1,1,1,0,0,1,.8-.4,1,1,0,0,1,.8.3,1.61,1.61,0,0,1,.3,1.1Zm-.4-.6a1.67,1.67,0,0,0-.19-.8c-.11-.2-.31-.2-.5-.2a.76.76,0,0,0-.5.2,1.46,1.46,0,0,0-.2.8v.7a1.55,1.55,0,0,0,.2.8.55.55,0,0,0,.5.3.81.81,0,0,0,.5-.2,1.56,1.56,0,0,0,.19-.8Zm2.31,2h-.4v-2.8l-.9.3v-.4l1.2-.5h.1v3.4Zm3.39-1.4a1.61,1.61,0,0,1-.3,1.1,1,1,0,0,1-.8.4.81.81,0,0,1-.8-.4,1.61,1.61,0,0,1-.3-1.1v-.6a1.61,1.61,0,0,1,.3-1.1,1,1,0,0,1,.8-.4,1,1,0,0,1,.8.3,1.61,1.61,0,0,1,.3,1.1Zm-.5-.6a1.55,1.55,0,0,0-.2-.8c-.1-.2-.3-.2-.5-.2a.81.81,0,0,0-.5.2,1.56,1.56,0,0,0-.19.8v.7a1.67,1.67,0,0,0,.19.8.57.57,0,0,0,.5.3.76.76,0,0,0,.5-.2,1.46,1.46,0,0,0,.2-.8Zm2.61.5-1.5-.6v-.4l2,.9v.3l-2,.9v-.4Z"/><path class="b" d="M183.84,280.31h-56v8h56Z"/><path class="c" d="M152.23,283.91a1.61,1.61,0,0,1-.3,1.1,1,1,0,0,1-.8.4.81.81,0,0,1-.8-.4,1.61,1.61,0,0,1-.3-1.1v-.6a1.61,1.61,0,0,1,.3-1.1,1,1,0,0,1,.8-.4,1,1,0,0,1,.8.3,1.61,1.61,0,0,1,.3,1.1Zm-.39-.6a1.65,1.65,0,0,0-.2-.8c-.1-.2-.3-.2-.5-.2a.76.76,0,0,0-.5.2,1.55,1.55,0,0,0-.2.8v.7a1.55,1.55,0,0,0,.2.8.55.55,0,0,0,.5.3.76.76,0,0,0,.5-.2,1.55,1.55,0,0,0,.2-.8Zm3.09.6a1.61,1.61,0,0,1-.3,1.1,1,1,0,0,1-.8.4.81.81,0,0,1-.8-.4,1.61,1.61,0,0,1-.3-1.1v-.6a1.61,1.61,0,0,1,.3-1.1,1,1,0,0,1,.8-.4,1,1,0,0,1,.8.3,1.61,1.61,0,0,1,.3,1.1Zm-.5-.6a1.55,1.55,0,0,0-.2-.8c-.1-.2-.3-.2-.5-.2a.81.81,0,0,0-.5.2,1.56,1.56,0,0,0-.19.8v.7a1.67,1.67,0,0,0,.19.8.57.57,0,0,0,.5.3.76.76,0,0,0,.5-.2,1.46,1.46,0,0,0,.2-.8Zm3.11.6a1.61,1.61,0,0,1-.31,1.1,1,1,0,0,1-.8.4.82.82,0,0,1-.8-.4,1.61,1.61,0,0,1-.3-1.1v-.6a1.61,1.61,0,0,1,.3-1.1,1,1,0,0,1,.8-.4,1,1,0,0,1,.8.3,1.61,1.61,0,0,1,.31,1.1Zm-.41-.6a1.55,1.55,0,0,0-.2-.8c-.1-.2-.3-.2-.5-.2a.79.79,0,0,0-.5.2,1.55,1.55,0,0,0-.2.8v.7a1.65,1.65,0,0,0,.2.8.56.56,0,0,0,.5.3.76.76,0,0,0,.5-.2,1.46,1.46,0,0,0,.2-.8Zm2.3,2H159v-2.8l-.9.3v-.4l1.2-.5h.1v3.4Zm3.41-1.4a1.66,1.66,0,0,1-.3,1.1,1,1,0,0,1-.81.4.82.82,0,0,1-.8-.4,1.61,1.61,0,0,1-.3-1.1v-.6a1.61,1.61,0,0,1,.3-1.1,1,1,0,0,1,.8-.4,1,1,0,0,1,.81.3,1.66,1.66,0,0,1,.3,1.1Zm-.41-.6a1.55,1.55,0,0,0-.2-.8c-.1-.2-.3-.2-.5-.2a.81.81,0,0,0-.5.2,1.56,1.56,0,0,0-.19.8v.7a1.67,1.67,0,0,0,.19.8.57.57,0,0,0,.5.3.76.76,0,0,0,.5-.2,1.46,1.46,0,0,0,.2-.8Zm2.3,2h-.39v-2.8l-.9.3v-.4l1.2-.5h.1v3.4Zm3.4-1.4a1.61,1.61,0,0,1-.3,1.1,1,1,0,0,1-.8.4.81.81,0,0,1-.8-.4,1.61,1.61,0,0,1-.3-1.1v-.6a1.61,1.61,0,0,1,.3-1.1,1,1,0,0,1,.8-.4,1,1,0,0,1,.8.3,1.61,1.61,0,0,1,.3,1.1Zm-.4-.6c0-.4,0-.6-.19-.8s-.31-.2-.5-.2a.76.76,0,0,0-.5.2,1.46,1.46,0,0,0-.2.8v.7a1.55,1.55,0,0,0,.2.8.55.55,0,0,0,.5.3.81.81,0,0,0,.5-.2,1.56,1.56,0,0,0,.19-.8Zm2.31,2h-.4v-2.8l-.9.3v-.4l1.2-.5h.1v3.4Zm3.4-1.4a1.61,1.61,0,0,1-.3,1.1,1,1,0,0,1-.8.4.81.81,0,0,1-.8-.4,1.61,1.61,0,0,1-.3-1.1v-.6a1.61,1.61,0,0,1,.3-1.1,1,1,0,0,1,.8-.4,1,1,0,0,1,.8.3,1.61,1.61,0,0,1,.3,1.1Zm-.5-.6a1.45,1.45,0,0,0-.21-.8c-.1-.2-.29-.2-.5-.2a.79.79,0,0,0-.5.2,1.55,1.55,0,0,0-.2.8v.7a1.55,1.55,0,0,0,.2.8.56.56,0,0,0,.5.3.74.74,0,0,0,.5-.2,1.45,1.45,0,0,0,.21-.8Zm2.59.5-1.5-.6v-.4l2,.9v.3l-2,.9v-.4Z"/><path class="b" d="M129.84,240.31h-56v8h56Z"/><path class="c" d="M76.43,243.81l1.4.6v.5l-1.9-.9v-.3l1.9-.9v.5Zm3.5,1.5h-.39v-2.8l-.9.3v-.4l1.2-.5h.1v3.4Zm3.41-1.4A1.66,1.66,0,0,1,83,245a1,1,0,0,1-.81.4.82.82,0,0,1-.8-.4,1.61,1.61,0,0,1-.3-1.1v-.6a1.61,1.61,0,0,1,.3-1.1,1,1,0,0,1,.8-.4,1,1,0,0,1,.81.3,1.66,1.66,0,0,1,.3,1.1Zm-.5-.6a1.65,1.65,0,0,0-.2-.8c-.1-.2-.3-.2-.5-.2a.76.76,0,0,0-.5.2,1.55,1.55,0,0,0-.2.8v.7a1.55,1.55,0,0,0,.2.8.55.55,0,0,0,.5.3.76.76,0,0,0,.5-.2,1.55,1.55,0,0,0,.2-.8Zm3.09.6a1.61,1.61,0,0,1-.3,1.1,1,1,0,0,1-.8.4.81.81,0,0,1-.8-.4,1.61,1.61,0,0,1-.3-1.1v-.6a1.61,1.61,0,0,1,.3-1.1,1,1,0,0,1,.8-.4,1,1,0,0,1,.8.3,1.61,1.61,0,0,1,.3,1.1Zm-.39-.6a1.65,1.65,0,0,0-.2-.8c-.11-.2-.3-.2-.5-.2a.76.76,0,0,0-.5.2,1.46,1.46,0,0,0-.2.8v.7a1.55,1.55,0,0,0,.2.8.55.55,0,0,0,.5.3.79.79,0,0,0,.5-.2,1.55,1.55,0,0,0,.2-.8Zm3,.6a1.61,1.61,0,0,1-.31,1.1,1,1,0,0,1-.8.4.82.82,0,0,1-.8-.4,1.61,1.61,0,0,1-.3-1.1v-.6a1.61,1.61,0,0,1,.3-1.1,1,1,0,0,1,.8-.4,1,1,0,0,1,.8.3,1.61,1.61,0,0,1,.31,1.1Zm-.41-.6a1.55,1.55,0,0,0-.2-.8c-.1-.2-.3-.2-.5-.2a.79.79,0,0,0-.5.2,1.55,1.55,0,0,0-.2.8v.7a1.65,1.65,0,0,0,.2.8.56.56,0,0,0,.5.3.76.76,0,0,0,.5-.2,1.46,1.46,0,0,0,.2-.8Zm2.41,2h-.4v-2.8l-.9.3v-.4l1.2-.5h.1v3.4Zm3.3-1.4a1.66,1.66,0,0,1-.3,1.1,1,1,0,0,1-.81.4.82.82,0,0,1-.8-.4,1.61,1.61,0,0,1-.3-1.1v-.6a1.61,1.61,0,0,1,.3-1.1,1,1,0,0,1,.8-.4,1,1,0,0,1,.81.3,1.66,1.66,0,0,1,.3,1.1Zm-.41-.6a1.55,1.55,0,0,0-.2-.8c-.1-.2-.3-.2-.5-.2a.81.81,0,0,0-.5.2,1.56,1.56,0,0,0-.19.8v.7a1.67,1.67,0,0,0,.19.8.57.57,0,0,0,.5.3.76.76,0,0,0,.5-.2,1.46,1.46,0,0,0,.2-.8Zm2.41,2h-.4v-2.8l-.9.3v-.4l1.2-.5h.1v3.4Zm3.29-1.4a1.61,1.61,0,0,1-.3,1.1,1,1,0,0,1-.8.4.81.81,0,0,1-.8-.4,1.61,1.61,0,0,1-.3-1.1v-.6a1.61,1.61,0,0,1,.3-1.1,1,1,0,0,1,.8-.4,1,1,0,0,1,.8.3,1.61,1.61,0,0,1,.3,1.1Zm-.4-.6a1.67,1.67,0,0,0-.19-.8c-.11-.2-.31-.2-.5-.2a.76.76,0,0,0-.5.2,1.46,1.46,0,0,0-.2.8v.7a1.55,1.55,0,0,0,.2.8.55.55,0,0,0,.5.3.81.81,0,0,0,.5-.2,1.56,1.56,0,0,0,.19-.8Zm2.4,2h-.4v-2.8l-.89.3v-.4l1.2-.5h.1v3.4Zm3.3-1.4a1.61,1.61,0,0,1-.3,1.1,1,1,0,0,1-.8.4.81.81,0,0,1-.8-.4,1.61,1.61,0,0,1-.3-1.1v-.6a1.61,1.61,0,0,1,.3-1.1,1,1,0,0,1,.8-.4,1,1,0,0,1,.8.3,1.61,1.61,0,0,1,.3,1.1Zm-.39-.6a1.65,1.65,0,0,0-.2-.8c-.11-.2-.3-.2-.5-.2a.76.76,0,0,0-.5.2,1.46,1.46,0,0,0-.2.8v.7a1.55,1.55,0,0,0,.2.8.55.55,0,0,0,.5.3.79.79,0,0,0,.5-.2,1.55,1.55,0,0,0,.2-.8Zm3.09.6a1.61,1.61,0,0,1-.3,1.1,1,1,0,0,1-.8.4.81.81,0,0,1-.8-.4,1.61,1.61,0,0,1-.3-1.1v-.6a1.61,1.61,0,0,1,.3-1.1,1,1,0,0,1,.8-.4,1,1,0,0,1,.8.3,1.61,1.61,0,0,1,.3,1.1Zm-.5-.6a1.55,1.55,0,0,0-.2-.8c-.1-.2-.3-.2-.5-.2a.79.79,0,0,0-.5.2,1.55,1.55,0,0,0-.2.8v.7a1.65,1.65,0,0,0,.2.8.56.56,0,0,0,.5.3.76.76,0,0,0,.5-.2,1.46,1.46,0,0,0,.2-.8Zm3.1.6a1.61,1.61,0,0,1-.3,1.1,1,1,0,0,1-.8.4.81.81,0,0,1-.8-.4,1.61,1.61,0,0,1-.3-1.1v-.6a1.61,1.61,0,0,1,.3-1.1,1,1,0,0,1,.8-.4,1,1,0,0,1,.8.3,1.61,1.61,0,0,1,.3,1.1Zm-.39-.6a1.65,1.65,0,0,0-.2-.8c-.1-.2-.3-.2-.5-.2a.76.76,0,0,0-.5.2,1.55,1.55,0,0,0-.2.8v.7a1.55,1.55,0,0,0,.2.8.55.55,0,0,0,.5.3.76.76,0,0,0,.5-.2,1.55,1.55,0,0,0,.2-.8Zm2.29,2h-.4v-2.8l-.89.3v-.4l1.2-.5h.1v3.4Zm3.41-1.4a1.61,1.61,0,0,1-.31,1.1,1,1,0,0,1-.8.4.82.82,0,0,1-.8-.4,1.61,1.61,0,0,1-.3-1.1v-.6a1.61,1.61,0,0,1,.3-1.1,1,1,0,0,1,.8-.4,1,1,0,0,1,.8.3,1.61,1.61,0,0,1,.31,1.1Zm-.41-.6a1.55,1.55,0,0,0-.2-.8c-.1-.2-.3-.2-.5-.2a.79.79,0,0,0-.5.2,1.55,1.55,0,0,0-.2.8v.7a1.65,1.65,0,0,0,.2.8.56.56,0,0,0,.5.3.76.76,0,0,0,.5-.2,1.46,1.46,0,0,0,.2-.8Zm2.3,2h-.39v-2.8l-.9.3v-.4l1.2-.5h.1v3.4Zm3.41-1.4a1.66,1.66,0,0,1-.3,1.1,1,1,0,0,1-.81.4.82.82,0,0,1-.8-.4,1.61,1.61,0,0,1-.3-1.1v-.6a1.61,1.61,0,0,1,.3-1.1,1,1,0,0,1,.8-.4,1,1,0,0,1,.81.3,1.66,1.66,0,0,1,.3,1.1Zm-.41-.6a1.55,1.55,0,0,0-.2-.8c-.1-.2-.3-.2-.5-.2a.81.81,0,0,0-.5.2,1.56,1.56,0,0,0-.19.8v.7a1.67,1.67,0,0,0,.19.8.57.57,0,0,0,.5.3.76.76,0,0,0,.5-.2,1.46,1.46,0,0,0,.2-.8Zm2.3,2h-.39v-2.8l-.9.3v-.4l1.2-.5h.1v3.4Zm3.4-1.4a1.61,1.61,0,0,1-.3,1.1,1,1,0,0,1-.8.4.81.81,0,0,1-.8-.4,1.61,1.61,0,0,1-.3-1.1v-.6a1.61,1.61,0,0,1,.3-1.1,1,1,0,0,1,.8-.4,1,1,0,0,1,.8.3,1.61,1.61,0,0,1,.3,1.1Zm-.5-.6a1.55,1.55,0,0,0-.2-.8c-.1-.2-.3-.2-.5-.2a.79.79,0,0,0-.5.2,1.55,1.55,0,0,0-.2.8v.7a1.65,1.65,0,0,0,.2.8.56.56,0,0,0,.5.3.76.76,0,0,0,.5-.2,1.46,1.46,0,0,0,.2-.8Zm2.6.5-1.5-.6v-.4l2,.9v.3l-2,.9v-.4Z"/><path class="c" d="M113.43,254.81l1.4.6v.5l-1.9-.9v-.3l1.9-.9v.5Zm3.5,1.5h-.39v-2.8l-.9.3v-.4l1.2-.5h.1v3.4Zm3.41-1.4a1.66,1.66,0,0,1-.3,1.1,1,1,0,0,1-.81.4.82.82,0,0,1-.8-.4,1.61,1.61,0,0,1-.3-1.1v-.6a1.61,1.61,0,0,1,.3-1.1,1,1,0,0,1,.8-.4,1,1,0,0,1,.81.3,1.66,1.66,0,0,1,.3,1.1Zm-.5-.6a1.65,1.65,0,0,0-.2-.8c-.1-.2-.3-.2-.5-.2a.76.76,0,0,0-.5.2,1.55,1.55,0,0,0-.2.8v.7a1.55,1.55,0,0,0,.2.8.55.55,0,0,0,.5.3.76.76,0,0,0,.5-.2,1.55,1.55,0,0,0,.2-.8Zm3.09.6a1.61,1.61,0,0,1-.3,1.1,1,1,0,0,1-.8.4.81.81,0,0,1-.8-.4,1.61,1.61,0,0,1-.3-1.1v-.6a1.61,1.61,0,0,1,.3-1.1,1,1,0,0,1,.8-.4,1,1,0,0,1,.8.3,1.61,1.61,0,0,1,.3,1.1Zm-.39-.6a1.65,1.65,0,0,0-.2-.8c-.11-.2-.3-.2-.5-.2a.76.76,0,0,0-.5.2,1.46,1.46,0,0,0-.2.8v.7a1.55,1.55,0,0,0,.2.8.55.55,0,0,0,.5.3.79.79,0,0,0,.5-.2,1.55,1.55,0,0,0,.2-.8Zm3,.6a1.61,1.61,0,0,1-.31,1.1,1,1,0,0,1-.8.4.82.82,0,0,1-.8-.4,1.61,1.61,0,0,1-.3-1.1v-.6a1.61,1.61,0,0,1,.3-1.1,1,1,0,0,1,.8-.4,1,1,0,0,1,.8.3,1.61,1.61,0,0,1,.31,1.1Zm-.41-.6a1.55,1.55,0,0,0-.2-.8c-.1-.2-.3-.2-.5-.2a.79.79,0,0,0-.5.2,1.55,1.55,0,0,0-.2.8v.7a1.65,1.65,0,0,0,.2.8.56.56,0,0,0,.5.3.76.76,0,0,0,.5-.2,1.46,1.46,0,0,0,.2-.8Zm2.41,2h-.4v-2.8l-.9.3v-.4l1.2-.5h.1v3.4Zm3.3-1.4a1.66,1.66,0,0,1-.3,1.1,1,1,0,0,1-.81.4.82.82,0,0,1-.8-.4,1.61,1.61,0,0,1-.3-1.1v-.6a1.61,1.61,0,0,1,.3-1.1,1,1,0,0,1,.8-.4,1,1,0,0,1,.81.3,1.66,1.66,0,0,1,.3,1.1Zm-.41-.6a1.55,1.55,0,0,0-.2-.8c-.1-.2-.3-.2-.5-.2a.81.81,0,0,0-.5.2,1.56,1.56,0,0,0-.19.8v.7a1.67,1.67,0,0,0,.19.8.57.57,0,0,0,.5.3.76.76,0,0,0,.5-.2,1.46,1.46,0,0,0,.2-.8Zm2.41,2h-.4v-2.8l-.9.3v-.4l1.2-.5h.1v3.4Zm3.29-1.4a1.61,1.61,0,0,1-.3,1.1,1,1,0,0,1-.8.4.81.81,0,0,1-.8-.4,1.61,1.61,0,0,1-.3-1.1v-.6a1.61,1.61,0,0,1,.3-1.1,1,1,0,0,1,.8-.4,1,1,0,0,1,.8.3,1.61,1.61,0,0,1,.3,1.1Zm-.4-.6a1.67,1.67,0,0,0-.19-.8c-.11-.2-.31-.2-.5-.2a.76.76,0,0,0-.5.2,1.46,1.46,0,0,0-.2.8v.7a1.55,1.55,0,0,0,.2.8.55.55,0,0,0,.5.3.81.81,0,0,0,.5-.2,1.56,1.56,0,0,0,.19-.8Zm2.4,2h-.4v-2.8l-.89.3v-.4l1.2-.5h.1v3.4Zm3.3-1.4a1.61,1.61,0,0,1-.3,1.1,1,1,0,0,1-.8.4.81.81,0,0,1-.8-.4,1.61,1.61,0,0,1-.3-1.1v-.6a1.61,1.61,0,0,1,.3-1.1,1,1,0,0,1,.8-.4,1,1,0,0,1,.8.3,1.61,1.61,0,0,1,.3,1.1Zm-.39-.6a1.65,1.65,0,0,0-.2-.8c-.11-.2-.3-.2-.5-.2a.76.76,0,0,0-.5.2,1.46,1.46,0,0,0-.2.8v.7a1.55,1.55,0,0,0,.2.8.55.55,0,0,0,.5.3.79.79,0,0,0,.5-.2,1.55,1.55,0,0,0,.2-.8Zm3.09.6a1.61,1.61,0,0,1-.3,1.1,1,1,0,0,1-.8.4.81.81,0,0,1-.8-.4,1.61,1.61,0,0,1-.3-1.1v-.6a1.61,1.61,0,0,1,.3-1.1,1,1,0,0,1,.8-.4,1,1,0,0,1,.8.3,1.61,1.61,0,0,1,.3,1.1Zm-.5-.6a1.55,1.55,0,0,0-.2-.8c-.1-.2-.3-.2-.5-.2a.79.79,0,0,0-.5.2,1.55,1.55,0,0,0-.2.8v.7a1.65,1.65,0,0,0,.2.8.56.56,0,0,0,.5.3.76.76,0,0,0,.5-.2,1.46,1.46,0,0,0,.2-.8Zm3.1.6a1.61,1.61,0,0,1-.3,1.1,1,1,0,0,1-.8.4.81.81,0,0,1-.8-.4,1.61,1.61,0,0,1-.3-1.1v-.6a1.61,1.61,0,0,1,.3-1.1,1,1,0,0,1,.8-.4,1,1,0,0,1,.8.3,1.61,1.61,0,0,1,.3,1.1Zm-.39-.6a1.65,1.65,0,0,0-.2-.8c-.1-.2-.3-.2-.5-.2a.76.76,0,0,0-.5.2,1.55,1.55,0,0,0-.2.8v.7a1.55,1.55,0,0,0,.2.8.55.55,0,0,0,.5.3.76.76,0,0,0,.5-.2,1.55,1.55,0,0,0,.2-.8Zm2.29,2h-.4v-2.8l-.89.3v-.4l1.2-.5h.1v3.4Zm3.41-1.4a1.61,1.61,0,0,1-.31,1.1,1,1,0,0,1-.8.4.82.82,0,0,1-.8-.4,1.61,1.61,0,0,1-.3-1.1v-.6a1.61,1.61,0,0,1,.3-1.1,1,1,0,0,1,.8-.4,1,1,0,0,1,.8.3,1.61,1.61,0,0,1,.31,1.1Zm-.41-.6a1.55,1.55,0,0,0-.2-.8c-.1-.2-.3-.2-.5-.2a.79.79,0,0,0-.5.2,1.55,1.55,0,0,0-.2.8v.7a1.65,1.65,0,0,0,.2.8.56.56,0,0,0,.5.3.76.76,0,0,0,.5-.2,1.46,1.46,0,0,0,.2-.8Zm2.3,2h-.39v-2.8l-.9.3v-.4l1.2-.5h.1v3.4Zm3.41-1.4a1.66,1.66,0,0,1-.3,1.1,1,1,0,0,1-.81.4.82.82,0,0,1-.8-.4,1.61,1.61,0,0,1-.3-1.1v-.6a1.61,1.61,0,0,1,.3-1.1,1,1,0,0,1,.8-.4,1,1,0,0,1,.81.3,1.66,1.66,0,0,1,.3,1.1Zm-.41-.6a1.55,1.55,0,0,0-.2-.8c-.1-.2-.3-.2-.5-.2a.81.81,0,0,0-.5.2,1.56,1.56,0,0,0-.19.8v.7a1.67,1.67,0,0,0,.19.8.57.57,0,0,0,.5.3.76.76,0,0,0,.5-.2,1.46,1.46,0,0,0,.2-.8Zm2.3,2h-.39v-2.8l-.9.3v-.4l1.2-.5h.1v3.4Zm3.4-1.4a1.61,1.61,0,0,1-.3,1.1,1,1,0,0,1-.8.4.81.81,0,0,1-.8-.4,1.61,1.61,0,0,1-.3-1.1v-.6a1.61,1.61,0,0,1,.3-1.1,1,1,0,0,1,.8-.4,1,1,0,0,1,.8.3,1.61,1.61,0,0,1,.3,1.1Zm-.5-.6a1.55,1.55,0,0,0-.2-.8c-.1-.2-.3-.2-.5-.2a.79.79,0,0,0-.5.2,1.55,1.55,0,0,0-.2.8v.7a1.65,1.65,0,0,0,.2.8.56.56,0,0,0,.5.3.76.76,0,0,0,.5-.2,1.46,1.46,0,0,0,.2-.8Zm2.6.5-1.5-.6v-.4l2,.9v.3l-2,.9v-.4Z"/><path class="c" d="M105.43,261.81l1.4.6v.5l-1.9-.9v-.3l1.9-.9v.5Zm3.5,1.5h-.39v-2.8l-.9.3v-.4l1.2-.5h.1v3.4Zm3.41-1.4a1.66,1.66,0,0,1-.3,1.1,1,1,0,0,1-.81.4.82.82,0,0,1-.8-.4,1.61,1.61,0,0,1-.3-1.1v-.6a1.61,1.61,0,0,1,.3-1.1,1,1,0,0,1,.8-.4,1,1,0,0,1,.81.3,1.66,1.66,0,0,1,.3,1.1Zm-.5-.6a1.65,1.65,0,0,0-.2-.8c-.1-.2-.3-.2-.5-.2a.76.76,0,0,0-.5.2,1.55,1.55,0,0,0-.2.8v.7a1.55,1.55,0,0,0,.2.8.55.55,0,0,0,.5.3.76.76,0,0,0,.5-.2,1.55,1.55,0,0,0,.2-.8Zm3.09.6a1.61,1.61,0,0,1-.3,1.1,1,1,0,0,1-.8.4.81.81,0,0,1-.8-.4,1.61,1.61,0,0,1-.3-1.1v-.6a1.61,1.61,0,0,1,.3-1.1,1,1,0,0,1,.8-.4,1,1,0,0,1,.8.3,1.61,1.61,0,0,1,.3,1.1Zm-.39-.6a1.65,1.65,0,0,0-.2-.8c-.11-.2-.3-.2-.5-.2a.76.76,0,0,0-.5.2,1.46,1.46,0,0,0-.2.8v.7a1.55,1.55,0,0,0,.2.8.55.55,0,0,0,.5.3.79.79,0,0,0,.5-.2,1.55,1.55,0,0,0,.2-.8Zm3,.6a1.61,1.61,0,0,1-.31,1.1,1,1,0,0,1-.8.4.82.82,0,0,1-.8-.4,1.61,1.61,0,0,1-.3-1.1v-.6a1.61,1.61,0,0,1,.3-1.1,1,1,0,0,1,.8-.4,1,1,0,0,1,.8.3,1.61,1.61,0,0,1,.31,1.1Zm-.41-.6a1.55,1.55,0,0,0-.2-.8c-.1-.2-.3-.2-.5-.2a.79.79,0,0,0-.5.2,1.55,1.55,0,0,0-.2.8v.7a1.65,1.65,0,0,0,.2.8.56.56,0,0,0,.5.3.76.76,0,0,0,.5-.2,1.46,1.46,0,0,0,.2-.8Zm2.41,2h-.4v-2.8l-.9.3v-.4l1.2-.5h.1v3.4Zm3.3-1.4a1.66,1.66,0,0,1-.3,1.1,1,1,0,0,1-.81.4.82.82,0,0,1-.8-.4,1.61,1.61,0,0,1-.3-1.1v-.6a1.61,1.61,0,0,1,.3-1.1,1,1,0,0,1,.8-.4,1,1,0,0,1,.81.3,1.66,1.66,0,0,1,.3,1.1Zm-.41-.6a1.55,1.55,0,0,0-.2-.8c-.1-.2-.3-.2-.5-.2a.81.81,0,0,0-.5.2,1.56,1.56,0,0,0-.19.8v.7a1.67,1.67,0,0,0,.19.8.57.57,0,0,0,.5.3.76.76,0,0,0,.5-.2,1.46,1.46,0,0,0,.2-.8Zm2.41,2h-.4v-2.8l-.9.3v-.4l1.2-.5h.1v3.4Zm3.29-1.4a1.61,1.61,0,0,1-.3,1.1,1,1,0,0,1-.8.4.81.81,0,0,1-.8-.4,1.61,1.61,0,0,1-.3-1.1v-.6a1.61,1.61,0,0,1,.3-1.1,1,1,0,0,1,.8-.4,1,1,0,0,1,.8.3,1.61,1.61,0,0,1,.3,1.1Zm-.4-.6a1.67,1.67,0,0,0-.19-.8c-.11-.2-.31-.2-.5-.2a.76.76,0,0,0-.5.2,1.46,1.46,0,0,0-.2.8v.7a1.55,1.55,0,0,0,.2.8.55.55,0,0,0,.5.3.81.81,0,0,0,.5-.2,1.56,1.56,0,0,0,.19-.8Zm2.4,2h-.4v-2.8l-.89.3v-.4l1.2-.5h.1v3.4Zm3.3-1.4a1.61,1.61,0,0,1-.3,1.1,1,1,0,0,1-.8.4.81.81,0,0,1-.8-.4,1.61,1.61,0,0,1-.3-1.1v-.6a1.61,1.61,0,0,1,.3-1.1,1,1,0,0,1,.8-.4,1,1,0,0,1,.8.3,1.61,1.61,0,0,1,.3,1.1Zm-.39-.6a1.65,1.65,0,0,0-.2-.8c-.11-.2-.3-.2-.5-.2a.76.76,0,0,0-.5.2,1.46,1.46,0,0,0-.2.8v.7a1.55,1.55,0,0,0,.2.8.55.55,0,0,0,.5.3.79.79,0,0,0,.5-.2,1.55,1.55,0,0,0,.2-.8Zm3.09.6a1.61,1.61,0,0,1-.3,1.1,1,1,0,0,1-.8.4.81.81,0,0,1-.8-.4,1.61,1.61,0,0,1-.3-1.1v-.6a1.61,1.61,0,0,1,.3-1.1,1,1,0,0,1,.8-.4,1,1,0,0,1,.8.3,1.61,1.61,0,0,1,.3,1.1Zm-.5-.6a1.55,1.55,0,0,0-.2-.8c-.1-.2-.3-.2-.5-.2a.79.79,0,0,0-.5.2,1.55,1.55,0,0,0-.2.8v.7a1.65,1.65,0,0,0,.2.8.56.56,0,0,0,.5.3.76.76,0,0,0,.5-.2,1.46,1.46,0,0,0,.2-.8Zm3.1.6a1.61,1.61,0,0,1-.3,1.1,1,1,0,0,1-.8.4.81.81,0,0,1-.8-.4,1.61,1.61,0,0,1-.3-1.1v-.6a1.61,1.61,0,0,1,.3-1.1,1,1,0,0,1,.8-.4,1,1,0,0,1,.8.3,1.61,1.61,0,0,1,.3,1.1Zm-.39-.6a1.65,1.65,0,0,0-.2-.8c-.1-.2-.3-.2-.5-.2a.76.76,0,0,0-.5.2,1.55,1.55,0,0,0-.2.8v.7a1.55,1.55,0,0,0,.2.8.55.55,0,0,0,.5.3.76.76,0,0,0,.5-.2,1.55,1.55,0,0,0,.2-.8Zm2.29,2h-.4v-2.8l-.89.3v-.4l1.2-.5h.1v3.4Zm3.41-1.4a1.61,1.61,0,0,1-.31,1.1,1,1,0,0,1-.8.4.82.82,0,0,1-.8-.4,1.61,1.61,0,0,1-.3-1.1v-.6a1.61,1.61,0,0,1,.3-1.1,1,1,0,0,1,.8-.4,1,1,0,0,1,.8.3,1.61,1.61,0,0,1,.31,1.1Zm-.41-.6a1.55,1.55,0,0,0-.2-.8c-.1-.2-.3-.2-.5-.2a.79.79,0,0,0-.5.2,1.55,1.55,0,0,0-.2.8v.7a1.65,1.65,0,0,0,.2.8.56.56,0,0,0,.5.3.76.76,0,0,0,.5-.2,1.46,1.46,0,0,0,.2-.8Zm2.3,2h-.39v-2.8l-.9.3v-.4l1.2-.5h.1v3.4Zm3.41-1.4a1.66,1.66,0,0,1-.3,1.1,1,1,0,0,1-.81.4.82.82,0,0,1-.8-.4,1.61,1.61,0,0,1-.3-1.1v-.6a1.61,1.61,0,0,1,.3-1.1,1,1,0,0,1,.8-.4,1,1,0,0,1,.81.3,1.66,1.66,0,0,1,.3,1.1Zm-.41-.6a1.55,1.55,0,0,0-.2-.8c-.1-.2-.3-.2-.5-.2a.81.81,0,0,0-.5.2,1.56,1.56,0,0,0-.19.8v.7a1.67,1.67,0,0,0,.19.8.57.57,0,0,0,.5.3.76.76,0,0,0,.5-.2,1.46,1.46,0,0,0,.2-.8Zm2.3,2h-.39v-2.8l-.9.3v-.4l1.2-.5h.1v3.4Zm3.4-1.4a1.61,1.61,0,0,1-.3,1.1,1,1,0,0,1-.8.4.81.81,0,0,1-.8-.4,1.61,1.61,0,0,1-.3-1.1v-.6a1.61,1.61,0,0,1,.3-1.1,1,1,0,0,1,.8-.4,1,1,0,0,1,.8.3,1.61,1.61,0,0,1,.3,1.1Zm-.5-.6a1.55,1.55,0,0,0-.2-.8c-.1-.2-.3-.2-.5-.2a.79.79,0,0,0-.5.2,1.55,1.55,0,0,0-.2.8v.7a1.65,1.65,0,0,0,.2.8.56.56,0,0,0,.5.3.76.76,0,0,0,.5-.2,1.46,1.46,0,0,0,.2-.8Zm2.6.5-1.5-.6v-.4l2,.9v.3l-2,.9v-.4Z"/><path class="c" d="M69.34,270.31l1.39.7s.11,0,.11.1v.2h-.21l-1.5-.8c-.1-.1-.2-.1-.2-.2s.11-.1.2-.2l1.5-.8h.21v.1h0l-.11.1Z"/><path class="c" d="M72.13,268.81h-.2v-.3l.11-.1.8-.2h.1v2.7h.7l.1.1v.1a.1.1,0,0,1-.1.1h-2l-.1-.1V271l.1-.1h.7v-2.2Z"/><path class="c" d="M75.84,272.31c-.11,0-.3-.1-.4-.1a1.38,1.38,0,0,1-.3-.4,3.9,3.9,0,0,1,0-3,1.38,1.38,0,0,1,.3-.4.6.6,0,0,1,.4-.1c.09,0,.3,0,.39.1a1.39,1.39,0,0,1,.31.4,3.9,3.9,0,0,1,0,3,1.39,1.39,0,0,1-.31.4c-.1.1-.19.1-.39.1Zm0-3.6a.36.36,0,0,0-.3.1c-.11.1-.11.2-.2.3a4.57,4.57,0,0,0-.2,1.2,2.54,2.54,0,0,0,.2,1.2c0,.1.1.2.2.3a.36.36,0,0,0,.3.1c.2,0,.3-.1.39-.4a4.57,4.57,0,0,0,.2-1.2,2.54,2.54,0,0,0-.2-1.2.36.36,0,0,0-.39-.4Z"/><path class="c" d="M78.84,272.31c-.11,0-.3-.1-.4-.1a1.38,1.38,0,0,1-.3-.4,3.9,3.9,0,0,1,0-3,1.38,1.38,0,0,1,.3-.4.6.6,0,0,1,.4-.1c.09,0,.3,0,.39.1a1.39,1.39,0,0,1,.31.4,3.9,3.9,0,0,1,0,3,1.39,1.39,0,0,1-.31.4c-.1.1-.19.1-.39.1Zm0-3.6c-.11,0-.2.1-.3.1s-.11.2-.2.3a2.47,2.47,0,0,0-.11,1.2,4.44,4.44,0,0,0,.11,1.2c0,.1.1.2.2.3a.36.36,0,0,0,.3.1.37.37,0,0,0,.3-.1c.1-.1.1-.2.2-.3a5,5,0,0,0,.2-1.2,2.54,2.54,0,0,0-.2-1.2c0-.1-.11-.2-.2-.3s-.21-.1-.3-.1Z"/><path class="c" d="M81.84,272.31c-.11,0-.3-.1-.4-.1a1.38,1.38,0,0,1-.3-.4,3.65,3.65,0,0,1-.3-1.5,4,4,0,0,1,.3-1.5,1.38,1.38,0,0,1,.3-.4.6.6,0,0,1,.4-.1.56.56,0,0,1,.39.1,1.39,1.39,0,0,1,.31.4,3.9,3.9,0,0,1,0,3,1.39,1.39,0,0,1-.31.4c-.1,0-.19.1-.39.1Zm0-3.6c-.11,0-.2.1-.3.1s-.11.2-.2.3a2.47,2.47,0,0,0-.11,1.2,4.44,4.44,0,0,0,.11,1.2c0,.1.1.2.2.3a.36.36,0,0,0,.3.1.37.37,0,0,0,.3-.1c.1-.1.1-.2.2-.3a5,5,0,0,0,.2-1.2,2.54,2.54,0,0,0-.2-1.2c0-.1-.11-.2-.2-.3s-.21-.1-.3-.1Z"/><path class="c" d="M85,268.81h-.11v-.3a.1.1,0,0,1,.11-.1l.39-.2h.11v2.7h.39v.3h-1v-.3h.4v-2.2Z"/><path class="c" d="M88.84,272.31c-.11,0-.3-.1-.4-.1a1.38,1.38,0,0,1-.3-.4,3.65,3.65,0,0,1-.3-1.5,4,4,0,0,1,.3-1.5,1.38,1.38,0,0,1,.3-.4.6.6,0,0,1,.4-.1.56.56,0,0,1,.39.1,1.39,1.39,0,0,1,.31.4,3.9,3.9,0,0,1,0,3,1.39,1.39,0,0,1-.31.4C89.13,272.21,89,272.31,88.84,272.31Zm0-3.6c-.11,0-.2.1-.3.1s-.11.2-.2.3a4.57,4.57,0,0,0-.2,1.2,2.54,2.54,0,0,0,.2,1.2c0,.1.1.2.2.3a.36.36,0,0,0,.3.1.37.37,0,0,0,.3-.1c.1-.1.1-.2.2-.3a5,5,0,0,0,.2-1.2,3.42,3.42,0,0,0-.11-1.1c0-.1-.1-.2-.2-.3a.39.39,0,0,0-.39-.2Z"/><path class="c" d="M91.13,268.81h-.2v-.3l.11-.1.8-.2h.1v2.7h.8v.3h-2v-.4h.7v-2.1Z"/><path class="c" d="M95.23,270.31l-2.1-.7c-.1,0-.1-.1-.2-.1v-.2h.31l2.3.8c.2.1.3.1.3.2s-.1.1-.3.2h0l-2.3.8h-.4v-.2c.1,0,.1-.1.2-.1Z"/><path class="c" d="M78.54,276.31l2.1.7c.1,0,.1.1.2.1v.2h-.31l-2.4-.8c-.2-.1-.3-.1-.3-.2s.1-.1.3-.2l2.3-.8h.31v.1c-.1,0-.1.1-.2.1Z"/><path class="c" d="M81.84,278.31c-.11,0-.3-.1-.4-.1a1.38,1.38,0,0,1-.3-.4,3.9,3.9,0,0,1,0-3,1.38,1.38,0,0,1,.3-.4.6.6,0,0,1,.4-.1c.1,0,.3.1.39.1a1.39,1.39,0,0,1,.31.4,3.9,3.9,0,0,1,0,3,1.39,1.39,0,0,1-.31.4c-.1,0-.19.1-.39.1Zm0-3.6c-.11,0-.2.1-.3.1s-.11.2-.2.3a2.47,2.47,0,0,0-.11,1.2,4.44,4.44,0,0,0,.11,1.2c0,.1.1.2.2.3a.36.36,0,0,0,.3.1.37.37,0,0,0,.3-.1c.1-.1.1-.2.2-.3a5,5,0,0,0,.2-1.2,2.54,2.54,0,0,0-.2-1.2c0-.1-.11-.2-.2-.3s-.21-.1-.3-.1Z"/><path class="c" d="M85,274.91h-.11v-.3a.1.1,0,0,1,.11-.1l.39-.3h.11v3.7h.39v.4h-1v-.4h.4v-3.1Z"/><path class="c" d="M88.84,278.31c-.11,0-.3-.1-.4-.1a1.38,1.38,0,0,1-.3-.4,3.9,3.9,0,0,1,0-3,1.38,1.38,0,0,1,.3-.4.6.6,0,0,1,.4-.1c.09,0,.3,0,.39.1a1.39,1.39,0,0,1,.31.4,3.9,3.9,0,0,1,0,3,1.39,1.39,0,0,1-.31.4c-.1,0-.19.1-.39.1Zm0-3.6c-.11,0-.2.1-.3.1s-.11.2-.2.3a4.57,4.57,0,0,0-.2,1.2,2.54,2.54,0,0,0,.2,1.2c0,.1.1.2.2.3a.36.36,0,0,0,.3.1.37.37,0,0,0,.3-.1c.1-.1.1-.2.2-.3a5,5,0,0,0,.2-1.2,2.54,2.54,0,0,0-.2-1.2c0-.1-.11-.2-.2-.3s-.21-.1-.3-.1Z"/><path class="c" d="M91.84,278.31c-.11,0-.3-.1-.4-.1a1.38,1.38,0,0,1-.3-.4,3.9,3.9,0,0,1,0-3,1.38,1.38,0,0,1,.3-.4.6.6,0,0,1,.4-.1c.09,0,.3,0,.39.1a1.39,1.39,0,0,1,.31.4,3.9,3.9,0,0,1,0,3,1.39,1.39,0,0,1-.31.4C92.13,278.21,92,278.31,91.84,278.31Zm0-3.6c-.11,0-.2.1-.3.1s-.11.2-.2.3a4.57,4.57,0,0,0-.2,1.2,2.54,2.54,0,0,0,.2,1.2c0,.1.1.2.2.3a.36.36,0,0,0,.3.1.37.37,0,0,0,.3-.1c.1-.1.1-.2.2-.3a5,5,0,0,0,.2-1.2,2.54,2.54,0,0,0-.2-1.2c0-.1-.11-.2-.2-.3s-.21-.1-.3-.1Z"/><path class="c" d="M94.84,278.31c-.11,0-.3-.1-.4-.1a1.38,1.38,0,0,1-.3-.4,3.9,3.9,0,0,1,0-3,1.38,1.38,0,0,1,.3-.4.6.6,0,0,1,.4-.1c.1,0,.3.1.39.1a1.39,1.39,0,0,1,.31.4,3.9,3.9,0,0,1,0,3,1.39,1.39,0,0,1-.31.4C95.13,278.21,95,278.31,94.84,278.31Zm0-3.6c-.11,0-.2.1-.3.1s-.11.2-.2.3a4.57,4.57,0,0,0-.2,1.2,2.54,2.54,0,0,0,.2,1.2c0,.1.1.2.2.3a.36.36,0,0,0,.3.1.37.37,0,0,0,.3-.1c.1-.1.1-.2.2-.3a2.46,2.46,0,0,0,.1-1.2,4.87,4.87,0,0,0-.1-1.2c0-.1-.11-.2-.2-.3s-.21-.1-.3-.1Z"/><path class="c" d="M97.13,274.91h-.2v-.4l.1-.1.8-.3h.1v3.7h.7v.4h-2v-.4h.7v-3.1Z"/><path class="c" d="M100.84,278.31c-.11,0-.3-.1-.4-.1a1.38,1.38,0,0,1-.3-.4,3.9,3.9,0,0,1,0-3,1.38,1.38,0,0,1,.3-.4.6.6,0,0,1,.4-.1.56.56,0,0,1,.39.1,1.39,1.39,0,0,1,.31.4,3.9,3.9,0,0,1,0,3,1.39,1.39,0,0,1-.31.4C101.13,278.21,101,278.31,100.84,278.31Zm0-3.6c-.11,0-.2.1-.3.1s-.11.2-.2.3a4.57,4.57,0,0,0-.2,1.2,2.54,2.54,0,0,0,.2,1.2c0,.1.1.2.2.3a.36.36,0,0,0,.3.1.37.37,0,0,0,.3-.1c.1-.1.1-.2.2-.3a2.46,2.46,0,0,0,.1-1.2,4.87,4.87,0,0,0-.1-1.2c0-.1-.11-.2-.2-.3s-.21-.1-.3-.1Z"/><path class="c" d="M103.13,274.91h-.2v-.4l.11-.1.8-.3h.1v3.7h.7v.4h-2V278c0-.1,0-.2.1-.2h.8v-3.1Z"/><path class="c" d="M106.84,278.31c-.2,0-.3-.1-.4-.1a1.38,1.38,0,0,1-.3-.4,3.9,3.9,0,0,1,0-3,1.38,1.38,0,0,1,.3-.4.6.6,0,0,1,.4-.1.56.56,0,0,1,.39.1,1.39,1.39,0,0,1,.31.4,3.9,3.9,0,0,1,0,3,1.39,1.39,0,0,1-.31.4c-.1,0-.19.1-.39.1Zm0-3.6c-.2,0-.3.1-.4.4a5,5,0,0,0-.2,1.2,2.54,2.54,0,0,0,.2,1.2c0,.1.1.2.2.3a.5.5,0,0,0,.6,0c.1-.1.1-.2.2-.3a5,5,0,0,0,.2-1.2,2.54,2.54,0,0,0-.2-1.2c0-.1-.1-.2-.2-.3s-.31-.1-.4-.1Z"/><path class="c" d="M109.13,274.91h-.2v-.4l.11-.1.8-.3h.1v3.7h.8a.35.35,0,0,1,.1.2c0,.1,0,.1-.1.2h-2V278c0-.1,0-.2.11-.2h.7v-3.1Z"/><path class="c" d="M112.84,278.31c-.2,0-.3-.1-.4-.1a1.38,1.38,0,0,1-.3-.4,3.9,3.9,0,0,1,0-3,1.38,1.38,0,0,1,.3-.4.6.6,0,0,1,.4-.1.56.56,0,0,1,.39.1,1.39,1.39,0,0,1,.31.4,3.9,3.9,0,0,1,0,3,1.39,1.39,0,0,1-.31.4c-.1,0-.19.1-.39.1Zm0-3.6a.36.36,0,0,0-.3.1c-.11.1-.11.2-.2.3a4.57,4.57,0,0,0-.2,1.2,2.54,2.54,0,0,0,.2,1.2c0,.1.1.2.2.3a.36.36,0,0,0,.3.1.37.37,0,0,0,.3-.1c.1-.1.1-.2.2-.3a5,5,0,0,0,.2-1.2,2.54,2.54,0,0,0-.2-1.2C113.23,274.91,113,274.71,112.84,274.71Z"/><path class="c" d="M117.23,276.31l-2.1-.7c-.1,0-.1,0-.2-.1v-.1h.41l2.3.8c.2.1.3.1.3.2s-.1.1-.3.2l-2.3.8c-.1,0-.1,0-.2.1h-.2v-.1h0c.1,0,.1-.1.2-.1Z"/><path class="c" d="M146.54,240.31l2.1.7.2.1.1.1a.1.1,0,0,1-.1.1h-.31l-2.3-.8c-.2-.1-.3-.1-.3-.2s.1-.1.3-.2l2.3-.8h.41v.1c-.1,0-.1.1-.2.1Z"/><path class="c" d="M150.13,238.81h-.2v-.2h0l.11-.1.8-.2h.1V241h.7l.1.1v.2h-2l-.1-.1v-.1l.1-.1h.7v-2.3Z"/><path class="c" d="M153.84,242.31c-.2,0-.3-.1-.4-.1a1.38,1.38,0,0,1-.3-.4,3.9,3.9,0,0,1,0-3,1.38,1.38,0,0,1,.3-.4.6.6,0,0,1,.4-.1c.09,0,.3,0,.39.1a1.39,1.39,0,0,1,.31.4,3.9,3.9,0,0,1,0,3,1.39,1.39,0,0,1-.31.4c-.1,0-.19.1-.39.1Zm0-3.6a.36.36,0,0,0-.3.1c-.11.1-.11.2-.2.3a4.57,4.57,0,0,0-.2,1.2,2.54,2.54,0,0,0,.2,1.2c0,.1.1.2.2.3a.36.36,0,0,0,.3.1.37.37,0,0,0,.3-.1c.1-.1.1-.2.2-.3a5,5,0,0,0,.2-1.2,2.54,2.54,0,0,0-.2-1.2.52.52,0,0,0-.5-.4Z"/><path class="c" d="M156.84,242.31c-.2,0-.3-.1-.4-.1a1.38,1.38,0,0,1-.3-.4,3.9,3.9,0,0,1,0-3,1.38,1.38,0,0,1,.3-.4.6.6,0,0,1,.4-.1c.09,0,.3,0,.39.1a1.39,1.39,0,0,1,.31.4,3.9,3.9,0,0,1,0,3,1.39,1.39,0,0,1-.31.4c-.1,0-.19.1-.39.1Zm0-3.6a.36.36,0,0,0-.3.1c-.11.1-.11.2-.2.3a4.57,4.57,0,0,0-.2,1.2,2.54,2.54,0,0,0,.2,1.2c0,.1.1.2.2.3a.36.36,0,0,0,.3.1.37.37,0,0,0,.3-.1c.1-.1.1-.2.2-.3a5,5,0,0,0,.2-1.2,2.54,2.54,0,0,0-.2-1.2.52.52,0,0,0-.5-.4Z"/><path class="c" d="M159.84,242.31c-.11,0-.3-.1-.4-.1a1.38,1.38,0,0,1-.3-.4,3.9,3.9,0,0,1,0-3,1.38,1.38,0,0,1,.3-.4.6.6,0,0,1,.4-.1c.1,0,.3.1.39.1a1.39,1.39,0,0,1,.31.4,3.9,3.9,0,0,1,0,3,1.39,1.39,0,0,1-.31.4C160.13,242.21,160,242.31,159.84,242.31Zm0-3.6c-.11,0-.2.1-.3.1s-.11.2-.2.3a2.47,2.47,0,0,0-.11,1.2,4.44,4.44,0,0,0,.11,1.2c0,.1.1.2.2.3a.36.36,0,0,0,.3.1.37.37,0,0,0,.3-.1c.1-.1.1-.2.2-.3a5,5,0,0,0,.2-1.2,2.54,2.54,0,0,0-.2-1.2c0-.1-.11-.2-.2-.3a.38.38,0,0,0-.3-.1Z"/><path class="c" d="M162.13,238.81h-.2v-.3l.11-.1.8-.2h.1v2.7h.7l.1.1v.2h-2V241l.11-.1h.8v-2.2Z"/><path class="c" d="M165.84,242.31c-.11,0-.3-.1-.4-.1a1.38,1.38,0,0,1-.3-.4,3.9,3.9,0,0,1,0-3,1.38,1.38,0,0,1,.3-.4.6.6,0,0,1,.4-.1.56.56,0,0,1,.39.1,1.39,1.39,0,0,1,.31.4,3.9,3.9,0,0,1,0,3,1.39,1.39,0,0,1-.31.4c-.1,0-.19.1-.39.1Zm0-3.6c-.11,0-.2.1-.3.1s-.11.2-.2.3a2.47,2.47,0,0,0-.11,1.2,4.44,4.44,0,0,0,.11,1.2c0,.1.1.2.2.3a.36.36,0,0,0,.3.1.37.37,0,0,0,.3-.1c.1-.1.1-.2.2-.3a5,5,0,0,0,.2-1.2,2.54,2.54,0,0,0-.2-1.2c0-.1-.11-.2-.2-.3a.38.38,0,0,0-.3-.1Z"/><path class="c" d="M168.13,238.81h-.2v-.2h0l.11-.1.8-.2h.1V241h.8l.1.1v.1h-2v-.3h.7v-2.2Z"/><path class="c" d="M172.44,240.31l-1.4-.7-.1-.1v-.2h.3l1.5.8c.1.1.2.1.2.2s-.1.1-.2.2l-1.5.8a.31.31,0,0,0-.2.1h0v-.2l.1-.1Z"/><path class="c" d="M155.54,246.31l2.1.7c.1,0,.1.1.2.1v.3h-.31l-2.4-.8c-.2-.1-.3-.1-.3-.2s.1-.1.3-.2l2.3-.8h.31v.1c-.1,0-.1.1-.2.1Z"/><path class="c" d="M159.84,248.31c-.11,0-.3-.1-.4-.1a1.38,1.38,0,0,1-.3-.4,3.65,3.65,0,0,1-.3-1.5,4,4,0,0,1,.3-1.5,1.38,1.38,0,0,1,.3-.4.6.6,0,0,1,.4-.1c.1,0,.3.1.39.1a1.39,1.39,0,0,1,.31.4,3.82,3.82,0,0,1,.3,1.5,4.22,4.22,0,0,1-.3,1.5,1.39,1.39,0,0,1-.31.4C160.13,248.21,160,248.31,159.84,248.31Zm0-3.6a.36.36,0,0,0-.3.1c-.11.1-.11.2-.2.3a4.48,4.48,0,0,0,0,2.3c0,.1.1.2.2.3a.36.36,0,0,0,.3.1.37.37,0,0,0,.3-.1c.1-.1.1-.2.2-.3a4.48,4.48,0,0,0,0-2.3c0-.1-.11-.2-.2-.3s-.21-.1-.3-.1Z"/><path class="c" d="M162.13,245.81h-.2v-.3l.11-.1.8-.2h.2v2.7h.7l.1.1v.2h-2V248l.1-.1h.8v-2.2Z"/><path class="c" d="M165.84,248.31c-.11,0-.3-.1-.4-.1a1.38,1.38,0,0,1-.3-.4,3.65,3.65,0,0,1-.3-1.5,4,4,0,0,1,.3-1.5,1.38,1.38,0,0,1,.3-.4.6.6,0,0,1,.4-.1.56.56,0,0,1,.39.1,1.39,1.39,0,0,1,.31.4,3.82,3.82,0,0,1,.3,1.5,4.22,4.22,0,0,1-.3,1.5,1.39,1.39,0,0,1-.31.4c-.1,0-.19.1-.39.1Zm0-3.6a.36.36,0,0,0-.3.1c-.11.1-.11.2-.2.3a4.48,4.48,0,0,0,0,2.3c0,.1.1.2.2.3a.36.36,0,0,0,.3.1.37.37,0,0,0,.3-.1c.1-.1.1-.2.2-.3a4.48,4.48,0,0,0,0-2.3c0-.1-.11-.2-.2-.3a.38.38,0,0,0-.3-.1Z"/><path class="c" d="M168.84,248.31c-.11,0-.3-.1-.4-.1a1.38,1.38,0,0,1-.3-.4,3.65,3.65,0,0,1-.3-1.5,4,4,0,0,1,.3-1.5,1.38,1.38,0,0,1,.3-.4.6.6,0,0,1,.4-.1.56.56,0,0,1,.39.1,1.39,1.39,0,0,1,.31.4,3.82,3.82,0,0,1,.3,1.5,4.22,4.22,0,0,1-.3,1.5,1.39,1.39,0,0,1-.31.4C169.13,248.21,169,248.31,168.84,248.31Zm0-3.6a.36.36,0,0,0-.3.1c-.11.1-.11.2-.2.3a3.6,3.6,0,0,0,.1,2.3c0,.1.1.2.2.3a.5.5,0,0,0,.6,0c.1-.1.1-.2.2-.3a4.48,4.48,0,0,0,0-2.3c0-.1-.1-.2-.2-.3a.77.77,0,0,0-.4-.1Z"/><path class="c" d="M171.84,248.31c-.11,0-.3-.1-.4-.1a1.22,1.22,0,0,1-.3-.4,3.65,3.65,0,0,1-.3-1.5,4,4,0,0,1,.3-1.5,1.38,1.38,0,0,1,.3-.4.59.59,0,0,1,.4-.1.57.57,0,0,1,.39.1,1.1,1.1,0,0,1,.3.4,3.65,3.65,0,0,1,.3,1.5,4,4,0,0,1-.3,1.5,1.38,1.38,0,0,1-.3.4c-.1,0-.2.1-.39.1Zm0-3.6a.35.35,0,0,0-.3.1c-.1.1-.1.2-.2.3a4.27,4.27,0,0,0,0,2.3c0,.1.1.2.2.3a.37.37,0,0,0,.3.1.34.34,0,0,0,.29-.1c.1-.1.1-.2.21-.3a4.48,4.48,0,0,0,0-2.3c0-.1-.11-.2-.21-.3s-.19-.1-.29-.1Z"/><path class="c" d="M174.23,245.81H174v-.4l.1-.1.8-.2h.1v2.7h.7v.3h-2v-.3h.8v-2.1Z"/><path class="c" d="M177.84,248.31a.59.59,0,0,1-.4-.1,1.22,1.22,0,0,1-.3-.4,3.65,3.65,0,0,1-.3-1.5,4,4,0,0,1,.3-1.5,1.38,1.38,0,0,1,.3-.4.59.59,0,0,1,.4-.1c.1,0,.29.1.39.1a1.1,1.1,0,0,1,.3.4,3.65,3.65,0,0,1,.3,1.5,4,4,0,0,1-.3,1.5,1.38,1.38,0,0,1-.3.4C178.13,248.21,178,248.31,177.84,248.31Zm0-3.6a.35.35,0,0,0-.3.1c-.1.1-.1.2-.2.3a4.27,4.27,0,0,0,0,2.3c0,.1.1.2.2.3a.37.37,0,0,0,.3.1.34.34,0,0,0,.29-.1c.1-.1.1-.2.21-.3a4.48,4.48,0,0,0,0-2.3c0-.1-.11-.2-.21-.3s-.19-.1-.29-.1Z"/><path class="c" d="M180.23,245.81H180v-.4l.1-.1.8-.2h.2v2.7h.7v.3h-2v-.2h.8v-2.2Z"/><path class="c" d="M183.84,248.31c-.11,0-.3-.1-.4-.1s-.21-.2-.3-.4a3.65,3.65,0,0,1-.3-1.5,4,4,0,0,1,.3-1.5,1.38,1.38,0,0,1,.3-.4.59.59,0,0,1,.4-.1.57.57,0,0,1,.39.1,1.1,1.1,0,0,1,.3.4,3.65,3.65,0,0,1,.3,1.5,4,4,0,0,1-.3,1.5,1.38,1.38,0,0,1-.3.4c-.1,0-.2.1-.39.1Zm0-3.6a.35.35,0,0,0-.3.1c-.1.1-.1.2-.2.3a4.27,4.27,0,0,0,0,2.3c0,.1.1.2.2.3a.37.37,0,0,0,.3.1.34.34,0,0,0,.29-.1c.1-.1.1-.2.21-.3a4.48,4.48,0,0,0,0-2.3c0-.1-.11-.2-.21-.3s-.19-.1-.29-.1Z"/><path class="c" d="M187.13,245.81H187v-.4l.1-.1.8-.2h.2v2.7h.7l.1.1v.3h-2V248h.7v-2.3Z"/><path class="c" d="M190.84,248.31c-.11,0-.3-.1-.4-.1a1.22,1.22,0,0,1-.3-.4,3.65,3.65,0,0,1-.3-1.5,4,4,0,0,1,.3-1.5,1.38,1.38,0,0,1,.3-.4.59.59,0,0,1,.4-.1.57.57,0,0,1,.39.1,1.1,1.1,0,0,1,.3.4,3.65,3.65,0,0,1,.3,1.5,4,4,0,0,1-.3,1.5,1.38,1.38,0,0,1-.3.4c-.1,0-.2.1-.39.1Zm0-3.6a.35.35,0,0,0-.3.1c-.1.1-.1.2-.2.3a4.27,4.27,0,0,0,0,2.3c0,.1.1.2.2.3a.37.37,0,0,0,.3.1.34.34,0,0,0,.29-.1c.1-.1.1-.2.21-.3a4.48,4.48,0,0,0,0-2.3c0-.1-.11-.2-.21-.3s-.19-.1-.29-.1Z"/><path class="c" d="M194.23,246.31l-2.1-.7c-.1,0-.1,0-.2-.1v-.1h.41l2.29.8c.21.1.3.1.3.2s-.1.1-.3.2l-2.29.8c-.11,0-.11,0-.21.1h-.2v-.2h0c.1,0,.1-.1.2-.1Z"/><path class="c" d="M77.34,228.81l1.39,1,.11.1v.2h-.21l-.1-.1-1.5-1.1c-.1-.1-.2-.2-.2-.3s.1-.2.2-.3l1.5-1.1h.2v.4a.1.1,0,0,1-.1.1Z"/><path class="c" d="M80.23,227.81H80v-.3l.1-.1.8-.2H81v2.7h.69l.11.1c.1.1,0,.1,0,.1v.1h-2l-.11-.1V230l.11-.1h.7v-2.2Z"/><path class="c" d="M83.84,230.31a.59.59,0,0,1-.4-.1l-.3-.3a2.17,2.17,0,0,1,0-2.2l.3-.3a.6.6,0,0,1,.4-.1c.09,0,.3,0,.39.1l.31.3a2.17,2.17,0,0,1,0,2.2l-.31.3C84.13,230.31,84,230.31,83.84,230.31Zm0-2.7c-.2,0-.3.1-.4.3a2.92,2.92,0,0,0-.2.9,1.49,1.49,0,0,0,.2.9.22.22,0,0,0,.2.2.5.5,0,0,0,.6,0l.2-.2a2.49,2.49,0,0,0,.1-.8,1.49,1.49,0,0,0-.2-.9A.52.52,0,0,0,83.84,227.61Z"/><path class="c" d="M86.84,230.31a.59.59,0,0,1-.4-.1l-.3-.3a2.17,2.17,0,0,1,0-2.2l.3-.3a.6.6,0,0,1,.4-.1c.09,0,.3,0,.39.1l.31.3a2.17,2.17,0,0,1,0,2.2l-.31.3C87.13,230.31,87,230.31,86.84,230.31Zm0-2.7a.36.36,0,0,0-.3.1l-.2.2a2.66,2.66,0,0,0-.2.9,1.49,1.49,0,0,0,.2.9.22.22,0,0,0,.2.2.36.36,0,0,0,.3.1.37.37,0,0,0,.3-.1l.2-.2a2.92,2.92,0,0,0,.2-.9,1.49,1.49,0,0,0-.2-.9.22.22,0,0,0-.2-.2.38.38,0,0,0-.3-.1Z"/><path class="c" d="M89.84,230.31a.59.59,0,0,1-.4-.1l-.3-.3a2.17,2.17,0,0,1,0-2.2l.3-.3a.6.6,0,0,1,.4-.1c.09,0,.3,0,.39.1l.31.3a2.17,2.17,0,0,1,0,2.2l-.31.3C90.13,230.31,90,230.31,89.84,230.31Zm0-2.7a.36.36,0,0,0-.3.1l-.2.2a2.66,2.66,0,0,0-.2.9,1.49,1.49,0,0,0,.2.9.22.22,0,0,0,.2.2.36.36,0,0,0,.3.1.37.37,0,0,0,.3-.1l.2-.2a3.09,3.09,0,0,0,.2-.8,1.49,1.49,0,0,0-.2-.9A.52.52,0,0,0,89.84,227.61Z"/><path class="c" d="M92.13,227.81h-.2v-.3l.11-.1.8-.2h.1v2.7h.7l.1.1v.2h-2l-.1-.1V230l.1-.1h.7v-2.2Z"/><path class="c" d="M95.84,230.31a.59.59,0,0,1-.4-.1l-.3-.3a2.17,2.17,0,0,1,0-2.2l.3-.3a.6.6,0,0,1,.4-.1c.09,0,.3,0,.39.1l.31.3a2.17,2.17,0,0,1,0,2.2l-.31.3C96.13,230.31,96,230.31,95.84,230.31Zm0-2.7a.36.36,0,0,0-.3.1l-.2.2a1.42,1.42,0,0,0-.11.9,2.53,2.53,0,0,0,.11.9.22.22,0,0,0,.2.2.36.36,0,0,0,.3.1.37.37,0,0,0,.3-.1l.2-.2a2.92,2.92,0,0,0,.2-.9,1.49,1.49,0,0,0-.2-.9.22.22,0,0,0-.2-.2.38.38,0,0,0-.3-.1Z"/><path class="c" d="M99,227.81h-.11v-.3a.1.1,0,0,1,.11-.1l.39-.2h.11v2.7h.39v.2h-1v-.3h.4v-2.1Z"/><path class="c" d="M103.23,228.81l-2.1-1.1c-.1,0-.1-.1-.2-.1a.35.35,0,0,1-.1-.2v-.1h.31l2.3,1.2q.3.15.3.3t-.3.3h0l-2.3,1.2h-.41v-.2c0-.1,0-.1.11-.2s.1-.1.2-.1Z"/><path class="c" d="M86.34,235.21l1.39.7.11.1h0v.2h-.21l-1.6-.8c-.1-.1-.2-.1-.2-.2s.1-.1.2-.2l1.6-.8h.21v.1l-.11.1Z"/><path class="c" d="M89.84,236.31a.59.59,0,0,1-.4-.1l-.3-.3a2.17,2.17,0,0,1,0-2.2l.3-.3a.6.6,0,0,1,.4-.1.56.56,0,0,1,.39.1l.31.3a2.17,2.17,0,0,1,0,2.2l-.31.3C90.13,236.21,90,236.31,89.84,236.31Zm0-2.7a.36.36,0,0,0-.3.1l-.2.2a2.48,2.48,0,0,0,0,1.7.22.22,0,0,0,.2.2.36.36,0,0,0,.3.1.37.37,0,0,0,.3-.1l.2-.2a2.48,2.48,0,0,0,0-1.7.22.22,0,0,0-.2-.2A.38.38,0,0,0,89.84,233.61Z"/><path class="c" d="M92.13,233.81h-.2v-.3l.11-.1.8-.2h.1v2.7h.7l.1.1v.2h-2v-.3l.11-.1h.7v-2.1Z"/><path class="c" d="M95.84,236.31a.59.59,0,0,1-.4-.1l-.3-.3a2.17,2.17,0,0,1,0-2.2l.3-.3a.6.6,0,0,1,.4-.1.56.56,0,0,1,.39.1l.31.3a2.17,2.17,0,0,1,0,2.2l-.31.3c-.1,0-.19.1-.39.1Zm0-2.7a.36.36,0,0,0-.3.1l-.2.2a2.48,2.48,0,0,0,0,1.7.22.22,0,0,0,.2.2.36.36,0,0,0,.3.1.37.37,0,0,0,.3-.1l.2-.2a2.48,2.48,0,0,0,0-1.7.22.22,0,0,0-.2-.2.38.38,0,0,0-.3-.1Z"/><path class="c" d="M99.84,236.31a.59.59,0,0,1-.4-.1l-.3-.3a2.17,2.17,0,0,1,0-2.2l.3-.3a.6.6,0,0,1,.4-.1.56.56,0,0,1,.39.1l.31.3a2.17,2.17,0,0,1,0,2.2l-.31.3c-.1,0-.19.1-.39.1Zm0-2.7a.36.36,0,0,0-.3.1l-.2.2a2.48,2.48,0,0,0,0,1.7.22.22,0,0,0,.2.2.36.36,0,0,0,.3.1.37.37,0,0,0,.3-.1l.2-.2a2.48,2.48,0,0,0,0-1.7.22.22,0,0,0-.2-.2.38.38,0,0,0-.3-.1Z"/><path class="c" d="M102.84,236.31a.59.59,0,0,1-.4-.1l-.3-.3a2.17,2.17,0,0,1,0-2.2l.3-.3a.6.6,0,0,1,.4-.1.56.56,0,0,1,.39.1l.31.3a2.17,2.17,0,0,1,0,2.2l-.31.3c-.1,0-.19.1-.39.1Zm0-2.7a.36.36,0,0,0-.3.1l-.2.2a2.48,2.48,0,0,0,0,1.7.22.22,0,0,0,.2.2.36.36,0,0,0,.3.1.37.37,0,0,0,.3-.1l.2-.2a2.48,2.48,0,0,0,0-1.7.22.22,0,0,0-.2-.2.38.38,0,0,0-.3-.1Z"/><path class="c" d="M105.13,233.81h-.2v-.2h0l.1-.1.8-.2h.1V236h.7l.1.1v.1h-2v-.3h.81v-2.2Z"/><path class="c" d="M108.84,236.31a.59.59,0,0,1-.4-.1l-.3-.3a2.17,2.17,0,0,1,0-2.2l.3-.3a.6.6,0,0,1,.4-.1.56.56,0,0,1,.39.1l.31.3a2.17,2.17,0,0,1,0,2.2l-.31.3c-.1,0-.19.1-.39.1Zm0-2.7a.36.36,0,0,0-.3.1l-.2.2a2.48,2.48,0,0,0,0,1.7.22.22,0,0,0,.2.2.36.36,0,0,0,.3.1.37.37,0,0,0,.3-.1l.2-.2a2.48,2.48,0,0,0,0-1.7.22.22,0,0,0-.2-.2.38.38,0,0,0-.3-.1Z"/><path class="c" d="M111.13,233.81h-.3v-.2h0l.1-.1.9-.2h.1V236h.8v.3h-2V236h.81v-2.3Z"/><path class="c" d="M114.84,236.31a.59.59,0,0,1-.4-.1l-.3-.3a2.17,2.17,0,0,1,0-2.2l.3-.3a.6.6,0,0,1,.4-.1.56.56,0,0,1,.39.1l.31.3a2.17,2.17,0,0,1,0,2.2l-.31.3c-.1,0-.19.1-.39.1Zm0-2.7a.36.36,0,0,0-.3.1l-.2.2a2.48,2.48,0,0,0,0,1.7.22.22,0,0,0,.2.2.36.36,0,0,0,.3.1.37.37,0,0,0,.3-.1l.2-.2a2.48,2.48,0,0,0,0-1.7.22.22,0,0,0-.2-.2.38.38,0,0,0-.3-.1Z"/><path class="c" d="M117.13,233.81h-.2v-.2h0l.11-.1.8-.2h.1V236h.7l.1.1v.3h-2v-.1c0-.1,0-.1.1-.1h.8v-2.5Z"/><path class="c" d="M120.84,236.31a.59.59,0,0,1-.4-.1l-.3-.3a2.17,2.17,0,0,1,0-2.2l.3-.3a.6.6,0,0,1,.4-.1.56.56,0,0,1,.39.1l.31.3a2.17,2.17,0,0,1,0,2.2l-.31.3C121.13,236.21,121,236.31,120.84,236.31Zm0-2.7a.36.36,0,0,0-.3.1l-.2.2a2.48,2.48,0,0,0,0,1.7.22.22,0,0,0,.2.2.36.36,0,0,0,.3.1.37.37,0,0,0,.3-.1l.2-.2a2.48,2.48,0,0,0,0-1.7.22.22,0,0,0-.2-.2A.38.38,0,0,0,120.84,233.61Z"/><path class="c" d="M124.43,235.31l-1.39-.7s-.11,0-.11-.1v-.1h.21l1.6.8c.1.1.2.1.2.2s-.1.1-.2.2l-1.6.8a.1.1,0,0,0-.1.1h-.11v-.2h0l.11-.1Z"/><path class="d" d="M119.63,235.61s-3.3-4.7-7.4-.8-12.89,15.7-12.39,22,5.2,14.5,5.2,17.7-1.9,11.5,1.1,14.9,13.9,2.8,13.9,2.8l5.5-.3s12.39,3.3,18.39,0,3.5-18.7,2.7-21.2l-.8-2.5s1.9-12.4-1.7-19.9-8.4-11.1-13.2-11.8a70.79,70.79,0,0,0-11.3-.9Z"/><path class="e" d="M170.34,308.71c-3-3.3-10.4-5-20.5-10s-14.11-7.5-14.11-7.5c-4.19-1.6-9.89-.5-11.8-.2-1.89-.4-7.6-1.4-11.8.2,0,0-4,2.5-14.1,7.5s-17.5,6.6-20.5,10-3.5,11.6-3.5,11.6H174C173.84,320.31,173.23,312,170.34,308.71Z"/><path class="f" d="M116.34,287.91s-1.9-2.5-4-1.4-6.5,9.5-6.5,9.5.5,14.7,2.6,15.8,3.8-8.4,4.3-9.6,10,4.6,10,4.6l8.1-3.8s3.5,9.8,5.1,10.1,2.2-13.8,1.6-17.2-4.3-8.4-7.8-8.7a13,13,0,0,0-7,1.7Z"/><path class="f" d="M113.84,279.31s.3,13.1,1.1,16.1,6.1,12.3,8.6,12.8,9.8-13.6,9.8-13.6l1.4-16.4C134.84,278.31,128.34,282.11,113.84,279.31Z"/><path class="d" d="M124.84,282.31l-3.2-2.1a50.34,50.34,0,0,1-7.8-.9s.1,5.4.5,10l12.5-3.6Z"/><path class="d" d="M119.13,238.51s3.5-7.9,11.8-8.2a17,17,0,0,1,10,3,17.25,17.25,0,0,1,6.4,8.2c1.9,5.4,9,28.1,12.4,37.6s3,18.3-2.5,27.2-18.6,11.4-23.6,6.9-7.2-18.8-3.8-25.9,3.3-10.9,3-18.3-11.8-19.7-13.1-23.2a13.17,13.17,0,0,1-.6-7.3Z"/><path class="g" d="M108.23,261.91s-3.6-2.3-3.39,1.8a13.07,13.07,0,0,0,1.3,4.5,10.58,10.58,0,0,0,2.7,3.5l.89.6Z"/><path class="f" d="M119.63,240.31s-8.1,7.5-10,11.9a22.28,22.28,0,0,0-1.7,9.9,131,131,0,0,0,2.8,16.3c.81,2.8,6.7,8.3,13.31,8.8,7.3.5,12.89-9.2,12.89-9.2s2-15,2-16.5S122.13,253.51,119.63,240.31Z"/><path class="g" d="M124.73,259.31s1.11,7.5,1.11,9-5,.7-5,.7"/><path class="g" d="M119.84,272.71s4.8,3.9,7-.4"/><path class="c" d="M117.84,260.11a.82.82,0,0,1-.2.5,1.38,1.38,0,0,1-.3.4.54.54,0,0,1-.4.2h-.4a.76.76,0,0,1-.4-.2c-.1-.1-.2-.3-.3-.4a1.27,1.27,0,0,1-.1-.6v-.6a.9.9,0,0,1,.1-.5c.1-.2.1-.3.2-.4s.2-.2.3-.2.2-.1.3,0a.76.76,0,0,1,.4.2,1.38,1.38,0,0,1,.3.4,1.42,1.42,0,0,1,.2.6c.3.1.3.4.3.6Z"/><path class="c" d="M130.84,260a1.58,1.58,0,0,1-.2.6.78.78,0,0,1-.4.4,1.42,1.42,0,0,1-.6.2H129a1.51,1.51,0,0,1-.61-.2.93.93,0,0,1-.39-.5,1.3,1.3,0,0,1-.2-.6,1.27,1.27,0,0,1,.1-.6c0-.2.1-.3.2-.5s.2-.3.3-.4a.76.76,0,0,1,.5-.2c.2,0,.3-.1.5,0s.4.1.6.1a1,1,0,0,1,.5.4c.1.2.2.3.3.5v.8Z"/><path class="g" d="M113.84,256.31s.7-3,6-1.7"/><path class="g" d="M125.84,255.51s4.1-3.2,9,.8"/><path class="h" d="M373.13,82.21l-9.4,2.2,7.8,32.5,9.4-2.2Z"/><path class="i" d="M387.34,86.51l-9.4,2.2,6.1,25.1,9.4-2.2Z"/><path class="j" d="M395.73,67.91l-9.39,2.2,9.79,40.9,9.4-2.2Z"/><path class="k" d="M446.23,84.61a18.11,18.11,0,0,1-.4-13.7,17.93,17.93,0,0,1,9.5-10l.4-.2-5.2-11.8a29.32,29.32,0,0,0-11.59,8.8,31.88,31.88,0,0,0-6.21,13.1,30.87,30.87,0,0,0,23.9,36.7l2.7-12.6a18.68,18.68,0,0,1-7.9-3.5A18.43,18.43,0,0,1,446.23,84.61Z"/><path class="i" d="M470,93.71a17.56,17.56,0,0,1-10.59,1.2l-2.71,12.6a30.54,30.54,0,0,0,19.1-2l-5.3-12.1Z"/><path class="j" d="M470.44,93.51l5.29,12.1a31.42,31.42,0,0,0,12.91-10.5,30.62,30.62,0,0,0,5.4-15.7l-13.4-.9a17.56,17.56,0,0,1-10.2,15Z"/><path class="h" d="M450.53,48.91l5.2,11.8a18.5,18.5,0,0,1,9-1.3,17.7,17.7,0,0,1,8.5,3.2,18.23,18.23,0,0,1,7.5,15.9l13.41.9a27.66,27.66,0,0,0-2.6-14.7,29.78,29.78,0,0,0-7-9.9,30.34,30.34,0,0,0-22.1-8.5A31.76,31.76,0,0,0,450.53,48.91Z"/><path class="i" d="M387.53,41.71l.6-6.4h6.6v1.5h-5.1l-.4,3.5a3.68,3.68,0,0,1,2.11-.5,3.45,3.45,0,0,1,2.79,1.2,4.41,4.41,0,0,1,1,3.1,4.5,4.5,0,0,1-1.1,3.1,3.72,3.72,0,0,1-3,1.1,4,4,0,0,1-2.7-.9,3.76,3.76,0,0,1-1.2-2.6h1.5a2.45,2.45,0,0,0,.8,1.6,2.31,2.31,0,0,0,1.7.5,2.34,2.34,0,0,0,1.8-.8,3.28,3.28,0,0,0,.6-2.1,2.72,2.72,0,0,0-.7-2,2.5,2.5,0,0,0-1.8-.8,2.86,2.86,0,0,0-1.7.5l-.4.3Z"/><path class="i" d="M465.14,69.71a3.37,3.37,0,0,1-.5,1.7,3.3,3.3,0,0,1-1.41,1.2,3.84,3.84,0,0,1,1.6,1.2,3.08,3.08,0,0,1,.6,1.9,3.31,3.31,0,0,1-1.1,2.6,4.7,4.7,0,0,1-5.8,0,3.47,3.47,0,0,1-1.1-2.6,3.29,3.29,0,0,1,.6-1.9,3.44,3.44,0,0,1,1.6-1.3,3,3,0,0,1-1.3-1.2,3.37,3.37,0,0,1-.5-1.7,3,3,0,0,1,1-2.5,4.5,4.5,0,0,1,5.4,0A3.74,3.74,0,0,1,465.14,69.71Zm-1.31,5.9a2.06,2.06,0,0,0-.7-1.7,2.48,2.48,0,0,0-1.8-.7,2.39,2.39,0,0,0-2.5,2.4,2.35,2.35,0,0,0,.6,1.7,3,3,0,0,0,3.6,0A1.76,1.76,0,0,0,463.83,75.61Zm-2.39-8.1a2,2,0,0,0-1.5.6,2.07,2.07,0,0,0-.6,1.6,2.27,2.27,0,0,0,.6,1.6,2.09,2.09,0,0,0,1.59.6,1.89,1.89,0,0,0,1.5-.6,2.07,2.07,0,0,0,.6-1.6,2.11,2.11,0,0,0-.6-1.6A2.45,2.45,0,0,0,461.44,67.51Z"/><path class="i" d="M376.23,56.21a6.78,6.78,0,0,1-1,4.2,3.49,3.49,0,0,1-3,1.4,3.33,3.33,0,0,1-3-1.3,6.39,6.39,0,0,1-1-4v-2.2a6.85,6.85,0,0,1,1-4.2,3.51,3.51,0,0,1,3-1.4,3.31,3.31,0,0,1,3,1.3,7,7,0,0,1,1,4Zm-1.6-2.2a5.62,5.62,0,0,0-.6-3,2.24,2.24,0,0,0-3.59,0,5.46,5.46,0,0,0-.6,2.9v2.6a5.62,5.62,0,0,0,.6,3,1.9,1.9,0,0,0,1.79,1,2,2,0,0,0,1.8-.9,5.46,5.46,0,0,0,.6-2.9Z"/><path class="l" d="M477.94,127.41c-.1-1.6-.8-10.1-1.8-12.3-1.2-2.4-6.8-4.9-11.6-7.8s-20.2-12.1-22.4-13.6a37.81,37.81,0,0,0-6.1-2.5l-12.1-.7h-.5l-12,.7a26.58,26.58,0,0,0-6,2.6c-2.3,1.3-17.7,10.8-22.4,13.5s-10.3,5.3-11.6,7.8c-1.1,2.2-1.8,10.7-1.8,12.3Z"/><path class="m" d="M438.53,108.21c1.3-3.1,1.5-11.4.3-14.6s-3.1-3.6-3.1-3.6l-23.5-.3s-3.39,4.8-3.39,7,4.39,16,6.6,20a18,18,0,0,0,1,1.8l8.1-7.7,8.5,7.5C435.64,113.61,437.94,109.51,438.53,108.21Z"/><path class="m" d="M411.13,84.71s1.71,11.1,2.8,13.9,9.1,12.1,10.7,12.1,11.1-11.2,11.9-12.9,2.5-11.9,2.5-11.9-8.5,3.1-13.1,3.1S411.13,84.71,411.13,84.71Z"/><path class="n" d="M425.53,94.71l-11.1-8.8c-2-.8-3.4-1.3-3.4-1.3s.9,5.9,1.8,10.1Z"/><path class="m" d="M407.94,67.91s-1.5-3.3-3.9-.5-.5,5.6,1,8.6,3.3,3.9,3.9,3.4S407.94,67.91,407.94,67.91Z"/><path class="m" d="M442.83,67.91s1.5-3.3,3.9-.5.5,5.6-1,8.6-3.29,3.9-3.9,3.4S442.83,67.91,442.83,67.91Z"/><path class="m" d="M414.63,45.61s-7,4.9-8.1,9.3,1.7,24.8,2,27.5,10.1,11.6,13.2,12.9a13.88,13.88,0,0,0,9,0c1.5-.7,8.8-8.6,10.1-10.9s3.6-21.2,3.6-25.4-2.9-10.5-6.8-13.1-9.3-4.6-14.6-3.6A25.41,25.41,0,0,0,414.63,45.61Z"/><path class="o" d="M420.73,77.91s-1,.2.5,1.2,3.4,2.6,5.91,1.8c2.3-.8,4.3-1.3,3.9-3.8"/><path class="o" d="M419,83.91a20.59,20.59,0,0,0,13.2-.5"/><path class="c" d="M417.63,70.91c.5,0,.9-.7.9-1.5s-.4-1.5-.9-1.5-.9.7-.9,1.5S417.13,70.91,417.63,70.91Z"/><path class="c" d="M434,69.41c0,.8-.4,1.5-.9,1.5s-.9-.7-.9-1.5.4-1.5.9-1.5S434,68.51,434,69.41Z"/><path class="o" d="M414,64.91a8.24,8.24,0,0,1,3.3-1.5,7.35,7.35,0,0,1,3.6.2"/><path class="o" d="M429.73,63.41s4.6-1.3,7.8,2"/><path d="M445.94,55.21a16.34,16.34,0,0,0-7.5-9.5,25.09,25.09,0,0,0-3.91-3.4c-2.5-2.3-5.4-4.3-9.1-4-3.9.3-7.5,2.6-11.4,2.4a1.36,1.36,0,0,0-1.4,1.8,24.32,24.32,0,0,1-4.7.2,1.54,1.54,0,0,0-1.5,1.5,1.42,1.42,0,0,0,.9,1.3,12.79,12.79,0,0,1-6-1.1,1.7,1.7,0,0,0-1.4,0,1.33,1.33,0,0,0-1.1,1.4c.1,1.5,3,13,6.4,15.7.2.2,1.6,1.5,2.3,1.5a1.54,1.54,0,0,0,1.5-1.5c.4-3.9,4.9-5.6,8.2-6.5,1.8-.5,3.7-.9,5.5-1.5a22.93,22.93,0,0,0,11.6-3.6,31.27,31.27,0,0,0,6.6,5.9c.1.3.3.5.4.8s.2.3.2.5a1,1,0,0,1,.1.3,26.43,26.43,0,0,1,1.2,4,1.51,1.51,0,0,0,2.9,0,12.08,12.08,0,0,0,.3-2.8,1.79,1.79,0,0,0,.41-1A12.12,12.12,0,0,1,445.94,55.21Z"/><path d="M422.84,42.31l.29.3c.1.1.21.2.3.2a1.42,1.42,0,0,1,.4.2s.4,0,.4.1.4,0,.4-.1a.35.35,0,0,0,.2-.1l.2-.1c.1-.1.2-.2.3-.2s.2-.2.2-.3.1-.3.2-.4v-.4a1.27,1.27,0,0,0-.1-.6c-.1-.2-.2-.3-.29-.5a2.43,2.43,0,0,0-.5-.3,1.31,1.31,0,0,0-.61-.1.57.57,0,0,0-.39.1,1.71,1.71,0,0,0-.71.4c-.1.1-.2.2-.2.3a1.88,1.88,0,0,0-.2.8.6.6,0,0,1,.1-.4c.1-.1.1-.2.2-.4s.2-.2.2-.3.21-.2.3-.2.2-.1.4-.2h-.1a.6.6,0,0,0,.4-.1h-.1a.6.6,0,0,1,.4.1c.1.1.2.1.4.2s.2.2.3.2.2.2.2.3a.78.78,0,0,0-.4-.4,2.19,2.19,0,0,0-.5-.3.64.64,0,0,0-.6,0,1.42,1.42,0,0,0-.6.2c-.1.1-.2.2-.3.2a1.61,1.61,0,0,0-.4.7.6.6,0,0,1-.1.4C422.63,41.81,422.63,42.11,422.84,42.31Z"/><path class="p" d="M71.34,152.61a26.67,26.67,0,0,1,2.6-13.3,26.26,26.26,0,0,1,8.8-10.2c3.2-2.1,6.8-3.5,10.2-5.2,7.8-3.9,14.6-9.6,21.3-15.1-5.4,8.6-6.4,19.1-10.2,28.5a47.19,47.19,0,0,1-19.3,23.2c-2.4,1.4-5.2,2.6-7.8,1.8a8.69,8.69,0,0,1-2.6-1.6,7,7,0,0,1-1.7-2.5,24.58,24.58,0,0,1-1.6-5.9"/><path class="q" d="M81.34,151.91c3.8-12.5,15.89-19.7,22.5-30.5.39-.6-.61-1.1-.9-.5-6.6,10.9-18.7,18.1-22.6,30.8a.6.6,0,0,0,.1.4c.1.1.2.2.3.2h.4A.55.55,0,0,0,81.34,151.91Z"/><path class="q" d="M84.23,145.11a38.15,38.15,0,0,0,10-2.3c.61-.2.31-1.2-.3-1a32.42,32.42,0,0,1-9.8,2.2.56.56,0,0,0,.1,1.1Z"/><path class="q" d="M92,135.61a29.33,29.33,0,0,0,7.8-1.6c.6-.2.39-1.2-.3-1a27.82,27.82,0,0,1-7.61,1.6c-.5-.1-.5,1,.11,1Z"/><path class="q" d="M99.73,127.51a14.55,14.55,0,0,0,4.2-1.2c.11-.1.2-.2.2-.3a.6.6,0,0,0-.1-.4c-.1-.1-.2-.2-.3-.2h-.4a14.19,14.19,0,0,1-4,1.2c-.1,0-.2.1-.3.2a.6.6,0,0,0-.1.4c0,.1.1.2.2.3q.45.15.6,0Z"/><path class="q" d="M94.73,126.31c.11,1.5.2,3,.4,4.5,0,.1.1.2.2.3s.2.1.4,0,.2-.1.3-.2.1-.2.1-.4c-.2-1.4-.3-2.8-.4-4.2.11-.6-1-.6-1,0Z"/><path class="q" d="M87.13,133.91a18.46,18.46,0,0,0,.6,5.7c0,.1.11.2.2.3a.61.61,0,0,0,.4.1c.1,0,.2-.1.3-.2a.6.6,0,0,0,.1-.4,25.46,25.46,0,0,1-.6-5.4c0-.8-1-.8-1-.1Z"/><path class="q" d="M81.13,140.51a23.82,23.82,0,0,0,1.6,5.8c0,.1.11.2.2.3a.61.61,0,0,0,.4.1c.1,0,.2-.1.3-.2a.6.6,0,0,0,.1-.4,30.05,30.05,0,0,1-1.6-5.8c0-.1-.1-.2-.2-.3a.29.29,0,0,0-.39,0c-.11,0-.2.1-.31.2S81,140.41,81.13,140.51Z"/><path class="r" d="M67.34,153.41c-4.4-3.8-8.61-8.2-11-13.5s-2.8-11.9.3-16.9c1.6-2.7,4.1-4.7,6.1-7.1a30.71,30.71,0,0,0,6.8-13c1.2-5.1,1.3-10.7,4.5-14.8a12,12,0,0,1,6.2-4.1,11.74,11.74,0,0,1,7.4.3c4.1,1.6,7,5.2,8.9,9.1,3.19,6.4,4.1,14.6-.11,20.3-1.8,2.5-4.39,4.2-6.8,6.1a49.54,49.54,0,0,0-8.9,8.2,14.15,14.15,0,0,0-2.89,5.4c-.7,2.9.2,6,1.5,8.8s2.89,5.3,4,8.1c1.1,3.1,1.1,7.2-1.7,8.9-2.3,1.4-5.2.3-7.7-.8-2.9-1.4-6-3.1-7.4-6"/><path class="s" d="M13.93,100.41l-13.7,5,18.41,49.9,13.69-5Z"/><path class="c" d="M13,102.41l-10.81,4,4,10.8,10.81-4Z"/><path class="p" d="M17.43,114.41l-10.8,4,4,10.8,10.8-4Z"/><path class="t" d="M21.93,126.41l-10.8,4,4,10.8,10.8-4Z"/><path class="r" d="M26.33,138.41l-10.8,4,4,10.8,10.8-4Z"/><path class="u" d="M92.63,161.21c-2.4-6-5.4-8.7-5.4-8.7l-23.39-12.4-10.5-1.6v-.1l-.3.1-.31-.1v.1l-10.5,1.6-23.4,12.4s-3,2.7-5.4,8.7l-2.4,6H95Z"/><path class="v" d="M53.84,147.81v18.1"/><path class="v" d="M21.33,154.91s3.4,8.3,3.7,12.1"/><path class="v" d="M84.54,154.81s-4.5,7.3-6.11,12.2"/><path class="c" d="M53.63,130.21c12.5,0,22.6-9.4,22.6-21s-10.1-21-22.6-21-22.6,9.4-22.6,21S41,130.21,53.63,130.21Z"/><path class="w" d="M43.43,128.71l.61,8.4,9.5,10.2,9.6-9.5v-8.6L53,131.31Z"/><path class="c" d="M48.73,130.21l-5.3-1.5.61,8.4.19.3,9.5-2.4Z"/><path class="w" d="M42.14,115.41s-2.6-1.9-2.6,1.6a8.43,8.43,0,0,0,.69,3.1,6.69,6.69,0,0,0,1.91,2.5Z"/><path class="w" d="M64.43,115.41S67,113.51,67,117a8.44,8.44,0,0,1-.7,3.1,8,8,0,0,1-1.9,2.5v-7.2Z"/><path class="w" d="M42.14,112s-.31,13.8.79,16.7,7.4,6.9,9.8,7.4,10-3.9,11.4-6.9.8-19.5.8-19.5-1.3-7.9-10.8-8.2S42.43,107.31,42.14,112Z"/><path class="v" d="M50.63,123.81s-.3.6.8,1.3a3.42,3.42,0,0,0,2.8.6,3.51,3.51,0,0,0,1.4-.6,3.46,3.46,0,0,0,1-1.1"/><path class="v" d="M49.34,127.21a13.09,13.09,0,0,0,8.3,0"/><path class="c" d="M48.93,116.51c0,.8-.39,1.4-.89,1.4s-.9-.6-.9-1.4.4-1.4.9-1.4S48.93,115.81,48.93,116.51Z"/><path class="c" d="M59.43,116.51c0,.8-.39,1.4-.89,1.4s-.9-.6-.9-1.4.4-1.4.9-1.4S59.43,115.81,59.43,116.51Z"/><path class="v" d="M51,114.21H43.73s-1.4.3-.8,3.5c.5,2.1,5.8,1.6,6.9,1.6,2.1,0,2.5-2.8,2.1-4.4a1,1,0,0,0-.39-.5c-.11-.2-.31-.2-.5-.2Z"/><path class="v" d="M55.54,114.21h7.3s1.5.3.8,3.5c-.5,2.1-5.8,1.6-6.9,1.6-2.1,0-2.5-2.8-2.1-4.4a1,1,0,0,1,.4-.5c.09-.2.3-.2.5-.2Z"/><path class="v" d="M51.34,114.31H55"/><path class="v" d="M52.23,115.71s.81-1.4,2.31,0"/><path class="v" d="M43.73,114.21l-1.69,1"/><path class="v" d="M63.23,114.41l1.7,1"/><path class="x" d="M56,113.41s2.1-1.6,6.3,0"/><path class="x" d="M51.13,113.41a7.84,7.84,0,0,0-3.3-.7,7.54,7.54,0,0,0-3.3.7"/><path class="u" d="M43.93,134.81l9.61,12.5L48.73,153l-7.8-12.1Z"/><path class="u" d="M53.84,147.81l5.8,5.8,7.3-12.8-3.4-4.9Z"/><path class="y" d="M307.94,236.21a18.78,18.78,0,0,0-10.5,3.2,18.56,18.56,0,0,0-6.9,8.5,19.27,19.27,0,0,0-1.1,10.9,18.48,18.48,0,0,0,5.2,9.7,19.56,19.56,0,0,0,9.7,5.2,18.44,18.44,0,0,0,10.9-1.1,19.77,19.77,0,0,0,8.5-6.9,18.56,18.56,0,0,0,3.2-10.5,19.12,19.12,0,0,0-19-19Zm0,30.8a12.27,12.27,0,0,1-6.71-2,11.57,11.57,0,0,1-4.39-5.4,12.55,12.55,0,0,1-.71-6.9,11.81,11.81,0,0,1,3.3-6.1,12.21,12.21,0,0,1,6.1-3.3,12.1,12.1,0,0,1,12.3,5.1,12.13,12.13,0,0,1-1.5,15.2A12,12,0,0,1,307.94,267Z"/><path class="y" d="M394.34,208.51a11.87,11.87,0,0,0-6.8,2.1,12.11,12.11,0,0,0-4.5,5.5,12.27,12.27,0,0,0-.7,7.1,11.9,11.9,0,0,0,3.39,6.3,12.61,12.61,0,0,0,6.3,3.4,12.36,12.36,0,0,0,7.1-.7,12,12,0,0,0,5.5-4.5,12.67,12.67,0,0,0,2.1-6.8,12.46,12.46,0,0,0-12.39-12.4Zm0,20.1a8,8,0,0,1-4.3-1.3,8.19,8.19,0,0,1-2.9-3.5,7.68,7.68,0,0,1-.4-4.5,7.6,7.6,0,0,1,6.1-6.1,8.59,8.59,0,0,1,4.5.4,8.19,8.19,0,0,1,3.5,2.9,7.49,7.49,0,0,1,1.3,4.3,7.64,7.64,0,0,1-2.3,5.5A7.47,7.47,0,0,1,394.34,228.61Z"/><path class="z" d="M346,285a31.2,31.2,0,1,0-31.2-31.2A31.24,31.24,0,0,0,346,285Z"/><path class="aa" d="M371,246a21.8,21.8,0,1,0-21.8-21.8A21.79,21.79,0,0,0,371,246Z"/><path class="ab" d="M334.53,269.81l-8.9,7.2-.2,22.2h39.9l-2-24.3-9.3-6.5Z"/><path class="q" d="M334,260.81s-.6,10.4,0,12.1,3,7.7,11.2,8.5c9.61,1,11.9-10,11.9-10l-.7-10.6a38.94,38.94,0,0,1-11.3.8c-5.1-.6-11.29-1.4-11.29-1.4"/><path class="ac" d="M334,260.81s-.6,10.4,0,12.1,3,7.7,11.2,8.5c9.61,1,11.9-10,11.9-10l-.7-10.6a38.94,38.94,0,0,1-11.3.8c-5.1-.6-11.29-1.4-11.29-1.4"/><path class="ab" d="M346.63,264.41l-8.9-3.8-3.89-.5.1.6s-.3,5.4-.21,9.1l12.9-2.1Z"/><path class="ad" d="M325.34,242.21a14.26,14.26,0,0,0-.5,6.2c.6,2.7,6,4.8,6,4.8s.5,5.9,1.89,7.4,7.71,6.6,10.4,7.4,4.8.8,6.6-.3,8.11-5.5,9-7.8a70,70,0,0,0,2.11-6.9,6.51,6.51,0,0,0,4.39-3,21.11,21.11,0,0,0,1.4-7.4c0-1.1-3.1-3.5-5.2-5s-14.4-9.1-16.7-9.3-5,.6-6,1.5Z"/><path class="ac" d="M342.44,253.51a4.78,4.78,0,0,0,3.6,1.2,4,4,0,0,0,1.5-.3,2.73,2.73,0,0,0,1.2-.9"/><path class="ac" d="M341.23,257s3.8,2.5,9.11,0"/><path class="ac" d="M341.84,246.31s-3-3.8-6.9-1.2"/><path class="ac" d="M350.23,246.41a5.27,5.27,0,0,1,2.61-2,6.13,6.13,0,0,1,3.29,0"/><path class="c" d="M340.13,245.41a1.27,1.27,0,0,0-.1-.6,1,1,0,0,0-.5-.4,1.27,1.27,0,0,0-.6-.1.86.86,0,0,0-.6.3.6.6,0,0,0-.3.6v.6a1,1,0,0,0,.4.5,1.42,1.42,0,0,0,.6.2.91.91,0,0,0,.7-.3C339.94,245.91,340.13,245.71,340.13,245.41Z"/><path class="c" d="M353.94,245.41a1.27,1.27,0,0,0-.1-.6,1,1,0,0,0-.5-.4,1.31,1.31,0,0,0-.61-.1.88.88,0,0,0-.6.3.6.6,0,0,0-.29.6,1.27,1.27,0,0,0,.1.6,1,1,0,0,0,.4.5,1.38,1.38,0,0,0,.6.2.92.92,0,0,0,.7-.3A1.33,1.33,0,0,0,353.94,245.41Z"/><path class="ae" d="M343.23,242.41a8.7,8.7,0,0,0-4.5-1,9.44,9.44,0,0,0-4.39,1.4"/><path class="ae" d="M357.63,242.41a8.75,8.75,0,0,0-4.5-1,9.52,9.52,0,0,0-4.4,1.4"/><path class="ab" d="M342.73,230.81s-2.2,5-4.2,7.1-6,3.3-6,3.3a26.06,26.06,0,0,1-1.7,2.8c-.5.5-.3,5.5-.3,6s-1.9-1.4-1.9-2.5a13,13,0,0,0-.29-2.7,22.4,22.4,0,0,1-2.61-1.4c-.6-.6-1.39-.5-1.39-2.1v-2.6s-3.5-.5-2.8-3.8,7.4-14.6,13.5-17,10.1.1,10.1.1a17.78,17.78,0,0,1,10.1-2.1c5.8.7,13.6,11.7,15.2,16.9s0,9.3-.8,9.5c-1,.1-2,.1-3,.1,0,0-.2.5-1.4,1.4a10.71,10.71,0,0,1-3.5,1.4,8.3,8.3,0,0,1-.2,3.5,6.63,6.63,0,0,1-.9,1.9l-.6-8.3a24.84,24.84,0,0,1-7.7-4.1,21.07,21.07,0,0,1-4.9-5.4s1.4,3.2.8,3.5S343.34,234,342.73,230.81Z"/><path class="af" d="M333.63,271.61l-1.79,27.5H297.23s5.71-13.4,8-14.8,21.5-8.8,21.5-8.8a34.71,34.71,0,0,1,2.9-3.8C331.13,269.91,333.34,270.41,333.63,271.61Z"/><path class="ac" d="M326.63,275.51a79.64,79.64,0,0,1-2.5,9.9c-1.2,3.3-2.79,5.2-2.7,5.8s2.2.8,3.5-.9,4.4-6.3,5.4-6.3,1.7,6.6,1.7,6.6"/><path class="af" d="M356.94,271.61l1.9,27.5h34.6s-5.71-13.4-8-14.8-21.5-8.9-21.5-8.9-1.3-1.8-2.9-3.8C359.34,269.81,357.23,270.41,356.94,271.61Z"/><path class="ac" d="M363.84,275.51a79.64,79.64,0,0,0,2.5,9.9c1.29,3.3,2.89,5.2,2.7,5.9s-2.2.8-3.5-.9-4.4-6.3-5.4-6.3-1.7,6.6-1.7,6.6"/><path class="ag" d="M227.44,25.51s3.5-1.4,5.7.7"/><path class="ag" d="M221.63,26.21A10.24,10.24,0,0,0,217,26a9.45,9.45,0,0,0-4.2,1.9"/><path class="ah" d="M237,90.51l-1.2-29s-2.4-4.1-9-6.5-14.5,1-17.2,4.1c-1.1,1.2-1.4,15-1.5,31.6Z"/><path class="ai" d="M210.94,55.11s-18.6,9.3-21.3,11-2.9,7.5-2.9,10.3.8,14.2.8,14.2c7,.5,34.3.1,34.3.1l-1.61-23.4C220.34,67.11,218.13,50.81,210.94,55.11Z"/><path class="ai" d="M216.53,49.11s-4.3.5-6,2.9a12.55,12.55,0,0,0-2.3,4.8l-1.6,14.8,5.6-1.4-2.7,6.6s5.2,13.4,5.4,13.8h7.2L221,68.71s0-12.8-1-15.6C218.84,50.41,217.84,49.11,216.53,49.11Z"/><path class="ai" d="M227.23,58l1.11,32.6,17.2.1s1.9-21.6.2-25.1-16.4-11.1-17.9-10.9S227.23,58,227.23,58Z"/><path class="ai" d="M227.23,51.31a8.38,8.38,0,0,1,3.3,1.6,8.23,8.23,0,0,1,2.3,2.9c1.6,3.6,5.9,14.8,5.9,14.8l-5.4.7,5.8,4.1-4.2,15.3-6.2-.1h-.6l-.5-18.4-1-17.2C226.73,55.11,225.53,52.31,227.23,51.31Z"/><path class="aj" d="M215.23,43.41s.71,4.8-.29,7.4,3.1,10.8,4.79,16,3.3,9.2,4.3,8.6,4.5-19.8,4.3-22.2,1.5-9.8,1.5-9.8S220.73,46,215.23,43.41Z"/><path class="ak" d="M203.63,38.41a10,10,0,0,0,5.6-1.4,9.29,9.29,0,0,0,3.8-4.3,10.22,10.22,0,0,0,.8-5.7,9.9,9.9,0,0,0-2.6-5.2,10,10,0,0,0-5-2.8,9.67,9.67,0,0,0-5.8.5,9.8,9.8,0,0,0-6.2,9.1,9.51,9.51,0,0,0,2.6,6.8,9.66,9.66,0,0,0,6.8,3Z"/><path class="aj" d="M208.53,33.21s-1.7-4.3-3.6-2.6,0,5.3,1.5,7.4,4.3,1.2,4-1a10.3,10.3,0,0,0-1.9-3.8Z"/><path class="aj" d="M233.94,30.61s.9-4.1,2-1.4a8.42,8.42,0,0,1,.7,3.5,7.91,7.91,0,0,1-1,3.4c-1,1.6-.8,1.5-1.2,0a46.44,46.44,0,0,1-.5-5.5Z"/><path class="aj" d="M206.23,25.31s3.11,15.1,5.11,18.7,8.6,9.7,14.5,7.2,9.2-7.1,9.2-12.6.8-12.7-.2-18.8a11.7,11.7,0,0,0-4.11-7.1,12.54,12.54,0,0,0-7.6-3.1c-5.29-.2-13.5,2.8-15.1,8.1a32.4,32.4,0,0,0-1.8,7.6Z"/><path class="ak" d="M206.44,30.81s9.2-3.6,15.1-8.1,7.7-7.7,7.7-7.7,2.8,7.5,4,10,2.2,5.2,2.2,5.2,1.9-3.1,1.9-9.7-1.9-11.9-8.8-15.3-18.2-1.4-23.3,3.6-4.1,12.9-2.8,16.2a13.61,13.61,0,0,0,4,5.8Z"/><path class="al" d="M226.73,24.81s-1,.2-1,3.1,1,7.9.8,8.6-2,2.6-3.1,1.5"/><path class="al" d="M219.34,40.91s4.29,1.9,9.7-1.5"/><path class="c" d="M219.34,29.91c0,1-.4,1.9-.9,1.9s-.9-.8-.9-1.9.4-1.8.9-1.8S219.34,28.91,219.34,29.91Z"/><path class="c" d="M230,29.31c0,1-.4,1.8-.9,1.8s-.79-.8-.79-1.8.39-1.9.89-1.9S230,28.21,230,29.31Z"/><path class="q" d="M245,64.41a15.55,15.55,0,0,1,4.4,3.2,12.3,12.3,0,0,1,2.7,4.7c1.9,5.7-6.6,18.3-6.6,18.3l-.6-7.5"/><path class="am" d="M245,64.41a15.55,15.55,0,0,1,4.4,3.2,12.3,12.3,0,0,1,2.7,4.7c.71,2.2,3.71,13.8,3.5,18.3h-10.1l-.6-7.5"/><path class="an" d="M245,64.41a15.55,15.55,0,0,1,4.4,3.2,12.3,12.3,0,0,1,2.7,4.7c.71,2.3,2.21,9.9,3.5,18.3h-10.1l-.6-7.5"/><path class="am" d="M195.73,63.21s-9.7,2.2-11.39,3.1c-.9.5-2.9,12.3-4.8,24.4h21.7l-.2-18.1"/><path class="an" d="M195.73,63.21s-9.7,2.2-11.39,3.1-4.8,24.4-4.8,24.4h21.7l-.2-18.1"/><path class="al" d="M201.13,90.61l-.1-18.1"/><path class="al" d="M195.73,63.21s-9.7,2.2-11.39,3.1"/><path class="am" d="M241.13,42c3.1-3.6,1-9,.1-13.7-1.6-8.9,2.5-18.9,10.4-23.4s19-3,24.8,4a23.71,23.71,0,0,1,4,7.3,18.86,18.86,0,0,1,1.2,7.4c-.29,6.4-4.7,12.1-10.29,15.1S258.94,42,252.73,41a28.72,28.72,0,0,0-5.89-.8,6.63,6.63,0,0,0-5.2,2.6"/><path class="ao" d="M188.63,41.91l-2.29-2.2a8.81,8.81,0,0,0,.3-11.3,7.87,7.87,0,0,0-2.2-1.8,8.41,8.41,0,0,0-2.71-.8c-3.6-.2-6.5,3-7.5,6.5-.89,3.2-.1,7.2,2.8,8.6a9.83,9.83,0,0,0,3.4.7l9.2.9"/><path class="ao" d="M189.63,22.31l-2.29-2.7c-2.3.7-4.71,0-7-.8-2.5-.9-5.21-2-6.5-4.4a6,6,0,0,1-.61-2.7,6.33,6.33,0,0,1,.5-2.7,11.87,11.87,0,0,1,3.11-4.5,15.46,15.46,0,0,1,7.39-4.3,8.94,8.94,0,0,1,4.3.1,9.29,9.29,0,0,1,3.8,2,8,8,0,0,1,2.2,4.6,8,8,0,0,1-1.1,5,12.09,12.09,0,0,0-2,3,6.46,6.46,0,0,0-.4,1.9l-.8,5.2"/></svg>