<svg viewBox="0 0 117 40" xmlns="http://www.w3.org/2000/svg" fill-rule="evenodd" clip-rule="evenodd" stroke-linejoin="round" stroke-miterlimit="1.414"><g fill="#373c42" fill-rule="nonzero"><path d="M.97 23.385H.958a.961.961 0 0 0-.958.946c0 .482.441.897.952.897.547 0 1.007-.399 1.007-.897 0-.514-.46-.946-.989-.946zm13.423-10.607v12.268H12.24v-1.192c-.477.497-.968.856-1.473 1.078-.506.221-1.088.332-1.749.332a5 5 0 0 1-2.494-.631 4.654 4.654 0 0 1-1.77-1.744 4.803 4.803 0 0 1-.646-2.457c0-.903.216-1.732.65-2.489a4.747 4.747 0 0 1 1.774-1.784A4.848 4.848 0 0 1 9 15.51c.615 0 1.191.103 1.727.308.538.205.979.487 1.323.843v-3.883h2.343zm-5.1 4.759c-.793 0-1.46.27-2.003.812-.542.54-.813 1.21-.813 2.01 0 .806.282 1.487.848 2.044.566.557 1.253.834 2.063.834.793 0 1.464-.272 2.011-.819.549-.545.823-1.213.823-2.002 0-.832-.275-1.521-.827-2.063-.551-.544-1.252-.816-2.102-.816zm17.3-1.695v9.204h-2.145v-1.192c-.472.502-.958.864-1.46 1.082-.503.219-1.099.328-1.788.328-.942 0-1.788-.204-2.537-.612a4.444 4.444 0 0 1-1.757-1.707c-.423-.729-.634-1.551-.634-2.465 0-.923.213-1.755.638-2.493a4.515 4.515 0 0 1 1.774-1.731c.759-.416 1.614-.624 2.568-.624.706 0 1.314.115 1.826.345.511.23.968.595 1.37 1.098v-1.233h2.145zm-5.134 1.817c-.816 0-1.49.27-2.021.811-.531.54-.796 1.227-.796 2.059 0 .805.268 1.459.805 1.959.536.5 1.233.749 2.088.749.85 0 1.536-.254 2.055-.762.52-.508.78-1.173.78-1.995 0-.832-.271-1.51-.814-2.034-.542-.525-1.242-.787-2.097-.787zm8.35 7.387v-7.192h-1.146v-2.012h1.146v-3.064h2.343v3.064h1.413v2.012h-1.413v7.192h-2.343zm15.603-9.204v9.204h-2.145v-1.192c-.471.502-.957.864-1.459 1.082-.502.219-1.099.328-1.788.328-.941 0-1.787-.204-2.537-.612a4.438 4.438 0 0 1-1.757-1.707c-.422-.729-.633-1.551-.633-2.465 0-.923.212-1.755.638-2.493a4.503 4.503 0 0 1 1.774-1.731c.758-.416 1.613-.624 2.567-.624.707 0 1.315.115 1.826.345.511.23.968.595 1.369 1.098v-1.233h2.145zm-5.133 1.817c-.816 0-1.489.27-2.02.811-.531.54-.797 1.227-.797 2.059 0 .805.268 1.459.805 1.959s1.233.749 2.089.749c.85 0 1.534-.254 2.054-.762.52-.508.78-1.173.78-1.995 0-.832-.272-1.51-.814-2.034-.542-.525-1.241-.787-2.097-.787zm9.177 5.726h-.012a.962.962 0 0 0-.958.946c0 .482.441.897.953.897.546 0 1.005-.399 1.005-.897 0-.514-.459-.946-.988-.946zm11.59-7.543h2.239v7.46c0 .914-.084 1.672-.254 2.275a3.852 3.852 0 0 1-.823 1.544c-.929 1.066-2.26 1.598-3.987 1.598-1.195 0-2.231-.257-3.11-.77a4.487 4.487 0 0 1-1.912-2.157h2.661c.345.356.703.609 1.077.758.373.148.832.222 1.378.222.872 0 1.536-.243 1.99-.729.454-.487.7-1.224.741-2.214-.46.509-.938.875-1.434 1.099-.497.224-1.09.336-1.78.336-.918 0-1.744-.208-2.476-.624a4.393 4.393 0 0 1-1.71-1.739c-.408-.744-.611-1.582-.611-2.518 0-1.361.457-2.494 1.37-3.397.913-.902 2.061-1.354 3.445-1.354 1.401 0 2.466.46 3.196 1.378v-1.168zm-2.963 1.817c-.805 0-1.452.258-1.943.775-.491.515-.736 1.198-.736 2.046 0 .839.248 1.508.745 2.008.496.5 1.164.749 2.002.749.85 0 1.528-.252 2.033-.758.506-.505.758-1.182.758-2.031 0-.832-.263-1.505-.788-2.019-.525-.513-1.216-.77-2.071-.77zm12.769-2.027c.93 0 1.792.217 2.585.648a4.967 4.967 0 0 1 1.878 1.764c.453.726.692 1.565.688 2.421 0 .864-.231 1.665-.694 2.404a4.949 4.949 0 0 1-1.89 1.751 5.401 5.401 0 0 1-2.601.644 5.435 5.435 0 0 1-2.614-.644 4.976 4.976 0 0 1-1.9-1.751 4.435 4.435 0 0 1-.698-2.404c0-.66.137-1.288.409-1.886a4.738 4.738 0 0 1 1.112-1.54 5.3 5.3 0 0 1 1.675-1.026 5.592 5.592 0 0 1 2.05-.381zm-.095 2.027c-.757 0-1.411.275-1.959.823a2.685 2.685 0 0 0-.823 1.966c0 .768.276 1.425.827 1.97a2.723 2.723 0 0 0 1.99.819c.781 0 1.45-.271 2.007-.815.557-.542.835-1.195.835-1.957 0-.79-.278-1.455-.835-1.995-.557-.541-1.238-.811-2.042-.811zm16.224-1.817v9.204h-2.17v-.884c-.448.405-.881.69-1.297.856-.416.164-.917.246-1.503.246-.661 0-1.252-.125-1.775-.377a3.195 3.195 0 0 1-1.266-1.073 3.652 3.652 0 0 1-.534-1.233c-.104-.449-.155-1.049-.155-1.801v-4.938h2.352v4.501c0 .637.037 1.136.112 1.495.074.361.2.642.378.848.339.368.793.551 1.362.551.376.007.748-.072 1.089-.231.303-.139.556-.367.729-.652.126-.206.213-.472.262-.799.049-.327.073-.785.073-1.374v-4.339h2.343zm5.818 9.204l-3.936-9.204h2.61l2.257 6.098 2.222-6.098h2.654l-3.937 9.204h-1.87zm7.042-1.66c-.498 0-.912.414-.912.946 0 .482.414.896.895.896.515 0 .947-.398.947-.896a.958.958 0 0 0-.93-.946z"/><path d="M102.956 16.537h1.928l-1.95 9.023c-.508 2.33-1.207 3.495-2.118 3.495-.254 0-.423-.148-.423-.36 0-.064.021-.106.085-.212a.637.637 0 0 0 .105-.36.835.835 0 0 0-.831-.826h-.016c-.445 0-.783.403-.783.911 0 .72.741 1.292 1.673 1.292 1.927 0 3.431-2.118 4.363-6.079l1.589-6.884h2.351l.127-.679h-2.309c.636-3.388 1.462-4.892 2.648-4.892.296 0 .466.105.466.275 0 .043-.022.106-.085.212a.72.72 0 0 0-.127.445c0 .508.318.847.784.847.487 0 .911-.402.911-.868 0-.784-.784-1.377-1.843-1.377-1.039 0-1.885.466-2.669 1.462-.636.847-1.08 1.821-1.737 3.896h-1.991l-.148.679zm7.477 8.515c1.165-3.707 1.524-4.575 2.5-6.207.741-1.207 1.334-1.863 1.693-1.863.149 0 .255.085.361.296.169.36.339.466.763.466.635 0 .994-.381.994-1.059 0-.677-.401-1.102-.994-1.102-.488 0-1.081.318-1.632.911-.889.89-1.779 2.182-2.118 3.009l-.318.783 1.186-4.66-.063-.043c-1.546.275-1.779.318-3.325.573v.36c.466-.085.551-.107.72-.107.465 0 .741.212.741.593 0 .276-.169 1.144-.339 1.78l-1.8 6.27h1.631z"/></g></svg>