<svg width="500" height="341" viewBox="0 0 500 341" fill="none" xmlns="http://www.w3.org/2000/svg">
<g clip-path="url(#clip0_16_4508)">
<rect width="500" height="341" fill="white"/>
<path d="M375.753 329.42C375.753 329.42 447.809 230.773 403.157 154.953C358.505 79.1326 269.837 131.168 252.951 60.4093C236.065 -10.3495 174.43 -21.9559 115.979 66.5349C57.5281 155.026 71.5122 278.07 102.463 329.42H375.753Z" fill="#4941C0"/>
<path opacity="0.7" d="M375.753 329.42C375.753 329.42 447.809 230.773 403.157 154.953C358.505 79.1326 269.837 131.168 252.951 60.4093C236.065 -10.3495 174.43 -21.9559 115.979 66.5349C57.5281 155.026 71.5122 278.07 102.463 329.42H375.753Z" fill="white"/>
<path d="M91.6379 329.42H412.877" stroke="#263238" stroke-linecap="round" stroke-linejoin="round"/>
<path d="M335.098 122.036L321.622 111.8C321.622 111.8 305.308 80.9302 304.381 79.8018L299.497 86.1127C299.497 86.1127 308.702 112.993 310.064 116.741C311.426 120.489 317.028 124.72 319.736 127.598C322.444 130.475 333.188 138.035 333.188 138.035L335.098 122.036Z" fill="white" stroke="#263238" stroke-linecap="round" stroke-linejoin="round"/>
<path d="M267.991 212.542H255.57C251.83 212.542 248.232 211.11 245.513 208.542C242.794 205.973 241.162 202.461 240.949 198.727L240.272 186.798H283.281L282.604 198.727C282.394 202.46 280.762 205.972 278.045 208.541C275.328 211.11 271.73 212.541 267.991 212.542Z" fill="#263238"/>
<path d="M326.498 100.419C326.5 91.7883 324.775 83.2444 321.425 75.2902C318.075 67.336 313.167 60.1323 306.992 54.103C300.816 48.0738 293.497 43.3408 285.464 40.1826C277.432 37.0245 268.849 35.5049 260.221 35.7135C225.224 36.5195 196.974 65.5355 197.055 100.572C197.074 117.119 203.455 133.025 214.875 144.999C221.519 151.874 226.209 160.396 228.464 169.687L228.892 171.508H294.669L294.919 170.436C297.264 160.754 302.115 151.859 308.984 144.644C320.251 132.677 326.517 116.856 326.498 100.419V100.419Z" fill="white"/>
<path d="M326.498 100.419C326.5 91.7883 324.775 83.2444 321.425 75.2902C318.075 67.336 313.167 60.1323 306.992 54.103C300.816 48.0738 293.497 43.3408 285.464 40.1826C277.432 37.0245 268.849 35.5049 260.221 35.7135C225.224 36.5195 196.974 65.5355 197.055 100.572C197.074 117.119 203.455 133.025 214.875 144.999C221.519 151.874 226.209 160.396 228.464 169.687L228.892 171.508H294.669L294.919 170.436C297.264 160.754 302.115 151.859 308.984 144.644C320.251 132.677 326.517 116.856 326.498 100.419V100.419Z" stroke="#263238" stroke-miterlimit="10"/>
<path d="M239.692 204.184H283.869C287.465 202.194 290.499 199.325 292.685 195.845C294.871 192.365 296.139 188.387 296.37 184.283L297.49 164.48H226.071L227.183 184.283C227.417 188.387 228.687 192.365 230.874 195.845C233.062 199.325 236.095 202.194 239.692 204.184V204.184Z" fill="#F5E461" stroke="#263238" stroke-linecap="round" stroke-linejoin="round"/>
<path d="M297.16 171.669L227.723 177.271C227.023 177.329 226.329 177.107 225.792 176.654C225.256 176.201 224.921 175.553 224.861 174.853C224.806 174.154 225.028 173.461 225.481 172.925C225.934 172.389 226.581 172.053 227.279 171.992L296.732 166.366C297.432 166.308 298.127 166.53 298.663 166.983C299.2 167.437 299.534 168.084 299.594 168.784V168.784C299.625 169.134 299.586 169.486 299.48 169.82C299.375 170.155 299.204 170.465 298.977 170.733C298.751 171.002 298.474 171.222 298.162 171.383C297.85 171.544 297.509 171.641 297.16 171.669V171.669Z" fill="#F5E461" stroke="#263238" stroke-linecap="round" stroke-linejoin="round"/>
<path d="M297.144 182.18L228.448 187.725C227.749 187.779 227.057 187.555 226.522 187.103C225.986 186.65 225.651 186.005 225.587 185.307V185.307C225.531 184.608 225.754 183.915 226.207 183.379C226.66 182.843 227.306 182.507 228.005 182.446L296.717 176.844C297.416 176.788 298.109 177.011 298.645 177.464C299.181 177.917 299.516 178.563 299.578 179.262V179.262C299.614 179.614 299.58 179.97 299.477 180.309C299.373 180.648 299.203 180.963 298.976 181.235C298.75 181.507 298.471 181.73 298.156 181.893C297.841 182.055 297.497 182.153 297.144 182.18V182.18Z" fill="#F5E461" stroke="#263238" stroke-linecap="round" stroke-linejoin="round"/>
<path d="M295.024 192.916L231.721 198.026C231.022 198.08 230.33 197.856 229.794 197.404C229.259 196.951 228.923 196.306 228.859 195.608V195.608C228.801 194.907 229.023 194.212 229.476 193.674C229.929 193.136 230.577 192.8 231.277 192.738L294.581 187.628C295.28 187.575 295.972 187.798 296.507 188.251C297.043 188.703 297.378 189.348 297.442 190.046C297.498 190.747 297.275 191.441 296.823 191.978C296.37 192.515 295.724 192.852 295.024 192.916V192.916Z" fill="#F5E461" stroke="#263238" stroke-linecap="round" stroke-linejoin="round"/>
<path d="M312.103 316.282C312.103 316.282 313.57 325.245 312.103 329.428H282.458C282.458 329.428 281.209 326.293 282.458 324.31C283.708 322.327 293.106 321.207 296.031 318.531C298.271 316.307 300.297 313.878 302.084 311.277L312.103 316.282Z" fill="#263238" stroke="#263238" stroke-miterlimit="10"/>
<path d="M281.902 327.84H312.498L312.756 329.42H281.902V327.84Z" fill="white" stroke="#263238" stroke-linecap="round" stroke-linejoin="round"/>
<path d="M304.978 315.186C304.978 315.186 302.189 315.855 301.875 315.992C301.561 316.129 298.852 320.272 296.136 321.005C293.42 321.739 290.704 321.594 291.123 322.916" stroke="white" stroke-linecap="round" stroke-linejoin="round"/>
<path d="M298.804 315.186L301.98 317.523" stroke="white" stroke-linecap="round" stroke-linejoin="round"/>
<path d="M297.329 317.233L300.392 319.482" stroke="white" stroke-linecap="round" stroke-linejoin="round"/>
<path d="M295.37 319.031L298.03 321.602" stroke="white" stroke-linecap="round" stroke-linejoin="round"/>
<path d="M292.687 320.344L293.839 322.883" stroke="white" stroke-linecap="round" stroke-linejoin="round"/>
<path d="M355.41 329.42C355.41 329.42 356.554 325.059 355.216 323.439C352.798 320.538 355.506 318.104 353.096 317.096L352.089 318.265C351.895 317.08 352.46 313.469 347.994 312.994C342.594 312.429 342.489 316.355 342.199 317.652L342.288 315.839C339.983 315.839 341.176 318.136 337.686 321.9C336.771 322.913 336.076 324.104 335.644 325.397C335.211 326.691 335.05 328.061 335.171 329.42H355.41Z" fill="#263238" stroke="#263238" stroke-miterlimit="10"/>
<path d="M335.146 327.84H355.861L355.409 329.42H335.171L335.146 327.84Z" fill="white" stroke="#263238" stroke-linecap="round" stroke-linejoin="round"/>
<path d="M341.772 321.714C341.772 321.714 348.575 319.466 351.855 322.279" stroke="white" stroke-linecap="round" stroke-linejoin="round"/>
<path d="M341.772 320.231C341.772 320.231 347.753 318.337 351.855 320.868" stroke="white" stroke-linecap="round" stroke-linejoin="round"/>
<path d="M342.151 318.765C342.151 318.765 347.793 316.645 351.879 319.571" stroke="white" stroke-linecap="round" stroke-linejoin="round"/>
<path d="M337.685 321.924L338.363 322.585C338.454 322.675 338.511 322.795 338.524 322.923C338.537 323.05 338.506 323.179 338.435 323.286C337.535 324.644 337.053 326.235 337.049 327.864H336.057C336.279 326.275 336.764 324.733 337.492 323.302L336.984 322.786L337.685 321.924Z" fill="white"/>
<path d="M317.439 274.136C317.439 274.136 313.038 281.616 305.599 280.02" stroke="#263238" stroke-linecap="round" stroke-linejoin="round"/>
<path d="M322.089 188.999L319.204 195.1C311.278 212.117 304.849 229.793 299.989 247.925C299.812 248.594 296.04 261.95 299.062 295.213L297.337 301.049L299.223 310.721C299.223 310.721 296.386 314.815 296.491 316.161C296.491 316.161 303.487 317.467 305.824 318.716C307.638 319.691 313.078 325.084 313.078 325.084C314.626 324.761 314.755 318.507 314.755 318.507C314.755 318.507 317.979 262.989 318.922 260.587C319.865 258.186 325.531 247.885 334.389 224.277C334.389 224.277 334.59 257.251 336.96 265.593C339.064 273.016 336.573 293.803 336.573 293.803L337.992 316.919C337.992 316.919 333.011 322.093 337.049 323.488C337.049 323.488 339.749 318.289 347.446 317.112C351.355 316.508 356.232 323.455 356.232 323.455C357.94 322.907 355.506 314.178 355.506 314.178C360.955 273.032 356.933 280.48 358.021 260.362C358.722 247.466 362.381 192.223 358.085 187.741L322.089 188.999Z" fill="#263238"/>
<path d="M322.089 188.999L319.204 195.1C311.278 212.117 304.849 229.793 299.989 247.925C299.812 248.594 296.04 261.95 299.062 295.213L297.337 301.049L299.223 310.721C299.223 310.721 296.386 314.815 296.491 316.161C296.491 316.161 303.487 317.467 305.824 318.716C307.638 319.691 313.078 325.084 313.078 325.084C314.626 324.761 314.755 318.507 314.755 318.507C314.755 318.507 317.979 262.989 318.922 260.587C319.865 258.186 325.531 247.885 334.389 224.277C334.389 224.277 334.59 257.251 336.96 265.593C339.064 273.016 336.573 293.803 336.573 293.803L337.992 316.919C337.992 316.919 333.011 322.093 337.049 323.488C337.049 323.488 339.749 318.289 347.446 317.112C351.355 316.508 356.232 323.455 356.232 323.455C357.94 322.907 355.506 314.178 355.506 314.178C360.955 273.032 356.933 280.48 358.021 260.362C358.722 247.466 362.381 192.223 358.085 187.741L322.089 188.999Z" stroke="#263238" stroke-linecap="round" stroke-linejoin="round"/>
<path d="M321.179 201.161C322.17 201.298 323.161 201.387 324.161 201.435" stroke="#263238" stroke-linecap="round" stroke-linejoin="round"/>
<path d="M339.056 128.96C339.056 128.96 359.351 123.197 371.022 129.443C373.923 130.991 380.557 136.028 380.323 142.065C380.089 148.102 360.882 176.207 361.116 179.947C361.35 183.687 361.116 193.359 359.697 194.02C358.279 194.681 327.457 195.576 319.849 193.617C316.81 192.811 322.783 178.456 322.783 178.456C322.783 178.456 328.602 147.304 339.056 128.96Z" fill="#F5E461" stroke="#263238" stroke-linecap="round" stroke-linejoin="round"/>
<path d="M367.951 127.888C367.951 127.888 355.119 133.022 350.912 127.654C351.626 127.695 352.339 127.555 352.985 127.246C353.63 126.938 354.187 126.471 354.603 125.889C355.266 124.868 355.627 123.68 355.643 122.463C355.708 121.512 353.822 109.309 354.603 108.213C366.427 91.6903 369.039 115.951 369.039 115.951C369.039 115.951 364.856 126.364 367.951 127.888Z" fill="white" stroke="#263238" stroke-linecap="round" stroke-linejoin="round"/>
<path d="M358.964 121.271C358.964 121.271 358.158 125.083 354.604 125.889C355.266 124.868 355.627 123.68 355.643 122.463C356.784 122.167 357.895 121.768 358.964 121.271V121.271Z" fill="#263238"/>
<path d="M370.248 123.583L356.981 127.106V133.997C356.981 133.997 353.128 143.629 353.249 145.192C353.37 146.756 356.981 209.543 356.981 209.543C356.981 209.543 367.757 208.737 371.65 202.048C371.65 202.048 370.087 177.706 371.65 173.701C372.667 170.705 373.258 167.583 373.407 164.424C373.407 164.424 383.555 145.458 381.298 139.671C379.041 133.884 371.997 128.25 371.997 128.25L370.248 123.583Z" fill="#263238"/>
<path d="M353.967 126.606C353.773 126.332 345.52 121.27 345.52 121.27L341.272 122.399L335.002 118.482C335.002 118.482 328.65 137.826 328.836 142.299C329.021 146.772 322.251 171.541 321.259 181.317C321.259 181.317 329.319 165.423 330.472 162.651C331.624 159.878 335.364 141.211 338.459 136.858C341.554 132.506 348.792 127.098 348.792 127.098L353.967 126.606Z" fill="#263238"/>
<path d="M369.498 114.307C370.108 112.69 370.35 110.958 370.208 109.237C369.337 97.0097 366.452 94.1646 361.688 94.9625C343.9 97.9286 349.171 106.956 348.494 109.954C347.817 112.952 345.27 113.178 345.633 114.54C345.77 115.08 347.865 115.137 347.865 115.137L347.994 117.958L348.8 118.151C348.8 118.151 349.445 124.599 351.081 125.316C353.153 126.259 359.343 122.52 359.327 120.198" fill="white"/>
<path d="M369.498 114.307C370.108 112.69 370.35 110.958 370.208 109.237C369.337 97.0097 366.452 94.1646 361.688 94.9625C343.9 97.9286 349.171 106.956 348.494 109.954C347.817 112.952 345.27 113.178 345.633 114.54C345.77 115.08 347.865 115.137 347.865 115.137L347.994 117.958L348.8 118.151C348.8 118.151 349.445 124.599 351.081 125.316C353.153 126.259 359.343 122.52 359.327 120.198" stroke="#263238" stroke-linecap="round" stroke-linejoin="round"/>
<path d="M349.88 105.562C349.88 105.562 352.379 105.054 353.628 107.053" stroke="#263238" stroke-linecap="round" stroke-linejoin="round"/>
<path d="M350.92 109.261C351.009 109.857 351.339 110.293 351.645 110.244C351.952 110.196 352.129 109.68 352.04 109.092C351.952 108.503 351.621 108.06 351.315 108.108C351.009 108.157 350.831 108.673 350.92 109.261Z" fill="#263238"/>
<path d="M348.792 118.151C350.105 118.154 351.411 117.964 352.669 117.587" stroke="#263238" stroke-linecap="round" stroke-linejoin="round"/>
<path d="M352.129 117.764C352.129 117.764 351.097 119.199 350.17 119.199C349.243 119.199 349.187 118.481 349.187 118.481" stroke="#263238" stroke-linecap="round" stroke-linejoin="round"/>
<path d="M370.57 96.889C370.57 96.889 371.457 93.0927 362.607 92.5849C355.7 92.19 349.389 92.7945 347.059 97.2678C344.73 101.741 344.972 105.763 348.3 106.279C348.59 104.618 349.211 103.033 350.126 101.618C351.041 100.203 352.232 98.9865 353.628 98.0416C353.628 98.0416 351.694 103.039 354.603 105.505C355.242 106.055 355.97 106.491 356.755 106.795C356.969 107.222 357.24 107.618 357.561 107.971C358.964 109.583 359.02 112.92 359.02 112.92L360.374 112.114C360.374 112.114 358.408 106.908 364.122 108.133C367.056 108.761 366.54 112.308 366.967 114.516C367.395 116.725 368.579 117.329 368.579 117.329C369.907 115.833 370.951 114.107 371.658 112.235V112.235C371.658 112.235 374.576 110.156 374.576 107.101C374.576 104.046 373.754 99.0813 370.57 96.889Z" fill="#263238"/>
<path d="M360.971 108.221C360.971 108.221 362.825 105.368 364.469 105.304C366.113 105.239 367.217 110.946 365.71 113.162C364.203 115.379 362.72 116.12 362.035 115.459C361.837 115.245 361.69 114.988 361.607 114.709C361.523 114.43 361.504 114.135 361.551 113.847" fill="white"/>
<path d="M360.971 108.221C360.971 108.221 362.825 105.368 364.469 105.304C366.113 105.239 367.217 110.946 365.71 113.162C364.203 115.379 362.72 116.12 362.035 115.459C361.837 115.245 361.69 114.988 361.607 114.709C361.523 114.43 361.504 114.135 361.551 113.847" stroke="#263238" stroke-linecap="round" stroke-linejoin="round"/>
<path d="M335.002 118.482L328.36 115.693L326.111 112.267C322.484 118.037 320.79 124.813 321.275 131.611L324.967 133.965L330.004 145.41L335.002 118.482Z" fill="#263238"/>
<path d="M359.069 145.41C359.069 145.41 365.742 154.824 362.462 158.806C360.922 160.684 347.325 165.197 347.325 165.197L306.542 162.779L292.969 165.197L291.453 165.318C291.317 165.148 291.218 164.952 291.162 164.741C291.107 164.53 291.096 164.31 291.131 164.095C291.166 163.88 291.246 163.675 291.365 163.493C291.485 163.31 291.641 163.155 291.824 163.037C291.824 163.037 291.091 161.264 291.397 160.869C292.324 159.684 296.547 157.742 296.547 157.742C296.547 157.742 291.671 158.959 293.678 156.339C295.048 154.558 300.255 154.187 302.657 152.616C304.631 151.318 302.907 144.12 307.194 145.41C306.464 147.361 306.188 149.454 306.388 151.528C306.453 152.052 306.566 154.631 306.566 154.631C308.742 157.121 332.076 153.897 334.083 153.825C336.09 153.752 345.866 152.277 345.866 152.277L359.069 145.41Z" fill="white" stroke="#263238" stroke-linecap="round" stroke-linejoin="round"/>
<path d="M300.15 154.848C300.389 155.353 300.515 155.903 300.521 156.46C300.416 156.992 298.981 158 298.981 158C298.898 158.51 298.898 159.03 298.981 159.539C299.143 159.91 297.442 161.232 297.442 161.707C297.295 162.263 297.043 162.786 296.7 163.247" stroke="#263238" stroke-linecap="round" stroke-linejoin="round"/>
<path d="M291.8 163.062C292.437 163.545 295.153 160.861 296.676 160.732" stroke="#263238" stroke-linecap="round" stroke-linejoin="round"/>
<path d="M295.378 163.432C294.262 164.133 293.07 164.703 291.824 165.133" stroke="#263238" stroke-linecap="round" stroke-linejoin="round"/>
<path d="M173.705 147.828C173.705 147.828 182.087 152.317 183.941 156.299C185.795 160.281 192.541 180.817 192.541 180.817C192.541 180.817 197.659 189.24 198.852 190.949C200.045 192.658 199.529 199.815 193.621 199.767C187.713 199.718 180.886 194.084 180.628 191.537C180.37 188.99 177.332 187.507 177.098 185.307C176.864 183.107 169.763 168.582 169.763 168.582L173.705 147.828Z" fill="#263238"/>
<path d="M183.159 317.684C183.159 317.684 181.894 325.454 183.159 329.081H208.855C208.855 329.081 209.943 326.357 208.855 324.648C207.766 322.94 199.626 321.956 197.095 319.635C195.153 317.705 193.396 315.598 191.848 313.34L183.159 317.684Z" fill="white" stroke="#263238" stroke-linecap="round" stroke-linejoin="round"/>
<path d="M209.338 327.711H182.829L182.595 329.081H209.338V327.711Z" fill="white" stroke="#263238" stroke-linecap="round" stroke-linejoin="round"/>
<path d="M189.341 316.741C189.341 316.741 191.759 317.322 192.025 317.418C192.291 317.515 194.653 321.126 197.006 321.755C199.36 322.383 201.705 322.271 201.343 323.415" stroke="#263238" stroke-linecap="round" stroke-linejoin="round"/>
<path d="M194.693 316.741L191.937 318.773" stroke="#263238" stroke-linecap="round" stroke-linejoin="round"/>
<path d="M195.967 318.523L193.315 320.465" stroke="#263238" stroke-linecap="round" stroke-linejoin="round"/>
<path d="M197.659 320.078L195.362 322.303" stroke="#263238" stroke-linecap="round" stroke-linejoin="round"/>
<path d="M199.988 321.207L198.989 323.415" stroke="#263238" stroke-linecap="round" stroke-linejoin="round"/>
<path d="M139.619 329.081C139.619 329.081 138.628 325.301 139.788 323.899C141.868 321.384 139.53 319.272 141.618 318.402L142.496 319.417C142.666 318.386 142.174 315.25 146.051 314.847C150.726 314.356 150.814 317.757 151.064 318.877L150.992 317.314C152.983 317.314 151.951 319.305 154.973 322.561C155.767 323.439 156.37 324.471 156.746 325.593C157.122 326.715 157.262 327.903 157.158 329.081H139.619Z" fill="white" stroke="#263238" stroke-linecap="round" stroke-linejoin="round"/>
<path d="M122.669 185.283C120.517 186.516 114.939 198.404 118.196 221.98C121.452 245.555 131.18 291.538 132.816 298.55C134.453 305.562 140.167 322.528 140.167 322.528C140.167 322.528 142.351 315.178 152.854 319.111C152.943 319.143 153.04 319.15 153.133 319.132C153.227 319.114 153.314 319.072 153.386 319.01C153.458 318.948 153.512 318.868 153.543 318.778C153.574 318.688 153.581 318.592 153.563 318.498L151.258 306.497C151.258 306.497 151.097 297.72 150.339 295.519C147.494 287.234 146.075 255.219 145.132 250.746C144.189 246.273 146.043 233.425 146.043 233.425C146.043 233.425 159.189 264.859 159.616 267.97C160.043 271.081 168.055 283.913 168.055 283.913L169.441 295.721C169.441 295.721 180.105 314.001 181.982 319.458L194.693 316.709L194.338 307.674L190.913 306.497L184.932 285.952C183.041 278.832 180.718 271.834 177.977 264.996C175.148 257.847 167.128 230.177 167.128 230.177C164.637 227.469 162.292 212.493 162.292 212.493L158.439 193.609L122.669 185.283Z" fill="#4941C0"/>
<path d="M122.669 185.283C120.517 186.516 114.939 198.404 118.196 221.98C121.452 245.555 131.18 291.538 132.816 298.55C134.453 305.562 140.167 322.528 140.167 322.528C140.167 322.528 142.351 315.178 152.854 319.111C152.943 319.143 153.04 319.15 153.133 319.132C153.227 319.114 153.314 319.072 153.386 319.01C153.458 318.948 153.512 318.868 153.543 318.778C153.574 318.688 153.581 318.592 153.563 318.498L151.258 306.497C151.258 306.497 151.097 297.72 150.339 295.519C147.494 287.234 146.075 255.219 145.132 250.746C144.189 246.273 146.043 233.425 146.043 233.425C146.043 233.425 159.189 264.859 159.616 267.97C160.043 271.081 168.055 283.913 168.055 283.913L169.441 295.721C169.441 295.721 180.105 314.001 181.982 319.458L194.693 316.709L194.338 307.674L190.913 306.497L184.932 285.952C183.041 278.832 180.718 271.834 177.977 264.996C175.148 257.847 167.128 230.177 167.128 230.177C164.637 227.469 162.292 212.493 162.292 212.493L158.439 193.609L122.669 185.283Z" stroke="#263238" stroke-linecap="round" stroke-linejoin="round"/>
<path d="M174.93 168.881C170.537 177.585 163.646 188.466 163.646 188.466L160.607 200.597C160.607 200.597 149.195 207.641 136.105 204.691C120.791 201.225 118.276 193.407 118.276 193.407L122.403 179.746C124.394 170.622 128.722 153.204 137.717 148.312C146.712 143.419 162.131 142.968 168.345 144.959C173.882 146.74 176.945 148.086 178.46 149.73C178.46 149.73 180.701 157.419 180.209 159.974C179.718 162.529 174.93 168.881 174.93 168.881Z" fill="#263238"/>
<path d="M157.174 327.711H139.224L139.619 329.081H157.158L157.174 327.711Z" fill="white" stroke="#263238" stroke-linecap="round" stroke-linejoin="round"/>
<path d="M151.411 322.399C151.411 322.399 145.527 320.457 142.682 322.891" stroke="#263238" stroke-linecap="round" stroke-linejoin="round"/>
<path d="M151.411 321.118C151.411 321.118 146.236 319.506 142.682 321.666" stroke="#263238" stroke-linecap="round" stroke-linejoin="round"/>
<path d="M151.113 319.844C151.113 319.844 146.277 318.007 142.682 320.521" stroke="#263238" stroke-linecap="round" stroke-linejoin="round"/>
<path d="M164.331 143.443C164.331 143.443 155.223 144.354 154.901 149.416C154.578 154.477 158.834 160.208 165.959 160.53C173.084 160.853 173.955 153.865 174.205 150.052C174.454 146.24 169.288 143.145 164.331 143.443Z" fill="#BFBFBF" stroke="#263238" stroke-linecap="round" stroke-linejoin="round"/>
<path d="M161.421 146.522C159.952 142.404 159.722 137.946 160.76 133.699C162.026 128.387 168.353 121.085 177.944 127.726C182.893 131.152 183.191 138.575 181.652 145.378C181.289 146.99 181.563 148.602 181.023 150.077C179.129 155.316 175.655 159.346 173.769 159.434C170.602 159.587 164.275 155.759 164.533 152.422" fill="#BFBFBF"/>
<path d="M161.421 146.522C159.952 142.404 159.722 137.946 160.76 133.699C162.026 128.387 168.353 121.085 177.944 127.726C182.893 131.152 183.191 138.575 181.652 145.378C181.289 146.99 181.563 148.602 181.023 150.077C179.129 155.316 175.655 159.346 173.769 159.434C170.602 159.587 164.275 155.759 164.533 152.422" stroke="#263238" stroke-linecap="round" stroke-linejoin="round"/>
<path d="M174.204 143.137C173.369 142.897 172.493 142.83 171.631 142.941C170.769 143.052 169.939 143.338 169.191 143.782" stroke="#263238" stroke-linecap="round" stroke-linejoin="round"/>
<path d="M179.032 142.992C179.032 142.992 180.967 142.025 182.256 142.275" stroke="#263238" stroke-linecap="round" stroke-linejoin="round"/>
<path d="M171.126 147.812C171.42 147.812 171.658 147.429 171.658 146.957C171.658 146.486 171.42 146.103 171.126 146.103C170.832 146.103 170.594 146.486 170.594 146.957C170.594 147.429 170.832 147.812 171.126 147.812Z" fill="#263238"/>
<path d="M179.032 147.336C179.326 147.336 179.564 146.954 179.564 146.482C179.564 146.01 179.326 145.628 179.032 145.628C178.739 145.628 178.5 146.01 178.5 146.482C178.5 146.954 178.739 147.336 179.032 147.336Z" fill="#263238"/>
<path d="M168.055 136.633L167.797 140.55C167.797 140.55 165.024 141.976 164.331 143.443C163.913 144.398 163.76 145.448 163.888 146.482C163.888 146.482 162.203 143.54 161.3 143.782C160.97 143.862 160.97 145.096 160.97 145.096C160.97 145.096 157.198 136.633 160.607 132.159C164.017 127.686 168.055 136.633 168.055 136.633Z" fill="#263238"/>
<path d="M162.703 145.628C162.703 145.628 161.945 142.79 159.39 142.033C156.835 141.275 158.584 148.086 160.761 148.989C162.937 149.891 163.485 150.504 163.614 149.698" fill="#BFBFBF"/>
<path d="M162.703 145.628C162.703 145.628 161.945 142.79 159.39 142.033C156.835 141.275 158.584 148.086 160.761 148.989C162.937 149.891 163.485 150.504 163.614 149.698" stroke="#263238" stroke-linecap="round" stroke-linejoin="round"/>
<path d="M177.171 146.958C177.055 147.909 177.262 148.871 177.759 149.69C177.929 149.933 178.018 150.224 178.012 150.52C178.006 150.817 177.907 151.104 177.728 151.341C177.549 151.577 177.299 151.751 177.015 151.837C176.731 151.922 176.427 151.916 176.147 151.818" stroke="#263238" stroke-linecap="round" stroke-linejoin="round"/>
<path d="M176.163 154.203C174.7 154.594 173.161 154.594 171.698 154.203" stroke="#263238" stroke-linecap="round" stroke-linejoin="round"/>
<path d="M168.055 136.633C168.055 136.633 174.567 138.204 178.533 137.68C182.498 137.157 184.981 135.335 184.376 131.168C183.772 127.001 179.065 125.075 171.335 123.753C163.735 122.455 155.771 128.145 159.39 135.093C163.009 142.041 168.055 136.633 168.055 136.633Z" fill="#263238"/>
<path d="M176.687 198.525C176.906 198.958 177.022 199.435 177.026 199.92C177.106 200.919 173.52 202.112 172.883 201.717C172.246 201.322 170.739 199.299 172.488 198.13C174.237 196.962 176.687 198.525 176.687 198.525Z" fill="#BFBFBF" stroke="#263238" stroke-linecap="round" stroke-linejoin="round"/>
<path d="M186.117 197.437C186.274 198.549 186.583 199.634 187.036 200.661C187.592 201.58 191.066 200.661 192.017 201.153C192.968 201.644 193.049 199.96 192.017 199.114C190.985 198.267 189.664 196.389 186.117 197.437Z" fill="#BFBFBF" stroke="#263238" stroke-linecap="round" stroke-linejoin="round"/>
<path d="M183.941 196.938H179.847V261.619H183.941V196.938Z" fill="#BFBFBF" stroke="#263238" stroke-linecap="round" stroke-linejoin="round"/>
<path d="M178.501 243.742H185.287C185.68 243.742 186.058 243.898 186.336 244.176C186.614 244.454 186.77 244.832 186.77 245.225V329.049H177.026V245.225C177.026 244.833 177.181 244.457 177.457 244.179C177.734 243.901 178.109 243.744 178.501 243.742V243.742Z" fill="#757575" stroke="#263238" stroke-linecap="round" stroke-linejoin="round"/>
<path d="M193.75 192.48H170.038C169.546 192.48 169.074 192.676 168.727 193.023C168.379 193.371 168.184 193.843 168.184 194.334V195.584C168.184 196.075 168.379 196.547 168.727 196.894C169.074 197.242 169.546 197.437 170.038 197.437H178.791V201.169H185.005V197.437H193.75C193.994 197.437 194.235 197.389 194.46 197.296C194.684 197.203 194.889 197.067 195.061 196.894C195.233 196.722 195.37 196.518 195.463 196.293C195.556 196.068 195.604 195.827 195.604 195.584V194.334C195.604 194.091 195.556 193.85 195.463 193.625C195.37 193.4 195.233 193.196 195.061 193.023C194.889 192.851 194.684 192.715 194.46 192.622C194.235 192.528 193.994 192.48 193.75 192.48Z" fill="#4941C0" stroke="#263238" stroke-linecap="round" stroke-linejoin="round"/>
<path d="M160.124 190.449C160.124 190.449 172.689 188.749 173.931 188.539C175.172 188.33 179.033 194.915 179.033 194.915L176.163 199.331C176.163 199.331 165.202 200.863 164.549 200.226C164.125 199.733 163.817 199.152 163.646 198.525C163.646 198.525 158.004 200.653 157.48 196.825C156.956 192.996 156.553 192.432 160.124 190.449Z" fill="#BFBFBF" stroke="#263238" stroke-linecap="round" stroke-linejoin="round"/>
<path d="M185.69 192.48C185.69 192.48 187.608 189.071 189.519 189.071C191.429 189.071 198.764 190.345 199.618 191.408C200.472 192.472 202.487 194.173 202.165 195.551C201.842 196.93 199.827 199.815 197.917 199.331C196.007 198.848 191.115 199.388 191.115 199.388C191.115 199.388 188.455 198.896 188.245 197.437L190.478 196.825C190.478 196.825 190.792 193.746 190.365 193.319C189.938 192.891 185.69 192.48 185.69 192.48Z" fill="#BFBFBF" stroke="#263238" stroke-linecap="round" stroke-linejoin="round"/>
<path d="M192.541 199.259C192.541 199.259 194.87 196.72 194.693 195.761C194.516 194.802 194.169 191.828 193.597 191.513" stroke="#263238" stroke-linecap="round" stroke-linejoin="round"/>
<path d="M195.765 199.13C195.765 199.13 197.49 198.42 197.49 196.825C197.444 195.542 197.299 194.264 197.055 193.004" stroke="#263238" stroke-linecap="round" stroke-linejoin="round"/>
<path d="M198.852 199.315C199.443 198.675 199.832 197.874 199.968 197.013C200.104 196.153 199.982 195.271 199.618 194.479" stroke="#263238" stroke-linecap="round" stroke-linejoin="round"/>
<path d="M174.124 199.412C174.124 199.412 176.123 196.728 175.801 195.382C175.358 194.045 174.797 192.75 174.124 191.513" stroke="#263238" stroke-linecap="round" stroke-linejoin="round"/>
<path d="M171.456 199.92C171.456 199.92 172.568 196.696 172.488 196.067C172.407 195.438 170.876 192.311 170.811 191.989" stroke="#263238" stroke-linecap="round" stroke-linejoin="round"/>
<path d="M168.184 200.218C168.901 199.049 170.602 198.606 169.296 196.035C167.99 193.464 167.386 192.972 167.386 192.972" stroke="#263238" stroke-linecap="round" stroke-linejoin="round"/>
<path d="M163.646 198.525C164.226 197.969 165.347 196.623 165.347 196.623C165.347 196.623 165.58 197.728 166.064 198.05" stroke="#263238" stroke-linecap="round" stroke-linejoin="round"/>
<path d="M169.127 327.365H195.08C195.428 327.365 195.762 327.503 196.009 327.749C196.255 327.996 196.394 328.33 196.394 328.678V329.412H168.127V328.372C168.126 328.24 168.151 328.109 168.201 327.987C168.251 327.865 168.324 327.754 168.417 327.66C168.51 327.566 168.621 327.492 168.742 327.441C168.864 327.391 168.995 327.364 169.127 327.365V327.365Z" fill="#263238"/>
<path d="M184.006 323.431C206.646 323.431 202.987 329.073 226.071 329.073C249.155 329.073 263.147 329.412 263.147 208.512" stroke="#263238" stroke-width="3" stroke-linecap="round" stroke-linejoin="round"/>
</g>
<defs>
<clipPath id="clip0_16_4508">
<rect width="500" height="341" fill="white"/>
</clipPath>
</defs>
</svg>
