<svg width="500" height="298" viewBox="0 0 500 298" fill="none" xmlns="http://www.w3.org/2000/svg">
<g clip-path="url(#clip0_13_2052)">
<rect width="500" height="298" fill="white"/>
<path d="M426.514 292.286C426.514 292.286 447.771 248.4 447.771 205.2C447.771 159.765 431.76 112.395 383.143 98.7497C370.635 95.2457 357.648 94.2789 344.832 92.4891C325.001 89.7463 310.704 82.0869 295.166 69.9566C240.254 27.0926 119.177 0.397721 103.543 96.1714C98.057 129.771 99.4285 144.857 63.0856 173.657C26.7428 202.457 22.6285 234 23.9999 249.086C25.3713 264.171 46.6285 291.6 46.6285 291.6L426.514 292.286Z" fill="#4941C0"/>
<path opacity="0.7" d="M426.514 292.286C426.514 292.286 447.771 248.4 447.771 205.2C447.771 159.765 431.76 112.395 383.143 98.7497C370.635 95.2457 357.648 94.2789 344.832 92.4891C325.001 89.7463 310.704 82.0869 295.166 69.9566C240.254 27.0926 119.177 0.397721 103.543 96.1714C98.057 129.771 99.4285 144.857 63.0856 173.657C26.7428 202.457 22.6285 234 23.9999 249.086C25.3713 264.171 46.6285 291.6 46.6285 291.6L426.514 292.286Z" fill="white"/>
<path opacity="0.2" d="M308.571 125.856H279.771V137.513H308.571V125.856Z" fill="black"/>
<path opacity="0.2" d="M297.6 84.3702H268.8V96.0274H297.6V84.3702Z" fill="black"/>
<path opacity="0.2" d="M193.371 125.513H164.571V137.17H193.371V125.513Z" fill="black"/>
<path opacity="0.2" d="M235.2 44.4H206.4V56.0572H235.2V44.4Z" fill="black"/>
<path opacity="0.2" d="M266.743 44.4H237.943V56.0572H266.743V44.4Z" fill="black"/>
<path opacity="0.2" d="M144 211.714H115.2V223.371H144V211.714Z" fill="black"/>
<path opacity="0.2" d="M128.914 226.114H100.114V237.771H128.914V226.114Z" fill="black"/>
<path opacity="0.1" d="M281.828 100.485H253.028V112.142H281.828V100.485Z" fill="black"/>
<path opacity="0.1" d="M325.029 165.97H296.229V177.627H325.029V165.97Z" fill="black"/>
<path opacity="0.1" d="M156.342 183.799H127.542V195.456H156.342V183.799Z" fill="black"/>
<path opacity="0.1" d="M189.257 183.799H160.457V195.456H189.257V183.799Z" fill="black"/>
<path opacity="0.1" d="M192 167.342H163.2V178.999H192V167.342Z" fill="black"/>
<path opacity="0.1" d="M314.742 100.485H285.942V112.142H314.742V100.485Z" fill="black"/>
<path opacity="0.2" d="M229.029 224.942H200.229V236.599H229.029V224.942Z" fill="black"/>
<path opacity="0.1" d="M213.257 241.056H184.457V252.713H213.257V241.056Z" fill="black"/>
<path opacity="0.1" d="M246.171 241.056H217.371V252.713H246.171V241.056Z" fill="black"/>
<path opacity="0.2" d="M427.2 224.942H398.4V236.599H427.2V224.942Z" fill="black"/>
<path opacity="0.1" d="M411.428 241.056H382.628V252.713H411.428V241.056Z" fill="black"/>
<path opacity="0.1" d="M444.342 241.056H415.542V252.713H444.342V241.056Z" fill="black"/>
<path opacity="0.2" d="M306.514 258.542H277.714V270.199H306.514V258.542Z" fill="black"/>
<path opacity="0.2" d="M78.1711 166.656H49.3711V178.313H78.1711V166.656Z" fill="black"/>
<path opacity="0.1" d="M290.743 274.656H261.943V286.313H290.743V274.656Z" fill="black"/>
<path opacity="0.1" d="M323.657 274.656H294.857V286.313H323.657V274.656Z" fill="black"/>
<path opacity="0.1" d="M205.714 110.914H176.914V122.571H205.714V110.914Z" fill="black"/>
<path opacity="0.1" d="M162.514 225.429H133.714V237.086H162.514V225.429Z" fill="black"/>
<path opacity="0.1" d="M251.657 30H222.857V41.6571H251.657V30Z" fill="black"/>
<path opacity="0.2" d="M61.7141 128.057H32.9141V139.714H61.7141V128.057Z" fill="black"/>
<path opacity="0.1" d="M78.1711 113.657H49.3711V125.314H78.1711V113.657Z" fill="black"/>
<path opacity="0.1" d="M151.543 43.5703H122.743V55.2275H151.543V43.5703Z" fill="black"/>
<path opacity="0.2" d="M251.657 125.856H222.857V137.513H251.657V125.856Z" fill="black"/>
<path opacity="0.2" d="M403.885 125.513H375.085V137.17H403.885V125.513Z" fill="black"/>
<path opacity="0.1" d="M366.857 183.799H338.057V195.456H366.857V183.799Z" fill="black"/>
<path opacity="0.1" d="M399.771 183.799H370.971V195.456H399.771V183.799Z" fill="black"/>
<path opacity="0.1" d="M402.514 167.342H373.714V178.999H402.514V167.342Z" fill="black"/>
<path opacity="0.1" d="M416.228 110.914H387.428V122.571H416.228V110.914Z" fill="black"/>
<path opacity="0.2" d="M462.171 125.856H433.371V137.513H462.171V125.856Z" fill="black"/>
<path d="M68.085 241.639C72.8794 241.639 76.7661 231.44 76.7661 218.86C76.7661 206.279 72.8794 196.08 68.085 196.08C63.2905 196.08 59.4038 206.279 59.4038 218.86C59.4038 231.44 63.2905 241.639 68.085 241.639Z" fill="#263238"/>
<path d="M95.067 204.827C97.782 196.284 96.9692 188.401 93.2517 187.219C89.5342 186.038 84.3197 192.006 81.6048 200.549C78.8899 209.092 79.7026 216.975 83.4201 218.156C87.1376 219.338 92.3521 213.37 95.067 204.827Z" fill="#263238"/>
<path d="M48.5268 252.101C49.1787 248.255 42.5425 243.923 33.7045 242.425C24.8665 240.927 17.1735 242.83 16.5216 246.676C15.8697 250.522 22.5059 254.854 31.3439 256.352C40.1819 257.85 47.875 255.947 48.5268 252.101Z" fill="#263238"/>
<path d="M103.236 235.287C110.621 227.965 113.87 219.269 110.494 215.864C107.118 212.46 98.3951 215.636 91.0109 222.959C83.6267 230.282 80.3774 238.977 83.7534 242.382C87.1293 245.786 95.8522 242.61 103.236 235.287Z" fill="#263238"/>
<path d="M57.1338 239.57C61.6487 236.458 59.5205 225.538 52.3802 215.18C45.2399 204.821 35.7915 198.948 31.2766 202.06C26.7616 205.172 28.8899 216.092 36.0302 226.45C43.1704 236.808 52.6189 242.682 57.1338 239.57Z" fill="#263238"/>
<path d="M68.6948 240.501L69.3668 271.824" stroke="#263238" stroke-width="2" stroke-miterlimit="10" stroke-linecap="round"/>
<path d="M67.8857 210.391L68.6949 240.501" stroke="#8C8C8C" stroke-width="2" stroke-miterlimit="10" stroke-linecap="round"/>
<path d="M67.9474 205.474L67.8857 207.785" stroke="#8C8C8C" stroke-width="2" stroke-miterlimit="10" stroke-linecap="round"/>
<path d="M57.0859 238.114C62.0652 248.404 64.9795 259.57 65.6642 270.981" stroke="#263238" stroke-width="2" stroke-miterlimit="10" stroke-linecap="round"/>
<path d="M42.1714 215.28C48.132 222.197 53.1472 229.876 57.0857 238.114" stroke="#8C8C8C" stroke-width="2" stroke-miterlimit="10" stroke-linecap="round"/>
<path d="M37.4746 210.315C37.4746 210.315 38.3798 211.138 39.8609 212.715" stroke="#8C8C8C" stroke-width="2" stroke-miterlimit="10" stroke-linecap="round"/>
<path d="M84.3018 241.317C78.2112 249.858 73.4637 259.282 70.2241 269.26" stroke="#263238" stroke-width="2" stroke-miterlimit="10" stroke-linecap="round"/>
<path d="M94.2926 229.838C90.6152 233.347 87.2706 237.19 84.3018 241.317" stroke="#8C8C8C" stroke-width="2" stroke-miterlimit="10" stroke-linecap="round"/>
<path d="M104.963 221.705C102.249 223.238 99.6984 225.044 97.3511 227.095" stroke="#8C8C8C" stroke-width="2" stroke-miterlimit="10" stroke-linecap="round"/>
<path d="M83.9382 216.027C79.1382 231.168 72.6651 253.543 69.6548 272.942" stroke="#263238" stroke-width="2" stroke-miterlimit="10" stroke-linecap="round"/>
<path d="M86.8665 207.045C86.0093 209.602 85.015 212.633 83.9385 216.027" stroke="#8C8C8C" stroke-width="2" stroke-miterlimit="10" stroke-linecap="round"/>
<path d="M89.8701 198.343C89.8701 198.343 89.0266 200.661 87.6758 204.638" stroke="#8C8C8C" stroke-width="2" stroke-miterlimit="10" stroke-linecap="round"/>
<path d="M48.0894 249.984C54.0962 252.261 59.9659 256.656 62.8185 264.987" stroke="#263238" stroke-width="2" stroke-miterlimit="10" stroke-linecap="round"/>
<path d="M36.9878 247.714C40.7807 247.904 44.5234 248.664 48.0895 249.97" stroke="#8C8C8C" stroke-width="2" stroke-miterlimit="10" stroke-linecap="round"/>
<path d="M29.7876 247.906C29.7876 247.906 30.8573 247.749 32.6265 247.68" stroke="#8C8C8C" stroke-width="2" stroke-miterlimit="10" stroke-linecap="round"/>
<path d="M107.01 256.321C115.848 254.823 122.484 250.491 121.832 246.645C121.18 242.799 113.487 240.896 104.649 242.394C95.8111 243.892 89.1749 248.224 89.8268 252.07C90.4786 255.915 98.1717 257.819 107.01 256.321Z" fill="#263238"/>
<path d="M90.446 249.909C84.3706 252.171 78.4049 256.574 75.5249 264.994" stroke="#263238" stroke-width="2" stroke-miterlimit="10" stroke-linecap="round"/>
<path d="M102.288 247.714C98.2485 247.835 94.2527 248.587 90.4458 249.943" stroke="#8C8C8C" stroke-width="2" stroke-miterlimit="10" stroke-linecap="round"/>
<path d="M108.549 247.906C108.549 247.906 107.863 247.803 106.636 247.728" stroke="#8C8C8C" stroke-width="2" stroke-miterlimit="10" stroke-linecap="round"/>
<path d="M90.3154 291.6C92.9904 285.999 94.3953 279.876 94.4297 273.669C94.4382 269.95 93.8857 266.251 92.7909 262.697H46.5257C45.4253 266.25 44.8704 269.949 44.88 273.669C44.9144 279.876 46.3193 285.999 48.9943 291.6H90.3154Z" fill="#263238"/>
<path d="M45.3394 267.833C45.2022 268.677 45.0994 269.534 45.0239 270.398H94.2788C94.2034 269.534 94.1005 268.677 93.9702 267.833H45.3394Z" fill="#7A7A7A"/>
<path d="M93.7508 280.93C93.9086 280.08 94.0388 279.23 94.1417 278.373H45.1611C45.264 279.23 45.3943 280.08 45.552 280.93H93.7508Z" fill="#7A7A7A"/>
<path d="M50.8595 273.813C50.8609 274.208 50.745 274.594 50.5265 274.923C50.3081 275.252 49.9969 275.509 49.6324 275.661C49.268 275.813 48.8665 275.854 48.479 275.777C48.0915 275.701 47.7353 275.512 47.4555 275.233C47.1758 274.954 46.9851 274.598 46.9075 274.211C46.8299 273.824 46.8691 273.422 47.0199 273.057C47.1707 272.692 47.4265 272.38 47.7548 272.161C48.0831 271.941 48.4691 271.824 48.8641 271.824C49.3921 271.824 49.8986 272.033 50.2726 272.406C50.6467 272.779 50.8577 273.285 50.8595 273.813V273.813Z" fill="#8C8C8C"/>
<path d="M60.8229 273.813C60.8242 274.208 60.7082 274.595 60.4894 274.924C60.2707 275.253 59.9591 275.51 59.5942 275.662C59.2293 275.814 58.8276 275.854 58.4398 275.777C58.0521 275.7 57.696 275.51 57.4165 275.23C57.137 274.951 56.9468 274.595 56.87 274.207C56.7933 273.819 56.8334 273.418 56.9852 273.053C57.1371 272.688 57.3939 272.376 57.7231 272.157C58.0523 271.939 58.4391 271.823 58.8343 271.824C59.3617 271.824 59.8675 272.034 60.2404 272.406C60.6134 272.779 60.8229 273.285 60.8229 273.813V273.813Z" fill="#8C8C8C"/>
<path d="M70.7931 273.813C70.7944 274.208 70.6786 274.594 70.4601 274.923C70.2417 275.252 69.9305 275.509 69.566 275.661C69.2015 275.813 68.8001 275.854 68.4126 275.777C68.0251 275.701 67.6689 275.512 67.3891 275.233C67.1094 274.954 66.9186 274.598 66.8411 274.211C66.7635 273.824 66.8027 273.422 66.9535 273.057C67.1043 272.692 67.3601 272.38 67.6884 272.161C68.0166 271.941 68.4027 271.824 68.7977 271.824C69.3257 271.824 69.8322 272.033 70.2062 272.406C70.5802 272.779 70.7913 273.285 70.7931 273.813V273.813Z" fill="#8C8C8C"/>
<path d="M80.757 273.813C80.7583 274.208 80.6424 274.594 80.424 274.923C80.2056 275.252 79.8944 275.509 79.5299 275.661C79.1654 275.813 78.764 275.854 78.3765 275.777C77.9889 275.701 77.6327 275.512 77.353 275.233C77.0732 274.954 76.8825 274.598 76.805 274.211C76.7274 273.824 76.7665 273.422 76.9173 273.057C77.0682 272.692 77.3239 272.38 77.6522 272.161C77.9805 271.941 78.3666 271.824 78.7615 271.824C79.2896 271.824 79.7961 272.033 80.1701 272.406C80.5441 272.779 80.7551 273.285 80.757 273.813V273.813Z" fill="#8C8C8C"/>
<path d="M90.7203 273.813C90.7217 274.208 90.6056 274.595 90.3869 274.924C90.1682 275.253 89.8566 275.51 89.4917 275.662C89.1268 275.814 88.725 275.854 88.3373 275.777C87.9496 275.7 87.5934 275.51 87.3139 275.23C87.0345 274.951 86.8443 274.595 86.7675 274.207C86.6907 273.819 86.7308 273.418 86.8827 273.053C87.0346 272.688 87.2914 272.376 87.6206 272.157C87.9498 271.939 88.3365 271.823 88.7318 271.824C89.2592 271.824 89.765 272.034 90.1379 272.406C90.5108 272.779 90.7203 273.285 90.7203 273.813Z" fill="#8C8C8C"/>
<path d="M401.76 241.639C406.555 241.639 410.441 231.44 410.441 218.86C410.441 206.279 406.555 196.08 401.76 196.08C396.966 196.08 393.079 206.279 393.079 218.86C393.079 231.44 396.966 241.639 401.76 241.639Z" fill="#263238"/>
<path d="M428.76 204.837C431.475 196.294 430.663 188.411 426.945 187.229C423.228 186.048 418.013 192.016 415.298 200.559C412.583 209.102 413.396 216.985 417.113 218.166C420.831 219.348 426.045 213.38 428.76 204.837Z" fill="#263238"/>
<path d="M382.228 252.11C382.879 248.264 376.243 243.932 367.405 242.434C358.567 240.936 350.874 242.839 350.222 246.685C349.57 250.531 356.207 254.863 365.045 256.361C373.883 257.859 381.576 255.956 382.228 252.11Z" fill="#263238"/>
<path d="M436.916 235.298C444.3 227.976 447.55 219.28 444.174 215.875C440.798 212.471 432.075 215.647 424.691 222.97C417.306 230.293 414.057 238.989 417.433 242.393C420.809 245.797 429.532 242.621 436.916 235.298Z" fill="#263238"/>
<path d="M390.792 239.554C395.307 236.442 393.179 225.522 386.038 215.164C378.898 204.806 369.45 198.932 364.935 202.044C360.42 205.157 362.548 216.077 369.688 226.435C376.829 236.793 386.277 242.667 390.792 239.554Z" fill="#263238"/>
<path d="M402.364 240.501L403.036 271.824" stroke="#263238" stroke-width="2" stroke-miterlimit="10" stroke-linecap="round"/>
<path d="M401.554 210.391L402.363 240.501" stroke="#8C8C8C" stroke-width="2" stroke-miterlimit="10" stroke-linecap="round"/>
<path d="M401.616 205.474L401.554 207.785" stroke="#8C8C8C" stroke-width="2" stroke-miterlimit="10" stroke-linecap="round"/>
<path d="M390.761 238.114C395.74 248.404 398.655 259.57 399.34 270.981" stroke="#263238" stroke-width="2" stroke-miterlimit="10" stroke-linecap="round"/>
<path d="M375.84 215.28C381.804 222.197 386.821 229.876 390.761 238.114" stroke="#8C8C8C" stroke-width="2" stroke-miterlimit="10" stroke-linecap="round"/>
<path d="M371.15 210.315C371.15 210.315 372.048 211.138 373.529 212.715" stroke="#8C8C8C" stroke-width="2" stroke-miterlimit="10" stroke-linecap="round"/>
<path d="M417.97 241.317C411.877 249.858 407.127 259.281 403.886 269.26" stroke="#263238" stroke-width="2" stroke-miterlimit="10" stroke-linecap="round"/>
<path d="M427.961 229.838C424.284 233.347 420.939 237.19 417.97 241.317" stroke="#8C8C8C" stroke-width="2" stroke-miterlimit="10" stroke-linecap="round"/>
<path d="M438.631 221.705C435.917 223.238 433.367 225.044 431.02 227.095" stroke="#8C8C8C" stroke-width="2" stroke-miterlimit="10" stroke-linecap="round"/>
<path d="M417.6 216.027C412.8 231.168 406.327 253.543 403.317 272.942" stroke="#263238" stroke-width="2" stroke-miterlimit="10" stroke-linecap="round"/>
<path d="M420.535 207.045C419.678 209.602 418.684 212.633 417.607 216.027" stroke="#8C8C8C" stroke-width="2" stroke-miterlimit="10" stroke-linecap="round"/>
<path d="M423.538 198.343C423.538 198.343 422.695 200.661 421.344 204.638" stroke="#8C8C8C" stroke-width="2" stroke-miterlimit="10" stroke-linecap="round"/>
<path d="M381.758 249.984C387.772 252.261 393.634 256.656 396.487 264.987" stroke="#263238" stroke-width="2" stroke-miterlimit="10" stroke-linecap="round"/>
<path d="M370.656 247.714C374.449 247.903 378.192 248.664 381.758 249.97" stroke="#8C8C8C" stroke-width="2" stroke-miterlimit="10" stroke-linecap="round"/>
<path d="M363.463 247.906C363.463 247.906 364.533 247.749 366.295 247.68" stroke="#8C8C8C" stroke-width="2" stroke-miterlimit="10" stroke-linecap="round"/>
<path d="M440.677 256.288C449.515 254.79 456.151 250.458 455.499 246.613C454.847 242.767 447.154 240.863 438.316 242.361C429.478 243.859 422.842 248.191 423.494 252.037C424.146 255.883 431.839 257.786 440.677 256.288Z" fill="#263238"/>
<path d="M424.115 249.909C418.039 252.171 412.073 256.574 409.193 264.994" stroke="#263238" stroke-width="2" stroke-miterlimit="10" stroke-linecap="round"/>
<path d="M435.957 247.714C431.917 247.835 427.921 248.587 424.114 249.943" stroke="#8C8C8C" stroke-width="2" stroke-miterlimit="10" stroke-linecap="round"/>
<path d="M442.224 247.906C442.224 247.906 441.538 247.803 440.311 247.728" stroke="#8C8C8C" stroke-width="2" stroke-miterlimit="10" stroke-linecap="round"/>
<path d="M423.991 291.6C426.666 285.999 428.071 279.876 428.105 273.669C428.114 269.95 427.561 266.251 426.467 262.697H380.195C379.097 266.251 378.543 269.949 378.549 273.669C378.573 279.873 379.966 285.996 382.629 291.6H423.991Z" fill="#263238"/>
<path d="M379.008 267.833C378.878 268.677 378.775 269.534 378.7 270.398H427.948C427.872 269.534 427.769 268.677 427.639 267.833H379.008Z" fill="#7A7A7A"/>
<path d="M427.427 280.93C427.578 280.08 427.715 279.23 427.818 278.373H378.83C378.933 279.23 379.07 280.08 379.221 280.93H427.427Z" fill="#7A7A7A"/>
<path d="M384.528 273.813C384.529 274.208 384.413 274.595 384.195 274.924C383.976 275.253 383.664 275.51 383.299 275.662C382.934 275.814 382.533 275.854 382.145 275.777C381.757 275.7 381.401 275.51 381.122 275.23C380.842 274.951 380.652 274.595 380.575 274.207C380.498 273.819 380.538 273.418 380.69 273.053C380.842 272.688 381.099 272.376 381.428 272.157C381.757 271.939 382.144 271.823 382.539 271.824C383.067 271.824 383.573 272.034 383.945 272.406C384.318 272.779 384.528 273.285 384.528 273.813Z" fill="#8C8C8C"/>
<path d="M394.499 273.813C394.5 274.208 394.384 274.594 394.166 274.923C393.947 275.252 393.636 275.509 393.272 275.661C392.907 275.813 392.506 275.854 392.118 275.777C391.731 275.701 391.374 275.512 391.095 275.233C390.815 274.954 390.624 274.598 390.547 274.211C390.469 273.824 390.508 273.422 390.659 273.057C390.81 272.692 391.066 272.38 391.394 272.161C391.722 271.941 392.108 271.824 392.503 271.824C393.031 271.824 393.538 272.033 393.912 272.406C394.286 272.779 394.497 273.285 394.499 273.813V273.813Z" fill="#8C8C8C"/>
<path d="M404.462 273.813C404.463 274.208 404.348 274.594 404.129 274.923C403.911 275.252 403.599 275.509 403.235 275.661C402.87 275.813 402.469 275.854 402.082 275.777C401.694 275.701 401.338 275.512 401.058 275.233C400.778 274.954 400.588 274.598 400.51 274.211C400.432 273.824 400.472 273.422 400.622 273.057C400.773 272.692 401.029 272.38 401.357 272.161C401.686 271.941 402.072 271.824 402.467 271.824C402.995 271.824 403.501 272.033 403.875 272.406C404.249 272.779 404.46 273.285 404.462 273.813V273.813Z" fill="#8C8C8C"/>
<path d="M414.425 273.813C414.427 274.208 414.311 274.595 414.092 274.924C413.873 275.253 413.562 275.51 413.197 275.662C412.832 275.814 412.43 275.854 412.042 275.777C411.655 275.7 411.298 275.51 411.019 275.23C410.74 274.951 410.549 274.595 410.473 274.207C410.396 273.819 410.436 273.418 410.588 273.053C410.74 272.688 410.996 272.376 411.326 272.157C411.655 271.939 412.042 271.823 412.437 271.824C412.964 271.824 413.47 272.034 413.843 272.406C414.216 272.779 414.425 273.285 414.425 273.813Z" fill="#8C8C8C"/>
<path d="M424.396 273.813C424.397 274.208 424.281 274.594 424.063 274.923C423.844 275.252 423.533 275.509 423.169 275.661C422.804 275.813 422.403 275.854 422.015 275.777C421.628 275.701 421.271 275.512 420.992 275.233C420.712 274.954 420.521 274.598 420.444 274.211C420.366 273.824 420.405 273.422 420.556 273.057C420.707 272.692 420.963 272.38 421.291 272.161C421.619 271.941 422.005 271.824 422.4 271.824C422.928 271.824 423.435 272.033 423.809 272.406C424.183 272.779 424.394 273.285 424.396 273.813V273.813Z" fill="#8C8C8C"/>
<path d="M152.29 63.0652H85.9473V155.143H152.29V63.0652Z" stroke="#263238" stroke-linecap="round" stroke-linejoin="round"/>
<path d="M150.171 66H88.0591V152.208H150.171V66Z" stroke="#263238" stroke-linecap="round" stroke-linejoin="round"/>
<path d="M130.409 93.4286H107.822V124.779H130.409V93.4286Z" stroke="#263238" stroke-linecap="round" stroke-linejoin="round"/>
<path d="M344.414 121.495C344.414 121.495 334.19 130.663 333.483 133.838C332.777 137.013 332.427 143.006 330.315 145.118C328.203 147.23 323.259 146.88 323.259 149.349C323.259 151.817 325.728 153.936 325.728 153.936C325.728 153.936 325.728 162.398 326.414 165.922C327.099 169.447 327.099 172.622 329.588 173.678C332.078 174.734 344.414 171.6 348.295 171.6C352.176 171.6 360.638 162.075 356.407 143.746C352.176 125.417 344.414 121.495 344.414 121.495Z" fill="white" stroke="#263238" stroke-linecap="round" stroke-linejoin="round"/>
<path d="M335.252 144.062C335.252 144.062 339.127 142.649 340.539 145.824" stroke="#263238" stroke-linecap="round" stroke-linejoin="round"/>
<path d="M336.309 138.069C336.309 138.069 339.483 137.013 341.246 140.537" stroke="#263238" stroke-width="2" stroke-linecap="round" stroke-linejoin="round"/>
<path d="M329.252 157.461C329.252 157.461 331.721 158.873 335.952 157.461" stroke="#263238" stroke-linecap="round" stroke-linejoin="round"/>
<path d="M351.086 261.826C351.086 262.882 348.974 275.575 347.918 280.512C347.143 284.119 346.375 289.365 346.011 291.943H406.629C407.15 284.654 402.24 253.323 402.24 237.497C402.24 219.518 400.128 209.294 391.31 199.419C382.491 189.545 366.624 186.391 362.043 186.391C357.463 186.391 353.582 191.685 353.582 191.685C353.582 191.685 348.645 192.034 345.477 199.083C342.309 206.133 337.371 223.392 335.952 231.504C334.533 239.616 341.246 247.015 345.826 251.952C350.407 256.889 351.086 260.743 351.086 261.826Z" fill="#4941C0" stroke="#263238" stroke-linecap="round" stroke-linejoin="round"/>
<path d="M340.183 116.558C340.183 116.558 350.057 136.629 350.4 149.705C350.743 162.782 343.344 171.209 343.344 178.971C343.344 186.734 346.868 189.545 349.337 191.664C351.805 193.783 360.994 188.489 364.148 191.664C367.303 194.839 372.61 218.105 375.805 223.749C379.001 229.392 385.673 233.623 395.904 233.266C406.135 232.91 411.065 219.161 411.065 213.525C411.065 207.888 403.659 204.357 407.184 196.951C410.708 189.545 415.645 185.294 411.415 175.09C407.184 164.887 393.428 164.866 389.904 159.257C386.379 153.648 393.778 135.257 384.61 122.914C375.442 110.571 340.539 104.222 340.183 116.558Z" fill="#263238" stroke="#263238" stroke-linecap="round" stroke-linejoin="round"/>
<path d="M392.475 226.848C394.241 227.604 396.203 227.77 398.071 227.321" stroke="#919191" stroke-linecap="round" stroke-linejoin="round"/>
<path d="M355.2 170.777C354.109 175.803 353.753 179.739 355.337 182.023C359.218 187.632 367.851 177.71 377.341 183.319C386.832 188.928 385.104 200.146 384.24 210.933C383.773 216.837 385.885 221.705 389.04 224.647" stroke="#919191" stroke-linecap="round" stroke-linejoin="round"/>
<path d="M358.306 158.283C357.771 160.505 357.216 162.645 356.702 164.667" stroke="#919191" stroke-linecap="round" stroke-linejoin="round"/>
<path d="M352.34 120.336C352.34 120.336 362.695 126.377 360.967 143.65C360.589 147.214 360.013 150.753 359.239 154.251" stroke="#919191" stroke-linecap="round" stroke-linejoin="round"/>
<path d="M370.608 127.029C373.673 131.609 376.19 137.403 375.634 143.664C374.338 158.297 368.304 171.243 373.029 172.971C377.753 174.699 400.635 177.285 401.067 186.775C401.499 196.265 396.343 200.578 398.503 207.943C399.055 210.012 400.143 211.899 401.658 213.414C403.172 214.929 405.06 216.017 407.129 216.569" stroke="#919191" stroke-linecap="round" stroke-linejoin="round"/>
<path d="M361.371 116.887C362.87 118.101 364.283 119.416 365.602 120.823" stroke="#919191" stroke-linecap="round" stroke-linejoin="round"/>
<path d="M382.107 133.707C382.107 133.707 390.336 145.79 386.853 155.28C383.369 164.77 376.498 168.651 381.675 172.533C386.853 176.414 407.129 170.811 409.714 180.761C412.299 190.711 403.673 192.837 403.248 199.31C402.823 205.783 405.833 209.664 405.833 209.664" stroke="#919191" stroke-linecap="round" stroke-linejoin="round"/>
<path d="M354.089 291.943C356.832 285.95 365.157 267.593 366.631 264.645C368.393 261.12 369.806 248.078 369.806 248.078L351.086 249.134L349.714 260.057L340.389 291.943H354.089Z" fill="white" stroke="#263238" stroke-linecap="round" stroke-linejoin="round"/>
<path d="M350.256 255.778C353.458 256.251 361.646 257.109 368.887 254.969C369.456 251.301 369.806 248.078 369.806 248.078L351.086 249.134L350.256 255.778Z" fill="#263238" stroke="#263238" stroke-linecap="round" stroke-linejoin="round"/>
<path d="M357.113 193.426C357.113 193.426 348.295 193.07 345.456 201.888C342.617 210.706 346.862 230.798 346.862 238.553C346.884 243.041 346.531 247.523 345.806 251.952C345.806 251.952 359.554 254.777 373.31 251.952L369.079 216.693" fill="#4941C0"/>
<path d="M357.113 193.426C357.113 193.426 348.295 193.07 345.456 201.888C342.617 210.706 346.862 230.798 346.862 238.553C346.884 243.041 346.531 247.523 345.806 251.952C345.806 251.952 359.554 254.777 373.31 251.952L369.079 216.693" stroke="#263238" stroke-linecap="round" stroke-linejoin="round"/>
<path d="M291.607 291.943L365.369 256.971H282.555L70.4844 291.943H291.607Z" fill="#8F8F8F" stroke="#263238" stroke-linecap="round" stroke-linejoin="round"/>
<path d="M307.824 291.943L365.369 260.558V256.971L291.607 291.943H307.824Z" fill="#263238" stroke="#263238" stroke-linecap="round" stroke-linejoin="round"/>
<path d="M245.143 169.2C245.143 169.2 229.371 175.371 222.514 178.457C215.657 181.543 210.514 186 210.514 194.229C210.514 202.457 217.028 237.429 217.028 243.6C217.028 249.771 214.628 268.286 214.628 268.286L274.286 258.384C274.286 258.384 269.54 245.877 279.977 233.527C286.834 225.408 283.001 213.367 283.001 213.367C283.001 213.367 310.971 253.886 316.457 253.543C321.943 253.2 323.314 244.286 320.914 238.457C318.514 232.629 303.62 206.523 300.878 202.066C298.135 197.609 296.578 187.995 288.007 180.123C279.435 172.251 260.228 167.829 260.228 167.829L245.143 169.2Z" fill="#4941C0" stroke="#263238" stroke-linecap="round" stroke-linejoin="round"/>
<path d="M295.083 259.989C295.083 259.989 299.198 259.529 301.015 259.529C302.832 259.529 308.091 263.863 308.777 264.775C309.463 265.687 309.004 266.373 308.318 266.606C307.632 266.839 304.889 265.008 304.204 264.775C303.518 264.542 299.184 264.322 299.184 264.322" fill="#BABABA"/>
<path d="M295.083 259.989C295.083 259.989 299.198 259.529 301.015 259.529C302.832 259.529 308.091 263.863 308.777 264.775C309.463 265.687 309.004 266.373 308.318 266.606C307.632 266.839 304.889 265.008 304.204 264.775C303.518 264.542 299.184 264.322 299.184 264.322" stroke="#263238" stroke-linecap="round" stroke-linejoin="round"/>
<path d="M220.574 180.288C220.574 180.288 207.312 185.314 203.198 199.029C199.083 212.743 206.4 253.886 206.4 257.088C206.481 259.193 207.112 261.241 208.231 263.026C208.231 263.026 228.802 266.688 245.712 267.141C262.622 267.593 274.971 267.141 274.971 267.141C274.971 267.141 283.886 270.027 299.191 267.518C300.562 267.291 304.677 268.971 305.143 267.141C305.609 265.31 299.877 259.077 295.995 259.529C280.073 261.401 275.424 259.529 275.424 259.529C275.424 259.529 234.281 250.683 230.592 249.312L223.282 246.569L224.194 213.655" fill="#4941C0"/>
<path d="M220.574 180.288C220.574 180.288 207.312 185.314 203.198 199.029C199.083 212.743 206.4 253.886 206.4 257.088C206.481 259.193 207.112 261.241 208.231 263.026C208.231 263.026 228.802 266.688 245.712 267.141C262.622 267.593 274.971 267.141 274.971 267.141C274.971 267.141 283.886 270.027 299.191 267.518C300.562 267.291 304.677 268.971 305.143 267.141C305.609 265.31 299.877 259.077 295.995 259.529C280.073 261.401 275.424 259.529 275.424 259.529C275.424 259.529 234.281 250.683 230.592 249.312L223.282 246.569L224.194 213.655" stroke="#263238" stroke-linecap="round" stroke-linejoin="round"/>
<path d="M295.996 259.529C280.073 261.401 275.424 259.529 275.424 259.529C275.424 259.529 234.281 250.683 230.592 249.312L223.282 246.569L223.927 223.289C220.498 220.354 213.682 216.521 202.053 217.214C202.814 234.178 206.366 254.853 206.366 257.088C206.446 259.193 207.078 261.241 208.197 263.026C208.197 263.026 228.768 266.688 245.678 267.141C262.588 267.593 274.937 267.141 274.937 267.141C274.937 267.141 283.852 270.027 299.157 267.518C300.528 267.291 304.642 268.971 305.109 267.141C305.575 265.31 299.877 259.077 295.996 259.529Z" fill="#BABABA" stroke="#263238" stroke-linecap="round" stroke-linejoin="round"/>
<path d="M299.191 260.441C299.191 260.441 305.122 263.637 306.734 264.555C308.345 265.474 309.929 266.153 308.332 266.613C306.734 267.072 304.684 266.379 303.532 265.927C302.38 265.474 297.141 263.184 297.141 263.184" fill="#BABABA"/>
<path d="M299.191 260.441C299.191 260.441 305.122 263.637 306.734 264.555C308.345 265.474 309.929 266.153 308.332 266.613C306.734 267.072 304.684 266.379 303.532 265.927C302.38 265.474 297.141 263.184 297.141 263.184" stroke="#263238" stroke-linecap="round" stroke-linejoin="round"/>
<path d="M295.543 261.812C296.847 261.989 298.094 262.458 299.191 263.184C300.788 264.322 306.734 266.146 306.734 267.058C306.734 267.97 304.676 268.203 303.086 267.744C301.495 267.285 297.147 265.687 296.228 265.461C295.31 265.234 293.719 265.008 293.719 265.008" fill="#BABABA"/>
<path d="M295.543 261.812C296.847 261.989 298.094 262.458 299.191 263.184C300.788 264.322 306.734 266.146 306.734 267.058C306.734 267.97 304.676 268.203 303.086 267.744C301.495 267.285 297.147 265.687 296.228 265.461C295.31 265.234 293.719 265.008 293.719 265.008" stroke="#263238" stroke-linecap="round" stroke-linejoin="round"/>
<path d="M292.114 264.37C292.114 264.37 295.769 264.096 297.367 264.775C298.964 265.454 306.281 267.285 304.669 267.97C303.058 268.656 302.612 268.882 301.7 268.882C300.788 268.882 295.995 267.285 295.995 267.285C295.995 267.285 292.567 268.43 290.29 267.97" fill="#BABABA"/>
<path d="M292.114 264.37C292.114 264.37 295.769 264.096 297.367 264.775C298.964 265.454 306.281 267.285 304.669 267.97C303.058 268.656 302.612 268.882 301.7 268.882C300.788 268.882 295.995 267.285 295.995 267.285C295.995 267.285 292.567 268.43 290.29 267.97" stroke="#263238" stroke-linecap="round" stroke-linejoin="round"/>
<path d="M300.878 202.066C300.686 201.758 300.494 201.381 300.288 201.031C299.499 201.243 298.718 201.477 297.957 201.717C288.987 204.706 286.169 211.399 285.49 217.145C290.53 223.714 311.465 253.886 316.457 253.543C321.943 253.2 323.314 244.286 320.914 238.457C318.514 232.629 303.621 206.523 300.878 202.066Z" fill="#BABABA" stroke="#263238" stroke-linecap="round" stroke-linejoin="round"/>
<path d="M307.817 246.247C305.643 243.631 304.454 240.336 304.457 236.935C304.457 231.202 306.13 214.238 306.13 208.985C306.015 205.328 305.371 201.706 304.217 198.233C304.217 198.233 305.89 194.414 309.23 192.981C312.569 191.547 314.489 195.367 316.636 203.952C318.782 212.537 322.869 226.457 322.389 237.429C321.909 248.4 322.869 250.807 319.049 252.96" fill="#BABABA"/>
<path d="M307.817 246.247C305.643 243.631 304.454 240.336 304.457 236.935C304.457 231.202 306.13 214.238 306.13 208.985C306.015 205.328 305.371 201.706 304.217 198.233C304.217 198.233 305.89 194.414 309.23 192.981C312.569 191.547 314.489 195.367 316.636 203.952C318.782 212.537 322.869 226.457 322.389 237.429C321.909 248.4 322.869 250.807 319.049 252.96" stroke="#263238" stroke-linecap="round" stroke-linejoin="round"/>
<path d="M312.384 200.4C312.384 200.4 310.279 202.025 306.994 200.578C303.71 199.131 304.073 197.41 304.073 197.41C304.073 197.41 302.132 196.45 300.336 195.799C299.018 195.217 297.846 194.348 296.907 193.255L291.737 191.397C289.714 190.67 286.087 190.155 285.415 187.797C284.743 185.438 288.59 186.034 290.612 186.761C292.635 187.488 295.412 188.222 296.228 186.665C297.044 185.109 294.041 182.174 294.041 182.174C294.041 182.174 298.224 180.713 301.049 181.92C303.874 183.127 309.627 187.838 310.409 188.688" fill="#BABABA"/>
<path d="M312.384 200.4C312.384 200.4 310.279 202.025 306.994 200.578C303.71 199.131 304.073 197.41 304.073 197.41C304.073 197.41 302.132 196.45 300.336 195.799C299.018 195.217 297.846 194.348 296.907 193.255L291.737 191.397C289.714 190.67 286.087 190.155 285.415 187.797C284.743 185.438 288.59 186.034 290.612 186.761C292.635 187.488 295.412 188.222 296.228 186.665C297.044 185.109 294.041 182.174 294.041 182.174C294.041 182.174 298.224 180.713 301.049 181.92C303.874 183.127 309.627 187.838 310.409 188.688" stroke="#263238" stroke-linecap="round" stroke-linejoin="round"/>
<path d="M294.967 182.475C294.967 182.475 295.131 177.778 299.513 180.418C303.895 183.058 311.17 186.741 311.794 187.214C312.418 187.687 314.153 191.239 314.537 195.086C314.921 198.933 314.921 199.543 314.921 199.543" fill="#BABABA"/>
<path d="M294.967 182.475C294.967 182.475 295.131 177.778 299.513 180.418C303.895 183.058 311.17 186.741 311.794 187.214C312.418 187.687 314.153 191.239 314.537 195.086C314.921 198.933 314.921 199.543 314.921 199.543" stroke="#263238" stroke-linecap="round" stroke-linejoin="round"/>
<path d="M298.478 179.774C298.478 179.774 296.174 178.402 294.624 179.184C293.074 179.966 288.727 182.88 289.262 184.923C289.796 186.967 293.979 182.386 294.967 182.475C295.954 182.565 298.052 183.058 298.052 183.058L298.478 179.774Z" fill="#BABABA" stroke="#263238" stroke-linecap="round" stroke-linejoin="round"/>
<path d="M305.863 183.257C305.863 183.257 302.523 179.143 300.72 178.498C298.917 177.854 293.863 183.442 293.28 185.081C292.697 186.72 293.506 187.275 294.35 187.049C295.193 186.823 297.717 184.032 297.717 184.032L299.431 182.798L300.699 183.518L305.863 183.257Z" fill="#BABABA" stroke="#263238" stroke-linecap="round" stroke-linejoin="round"/>
<path d="M308.702 184.512C308.702 184.512 306.644 181.118 305.273 180.631C303.902 180.144 299.883 182.921 298.45 184.786C297.017 186.651 294.85 187.728 296.036 188.681C297.223 189.634 300.048 186.686 301.289 186.075C302.53 185.465 305.643 185.259 305.643 185.259C305.643 185.259 306.932 187.31 308.702 184.512Z" fill="#BABABA" stroke="#263238" stroke-linecap="round" stroke-linejoin="round"/>
<path d="M313.426 190.443C313.426 190.443 310.978 184.539 309.799 183.586C308.62 182.633 304.519 184.855 303.25 186.254C301.982 187.653 299.239 190.368 300.418 191.314C301.598 192.261 304.937 187.92 304.937 187.92L307.159 187.392L308.53 189.998" fill="#BABABA"/>
<path d="M313.426 190.443C313.426 190.443 310.978 184.539 309.799 183.586C308.62 182.633 304.519 184.855 303.25 186.254C301.982 187.653 299.239 190.368 300.418 191.314C301.598 192.261 304.937 187.92 304.937 187.92L307.159 187.392L308.53 189.998" stroke="#263238" stroke-linecap="round" stroke-linejoin="round"/>
<path d="M253.255 236.51C253.893 236.249 254.558 235.968 255.23 235.666" stroke="#263238" stroke-linecap="round" stroke-linejoin="round"/>
<path d="M238.354 238.937C238.354 238.937 242.99 240.055 250.992 237.346" stroke="#263238" stroke-linecap="round" stroke-linejoin="round"/>
<path d="M281.458 197.499L281.205 203.794L282.974 213.367" stroke="#263238" stroke-linecap="round" stroke-linejoin="round"/>
<path d="M258.22 101.589C258.22 101.589 242.448 100.059 230.62 106.958C218.791 113.856 208.279 131.095 206.962 142.203C205.646 153.312 209.157 150.631 209.157 150.631C209.157 150.631 210.905 156.761 212.661 157.913C214.416 159.065 217.461 156.761 217.461 156.761L222.734 164.057H227.534L231.916 165.97C232.953 166.418 234.07 166.649 235.2 166.649C236.33 166.649 237.447 166.418 238.485 165.97C238.485 165.97 240.24 167.499 244.183 167.499C248.126 167.499 248.565 166.354 248.565 166.354C248.565 166.354 269.136 169.419 273.97 168.267C276.85 167.589 279.543 166.28 281.856 164.434C281.856 164.434 281.417 166.354 284.921 165.202C288.425 164.05 290.62 159.456 290.62 159.456C290.62 159.456 291.058 163.673 294.124 161.753C297.189 159.833 298.505 152.942 298.505 152.942C298.505 152.942 300.693 155.623 302.448 154.094C304.204 152.565 306.391 136.087 299.383 119.993C292.375 103.899 270.926 98.1394 258.22 101.589Z" fill="#263238" stroke="#263238" stroke-linecap="round" stroke-linejoin="round"/>
<path d="M245.856 161.829C246.729 164.084 247.072 166.51 246.857 168.919C246.521 172.971 243.483 174.658 247.2 180.391C250.917 186.123 256.649 189.504 262.725 187.145C268.8 184.786 269.136 177.017 269.136 173.979V164.866L245.856 161.829Z" fill="#BABABA" stroke="#263238" stroke-linecap="round" stroke-linejoin="round"/>
<path d="M269.143 167.897V167.719L253.371 162.809L245.883 161.829C246.747 164.086 247.08 166.512 246.857 168.919C246.645 171.497 245.335 173.122 245.376 175.447C247.841 176.317 250.47 176.627 253.07 176.352C264.898 175.365 268.601 168.974 269.143 167.897Z" fill="#263238" stroke="#263238" stroke-linecap="round" stroke-linejoin="round"/>
<path d="M259.44 123.6C259.44 123.6 246.747 134.174 243.929 136.629C242.694 137.757 241.399 138.817 240.048 139.803C239.718 146.069 240.193 152.351 241.46 158.496C242.263 162.466 247.995 166.923 250.813 169.467C261.099 178.862 272.009 169.426 275.664 158.462C277.426 153.175 276.349 136.251 274.978 132.405C273.607 128.558 259.44 123.6 259.44 123.6Z" fill="#BABABA" stroke="#263238" stroke-linecap="round" stroke-linejoin="round"/>
<path d="M259.44 123.6C259.44 123.6 255.257 131.726 250.971 135.257C246.686 138.789 240.137 144.075 241.145 142.8C242.153 141.525 245.945 138 248.955 133.728C250.731 131.236 252.334 128.627 253.755 125.918" fill="#263238"/>
<path d="M259.44 123.6C259.44 123.6 255.257 131.726 250.971 135.257C246.686 138.789 240.137 144.075 241.145 142.8C242.153 141.525 245.945 138 248.955 133.728C250.731 131.236 252.334 128.627 253.755 125.918" stroke="#263238" stroke-linecap="round" stroke-linejoin="round"/>
<path d="M254.4 143.445C254.4 144.603 253.852 145.536 253.18 145.536C252.508 145.536 251.959 144.603 251.959 143.445C251.959 142.286 252.508 141.387 253.18 141.387C253.852 141.387 254.4 142.293 254.4 143.445Z" fill="#263238"/>
<path d="M268.868 143.445C268.868 144.603 268.32 145.536 267.648 145.536C266.976 145.536 266.427 144.603 266.427 143.445C266.427 142.286 266.976 141.387 267.648 141.387C268.32 141.387 268.868 142.293 268.868 143.445Z" fill="#263238"/>
<path d="M264.164 147.6C264.164 147.6 265.385 150.213 264.164 151.776C262.944 153.339 261.031 154.046 259.639 153.147" stroke="#263238" stroke-linecap="round" stroke-linejoin="round"/>
<path d="M254.4 157.029C254.4 157.029 256.491 158.949 261.188 158.949C265.886 158.949 267.806 155.815 267.806 155.815" stroke="#263238" stroke-linecap="round" stroke-linejoin="round"/>
<path d="M247.968 138.919C247.968 138.919 251.451 136.135 255.805 136.827" stroke="#263238" stroke-width="2" stroke-linecap="round" stroke-linejoin="round"/>
<path d="M264.686 136.306C264.686 136.306 268.519 135.957 270.782 138.398" stroke="#263238" stroke-width="2" stroke-linecap="round" stroke-linejoin="round"/>
<path d="M236.044 265.481C236.044 265.481 239.98 265.481 241.529 266.469C243.079 267.456 246.048 271.584 245.856 272.174C245.664 272.763 245.266 272.955 244.279 272.763C243.292 272.571 239.952 269.616 239.164 269.026C238.375 268.437 235.234 266.283 235.234 266.283L236.044 265.481Z" fill="white" stroke="#263238" stroke-linecap="round" stroke-linejoin="round"/>
<path d="M148.457 170.914C148.457 170.914 158.057 177.086 162.857 186.686C167.657 196.286 173.829 211.714 175.2 213.771C176.572 215.829 185.143 228.514 185.143 228.514L216.343 266.229C216.343 266.229 235.543 263.829 237.6 265.886C239.657 267.943 244.457 273.086 244.114 274.8C243.772 276.514 240 275.829 238.972 275.829C236.668 275.819 234.37 276.049 232.114 276.514C228.686 277.2 225.6 276.857 221.486 276.857C217.372 276.857 215.657 276.857 213.943 276.514C212.229 276.171 207.772 272.743 207.772 272.743C207.772 272.743 186.857 256.629 182.057 252.857C177.257 249.086 154.972 230.229 154.972 230.229C154.972 230.229 152.572 196.971 151.886 192.514C151.2 188.057 145.372 170.914 145.372 170.914H148.457Z" fill="white" stroke="#263238" stroke-linecap="round" stroke-linejoin="round"/>
<path d="M185.143 228.514C185.143 228.514 176.572 215.829 175.2 213.771C173.829 211.714 167.657 196.286 162.857 186.686C158.057 177.086 148.457 170.914 148.457 170.914H145.372C145.372 170.914 151.2 188.057 151.886 192.514C152.572 196.971 154.972 230.229 154.972 230.229C154.972 230.229 177.257 249.086 182.057 252.857C182.681 253.351 183.586 254.05 184.677 254.914C185.362 250.162 187.673 243.758 194.654 240.021L185.143 228.514Z" fill="#4941C0" stroke="#263238" stroke-linecap="round" stroke-linejoin="round"/>
<path d="M222.281 270.795C222.281 270.795 223.461 271.385 225.82 272.366C228.178 273.346 230.935 272.955 232.306 273.545C233.678 274.135 234.274 276.103 230.345 276.693" stroke="#263238" stroke-linecap="round" stroke-linejoin="round"/>
<path d="M226.608 268.039C226.608 268.039 230.537 268.238 231.326 269.026C232.114 269.815 238.183 274.135 237.62 274.923C237.464 275.148 237.26 275.335 237.023 275.471C236.786 275.607 236.522 275.69 236.249 275.712" stroke="#263238" stroke-linecap="round" stroke-linejoin="round"/>
<path d="M230.345 266.661C230.345 266.661 235.262 266.27 237.202 268.629C239.143 270.987 242.688 274.725 242.318 275.321C242.212 275.49 242.069 275.631 241.898 275.734C241.728 275.836 241.536 275.897 241.337 275.911" stroke="#263238" stroke-linecap="round" stroke-linejoin="round"/>
<path d="M71.76 291.943L144.446 279.71C144.446 279.71 145.817 274.574 149.931 264.117C154.046 253.659 160.903 227.39 160.395 210.631C159.888 193.872 153.579 175.605 149.424 170.496C145.269 165.387 127.049 161.986 127.049 161.986C127.049 161.986 123.161 161.986 115.618 166.101C108.075 170.215 97.104 180.453 90.5623 191.883C84.0206 203.314 73.7828 248.311 73.536 251.472C73.3166 254.352 67.6526 286.245 66.6377 291.929L71.76 291.943Z" fill="#263238" stroke="#263238" stroke-linecap="round" stroke-linejoin="round"/>
<path d="M151.934 175.09L158.256 167.794C158.256 167.794 167.986 168.528 171.881 168.528C175.776 168.528 179.177 168.041 179.177 163.906C179.177 159.771 176.99 145.659 176.99 145.659C176.99 145.659 181.364 144.693 183.065 142.745C184.766 140.798 182.338 138.363 180.151 135.449C177.963 132.535 176.036 129.367 175.769 125.959C175.502 122.551 169.687 111.367 169.687 111.367C169.687 111.367 170.66 109.666 167.499 106.018C164.338 102.37 148.046 101.637 137.582 106.745C127.118 111.854 124.69 119.397 124.69 127.666C124.69 135.936 129.312 147.6 129.312 147.6C129.312 147.6 126.151 160.251 125.883 160.978C125.616 161.705 123.209 163.413 123.209 163.413C123.209 163.413 138.775 195.518 142.409 200.626C146.043 205.735 147.031 208.896 148.004 205.248C148.978 201.6 149.218 177.278 149.218 177.278L151.934 175.09Z" fill="white" stroke="#263238" stroke-linecap="round" stroke-linejoin="round"/>
<path d="M172.114 132.617C172.169 133.989 171.833 135.182 171.36 135.202C170.887 135.223 170.468 134.091 170.414 132.679C170.359 131.266 170.695 130.114 171.168 130.101C171.641 130.087 172.066 131.205 172.114 132.617Z" fill="#263238"/>
<path d="M165.312 127.906C165.312 127.906 167.499 124.258 173.095 126.446" stroke="#263238" stroke-width="2" stroke-linecap="round" stroke-linejoin="round"/>
<path d="M179.177 163.906C179.177 159.792 176.99 145.659 176.99 145.659C176.99 145.659 174.309 144.206 169.207 145.419C164.105 146.633 162.638 154.903 161.664 155.877C160.69 156.85 154.368 151.029 151.934 147.12C149.5 143.211 147.82 136.416 147.559 132.528C147.298 128.64 156.556 126.693 158.016 123.045C159.477 119.397 152.668 115.502 155.095 113.067C157.522 110.633 162.391 111.607 164.825 112.094C166.482 112.332 168.172 112.079 169.687 111.367C169.687 111.367 170.661 109.666 167.5 106.018C164.338 102.37 148.046 101.637 137.582 106.745C127.118 111.854 124.69 119.397 124.69 127.666C124.69 134.366 127.728 143.301 128.88 146.448C129.813 146.791 131.335 147.285 131.986 147.134C132.96 146.894 133.694 143.973 134.181 141.051C134.668 138.13 141.724 134.729 141.724 134.729C141.724 134.729 142.944 143.486 142.944 145.186C142.944 146.887 141.97 155.403 146.592 159.538C151.214 163.673 158.249 167.808 158.249 167.808C158.249 167.808 167.98 168.542 171.874 168.542C175.769 168.542 179.177 168.041 179.177 163.906Z" fill="#263238" stroke="#263238" stroke-linecap="round" stroke-linejoin="round"/>
<path d="M143.177 140.798C143.177 140.798 141.23 129.141 137.828 129.607C134.427 130.073 132.473 134.475 134.18 140.071C135.888 145.666 139.289 145.173 141.23 144.693" fill="white"/>
<path d="M143.177 140.798C143.177 140.798 141.23 129.141 137.828 129.607C134.427 130.073 132.473 134.475 134.18 140.071C135.888 145.666 139.289 145.173 141.23 144.693" stroke="#263238" stroke-linecap="round" stroke-linejoin="round"/>
<path d="M167.013 149.794C167.013 149.794 168.96 152.229 174.069 152.229" stroke="white" stroke-linecap="round" stroke-linejoin="round"/>
<path d="M229.371 199.371C229.371 199.371 222.514 191.143 220.457 193.2C218.4 195.257 223.886 200.4 223.886 200.4L229.371 199.371Z" fill="white" stroke="#263238" stroke-linecap="round" stroke-linejoin="round"/>
<path d="M230.832 197.541C230.832 197.541 226.286 187.029 225.257 190.114C224.229 193.2 226.629 200.057 226.629 200.057L230.832 197.541Z" fill="white" stroke="#263238" stroke-linecap="round" stroke-linejoin="round"/>
<path d="M135.771 203.143C135.771 203.143 125.829 189.771 116.914 186.686C108 183.6 98.4 188.057 91.5429 204.514C84.6857 220.971 89.4857 240.857 100.114 243.6C110.743 246.343 122.743 239.829 122.743 239.829C122.743 239.829 162.171 276.171 167.314 276.514C172.457 276.857 189.257 248.4 193.371 235.714C197.486 223.029 202.286 213.086 203.657 211.371C205.029 209.657 216.343 207.6 221.829 207.257C223.794 207.191 225.71 206.62 227.391 205.599C229.072 204.578 230.463 203.142 231.429 201.429C232.457 199.371 235.886 190.8 236.229 189.429C236.571 188.057 234.171 188.057 232.8 190.457C231.429 192.857 229.029 196.971 228 197.314C226.971 197.657 213.257 197.657 213.257 197.657L210.514 194.229C210.514 194.229 215.657 192.514 216.686 190.8C217.714 189.086 219.086 184.286 216.686 185.657C214.286 187.029 210.514 189.771 210.514 189.771C210.514 189.771 205.714 190.8 202.971 194.571C200.229 198.343 196.457 208.286 196.457 208.286C196.457 208.286 171.771 235.029 170.057 236.4C168.343 237.771 166.286 239.829 166.286 239.829L135.771 203.143Z" fill="white" stroke="#263238" stroke-linecap="round" stroke-linejoin="round"/>
<path d="M176.139 230.126C172.965 233.493 170.551 236.002 170.057 236.4C168.343 237.771 166.286 239.829 166.286 239.829L135.771 203.143C135.771 203.143 125.829 189.771 116.914 186.686C108 183.6 98.4 188.057 91.5429 204.514C84.6857 220.971 89.4857 240.857 100.114 243.6C110.743 246.343 122.743 239.829 122.743 239.829C122.743 239.829 162.171 276.171 167.314 276.514C171.765 276.809 184.951 255.531 191.081 241.577L176.139 230.126Z" fill="#4941C0" stroke="#263238" stroke-linecap="round" stroke-linejoin="round"/>
<path d="M166.286 239.829L156.343 251.143" stroke="#263238" stroke-linecap="round" stroke-linejoin="round"/>
<path d="M105.463 226.059L102.514 223.714" stroke="#263238" stroke-linecap="round" stroke-linejoin="round"/>
<path d="M122.743 239.829L108.418 228.411" stroke="#263238" stroke-linecap="round" stroke-linejoin="round"/>
<path d="M256.279 32.6538H269.245C269.546 32.6511 269.844 32.7079 270.123 32.8211C270.401 32.9343 270.655 33.1016 270.868 33.3133C271.082 33.5249 271.252 33.7768 271.367 34.0544C271.483 34.3319 271.543 34.6296 271.543 34.9304V46.8001H254.002V34.9304C254.002 34.3266 254.242 33.7475 254.669 33.3206C255.096 32.8936 255.675 32.6538 256.279 32.6538Z" fill="#263238"/>
<path d="M270.475 61.7103C271.483 57.3179 268.74 52.9397 264.348 51.9313C259.955 50.9229 255.577 53.6661 254.569 58.0585C253.56 62.4509 256.303 66.8291 260.696 67.8375C265.088 68.8459 269.466 66.1026 270.475 61.7103Z" fill="white" stroke="#ABABAB" stroke-miterlimit="10" stroke-linecap="round"/>
<path d="M297.463 60.2812H228.062L254.091 46.1006H271.378L297.463 60.2812Z" fill="#263238"/>
<path d="M264.233 0.425171H261.298V34.6012H264.233V0.425171Z" fill="#263238"/>
</g>
<defs>
<clipPath id="clip0_13_2052">
<rect width="500" height="298" fill="white"/>
</clipPath>
</defs>
</svg>
