<svg width="500" height="363" viewBox="0 0 500 363" fill="none" xmlns="http://www.w3.org/2000/svg">
<g clip-path="url(#clip0_12_22)">
<rect width="500" height="363" fill="white"/>
<path opacity="0.7" d="M67.93 84.09C67.93 84.09 40.05 156.09 79.23 228.59C118.41 301.09 199.11 339.39 263.7 372.14C328.29 404.89 395.36 388.94 427.23 335.3C459.1 281.66 415.39 243.37 415.33 166.88C415.27 90.39 426.78 70.1399 385.33 5.51995C343.88 -59.1001 242.27 -73.41 165.43 -25.48C88.59 22.45 67.93 84.09 67.93 84.09Z" fill="white"/>
<path d="M110 29.4699C123.46 13.3899 141.65 0.999906 163.33 1.20991C200.33 1.66991 220.33 34.4199 241.55 59.6799C252.55 72.7799 265.04 85.4199 281.38 91.5799C305.89 100.81 333.19 95.4199 357.07 86.8499C367.77 83.0099 380.44 77.6099 392.49 80.3699C429.12 88.7499 425.31 133.45 419.26 161.76C411.09 200 397.81 240.66 370.9 270C306.47 340.29 190.52 297.2 132.4 241.11C128.13 236.98 124.04 232.68 120.19 228.11C110.188 216.449 101.722 203.554 95 189.74C76.28 150.79 73.7 103.45 90 63.1999C94.8946 50.9961 101.64 39.6193 110 29.4699V29.4699Z" fill="#4941C0"/>
<path opacity="0.7" d="M110 29.4699C123.46 13.3899 141.65 0.999906 163.33 1.20991C200.33 1.66991 220.33 34.4199 241.55 59.6799C252.55 72.7799 265.04 85.4199 281.38 91.5799C305.89 100.81 333.19 95.4199 357.07 86.8499C367.77 83.0099 380.44 77.6099 392.49 80.3699C429.12 88.7499 425.31 133.45 419.26 161.76C411.09 200 397.81 240.66 370.9 270C306.47 340.29 190.52 297.2 132.4 241.11C128.13 236.98 124.04 232.68 120.19 228.11C110.188 216.449 101.722 203.554 95 189.74C76.28 150.79 73.7 103.45 90 63.1999C94.8946 50.9961 101.64 39.6193 110 29.4699V29.4699Z" fill="white"/>
<path d="M54.05 360.43H445.95" stroke="#263238" stroke-linecap="round" stroke-linejoin="round"/>
<path d="M291.97 157.8V10.66H301.08" stroke="#263238" stroke-linecap="round" stroke-linejoin="round"/>
<path d="M291.97 175.31V171.41" stroke="#263238" stroke-linecap="round" stroke-linejoin="round"/>
<path d="M324.51 10.66H418.52V189.03H291.97" stroke="#263238" stroke-linecap="round" stroke-linejoin="round"/>
<path d="M312.99 10.66H321.25" stroke="#263238" stroke-linecap="round" stroke-linejoin="round"/>
<path d="M413.76 15.41H296.73V184.28H413.76V15.41Z" stroke="#263238" stroke-linecap="round" stroke-linejoin="round"/>
<path d="M408.32 24.4501V94.5801H302.17V90.0001" stroke="#263238" stroke-linecap="round" stroke-linejoin="round"/>
<path d="M302.17 79.28V20.39H408.32" stroke="#263238" stroke-linecap="round" stroke-linejoin="round"/>
<path d="M302.17 86.4901V82.04" stroke="#263238" stroke-linecap="round" stroke-linejoin="round"/>
<path d="M390.39 99.8401H413.76" stroke="#263238" stroke-linecap="round" stroke-linejoin="round"/>
<path d="M382.08 99.8401H385.39" stroke="#263238" stroke-linecap="round" stroke-linejoin="round"/>
<path d="M296.73 99.8401H378.14" stroke="#263238" stroke-linecap="round" stroke-linejoin="round"/>
<path d="M349.36 94.58V92.16H359.15V93.53H355.25V94.58" stroke="#263238" stroke-linecap="round" stroke-linejoin="round"/>
<path d="M296.93 163C296.93 163 298.56 164.23 299.7 171.67C299.7 171.67 301.7 159.79 304.04 159.61C306.38 159.43 305.94 167.33 305.94 167.33C305.94 167.33 306.34 163.44 308.2 163.62C310.06 163.8 308.2 171.62 308.2 171.62C308.2 171.62 310.44 165.48 312.56 165.62C314.68 165.76 311.16 176.74 311.16 176.74C311.16 176.74 316.6 172.8 318.8 174.74C321 176.68 317.58 181.52 317.58 181.52C317.58 181.52 325.38 179.83 326.58 184.41" stroke="#263238" stroke-linecap="round" stroke-linejoin="round"/>
<path d="M326.59 180C326.59 180 329.99 177.77 332.67 178.81C332.67 178.81 330.97 176.22 332.67 174.64C334.37 173.06 336.55 178.81 336.55 178.81C336.55 178.81 336.8 169.16 340.2 169.65C343.6 170.14 340.2 178.81 340.2 178.81C340.2 178.81 346.27 173.43 347.73 175.3C349.19 177.17 346.73 180 346.73 180C347.827 179.688 348.987 179.667 350.095 179.939C351.203 180.211 352.221 180.766 353.05 181.55C353.05 181.55 357.12 177.4 361.64 176.8C361.64 176.8 358.64 168.07 360.09 166.31C361.54 164.55 364.2 173.93 364.2 173.93C364.2 173.93 365.36 167.83 369.2 167.35C369.2 167.35 366.03 165.63 366.97 163.02C367.91 160.41 372.28 163.64 372.28 163.64C372.28 163.64 370.48 159.05 373.33 157.79C376.18 156.53 377.33 161.63 377.33 161.63C377.33 161.63 378.13 156.29 381.47 156.63C384.81 156.97 383.73 163.07 383.73 163.07C383.73 163.07 386.88 158.19 388.57 158.68C391.94 159.68 390.92 167.4 390.92 167.4C390.92 167.4 395.62 164.13 396.84 165.64C398.06 167.15 391.94 171.45 391.94 171.45C391.94 171.45 396.61 171.96 399.52 174.69" stroke="#263238" stroke-linecap="round" stroke-linejoin="round"/>
<path d="M413.76 164.8C413.76 164.8 413.22 159.9 408.32 159.64C403.42 159.38 409.67 170.39 409.67 170.39C409.67 170.39 405.62 167.04 404.17 168.07C402.72 169.1 408.32 174.78 408.32 174.78C408.32 174.78 405.63 172.29 402.8 173.06C399.97 173.83 404.41 181.72 404.41 181.72C400.223 180.881 395.878 181.393 392 183.18" stroke="#263238" stroke-linecap="round" stroke-linejoin="round"/>
<path d="M246.69 316.65V360.17" stroke="#263238" stroke-linecap="round" stroke-linejoin="round"/>
<path d="M246.69 302.41V311.73" stroke="#263238" stroke-linecap="round" stroke-linejoin="round"/>
<path d="M63.49 360.43V279.33H246.69V297.13" stroke="#263238" stroke-linecap="round" stroke-linejoin="round"/>
<path d="M90.18 288.2H74.28V352.99" stroke="#263238" stroke-linecap="round" stroke-linejoin="round"/>
<path d="M235.9 360.17V288.2H99.4099" stroke="#263238" stroke-linecap="round" stroke-linejoin="round"/>
<path d="M228.28 270.93H223.23" stroke="#263238" stroke-linecap="round" stroke-linejoin="round"/>
<path d="M215.98 270.93H58.9399V279.27H251.24V270.93H231.5" stroke="#263238" stroke-linecap="round" stroke-linejoin="round"/>
<path d="M69.77 217.49C69.77 217.49 84.77 218.68 85.45 229.78C85.45 229.78 70.2 236.8 69.77 217.49Z" stroke="#263238" stroke-linecap="round" stroke-linejoin="round"/>
<path d="M99.54 220.25C99.54 220.25 107.95 208.88 121.54 214.71C121.54 214.71 113.24 228.45 99.54 220.25Z" stroke="#263238" stroke-linecap="round" stroke-linejoin="round"/>
<path d="M120.39 184.35C120.39 184.35 122.81 206.22 102.9 200.2C102.9 200.2 109.22 184.12 120.39 184.35Z" stroke="#263238" stroke-linecap="round" stroke-linejoin="round"/>
<path d="M95.94 172.17C95.94 172.17 111.69 180.67 100.11 193.55C100.11 193.55 89.07 184.35 95.94 172.17Z" stroke="#263238" stroke-linecap="round" stroke-linejoin="round"/>
<path d="M76.5698 191.72C76.5698 191.72 93.6898 190 93.6898 205.84C93.6898 205.84 76.5698 206.52 76.5698 191.72Z" stroke="#263238" stroke-linecap="round" stroke-linejoin="round"/>
<path d="M89.4 238.73C89.15 233.41 89.15 226.57 92.4 219.34C99.89 202.66 102.4 188.61 98.51 178.71" stroke="#263238" stroke-linecap="round" stroke-linejoin="round"/>
<path d="M82.1899 196C82.1899 196 92.4499 200.08 95.9399 210.65" stroke="#263238" stroke-linecap="round" stroke-linejoin="round"/>
<path d="M115 193.1C115 193.1 109.07 201.18 99 200.31" stroke="#263238" stroke-linecap="round" stroke-linejoin="round"/>
<path d="M115 217C115 217 98.57 221.73 92 220.18" stroke="#263238" stroke-linecap="round" stroke-linejoin="round"/>
<path d="M74.6699 222.49C74.6699 222.49 82.0199 230.55 89.3999 230.42" stroke="#263238" stroke-linecap="round" stroke-linejoin="round"/>
<path d="M108.93 238.73H73.2399C73.0091 238.73 72.7878 238.822 72.6247 238.985C72.4615 239.148 72.3699 239.369 72.3699 239.6V242.31C72.3699 242.424 72.3924 242.537 72.4363 242.642C72.4801 242.747 72.5444 242.842 72.6253 242.922C72.7062 243.002 72.8022 243.065 72.9077 243.108C73.0132 243.15 73.1261 243.171 73.2399 243.17H74.2399L77.4199 270.93H104.7L107.88 243.17H108.93C109.043 243.171 109.156 243.15 109.261 243.107C109.366 243.065 109.461 243.001 109.541 242.921C109.621 242.841 109.684 242.746 109.727 242.641C109.77 242.536 109.791 242.423 109.79 242.31V239.6C109.791 239.486 109.77 239.373 109.727 239.268C109.685 239.162 109.622 239.066 109.542 238.986C109.462 238.905 109.366 238.84 109.261 238.797C109.156 238.753 109.044 238.73 108.93 238.73V238.73Z" stroke="#263238" stroke-miterlimit="10"/>
<path d="M76.5698 243.17H97.3298" stroke="#263238" stroke-linecap="round" stroke-linejoin="round"/>
<path d="M101.24 243.17H104.36" stroke="#263238" stroke-linecap="round" stroke-linejoin="round"/>
<path d="M328.71 128.09L324.71 149.83L292.09 169.65L296.6 177.93C296.6 177.93 334.31 166.43 335.23 163.74C336.15 161.05 344.84 132.56 344.84 132.56L328.71 128.09Z" fill="#263238"/>
<path d="M343 91.33L340.82 117.69L339.67 131.52C333.38 134.58 327.23 129.98 326.85 129.68C328.56 124.66 330.55 96.33 343 91.33Z" fill="#999999" stroke="#263238" stroke-linecap="round" stroke-linejoin="round"/>
<path d="M340.78 117.69L339.63 131.52C333.34 134.58 327.19 129.98 326.81 129.68C327.08 129.8 330.39 131.2 332.54 129.68C331.788 128.868 331.118 127.984 330.54 127.04C330.41 126.52 332.54 126.38 332.54 126.38C332.54 126.38 331.14 115.17 334.87 110.38C336.33 108.56 338.61 112.36 340.78 117.69Z" fill="#263238"/>
<path d="M365.59 335.44L366.59 338.38C365.075 340.882 363.377 343.268 361.51 345.52C361.51 345.52 360.51 345.2 358.87 346.65C357.86 347.657 357.237 348.989 357.11 350.41C357.11 350.41 349.47 359.57 339.78 359.7C330.09 359.83 333.01 354.95 333.01 354.95L365.59 335.44Z" fill="#4941C0" stroke="#263238" stroke-linecap="round" stroke-linejoin="round"/>
<path d="M356.48 312.13C356.48 312.13 343.48 307.34 340.94 316.92C340.94 316.92 343.26 327.47 341.87 333.24C340.48 339.01 333.48 350.03 333.05 352.12C332.2 356.22 332.84 356.5 332.84 356.5C332.84 356.5 337.93 359.44 344.77 356.29C351.61 353.14 363.45 339.58 365.3 336.79C367.15 334 359.5 323 359.5 323L356.48 312.13Z" fill="white"/>
<path opacity="0.4" d="M356.48 312.13C356.48 312.13 343.48 307.34 340.94 316.92C340.94 316.92 343.26 327.47 341.87 333.24C340.48 339.01 333.48 350.03 333.05 352.12C332.2 356.22 332.84 356.5 332.84 356.5C332.84 356.5 337.93 359.44 344.77 356.29C351.61 353.14 363.45 339.58 365.3 336.79C367.15 334 359.5 323 359.5 323L356.48 312.13Z" fill="#4941C0"/>
<path d="M356.48 312.13C356.48 312.13 343.48 307.34 340.94 316.92C340.94 316.92 343.26 327.47 341.87 333.24C340.48 339.01 333.48 350.03 333.05 352.12C332.2 356.22 332.84 356.5 332.84 356.5C332.84 356.5 337.93 359.44 344.77 356.29C351.61 353.14 363.45 339.58 365.3 336.79C367.15 334 359.5 323 359.5 323L356.48 312.13Z" stroke="#263238" stroke-linecap="round" stroke-linejoin="round"/>
<path d="M349.83 325.68C350.961 332.134 349.812 338.78 346.58 344.48" stroke="#263238" stroke-linecap="round" stroke-linejoin="round"/>
<path d="M346.58 347C346.096 348.218 345.345 349.311 344.383 350.201C343.421 351.09 342.272 351.753 341.02 352.14C338.399 352.841 335.641 352.841 333.02 352.14L336.14 345.82C339.452 347.14 343.057 347.547 346.58 347V347Z" fill="#4941C0" stroke="#263238" stroke-linecap="round" stroke-linejoin="round"/>
<path d="M348.42 343.17C348.42 343.17 341.62 343.58 338.07 342.17" stroke="#263238" stroke-linecap="round" stroke-linejoin="round"/>
<path d="M349.68 339.42C349.68 339.42 343.32 340.42 339.77 338.42" stroke="#263238" stroke-linecap="round" stroke-linejoin="round"/>
<path d="M350.76 335.25C350.76 335.25 345.19 336.06 341.55 334.34" stroke="#263238" stroke-linecap="round" stroke-linejoin="round"/>
<path d="M351.38 330.53C351.38 330.53 345.18 332.47 342.25 330.53" stroke="#263238" stroke-linecap="round" stroke-linejoin="round"/>
<path d="M352.31 318.87L353.39 325.68C353.39 325.68 345.19 331.08 339.77 324.33V317.22C339.77 317.22 341.81 322 352.31 318.87Z" fill="#4941C0" stroke="#263238" stroke-linecap="round" stroke-linejoin="round"/>
<path d="M345.19 166C336.88 192.33 311.09 234.56 313.7 245.37C315.13 251.27 323.64 284.7 330.3 299.37C332.83 304.98 338.3 308.73 338.3 308.73L342.25 317.2C351.88 321.39 355.33 312.87 355.33 312.87L353.39 303.27C358.55 293.89 356.39 293.89 349.68 245.27C348.89 239.54 362.18 221.83 362.18 221.83L369 266.39L370.11 302.89L373.65 314.17C373.65 314.17 374.53 324.76 374.45 325.4H390.28L392 313.76C392 313.76 399.35 306.83 399.35 298.83C399.35 290.83 397.77 250.08 399.35 238.21C400.93 226.34 395.65 171 395.65 171L345.19 166Z" fill="#263238"/>
<path d="M237.576 142.539L259.576 144.519C260.075 144.564 260.535 144.805 260.856 145.189C261.177 145.574 261.332 146.07 261.287 146.568L259.874 162.268L234.114 159.95L235.527 144.25C235.572 143.751 235.813 143.291 236.197 142.97C236.581 142.649 237.077 142.494 237.576 142.539V142.539Z" fill="#4941C0"/>
<path opacity="0.3" d="M237.576 142.539L259.576 144.519C260.075 144.564 260.535 144.805 260.856 145.189C261.177 145.574 261.332 146.07 261.287 146.568L259.874 162.268L234.114 159.95L235.527 144.25C235.572 143.751 235.813 143.291 236.197 142.97C236.582 142.649 237.078 142.494 237.576 142.539V142.539Z" fill="black" fill-opacity="0.7"/>
<path opacity="0.3" d="M259.922 144.247L253.615 143.705L252.531 156.319L258.838 156.86L259.922 144.247Z" fill="white" fill-opacity="0.7"/>
<path d="M237.576 142.539L259.576 144.519C260.075 144.564 260.535 144.805 260.856 145.189C261.177 145.574 261.332 146.07 261.287 146.568L259.874 162.268L234.114 159.95L235.527 144.25C235.572 143.751 235.813 143.291 236.197 142.97C236.581 142.649 237.077 142.494 237.576 142.539V142.539Z" stroke="#263238" stroke-width="1.00404" stroke-linecap="round" stroke-linejoin="round"/>
<path d="M275.549 143.929L297.468 145.812C297.965 145.855 298.425 146.093 298.746 146.474C299.067 146.856 299.223 147.349 299.181 147.846L297.837 163.488L272.171 161.284L273.515 145.641C273.558 145.144 273.796 144.685 274.178 144.364C274.559 144.043 275.052 143.886 275.549 143.929Z" fill="#4941C0"/>
<path opacity="0.3" d="M275.549 143.929L297.468 145.812C297.965 145.855 298.425 146.093 298.746 146.474C299.067 146.856 299.223 147.349 299.181 147.846L297.837 163.488L272.171 161.284L273.515 145.641C273.558 145.144 273.796 144.685 274.178 144.364C274.559 144.043 275.052 143.886 275.549 143.929Z" fill="black" fill-opacity="0.7"/>
<path opacity="0.3" d="M297.349 147.468L293.543 147.141L292.46 159.755L296.266 160.082L297.349 147.468Z" fill="white" fill-opacity="0.7"/>
<path d="M275.549 143.929L297.468 145.812C297.965 145.855 298.425 146.093 298.746 146.474C299.067 146.856 299.223 147.349 299.181 147.846L297.837 163.488L272.171 161.284L273.515 145.641C273.558 145.144 273.796 144.685 274.178 144.364C274.559 144.043 275.052 143.886 275.549 143.929Z" stroke="#263238" stroke-linecap="round" stroke-linejoin="round"/>
<path d="M267.587 143.239L289.507 145.122C290.003 145.165 290.463 145.403 290.784 145.785C291.105 146.166 291.262 146.66 291.219 147.156L289.875 162.799L264.21 160.594L265.553 144.952C265.596 144.455 265.834 143.995 266.216 143.674C266.597 143.353 267.091 143.197 267.587 143.239V143.239Z" fill="#4941C0" stroke="#263238" stroke-linecap="round" stroke-linejoin="round"/>
<path d="M305.44 146.498L327.359 148.381C327.856 148.423 328.315 148.662 328.636 149.043C328.957 149.425 329.114 149.918 329.071 150.415L327.728 166.047L302.063 163.842L303.406 148.2C303.452 147.705 303.691 147.248 304.072 146.929C304.453 146.61 304.944 146.455 305.44 146.498V146.498Z" fill="#4941C0" stroke="#263238" stroke-linecap="round" stroke-linejoin="round"/>
<path opacity="0.3" d="M289.812 146.816L283.505 146.274L282.422 158.887L288.729 159.429L289.812 146.816Z" fill="white" fill-opacity="0.7"/>
<path opacity="0.3" d="M327.249 150.028L320.942 149.487L319.859 162.1L326.166 162.642L327.249 150.028Z" fill="white" fill-opacity="0.7"/>
<path d="M339.19 163.39L333 235.32L217.11 225.32L223.3 153.4C223.35 152.805 223.518 152.225 223.792 151.695C224.067 151.164 224.444 150.693 224.901 150.309C225.358 149.924 225.886 149.634 226.456 149.454C227.026 149.274 227.625 149.208 228.22 149.26L335.04 158.44C335.639 158.489 336.222 158.656 336.756 158.932C337.29 159.208 337.763 159.588 338.149 160.048C338.535 160.509 338.826 161.041 339.005 161.615C339.183 162.188 339.246 162.792 339.19 163.39V163.39Z" fill="#4941C0"/>
<path opacity="0.3" d="M339.19 163.39L333 235.32L217.11 225.32L223.3 153.4C223.35 152.805 223.518 152.225 223.792 151.695C224.067 151.164 224.444 150.693 224.901 150.309C225.358 149.924 225.886 149.634 226.456 149.454C227.026 149.274 227.625 149.208 228.22 149.26L335.04 158.44C335.639 158.489 336.222 158.656 336.756 158.932C337.29 159.208 337.763 159.588 338.149 160.048C338.535 160.509 338.826 161.041 339.005 161.615C339.183 162.188 339.246 162.792 339.19 163.39V163.39Z" fill="black" fill-opacity="0.7"/>
<path d="M339.19 163.39L333 235.32L217.11 225.32L223.3 153.4C223.35 152.805 223.518 152.225 223.792 151.695C224.067 151.164 224.444 150.693 224.901 150.309C225.358 149.924 225.886 149.634 226.456 149.454C227.026 149.274 227.625 149.208 228.22 149.26L335.04 158.44C335.639 158.489 336.222 158.656 336.756 158.932C337.29 159.208 337.763 159.588 338.149 160.048C338.535 160.509 338.826 161.041 339.005 161.615C339.183 162.188 339.246 162.792 339.19 163.39V163.39Z" stroke="#263238" stroke-linecap="round" stroke-linejoin="round"/>
<path d="M339.19 163.39L333 235.32L247 227.92L253.2 156C253.25 155.405 253.418 154.825 253.692 154.295C253.967 153.764 254.344 153.293 254.801 152.909C255.258 152.524 255.786 152.234 256.356 152.054C256.925 151.874 257.525 151.808 258.12 151.86L335.05 158.47C335.645 158.52 336.225 158.688 336.755 158.962C337.285 159.237 337.757 159.614 338.141 160.071C338.526 160.528 338.816 161.056 338.996 161.626C339.176 162.195 339.242 162.795 339.19 163.39V163.39Z" fill="#4941C0" stroke="#263238" stroke-linecap="round" stroke-linejoin="round"/>
<path opacity="0.3" d="M333.15 165.45L259.64 159.13C259.15 159.087 258.697 158.853 258.377 158.479C258.057 158.105 257.897 157.621 257.93 157.13V157.13C257.973 156.64 258.207 156.186 258.581 155.867C258.955 155.547 259.439 155.387 259.93 155.42L333.44 161.74C333.93 161.783 334.384 162.017 334.703 162.391C335.023 162.765 335.183 163.249 335.15 163.74V163.74C335.107 164.23 334.873 164.684 334.499 165.003C334.125 165.323 333.641 165.483 333.15 165.45V165.45Z" fill="white" fill-opacity="0.7"/>
<path d="M390.8 325.81C390.8 325.81 385.26 321.86 373.8 322.65C373.8 322.65 372.96 336.4 371.4 340.4C369.84 344.4 361.62 351.33 360.09 352.52C358.56 353.71 358.56 357.86 358.56 357.86H393.38C392.933 351.908 392.007 346.002 390.61 340.2L390.8 325.81Z" fill="white"/>
<path opacity="0.4" d="M390.8 325.81C390.8 325.81 385.26 321.86 373.8 322.65C373.8 322.65 372.96 336.4 371.4 340.4C369.84 344.4 361.62 351.33 360.09 352.52C358.56 353.71 358.56 357.86 358.56 357.86H393.38C392.933 351.908 392.007 346.002 390.61 340.2L390.8 325.81Z" fill="#4941C0"/>
<path d="M390.8 325.81C390.8 325.81 385.26 321.86 373.8 322.65C373.8 322.65 372.96 336.4 371.4 340.4C369.84 344.4 361.62 351.33 360.09 352.52C358.56 353.71 358.56 357.86 358.56 357.86H393.38C392.933 351.908 392.007 346.002 390.61 340.2L390.8 325.81Z" stroke="#263238" stroke-linecap="round" stroke-linejoin="round"/>
<path d="M383.61 327.59C383.61 327.59 382.79 340.25 380.82 343.59C379.768 345.425 378.469 347.108 376.96 348.59" stroke="#263238" stroke-linecap="round" stroke-linejoin="round"/>
<path d="M376 350.34C376 350.34 374.25 352.52 372.31 352.81C370.37 353.1 360.12 352.52 360.12 352.52L364.3 348.9C364.3 348.9 372.8 347.47 376 350.34Z" fill="#4941C0" stroke="#263238" stroke-linecap="round" stroke-linejoin="round"/>
<path d="M379.62 347.37C379.62 347.37 372.2 343.11 366.91 346.37" stroke="#263238" stroke-linecap="round" stroke-linejoin="round"/>
<path d="M381.41 344.48C381.41 344.48 376.23 340.43 370.12 342.65" stroke="#263238" stroke-linecap="round" stroke-linejoin="round"/>
<path d="M383.61 340.07C383.61 340.07 378.03 335.73 372.15 338.49" stroke="#263238" stroke-linecap="round" stroke-linejoin="round"/>
<path d="M384.37 334.56C384.37 334.56 377.6 330.92 372.68 333.68" stroke="#263238" stroke-linecap="round" stroke-linejoin="round"/>
<path d="M393.37 357.86V360.43H389.37C389.37 360.43 385.94 358.43 382.68 360.43H363.9C361.916 360.423 359.957 359.983 358.16 359.14L358.55 357.86H393.37Z" fill="#4941C0" stroke="#263238" stroke-linecap="round" stroke-linejoin="round"/>
<path d="M388.38 325L387.49 330.61C387.49 330.61 377.04 327.22 371.27 329.42V322.52C371.27 322.52 382 318.76 388.38 325Z" fill="#4941C0" stroke="#263238" stroke-linecap="round" stroke-linejoin="round"/>
<path d="M399.68 185.23C399.68 185.23 377.47 189.58 355.68 182.52C350.719 180.939 345.973 178.749 341.55 176C341.55 176 341.61 174.6 341.65 172.31C341.83 163.37 341.78 140.88 337.07 135.31C334.07 131.8 331.72 110.1 337.51 99.1299L355.22 84.8899C379.74 89.6799 384.92 96.1699 388.97 110.17C389.72 112.73 390.42 115.54 391.2 118.64C392.05 122.02 392.85 126.15 393.61 130.64C397.29 153 399.68 185.23 399.68 185.23Z" fill="#999999"/>
<path opacity="0.2" d="M393.61 130.64L383.61 175.31C383.61 175.31 369.16 179.31 355.69 182.52C350.725 180.94 345.976 178.75 341.55 176C341.55 176 341.61 174.6 341.65 172.31C353.75 166.12 371.41 157.02 371.27 156.59C371.04 155.92 371.27 132.59 371.27 132.59C371.27 132.59 387.27 128.88 388.97 110.14C389.72 112.7 390.42 115.51 391.2 118.61C392.05 122 392.85 126.1 393.61 130.64Z" fill="black"/>
<path d="M399.68 185.23C399.68 185.23 377.47 189.58 355.68 182.52C350.719 180.939 345.973 178.749 341.55 176C341.55 176 341.61 174.6 341.65 172.31C341.83 163.37 341.78 140.88 337.07 135.31C334.07 131.8 331.72 110.1 337.51 99.1299L355.22 84.8899C379.74 89.6799 384.92 96.1699 388.97 110.17C389.72 112.73 390.42 115.54 391.2 118.64C392.05 122.02 392.85 126.15 393.61 130.64C397.29 153 399.68 185.23 399.68 185.23Z" stroke="#263238" stroke-linecap="round" stroke-linejoin="round"/>
<path d="M356 66.2C356 66.2 348.18 77.4 358.58 86.14C358.58 86.14 345.96 100.3 341.81 98.35C340.06 97.53 341.81 92.42 341.81 92.42L334.49 78.88L356 66.2Z" fill="white" stroke="#263238" stroke-linecap="round" stroke-linejoin="round"/>
<path d="M353.45 72C355.89 61.33 354.72 45.44 339.77 46.85C329.29 47.85 321.82 53.65 324.77 67.71C326 73.64 327.01 82.04 332.45 89.62C333.96 91.72 349.76 84.29 348.8 78.28" fill="white"/>
<path d="M353.45 72C355.89 61.33 354.72 45.44 339.77 46.85C329.29 47.85 321.82 53.65 324.77 67.71C326 73.64 327.01 82.04 332.45 89.62C333.96 91.72 349.76 84.29 348.8 78.28" stroke="#263238" stroke-linecap="round" stroke-linejoin="round"/>
<path d="M332.06 65.33C333.114 64.9218 334.25 64.7661 335.375 64.8755C336.5 64.9849 337.584 65.3563 338.54 65.96" stroke="#263238" stroke-linecap="round" stroke-linejoin="round"/>
<path d="M324.54 66.64C324.732 66.2305 325.065 65.9041 325.479 65.7204C325.892 65.5367 326.357 65.5082 326.79 65.64" stroke="#263238" stroke-linecap="round" stroke-linejoin="round"/>
<path d="M328.28 68.86C328.28 68.86 325.2 74.47 325.19 75.27C325.18 76.07 328.98 76.34 328.98 76.34" fill="white"/>
<path d="M328.28 68.86C328.28 68.86 325.2 74.47 325.19 75.27C325.18 76.07 328.98 76.34 328.98 76.34" stroke="#263238" stroke-linecap="round" stroke-linejoin="round"/>
<path d="M334.9 69.9999C334.9 70.6099 334.63 71.11 334.25 71.13C333.87 71.15 333.55 70.6499 333.53 70.0399C333.51 69.4299 333.8 68.9299 334.18 68.9199C334.56 68.9099 334.88 69.4099 334.9 69.9999Z" fill="#263238"/>
<path d="M330.55 80.42C330.55 80.42 336.46 79.31 337.55 77.23" stroke="#263238" stroke-linecap="round" stroke-linejoin="round"/>
<path d="M324.5 57.9999L329.1 56.6599C329.1 56.6599 335.55 53.6599 336.92 54.0799C338.29 54.4999 341.07 58.7699 340.98 61.2099C340.98 61.2099 345.32 65.0299 345.87 70.5699L347.19 69.9699C347.19 69.9699 347.12 64.9699 349.96 65.0999C352.8 65.2299 354.08 68.6299 353.89 69.6999C353.7 70.7699 350.59 75.2099 350.59 75.2099C350.59 75.2099 357.71 74.1499 357.94 60.2099C358.17 46.2699 342.89 43.9999 335.46 44.5699C331.698 44.9303 327.918 45.0706 324.14 44.9899L324.56 48.9899L321.56 49.7799L323.82 52.5499L321.34 53.6799L324.5 57.9999Z" fill="#263238"/>
<path d="M350.26 210C350.26 210 368.36 214.79 373.26 228.27" stroke="white" stroke-linecap="round" stroke-linejoin="round"/>
<path d="M358.55 217.25C358.55 217.25 348.77 233.54 333.8 242" stroke="white" stroke-linecap="round" stroke-linejoin="round"/>
<path d="M344.8 308.86C344.8 308.86 350.36 307.61 351.88 305.45" stroke="white" stroke-linecap="round" stroke-linejoin="round"/>
<path d="M375.76 310.93C375.76 310.93 381.2 308.11 386.62 310.93" stroke="white" stroke-linecap="round" stroke-linejoin="round"/>
<path d="M393.37 235.09C393.37 235.09 384.24 258.74 379.62 260.93" stroke="white" stroke-linecap="round" stroke-linejoin="round"/>
<path d="M353.39 198.05C353.64 200.62 364.39 212.53 373.26 217.25" stroke="white" stroke-linecap="round" stroke-linejoin="round"/>
<path d="M362.56 188C363.854 191.189 364.123 194.701 363.33 198.05C362.467 200.94 362.467 204.02 363.33 206.91" stroke="white" stroke-linecap="round" stroke-linejoin="round"/>
<path d="M343 138.82C343 138.82 359.83 160.6 377.92 167.75" stroke="#263238" stroke-linecap="round" stroke-linejoin="round"/>
<path d="M360.42 103.61C360.42 103.61 360.36 118.42 371.04 125.1" stroke="#263238" stroke-linecap="round" stroke-linejoin="round"/>
<path d="M366.43 125.22C364.17 127.44 366.63 155.3 366.63 155.3C366.63 155.3 353.5 160.44 349.39 163.75C345.28 167.06 325.81 174.66 325.81 174.66C325.81 174.66 322.81 184.88 326.55 185.23C330.29 185.58 369.02 172.38 377.88 167.75C377.88 167.75 383.65 133.75 383.61 125.1" fill="white"/>
<path d="M366.43 125.22C364.17 127.44 366.63 155.3 366.63 155.3C366.63 155.3 353.5 160.44 349.39 163.75C345.28 167.06 325.81 174.66 325.81 174.66C325.81 174.66 322.81 184.88 326.55 185.23C330.29 185.58 369.02 172.38 377.88 167.75C377.88 167.75 383.65 133.75 383.61 125.1" stroke="#263238" stroke-linecap="round" stroke-linejoin="round"/>
<path d="M327.35 174.05C325.55 173.71 322.35 172.53 320.67 172.92C318.99 173.31 315.92 175.16 312.76 175.92C309.6 176.68 310.91 177.92 312.76 178.29C314.114 178.515 315.496 178.515 316.85 178.29L314.28 180.8C312.808 181.596 311.289 182.301 309.73 182.91C308.8 182.91 305.51 183.8 305.73 185.2C305.95 186.6 307.84 186.44 309.95 186.52C309.95 186.52 306.59 187.19 306.95 189.1C307.17 190.41 310.95 189.23 312.88 189.23C312.88 189.23 311.3 190.95 312.48 191.48C313.66 192.01 316.28 190.69 316.28 190.69C316.28 190.69 316.18 192.11 317.36 192.25C318.54 192.39 321.51 191.25 323.53 190.03C325.519 188.748 327.423 187.338 329.23 185.81C329.995 185.111 330.87 184.543 331.82 184.13" fill="white"/>
<path d="M327.35 174.05C325.55 173.71 322.35 172.53 320.67 172.92C318.99 173.31 315.92 175.16 312.76 175.92C309.6 176.68 310.91 177.92 312.76 178.29C314.114 178.515 315.496 178.515 316.85 178.29L314.28 180.8C312.808 181.596 311.289 182.301 309.73 182.91C308.8 182.91 305.51 183.8 305.73 185.2C305.95 186.6 307.84 186.44 309.95 186.52C309.95 186.52 306.59 187.19 306.95 189.1C307.17 190.41 310.95 189.23 312.88 189.23C312.88 189.23 311.3 190.95 312.48 191.48C313.66 192.01 316.28 190.69 316.28 190.69C316.28 190.69 316.18 192.11 317.36 192.25C318.54 192.39 321.51 191.25 323.53 190.03C325.519 188.748 327.423 187.338 329.23 185.81C329.995 185.111 330.87 184.543 331.82 184.13" stroke="#263238" stroke-linecap="round" stroke-linejoin="round"/>
<path d="M310 186.56C310.929 186.51 311.854 186.403 312.77 186.24C313.56 186.04 314.35 185.78 314.35 185.78" stroke="#263238" stroke-linecap="round" stroke-linejoin="round"/>
<path d="M312.89 189.27C314.099 189.1 315.263 188.699 316.32 188.09" stroke="#263238" stroke-linecap="round" stroke-linejoin="round"/>
<path d="M316.29 190.73C317.184 190.617 318.04 190.299 318.79 189.8" stroke="#263238" stroke-linecap="round" stroke-linejoin="round"/>
<path d="M314.6 181.56C314.6 181.56 313.88 183.21 314.6 184.13C315.32 185.05 316.19 185.13 316.32 186.13C316.45 187.13 318.17 187.13 318.79 187.78C319.41 188.43 319.88 189.68 321.86 189.78" stroke="#263238" stroke-linecap="round" stroke-linejoin="round"/>
<path d="M365.59 96.33C358.78 111.74 365.59 133.12 365.59 133.12C365.59 133.12 382.07 138.72 383.59 136.31C385.11 133.9 387.89 122.08 388.36 116.62" fill="#999999"/>
<path d="M365.59 96.33C358.78 111.74 365.59 133.12 365.59 133.12C365.59 133.12 382.07 138.72 383.59 136.31C385.11 133.9 387.89 122.08 388.36 116.62" stroke="#263238" stroke-linecap="round" stroke-linejoin="round"/>
<path d="M383.61 118.33C383.61 118.33 376.61 127.96 371.04 128.09" stroke="#263238" stroke-linecap="round" stroke-linejoin="round"/>
<path d="M133.41 360.43C133.41 360.43 131.7 353.9 133.7 351.48C137.28 347.14 133.26 343.48 136.86 341.99L138.37 343.74C138.66 341.97 137.82 336.56 144.5 335.86C152.58 335.01 152.73 340.86 153.17 342.86L153.03 340.15C156.48 340.15 154.69 343.59 159.91 349.21C161.279 350.727 162.32 352.51 162.971 354.447C163.621 356.384 163.866 358.434 163.69 360.47L133.41 360.43Z" fill="#263238"/>
<path d="M195 360.43C191.75 358.98 194.73 346.72 194.73 346.72C194.73 346.72 190.36 343.79 194.73 340.72C196.42 342.152 198.469 343.095 200.657 343.448C202.844 343.8 205.086 343.549 207.14 342.72C207.14 342.72 207.99 334.52 213.14 335.57C213.14 335.57 214.46 340.77 217.47 343.74C225.62 351.74 236.15 352.74 237.91 356.58C238.44 357.74 237.8 360.39 237.8 360.39L195 360.43Z" fill="#263238"/>
<path d="M181.11 164.91L185.11 173.39C185.11 173.39 201.65 207.57 211.78 246.71C212.02 247.64 217.26 266.18 213.06 312.35L215.46 320.45L212.84 333.83C212.84 333.83 216.78 339.52 216.64 341.38C216.64 341.38 206.92 343.19 203.64 344.93C201.12 346.29 193.55 353.76 193.55 353.76C191.4 353.32 191.21 344.64 191.21 344.64C191.21 344.64 186.72 267.57 185.43 264.25C184.14 260.93 176.26 246.61 163.96 213.84C163.96 213.84 163.68 259.61 160.4 271.19C157.47 281.49 160.94 310.32 160.94 310.32L158.94 342.41C158.94 342.41 165.86 349.6 160.25 351.53C160.25 351.53 156.5 344.32 145.82 342.68C140.39 341.84 133.63 351.48 133.63 351.48C131.25 350.72 134.63 338.61 134.63 338.61C127.06 281.49 132.63 291.83 131.13 263.91C130.13 245.99 125.08 169.33 131.04 163.1L181.11 164.91Z" fill="#BFBFBF"/>
<path opacity="0.2" d="M128.26 191.31C155 193.41 178.15 184.66 188.2 180.09C186.29 175.81 185.12 173.39 185.12 173.39L181.12 164.92L131.12 163.1C129 165.35 128.25 176.78 128.26 191.31Z" fill="black"/>
<path opacity="0.2" d="M164.23 214.43C176.4 246.78 184.23 260.94 185.49 264.24C186.22 266.16 188.01 292.33 189.41 314.29C191.01 294.29 192.66 273.22 192.8 269.09C193.1 260.85 187.15 249.56 186.26 246.64C185.37 243.72 187.38 240.56 187.38 240.56L176.68 227.06C177.04 222.48 171.37 202.49 171.37 202.49C168 205.68 165 212.47 164.23 214.43Z" fill="black"/>
<path d="M181.11 164.91L185.11 173.39C185.11 173.39 201.65 207.57 211.78 246.71C212.02 247.64 217.26 266.18 213.06 312.35L215.46 320.45L212.84 333.83C212.84 333.83 216.78 339.52 216.64 341.38C216.64 341.38 206.92 343.19 203.64 344.93C201.12 346.29 193.55 353.76 193.55 353.76C191.4 353.32 191.21 344.64 191.21 344.64C191.21 344.64 186.72 267.57 185.43 264.25C184.14 260.93 176.26 246.61 163.96 213.84C163.96 213.84 163.68 259.61 160.4 271.19C157.47 281.49 160.94 310.32 160.94 310.32L158.94 342.41C158.94 342.41 165.86 349.6 160.25 351.53C160.25 351.53 156.5 344.32 145.82 342.68C140.39 341.84 133.63 351.48 133.63 351.48C131.25 350.72 134.63 338.61 134.63 338.61C127.06 281.49 132.63 291.83 131.13 263.91C130.13 245.99 125.08 169.33 131.04 163.1L181.11 164.91Z" stroke="#263238" stroke-linecap="round" stroke-linejoin="round"/>
<path d="M164 213.84C164 213.84 170.11 202.05 175.32 198.76" stroke="#263238" stroke-linecap="round" stroke-linejoin="round"/>
<path d="M177.62 194.94C177.62 194.94 159.06 200.59 152.62 201.68" stroke="#263238" stroke-linecap="round" stroke-linejoin="round"/>
<path d="M168.12 176C168.92 191.45 174.37 194.08 169.12 197.45C169.12 197.45 169.27 204.68 166.65 209.26" stroke="#263238" stroke-linecap="round" stroke-linejoin="round"/>
<path d="M135.6 170.09C135.6 170.09 137.79 193.84 130.48 198.31" stroke="#263238" stroke-linecap="round" stroke-linejoin="round"/>
<path d="M130.48 177.75C130.48 177.75 129.93 193.56 130.48 206.3C130.48 206.3 132.31 260.15 134.14 266.91C135.97 273.67 131.32 283.91 131.72 313.13" stroke="#263238" stroke-linecap="round" stroke-linejoin="round"/>
<path d="M148 336C146.269 335.624 144.462 335.864 142.89 336.68" stroke="#263238" stroke-linecap="round" stroke-linejoin="round"/>
<path d="M159 342.41C156.707 340.178 154.048 338.355 151.14 337.02" stroke="#263238" stroke-linecap="round" stroke-linejoin="round"/>
<path d="M156 217.57C151.9 222.17 145.4 230.84 138.74 231.57" stroke="#263238" stroke-linecap="round" stroke-linejoin="round"/>
<path d="M162.27 210.09C161.01 211.68 159.71 213.24 158.39 214.79" stroke="#263238" stroke-linecap="round" stroke-linejoin="round"/>
<path d="M156.43 263.91C156.43 263.91 147.11 276.6 142 277.33" stroke="#263238" stroke-linecap="round" stroke-linejoin="round"/>
<path d="M167.39 211.55C167.39 211.55 183.99 257.78 189.76 262.34C189.76 262.34 190.41 296.34 190.6 308.21C190.79 320.08 193.52 335.86 193.52 335.86" stroke="#263238" stroke-linecap="round" stroke-linejoin="round"/>
<path d="M211.24 335.52C211.24 335.52 204.85 337.73 201.74 339.14C199.83 340.072 198.334 341.679 197.54 343.65" stroke="#263238" stroke-linecap="round" stroke-linejoin="round"/>
<path d="M195.07 245.67C186.16 240.08 174.41 233.09 169.67 223.24" stroke="#263238" stroke-linecap="round" stroke-linejoin="round"/>
<path d="M202.84 250.28C201.15 249.35 199.49 248.38 197.84 247.38" stroke="#263238" stroke-linecap="round" stroke-linejoin="round"/>
<path d="M174.76 182.25C169.97 182.18 164.76 181.55 160.63 178.84" stroke="#263238" stroke-linecap="round" stroke-linejoin="round"/>
<path d="M182.37 181.8C181 181.99 179.62 182.11 178.24 182.18" stroke="#263238" stroke-linecap="round" stroke-linejoin="round"/>
<path d="M191.26 75.6401C187.6 70.1001 168.95 68.6901 156.98 68.6901C145.01 68.6901 130.48 66.6901 123.92 80.1901C118.92 90.5001 130.44 145.02 130.44 145.02L127.62 168.56C149.3 175.36 186.44 173.86 186.44 173.86L181.44 152.58C181.44 152.58 194.92 81.1701 191.26 75.6401Z" fill="#263238"/>
<path d="M149.87 55C149.87 55 151.48 67.83 146.6 70.6C146.6 70.6 149.04 80.01 157.6 80.6C166.16 81.19 169.94 72 169.94 72L149.87 55Z" fill="white" stroke="#263238" stroke-linecap="round" stroke-linejoin="round"/>
<path d="M195.234 22.0579L217.141 20.0372C217.637 19.9914 218.132 20.1448 218.515 20.4635C218.899 20.7821 219.14 21.2401 219.186 21.7366L220.628 37.3703L195.016 39.7326L193.574 24.099C193.529 23.6093 193.677 23.1214 193.988 22.7399C194.298 22.3583 194.745 22.1135 195.234 22.0579V22.0579Z" fill="#4941C0"/>
<path opacity="0.3" d="M195.234 22.0579L217.141 20.0372C217.637 19.9914 218.132 20.1448 218.515 20.4635C218.899 20.7821 219.14 21.2401 219.186 21.7366L220.628 37.3703L195.016 39.7326L193.574 24.099C193.529 23.6093 193.677 23.1214 193.988 22.7399C194.298 22.3583 194.745 22.1135 195.234 22.0579V22.0579Z" fill="black" fill-opacity="0.7"/>
<path opacity="0.3" d="M217.779 21.6187L211.476 22.2001L212.639 34.8066L218.942 34.2251L217.779 21.6187Z" fill="white" fill-opacity="0.7"/>
<path d="M195.234 22.0579L217.141 20.0372C217.637 19.9914 218.132 20.1448 218.515 20.4635C218.899 20.7821 219.14 21.2401 219.186 21.7366L220.628 37.3703L195.016 39.7326L193.574 24.099C193.529 23.6093 193.677 23.1214 193.988 22.7399C194.298 22.3583 194.745 22.1135 195.234 22.0579V22.0579Z" stroke="#263238" stroke-linecap="round" stroke-linejoin="round"/>
<path d="M233.111 18.5435L255.018 16.5228C255.515 16.477 256.009 16.6303 256.393 16.949C256.776 17.2677 257.017 17.7257 257.063 18.2222L258.505 33.8558L232.854 36.2219L231.412 20.5882C231.366 20.0917 231.519 19.5974 231.838 19.2139C232.157 18.8305 232.615 18.5893 233.111 18.5435V18.5435Z" fill="#4941C0"/>
<path opacity="0.3" d="M233.111 18.5436L255.018 16.5229C255.515 16.4772 256.009 16.6305 256.393 16.9492C256.776 17.2679 257.017 17.7258 257.063 18.2223L258.505 33.856L232.854 36.222L231.412 20.5884C231.366 20.0919 231.519 19.5975 231.838 19.214C232.157 18.8306 232.615 18.5894 233.111 18.5436V18.5436Z" fill="black" fill-opacity="0.7"/>
<path opacity="0.3" d="M255.204 18.1767L251.4 18.5276L252.563 31.1341L256.367 30.7832L255.204 18.1767Z" fill="white" fill-opacity="0.7"/>
<path d="M233.111 18.5435L255.018 16.5228C255.515 16.477 256.009 16.6303 256.393 16.949C256.776 17.2677 257.017 17.7257 257.063 18.2222L258.505 33.8558L232.854 36.2219L231.412 20.5882C231.366 20.0917 231.519 19.5974 231.838 19.2139C232.157 18.8305 232.615 18.5893 233.111 18.5435V18.5435Z" stroke="#263238" stroke-linecap="round" stroke-linejoin="round"/>
<path d="M225.152 19.2716L247.059 17.2509C247.555 17.2051 248.05 17.3584 248.433 17.6771C248.817 17.9958 249.058 18.4538 249.104 18.9503L250.546 34.5839L224.855 36.9536L223.413 21.32C223.39 21.0708 223.417 20.8194 223.492 20.5808C223.567 20.3421 223.69 20.1209 223.852 19.9301C224.014 19.7393 224.212 19.5828 224.435 19.4697C224.659 19.3566 224.902 19.2893 225.152 19.2716V19.2716Z" fill="#4941C0" stroke="#263238" stroke-linecap="round" stroke-linejoin="round"/>
<path d="M262.991 15.7808L284.898 13.7601C285.395 13.7143 285.889 13.8676 286.273 14.1863C286.656 14.505 286.897 14.963 286.943 15.4595L288.385 31.0931L262.734 33.4592L261.292 17.8255C261.246 17.329 261.4 16.8347 261.718 16.4512C262.037 16.0678 262.495 15.8266 262.991 15.7808V15.7808Z" fill="#4941C0" stroke="#263238" stroke-linecap="round" stroke-linejoin="round"/>
<path opacity="0.3" d="M247.66 18.8659L241.357 19.4473L242.52 32.0537L248.823 31.4723L247.66 18.8659Z" fill="white" fill-opacity="0.7"/>
<path opacity="0.3" d="M285.084 15.4035L278.781 15.9849L279.944 28.5913L286.247 28.0099L285.084 15.4035Z" fill="white" fill-opacity="0.7"/>
<path d="M299.21 26.42L305.85 98.3L190 109L183.4 37.1C183.289 35.8986 183.659 34.7022 184.43 33.774C185.201 32.8457 186.309 32.2616 187.51 32.15L294.27 22.3C294.865 22.245 295.465 22.3081 296.036 22.4855C296.607 22.663 297.137 22.9514 297.596 23.3342C298.055 23.717 298.433 24.1866 298.71 24.7161C298.987 25.2457 299.157 25.8247 299.21 26.42V26.42Z" fill="#4941C0"/>
<path opacity="0.3" d="M299.21 26.42L305.85 98.3L190 109L183.4 37.1C183.289 35.8986 183.659 34.7022 184.43 33.774C185.201 32.8457 186.309 32.2616 187.51 32.15L294.27 22.3C294.865 22.245 295.465 22.3081 296.036 22.4855C296.607 22.663 297.137 22.9514 297.596 23.3342C298.055 23.717 298.433 24.1866 298.71 24.7161C298.987 25.2457 299.157 25.8247 299.21 26.42V26.42Z" fill="black" fill-opacity="0.7"/>
<path d="M299.21 26.42L305.85 98.3L190 109L183.4 37.1C183.289 35.8986 183.659 34.7022 184.43 33.774C185.201 32.8457 186.309 32.2616 187.51 32.15L294.27 22.3C294.865 22.245 295.465 22.3081 296.036 22.4855C296.607 22.663 297.137 22.9514 297.596 23.3342C298.055 23.717 298.433 24.1866 298.71 24.7161C298.987 25.2457 299.157 25.8247 299.21 26.42V26.42Z" stroke="#263238" stroke-linecap="round" stroke-linejoin="round"/>
<path d="M299.21 26.42L305.85 98.3L219.85 106.23L213.22 34.35C213.109 33.1486 213.479 31.9522 214.25 31.0239C215.021 30.0957 216.129 29.5115 217.33 29.4L294.22 22.3C294.819 22.238 295.425 22.2958 296.001 22.4701C296.577 22.6443 297.113 22.9315 297.578 23.315C298.042 23.6984 298.426 24.1704 298.706 24.7035C298.986 25.2365 299.158 25.82 299.21 26.42Z" fill="#4941C0" stroke="#263238" stroke-linecap="round" stroke-linejoin="round"/>
<path opacity="0.3" d="M293.64 29.51L220.17 36.29C219.681 36.3235 219.198 36.1645 218.824 35.8469C218.45 35.5293 218.216 35.0783 218.17 34.59V34.59C218.134 34.1018 218.29 33.6188 218.606 33.2449C218.922 32.8709 219.372 32.6358 219.86 32.59L293.33 25.81C293.819 25.7766 294.302 25.9356 294.676 26.2532C295.049 26.5708 295.284 27.0218 295.33 27.51V27.51C295.361 27.9971 295.202 28.4773 294.887 28.8501C294.572 29.2229 294.125 29.4594 293.64 29.51V29.51Z" fill="white" fill-opacity="0.7"/>
<path d="M164.54 29.56C164.54 29.56 147.59 26.16 145.69 37.07C143.79 47.98 150 52.62 150 52.62L164.54 29.56Z" fill="#263238"/>
<path d="M150 58.61C148.063 53.1865 147.761 47.3138 149.13 41.72C150.79 34.72 159.13 25.09 171.78 33.84C178.29 38.35 178.69 48.14 176.66 57.1C176.18 59.24 176.54 61.33 175.83 63.3C173.33 70.2 168.76 75.51 166.26 75.63C162.09 75.84 153.75 70.79 154.09 66.39" fill="white"/>
<path d="M150 58.61C148.063 53.1865 147.761 47.3138 149.13 41.72C150.79 34.72 159.13 25.09 171.78 33.84C178.29 38.35 178.69 48.14 176.66 57.1C176.18 59.24 176.54 61.33 175.83 63.3C173.33 70.2 168.76 75.51 166.26 75.63C162.09 75.84 153.75 70.79 154.09 66.39" stroke="#263238" stroke-linecap="round" stroke-linejoin="round"/>
<path d="M166.89 55.44C166.89 55.44 163.52 53 160.28 55" stroke="#263238" stroke-linecap="round" stroke-linejoin="round"/>
<path d="M173.25 55.0001C173.25 55.0001 175.8 52.6601 177.46 53.0001" stroke="#263238" stroke-linecap="round" stroke-linejoin="round"/>
<path d="M162.13 59.1801C162.13 59.8001 162.44 60.3101 162.83 60.3101C163.22 60.3101 163.54 59.8001 163.54 59.1801C163.54 58.5601 163.22 58.0601 162.83 58.0601C162.44 58.0601 162.13 58.5601 162.13 59.1801Z" fill="#263238"/>
<path d="M173.25 59.6801C173.642 59.6801 173.96 59.1786 173.96 58.5601C173.96 57.9415 173.642 57.4401 173.25 57.4401C172.858 57.4401 172.54 57.9415 172.54 58.5601C172.54 59.1786 172.858 59.6801 173.25 59.6801Z" fill="#263238"/>
<path d="M171.82 57.36C170.58 58.98 172.32 65.15 171.82 65.59C171.32 66.03 168.14 64.78 168.14 64.78C168.14 64.78 167.4 63.84 168.95 63.34" stroke="#263238" stroke-linecap="round" stroke-linejoin="round"/>
<path d="M169 68.69C169 68.69 164.73 68.69 163.59 67.13" stroke="#263238" stroke-linecap="round" stroke-linejoin="round"/>
<path d="M158.78 45.58L158.45 50.74C158.45 50.74 154.79 52.63 153.87 54.55C153.322 55.8075 153.122 57.1888 153.29 58.55C153.29 58.55 151.07 54.67 149.87 54.99C149.44 55.1 149.44 56.73 149.44 56.73C149.44 56.73 144.44 45.57 148.96 39.67C153.48 33.77 158.78 45.58 158.78 45.58Z" fill="#757575" stroke="#263238" stroke-linecap="round" stroke-linejoin="round"/>
<path d="M151.73 57.44C151.73 57.44 150.73 53.69 147.36 52.7C143.99 51.71 146.3 60.7 149.17 61.87C152.04 63.04 152.76 63.87 152.93 62.8" fill="white"/>
<path d="M151.73 57.44C151.73 57.44 150.73 53.69 147.36 52.7C143.99 51.71 146.3 60.7 149.17 61.87C152.04 63.04 152.76 63.87 152.93 62.8" stroke="#263238" stroke-linecap="round" stroke-linejoin="round"/>
<path d="M147.14 44.93C146.86 44.55 145.62 34.93 151.97 30.61C158.32 26.29 169.05 26.75 175.88 32.73C182.71 38.71 180.77 49.08 175.88 52.62V48.29C175.88 48.29 173.63 52.63 166.88 52.99L168.94 49.81C168.94 49.81 165.62 51.81 159.77 51.64C159.77 51.64 162.52 49.45 162.12 47.5C162.13 47.5 152.84 52.73 147.14 44.93Z" fill="#263238"/>
<path d="M148.33 79.61C143.65 80.17 136.99 86.28 141.33 97.13C144.1 104.01 166.86 99.92 166.86 99.92C175.3 96.44 187.63 83.92 196.68 78.11C196.68 78.11 194.77 66.11 192.57 67.81C182.34 75.64 173.93 76.18 159.66 83.04C159.69 83 151.27 79.26 148.33 79.61Z" fill="white" stroke="#263238" stroke-linecap="round" stroke-linejoin="round"/>
<path d="M158.78 92.9301C158.64 97.4101 160.48 98.2001 163.58 99.2601Z" fill="white"/>
<path d="M158.78 92.9301C158.64 97.4101 160.48 98.2001 163.58 99.2601" stroke="#263238" stroke-linecap="round" stroke-linejoin="round"/>
<path d="M191.89 68.6901C192.1 68.0401 195.89 61.3801 196.96 59.6901C198.03 58.0001 202.81 56.4701 204.66 55.4501C206.51 54.4301 206.66 52.8801 207.66 53.9901C208.66 55.1001 207.66 57.6301 202.12 60.3201C204.088 60.4289 206.061 60.4289 208.03 60.3201C209.51 60.1001 210.83 58.7601 211.49 59.6901C212.15 60.6201 212.28 62.2901 208.98 63.3101C207.411 63.879 205.767 64.2159 204.1 64.3101C205.714 64.655 207.302 65.1162 208.85 65.6901C209.38 66.0801 210.17 66.9901 210.96 67.1301C211.75 67.2701 212.61 68.1301 211.16 69.1301C210.646 69.4143 210.07 69.5684 209.482 69.5788C208.895 69.5893 208.314 69.4558 207.79 69.1901C207.79 69.1901 211.62 71.0401 210.43 72.1901C209.24 73.3401 205.43 73.1101 205.43 73.1101C205.43 73.1101 199.78 80.0001 195 78.5601" fill="white"/>
<path d="M191.89 68.6901C192.1 68.0401 195.89 61.3801 196.96 59.6901C198.03 58.0001 202.81 56.4701 204.66 55.4501C206.51 54.4301 206.66 52.8801 207.66 53.9901C208.66 55.1001 207.66 57.6301 202.12 60.3201C204.088 60.4289 206.061 60.4289 208.03 60.3201C209.51 60.1001 210.83 58.7601 211.49 59.6901C212.15 60.6201 212.28 62.2901 208.98 63.3101C207.411 63.879 205.767 64.2159 204.1 64.3101C205.714 64.655 207.302 65.1162 208.85 65.6901C209.38 66.0801 210.17 66.9901 210.96 67.1301C211.75 67.2701 212.61 68.1301 211.16 69.1301C210.646 69.4143 210.07 69.5684 209.482 69.5788C208.895 69.5893 208.314 69.4558 207.79 69.1901C207.79 69.1901 211.62 71.0401 210.43 72.1901C209.24 73.3401 205.43 73.1101 205.43 73.1101C205.43 73.1101 199.78 80.0001 195 78.5601" stroke="#263238" stroke-linecap="round" stroke-linejoin="round"/>
<path d="M198.66 59.6801C198.983 59.7551 199.28 59.9182 199.516 60.1511C199.753 60.3841 199.92 60.6779 200 61.0001C200.33 62.1801 201.3 62.2501 201.89 63.5701C202.48 64.8901 202.31 66.9301 202.89 67.6301C203.47 68.3301 202.89 71.2801 202.89 71.2801" stroke="#263238" stroke-linecap="round" stroke-linejoin="round"/>
<path d="M149.31 78.76C146.86 75.64 141.36 77.05 141.36 77.05" stroke="white" stroke-linecap="round" stroke-linejoin="round"/>
<path d="M138.36 71.3C138.36 71.3 144.02 72.13 145.69 76.84" stroke="white" stroke-linecap="round" stroke-linejoin="round"/>
<path d="M148.33 101.12C148.33 101.12 142.81 105.39 134.41 99.26" stroke="white" stroke-linecap="round" stroke-linejoin="round"/>
<path d="M141.36 102.41C141.36 102.41 138.56 106.28 131.74 106.23" stroke="white" stroke-linecap="round" stroke-linejoin="round"/>
<path d="M176.44 151.1C176.44 151.1 162 162.61 147.33 161.1" stroke="white" stroke-linecap="round" stroke-linejoin="round"/>
<path d="M137.41 125.81C137.41 125.81 159.82 142.25 176.41 143.3" stroke="white" stroke-linecap="round" stroke-linejoin="round"/>
<path d="M138 247.51C141.855 245.371 146.387 244.805 150.65 245.93C157.96 247.77 176.95 274.93 179.59 277.58C182.23 280.23 187.17 281.58 191.72 286.37C198.92 293.88 209.39 300.52 210.45 300.52C211.51 300.52 212.36 299.86 213.68 299.6C215 299.34 225.22 298.41 225.22 298.41C225.22 298.41 228.65 299.17 225.22 300.64C221.79 302.11 222.05 303.42 222.05 303.42C222.05 303.42 221.36 304.53 222.74 305.59C224.12 306.65 224.93 306.07 226.9 308.86C228.87 311.65 224.12 310.07 224.12 310.07C224.12 310.07 225.17 313.07 223.06 312.77C220.95 312.47 222.8 315.7 219.37 315.26C215.94 314.82 208.6 310.19 206.76 305.34C206.76 305.34 176.82 291.03 172.34 287.34C167.86 283.65 149 263.86 147.71 263.6" fill="#263238"/>
<path d="M216.33 274.31H238.33C238.829 274.31 239.307 274.508 239.659 274.861C240.012 275.213 240.21 275.691 240.21 276.19V291.89H214.45V276.19C214.45 275.691 214.648 275.213 215.001 274.861C215.353 274.508 215.831 274.31 216.33 274.31V274.31Z" fill="#4941C0"/>
<path opacity="0.3" d="M216.33 274.31H238.33C238.829 274.31 239.307 274.508 239.659 274.861C240.012 275.213 240.21 275.691 240.21 276.19V291.89H214.45V276.19C214.45 275.691 214.648 275.213 215.001 274.861C215.353 274.508 215.831 274.31 216.33 274.31V274.31Z" fill="black" fill-opacity="0.7"/>
<path opacity="0.3" d="M238.78 275.97H232.45V288.63H238.78V275.97Z" fill="white" fill-opacity="0.7"/>
<path d="M216.33 274.31H238.33C238.829 274.31 239.307 274.508 239.659 274.861C240.012 275.213 240.21 275.691 240.21 276.19V291.89H214.45V276.19C214.45 275.691 214.648 275.213 215.001 274.861C215.353 274.508 215.831 274.31 216.33 274.31V274.31Z" stroke="#263238" stroke-linecap="round" stroke-linejoin="round"/>
<path d="M254.33 274.31H276.33C276.829 274.31 277.307 274.508 277.659 274.861C278.012 275.213 278.21 275.691 278.21 276.19V291.89H252.45V276.19C252.45 275.943 252.499 275.699 252.593 275.471C252.688 275.243 252.826 275.035 253.001 274.861C253.175 274.686 253.382 274.548 253.611 274.453C253.839 274.359 254.083 274.31 254.33 274.31V274.31Z" fill="#4941C0"/>
<path opacity="0.3" d="M254.33 274.31H276.33C276.829 274.31 277.307 274.508 277.659 274.861C278.012 275.213 278.21 275.691 278.21 276.19V291.89H252.45V276.19C252.45 275.943 252.499 275.699 252.593 275.471C252.688 275.243 252.826 275.035 253.001 274.861C253.175 274.686 253.382 274.548 253.611 274.453C253.839 274.359 254.083 274.31 254.33 274.31V274.31Z" fill="black" fill-opacity="0.7"/>
<path opacity="0.3" d="M276.36 275.97H272.54V288.63H276.36V275.97Z" fill="white" fill-opacity="0.7"/>
<path d="M254.33 274.31H276.33C276.829 274.31 277.307 274.508 277.659 274.861C278.012 275.213 278.21 275.691 278.21 276.19V291.89H252.45V276.19C252.45 275.943 252.499 275.699 252.593 275.471C252.688 275.243 252.826 275.035 253.001 274.861C253.175 274.686 253.382 274.548 253.611 274.453C253.839 274.359 254.083 274.31 254.33 274.31V274.31Z" stroke="#263238" stroke-linecap="round" stroke-linejoin="round"/>
<path d="M246.33 274.31H268.33C268.829 274.31 269.307 274.508 269.659 274.861C270.012 275.213 270.21 275.691 270.21 276.19V291.89H244.45V276.19C244.45 275.943 244.499 275.699 244.593 275.471C244.688 275.243 244.826 275.035 245.001 274.861C245.175 274.686 245.382 274.548 245.611 274.453C245.839 274.359 246.083 274.31 246.33 274.31V274.31Z" fill="#4941C0" stroke="#263238" stroke-linecap="round" stroke-linejoin="round"/>
<path d="M284.33 274.31H306.33C306.829 274.31 307.307 274.508 307.659 274.861C308.012 275.213 308.21 275.691 308.21 276.19V291.89H282.45V276.19C282.45 275.691 282.648 275.213 283.001 274.861C283.353 274.508 283.831 274.31 284.33 274.31V274.31Z" fill="#4941C0" stroke="#263238" stroke-linecap="round" stroke-linejoin="round"/>
<path opacity="0.3" d="M268.78 275.97H262.45V288.63H268.78V275.97Z" fill="white" fill-opacity="0.7"/>
<path opacity="0.3" d="M306.36 275.97H300.03V288.63H306.36V275.97Z" fill="white" fill-opacity="0.7"/>
<path d="M319.42 288.23V360.42H203.11V288.23C203.11 287.023 203.589 285.866 204.443 285.013C205.296 284.159 206.453 283.68 207.66 283.68H314.87C316.077 283.68 317.234 284.159 318.087 285.013C318.941 285.866 319.42 287.023 319.42 288.23V288.23Z" fill="#4941C0"/>
<path opacity="0.3" d="M319.42 288.23V360.42H203.11V288.23C203.11 287.023 203.589 285.866 204.443 285.013C205.296 284.159 206.453 283.68 207.66 283.68H314.87C316.077 283.68 317.234 284.159 318.087 285.013C318.941 285.866 319.42 287.023 319.42 288.23V288.23Z" fill="black" fill-opacity="0.7"/>
<path d="M319.42 288.23V360.42H203.11V288.23C203.11 287.023 203.589 285.866 204.443 285.013C205.296 284.159 206.453 283.68 207.66 283.68H314.87C316.077 283.68 317.234 284.159 318.087 285.013C318.941 285.866 319.42 287.023 319.42 288.23V288.23Z" stroke="#263238" stroke-linecap="round" stroke-linejoin="round"/>
<path d="M319.42 288.23V360.42H233.11V288.23C233.11 287.023 233.589 285.866 234.443 285.013C235.296 284.159 236.453 283.68 237.66 283.68H314.87C316.077 283.68 317.234 284.159 318.087 285.013C318.941 285.866 319.42 287.023 319.42 288.23V288.23Z" fill="#4941C0" stroke="#263238" stroke-linecap="round" stroke-linejoin="round"/>
<path opacity="0.3" d="M313.58 290.8H239.8C239.302 290.8 238.823 290.602 238.471 290.249C238.118 289.897 237.92 289.419 237.92 288.92V288.92C237.915 288.67 237.959 288.421 238.052 288.188C238.144 287.956 238.281 287.744 238.456 287.565C238.632 287.386 238.841 287.244 239.071 287.147C239.302 287.05 239.55 287 239.8 287H313.58C314.079 287 314.557 287.198 314.909 287.551C315.262 287.903 315.46 288.381 315.46 288.88V288.88C315.465 289.13 315.421 289.379 315.329 289.612C315.237 289.844 315.099 290.056 314.924 290.235C314.749 290.414 314.54 290.556 314.309 290.653C314.078 290.75 313.83 290.8 313.58 290.8V290.8Z" fill="white" fill-opacity="0.7"/>
<path d="M177 360.42C171 360.42 162.57 356.56 152.86 352.48C142.79 348.24 131.32 343.76 119.68 343.09C115.34 342.84 117.97 360.42 117.97 360.42H108.47C108.47 360.42 99.09 347.9 98 336.69C98 336.69 105.66 331.96 107.5 331.69C108.134 331.624 108.772 331.594 109.41 331.6C111.47 331.6 114.22 331.69 114.22 331.69C113.78 331.43 106.77 327.21 102.9 322.92C99.71 319.38 98.25 313.79 98.14 310.45C98.2636 308.239 98.5073 306.035 98.87 303.85L148.79 304.68C148.79 304.68 149.33 305.06 150.29 305.77C156.08 309.99 177.24 325.71 187.82 337.56C191.24 341.39 193.55 344.81 193.89 347.31C195.48 358.84 186.05 360.42 177 360.42Z" fill="#757575" stroke="#263238" stroke-linecap="round" stroke-linejoin="round"/>
<path d="M187.83 337.54L163.55 343.09C159.387 345.471 155.745 348.664 152.84 352.48C142.77 348.24 131.3 343.76 119.66 343.09C115.32 342.84 117.95 360.42 117.95 360.42H108.45C108.45 360.42 99.09 347.9 98 336.69C98 336.69 106.84 349.29 109 355.69C109 355.69 112.43 343.85 118 339.1C115.484 336.267 112.626 333.757 109.49 331.63C111.55 331.63 114.3 331.72 114.3 331.72C113.86 331.46 106.85 327.24 102.98 322.95C99.79 319.41 98.5 313.81 98.22 310.48C98.08 308.84 98.28 303.88 98.28 303.88C98.28 303.88 135.51 309.19 150.37 305.8C156.09 310 177.25 325.69 187.83 337.54Z" fill="#263238"/>
<path d="M148.8 336.69C148.8 336.69 168.58 346.6 173.86 350.48C179.14 354.36 180.71 353.31 180.71 353.31" stroke="#263238" stroke-linecap="round" stroke-linejoin="round"/>
<path d="M102.91 335.64C102.91 335.64 107.66 342.89 107.91 345.06" stroke="#263238" stroke-linecap="round" stroke-linejoin="round"/>
<path d="M182.47 196.48C182.47 196.48 193 191.9 192 211.38C191 230.86 194.57 231.86 194.57 231.86C194.57 231.86 168.07 242.74 161.34 233.44C154.61 224.14 161 198.69 182.47 196.48Z" fill="#263238"/>
<path d="M181 231.86C181 231.86 170.1 237 169.11 241.75C168.12 246.5 154.47 239.35 154.47 239.35L164.36 225.13L181 231.86Z" fill="white" stroke="#263238" stroke-linecap="round" stroke-linejoin="round"/>
<path d="M109.53 284C84.53 315.84 104.82 331.2 133.16 328.66L127.48 337.66L141.74 340.13C141.74 340.13 152.67 332.99 167.57 325.36C192.93 312.36 203.18 313.14 200.57 300.13C197.96 287.12 166.88 278.68 135.72 292.39C135.69 292.38 118.77 272.28 109.53 284Z" fill="#757575" stroke="#263238" stroke-linecap="round" stroke-linejoin="round"/>
<path d="M118.25 353.31C118.25 353.31 124.76 335.31 127.48 334.31C130.2 333.31 140.48 337.21 141.74 340.11C141.74 340.11 145.21 334.79 146.63 337.05C148.05 339.31 146 343.05 146.63 345.91C147.26 348.77 154.29 352.77 157.1 353.3C159.91 353.83 161.51 355.41 161.51 356.99V360.42H118.25C117.77 359.296 117.522 358.087 117.522 356.865C117.522 355.643 117.77 354.434 118.25 353.31V353.31Z" fill="white" stroke="#263238" stroke-linecap="round" stroke-linejoin="round"/>
<path d="M146.63 343.09C146.63 343.09 140.9 345.92 138.81 345.09C136.72 344.26 139.88 349.84 140.67 350.37C141.46 350.9 146.67 348.52 146.67 348.52" stroke="#263238" stroke-linecap="round" stroke-linejoin="round"/>
<path d="M123.66 340.12C123.66 340.12 131.44 340.27 133.81 343.12" stroke="#263238" stroke-linecap="round" stroke-linejoin="round"/>
<path d="M118.25 353.31C118.25 353.31 130.65 356.21 131.7 356.21C133.405 355.872 135.078 355.387 136.7 354.76C136.7 354.76 140.1 356.47 142.36 357.53C144.62 358.59 159.36 357.53 159.36 357.53" stroke="#263238" stroke-linecap="round" stroke-linejoin="round"/>
<path d="M133.16 328.68C145 327.4 168 312.81 176 307.74C184 302.67 186 304 186 304" stroke="#263238" stroke-linecap="round" stroke-linejoin="round"/>
<path d="M98.21 303.83L100.1 289.48L104.66 286.04C112.05 268.11 145.53 234.62 154.66 234.73C168.37 234.89 170.79 249.28 172.48 265.03C174.17 280.78 152.81 278.41 152.81 278.41V282.36L140.66 288.65L148.02 288.42C148.02 288.42 126.85 309 98.21 303.83Z" fill="#4941C0" stroke="#263238" stroke-linecap="round" stroke-linejoin="round"/>
<path d="M157.55 207C160.42 198 173.55 195.6 178.27 197.07C182.144 198.583 185.319 201.48 187.18 205.2C188.38 207.79 185.87 212.37 187.66 215.04C190.22 218.87 190 226.95 189.08 232.04C188.58 234.74 177.35 236.34 168.17 230.04C158.31 223.22 154.77 215.66 157.55 207Z" fill="white" stroke="#263238" stroke-linecap="round" stroke-linejoin="round"/>
<path d="M170.82 194.38C170.82 194.38 182.38 192.5 182.46 195.47C182.97 215.2 171.14 219.34 171.14 219.34C171.14 219.34 166.31 215.49 165.23 218.13C164.15 220.77 166.93 228.07 170.35 228.22C169.562 229.444 169.131 230.864 169.106 232.32C169.082 233.776 169.464 235.21 170.21 236.46C170.21 236.46 150.63 239.73 149.01 230.66C149.767 227.507 150.308 224.306 150.63 221.08C151.9 208.37 148.93 199.82 170.82 194.38Z" fill="#263238"/>
<path d="M186.26 214.49C188.67 216.66 190.4 216.66 190.37 217.44C190.28 219.87 187.37 221.08 187.37 221.08" fill="white"/>
<path d="M186.26 214.49C188.67 216.66 190.4 216.66 190.37 217.44C190.28 219.87 187.37 221.08 187.37 221.08" stroke="#263238" stroke-linecap="round" stroke-linejoin="round"/>
<path d="M187.31 225.13C185.607 225.706 183.769 225.752 182.04 225.26" stroke="#263238" stroke-linecap="round" stroke-linejoin="round"/>
<path d="M180.9 202.38C180.9 202.38 188.59 200.15 187.18 212.63C187.18 212.63 190.38 208.28 190.37 203.39C190.37 194.92 179.04 196.62 179.04 196.62L180.52 202.62" fill="#263238"/>
<path d="M187.89 208.49C187.599 208.297 187.271 208.164 186.928 208.1C186.584 208.037 186.231 208.044 185.89 208.12" stroke="#263238" stroke-linecap="round" stroke-linejoin="round"/>
<path d="M182.71 208.35C182.71 208.35 178.58 208.59 176.79 211.35" stroke="#263238" stroke-linecap="round" stroke-linejoin="round"/>
<path d="M181.72 214.92C181.78 215.58 181.5 216.15 181.09 216.19C180.68 216.23 180.3 215.72 180.23 215.06C180.16 214.4 180.45 213.83 180.86 213.79C181.27 213.75 181.66 214.26 181.72 214.92Z" fill="#263238"/>
<path d="M133.81 331.68C133.81 331.68 143.01 332.68 145.01 336.68" stroke="#263238" stroke-linecap="round" stroke-linejoin="round"/>
<path d="M157.1 241.48C160.955 239.341 165.487 238.775 169.75 239.9C177.07 241.75 196.05 268.9 198.69 271.55C201.33 274.2 206.27 275.55 210.82 280.34C218.02 287.85 228.49 294.49 229.55 294.49C230.61 294.49 231.46 293.83 232.78 293.57C234.1 293.31 244.32 292.38 244.32 292.38C244.32 292.38 247.75 293.15 244.32 294.61C240.89 296.07 241.15 297.4 241.15 297.4C241.15 297.4 240.47 298.5 241.84 299.56C243.21 300.62 244.03 300.04 246 302.83C247.97 305.62 243.22 304.04 243.22 304.04C243.22 304.04 244.27 307.04 242.16 306.74C240.05 306.44 241.9 309.67 238.47 309.23C235.04 308.79 227.7 304.16 225.86 299.31C225.86 299.31 195.92 285 191.44 281.31C186.96 277.62 168.12 257.83 166.79 257.57" fill="white"/>
<path d="M157.1 241.48C160.955 239.341 165.487 238.775 169.75 239.9C177.07 241.75 196.05 268.9 198.69 271.55C201.33 274.2 206.27 275.55 210.82 280.34C218.02 287.85 228.49 294.49 229.55 294.49C230.61 294.49 231.46 293.83 232.78 293.57C234.1 293.31 244.32 292.38 244.32 292.38C244.32 292.38 247.75 293.15 244.32 294.61C240.89 296.07 241.15 297.4 241.15 297.4C241.15 297.4 240.47 298.5 241.84 299.56C243.21 300.62 244.03 300.04 246 302.83C247.97 305.62 243.22 304.04 243.22 304.04C243.22 304.04 244.27 307.04 242.16 306.74C240.05 306.44 241.9 309.67 238.47 309.23C235.04 308.79 227.7 304.16 225.86 299.31C225.86 299.31 195.92 285 191.44 281.31C186.96 277.62 168.12 257.83 166.79 257.57" stroke="#263238" stroke-linecap="round" stroke-linejoin="round"/>
<path d="M152.8 238.58C152.8 238.58 167.56 234.63 172.71 237.53C177.86 240.43 187.62 253.88 187.62 253.88C187.62 253.88 175.72 264.53 172.04 263.56C168.36 262.59 157.1 261 157.1 261" fill="#4941C0"/>
<path d="M152.8 238.58C152.8 238.58 167.56 234.63 172.71 237.53C177.86 240.43 187.62 253.88 187.62 253.88C187.62 253.88 175.72 264.53 172.04 263.56C168.36 262.59 157.1 261 157.1 261" stroke="#263238" stroke-linecap="round" stroke-linejoin="round"/>
<path d="M165.6 262.3C165.6 262.3 160.25 265.24 158.28 265.24" stroke="#263238" stroke-linecap="round" stroke-linejoin="round"/>
<path d="M157.1 247.55C157.55 248.34 157.4 256.99 166.79 259.68" stroke="#263238" stroke-linecap="round" stroke-linejoin="round"/>
<path d="M106.91 286.32C106.91 286.32 126.91 289.75 133.81 283.68" stroke="#263238" stroke-linecap="round" stroke-linejoin="round"/>
<path d="M140.65 288.65C140.65 288.65 135.65 287.77 133.81 290.34C131.97 292.91 121.95 295.34 121.95 295.34" stroke="#263238" stroke-linecap="round" stroke-linejoin="round"/>
<path d="M100.45 307.74C100.45 307.74 97.5599 320.2 109.89 325.74" stroke="#263238" stroke-linecap="round" stroke-linejoin="round"/>
<path d="M106.91 308.6C106.91 308.6 106.98 314.74 108.91 318.1L115.04 320.1L121.9 316.28C121.9 316.28 120.44 308.43 120.31 306.84" stroke="#263238" stroke-linecap="round" stroke-linejoin="round"/>
</g>
<defs>
<clipPath id="clip0_12_22">
<rect width="500" height="363" fill="white"/>
</clipPath>
</defs>
</svg>
