<svg width="500" height="403" viewBox="0 0 500 403" fill="none" xmlns="http://www.w3.org/2000/svg">
<g clip-path="url(#clip0_15_2590)">
<rect width="500" height="403" fill="white"/>
<path d="M393.601 116.242C393.601 116.242 352.331 61.8922 272.831 54.6922C193.331 47.4922 171.431 99.8722 143.891 126.692C116.351 153.512 58.7608 173.202 54.3708 238.032C49.9808 302.862 85.0508 335.592 133.871 334.282C182.691 332.972 197.721 344.112 239.031 366.372C280.341 388.632 349.201 379.462 381.751 346.072C414.301 312.682 438.751 296.312 445.601 234.072C452.451 171.832 393.601 116.242 393.601 116.242Z" fill="#4941C0"/>
<path opacity="0.7" d="M393.601 116.242C393.601 116.242 352.331 61.8922 272.831 54.6922C193.331 47.4922 171.431 99.8722 143.891 126.692C116.351 153.512 58.7608 173.202 54.3708 238.032C49.9808 302.862 85.0508 335.592 133.871 334.282C182.691 332.972 197.721 344.112 239.031 366.372C280.341 388.632 349.201 379.462 381.751 346.072C414.301 312.682 438.751 296.312 445.601 234.072C452.451 171.832 393.601 116.242 393.601 116.242Z" fill="white"/>
<path d="M30 394.214H483" stroke="#263238" stroke-linecap="round" stroke-linejoin="round"/>
<path d="M364.529 21.0706H167.902C162.671 21.0706 158.43 25.311 158.43 30.5419V289.168C158.43 294.399 162.671 298.64 167.902 298.64H364.529C369.76 298.64 374 294.399 374 289.168V30.5419C374 25.311 369.76 21.0706 364.529 21.0706Z" fill="#263238" stroke="#263238" stroke-linecap="round" stroke-linejoin="round"/>
<path d="M361.089 17H164.462C159.231 17 154.99 21.2405 154.99 26.4713V285.098C154.99 290.329 159.231 294.569 164.462 294.569H361.089C366.32 294.569 370.56 290.329 370.56 285.098V26.4713C370.56 21.2405 366.32 17 361.089 17Z" fill="#4941C0"/>
<path opacity="0.8" d="M361.089 17H164.462C159.231 17 154.99 21.2405 154.99 26.4713V285.098C154.99 290.329 159.231 294.569 164.462 294.569H361.089C366.32 294.569 370.56 290.329 370.56 285.098V26.4713C370.56 21.2405 366.32 17 361.089 17Z" fill="white"/>
<path d="M361.089 17H164.462C159.231 17 154.99 21.2405 154.99 26.4713V285.098C154.99 290.329 159.231 294.569 164.462 294.569H361.089C366.32 294.569 370.56 290.329 370.56 285.098V26.4713C370.56 21.2405 366.32 17 361.089 17Z" stroke="#263238" stroke-linecap="round" stroke-linejoin="round"/>
<path d="M361.387 56.6626H164.163V133.58H361.387V56.6626Z" fill="white" stroke="#263238" stroke-linecap="round" stroke-linejoin="round"/>
<path d="M361.387 133.58L164.163 56.6626" stroke="#263238" stroke-width="0.75" stroke-linecap="round" stroke-linejoin="round"/>
<path d="M164.163 133.58L361.387 56.6626" stroke="#263238" stroke-width="0.75" stroke-linecap="round" stroke-linejoin="round"/>
<path d="M262.775 149.163H164.163V226.08H262.775V149.163Z" fill="#4941C0"/>
<path opacity="0.5" d="M262.775 149.163H164.163V226.08H262.775V149.163Z" fill="white"/>
<path d="M262.775 149.163H164.163V226.08H262.775V149.163Z" stroke="#263238" stroke-linecap="round" stroke-linejoin="round"/>
<path d="M305.488 30.2668H220.063C219.113 30.2668 218.343 31.0369 218.343 31.9868C218.343 32.9367 219.113 33.7068 220.063 33.7068H305.488C306.438 33.7068 307.208 32.9367 307.208 31.9868C307.208 31.0369 306.438 30.2668 305.488 30.2668Z" fill="#263238" stroke="#263238" stroke-width="0.75" stroke-linecap="round" stroke-linejoin="round"/>
<path d="M359.667 152.603H274.242C273.786 152.603 273.348 152.421 273.026 152.099C272.703 151.776 272.522 151.339 272.522 150.883C272.522 150.426 272.703 149.989 273.026 149.666C273.348 149.344 273.786 149.163 274.242 149.163H359.667C360.123 149.163 360.561 149.344 360.883 149.666C361.206 149.989 361.387 150.426 361.387 150.883C361.387 151.339 361.206 151.776 360.883 152.099C360.561 152.421 360.123 152.603 359.667 152.603Z" fill="#263238" stroke="#263238" stroke-width="0.75" stroke-linecap="round" stroke-linejoin="round"/>
<path d="M341.321 171.614H274.242C273.786 171.614 273.348 171.433 273.026 171.11C272.703 170.788 272.522 170.35 272.522 169.894C272.522 169.438 272.703 169 273.026 168.678C273.348 168.355 273.786 168.174 274.242 168.174H341.321C341.777 168.174 342.214 168.355 342.537 168.678C342.859 169 343.041 169.438 343.041 169.894C343.041 170.35 342.859 170.788 342.537 171.11C342.214 171.433 341.777 171.614 341.321 171.614Z" fill="#263238" stroke="#263238" stroke-width="0.75" stroke-linecap="round" stroke-linejoin="round"/>
<path d="M332.434 181.624H274.242C273.292 181.624 272.522 182.394 272.522 183.344C272.522 184.294 273.292 185.064 274.242 185.064H332.434C333.384 185.064 334.154 184.294 334.154 183.344C334.154 182.394 333.384 181.624 332.434 181.624Z" fill="#263238" stroke="#263238" stroke-width="0.75" stroke-linecap="round" stroke-linejoin="round"/>
<path d="M349.347 198.503H274.242C273.786 198.503 273.348 198.322 273.026 197.999C272.703 197.677 272.522 197.239 272.522 196.783C272.522 196.327 272.703 195.889 273.026 195.567C273.348 195.244 273.786 195.063 274.242 195.063H349.347C349.803 195.063 350.241 195.244 350.563 195.567C350.886 195.889 351.067 196.327 351.067 196.783C351.067 197.239 350.886 197.677 350.563 197.999C350.241 198.322 349.803 198.503 349.347 198.503Z" fill="#263238" stroke="#263238" stroke-width="0.75" stroke-linecap="round" stroke-linejoin="round"/>
<path d="M342.181 211.942H274.242C273.786 211.942 273.348 211.76 273.026 211.438C272.703 211.115 272.522 210.678 272.522 210.222C272.522 209.766 272.703 209.328 273.026 209.005C273.348 208.683 273.786 208.502 274.242 208.502H342.181C342.637 208.502 343.074 208.683 343.397 209.005C343.719 209.328 343.901 209.766 343.901 210.222C343.901 210.678 343.719 211.115 343.397 211.438C343.074 211.76 342.637 211.942 342.181 211.942Z" fill="#263238" stroke="#263238" stroke-width="0.75" stroke-linecap="round" stroke-linejoin="round"/>
<path d="M332.434 225.392H274.242C273.786 225.392 273.348 225.211 273.026 224.888C272.703 224.566 272.522 224.128 272.522 223.672V223.672C272.522 223.216 272.703 222.778 273.026 222.456C273.348 222.133 273.786 221.952 274.242 221.952H332.434C332.89 221.952 333.328 222.133 333.65 222.456C333.973 222.778 334.154 223.216 334.154 223.672V223.672C334.154 224.128 333.973 224.566 333.65 224.888C333.328 225.211 332.89 225.392 332.434 225.392V225.392Z" fill="#263238" stroke="#263238" stroke-width="0.75" stroke-linecap="round" stroke-linejoin="round"/>
<path d="M318.388 45.3567H207.163C206.707 45.3567 206.269 45.1755 205.947 44.8529C205.624 44.5304 205.443 44.0929 205.443 43.6367C205.443 43.1806 205.624 42.7431 205.947 42.4205C206.269 42.098 206.707 41.9167 207.163 41.9167H318.388C318.844 41.9167 319.281 42.098 319.604 42.4205C319.926 42.7431 320.108 43.1806 320.108 43.6367C320.108 44.0929 319.926 44.5304 319.604 44.8529C319.281 45.1755 318.844 45.3567 318.388 45.3567Z" fill="#263238" stroke="#263238" stroke-width="0.75" stroke-linecap="round" stroke-linejoin="round"/>
<path d="M341.72 167.169L302.06 163.229L295.57 170.469C295.57 170.469 335.28 184.099 337.41 183.999C339.54 183.899 345.74 174.759 345.74 174.759L341.72 167.169Z" fill="white"/>
<path d="M345.72 367.33L347.08 384.51C347.08 384.51 330.14 391.29 330.08 394.51L363.41 393.45L362.41 366.59L345.72 367.33Z" fill="#4941C0"/>
<path d="M357.12 382.69C357.445 382.779 357.725 382.983 357.91 383.265C358.094 383.547 358.169 383.886 358.12 384.22C358.045 384.547 357.848 384.833 357.569 385.019C357.29 385.205 356.95 385.277 356.62 385.22C356.272 385.132 355.969 384.917 355.771 384.617C355.573 384.317 355.494 383.954 355.55 383.6C355.658 383.261 355.895 382.979 356.209 382.812C356.523 382.646 356.889 382.609 357.23 382.71" fill="#E0E0E0"/>
<path d="M363.41 393.43L363.33 391.29L331 393.02C330.712 393.215 330.468 393.468 330.282 393.762C330.096 394.056 329.973 394.386 329.92 394.73L363.41 393.43Z" fill="#263238"/>
<path d="M346.78 384.63C346.78 384.8 347.61 384.84 348.44 385.33C349.27 385.82 349.74 386.5 349.88 386.42C350.02 386.34 349.75 385.42 348.73 384.83C347.71 384.24 346.73 384.48 346.78 384.63Z" fill="#263238"/>
<path d="M343.31 386.24C343.31 386.4 344 386.65 344.59 387.32C345.18 387.99 345.37 388.72 345.53 388.71C345.69 388.7 345.76 387.76 345.02 386.94C344.28 386.12 343.31 386.09 343.31 386.24Z" fill="#263238"/>
<path d="M341.49 390.55C341.64 390.55 341.83 389.75 341.37 388.87C340.91 387.99 340.13 387.66 340.06 387.8C339.99 387.94 340.49 388.4 340.86 389.13C341.23 389.86 341.32 390.54 341.49 390.55Z" fill="#263238"/>
<path d="M346.9 380.65C346.98 380.8 347.72 380.54 348.65 380.57C349.58 380.6 350.32 380.85 350.4 380.71C350.48 380.57 349.76 380.01 348.66 379.99C347.56 379.97 346.82 380.53 346.9 380.65Z" fill="#263238"/>
<path d="M346.15 377.02C346.707 377.146 347.288 377.119 347.83 376.94C348.433 376.808 349.017 376.603 349.57 376.33C349.898 376.163 350.216 375.976 350.52 375.77C350.705 375.657 350.871 375.515 351.01 375.35C351.105 375.224 351.156 375.072 351.156 374.915C351.156 374.757 351.105 374.605 351.01 374.48C350.922 374.368 350.809 374.278 350.681 374.218C350.553 374.157 350.412 374.127 350.27 374.13C350.056 374.136 349.844 374.173 349.64 374.24C349.296 374.347 348.961 374.485 348.64 374.65C348.081 374.929 347.571 375.297 347.13 375.74C346.38 376.49 346.13 377.12 346.2 377.15C346.27 377.18 346.63 376.67 347.4 376.04C347.847 375.669 348.341 375.359 348.87 375.12C349.177 374.984 349.495 374.874 349.82 374.79C350.18 374.68 350.48 374.66 350.58 374.79C350.68 374.92 350.58 374.87 350.58 374.98C350.473 375.094 350.352 375.195 350.22 375.28C349.464 375.822 348.627 376.241 347.74 376.52C347.198 376.646 346.667 376.813 346.15 377.02V377.02Z" fill="#263238"/>
<path d="M387.81 367.33L389.16 384.51C389.16 384.51 372.22 391.29 372.16 394.51L405.5 393.45L404.5 366.59L387.81 367.33Z" fill="#4941C0"/>
<path d="M399.21 382.689C399.536 382.777 399.818 382.981 400.002 383.263C400.187 383.546 400.261 383.886 400.21 384.219C400.136 384.547 399.938 384.832 399.659 385.019C399.38 385.205 399.041 385.277 398.71 385.219C398.363 385.13 398.061 384.914 397.864 384.615C397.666 384.316 397.587 383.954 397.64 383.599C397.75 383.263 397.987 382.982 398.301 382.816C398.614 382.65 398.979 382.612 399.32 382.709" fill="#E0E0E0"/>
<path d="M405.5 393.43L405.42 391.29L373.08 393.02C372.794 393.217 372.55 393.47 372.365 393.764C372.179 394.058 372.055 394.386 372 394.73L405.5 393.43Z" fill="#263238"/>
<path d="M388.86 384.63C388.86 384.8 389.7 384.84 390.53 385.33C391.36 385.82 391.82 386.5 391.97 386.42C392.12 386.34 391.83 385.42 390.81 384.83C389.79 384.24 388.82 384.48 388.86 384.63Z" fill="#263238"/>
<path d="M385.39 386.24C385.39 386.4 386.08 386.65 386.67 387.32C387.26 387.99 387.45 388.72 387.62 388.71C387.79 388.7 387.84 387.76 387.1 386.94C386.36 386.12 385.39 386.09 385.39 386.24Z" fill="#263238"/>
<path d="M383.57 390.55C383.72 390.55 383.91 389.75 383.45 388.87C382.99 387.99 382.21 387.66 382.14 387.8C382.07 387.94 382.58 388.4 382.94 389.13C383.3 389.86 383.4 390.54 383.57 390.55Z" fill="#263238"/>
<path d="M389 380.65C389.07 380.8 389.81 380.54 390.75 380.57C391.69 380.6 392.41 380.85 392.49 380.71C392.57 380.57 391.85 380.01 390.75 379.99C389.65 379.97 388.9 380.53 389 380.65Z" fill="#263238"/>
<path d="M388.23 377.019C388.787 377.146 389.368 377.118 389.91 376.94C390.513 376.811 391.098 376.606 391.65 376.329C391.996 376.167 392.331 375.98 392.65 375.769C392.835 375.657 393 375.515 393.14 375.349C393.238 375.226 393.292 375.072 393.292 374.914C393.292 374.757 393.238 374.603 393.14 374.479C393.054 374.366 392.941 374.275 392.813 374.214C392.684 374.153 392.542 374.124 392.4 374.129C392.186 374.137 391.974 374.174 391.77 374.24C391.426 374.347 391.091 374.485 390.77 374.65C390.212 374.931 389.703 375.299 389.26 375.74C388.51 376.49 388.26 377.12 388.33 377.15C388.4 377.18 388.76 376.669 389.53 376.039C389.978 375.671 390.472 375.362 391 375.12C391.325 374.985 391.659 374.875 392 374.789C392.36 374.679 392.66 374.659 392.76 374.789C392.86 374.919 392.76 374.869 392.76 374.979C392.657 375.099 392.536 375.2 392.4 375.28C392.122 375.481 391.831 375.664 391.53 375.829C391.018 376.107 390.483 376.338 389.93 376.519C389.351 376.64 388.782 376.807 388.23 377.019V377.019Z" fill="#263238"/>
<path d="M363.11 218.38C361.54 220.38 329.79 294.38 329.79 301.87C329.79 309.36 341.66 378.78 341.66 378.78L363.46 378.03C363.46 378.03 365.07 340.67 363.11 329.7C361.15 318.73 359.72 304.02 359.72 304.02L390.94 248.95C390.94 248.95 394.46 227.78 390.94 221.51C387.42 215.24 363.11 218.38 363.11 218.38Z" fill="#263238"/>
<path d="M361.15 275.61C361.15 276.39 372.49 308.1 374.34 317.9C376.19 327.7 384.52 379.6 384.52 379.6L406.22 378.03C406.22 378.03 404.22 323.03 400.74 308.14C397.26 293.25 394.46 280.7 394.46 272.08C394.46 263.46 397.14 263.44 396 251.08C394.86 238.72 381.92 234.83 381.92 234.83L361.15 275.61Z" fill="#263238"/>
<path d="M376.67 271.14C376.591 271.62 376.456 272.09 376.27 272.54C375.99 273.44 375.53 274.72 374.92 276.28C371.731 284.435 367.614 292.196 362.65 299.41C361.65 300.79 360.89 301.89 360.31 302.63C360.04 303.034 359.725 303.407 359.37 303.74C359.583 303.303 359.837 302.888 360.13 302.5L362.31 299.19C364.14 296.38 366.55 292.44 368.95 287.93C371.35 283.42 373.25 279.21 374.55 276.13C375.15 274.66 375.66 273.44 376.07 272.47C376.228 272.009 376.429 271.563 376.67 271.14V271.14Z" fill="#455A64"/>
<path d="M361.59 99.4396C360.513 98.4453 359.741 97.1653 359.364 95.7488C358.987 94.3323 359.02 92.8378 359.46 91.4396C359.551 91.3134 359.612 91.1677 359.637 91.0139C359.662 90.8602 359.651 90.7028 359.604 90.5542C359.557 90.4056 359.477 90.2699 359.368 90.158C359.26 90.0461 359.127 89.961 358.98 89.9096C358.338 89.4785 357.789 88.9226 357.366 88.2749C356.944 87.6272 356.656 86.901 356.52 86.1396C356.403 85.3724 356.488 84.5878 356.767 83.8635C357.046 83.1392 357.509 82.5002 358.11 82.0096C355.96 81.0096 355.33 77.8696 356.61 75.8496C357.306 74.8808 358.276 74.1417 359.395 73.7267C360.513 73.3116 361.73 73.2396 362.89 73.5196C362.602 72.8499 362.537 72.1055 362.705 71.3961C362.872 70.6867 363.263 70.0499 363.82 69.5796C364.959 68.6709 366.363 68.1584 367.82 68.1196C369.76 67.9696 372.03 68.4296 372.95 70.1196C373.148 69.5564 373.51 69.0652 373.99 68.7089C374.469 68.3526 375.044 68.1474 375.64 68.1196C377.241 67.9529 378.847 68.3833 380.15 69.3283C381.453 70.2732 382.361 71.6661 382.7 73.2396C383.727 72.5516 384.944 72.202 386.18 72.2396C386.796 72.2754 387.382 72.5133 387.849 72.9165C388.315 73.3198 388.636 73.8657 388.76 74.4696C389.135 73.9919 389.626 73.618 390.186 73.3834C390.746 73.1489 391.357 73.0615 391.96 73.1296C392.839 73.0942 393.708 73.328 394.45 73.7996C394.816 74.0434 395.099 74.3936 395.26 74.8031C395.421 75.2126 395.452 75.6617 395.35 76.0896C396.174 75.8841 397.044 75.9922 397.792 76.3928C398.541 76.7935 399.113 77.458 399.399 78.2573C399.684 79.0566 399.662 79.9335 399.337 80.7175C399.012 81.5016 398.407 82.1368 397.64 82.4996C398.245 82.9309 398.731 83.5095 399.05 84.1807C399.37 84.8519 399.513 85.5935 399.466 86.3353C399.418 87.0771 399.183 87.7947 398.781 88.4201C398.38 89.0456 397.825 89.5582 397.17 89.9096C397.339 89.972 397.492 90.0717 397.617 90.2012C397.742 90.3307 397.837 90.4867 397.893 90.6577C397.95 90.8287 397.967 91.0102 397.944 91.1888C397.921 91.3675 397.858 91.5386 397.76 91.6896C397.533 91.9802 397.241 92.2132 396.908 92.3696C396.574 92.526 396.208 92.6014 395.84 92.5896C395.84 95.1396 395.89 97.6796 395.92 100.22C396.026 101.861 395.867 103.509 395.45 105.1C395.242 105.895 394.85 106.631 394.304 107.246C393.759 107.861 393.075 108.339 392.31 108.64" fill="#263238"/>
<path d="M361.57 92.0895C361.83 85.9395 368.3 79.6595 374.42 80.1695L394.28 83.5395V86.8495L394.53 129.559L371.45 139.759L371.77 123.759C371.77 123.759 363.92 122.619 362.1 112.409C361.19 107.299 361.27 98.9295 361.57 92.0895Z" fill="white"/>
<path d="M363.93 99.0996C363.933 99.4418 364.069 99.7695 364.31 100.012C364.551 100.255 364.878 100.394 365.22 100.4C365.387 100.409 365.553 100.385 365.711 100.329C365.868 100.273 366.012 100.186 366.135 100.073C366.258 99.9602 366.357 99.824 366.427 99.6722C366.496 99.5205 366.535 99.3564 366.54 99.1896C366.54 98.8482 366.406 98.5206 366.166 98.2773C365.927 98.0341 365.601 97.8948 365.26 97.8896C365.093 97.8787 364.925 97.9018 364.766 97.9572C364.608 98.0127 364.462 98.0994 364.338 98.2124C364.214 98.3253 364.114 98.462 364.044 98.6144C363.974 98.7669 363.935 98.9319 363.93 99.0996V99.0996Z" fill="#263238"/>
<path d="M363.46 96.3997C363.62 96.5697 364.6 95.8097 366.01 95.7897C367.42 95.7697 368.46 96.4497 368.61 96.2697C368.76 96.0897 368.52 95.8897 368.06 95.5697C367.445 95.1814 366.727 94.9895 366 95.0197C365.276 95.0368 364.576 95.2817 364 95.7197C363.52 96.0197 363.38 96.3297 363.46 96.3997Z" fill="#263238"/>
<path d="M376.62 99.5697C376.623 99.9119 376.759 100.24 377 100.483C377.241 100.725 377.568 100.864 377.91 100.87C378.077 100.879 378.244 100.855 378.402 100.799C378.56 100.743 378.705 100.656 378.829 100.544C378.953 100.431 379.053 100.295 379.123 100.143C379.194 99.9913 379.234 99.8269 379.24 99.6597C379.237 99.3174 379.101 98.9897 378.86 98.7468C378.619 98.5038 378.292 98.3649 377.95 98.3597C377.783 98.3502 377.616 98.3742 377.458 98.4302C377.3 98.4862 377.155 98.573 377.031 98.6857C376.907 98.7983 376.807 98.9345 376.737 99.0863C376.666 99.2381 376.626 99.4024 376.62 99.5697V99.5697Z" fill="#263238"/>
<path d="M377.28 96.6795C377.44 96.8495 378.42 96.0895 379.83 96.0595C381.24 96.0295 382.28 96.7195 382.43 96.5495C382.58 96.3795 382.34 96.1595 381.88 95.8395C381.262 95.4277 380.532 95.218 379.79 95.2395C379.066 95.2642 378.367 95.5122 377.79 95.9495C377.34 96.2895 377.2 96.5995 377.28 96.6795Z" fill="#263238"/>
<path d="M372.41 107.02C371.661 106.806 370.888 106.686 370.11 106.66C369.75 106.66 369.41 106.56 369.34 106.32C369.306 105.946 369.383 105.57 369.56 105.24C369.88 104.36 370.22 103.44 370.56 102.47C371.96 98.4697 372.96 95.2797 372.8 95.2197C371.683 97.4766 370.743 99.817 369.99 102.22L369 105.02C368.782 105.46 368.726 105.962 368.84 106.44C368.896 106.567 368.98 106.68 369.085 106.77C369.191 106.86 369.316 106.925 369.45 106.96C369.65 107.005 369.855 107.028 370.06 107.03C370.84 107.131 371.631 107.127 372.41 107.02Z" fill="#263238"/>
<path d="M371.77 123.729C376.584 123.686 381.29 122.301 385.36 119.729C385.36 119.729 381.95 127.019 371.72 126.279L371.77 123.729Z" fill="#999999"/>
<path d="M373.07 110.37C373.332 110.026 373.676 109.754 374.071 109.579C374.467 109.404 374.899 109.332 375.33 109.37C375.64 109.393 375.942 109.479 376.219 109.622C376.495 109.764 376.741 109.961 376.94 110.2C377.137 110.431 377.257 110.718 377.283 111.021C377.31 111.323 377.243 111.627 377.09 111.89C376.868 112.147 376.575 112.333 376.247 112.422C375.919 112.511 375.572 112.5 375.25 112.39C374.583 112.18 373.964 111.84 373.43 111.39C373.269 111.279 373.131 111.14 373.02 110.98C372.969 110.903 372.942 110.812 372.942 110.72C372.942 110.627 372.969 110.537 373.02 110.46" fill="#999999"/>
<path d="M376.57 107.86C376.34 107.86 376.37 109.39 375.08 110.51C373.79 111.63 372.17 111.51 372.16 111.71C372.15 111.91 372.53 112 373.22 112C374.115 111.991 374.978 111.669 375.66 111.09C376.312 110.523 376.723 109.729 376.81 108.87C376.85 108.23 376.68 107.85 376.57 107.86Z" fill="#263238"/>
<path d="M376.75 91.6296C376.9 92.0196 378.3 91.7996 379.96 91.9696C381.62 92.1396 382.96 92.5596 383.17 92.2096C383.26 92.0396 383.03 91.6796 382.48 91.3196C381.754 90.8716 380.931 90.6042 380.08 90.5396C379.234 90.4533 378.38 90.5734 377.59 90.8896C377 91.1396 376.69 91.4496 376.75 91.6296Z" fill="#263238"/>
<path d="M363.89 92.2995C364.15 92.6095 365.11 92.2995 366.28 92.2195C367.45 92.1395 368.44 92.3895 368.66 92.0495C368.75 91.8795 368.59 91.5695 368.15 91.2695C367.565 90.9149 366.887 90.7444 366.204 90.78C365.521 90.8157 364.865 91.0559 364.32 91.4695C363.91 91.8095 363.78 92.1395 363.89 92.2995Z" fill="#263238"/>
<path d="M365.54 80.1895C365.255 81.1232 365.25 82.1199 365.525 83.0565C365.8 83.9932 366.343 84.8289 367.087 85.4605C367.832 86.0921 368.745 86.492 369.714 86.6109C370.683 86.7298 371.665 86.5624 372.54 86.1295C372.244 86.4967 372.092 86.9591 372.112 87.4302C372.132 87.9014 372.324 88.3491 372.65 88.6895C373.337 89.343 374.252 89.7019 375.2 89.6895C376.19 89.7232 377.175 89.5422 378.088 89.159C379.001 88.7758 379.821 88.1994 380.49 87.4695C380.601 88.2562 380.897 89.0052 381.355 89.6545C381.812 90.3038 382.418 90.8347 383.122 91.2032C383.826 91.5717 384.607 91.7672 385.402 91.7735C386.196 91.7798 386.98 91.5968 387.69 91.2395C387.026 91.9288 386.585 92.8016 386.422 93.7447C386.26 94.6878 386.385 95.6579 386.78 96.5295C387.206 97.3839 387.882 98.0885 388.718 98.5494C389.554 99.0102 390.51 99.2056 391.46 99.1095C392.413 98.9844 393.305 98.5733 394.019 97.9306C394.733 97.2879 395.236 96.4437 395.46 95.5095C396.182 95.1808 396.82 94.6904 397.323 94.0763C397.826 93.4622 398.181 92.7407 398.36 91.9676C398.54 91.1945 398.54 90.3904 398.359 89.6174C398.179 88.8444 397.823 88.1232 397.32 87.5095C397.824 87.3092 398.266 86.9803 398.603 86.5557C398.94 86.1311 399.159 85.6255 399.24 85.0895C399.39 84.0136 399.256 82.9171 398.85 81.9095C398.452 80.6472 397.805 79.4778 396.946 78.471C396.087 77.4642 395.034 76.6407 393.85 76.0495C392.65 75.4909 391.309 75.3057 390.002 75.5179C388.695 75.73 387.482 76.3298 386.52 77.2395C386.345 77.4841 386.096 77.6663 385.81 77.7595C385.614 77.7537 385.422 77.7029 385.248 77.611C385.075 77.5191 384.925 77.3886 384.81 77.2295C383.54 75.9395 382.22 74.5495 380.47 74.1095C379.397 73.8568 378.271 73.9777 377.276 74.4523C376.281 74.9269 375.478 75.7267 375 76.7195C374.387 75.6719 373.453 74.8495 372.337 74.374C371.22 73.8985 369.98 73.7953 368.8 74.0795C366.48 74.7995 365.01 77.7395 366.14 79.8795" fill="#263238"/>
<path d="M390.45 97.5996C390.6 99.6776 391.041 101.724 391.76 103.68C392.07 104.51 392.55 105.43 393.41 105.6C393.81 105.643 394.214 105.556 394.561 105.353C394.909 105.149 395.182 104.84 395.34 104.47C395.64 103.718 395.753 102.905 395.67 102.1C395.505 99.2431 395.154 96.4005 394.62 93.5896" fill="#263238"/>
<path d="M392.71 99.1697C392.84 99.1097 397.83 97.2597 398.02 102.49C398.21 107.72 392.94 106.83 392.93 106.68C392.92 106.53 392.71 99.1697 392.71 99.1697Z" fill="white"/>
<path d="M394.44 104.64C394.44 104.64 394.54 104.7 394.69 104.77C394.909 104.855 395.151 104.855 395.37 104.77C395.704 104.545 395.972 104.236 396.147 103.874C396.323 103.512 396.4 103.111 396.37 102.71C396.364 102.26 396.262 101.816 396.07 101.41C396.013 101.25 395.919 101.105 395.796 100.989C395.672 100.872 395.523 100.787 395.36 100.74C395.254 100.715 395.143 100.728 395.046 100.777C394.948 100.827 394.872 100.909 394.83 101.01C394.77 101.16 394.83 101.26 394.78 101.27C394.73 101.28 394.66 101.19 394.7 100.97C394.719 100.837 394.787 100.715 394.89 100.63C395.033 100.52 395.211 100.466 395.39 100.48C395.611 100.51 395.82 100.598 395.995 100.735C396.171 100.872 396.307 101.053 396.39 101.26C396.632 101.701 396.759 102.196 396.76 102.7C396.804 103.164 396.709 103.631 396.489 104.042C396.268 104.453 395.931 104.789 395.52 105.01C395.38 105.054 395.233 105.067 395.088 105.048C394.943 105.029 394.803 104.978 394.68 104.9C394.46 104.77 394.43 104.65 394.44 104.64Z" fill="#999999"/>
<path d="M380.77 86.4296L380.61 86.4796L380.13 86.5596C379.519 86.6394 378.901 86.6394 378.29 86.5596C377.848 86.5174 377.413 86.413 377 86.2496C376.503 86.0602 376.051 85.7709 375.67 85.3996C375.241 84.9722 374.922 84.4472 374.74 83.8696C374.533 83.2109 374.576 82.4989 374.86 81.8696L375.03 82.0096C373.836 82.8959 372.387 83.3697 370.9 83.3596C370.086 83.3602 369.28 83.2111 368.52 82.9196C368.122 82.7719 367.748 82.5664 367.41 82.3096C367.06 82.0342 366.794 81.6673 366.64 81.2496C366.474 80.7648 366.419 80.2486 366.48 79.7396C366.532 79.2533 366.623 78.7719 366.75 78.2996C366.848 77.8287 367.02 77.3764 367.26 76.9596C367.375 76.7449 367.536 76.5583 367.731 76.413C367.926 76.2678 368.151 76.1676 368.39 76.1196L368.45 76.3596C367.582 76.6606 366.638 76.6606 365.77 76.3596C364.982 76.0859 364.288 75.5934 363.77 74.9396C363.306 74.3692 363.023 73.6724 362.96 72.9396C362.915 72.3107 363.008 71.6796 363.23 71.0896C363.535 70.2472 364.099 69.5227 364.84 69.0196C365.097 68.836 365.385 68.7005 365.69 68.6196C365.413 68.7584 365.146 68.9154 364.89 69.0896C364.293 69.5244 363.818 70.1068 363.513 70.7799C363.208 71.453 363.083 72.1937 363.15 72.9296C363.216 73.6292 363.488 74.2936 363.93 74.8396C364.433 75.454 365.098 75.9148 365.85 76.1696C366.667 76.45 367.553 76.45 368.37 76.1696L368.43 76.4196C368.228 76.4623 368.039 76.549 367.875 76.6735C367.71 76.7979 367.576 76.9571 367.48 77.1396C367.257 77.5363 367.095 77.9645 367 78.4096C366.697 79.3134 366.659 80.2849 366.89 81.2096C367.049 81.5745 367.287 81.8998 367.586 82.1625C367.885 82.4252 368.238 82.6189 368.62 82.7296C369.349 83.0058 370.121 83.148 370.9 83.1496C372.338 83.1728 373.743 82.7231 374.9 81.8696L375.28 81.5996L375.07 82.0196C374.813 82.5957 374.77 83.2449 374.95 83.8496C375.123 84.3972 375.421 84.897 375.82 85.3096C376.173 85.6722 376.599 85.9552 377.07 86.1396C377.467 86.3037 377.884 86.4147 378.31 86.4696C378.918 86.5382 379.532 86.5382 380.14 86.4696L380.77 86.4296Z" fill="white"/>
<path d="M364.64 84.4796C364.536 84.5586 364.417 84.6164 364.29 84.6496C363.952 84.7608 363.596 84.8083 363.24 84.7896C362.704 84.7607 362.189 84.5727 361.76 84.2496C361.488 84.0391 361.308 83.7305 361.26 83.3896C361.229 83.1972 361.256 83.0001 361.336 82.8224C361.416 82.6448 361.546 82.4943 361.71 82.3896L361.82 82.6296H361.73C361.155 82.8033 360.549 82.8486 359.954 82.7622C359.36 82.6758 358.792 82.4598 358.29 82.1296C357.985 81.9325 357.712 81.6896 357.48 81.4096C357.393 81.3117 357.322 81.2003 357.27 81.0796C357.617 81.4075 357.992 81.7052 358.39 81.9696C358.876 82.2596 359.416 82.4458 359.977 82.5163C360.538 82.5869 361.108 82.5404 361.65 82.3796H361.73L363 82.0196L361.87 82.6296C361.753 82.7064 361.661 82.8151 361.605 82.9427C361.548 83.0703 361.529 83.2115 361.55 83.3496C361.586 83.6214 361.726 83.8687 361.94 84.0396C362.329 84.3458 362.797 84.5333 363.29 84.5796C363.743 84.6127 364.197 84.579 364.64 84.4796V84.4796Z" fill="white"/>
<path d="M369.2 96.0796C369.2 96.0796 368.89 95.8496 368.35 95.5596C367.661 95.1713 366.89 94.952 366.1 94.9196C365.31 94.8996 364.526 95.0639 363.81 95.3996C363.26 95.6596 362.96 95.8996 362.93 95.8596C363.144 95.5902 363.418 95.3744 363.73 95.2296C364.458 94.8265 365.282 94.6293 366.114 94.6592C366.945 94.6892 367.753 94.9451 368.45 95.3996C368.75 95.5642 369.007 95.7972 369.2 96.0796Z" fill="#999999"/>
<path d="M383 95.7596C382.761 95.6381 382.531 95.5011 382.31 95.3496C381.749 95.0467 381.127 94.8757 380.49 94.8496C379.856 94.8253 379.225 94.9521 378.65 95.2196C378.2 95.4196 377.95 95.6096 377.92 95.5696C377.89 95.5296 378.11 95.3096 378.56 95.0496C379.151 94.718 379.822 94.5556 380.5 94.5803C381.177 94.605 381.834 94.8158 382.4 95.1896C382.84 95.4796 383 95.7396 383 95.7596Z" fill="#999999"/>
<path d="M377.83 108.37C377.83 108.37 377.73 108.28 377.6 108.16C377.436 108 377.237 107.881 377.02 107.81C376.49 107.67 376.02 107.67 376.02 107.58C376.373 107.44 376.767 107.44 377.12 107.58C377.384 107.663 377.612 107.832 377.77 108.06C377.86 108.22 377.86 108.36 377.83 108.37Z" fill="#999999"/>
<path d="M378.83 109.11C378.76 109.11 378.64 108.73 378.43 108.29C378.22 107.85 378 107.5 378.05 107.45C378.1 107.4 378.44 107.69 378.67 108.18C378.9 108.67 378.9 109.1 378.83 109.11Z" fill="#999999"/>
<path d="M274.65 162.1C274.47 162.1 273.91 155.1 273.91 155.1C273.91 155.1 276.46 155.67 276.91 157.49C277.36 159.31 277.71 160.86 277.71 160.86L284.09 162.74L290.84 160.68L288 165.08C288 165.08 284.35 165.58 284.07 165.57C283.79 165.56 274.65 162.1 274.65 162.1Z" fill="#999999"/>
<path d="M296.32 170.69L281.49 169.12C281.49 169.12 270.34 162.2 269.08 161.34C268.945 161.254 268.83 161.139 268.744 161.005C268.658 160.87 268.602 160.718 268.58 160.56C268.557 160.322 268.595 160.082 268.691 159.863C268.787 159.644 268.937 159.453 269.128 159.309C269.318 159.165 269.543 159.071 269.779 159.038C270.016 159.005 270.257 159.033 270.48 159.12L283.59 163.87C283.981 164.002 284.395 164.05 284.806 164.008C285.217 163.967 285.614 163.838 285.97 163.63L291.54 160.36C291.54 160.36 289.29 158.18 287.87 156.5C287.467 156.08 287.213 155.539 287.148 154.961C287.083 154.382 287.21 153.798 287.51 153.3C289.29 153.56 298.27 160.3 298.27 160.3L302.02 163.24L296.32 170.69Z" fill="white"/>
<path d="M277.64 161.019L279.69 155.229C279.957 155.281 280.21 155.387 280.435 155.54C280.66 155.692 280.851 155.89 280.997 156.119C281.143 156.348 281.241 156.605 281.284 156.873C281.328 157.141 281.316 157.416 281.25 157.679C281.04 159.899 281.07 161.779 281.07 161.779L284.07 163.019L277.63 161.169" fill="#999999"/>
<path d="M394.44 126.33C399.53 132.03 403.44 144.76 404.44 152.33C405.51 160.83 405.15 163.03 405.8 170C406.47 177.24 406.73 226.47 403.99 230.28C401.25 234.09 399.08 234.64 399.08 234.64C399.08 234.64 398.72 238.46 398.35 246.27C397.98 254.08 385.8 274.42 385.8 274.42C385.8 274.42 383.44 277.87 378.54 272.24C374.95 268.13 369.04 254.24 366.12 247.02C364.916 244.052 363.329 241.255 361.4 238.7C361.164 238.394 360.86 238.147 360.514 237.977C360.167 237.807 359.786 237.719 359.4 237.719C359.014 237.719 358.633 237.807 358.286 237.977C357.94 238.147 357.636 238.394 357.4 238.7L349.63 249.02C349.63 249.02 345.49 246.46 345.13 243.73C344.77 241 347.31 233.56 349.67 225.21C352.03 216.86 355.77 188.21 355.77 188.21C355.77 188.21 355.66 159.6 355.77 159.21C356.77 155.5 362.46 148.21 366.27 141.83C368.604 137.893 370.409 133.667 371.64 129.26L394.44 126.4V126.33Z" fill="#F5E461"/>
<g opacity="0.3">
<path opacity="0.3" d="M355.47 185.72C363.69 186.11 379.22 178.78 380.84 177.62C385.15 174.51 390.43 167.56 390 161.1C386.455 168.031 380.805 173.661 373.86 177.18C371.749 178.452 369.531 179.537 367.23 180.42" fill="black"/>
</g>
<path d="M354 160.74C359.856 155.502 365.03 149.548 369.4 143.02C372.8 137.78 379.45 139.37 388.16 144.27C391.43 146.11 391.99 150.04 391.42 154.27C390.805 158.319 389.278 162.175 386.953 165.546C384.628 168.918 381.566 171.716 378 173.73C367.52 179.73 350.93 188.12 348.1 189.37C345.8 190.37 340.7 190.5 336.36 188.04L337.81 161.9C337.81 161.9 346.57 159.33 350.05 161.1L351.45 161.99L354.07 160.74" fill="#F5E461"/>
<path d="M232.29 128.519C232.317 127.819 232.146 127.126 231.797 126.518C231.448 125.911 230.935 125.414 230.316 125.085C229.698 124.755 228.999 124.607 228.301 124.656C227.602 124.705 226.931 124.95 226.365 125.363C225.799 125.776 225.36 126.34 225.1 126.99C224.84 127.641 224.768 128.351 224.892 129.041C225.017 129.73 225.333 130.371 225.805 130.889C226.277 131.406 226.885 131.781 227.56 131.969V132.969L228.56 133.739L227.49 134.329L227.44 135.629L228.44 136.399L227.37 136.989V138.109L227.99 138.569L227.34 138.939V139.589L228.11 140.469L229.65 139.549L229.94 131.829C230.61 131.564 231.188 131.109 231.605 130.522C232.022 129.935 232.26 129.239 232.29 128.519V128.519ZM228.67 125.659C228.883 125.668 229.088 125.739 229.26 125.865C229.431 125.991 229.562 126.165 229.634 126.365C229.706 126.565 229.717 126.782 229.666 126.988C229.614 127.195 229.502 127.381 229.344 127.524C229.186 127.666 228.989 127.758 228.778 127.788C228.568 127.818 228.353 127.784 228.161 127.692C227.97 127.599 227.81 127.451 227.703 127.267C227.596 127.083 227.546 126.872 227.56 126.659C227.566 126.521 227.6 126.384 227.66 126.259C227.719 126.133 227.803 126.021 227.906 125.928C228.009 125.835 228.13 125.763 228.261 125.717C228.392 125.671 228.531 125.651 228.67 125.659V125.659Z" fill="#263238"/>
<path d="M228.67 125.66C228.67 125.66 228.57 125.66 228.41 125.66C228.181 125.716 227.977 125.846 227.83 126.03C227.701 126.199 227.63 126.405 227.626 126.618C227.622 126.83 227.686 127.039 227.809 127.213C227.932 127.386 228.107 127.516 228.309 127.584C228.511 127.651 228.729 127.652 228.931 127.587C229.134 127.522 229.311 127.394 229.435 127.222C229.56 127.05 229.627 126.842 229.626 126.629C229.624 126.416 229.555 126.21 229.428 126.039C229.301 125.868 229.123 125.742 228.92 125.68C228.76 125.68 228.66 125.68 228.67 125.62H228.73H228.93C229.171 125.684 229.382 125.829 229.53 126.03C229.635 126.181 229.701 126.356 229.724 126.539C229.747 126.721 229.725 126.907 229.66 127.08C229.577 127.286 229.434 127.464 229.25 127.59C229.053 127.724 228.818 127.79 228.58 127.78C228.344 127.768 228.117 127.684 227.93 127.54C227.816 127.447 227.721 127.334 227.651 127.205C227.581 127.076 227.537 126.934 227.522 126.788C227.507 126.642 227.522 126.494 227.564 126.354C227.607 126.213 227.677 126.083 227.77 125.97C227.929 125.775 228.153 125.644 228.4 125.6C228.466 125.59 228.534 125.59 228.6 125.6L228.67 125.66Z" fill="#263238"/>
<path d="M232.29 128.52V128.81C232.253 129.095 232.189 129.376 232.1 129.65C231.939 130.083 231.706 130.485 231.41 130.84C231.002 131.312 230.483 131.676 229.9 131.9V131.9C229.83 133.9 229.73 136.55 229.62 139.62L228.08 140.54L227.31 139.67C227.31 139.46 227.31 139.24 227.31 139.02L227.96 138.66V138.73L227.34 138.26C227.34 137.91 227.34 137.53 227.34 137.14L228.41 136.55V136.62L227.41 135.86V135.5C227.41 135.18 227.41 134.86 227.41 134.5L228.48 133.91V133.98L227.48 133.22C227.48 132.87 227.48 132.52 227.48 132.22V132.27C226.62 132.027 225.873 131.489 225.37 130.75C225.213 130.515 225.082 130.263 224.98 130C224.789 129.528 224.696 129.022 224.706 128.513C224.716 128.004 224.829 127.502 225.039 127.039C225.249 126.575 225.551 126.158 225.926 125.815C226.302 125.471 226.743 125.207 227.224 125.039C227.704 124.871 228.214 124.802 228.722 124.837C229.229 124.872 229.725 125.009 230.178 125.241C230.631 125.473 231.033 125.795 231.358 126.186C231.683 126.578 231.925 127.031 232.07 127.52V127.66V127.8C232.07 127.89 232.07 127.97 232.12 128.05C232.17 128.13 232.12 128.34 232.12 128.44C232.12 128.34 232.12 128.21 232.12 128.05L232.06 127.8V127.67V127.53C231.91 127.052 231.665 126.61 231.34 126.23C230.903 125.726 230.341 125.346 229.71 125.13C229.044 124.901 228.326 124.869 227.642 125.035C226.957 125.202 226.335 125.561 225.848 126.07C225.361 126.579 225.03 127.216 224.894 127.907C224.758 128.598 224.822 129.314 225.08 129.97C225.182 130.227 225.313 130.472 225.47 130.7C225.625 130.935 225.81 131.15 226.02 131.34C226.447 131.733 226.961 132.021 227.52 132.18V132.18C227.52 132.52 227.52 132.86 227.52 133.18L228.52 133.95H228.58H228.51L227.45 134.54C227.45 134.86 227.45 135.18 227.45 135.54C227.45 135.66 227.45 135.77 227.45 135.88L228.45 136.65H228.51H228.44L227.38 137.24C227.38 137.63 227.38 138.01 227.38 138.36L228 138.83H227.94L227.29 139.2V139.85L228.06 140.73H228L229.54 139.81C229.66 136.73 229.76 134.08 229.84 132.09C230.343 131.901 230.799 131.606 231.177 131.224C231.555 130.843 231.846 130.384 232.03 129.88C232.126 129.611 232.193 129.333 232.23 129.05C232.23 128.96 232.23 128.89 232.23 128.83C232.266 128.787 232.29 128.737 232.301 128.682C232.311 128.628 232.308 128.572 232.29 128.52Z" fill="#263238"/>
<path d="M231.9 128.31C231.927 127.609 231.757 126.915 231.408 126.307C231.058 125.699 230.545 125.201 229.926 124.872C229.307 124.542 228.608 124.394 227.908 124.443C227.209 124.493 226.538 124.739 225.972 125.153C225.406 125.566 224.968 126.131 224.708 126.783C224.448 127.434 224.378 128.145 224.504 128.835C224.63 129.525 224.948 130.165 225.421 130.682C225.895 131.2 226.504 131.573 227.18 131.76V132.76L228.18 133.52L227.12 134.12V135.42L228.12 136.18L227.06 136.78L227.01 137.9L227.63 138.36L226.98 138.73V139.38L227.75 140.25L229.29 139.34L229.58 131.62C230.244 131.349 230.816 130.893 231.227 130.306C231.639 129.719 231.872 129.026 231.9 128.31V128.31ZM228.28 125.44C228.493 125.448 228.698 125.52 228.87 125.645C229.041 125.771 229.172 125.945 229.244 126.145C229.316 126.345 229.327 126.562 229.276 126.769C229.224 126.975 229.112 127.161 228.954 127.304C228.796 127.446 228.599 127.538 228.388 127.568C228.178 127.598 227.963 127.564 227.771 127.472C227.58 127.379 227.42 127.231 227.313 127.047C227.206 126.863 227.156 126.652 227.17 126.44C227.191 126.162 227.317 125.903 227.524 125.717C227.731 125.53 228.002 125.431 228.28 125.44V125.44Z" fill="#4941C0"/>
<path d="M228.28 125.44C228.28 125.44 228.18 125.44 228.02 125.49C227.789 125.54 227.584 125.672 227.44 125.86C227.374 125.975 227.332 126.101 227.315 126.233C227.299 126.364 227.308 126.497 227.343 126.625C227.378 126.752 227.437 126.872 227.518 126.977C227.599 127.081 227.7 127.169 227.815 127.235C227.93 127.3 228.057 127.343 228.188 127.359C228.319 127.376 228.453 127.367 228.58 127.332C228.708 127.297 228.827 127.237 228.932 127.156C229.037 127.075 229.124 126.975 229.19 126.86C229.245 126.725 229.272 126.58 229.268 126.435C229.264 126.289 229.23 126.146 229.168 126.014C229.106 125.883 229.017 125.766 228.907 125.67C228.797 125.574 228.669 125.503 228.53 125.46C228.37 125.46 228.28 125.46 228.28 125.4H228.35H228.54C228.784 125.456 228.999 125.603 229.14 125.81C229.241 125.953 229.305 126.12 229.328 126.294C229.35 126.468 229.33 126.645 229.27 126.81C229.187 127.016 229.044 127.194 228.86 127.32C228.667 127.454 228.435 127.521 228.2 127.51C227.993 127.502 227.792 127.436 227.62 127.32C227.449 127.203 227.313 127.041 227.228 126.852C227.144 126.662 227.115 126.453 227.143 126.248C227.172 126.042 227.257 125.849 227.39 125.69C227.545 125.497 227.766 125.369 228.01 125.33C228.076 125.315 228.144 125.315 228.21 125.33L228.28 125.44Z" fill="#263238"/>
<path d="M231.9 128.309V128.599C231.867 128.886 231.803 129.167 231.71 129.439C231.555 129.872 231.321 130.272 231.02 130.619C230.612 131.094 230.093 131.462 229.51 131.689V131.689C229.44 133.689 229.35 136.329 229.24 139.409L227.7 140.329L226.92 139.459C226.92 139.259 226.92 139.039 226.92 138.809L227.57 138.439V138.519L226.95 138.049C226.95 137.699 226.95 137.319 226.95 136.939L228.02 136.339V136.419L227.02 135.659V135.289C227.02 134.969 227.02 134.649 227.02 134.289L228.09 133.689V133.769L227.09 133.009C227.09 132.659 227.09 132.309 227.09 132.009C226.516 131.843 225.989 131.545 225.55 131.139C225.335 130.949 225.146 130.731 224.99 130.489C224.829 130.255 224.695 130.003 224.59 129.739C224.407 129.265 224.321 128.758 224.339 128.25C224.357 127.742 224.477 127.242 224.693 126.782C224.909 126.321 225.215 125.909 225.595 125.57C225.974 125.231 226.418 124.972 226.9 124.809C227.684 124.539 228.536 124.539 229.32 124.809C229.958 125.031 230.525 125.422 230.96 125.939C231.289 126.321 231.534 126.767 231.68 127.249V127.399V127.539C231.68 127.629 231.68 127.709 231.73 127.789C231.738 127.919 231.738 128.05 231.73 128.179V128.429C231.734 128.456 231.734 128.483 231.73 128.509V128.019C231.73 127.919 231.73 127.789 231.73 127.629C231.73 127.469 231.73 127.469 231.68 127.379V127.249V127.099C231.529 126.625 231.284 126.187 230.96 125.809C230.527 125.301 229.964 124.92 229.33 124.709C228.664 124.486 227.948 124.456 227.266 124.624C226.584 124.793 225.964 125.152 225.478 125.659C224.992 126.167 224.661 126.802 224.523 127.491C224.386 128.18 224.447 128.894 224.7 129.549C224.909 130.07 225.23 130.537 225.64 130.919C226.072 131.312 226.589 131.599 227.15 131.759C227.15 132.109 227.15 132.449 227.15 132.759L228.15 133.529H228.21H228.15L227.08 134.129V135.129V135.469L228.08 136.239H228.14H228.08L227.01 136.839C227.01 137.229 227.01 137.609 227.01 137.959L227.63 138.429H227.69H227.63L226.97 138.799V139.449L227.74 140.319H227.69L229.23 139.399C229.35 136.329 229.46 133.679 229.53 131.689C230.105 131.485 230.62 131.141 231.03 130.689C231.519 130.126 231.829 129.43 231.92 128.689V128.469C231.924 128.415 231.917 128.361 231.9 128.309V128.309Z" fill="#263238"/>
<path d="M231.46 128.34C231.445 128.071 231.414 127.804 231.37 127.54C231.302 127.23 231.188 126.934 231.03 126.659C230.83 126.295 230.562 125.973 230.24 125.71C229.819 125.369 229.32 125.138 228.787 125.038C228.255 124.939 227.706 124.974 227.19 125.139C226.89 125.231 226.607 125.37 226.35 125.549C226.214 125.638 226.087 125.738 225.97 125.85C225.852 125.962 225.742 126.083 225.64 126.21C225.21 126.747 224.965 127.409 224.939 128.096C224.914 128.784 225.111 129.462 225.5 130.029C225.586 130.17 225.687 130.3 225.8 130.419C225.92 130.539 226.03 130.649 226.15 130.749C226.394 130.948 226.667 131.106 226.96 131.219C227.494 131.439 228.078 131.512 228.65 131.43C229.149 131.354 229.624 131.166 230.04 130.879C230.381 130.638 230.676 130.336 230.91 129.99C231.085 129.727 231.219 129.441 231.31 129.139C231.376 128.876 231.426 128.609 231.46 128.34V128.549C231.46 128.619 231.46 128.709 231.46 128.809C231.439 128.924 231.413 129.038 231.38 129.15C231.297 129.458 231.166 129.752 230.99 130.019C230.763 130.377 230.467 130.686 230.12 130.93C229.701 131.234 229.213 131.43 228.7 131.499C228.113 131.59 227.512 131.521 226.96 131.299C226.664 131.183 226.387 131.021 226.14 130.82C226.01 130.714 225.886 130.601 225.77 130.48C225.659 130.356 225.555 130.226 225.46 130.09C225.063 129.5 224.863 128.8 224.89 128.09C224.917 127.383 225.169 126.703 225.61 126.15C225.715 126.019 225.829 125.895 225.95 125.779C226.073 125.668 226.203 125.564 226.34 125.469C226.607 125.292 226.896 125.151 227.2 125.049C227.767 124.873 228.371 124.849 228.95 124.98C229.454 125.095 229.923 125.328 230.32 125.659C230.648 125.939 230.919 126.278 231.12 126.659C231.271 126.938 231.379 127.238 231.44 127.549C231.464 127.665 231.481 127.782 231.49 127.9C231.494 127.983 231.494 128.066 231.49 128.15V128.359L231.46 128.34Z" fill="#263238"/>
<path d="M229.48 126.57C229.48 126.57 229.48 126.46 229.48 126.27C229.413 125.997 229.259 125.755 229.04 125.58C228.894 125.462 228.723 125.38 228.54 125.34C228.33 125.285 228.11 125.285 227.9 125.34C227.669 125.413 227.466 125.556 227.32 125.75C227.162 125.95 227.071 126.195 227.06 126.45C227.051 126.706 227.125 126.958 227.27 127.17C227.402 127.369 227.59 127.525 227.81 127.62C228.013 127.7 228.233 127.727 228.45 127.7C228.637 127.671 228.815 127.599 228.97 127.49C229.201 127.336 229.371 127.106 229.45 126.84C229.51 126.65 229.51 126.54 229.52 126.54C229.53 126.54 229.52 126.54 229.52 126.62C229.528 126.696 229.528 126.773 229.52 126.85C229.446 127.132 229.277 127.379 229.04 127.55C228.862 127.672 228.658 127.75 228.443 127.776C228.229 127.803 228.012 127.776 227.81 127.7C227.568 127.605 227.361 127.437 227.22 127.22C227.067 126.991 226.99 126.72 227.001 126.445C227.012 126.17 227.109 125.905 227.28 125.69C227.44 125.488 227.655 125.338 227.9 125.26C228.122 125.195 228.358 125.195 228.58 125.26C228.83 125.302 229.06 125.421 229.24 125.6C229.419 125.779 229.538 126.01 229.58 126.26C229.588 126.336 229.588 126.413 229.58 126.49C229.49 126.55 229.49 126.57 229.48 126.57Z" fill="#263238"/>
<path d="M228.73 139.549C228.73 139.549 228.73 137.789 228.84 135.629C228.95 133.469 229 131.699 229.03 131.699C229.06 131.699 229.03 133.459 228.93 135.629C228.83 137.799 228.76 139.549 228.73 139.549Z" fill="#263238"/>
<path d="M228.6 125.81C228.524 125.853 228.438 125.877 228.35 125.877C228.262 125.877 228.176 125.853 228.1 125.81V121.08H228.6V125.81Z" fill="#E0E0E0"/>
<path d="M228.35 125.89C228.26 125.889 228.171 125.868 228.09 125.83V125.83V121.02H228.63V125.75C228.55 125.819 228.454 125.868 228.35 125.89V125.89ZM228.12 125.8C228.192 125.834 228.27 125.852 228.35 125.852C228.43 125.852 228.508 125.834 228.58 125.8V121.14H228.12V125.8Z" fill="#263238"/>
<path d="M222.36 112.679L231.01 117.459C230.874 117.769 230.673 118.047 230.421 118.273C230.169 118.499 229.872 118.669 229.549 118.771C229.227 118.874 228.886 118.906 228.55 118.866C228.214 118.826 227.89 118.715 227.6 118.539C225.1 117.429 220.6 114.689 220.6 114.689L217.16 116.079L214.53 112.899L222.36 112.679Z" fill="#6B6B6B"/>
<path d="M204.61 129.76C205.918 130.298 207.337 130.51 208.745 130.376C210.153 130.242 211.508 129.766 212.69 128.99C216.63 126.3 216.92 125.41 218.54 124.92C219.72 124.56 225.22 123.81 227.38 123.3C227.609 123.247 227.819 123.131 227.986 122.965C228.153 122.799 228.27 122.59 228.324 122.361C228.378 122.132 228.367 121.893 228.292 121.67C228.217 121.447 228.081 121.249 227.9 121.1C226.699 120.671 225.443 120.415 224.17 120.34C223.02 120.334 221.873 120.454 220.75 120.7C218.55 121.11 215.88 119.7 215.88 119.7L215.94 118.32L221.41 117.32C223.219 118.755 225.244 119.896 227.41 120.7C228.627 120.853 229.863 120.692 231 120.23V119.92L223.26 114.38L216.04 113.15L213.82 112.78L195.18 123.91L200.02 132.49L204.61 129.76Z" fill="#999999"/>
<path d="M147.76 358.26L144.06 378.06C144.06 378.06 162.94 388.47 162.62 392.19L124 386.4L128.5 355.32L147.76 358.26Z" fill="#4941C0"/>
<g opacity="0.3">
<path opacity="0.3" d="M147.76 358.26L144.06 378.06C144.06 378.06 162.94 388.47 162.62 392.19L124 386.4L128.5 355.32L147.76 358.26Z" fill="black"/>
</g>
<path d="M132.37 374.59C131.981 374.648 131.626 374.847 131.374 375.15C131.121 375.452 130.988 375.836 131 376.23C131.045 376.62 131.238 376.979 131.54 377.232C131.841 377.485 132.227 377.613 132.62 377.59C133.031 377.528 133.406 377.316 133.67 376.995C133.934 376.673 134.069 376.265 134.05 375.85C133.961 375.447 133.72 375.094 133.377 374.865C133.034 374.636 132.616 374.548 132.21 374.62" fill="#E0E0E0"/>
<path d="M124 386.4L124.58 383.28L161.38 390.02C161.38 390.02 162.99 391.02 162.62 392.21L124 386.4Z" fill="#263238"/>
<path d="M144.72 377.96C144.72 378.14 143.72 378.09 142.72 378.56C141.72 379.03 141.09 379.739 140.92 379.639C140.75 379.539 141.21 378.489 142.45 377.949C143.69 377.409 144.79 377.79 144.72 377.96Z" fill="#263238"/>
<path d="M148.52 380.239C148.52 380.429 147.67 380.629 146.91 381.329C146.15 382.029 145.84 382.849 145.65 382.809C145.46 382.769 145.51 381.689 146.47 380.809C147.43 379.929 148.54 380.019 148.52 380.239Z" fill="#263238"/>
<path d="M150.1 385.439C149.92 385.439 149.8 384.439 150.44 383.509C151.08 382.579 152.02 382.269 152.08 382.439C152.14 382.609 151.5 383.079 150.99 383.869C150.48 384.659 150.29 385.449 150.1 385.439Z" fill="#263238"/>
<path d="M145.06 373.349C144.96 373.509 144.13 373.12 143.06 373.03C141.99 372.94 141.06 373.159 141.06 372.979C141.06 372.799 141.89 372.249 143.15 372.369C144.41 372.489 145.18 373.219 145.06 373.349Z" fill="#263238"/>
<path d="M135.15 363.02L134.79 383.15C134.79 383.15 155.14 390.28 155.43 394.01L116.37 394.72L115.63 363.32L135.15 363.02Z" fill="#4941C0"/>
<path d="M122.68 381.659C122.307 381.782 121.992 382.036 121.795 382.376C121.597 382.715 121.532 383.115 121.61 383.499C121.716 383.877 121.963 384.2 122.299 384.401C122.636 384.602 123.037 384.666 123.42 384.579C123.826 384.45 124.167 384.172 124.377 383.801C124.587 383.43 124.648 382.994 124.55 382.579C124.394 382.203 124.101 381.899 123.729 381.73C123.358 381.561 122.937 381.54 122.55 381.669" fill="#E0E0E0"/>
<path d="M116.37 394.7V391.53L153.81 392.03C153.81 392.03 155.56 392.76 155.38 394.03L116.37 394.7Z" fill="#263238"/>
<path d="M135.42 382.92C135.42 383.11 134.42 383.22 133.54 383.85C132.66 384.48 132.12 385.29 131.95 385.22C131.78 385.15 132.03 384.04 133.17 383.3C134.31 382.56 135.46 382.75 135.42 382.92Z" fill="#263238"/>
<path d="M139.55 384.539C139.55 384.729 138.77 385.069 138.14 385.889C137.51 386.709 137.34 387.559 137.14 387.559C136.94 387.559 136.8 386.479 137.61 385.469C138.42 384.459 139.54 384.359 139.55 384.539Z" fill="#263238"/>
<path d="M142 389.41C141.83 389.41 141.55 388.5 142 387.41C142.45 386.32 143.36 385.92 143.44 386.08C143.52 386.24 142.98 386.81 142.61 387.68C142.24 388.55 142.15 389.38 142 389.41Z" fill="#263238"/>
<path d="M135 378.329C134.92 378.499 134 378.249 133 378.329C132 378.409 131.09 378.779 131 378.609C130.91 378.439 131.7 377.759 133 377.659C134.3 377.559 135.08 378.169 135 378.329Z" fill="#263238"/>
<path d="M126.5 211.76C126.518 212.068 126.491 212.378 126.42 212.68C126.279 213.505 126.061 214.315 125.77 215.1C124.831 217.726 123.216 220.058 121.089 221.861C118.961 223.664 116.395 224.875 113.65 225.37C112.826 225.527 111.989 225.604 111.15 225.6C110.845 225.625 110.538 225.601 110.24 225.53C110.24 225.45 111.55 225.53 113.59 225.05C116.243 224.484 118.715 223.273 120.787 221.524C122.86 219.774 124.468 217.54 125.47 215.02C126.24 213.02 126.41 211.74 126.5 211.76Z" fill="#455A64"/>
<path d="M107.59 206.649L108.11 226.569L114 288.419C114 288.419 112.12 318.549 110.93 335.559C109.93 350.329 112.93 375.929 112.93 375.929L137.79 375.279L144.45 289.469L148.59 235.959L156.98 207.959L107.59 206.649Z" fill="#263238"/>
<path d="M169 211.179L170.6 292.019C170.675 296.144 169.997 300.248 168.6 304.129L147.24 363.639L146.18 367.559L131.24 364.359L138.49 206.609L169 211.179Z" fill="#263238"/>
<path d="M148.2 225.469C148.2 225.469 148.2 225.599 148.2 225.859V227.019C148.2 228.019 148.2 229.519 148.2 231.399C148.2 235.209 148.09 240.709 147.91 247.509C147.52 261.109 146.6 279.879 144.96 300.509C143.32 321.139 141.46 339.869 140.08 353.389C139.37 360.129 138.8 365.579 138.4 369.389C138.2 371.259 138.04 372.719 137.92 373.739C137.87 374.209 137.82 374.589 137.79 374.869C137.76 375.149 137.73 375.249 137.73 375.249C137.715 375.12 137.715 374.989 137.73 374.859C137.73 374.579 137.78 374.209 137.82 373.729C137.91 372.729 138.04 371.239 138.21 369.369C138.58 365.559 139.1 360.089 139.74 353.369C141.04 339.849 142.88 321.159 144.49 300.479C146.1 279.799 147.09 261.049 147.57 247.479C147.8 240.679 147.96 235.179 148.01 231.379C148.01 229.499 148.09 228.029 148.11 226.999C148.11 226.519 148.11 226.139 148.11 225.859C148.126 225.727 148.157 225.596 148.2 225.469Z" fill="#455A64"/>
<path d="M149.5 214.93C149.506 215.183 149.437 215.432 149.301 215.645C149.165 215.859 148.969 216.028 148.738 216.13C148.506 216.232 148.249 216.264 148 216.22C147.751 216.177 147.52 216.06 147.337 215.885C147.154 215.711 147.026 215.485 146.971 215.238C146.916 214.991 146.935 214.733 147.027 214.497C147.118 214.261 147.277 214.058 147.484 213.912C147.691 213.766 147.937 213.686 148.19 213.68C148.529 213.674 148.856 213.802 149.101 214.036C149.346 214.27 149.49 214.591 149.5 214.93Z" fill="#455A64"/>
<path d="M169.67 224.489C168.996 224.049 168.393 223.51 167.88 222.889C166.559 221.458 165.46 219.837 164.62 218.079C163.78 216.324 163.204 214.453 162.91 212.529C162.752 211.74 162.712 210.931 162.79 210.129C162.87 210.129 162.94 211.039 163.23 212.479C163.991 216.232 165.671 219.737 168.12 222.679C169.06 223.799 169.72 224.429 169.67 224.489Z" fill="#455A64"/>
<path d="M113.79 87.6594C114.14 88.8194 113.06 89.9494 111.94 90.4294C110.82 90.9094 109.52 91.0794 108.6 91.8794C106.72 93.5094 107.24 96.9594 105.19 98.3894C104.19 99.0794 102.86 99.0694 101.75 99.5494C100.843 100.038 100.092 100.772 99.5814 101.666C99.0705 102.561 98.8206 103.58 98.86 104.609C98.9665 106.665 99.4655 108.681 100.33 110.549C100.505 111.178 100.851 111.746 101.33 112.189C101.737 112.425 102.187 112.579 102.654 112.64C103.121 112.702 103.595 112.671 104.05 112.549C108.973 111.871 113.854 110.916 118.67 109.689C119.259 109.613 119.794 109.308 120.16 108.839C120.327 108.463 120.386 108.047 120.33 107.639L119.91 97.8994C119.933 95.8649 119.633 93.8396 119.02 91.8994C118.705 90.9339 118.169 90.0556 117.453 89.3349C116.738 88.6143 115.863 88.0712 114.9 87.7494" fill="#263238"/>
<path d="M115.77 85.0894C114.92 84.3094 113.45 85.3894 113.45 86.5394C113.615 87.6948 114.216 88.7431 115.13 89.4694L117.46 91.8494C117.61 92.0516 117.801 92.2207 118.019 92.3463C118.238 92.4718 118.48 92.5512 118.73 92.5794C119.65 92.5294 119.9 91.2594 119.73 90.3594C119.486 89.2132 118.997 88.1333 118.296 87.1942C117.596 86.2551 116.7 85.479 115.67 84.9194" fill="#455A64"/>
<path d="M159.21 59.5495C158.28 57.4395 155.76 55.8695 155.59 55.1995C155.14 53.4395 156.67 51.5395 156.1 49.8195C154.77 45.8195 151.47 46.3095 151.47 46.3095C149.97 44.4895 147.94 42.0795 144.64 41.2295C141.06 40.2995 135.8 39.6195 132.64 41.4895C129.48 43.3595 127.13 44.6195 126.1 48.1595L148.64 87.7995C151.21 86.5995 152.83 83.9595 153.78 81.2795C154.73 78.5995 155.16 75.7495 156.22 73.1095C157.01 71.1095 156.14 68.0095 157.91 66.8395C160.09 65.3695 160.06 61.4895 159.21 59.5495Z" fill="#263238"/>
<path d="M151.87 63.1196C151.592 58.7607 149.684 54.666 146.525 51.6496C143.366 48.6333 139.187 46.9161 134.82 46.8396H133.92C124.21 47.2396 119.13 55.7096 119.8 65.3996L119 97.2296L126.12 102.01C131.67 106.17 143.17 109.12 143.17 105.01V95.9196C143.17 95.9196 152.52 94.6296 152.8 85.3096C152.88 80.8096 152.4 71.5196 151.87 63.1196Z" fill="#999999"/>
<path d="M149.79 70.8395C149.785 71.1863 149.646 71.5176 149.401 71.7637C149.157 72.0099 148.827 72.1518 148.48 72.1595C148.311 72.1703 148.141 72.1471 147.981 72.0912C147.821 72.0354 147.673 71.948 147.548 71.8343C147.422 71.7206 147.32 71.5828 147.248 71.4292C147.177 71.2755 147.136 71.109 147.13 70.9395C147.132 70.5927 147.269 70.2603 147.512 70.0122C147.754 69.7642 148.083 69.6198 148.43 69.6095C148.601 69.5987 148.772 69.6222 148.933 69.6785C149.094 69.7349 149.243 69.823 149.369 69.9376C149.496 70.0522 149.599 70.1911 149.671 70.346C149.743 70.5009 149.784 70.6687 149.79 70.8395Z" fill="#263238"/>
<path d="M149.93 68.1295C149.76 68.2995 148.77 67.5295 147.34 67.5095C145.91 67.4895 144.84 68.1895 144.69 68.0095C144.54 67.8295 144.79 67.6195 145.25 67.2995C145.875 66.8764 146.616 66.6596 147.37 66.6795C148.118 66.6888 148.844 66.9376 149.44 67.3895C149.87 67.7295 150 68.0195 149.93 68.1295Z" fill="#263238"/>
<path d="M136.1 70.8394C136.095 71.1862 135.955 71.5175 135.711 71.7636C135.467 72.0098 135.137 72.1517 134.79 72.1594C134.621 72.1702 134.451 72.147 134.291 72.0911C134.131 72.0353 133.983 71.9479 133.858 71.8342C133.732 71.7205 133.63 71.5828 133.558 71.4291C133.486 71.2754 133.446 71.1089 133.44 70.9394C133.442 70.5926 133.579 70.2602 133.822 70.0121C134.064 69.7641 134.393 69.6197 134.74 69.6094C134.91 69.6 135.081 69.6244 135.241 69.6813C135.402 69.7381 135.55 69.8263 135.677 69.9407C135.803 70.0551 135.906 70.1934 135.978 70.3476C136.051 70.5019 136.092 70.6691 136.1 70.8394V70.8394Z" fill="#263238"/>
<path d="M136.06 68.3395C135.9 68.5095 134.88 67.7695 133.45 67.7895C132.02 67.8095 130.97 68.5295 130.81 68.3595C130.65 68.1895 130.9 67.9695 131.36 67.6295C131.971 67.1896 132.707 66.955 133.46 66.9595C134.205 66.9507 134.933 67.1782 135.54 67.6095C136 67.9395 136.14 68.2595 136.06 68.3395Z" fill="#263238"/>
<path d="M140.71 78.3795C141.471 78.1577 142.257 78.03 143.05 77.9995C143.41 77.9995 143.76 77.8995 143.83 77.6495C143.866 77.2745 143.785 76.8975 143.6 76.5695L142.6 73.7595C141.16 69.7595 140.13 66.4895 140.29 66.4295C140.45 66.3695 141.75 69.5695 143.18 73.5595C143.533 74.5395 143.867 75.4795 144.18 76.3795C144.401 76.8256 144.461 77.3343 144.35 77.8195C144.293 77.9458 144.209 78.0579 144.103 78.1478C143.998 78.2377 143.874 78.3032 143.74 78.3395C143.534 78.3921 143.322 78.4189 143.11 78.4195C142.311 78.5071 141.505 78.4936 140.71 78.3795V78.3795Z" fill="#263238"/>
<path d="M136.06 63.2994C135.87 63.6694 134.48 63.2994 132.79 63.2994C131.1 63.2994 129.68 63.5594 129.51 63.1794C129.43 62.9994 129.72 62.6695 130.31 62.3695C131.094 62.0001 131.954 61.8219 132.82 61.8494C133.685 61.8562 134.536 62.0723 135.3 62.4795C135.88 62.7795 136.15 63.1194 136.06 63.2994Z" fill="#263238"/>
<path d="M150.05 63.3396C149.76 63.6596 148.65 63.3396 147.3 63.2596C145.95 63.1796 144.82 63.4396 144.56 63.0896C144.45 62.9296 144.64 62.5996 145.14 62.2996C145.828 61.9341 146.603 61.7646 147.38 61.8096C148.157 61.8298 148.913 62.069 149.56 62.4996C150 62.8496 150.18 63.1796 150.05 63.3396Z" fill="#263238"/>
<path d="M126.76 47.4894C126.754 48.5282 126.976 49.5556 127.412 50.4986C127.848 51.4416 128.486 52.2769 129.281 52.9452C130.077 53.6135 131.009 54.0984 132.013 54.3653C133.017 54.6322 134.068 54.6745 135.09 54.4894C136.67 54.1994 138.4 53.3994 139.76 54.2394C141.12 55.0794 141.26 57.2894 142.53 58.3894C144.35 59.9694 147.24 58.4894 149.53 59.1694C151.31 59.6994 152.43 61.4094 153.61 62.8394C154.79 64.2694 156.61 65.6394 158.35 65.1094C158.298 63.5013 158.063 61.9044 157.65 60.3494C157.222 58.7843 156.264 57.4163 154.94 56.4794C154.21 55.9894 153.35 55.6994 152.66 55.1494C151.18 53.9494 150.84 51.8694 149.93 50.1494C149.328 49.076 148.478 48.1614 147.452 47.4815C146.426 46.8016 145.253 46.3758 144.03 46.2394C142.03 46.0394 139.91 46.6494 137.93 46.1494C136.47 45.7794 135.19 44.8294 133.71 44.5494C130.82 43.9994 128.14 46.0694 126.05 48.1294" fill="#263238"/>
<path d="M136 51.5996C134.7 51.2296 132.06 50.3896 131.36 49.2696C130.671 48.0523 129.671 47.0402 128.462 46.3372C127.253 45.6343 125.879 45.2658 124.48 45.2696C123.075 45.3799 121.744 45.9423 120.686 46.8725C119.628 47.8028 118.9 49.0507 118.61 50.4296C116.922 50.487 115.281 50.9996 113.86 51.9133C112.44 52.8269 111.292 54.1075 110.54 55.6196C109.766 57.2044 109.389 58.9536 109.441 60.7166C109.493 62.4795 109.973 64.2034 110.84 65.7396C111.38 66.4709 111.724 67.328 111.84 68.2296C111.84 69.3796 111.01 70.2896 110.41 71.2296C109.648 72.5992 109.227 74.1323 109.184 75.699C109.14 77.2657 109.475 78.8198 110.16 80.2296C111.42 83.0496 112.31 84.0396 114.11 84.5996C117.63 85.7096 117.54 90.5996 118.9 91.9696L121.17 71.8096C121.343 71.9022 121.528 71.9695 121.72 72.0096C125.19 72.7896 125.64 66.0096 124.87 64.0796C126.176 63.0114 127.345 61.7854 128.35 60.4296C129.455 58.2652 130.002 55.8589 129.94 53.4296C131.24 53.5196 136.57 51.7596 136 51.5996Z" fill="#263238"/>
<path d="M121.71 72.0195C121.55 71.9495 115.33 70.0195 115.43 76.3995C115.53 82.7795 121.91 81.3995 121.91 81.1795C121.91 80.9595 121.71 72.0195 121.71 72.0195Z" fill="#999999"/>
<path d="M119.93 78.7395C119.93 78.7395 119.82 78.8195 119.63 78.9095C119.364 79.019 119.066 79.019 118.8 78.9095C118.386 78.6519 118.047 78.2899 117.817 77.8599C117.587 77.4299 117.474 76.9469 117.49 76.4595C117.468 75.9146 117.567 75.3717 117.78 74.8695C117.839 74.6688 117.945 74.485 118.089 74.3337C118.234 74.1823 118.412 74.0677 118.61 73.9995C118.738 73.9671 118.873 73.9792 118.993 74.0337C119.113 74.0882 119.21 74.182 119.27 74.2995C119.35 74.4695 119.27 74.5995 119.35 74.6095C119.43 74.6195 119.48 74.4995 119.43 74.2395C119.39 74.0839 119.298 73.9464 119.17 73.8495C119.085 73.7824 118.987 73.7336 118.882 73.706C118.777 73.6785 118.667 73.6729 118.56 73.6895C118.298 73.7431 118.055 73.8632 117.854 74.0384C117.652 74.2136 117.499 74.4379 117.41 74.6895C117.144 75.2436 117.02 75.8555 117.05 76.4695C117.026 77.0376 117.171 77.6 117.467 78.0858C117.762 78.5717 118.195 78.9592 118.71 79.1995C118.88 79.2425 119.057 79.2487 119.229 79.2176C119.402 79.1866 119.566 79.119 119.71 79.0195C119.92 78.8995 120 78.7495 119.93 78.7395Z" fill="#6B6B6B"/>
<path d="M143.12 95.9196C143.12 95.9196 134.63 94.6196 129.68 90.8496C129.68 90.8496 132.29 98.6196 143.11 98.8496L143.12 95.9196Z" fill="#6B6B6B"/>
<path d="M137 79.2695C137.23 79.2695 137.21 80.8395 138.54 81.9795C139.87 83.1195 141.54 82.9795 141.54 83.1995C141.54 83.4195 141.16 83.4995 140.45 83.5095C139.526 83.5068 138.634 83.1773 137.93 82.5795C137.255 82.005 136.828 81.1915 136.74 80.3095C136.72 79.6495 136.9 79.2595 137 79.2695Z" fill="#263238"/>
<path d="M118.9 97.2295C118.9 97.2295 99.4299 106.839 95.3599 112.539C90.4199 119.449 104.1 141.539 105.14 147.019C105.64 149.649 108.9 169.429 107.37 185.019C106.37 195.391 105.98 205.812 106.2 216.229L169 211.179C169 200.179 166.16 191.759 164.28 177.849L159.56 132.449L152.73 109.119L143.06 105.019L118.9 97.2295Z" fill="#4941C0"/>
<path d="M152.77 109.12C152.77 109.12 159.77 114.56 162.55 120.72C165.33 126.88 170.71 137.78 170.71 137.78L197.71 121.17L205.57 136.41C205.57 136.41 185.38 154.46 182.66 156.74C178.97 159.84 176.52 161.41 172.73 161.41C168.94 161.41 166.09 160.88 162.73 155.94L158.13 147.64L152.77 109.12Z" fill="#4941C0"/>
<path d="M158.44 124.79C158.503 124.942 158.54 125.105 158.55 125.27C158.61 125.64 158.68 126.1 158.77 126.65C158.95 127.86 159.2 129.65 159.48 131.76C160.05 136.08 160.77 142.06 161.48 148.67C162.19 155.28 162.71 161.28 163.05 165.62C163.22 167.8 163.35 169.55 163.42 170.77C163.42 171.33 163.47 171.77 163.49 172.17C163.514 172.332 163.514 172.497 163.49 172.66C163.447 172.502 163.417 172.342 163.4 172.18C163.4 171.81 163.31 171.35 163.24 170.79C163.11 169.5 162.93 167.79 162.72 165.66C162.27 161.26 161.67 155.3 161 148.72C160.33 142.14 159.64 136.2 159.17 131.81L158.61 126.68C158.56 126.12 158.52 125.68 158.48 125.28C158.451 125.118 158.438 124.954 158.44 124.79V124.79Z" fill="#263238"/>
<path d="M111.12 129.41C111.03 129.41 111.12 128.11 110.68 126.08C110.169 123.425 109.007 120.94 107.298 118.845C105.589 116.751 103.387 115.113 100.89 114.08C98.9799 113.27 97.6799 113.08 97.6999 112.99C98.0061 112.973 98.313 113.003 98.6099 113.08C99.4277 113.234 100.231 113.458 101.01 113.75C103.61 114.731 105.904 116.383 107.659 118.538C109.413 120.693 110.566 123.274 111 126.02C111.134 126.842 111.195 127.676 111.18 128.51C111.209 128.811 111.189 129.115 111.12 129.41V129.41Z" fill="#263238"/>
<path d="M153.39 182.219C152.978 182.201 152.569 182.141 152.17 182.039C151.061 181.831 149.966 181.557 148.89 181.219C147.286 180.733 145.716 180.142 144.19 179.449C142.327 178.579 140.529 177.576 138.81 176.449C137.098 175.316 135.47 174.059 133.94 172.689C132.699 171.567 131.533 170.365 130.45 169.089C129.713 168.235 129.026 167.341 128.39 166.409C128.137 166.08 127.919 165.724 127.74 165.349C127.82 165.299 128.82 166.749 130.74 168.859C131.851 170.09 133.03 171.259 134.27 172.359C135.805 173.686 137.421 174.915 139.11 176.039C140.811 177.152 142.581 178.154 144.41 179.039C145.912 179.74 147.451 180.358 149.02 180.889C151.68 181.789 153.41 182.119 153.39 182.219Z" fill="#263238"/>
<path d="M110.46 220.53L110.94 226.01C110.94 226.01 115.15 228.21 116.66 229.75C118.17 231.29 122.58 239.47 122.58 239.47C122.186 239.855 121.668 240.088 121.119 240.126C120.569 240.165 120.023 240.006 119.58 239.68C118.442 238.307 117.406 236.853 116.48 235.33V235.33C116.094 235.253 115.695 235.274 115.319 235.391C114.943 235.508 114.603 235.717 114.328 236C114.054 236.282 113.855 236.628 113.748 237.007C113.642 237.386 113.632 237.786 113.72 238.17C114.29 240.62 114.94 243.48 114.95 243.86C114.96 244.24 117.41 246.59 119.25 248.28C119.506 248.502 119.683 248.801 119.755 249.132C119.827 249.463 119.79 249.808 119.649 250.117C119.508 250.425 119.272 250.68 118.975 250.842C118.677 251.005 118.335 251.067 118 251.02C117.859 250.998 117.73 250.931 117.63 250.83C117.63 250.83 117.84 253.44 114.25 251.36C114.25 251.36 111.07 252.13 109.51 250.36C109.51 250.36 105.59 249.82 104.2 248.69C102.81 247.56 99.6899 235.69 99.6899 235.69L97.8999 223.02L110.46 220.53Z" fill="#999999"/>
<path d="M110.14 239.52C110.049 240.235 110.066 240.959 110.19 241.67C110.306 243.435 110.837 245.148 111.74 246.67C112.768 248.08 114.147 249.197 115.74 249.91C116.362 250.272 117.037 250.535 117.74 250.69C117.189 250.252 116.592 249.877 115.96 249.57C114.498 248.783 113.228 247.683 112.24 246.35C111.393 244.906 110.842 243.308 110.62 241.65C110.538 240.924 110.377 240.21 110.14 239.52V239.52Z" fill="#6B6B6B"/>
<path d="M107.44 240.959C107.26 241.612 107.242 242.299 107.39 242.959C107.466 243.669 107.6 244.372 107.79 245.059C107.994 245.931 108.376 246.751 108.91 247.469C109.507 248.113 110.178 248.684 110.91 249.169L112.6 250.369C113.096 250.78 113.648 251.117 114.24 251.369C114.29 251.299 113.75 250.809 112.84 250.049C112.38 249.669 111.84 249.219 111.22 248.749C110.549 248.26 109.929 247.704 109.37 247.089C108.887 246.427 108.531 245.681 108.32 244.889C108.09 244.149 107.93 243.459 107.81 242.889C107.53 241.699 107.52 240.959 107.44 240.959Z" fill="#6B6B6B"/>
<path d="M104.46 242.87C104.24 242.87 104.79 245.04 105.62 247.53C105.74 247.873 105.947 248.179 106.22 248.42C106.432 248.639 106.663 248.84 106.91 249.02C107.308 249.341 107.737 249.623 108.19 249.86C108.97 250.27 109.52 250.36 109.54 250.29C109.56 250.22 109.09 250 108.4 249.52C107.992 249.244 107.601 248.943 107.23 248.62C107.014 248.433 106.807 248.237 106.61 248.03C106.4 247.845 106.239 247.611 106.14 247.35C105.74 246.08 105.32 244.97 105.02 244.16C104.882 243.71 104.694 243.277 104.46 242.87V242.87Z" fill="#6B6B6B"/>
<path d="M95.36 112.54C95.36 112.54 87.79 121.94 87.73 129.62C87.67 137.3 86.09 186.87 86.09 186.87L96.69 228.19L113.59 223.91L107.59 180.38L108.17 142.58L95.36 112.54Z" fill="#4941C0"/>
<path d="M96.6899 228.189C96.7799 228.139 96.8781 228.105 96.9799 228.089L97.8499 227.839L101.21 226.939L113.54 223.729L113.4 223.939C112.13 215.229 110.4 203.679 108.61 191.039C108.18 188.039 107.75 185.089 107.35 182.269C107.55 170.399 107.74 159.949 107.87 152.439C107.95 148.729 108.02 145.739 108.07 143.639C108.07 142.639 108.13 141.849 108.15 141.269C108.15 141.019 108.15 140.819 108.15 140.659C108.15 140.499 108.15 140.449 108.15 140.449C108.15 140.449 108.15 140.519 108.15 140.659C108.15 140.799 108.15 141.019 108.15 141.269V143.639C108.15 145.739 108.15 148.729 108.1 152.439C108.01 159.959 107.88 170.439 107.74 182.279C108.14 185.099 108.57 188.039 109 191.049C110.8 203.699 112.44 215.249 113.68 223.969V224.129H113.52L101.15 227.179L97.7699 227.979L96.8799 228.179L96.6899 228.189Z" fill="#263238"/>
<path d="M92.93 82.1194L86.49 70.7694C90.4824 64.2998 91.9104 56.5708 90.4932 49.1018C89.076 41.6327 84.9161 34.964 78.8314 30.4065C72.7466 25.849 65.1771 23.7325 57.611 24.473C50.0448 25.2135 43.0293 28.7575 37.9437 34.4082C32.858 40.059 30.07 47.4077 30.1278 55.0098C30.1857 62.6119 33.0851 69.9174 38.2561 75.4901C43.4272 81.0628 50.4957 84.4997 58.0723 85.125C65.6488 85.7503 73.1852 83.5189 79.2 78.8694V78.8694L92.93 82.1194Z" fill="white"/>
<path d="M92.93 82.1194L79.16 79.0194C79.1453 79.016 79.1314 79.0096 79.1193 79.0005C79.1071 78.9915 79.097 78.98 79.0895 78.9669C79.082 78.9538 79.0773 78.9392 79.0756 78.9242C79.074 78.9091 79.0755 78.8939 79.08 78.8794V78.8794L79.24 79.0394C75.0108 82.3533 69.9745 84.4796 64.65 85.1994C63.0573 85.4254 61.4476 85.509 59.84 85.4494C59.01 85.4494 58.17 85.3794 57.32 85.3094L54.75 84.9194C47.0949 83.4188 40.3001 79.0558 35.75 72.7194C33.2141 69.2154 31.458 65.2089 30.6 60.9694C29.7263 56.4876 29.8492 51.8685 30.96 47.4394C32.1059 42.8096 34.3413 38.5206 37.48 34.9294C40.6625 31.2439 44.6812 28.3739 49.2 26.5594C53.5318 24.8461 58.1934 24.1284 62.84 24.4594C67.2336 24.7629 71.5072 26.0259 75.36 28.1594C82.2682 32.0162 87.4332 38.3767 89.79 45.9294C90.7297 49.1434 91.1748 52.4816 91.11 55.8294C90.9508 61.1664 89.3809 66.3661 86.56 70.8994V70.7894L92.91 82.1994L86.37 70.8994C86.3604 70.8827 86.3553 70.8637 86.3553 70.8444C86.3553 70.8251 86.3604 70.8062 86.37 70.7894C89.133 66.2635 90.6573 61.0905 90.79 55.7894C90.8387 52.4806 90.3869 49.1833 89.45 46.0094C87.0996 38.5579 81.9817 32.2912 75.15 28.4994C71.3513 26.4039 67.1388 25.1682 62.81 24.8794C58.2315 24.5534 53.6382 25.2608 49.37 26.9494C44.9208 28.7404 40.9642 31.569 37.83 35.1994C34.7406 38.7385 32.5367 42.9612 31.4 47.5194C30.2991 51.8853 30.1761 56.4405 31.04 60.8594C31.8786 65.0384 33.6004 68.9899 36.09 72.4494C40.5799 78.7057 47.2781 83.0234 54.83 84.5294L57.36 84.9294C58.2 84.9994 59.04 85.0194 59.86 85.0694C61.4501 85.1386 63.0431 85.0649 64.62 84.8494C69.8934 84.1576 74.8912 82.0881 79.11 78.8494C79.1203 78.8385 79.1327 78.8299 79.1465 78.8239C79.1602 78.818 79.175 78.8149 79.19 78.8149C79.205 78.8149 79.2198 78.818 79.2336 78.8239C79.2473 78.8299 79.2597 78.8385 79.27 78.8494C79.2847 78.8698 79.2925 78.8943 79.2925 78.9194C79.2925 78.9446 79.2847 78.969 79.27 78.9894L79.21 78.7994L92.93 82.1194Z" fill="#263238"/>
<path d="M44.35 55.4895L48.72 51.1195L57.13 58.5995L73.65 42.7095L77.71 47.0695L56.51 67.0195L44.35 55.4895Z" fill="#4941C0"/>
</g>
<defs>
<clipPath id="clip0_15_2590">
<rect width="500" height="403" fill="white"/>
</clipPath>
</defs>
</svg>
