<svg xmlns="http://www.w3.org/2000/svg" viewBox="0 0 500 500"><g id="freepik--background-simple--inject-2"><path d="M373,90.82c-34.3-15.95-75.39-20.75-112.48-10.08-33.57,9.67-60.91,32.57-88.19,53.34C144.44,155.3,110,169.63,85.51,194.9,51.9,229.64,45,284,68.18,326.3,92,369.84,140,389.24,187.09,395c61.26,7.45,135.87.88,182.18-43.86,23.89-23.08,41.83-51.82,54.46-82.41,12.81-31.06,24.17-61.7,16.81-95.88C432.51,135.57,407.08,106.69,373,90.82Z" style="fill:#4941C0"></path><path d="M373,90.82c-34.3-15.95-75.39-20.75-112.48-10.08-33.57,9.67-60.91,32.57-88.19,53.34C144.44,155.3,110,169.63,85.51,194.9,51.9,229.64,45,284,68.18,326.3,92,369.84,140,389.24,187.09,395c61.26,7.45,135.87.88,182.18-43.86,23.89-23.08,41.83-51.82,54.46-82.41,12.81-31.06,24.17-61.7,16.81-95.88C432.51,135.57,407.08,106.69,373,90.82Z" style="fill:#fff;opacity:0.7000000000000001"></path></g><g id="freepik--Shadow--inject-2"><ellipse cx="247.07" cy="384.64" rx="211.84" ry="36.72" style="fill:#4941C0"></ellipse><ellipse cx="247.07" cy="384.64" rx="211.84" ry="36.72" style="fill:#fff;opacity:0.5"></ellipse></g><g id="freepik--notebook-2--inject-2"><polygon points="32.74 340.47 32.68 342.17 33.17 347.94 134.77 376.54 224.72 268.22 223.92 258.9 203.19 258.41 32.74 340.47" style="fill:#4941C0"></polygon><polygon points="223.61 258.62 125.71 234.6 32.74 340.47 132.35 368.48 223.61 258.62" style="fill:#fff;stroke:#263238;stroke-linecap:round;stroke-linejoin:round"></polygon><polyline points="223.61 258.62 224.46 268.54 134.77 376.54 132.35 368.48" style="fill:none;stroke:#263238;stroke-linecap:round;stroke-linejoin:round"></polyline><polyline points="134.77 376.54 33.17 347.94 32.56 340.74" style="fill:none;stroke:#263238;stroke-linecap:round;stroke-linejoin:round"></polyline><line x1="133.54" y1="372.44" x2="48.35" y2="348.51" style="fill:none;stroke:#263238;stroke-linecap:round;stroke-linejoin:round"></line><line x1="223.94" y1="265.59" x2="176.05" y2="321.29" style="fill:none;stroke:#263238;stroke-linecap:round;stroke-linejoin:round"></line><line x1="170.63" y1="326.49" x2="133.41" y2="370.94" style="fill:none;stroke:#263238;stroke-linecap:round;stroke-linejoin:round"></line><path d="M119.09,257.69c1.55,2.8,5.62,3.51,9.09,1.58s5-5.76,3.45-8.56-5.63-3.5-9.1-1.57S117.53,254.9,119.09,257.69Z" style="fill:none;stroke:#263238;stroke-miterlimit:10"></path><line x1="197.76" y1="278.25" x2="134.21" y2="260.71" style="fill:none;stroke:#263238;stroke-linecap:round;stroke-linejoin:round"></line><line x1="199.85" y1="275.76" x2="136.29" y2="258.23" style="fill:none;stroke:#263238;stroke-linecap:round;stroke-linejoin:round"></line><path d="M100.83,278.12c1.56,2.8,5.63,3.51,9.09,1.58s5-5.76,3.45-8.56-5.63-3.5-9.09-1.57S99.27,275.33,100.83,278.12Z" style="fill:none;stroke:#263238;stroke-miterlimit:10"></path><line x1="184.11" y1="296.94" x2="121.43" y2="279.65" style="fill:none;stroke:#263238;stroke-linecap:round;stroke-linejoin:round"></line><line x1="186.27" y1="294.48" x2="123.52" y2="277.17" style="fill:none;stroke:#263238;stroke-linecap:round;stroke-linejoin:round"></line><line x1="170.63" y1="311.51" x2="106.01" y2="293.67" style="fill:none;stroke:#263238;stroke-linecap:round;stroke-linejoin:round"></line><line x1="172.76" y1="309.04" x2="108.09" y2="291.19" style="fill:none;stroke:#263238;stroke-linecap:round;stroke-linejoin:round"></line><ellipse cx="87.28" cy="297.18" rx="7.18" ry="5.8" transform="translate(-133.57 80.02) rotate(-29.12)" style="fill:none;stroke:#263238;stroke-miterlimit:10"></ellipse><line x1="156.03" y1="328.3" x2="91.38" y2="310.47" style="fill:none;stroke:#263238;stroke-linecap:round;stroke-linejoin:round"></line><line x1="158.07" y1="325.81" x2="93.47" y2="307.99" style="fill:none;stroke:#263238;stroke-linecap:round;stroke-linejoin:round"></line><path d="M59.89,324.79c1.55,2.79,5.63,3.5,9.09,1.57s5-5.76,3.45-8.56-5.63-3.5-9.1-1.57S58.33,322,59.89,324.79Z" style="fill:none;stroke:#263238;stroke-miterlimit:10"></path><line x1="138.22" y1="349.15" x2="74.67" y2="331.61" style="fill:none;stroke:#263238;stroke-linecap:round;stroke-linejoin:round"></line><line x1="140.31" y1="346.66" x2="76.76" y2="329.13" style="fill:none;stroke:#263238;stroke-linecap:round;stroke-linejoin:round"></line><path d="M123.2,250.33s-.63,6.08.64,6.85c1.76-1.75,10.52-9.68,10.52-9.68" style="fill:none;stroke:#4941C0;stroke-linecap:round;stroke-linejoin:round;stroke-width:3px"></path><path d="M86,295s-1.23,6,0,6.89c1.93-1.57,11.44-8.59,11.44-8.59" style="fill:none;stroke:#4941C0;stroke-linecap:round;stroke-linejoin:round;stroke-width:3px"></path><line x1="109.15" y1="282.28" x2="105.39" y2="266.68" style="fill:none;stroke:#263238;stroke-linecap:round;stroke-linejoin:round;stroke-width:3px"></line><line x1="69.21" y1="329.54" x2="65.45" y2="313.94" style="fill:none;stroke:#263238;stroke-linecap:round;stroke-linejoin:round;stroke-width:3px"></line><line x1="99.27" y1="279.65" x2="113.91" y2="269.48" style="fill:none;stroke:#263238;stroke-linecap:round;stroke-linejoin:round;stroke-width:3px"></line><line x1="58.13" y1="326.38" x2="72.77" y2="316.21" style="fill:none;stroke:#263238;stroke-linecap:round;stroke-linejoin:round;stroke-width:3px"></line></g><g id="freepik--Wrench--inject-2"><path d="M113.37,228l68.48,83.8a18.4,18.4,0,0,0,24.08,25.28l-14.27-17.5,6.89-5.58,14.29,17.52a18.4,18.4,0,0,0-20-28.67l-68.49-83.9c-.07-.09,1.79-4.66,1.92-5.25,1.35-5.93.83-12.73-2.76-17.79-5.84-8.22-15.93-8.78-24.71-5.43a26.26,26.26,0,0,0-6.1,3.19l17.61,19.46-3,3.15L90.63,195.53c-7.1,2.29-11,10.64-6.74,22.53,1,2.75,11,5.27,13.18,6.89a18.38,18.38,0,0,0,16.28,2.91Z" style="fill:#263238"></path><path d="M105.8,228l68.48,83.8a18.4,18.4,0,0,0,24.07,25.28l-14.27-17.5L191,314l14.3,17.52a18.4,18.4,0,0,0-20-28.67l-68.49-83.9a18.4,18.4,0,0,0-24.08-25.28l13.9,17-6.91,5.57-13.9-17a18.37,18.37,0,0,0,19.94,28.65Z" style="fill:#4941C0;stroke:#263238;stroke-linecap:round;stroke-linejoin:round;stroke-width:1.2565400000000002px"></path><path d="M112.65,223.36a2.08,2.08,0,1,1-2.08-2.07A2.08,2.08,0,0,1,112.65,223.36Z" style="fill:#263238"></path><line x1="150.35" y1="277.71" x2="173.99" y2="307.15" style="fill:#4941C0;stroke:#263238;stroke-linecap:round;stroke-linejoin:round;stroke-width:1.2565400000000002px"></line><line x1="139.75" y1="264.51" x2="146" y2="272.29" style="fill:#4941C0;stroke:#263238;stroke-linecap:round;stroke-linejoin:round;stroke-width:1.2565400000000002px"></line></g><g id="freepik--Pen--inject-2"><path d="M402.74,420.15l-8.61.62-8.87.63L214.12,433.58l-25.73-8.06-11-3.44L188,417l24.13-11.7,169.55-12.06,10-.72,9.13-.64.42,1A39.42,39.42,0,0,1,402.74,420.15Z" style="fill:#4941C0"></path><rect x="211.79" y="417.52" width="187.82" height="3.49" transform="translate(-27.51 21.52) rotate(-3.86)" style="fill:#263238"></rect><rect x="209.73" y="404.84" width="187.82" height="3.49" transform="translate(-26.66 21.34) rotate(-3.86)" style="fill:#263238"></rect><path d="M402.74,420.15l-8.61.62-9.74.69c.79-11-1.54-23.94-2.74-28.27l10-.72,9.13-.64.42,1A39.42,39.42,0,0,1,402.74,420.15Z" style="fill:#fff"></path><path d="M214.12,433.58l-25.73-8.06-11-3.44L188,417l24.13-11.7C222.33,421.3,214.12,433.58,214.12,433.58Z" style="fill:#fff"></path><path d="M188.39,425.52l-11-3.44L188,417A13.47,13.47,0,0,1,188.39,425.52Z" style="fill:#263238"></path><path d="M214.12,433.58s8.79-14-2-28.33" style="fill:none;stroke:#263238;stroke-linecap:round;stroke-linejoin:round"></path><path d="M402.74,420.15l-8.61.62c.18-1.21.32-2.42.42-3.62a71.12,71.12,0,0,0-2.95-24.68l9.13-.64.42,1a39.44,39.44,0,0,1,1.59,27.35Z" style="fill:#263238"></path><path d="M402.74,420.15,214.12,433.58l-25.73-8.06-11-3.44L188,417l24.13-11.7,188.63-13.42.42,1a39.51,39.51,0,0,1,1.59,27.36Z" style="fill:none;stroke:#263238;stroke-linecap:round;stroke-linejoin:round"></path><path d="M402.74,420.15l-8.61.62c.18-1.21.32-2.42.42-3.62l9.81-11.37A39.21,39.21,0,0,1,402.74,420.15Z" style="fill:#fff;opacity:0.1"></path><path d="M381.65,393.19s3.92,18,2.74,28.27" style="fill:none;stroke:#263238;stroke-miterlimit:10"></path></g><g id="freepik--Graphics--inject-2"><path d="M362.81,163.74a.31.31,0,0,0,.35-.1l3.8-5.07a.29.29,0,0,0,0-.36l-3.49-4.33a25.85,25.85,0,0,0,1.88-5.54l5.5-1.28a.31.31,0,0,0,.24-.28l.18-6.33a.29.29,0,0,0-.22-.29l-5.44-1.55a25.21,25.21,0,0,0-3.66-9.46L365,124.3a.27.27,0,0,0,0-.35l-4.36-4.61a.3.3,0,0,0-.36-.06l-5,2.82a25.85,25.85,0,0,0-5-2.76l-.26-5.79a.27.27,0,0,0-.25-.26l-6.2-1.28a.3.3,0,0,0-.33.15l-2.53,5.24a25.38,25.38,0,0,0-5.63.57l-3.53-4.62a.32.32,0,0,0-.35-.1l-5.82,2.52a.31.31,0,0,0-.18.31l.93,5.71a25.37,25.37,0,0,0-3.19,2.56c-.37.34-.73.71-1.14,1.15l-5.5-1.73a.3.3,0,0,0-.34.12l-3.34,5.39a.29.29,0,0,0,0,.36l4,4.09a25.56,25.56,0,0,0-1.43,5.58L309.78,141a.33.33,0,0,0-.21.3l.39,6.34a.29.29,0,0,0,.24.26l5.49,1.08a25.15,25.15,0,0,0,2.06,5.5L314.37,159a.3.3,0,0,0,0,.37l3.94,5a.29.29,0,0,0,.3,0l5-2.23a25.45,25.45,0,0,0,4.88,3.35l-.21,5.49a.31.31,0,0,0,.21.29l6.08,1.82a.28.28,0,0,0,.33-.13l2.84-4.68a26.22,26.22,0,0,0,5.94-.08l3,4.62a.3.3,0,0,0,.34.11l6-2a.29.29,0,0,0,.19-.3l-.35-5.48a25.46,25.46,0,0,0,4.77-3.48Zm-33-32.11a15.53,15.53,0,1,1-.63,22A15.54,15.54,0,0,1,329.77,131.63Z" style="fill:#263238"></path><path d="M305.82,169.26a.29.29,0,0,0,0-.39l-3.24-3.05a21.54,21.54,0,0,0,1.54-4.5l4.47-.38a.29.29,0,0,0,.28-.27l.2-6.59a.29.29,0,0,0-.27-.28l-4.49-.65a21.09,21.09,0,0,0-3-7.77l2.95-3.54a.28.28,0,0,0,0-.38l-4.53-4.79a.28.28,0,0,0-.39,0l-3.71,2.76a21.46,21.46,0,0,0-4-2.24l.41-4.62a.3.3,0,0,0-.23-.33l-6.47-1.33a.28.28,0,0,0-.33.19l-1.46,4.43a21.31,21.31,0,0,0-4.58.46l-2.32-4a.32.32,0,0,0-.37-.13l-6.05,2.62a.29.29,0,0,0-.17.35l1.35,4.44a23.17,23.17,0,0,0-2.62,2.1c-.29.28-.58.56-.9.92l-4.19-2a.29.29,0,0,0-.37.11L259.78,146a.28.28,0,0,0,.06.39l3.59,2.82a21.67,21.67,0,0,0-1.18,4.54l-4.47.78a.29.29,0,0,0-.24.31l.38,6.59a.3.3,0,0,0,.27.28l4.47.24a20.89,20.89,0,0,0,1.66,4.47l-3.15,3.14a.28.28,0,0,0,0,.39l4.1,5.14,0,0a.28.28,0,0,0,.39,0l3.75-2.32a22,22,0,0,0,4,2.72l-.77,4.33a.29.29,0,0,0,.2.33l6.33,1.89a.29.29,0,0,0,.34-.16l1.73-4a21,21,0,0,0,4.82-.08l1.85,4a.29.29,0,0,0,.35.15l6.25-2.06a.29.29,0,0,0,.19-.34l-.9-4.28a22.37,22.37,0,0,0,3.9-2.84l3.82,2.21a.3.3,0,0,0,.38-.08Zm-31.88-3.69a12.88,12.88,0,0,1,18.74-17.67v0l.24.27a12.87,12.87,0,0,1-19,17.38Z" style="fill:none;stroke:#263238;stroke-miterlimit:10"></path><path d="M296.92,113.34a.17.17,0,0,0,0,.23l2.41,3,0,0a.16.16,0,0,0,.22,0l2.21-1.37a12.16,12.16,0,0,0,2.34,1.61l-.45,2.54a.15.15,0,0,0,.11.19l3.72,1.12a.17.17,0,0,0,.2-.1l1-2.37a12.27,12.27,0,0,0,2.84,0l1.08,2.34a.18.18,0,0,0,.21.08l3.67-1.2a.18.18,0,0,0,.11-.2l-.52-2.53a13.37,13.37,0,0,0,2.29-1.66l2.24,1.3a.17.17,0,0,0,.22,0l2.32-3.11a.15.15,0,0,0,0-.22l-1.9-1.8a12.36,12.36,0,0,0,.9-2.65l2.63-.22a.18.18,0,0,0,.17-.16l.11-3.88a.17.17,0,0,0-.15-.16l-2.64-.39a12.55,12.55,0,0,0-1.78-4.56l1.74-2.08a.18.18,0,0,0,0-.23L319.56,94a.16.16,0,0,0-.22,0l-2.19,1.63a12.48,12.48,0,0,0-2.37-1.32l.25-2.72a.18.18,0,0,0-.14-.19l-3.8-.78a.16.16,0,0,0-.2.11l-.86,2.6a12.79,12.79,0,0,0-2.69.27L306,91.22a.15.15,0,0,0-.21-.07l-3.56,1.53a.18.18,0,0,0-.1.21l.79,2.61a12.11,12.11,0,0,0-1.53,1.23c-.17.16-.34.33-.54.54l-2.46-1.15a.15.15,0,0,0-.21.07l-2,3.3a.19.19,0,0,0,0,.23l2.11,1.66a12.19,12.19,0,0,0-.69,2.67l-2.63.45a.18.18,0,0,0-.15.18l.23,3.87a.17.17,0,0,0,.16.17l2.62.14a12.57,12.57,0,0,0,1,2.63Zm18.21-2h0a7.58,7.58,0,1,1,.32-10.71h0A7.57,7.57,0,0,1,315.13,111.32Z" style="fill:none;stroke:#263238;stroke-miterlimit:10"></path></g><g id="freepik--Notebook--inject-2"><polygon points="434.95 374.42 447.62 352.47 309.5 356.25 281.89 202.46 271.75 226.33 294.01 376.25 434.95 374.42" style="fill:#4941C0"></polygon><polygon points="447.62 352.47 309.5 356.25 281.89 199.63 410.73 195.53 413.46 225.8 447.62 352.47" style="fill:#fff;stroke:#263238;stroke-linecap:round;stroke-linejoin:round"></polygon><polyline points="447.62 352.47 434.95 374.42 294.01 376.25 271.75 226.33 281.89 199.63" style="fill:none;stroke:#263238;stroke-linecap:round;stroke-linejoin:round"></polyline><path d="M281.89,199.63s11,82.1,54.27,140.89L462,335.64s-48.53-83.59-51.26-140.11Z" style="fill:#fff;stroke:#263238;stroke-linecap:round;stroke-linejoin:round"></path><path d="M397.2,210a3.88,3.88,0,1,0,3.88-3.87A3.88,3.88,0,0,0,397.2,210Z" style="fill:#263238"></path><path d="M380.52,210.71a3.88,3.88,0,1,0,3.88-3.87A3.87,3.87,0,0,0,380.52,210.71Z" style="fill:#263238"></path><circle cx="349.31" cy="212.08" r="3.88" transform="translate(-58.71 189.37) rotate(-28.08)" style="fill:#263238"></circle><path d="M328.29,212.57a3.88,3.88,0,1,0,3.88-3.87A3.87,3.87,0,0,0,328.29,212.57Z" style="fill:#263238"></path><path d="M303.24,214.59a2.29,2.29,0,0,1-4.57,0,58.29,58.29,0,0,0-.87-8.92c-.85-4.81-2.52-10.43-5.83-13.7a8.59,8.59,0,0,0-6.31-2.63h-.09a5.92,5.92,0,0,0-4.94,2.21c-2.9,3.69-2.61,11.31-1.89,16.39l-3,8c-.3-1.35-4.52-19.76,1.34-27.22a10.5,10.5,0,0,1,8.5-4,13.24,13.24,0,0,1,9.65,4C303.15,196.63,303.24,213.86,303.24,214.59Z" style="fill:#263238"></path><path d="M318.86,213.4a2.28,2.28,0,0,1-4.56,0,59.12,59.12,0,0,0-.88-8.92c-.84-4.82-2.51-10.43-5.82-13.71a8.51,8.51,0,0,0-6.4-2.63,6,6,0,0,0-4.94,2.22c-1.65,2.1-2.26,5.46-2.36,8.89l-4.56.14c.1-4.27.9-8.77,3.33-11.85a10.44,10.44,0,0,1,8.49-4,13.12,13.12,0,0,1,9.66,4C318.77,195.43,318.86,212.67,318.86,213.4Z" style="fill:#263238"></path><path d="M334.84,213.4a2.29,2.29,0,0,1-4.57,0,58.29,58.29,0,0,0-.87-8.92c-.84-4.82-2.52-10.43-5.83-13.71a8.54,8.54,0,0,0-6.4-2.63,5.93,5.93,0,0,0-4.93,2.22c-1.57,2-2.21,5.12-2.35,8.37l-4.56.15c.15-4.11,1-8.37,3.32-11.34a10.43,10.43,0,0,1,8.49-4,13.07,13.07,0,0,1,9.65,4C334.75,195.43,334.84,212.67,334.84,213.4Z" style="fill:#263238"></path><path d="M350.93,211.37a2.28,2.28,0,0,1-4.56,0,59.12,59.12,0,0,0-.88-8.92c-.85-4.81-2.53-10.43-5.82-13.7a8.61,8.61,0,0,0-6.32-2.63h-.08a5.91,5.91,0,0,0-4.94,2.21c-1.81,2.3-2.38,6.13-2.38,9.91l-4.55.13c0-4.55.72-9.52,3.34-12.86a10.5,10.5,0,0,1,8.49-4h.12a13.12,13.12,0,0,1,9.54,4C350.84,193.4,350.93,210.64,350.93,211.37Z" style="fill:#263238"></path><path d="M368,210.43a2.29,2.29,0,1,1-4.57,0,58.29,58.29,0,0,0-.87-8.92c-.85-4.81-2.52-10.43-5.83-13.7a8.54,8.54,0,0,0-6.4-2.64,6,6,0,0,0-4.94,2.22c-1.86,2.37-2.41,6.33-2.38,10.2h-4.55c0-4.59.69-9.65,3.34-13a10.5,10.5,0,0,1,8.49-4,13.14,13.14,0,0,1,9.66,4C367.87,192.47,368,209.71,368,210.43Z" style="fill:#263238"></path><path d="M386.71,211.37a2.28,2.28,0,1,1-4.56,0,57.61,57.61,0,0,0-.88-8.92c-.85-4.81-2.52-10.43-5.82-13.7a8.61,8.61,0,0,0-6.32-2.63h-.08a5.91,5.91,0,0,0-4.94,2.21c-1.63,2.08-2.26,5.41-2.36,8.83l-4.55.08c.1-4.22.92-8.67,3.32-11.73a10.5,10.5,0,0,1,8.49-4h.12a13.12,13.12,0,0,1,9.54,4C386.62,193.4,386.71,210.64,386.71,211.37Z" style="fill:#263238"></path><path d="M403.66,210.43a2.29,2.29,0,0,1-4.57,0,58.29,58.29,0,0,0-.87-8.92c-.85-4.81-2.52-10.43-5.83-13.7a8.5,8.5,0,0,0-6.39-2.64,6,6,0,0,0-4.95,2.22c-1.69,2.15-2.3,5.62-2.37,9.13l-4.55.16c.07-4.34.86-9,3.33-12.11a10.51,10.51,0,0,1,8.5-4,13.17,13.17,0,0,1,9.65,4C403.57,192.47,403.66,209.71,403.66,210.43Z" style="fill:#263238"></path><path d="M296.34,213.87a3.88,3.88,0,1,0,3.88-3.87A3.87,3.87,0,0,0,296.34,213.87Z" style="fill:#263238"></path><path d="M362.57,211.37a3.88,3.88,0,1,0,3.88-3.88A3.89,3.89,0,0,0,362.57,211.37Z" style="fill:#263238"></path><path d="M312.31,213.09a3.88,3.88,0,1,0,3.88-3.87A3.88,3.88,0,0,0,312.31,213.09Z" style="fill:#263238"></path><line x1="274.37" y1="220.17" x2="280.78" y2="259.06" style="fill:#fff;stroke:#263238;stroke-linecap:round;stroke-linejoin:round"></line><line x1="281.89" y1="245.31" x2="287.4" y2="277.41" style="fill:#fff;stroke:#263238;stroke-linecap:round;stroke-linejoin:round"></line><line x1="399.94" y1="365.69" x2="301.35" y2="366.94" style="fill:none;stroke:#263238;stroke-linecap:round;stroke-linejoin:round"></line><line x1="309.5" y1="356.25" x2="294.01" y2="376.25" style="fill:#fff;stroke:#263238;stroke-linecap:round;stroke-linejoin:round"></line><polyline points="295.65 307.62 305.75 361.08 345.86 359.82" style="fill:none;stroke:#263238;stroke-linecap:round;stroke-linejoin:round"></polyline><line x1="295.65" y1="334.35" x2="285.55" y2="280.89" style="fill:#fff;stroke:#263238;stroke-linecap:round;stroke-linejoin:round"></line><line x1="443.52" y1="359.58" x2="381.89" y2="361.09" style="fill:none;stroke:#263238;stroke-linecap:round;stroke-linejoin:round"></line><line x1="318.95" y1="295.26" x2="384.4" y2="293.47" style="fill:#fff;stroke:#263238;stroke-linecap:round;stroke-linejoin:round"></line><line x1="320.86" y1="299.61" x2="393.29" y2="297.63" style="fill:#fff;stroke:#263238;stroke-linecap:round;stroke-linejoin:round"></line><line x1="323.51" y1="304.87" x2="384.4" y2="303.21" style="fill:#fff;stroke:#263238;stroke-linecap:round;stroke-linejoin:round"></line><line x1="326.35" y1="310.13" x2="394.02" y2="308.28" style="fill:#fff;stroke:#263238;stroke-linecap:round;stroke-linejoin:round"></line><line x1="307.53" y1="267.4" x2="377.48" y2="265.48" style="fill:#fff;stroke:#263238;stroke-linecap:round;stroke-linejoin:round"></line><line x1="310.02" y1="271.36" x2="384.4" y2="269.32" style="fill:#fff;stroke:#263238;stroke-linecap:round;stroke-linejoin:round"></line><line x1="311.31" y1="275.46" x2="369.13" y2="273.88" style="fill:#fff;stroke:#263238;stroke-linecap:round;stroke-linejoin:round"></line><line x1="300.07" y1="241.55" x2="366.73" y2="239.73" style="fill:#fff;stroke:#263238;stroke-linecap:round;stroke-linejoin:round"></line><line x1="301.6" y1="245.92" x2="346.78" y2="244.69" style="fill:#fff;stroke:#263238;stroke-linecap:round;stroke-linejoin:round"></line><line x1="298.99" y1="237.07" x2="374.24" y2="235.02" style="fill:#fff;stroke:#263238;stroke-linecap:round;stroke-linejoin:round"></line><ellipse cx="390.33" cy="238.75" rx="7.98" ry="9.87" transform="translate(12.48 496.79) rotate(-65.78)" style="fill:#fff;stroke:#263238;stroke-linecap:round;stroke-linejoin:round"></ellipse><polyline points="384.4 235.99 392.43 242.1 402.18 222.22" style="fill:none;stroke:#4941C0;stroke-linecap:round;stroke-linejoin:round;stroke-width:4px"></polyline><ellipse cx="399.94" cy="265.46" rx="7.98" ry="9.87" transform="translate(-6.21 521.31) rotate(-65.78)" style="fill:#fff;stroke:#263238;stroke-linecap:round;stroke-linejoin:round"></ellipse><path d="M421.43,298c-1.8,4-7.3,5.46-12.27,3.23s-7.53-7.31-5.73-11.32,7.3-5.47,12.27-3.23S423.24,294,421.43,298Z" style="fill:#fff;stroke:#263238;stroke-linecap:round;stroke-linejoin:round"></path><polyline points="406.51 289.98 414.54 296.09 424.28 276.21" style="fill:none;stroke:#4941C0;stroke-linecap:round;stroke-linejoin:round;stroke-width:4px"></polyline><line x1="390.24" y1="255.87" x2="411.96" y2="275.08" style="fill:none;stroke:#263238;stroke-linecap:round;stroke-linejoin:round;stroke-width:4px"></line><line x1="395.09" y1="277.63" x2="404.73" y2="253.13" style="fill:none;stroke:#263238;stroke-linecap:round;stroke-linejoin:round;stroke-width:4px"></line></g><g id="freepik--Device--inject-2"><path d="M279.61,165.25V366.42a9.38,9.38,0,0,1-.42,2.77,9.2,9.2,0,0,1-8.78,6.44H171a9.2,9.2,0,0,1-9.2-9.21V165.25a9.22,9.22,0,0,1,9.2-9.2h99.42A9.2,9.2,0,0,1,279.61,165.25Z" style="fill:#263238"></path><path d="M279.61,165.25V366.42a9.38,9.38,0,0,1-.42,2.77L163.67,159.69a9.16,9.16,0,0,1,7.32-3.64h99.42A9.2,9.2,0,0,1,279.61,165.25Z" style="fill:#fff;opacity:0.1"></path><path d="M279.61,165.25V366.42a9.38,9.38,0,0,1-.42,2.77,9.2,9.2,0,0,1-8.78,6.44H171a9.2,9.2,0,0,1-9.2-9.21V165.25a9.22,9.22,0,0,1,9.2-9.2h99.42A9.2,9.2,0,0,1,279.61,165.25Z" style="fill:none;stroke:#263238;stroke-miterlimit:10"></path><rect x="168.11" y="176.65" width="105.38" height="174.47" style="fill:#fff"></rect><rect x="173.19" y="184.76" width="2.38" height="3.25" style="fill:#263238"></rect><rect x="176.44" y="182.51" width="2.38" height="5.5" style="fill:#263238"></rect><rect x="179.94" y="179.49" width="2.38" height="8.52" style="fill:#263238"></rect><rect x="260.49" y="182.51" width="9.44" height="5.17" style="fill:none;stroke:#263238;stroke-linecap:round;stroke-linejoin:round;stroke-width:0.821067px"></rect><rect x="260.49" y="182.51" width="7.36" height="5.17" style="fill:#263238;stroke:#263238;stroke-linecap:round;stroke-linejoin:round;stroke-width:0.725073px"></rect><rect x="269.91" y="183.96" width="1.33" height="2.28" style="fill:#263238;stroke:#263238;stroke-linecap:round;stroke-linejoin:round;stroke-width:0.725073px"></rect><circle cx="220.7" cy="363.83" r="5.35" style="fill:#fff;opacity:0.1"></circle><rect x="168.11" y="176.65" width="105.38" height="174.47" style="fill:none;stroke:#263238;stroke-miterlimit:10"></rect><rect x="181.14" y="358.61" width="8.18" height="8.18" style="fill:none;stroke:#fff;stroke-miterlimit:10;opacity:0.1"></rect><path d="M257.66,219.86a.27.27,0,0,0-.26-.23l-5.25-.41a24.23,24.23,0,0,0-2.6-4.9l2.7-4.62a.28.28,0,0,0,0-.34L248,205.11a.27.27,0,0,0-.34,0L243,207.81a23.7,23.7,0,0,0-8.9-3.63l-1.33-5.27a.27.27,0,0,0-.27-.21h-6a.28.28,0,0,0-.27.21l-1.34,5.3a24.13,24.13,0,0,0-5.13,1.63l-4.15-3.59a.29.29,0,0,0-.35,0l-4.92,3.45a.27.27,0,0,0-.1.32l2,5.15a24.6,24.6,0,0,0-3.27,4.26l-5.48-.57a.3.3,0,0,0-.3.18l-2.05,5.64a.28.28,0,0,0,.11.33l4.54,3.08a23.75,23.75,0,0,0-.32,3.86c0,.48,0,1,.06,1.53l-4.78,2.68a.26.26,0,0,0-.13.31l1.54,5.8a.26.26,0,0,0,.27.21l5.4-.07A24.94,24.94,0,0,0,210.7,243l-2.33,4.84a.27.27,0,0,0,.08.34l4.61,3.86a.27.27,0,0,0,.34,0l4.32-3.08a24.06,24.06,0,0,0,5.12,2.16l.89,5.24a.3.3,0,0,0,.26.23l6,.51a.31.31,0,0,0,.22-.18l1.74-4.93a24,24,0,0,0,5.49-1.19l3.66,3.71a.29.29,0,0,0,.33.06l5.2-3a.28.28,0,0,0,.13-.31l-1.38-5a24.52,24.52,0,0,0,3.8-4.15l5.14.94a.25.25,0,0,0,.29-.16l2.54-5.44a.29.29,0,0,0-.07-.34l-4-3.3a23.81,23.81,0,0,0,.7-5.57l4.77-2.17a.28.28,0,0,0,.17-.3Zm-28,22.84a14.73,14.73,0,0,1,0-29.45h0a14.73,14.73,0,0,1,0,29.46Z" style="fill:#4941C0;stroke:#263238;stroke-linecap:round;stroke-linejoin:round"></path><path d="M225.26,269a.27.27,0,0,0-.29-.23l-4.21.26a19.31,19.31,0,0,0-2.12-4l2.66-3.34a.29.29,0,0,0,0-.37l-4.42-4.42a.29.29,0,0,0-.37,0l-3.37,2.68a19.65,19.65,0,0,0-7.31-3l-.52-4.34A.27.27,0,0,0,205,252h-6.25a.29.29,0,0,0-.28.25l-.51,4.37a19.5,19.5,0,0,0-4.16,1.3l-2.92-3.29a.27.27,0,0,0-.37,0l-5.13,3.59a.28.28,0,0,0-.09.36l2.11,3.88a19.77,19.77,0,0,0-2.67,3.45l-4.29-1a.28.28,0,0,0-.33.17L178,270.88a.26.26,0,0,0,.14.35l3.93,2a20.82,20.82,0,0,0-.25,3.16c0,.37,0,.76,0,1.22l-4.07,1.61a.27.27,0,0,0-.17.33l1.62,6a.26.26,0,0,0,.3.21l4.28-.64a20.24,20.24,0,0,0,2.37,3.77l-2.38,3.58a.3.3,0,0,0,0,.38l4.8,4a.3.3,0,0,0,.36,0l3.09-2.93a20,20,0,0,0,4.15,1.76l.12,4.22a.26.26,0,0,0,.25.26l6.22.52h0a.29.29,0,0,0,.29-.24l.84-4.1a19.85,19.85,0,0,0,4.45-1l2.49,3.34a.27.27,0,0,0,.36.07l5.41-3.12a.27.27,0,0,0,.11-.35l-1.65-3.81a20.14,20.14,0,0,0,3.09-3.37l3.93,1.31a.28.28,0,0,0,.34-.15l2.65-5.64a.28.28,0,0,0-.11-.35l-3.54-2.18a20.29,20.29,0,0,0,.58-4.52l4-1.2a.29.29,0,0,0,.2-.31Zm-11.08,7.38A12.2,12.2,0,1,1,202,264.13v0a12.21,12.21,0,0,1,12.2,12.19Z" style="fill:#4941C0;stroke:#263238;stroke-linecap:round;stroke-linejoin:round"></path><rect x="191.5" y="313.58" width="57.23" height="22.47" rx="10.95" style="fill:#4941C0;stroke:#263238;stroke-linecap:round;stroke-linejoin:round"></rect><path d="M201.57,324.25a4,4,0,0,1,6.83-2.54l-.88.82a2.61,2.61,0,0,0-2-.85,2.58,2.58,0,1,0,0,5.15,2.56,2.56,0,0,0,2-.87l.88.84a4,4,0,0,1-6.83-2.55Z" style="fill:#263238"></path><path d="M216.22,320.59v7.33h-1.36v-3.14h-3.79v3.14h-1.36v-7.33h1.36v3h3.79v-3Z" style="fill:#263238"></path><path d="M223.69,326.78v1.14H218.2v-7.33h5.35v1.14h-4v1.9h3.54v1.12h-3.54v2Z" style="fill:#263238"></path><path d="M224.66,324.25a4,4,0,0,1,6.83-2.54l-.88.82a2.58,2.58,0,0,0-2-.85,2.58,2.58,0,1,0,0,5.15,2.53,2.53,0,0,0,2-.87l.88.84a4,4,0,0,1-6.83-2.55Z" style="fill:#263238"></path><path d="M235.33,324.85,234.16,326v1.88H232.8v-7.33h1.36v3.76l3.63-3.76h1.53l-3.08,3.27,3.26,4.06h-1.59Z" style="fill:#263238"></path><polygon points="254.15 367.34 254.15 359.16 262.33 363.25 254.15 367.34" style="fill:none;stroke:#fff;stroke-miterlimit:10;opacity:0.1"></polygon></g></svg>