<svg width="500" height="298" viewBox="0 0 500 298" fill="none" xmlns="http://www.w3.org/2000/svg">
<g clip-path="url(#clip0_12_847)">
<rect width="500" height="298" fill="white"/>
<path d="M437.24 291.57C440.16 280.89 449.67 245.04 456.13 208.73C463.83 165.38 470.57 105.67 439.75 80.62C408.93 55.57 368.47 85.44 347.28 75.81C326.09 66.18 325.13 18.01 268.28 3.56997C211.43 -10.87 179.66 39.2 154.62 66.17C129.58 93.14 101.62 74.84 65.0399 103.74C28.8399 132.32 59.5399 261.74 86.3099 291.57H437.24Z" fill="#4941C0"/>
<path opacity="0.7" d="M437.24 291.57C440.16 280.89 449.67 245.04 456.13 208.73C463.83 165.38 470.57 105.67 439.75 80.62C408.93 55.57 368.47 85.44 347.28 75.81C326.09 66.18 325.13 18.01 268.28 3.56997C211.43 -10.87 179.66 39.2 154.62 66.17C129.58 93.14 101.62 74.84 65.0399 103.74C28.8399 132.32 59.5399 261.74 86.3099 291.57H437.24Z" fill="white"/>
<path d="M447.21 88.71H368.71C368.329 88.7126 367.964 88.8651 367.695 89.1346C367.425 89.4041 367.273 89.7688 367.27 90.1499V292.15C367.27 292.533 367.421 292.9 367.691 293.172C367.961 293.443 368.327 293.597 368.71 293.6H447.21C447.595 293.6 447.963 293.447 448.235 293.175C448.507 292.903 448.66 292.535 448.66 292.15V90.1499C448.657 89.7671 448.503 89.4009 448.232 89.1311C447.96 88.8613 447.593 88.71 447.21 88.71V88.71ZM445.77 290.71H370.16V91.6H445.77V290.71Z" fill="white"/>
<path d="M375.64 133.16H440.29C440.48 133.16 440.668 133.122 440.843 133.049C441.019 132.976 441.178 132.869 441.312 132.735C441.446 132.6 441.551 132.44 441.623 132.264C441.695 132.088 441.731 131.9 441.73 131.71V97.5799C441.731 97.3905 441.695 97.2026 441.623 97.0273C441.551 96.852 441.445 96.6927 441.311 96.5587C441.177 96.4248 441.018 96.3187 440.843 96.2468C440.667 96.1749 440.479 96.1386 440.29 96.1399H375.64C375.45 96.1386 375.262 96.1749 375.086 96.2467C374.91 96.3184 374.75 96.4243 374.615 96.5581C374.48 96.692 374.373 96.8512 374.301 97.0265C374.228 97.2019 374.19 97.39 374.19 97.5799V131.71C374.19 132.094 374.343 132.463 374.615 132.735C374.887 133.007 375.255 133.16 375.64 133.16V133.16ZM377.08 98.9999H438.84V130.24H377.08V98.9999Z" fill="white"/>
<path d="M375.64 181.64H440.29C440.479 181.641 440.667 181.605 440.843 181.533C441.018 181.461 441.177 181.355 441.311 181.221C441.445 181.087 441.551 180.928 441.623 180.753C441.695 180.577 441.731 180.389 441.73 180.2V146.07C441.731 145.88 441.695 145.692 441.623 145.516C441.551 145.34 441.446 145.18 441.312 145.045C441.178 144.911 441.019 144.804 440.843 144.731C440.668 144.658 440.48 144.62 440.29 144.62H375.64C375.255 144.62 374.887 144.773 374.615 145.045C374.343 145.317 374.19 145.685 374.19 146.07V180.2C374.19 180.39 374.228 180.578 374.301 180.753C374.373 180.929 374.48 181.088 374.615 181.222C374.75 181.356 374.91 181.461 375.086 181.533C375.262 181.605 375.45 181.641 375.64 181.64ZM377.08 147.51H438.84V178.76H377.08V147.51Z" fill="white"/>
<path d="M375.64 230.13H440.29C440.672 230.13 441.038 229.978 441.308 229.708C441.578 229.438 441.73 229.072 441.73 228.69V194.55C441.73 194.168 441.578 193.802 441.308 193.532C441.038 193.262 440.672 193.11 440.29 193.11H375.64C375.257 193.11 374.89 193.261 374.618 193.531C374.347 193.801 374.193 194.167 374.19 194.55V228.69C374.193 229.073 374.347 229.439 374.618 229.709C374.89 229.979 375.257 230.13 375.64 230.13V230.13ZM377.08 196H438.84V227.24H377.08V196Z" fill="white"/>
<path d="M375.64 278.62H440.29C440.48 278.62 440.668 278.582 440.843 278.509C441.019 278.436 441.178 278.329 441.312 278.195C441.446 278.06 441.551 277.9 441.623 277.724C441.695 277.548 441.731 277.36 441.73 277.17V243C441.731 242.81 441.695 242.623 441.623 242.447C441.551 242.272 441.445 242.113 441.311 241.979C441.177 241.845 441.018 241.739 440.843 241.667C440.667 241.595 440.479 241.559 440.29 241.56H375.64C375.45 241.559 375.262 241.595 375.086 241.667C374.91 241.738 374.75 241.844 374.615 241.978C374.481 242.112 374.374 242.271 374.301 242.447C374.228 242.622 374.19 242.81 374.19 243V277.13C374.185 277.324 374.218 277.517 374.289 277.697C374.359 277.878 374.465 278.042 374.6 278.181C374.735 278.32 374.897 278.431 375.076 278.506C375.254 278.581 375.446 278.62 375.64 278.62V278.62ZM377.08 244.49H438.84V275.73H377.08V244.49Z" fill="white"/>
<path d="M348.88 17H137.44C137.065 16.9999 136.705 17.1461 136.436 17.4076C136.167 17.669 136.01 18.0251 136 18.4V123.72C136 123.91 136.038 124.098 136.111 124.273C136.184 124.449 136.291 124.608 136.425 124.742C136.56 124.876 136.72 124.982 136.896 125.053C137.072 125.125 137.26 125.161 137.45 125.16H348.88C349.069 125.161 349.257 125.125 349.433 125.053C349.608 124.981 349.767 124.875 349.901 124.741C350.035 124.607 350.141 124.448 350.213 124.273C350.285 124.097 350.321 123.91 350.32 123.72V18.4C350.312 18.0243 350.157 17.6667 349.887 17.4047C349.618 17.1427 349.256 16.9973 348.88 17ZM347.43 19.89V117.61H138.88V19.85L347.43 19.89Z" fill="white"/>
<path d="M396.43 225.28L391.88 294C391.855 294.349 391.699 294.676 391.443 294.915C391.187 295.155 390.85 295.288 390.5 295.29V295.29C390.316 295.29 390.134 295.253 389.964 295.181C389.794 295.109 389.641 295.004 389.513 294.871C389.385 294.739 389.285 294.582 389.22 294.41C389.154 294.238 389.123 294.054 389.13 293.87L391 225.28H396.43Z" fill="#263238" stroke="#263238" stroke-linecap="round" stroke-linejoin="round"/>
<path d="M408.07 225.28L412.62 294C412.643 294.348 412.797 294.675 413.051 294.915C413.305 295.154 413.641 295.288 413.99 295.29V295.29C414.175 295.29 414.357 295.253 414.528 295.181C414.698 295.109 414.852 295.004 414.98 294.872C415.109 294.739 415.21 294.583 415.277 294.41C415.344 294.238 415.375 294.055 415.37 293.87L413.48 225.32L408.07 225.28Z" fill="#263238" stroke="#263238" stroke-linecap="round" stroke-linejoin="round"/>
<path d="M362.45 225.28L367 294C367.023 294.348 367.177 294.675 367.431 294.915C367.685 295.154 368.021 295.288 368.37 295.29V295.29C368.555 295.29 368.737 295.253 368.907 295.181C369.078 295.109 369.231 295.004 369.36 294.872C369.489 294.739 369.59 294.583 369.657 294.41C369.724 294.238 369.755 294.055 369.75 293.87L367.85 225.32L362.45 225.28Z" fill="#263238" stroke="#263238" stroke-linecap="round" stroke-linejoin="round"/>
<path d="M343.86 225.28L339.31 294C339.285 294.349 339.129 294.676 338.873 294.915C338.617 295.155 338.28 295.288 337.93 295.29V295.29C337.746 295.289 337.564 295.251 337.394 295.179C337.225 295.106 337.071 295.001 336.943 294.869C336.815 294.737 336.714 294.58 336.646 294.409C336.579 294.237 336.546 294.054 336.55 293.87L338.45 225.32L343.86 225.28Z" fill="#263238" stroke="#263238" stroke-linecap="round" stroke-linejoin="round"/>
<path d="M423.13 156C423.13 156 377.73 154.3 373.89 154.3C370.05 154.3 369.16 156 369.16 156L362.68 201.69C362.68 201.69 342.53 195.94 338.58 196.69C334.63 197.44 340.53 226.11 340.53 226.11H363.33L363.74 224.39H415.22L428.89 159.27C428.06 156.29 423.13 156 423.13 156Z" fill="white" stroke="#263238" stroke-linecap="round" stroke-linejoin="round"/>
<path d="M405.85 184.58C405.85 184.58 410.47 214.58 405.17 218.08C404.35 218.62 399.9 221.18 395.74 220.76C392.4 220.42 368.8 220.76 368.8 220.76C368.8 220.76 365.52 214.52 364.86 209.92C364.2 205.32 369.36 185.58 369.36 185.58L405.85 184.58Z" fill="white" stroke="#263238" stroke-linecap="round" stroke-linejoin="round"/>
<path d="M367.2 200.65C367.2 200.65 333.04 204.2 331.43 205.16C329.82 206.12 322.43 212.57 323.7 216.76C324.97 220.95 321.77 221.27 324.7 221.92C327.63 222.57 369.16 222.56 369.16 222.56" fill="#4941C0"/>
<path d="M367.2 200.65C367.2 200.65 333.04 204.2 331.43 205.16C329.82 206.12 322.43 212.57 323.7 216.76C324.97 220.95 321.77 221.27 324.7 221.92C327.63 222.57 369.16 222.56 369.16 222.56" stroke="#263238" stroke-linecap="round" stroke-linejoin="round"/>
<path d="M336.13 226.06H417.3V220H336.13V226.06Z" fill="white" stroke="#263238" stroke-linecap="round" stroke-linejoin="round"/>
<path d="M398.13 201.94H349.23C349.23 201.94 346.66 204.84 346.33 210.94C346 217.04 346.66 218.35 351.17 219.94C355.68 221.53 395.74 220.72 395.74 220.72" fill="#4941C0"/>
<path d="M398.13 201.94H349.23C349.23 201.94 346.66 204.84 346.33 210.94C346 217.04 346.66 218.35 351.17 219.94C355.68 221.53 395.74 220.72 395.74 220.72" stroke="#263238" stroke-linecap="round" stroke-linejoin="round"/>
<path d="M359.6 279.54L354.48 267.41L346.09 269L352.51 279.82L348.81 287.23L340.81 292.46C340.81 292.46 339.88 293.38 343.88 293.07C347.88 292.76 356.18 293.07 356.18 293.07L361.41 286.92C361.41 286.92 363.31 283.79 359.6 279.54Z" fill="white" stroke="#263238" stroke-linecap="round" stroke-linejoin="round"/>
<path d="M361.84 284.84L362.05 292.77H360.8L359.13 288.81L361.84 284.84Z" fill="#263238" stroke="#263238" stroke-linecap="round" stroke-linejoin="round"/>
<path d="M356.19 293.11L361.42 286.96C361.42 286.96 362.77 284.67 360.91 281.37C357.19 287.73 352.24 289.64 352.24 289.64L347.08 288.4L340.82 292.5C340.82 292.5 339.89 293.42 343.89 293.11C347.89 292.8 356.19 293.11 356.19 293.11Z" fill="#263238" stroke="#263238" stroke-linecap="round" stroke-linejoin="round"/>
<path d="M339.49 217.73L356.64 269.58L344.47 271.74L320.47 217.74C320.47 217.74 318.54 209.68 323.69 207.11C328.84 204.54 343.99 203.24 343.99 203.24" fill="#4941C0"/>
<path d="M339.49 217.73L356.64 269.58L344.47 271.74L320.47 217.74C320.47 217.74 318.54 209.68 323.69 207.11C328.84 204.54 343.99 203.24 343.99 203.24" stroke="#263238" stroke-linecap="round" stroke-linejoin="round"/>
<path d="M394.5 226.05C394.5 226.05 388.59 197.34 392.55 196.63C396.51 195.92 416.65 201.63 416.65 201.63L423.13 156C423.13 156 429.97 154.92 430.69 161C431.41 167.08 417.3 226.05 417.3 226.05H394.5Z" fill="#263238" stroke="#263238" stroke-linecap="round" stroke-linejoin="round"/>
<path d="M324.91 141.52L321.86 136.52C321.566 136.041 321.152 135.647 320.659 135.377C320.167 135.107 319.612 134.97 319.05 134.98L316.18 135.03L311.27 133.56C310.958 133.469 310.626 133.473 310.316 133.571C310.007 133.669 309.733 133.856 309.53 134.11L309.35 134.34L313.87 136.34L309.36 138L304.57 135.57C304.381 135.473 304.164 135.446 303.958 135.494C303.751 135.541 303.568 135.66 303.44 135.83V135.83C303.295 136.019 303.23 136.257 303.26 136.493C303.29 136.729 303.412 136.944 303.6 137.09L310.3 142.26C310.51 142.423 310.753 142.54 311.011 142.602C311.27 142.664 311.539 142.67 311.8 142.62L319.21 141.13L321.28 143.39L324.91 141.52Z" fill="white" stroke="#263238" stroke-linecap="round" stroke-linejoin="round"/>
<path d="M376.57 131.26L349.1 159.99L322.88 138.8L319.26 141.43L348.11 174.12L373.12 160.65L376.57 131.26Z" fill="white" stroke="#263238" stroke-linecap="round" stroke-linejoin="round"/>
<path d="M417.67 138.6L432.07 182.85L419.65 183.21L407.3 162.44C407.3 162.44 414.24 141.49 417.67 138.6Z" fill="white" stroke="#263238" stroke-linecap="round" stroke-linejoin="round"/>
<path d="M402 131L417.67 138.65L404.55 175.34L406.1 185.57L369.36 185.63L373.74 169.15L370.74 158.59C370.351 157.22 370.33 155.771 370.68 154.39L376.56 131.31L392 128.83L402 131Z" fill="white" stroke="#263238" stroke-linecap="round" stroke-linejoin="round"/>
<path d="M401.25 128.85C401.25 128.85 404.33 130.93 404.43 132.78C404.48 133.87 404.43 135.78 404.33 137.24C404.275 138.381 404.014 139.502 403.56 140.55L398.01 147.25L391.59 142.18L386.26 144.9C386.26 144.9 385.26 136.73 387.59 131.03C389.92 125.33 400.06 127.42 401.25 128.85Z" fill="white" stroke="#263238" stroke-linecap="round" stroke-linejoin="round"/>
<path d="M405.66 113C405.66 113 404.4 117.53 403.81 120.53C403.22 123.53 402.03 129.53 402.14 131.78C402.25 134.03 392.78 143.61 391.59 142.18C390.4 140.75 389.15 132.44 389.15 132.44L390.33 119C390.33 119 402.67 105.33 405.66 113Z" fill="white" stroke="#263238" stroke-linecap="round" stroke-linejoin="round"/>
<path d="M385.87 106C385.87 106 384.18 108.79 384.18 110C384.18 111.21 384.77 113.58 384.67 114.27C384.57 114.96 382.89 117.27 382.67 118.05C382.559 118.367 382.569 118.714 382.696 119.025C382.823 119.337 383.059 119.591 383.36 119.74C383.768 119.949 384.166 120.179 384.55 120.43C384.55 120.43 385.05 126.59 385.85 128.18C386.65 129.77 387.34 130.47 389.72 130.67C392.1 130.87 397.77 128.38 398.56 126.39C399.35 124.4 399.46 122.02 399.56 119.14C399.66 116.26 397.67 112.14 396.18 108.21C394.69 104.28 388.45 102.12 385.87 106Z" fill="white" stroke="#263238" stroke-linecap="round" stroke-linejoin="round"/>
<path d="M411.52 126.34C415.734 126.34 419.15 122.924 419.15 118.71C419.15 114.496 415.734 111.08 411.52 111.08C407.306 111.08 403.89 114.496 403.89 118.71C403.89 122.924 407.306 126.34 411.52 126.34Z" fill="#263238" stroke="#263238" stroke-linecap="round" stroke-linejoin="round"/>
<path d="M385.83 105.57C385.83 105.57 388.9 102.92 394.42 108.19C399.94 113.46 397.84 121.08 401.53 122.66C405.22 124.24 412.05 116.34 412.84 112.4C413.63 108.46 411.26 100.29 403.89 98.71C396.52 97.13 387.49 98.21 385.83 105.57Z" fill="#263238" stroke="#263238" stroke-linecap="round" stroke-linejoin="round"/>
<path d="M385.83 105.57C385.765 104.95 385.841 104.324 386.054 103.738C386.267 103.153 386.611 102.623 387.059 102.19C387.508 101.758 388.049 101.433 388.641 101.24C389.234 101.048 389.863 100.993 390.48 101.08C395.48 101.35 396 109.24 398.63 112.4C401.26 115.56 402.58 115.03 402.58 115.03C402.58 115.03 398.11 116.34 395.21 114.76C392.31 113.18 390.91 104.27 385.83 105.57Z" fill="#263238" stroke="#263238" stroke-linecap="round" stroke-linejoin="round"/>
<path d="M394 100.16C396.631 101.785 398.719 104.156 400 106.97C402.27 111.78 402.27 115.75 407.66 115.47C407.66 115.47 405.11 116.04 401.14 114.05C397.17 112.06 396.32 106.4 393.77 104.13C392.379 102.813 390.579 102.012 388.67 101.86" stroke="white" stroke-width="0.5" stroke-linecap="round" stroke-linejoin="round"/>
<path d="M412.84 112.4C412.84 112.4 412.61 119.62 407.07 121.14" stroke="white" stroke-width="0.5" stroke-linecap="round" stroke-linejoin="round"/>
<path d="M397.38 119.77C397.38 119.77 402.66 112.86 403.9 118.02C405.14 123.18 400.9 124.44 398.9 123.85C396.9 123.26 397.18 122.19 397.18 122.19" fill="white"/>
<path d="M397.38 119.77C397.38 119.77 402.66 112.86 403.9 118.02C405.14 123.18 400.9 124.44 398.9 123.85C396.9 123.26 397.18 122.19 397.18 122.19" stroke="#263238" stroke-linecap="round" stroke-linejoin="round"/>
<path d="M385.63 178.9C385.63 178.9 375.55 180.3 373.87 180.3C372.19 180.3 367.99 185.62 367.99 185.62H386.47L385.63 178.9Z" fill="white" stroke="#263238" stroke-linecap="round" stroke-linejoin="round"/>
<path d="M428.45 172.12L432.07 180.28C432.232 180.76 432.279 181.272 432.206 181.774C432.133 182.276 431.942 182.753 431.65 183.167C431.358 183.582 430.972 183.921 430.523 184.158C430.075 184.394 429.577 184.522 429.07 184.53L385.37 184.78L385.65 178.9L419.53 173.54" fill="white"/>
<path d="M428.45 172.12L432.07 180.28C432.232 180.76 432.279 181.272 432.206 181.774C432.133 182.276 431.942 182.753 431.65 183.167C431.358 183.582 430.972 183.921 430.523 184.158C430.075 184.394 429.577 184.522 429.07 184.53L385.37 184.78L385.65 178.9L419.53 173.54" stroke="#263238" stroke-linecap="round" stroke-linejoin="round"/>
<path d="M369.96 284.84L370.17 292.77H368.92L367.25 288.81L369.96 284.84Z" fill="#263238" stroke="#263238" stroke-linecap="round" stroke-linejoin="round"/>
<path d="M367.72 279.54L366.11 268L357.73 268.54L360.63 279.9L356.93 287.31L348.93 292.54C348.93 292.54 348.01 293.46 352.01 293.15C356.01 292.84 364.31 293.15 364.31 293.15L369.54 287C369.54 287 371.43 283.79 367.72 279.54Z" fill="white" stroke="#263238" stroke-linecap="round" stroke-linejoin="round"/>
<path d="M364.31 293.11L369.54 286.96C369.54 286.96 370.89 284.67 369.02 281.37C365.3 287.73 360.35 289.64 360.35 289.64L355.2 288.4L348.93 292.5C348.93 292.5 348.01 293.42 352.01 293.11C356.01 292.8 364.31 293.11 364.31 293.11Z" fill="#263238" stroke="#263238" stroke-linecap="round" stroke-linejoin="round"/>
<path d="M363.88 208.8L367.47 270.12L356.1 270.39L345 214.68C345 214.68 345.21 204.07 348.6 202.85C351.99 201.63 360.99 202.94 360.99 202.94" fill="#4941C0"/>
<path d="M363.88 208.8L367.47 270.12L356.1 270.39L345 214.68C345 214.68 345.21 204.07 348.6 202.85C351.99 201.63 360.99 202.94 360.99 202.94" stroke="#263238" stroke-linecap="round" stroke-linejoin="round"/>
<path d="M314.18 76.8099L328.29 116.36C328.29 116.36 326.43 125.31 320.83 124.94C315.23 124.57 313.74 116.73 312.25 115.61C310.76 114.49 308.52 105.91 308.52 105.91L314.18 76.8099Z" fill="white" stroke="#263238" stroke-linecap="round" stroke-linejoin="round"/>
<path d="M277.68 68.88L254.74 77.16L263.54 140.77H304.93L314.18 76.81L289.42 69.06L277.68 68.88Z" fill="white" stroke="#263238" stroke-linecap="round" stroke-linejoin="round"/>
<path d="M279.89 79.7799L283.2 84.7699L280.33 127.09L284.55 138.11L288.88 127.39L285.17 85.3999L288.15 78.1899L284.02 72.7599L279.89 79.7799Z" fill="#4941C0" stroke="#263238" stroke-linecap="round" stroke-linejoin="round"/>
<path d="M284.47 77.72L278.56 82.1499L274.67 70.6L277.38 64.75L289.47 64.46L292.42 67.11L291.83 81.85L284.47 77.72Z" fill="white" stroke="#263238" stroke-linecap="round" stroke-linejoin="round"/>
<path d="M290.72 61.75L289.8 69.18L283.18 77.72L278.23 69.06V55.13C278.23 55.13 286.9 57.3 290.72 61.75Z" fill="white" stroke="#263238" stroke-linecap="round" stroke-linejoin="round"/>
<path d="M274.83 46.31C274.83 39.56 279.75 34.09 285.83 34.09C291.91 34.09 295.28 39.86 295.28 46.61C295.28 48.79 294.83 52.53 294.65 54.52C294.34 57.92 293.31 59.36 291.3 62.41C284.71 72.41 279.3 57.74 276.53 52.81C275.409 50.8276 274.823 48.5875 274.83 46.31V46.31Z" fill="white" stroke="#263238" stroke-linecap="round" stroke-linejoin="round"/>
<path d="M290.61 48.4299L291.54 55.3999L288.27 55.3099" fill="white"/>
<path d="M290.61 48.4299L291.54 55.3999L288.27 55.3099" stroke="#263238" stroke-linecap="round" stroke-linejoin="round"/>
<path d="M297.91 47.22L282.19 47.29C281.997 47.9013 281.967 48.5526 282.104 49.179C282.241 49.8053 282.54 50.3849 282.97 50.86C283.97 51.86 288.04 51.51 288.69 51.25C289.34 50.99 289.69 48.13 289.69 48.13H290.86C290.86 48.13 290.99 51.13 292.67 51.38C294.35 51.63 296.54 51.55 296.96 51.25C298.82 50 297.91 47.22 297.91 47.22Z" fill="white" stroke="#263238" stroke-linecap="round" stroke-linejoin="round"/>
<path d="M276.77 53.9399C276.77 53.9399 280.31 61.1899 281.15 63.6999C281.99 66.2099 286.15 68.17 290.36 66.77C294.57 65.37 293.43 59.1399 293.43 59.1399C293.43 59.1399 288.96 55.3199 288.13 56.1399C287.3 56.9599 282.82 60.61 282.54 59.77C282.26 58.93 280.31 53.91 280.31 53.91L279.4 50.35L281.27 49.1499C281.54 48.9251 281.716 48.607 281.762 48.2587C281.808 47.9105 281.722 47.5575 281.52 47.27L280.64 45.9999C280.532 45.8444 280.455 45.6687 280.416 45.4832C280.376 45.2977 280.374 45.1062 280.41 44.9199C280.64 43.8299 281.27 41.5699 282.73 40.9199C284.73 40.0899 287.16 41.2999 289.4 41.8599C291.64 42.4199 294.07 40.3999 294.07 40.3999L295.07 43.7199C297.287 41.6392 298.863 38.9673 299.61 36.0199C300.73 31.2699 289.28 29.3199 285.61 29.3199C281.94 29.3199 276.12 31.3199 274.44 36.5799C272.76 41.8399 275.78 52.9999 276.77 53.9399Z" fill="#263238" stroke="#263238" stroke-linecap="round" stroke-linejoin="round"/>
<path d="M285.83 36.0499C285.83 36.0499 287.91 39.1699 285.18 39.8199C282.45 40.4699 277.13 38.1299 274.79 39.0399" stroke="white" stroke-width="0.5" stroke-linecap="round" stroke-linejoin="round"/>
<path d="M281.15 42.93C281.15 42.93 276.87 42.41 275.15 44.23" stroke="white" stroke-width="0.5" stroke-linecap="round" stroke-linejoin="round"/>
<path d="M291.45 58.6999C291.45 58.6999 288.3 60.3399 286.74 58.3899" stroke="white" stroke-width="0.5" stroke-linecap="round" stroke-linejoin="round"/>
<path d="M277.3 51.7299C277.3 51.7299 274.21 48.3299 274.21 52.0399C274.21 55.7499 275.14 55.7499 276.99 57.0399C278.84 58.3299 279.47 56.7299 279.47 56.7299" fill="white"/>
<path d="M277.3 51.7299C277.3 51.7299 274.21 48.3299 274.21 52.0399C274.21 55.7499 275.14 55.7499 276.99 57.0399C278.84 58.3299 279.47 56.7299 279.47 56.7299" stroke="#263238" stroke-linecap="round" stroke-linejoin="round"/>
<path d="M318.56 282.24H318.7L318.43 280.88L304.93 140.78H263.54L249.93 282.23H250.08L258.86 282.98C258.86 282.98 268.6 250.28 268.6 247.84C268.6 245.4 271.38 222.84 271.38 222.84L285.19 174.29L297.4 222.84C297.4 222.84 300.18 245.45 300.18 247.84C300.18 250.23 309.93 283 309.93 283L318.19 282.29H318.56V282.24Z" fill="#263238" stroke="#263238" stroke-linecap="round" stroke-linejoin="round"/>
<path d="M301.84 149.02L292.63 162.17" stroke="white" stroke-width="0.5" stroke-linecap="round" stroke-linejoin="round"/>
<path d="M296.91 151.98L291.32 161.19" stroke="white" stroke-width="0.5" stroke-linecap="round" stroke-linejoin="round"/>
<path d="M270.61 151.33L278.82 160.2" stroke="white" stroke-width="0.5" stroke-linecap="round" stroke-linejoin="round"/>
<path d="M269.95 154.61L281.78 166.45" stroke="white" stroke-width="0.5" stroke-linecap="round" stroke-linejoin="round"/>
<path d="M266 142.12H302.5" stroke="white" stroke-width="0.5" stroke-linecap="round" stroke-linejoin="round"/>
<path d="M250.08 282.23C250.08 282.23 244.81 286.38 241.77 287.52C238.73 288.66 233.05 291.69 233.05 291.69C233.05 291.69 233.05 293.59 237.98 293.59H257.33L257 282.23H250.08Z" fill="#263238" stroke="#263238" stroke-linecap="round" stroke-linejoin="round"/>
<path d="M257.26 291.52C249.533 291.873 241.792 291.749 234.08 291.15L233.08 291.69C233.08 291.69 233.08 293.59 238.01 293.59H257.36L257.26 291.52Z" fill="white" stroke="#263238" stroke-linecap="round" stroke-linejoin="round"/>
<path d="M317.76 282.23C317.76 282.23 323.04 286.38 326.07 287.52C329.1 288.66 334.8 291.69 334.8 291.69C334.8 291.69 334.8 293.59 329.86 293.59H310.52L310.87 282.23H317.76Z" fill="#263238" stroke="#263238" stroke-linecap="round" stroke-linejoin="round"/>
<path d="M310.58 291.52C318.307 291.873 326.048 291.749 333.76 291.15L334.76 291.69C334.76 291.69 334.76 293.59 329.82 293.59H310.52L310.58 291.52Z" fill="white" stroke="#263238" stroke-linecap="round" stroke-linejoin="round"/>
<path d="M254.74 77.1599L239.5 117.85H254.12L259.58 106.75L254.74 77.1599Z" fill="white" stroke="#263238" stroke-linecap="round" stroke-linejoin="round"/>
<path d="M321.41 111.55C315.31 109.03 295.74 107.78 294.72 107.78C293.7 107.78 261.89 105.16 259.28 104.78C256.67 104.4 253.68 110.38 253.68 110.38L267.48 110L284.27 113.36C284.27 113.36 318.27 125.67 320.83 124.93C321.179 124.814 321.495 124.615 321.75 124.35" fill="white"/>
<path d="M321.41 111.55C315.31 109.03 295.74 107.78 294.72 107.78C293.7 107.78 261.89 105.16 259.28 104.78C256.67 104.4 253.68 110.38 253.68 110.38L267.48 110L284.27 113.36C284.27 113.36 318.27 125.67 320.83 124.93C321.179 124.814 321.495 124.615 321.75 124.35" stroke="#263238" stroke-linecap="round" stroke-linejoin="round"/>
<path d="M250.32 109.64L302.92 104.42L303.3 108.89L257.78 122.7C257.78 122.7 249.58 124.56 243.23 123.44C236.88 122.32 239.88 115.98 241.37 112.25" fill="white"/>
<path d="M250.32 109.64L302.92 104.42L303.3 108.89L257.78 122.7C257.78 122.7 249.58 124.56 243.23 123.44C236.88 122.32 239.88 115.98 241.37 112.25" stroke="#263238" stroke-linecap="round" stroke-linejoin="round"/>
<path d="M302.93 104.42L313 104.04L315.98 110.01L303.3 108.9L302.93 104.42Z" fill="white" stroke="#263238" stroke-linecap="round" stroke-linejoin="round"/>
<path d="M370 192.16L378.59 294.43C378.613 294.582 378.666 294.729 378.747 294.86C378.829 294.991 378.936 295.103 379.062 295.191C379.188 295.28 379.332 295.341 379.483 295.371C379.634 295.402 379.789 295.402 379.94 295.37C380.197 295.306 380.423 295.152 380.575 294.935C380.728 294.718 380.797 294.454 380.77 294.19L374.92 192.19L370 192.16Z" fill="#263238" stroke="#263238" stroke-linecap="round" stroke-linejoin="round"/>
<path d="M427.73 192.16L436.35 294.77C436.371 294.923 436.424 295.07 436.505 295.202C436.585 295.333 436.693 295.447 436.819 295.535C436.946 295.624 437.09 295.685 437.241 295.715C437.393 295.745 437.549 295.743 437.7 295.71C437.957 295.646 438.183 295.492 438.335 295.275C438.488 295.058 438.557 294.794 438.53 294.53L432.66 192.16H427.73Z" fill="#263238" stroke="#263238" stroke-linecap="round" stroke-linejoin="round"/>
<path d="M189.49 192.16L185 293.54C184.975 293.806 185.046 294.072 185.2 294.29C185.354 294.508 185.581 294.664 185.84 294.73C185.989 294.768 186.144 294.774 186.295 294.747C186.445 294.72 186.589 294.661 186.715 294.574C186.841 294.486 186.947 294.373 187.026 294.241C187.104 294.11 187.153 293.962 187.17 293.81L194.44 192.16H189.49Z" fill="#263238" stroke="#263238" stroke-linecap="round" stroke-linejoin="round"/>
<path d="M136.28 192.16L131.76 293.16C131.738 293.427 131.811 293.693 131.967 293.911C132.122 294.129 132.35 294.285 132.61 294.35C132.758 294.386 132.913 294.391 133.063 294.363C133.214 294.336 133.356 294.276 133.482 294.189C133.608 294.102 133.714 293.99 133.793 293.859C133.872 293.728 133.922 293.582 133.94 293.43L141.18 192.12L136.28 192.16Z" fill="#263238" stroke="#263238" stroke-linecap="round" stroke-linejoin="round"/>
<path d="M438.97 186.49H133.08V195.27H438.97V186.49Z" fill="#4941C0" stroke="#263238" stroke-linecap="round" stroke-linejoin="round"/>
<path d="M438.97 186.49H133.08V189.5H438.97V186.49Z" fill="#263238" stroke="#263238" stroke-linecap="round" stroke-linejoin="round"/>
<path d="M438.96 186.49H362.42V195.27H438.96V186.49Z" fill="#263238" stroke="#263238" stroke-linecap="round" stroke-linejoin="round"/>
<path d="M441.69 183.57H130.35V186.92H441.69V183.57Z" fill="#4941C0" stroke="#263238" stroke-linecap="round" stroke-linejoin="round"/>
<path d="M441.68 183.57H365.61V186.92H441.68V183.57Z" fill="#263238" stroke="#263238" stroke-linecap="round" stroke-linejoin="round"/>
<path d="M199.7 183.27H241.48C241.639 183.271 241.796 183.225 241.929 183.138C242.062 183.051 242.167 182.926 242.23 182.78L253.8 156.4C253.853 156.276 253.875 156.141 253.863 156.007C253.851 155.873 253.805 155.744 253.731 155.632C253.656 155.52 253.555 155.428 253.436 155.365C253.318 155.302 253.185 155.269 253.05 155.27H211.27C211.114 155.27 210.96 155.315 210.829 155.4C210.698 155.486 210.594 155.607 210.53 155.75L199 182.13C198.946 182.25 198.923 182.382 198.931 182.514C198.94 182.645 198.98 182.773 199.049 182.885C199.118 182.997 199.213 183.091 199.327 183.158C199.44 183.225 199.568 183.264 199.7 183.27V183.27Z" fill="white" stroke="#263238" stroke-linecap="round" stroke-linejoin="round"/>
<path d="M203.62 181.21H239.27C239.403 181.21 239.534 181.171 239.646 181.098C239.758 181.026 239.846 180.922 239.9 180.8L249.77 158.29C249.824 158.184 249.849 158.066 249.843 157.947C249.837 157.828 249.801 157.713 249.738 157.612C249.674 157.512 249.586 157.429 249.481 157.373C249.376 157.316 249.259 157.288 249.14 157.29H213.49C213.354 157.289 213.22 157.328 213.106 157.403C212.993 157.478 212.903 157.585 212.85 157.71L203 180.24C202.954 180.344 202.934 180.458 202.943 180.572C202.951 180.686 202.988 180.796 203.049 180.892C203.111 180.988 203.195 181.067 203.295 181.123C203.394 181.178 203.506 181.208 203.62 181.21V181.21Z" fill="#4941C0" stroke="#263238" stroke-linecap="round" stroke-linejoin="round"/>
<path d="M242.06 181.52H179.29V183.57H242.06V181.52Z" fill="white" stroke="#263238" stroke-linecap="round" stroke-linejoin="round"/>
<path d="M242.07 181.52H211.64V183.57H242.07V181.52Z" fill="white" stroke="#263238" stroke-linecap="round" stroke-linejoin="round"/>
<path d="M262.23 167.25H251.16V183.61H262.23V167.25Z" fill="white" stroke="#263238" stroke-linecap="round" stroke-linejoin="round"/>
<path d="M261.74 181.38H260.58C260.339 181.38 260.107 181.284 259.937 181.113C259.766 180.943 259.67 180.711 259.67 180.47C259.67 180.229 259.766 179.997 259.937 179.827C260.107 179.656 260.339 179.56 260.58 179.56H261.74C262.198 179.557 262.637 179.374 262.96 179.05C263.284 178.727 263.467 178.288 263.47 177.83V173.83C263.467 173.372 263.284 172.934 262.96 172.61C262.637 172.286 262.198 172.103 261.74 172.1H260.25C260.131 172.1 260.012 172.076 259.902 172.031C259.791 171.985 259.691 171.918 259.607 171.833C259.522 171.749 259.455 171.649 259.409 171.538C259.364 171.428 259.34 171.31 259.34 171.19C259.34 171.071 259.364 170.952 259.409 170.842C259.455 170.731 259.522 170.631 259.607 170.547C259.691 170.462 259.791 170.395 259.902 170.349C260.012 170.304 260.131 170.28 260.25 170.28H261.74C262.206 170.28 262.668 170.372 263.099 170.55C263.529 170.729 263.921 170.99 264.25 171.32C264.58 171.649 264.841 172.041 265.02 172.471C265.198 172.902 265.29 173.364 265.29 173.83V177.83C265.29 178.296 265.198 178.758 265.02 179.189C264.841 179.619 264.58 180.011 264.25 180.34C263.921 180.67 263.529 180.931 263.099 181.11C262.668 181.288 262.206 181.38 261.74 181.38V181.38Z" fill="white" stroke="#263238" stroke-linecap="round" stroke-linejoin="round"/>
<path d="M348.72 183.27H306.94C306.782 183.269 306.628 183.222 306.497 183.135C306.366 183.048 306.262 182.925 306.2 182.78L294.63 156.4C294.577 156.277 294.556 156.143 294.567 156.01C294.579 155.876 294.623 155.748 294.697 155.636C294.77 155.524 294.87 155.432 294.987 155.368C295.105 155.305 295.236 155.271 295.37 155.27H337.15C337.308 155.269 337.463 155.314 337.596 155.399C337.729 155.484 337.835 155.606 337.9 155.75L349.47 182.13C349.523 182.254 349.544 182.39 349.532 182.524C349.52 182.659 349.474 182.788 349.4 182.901C349.326 183.014 349.225 183.106 349.106 183.171C348.988 183.235 348.855 183.269 348.72 183.27V183.27Z" fill="white" stroke="#263238" stroke-linecap="round" stroke-linejoin="round"/>
<path d="M306.36 183.57H369.13V181.52H306.36V183.57Z" fill="white" stroke="#263238" stroke-linecap="round" stroke-linejoin="round"/>
<path d="M306.36 183.57H349.64V181.52H306.36V183.57Z" fill="white" stroke="#263238" stroke-linecap="round" stroke-linejoin="round"/>
<path d="M322.74 166.22C322.967 166.648 323.062 167.134 323.013 167.616C322.965 168.098 322.775 168.554 322.468 168.929C322.161 169.304 321.751 169.579 321.288 169.722C320.825 169.864 320.33 169.866 319.866 169.728C319.401 169.591 318.988 169.319 318.678 168.947C318.367 168.575 318.173 168.12 318.12 167.639C318.067 167.157 318.158 166.671 318.38 166.241C318.602 165.81 318.947 165.455 319.37 165.22C319.95 164.907 320.63 164.836 321.262 165.024C321.893 165.211 322.425 165.641 322.74 166.22V166.22Z" fill="white" stroke="#263238" stroke-linecap="round" stroke-linejoin="round"/>
<path d="M127.37 88.57L130.45 119L144.45 159.53L139.66 162.27L123.22 125.17L115.01 93.32C115.01 93.32 114.32 83.74 117.75 82.32C121.18 80.9 126 82.41 127.37 88.57Z" fill="white" stroke="#263238" stroke-linecap="round" stroke-linejoin="round"/>
<path d="M144.49 159.57C144.49 159.57 147.57 166.08 147.92 167.79C148.27 169.5 148.62 172.99 147.27 174.55C145.64 176.43 144.15 174.98 144.15 174.98C144.15 174.98 140.04 173.98 140.04 170.53C140.04 167.08 139.7 162.31 139.7 162.31L144.49 159.57Z" fill="white" stroke="#263238" stroke-linecap="round" stroke-linejoin="round"/>
<path d="M141.13 169.78L146.9 171.28" stroke="#263238" stroke-linecap="round" stroke-linejoin="round"/>
<path d="M142.51 165.89L144.15 168.47C144.15 168.47 140.33 175 142.38 173.29C144.43 171.58 148.26 169.5 147.92 167.79C147.341 165.996 146.577 164.266 145.64 162.63" fill="white"/>
<path d="M142.51 165.89L144.15 168.47C144.15 168.47 140.33 175 142.38 173.29C144.43 171.58 148.26 169.5 147.92 167.79C147.341 165.996 146.577 164.266 145.64 162.63" stroke="#263238" stroke-linecap="round" stroke-linejoin="round"/>
<path d="M111 51.9999C111 51.9999 107.48 48.1999 99.3599 50.6399C91.2399 53.0799 89.3599 66.0799 89.6099 72.5699C89.8599 79.0599 96.1099 86.3799 94.2199 89.6299C92.3299 92.8799 85.2799 100.46 85.8199 108.63C86.3599 116.8 93.1299 123.25 102.88 120.27C112.63 117.29 111 105.36 109.06 101C107.12 96.6399 111.23 94.7699 112.58 85.2899C113.93 75.8099 105.27 67.9599 105.27 61.1899C105.27 54.4199 112.27 55.5099 112.27 55.5099L111 51.9999Z" fill="#263238" stroke="#263238" stroke-linecap="round" stroke-linejoin="round"/>
<path d="M98.7998 77.7C100.08 80.34 101.57 83.16 103.05 86.2C107.99 96.28 104.13 99.92 96.6198 105.5C89.1098 111.08 90.8298 117.94 92.7598 119" stroke="white" stroke-width="0.5" stroke-linecap="round" stroke-linejoin="round"/>
<path d="M108.42 54.6699C108.42 54.6699 98.34 55.5299 95.76 61.9599C94.2 65.8699 95.4 70.2499 97.7 75.3499" stroke="white" stroke-width="0.5" stroke-linecap="round" stroke-linejoin="round"/>
<path d="M101.05 116.49C101.825 116.781 102.652 116.911 103.48 116.87" stroke="white" stroke-width="0.5" stroke-linecap="round" stroke-linejoin="round"/>
<path d="M111 54C111 54 101.56 55.71 99.4199 62.57C97.2799 69.43 109.93 79.57 110.57 87.03C111.21 94.49 102.2 98.85 98.9999 104.64C96.7499 108.7 96.9999 113.17 99.3699 115.42" stroke="white" stroke-width="0.5" stroke-linecap="round" stroke-linejoin="round"/>
<path d="M135.22 192.07C135.22 192.07 132.89 212.19 130.55 218.61C128.21 225.03 122.97 275.48 122.68 278.4C122.39 281.32 130.26 288.02 133.47 290.07C136.68 292.12 135.22 292.69 131.72 292.98C128.22 293.27 124.14 292.69 122.39 289.48C120.64 286.27 116.55 285.4 116.55 285.4L115.97 292.4H114.8L113.93 283.65C113.633 281.663 113.936 279.633 114.8 277.82C116.26 274.61 116.8 267.9 116.8 258.82C116.8 249.74 115.05 235.19 115.92 228.19C116.79 221.19 120.3 215.94 120.3 210.11C120.3 204.28 120.59 195.53 120.59 195.53L135.22 192.07Z" fill="white" stroke="#263238" stroke-linecap="round" stroke-linejoin="round"/>
<path d="M113.93 283.65C113.698 282.145 113.824 280.606 114.3 279.16C116.11 282.22 121.3 286.37 125.3 288.02C127.469 288.959 129.833 289.357 132.19 289.18C132.66 289.53 133.1 289.83 133.47 290.07C136.68 292.07 135.22 292.69 131.72 292.98C128.22 293.27 124.14 292.69 122.39 289.48C120.64 286.27 116.55 285.4 116.55 285.4L115.97 292.4H114.8L113.93 283.65Z" fill="#263238" stroke="#263238" stroke-linecap="round" stroke-linejoin="round"/>
<path d="M118.3 195.28C118.3 195.28 113.3 210.15 108.68 222.98C104.06 235.81 92.9299 265.27 91.7599 270.52C90.5899 275.77 90.0099 285.4 86.7599 290.36C83.5099 295.32 80.3399 297.65 80.9199 288.9C81.4999 280.15 86.7599 273.73 87.9199 267.02C89.0799 260.31 89.6699 236.11 93.7499 225.32C97.8299 214.53 102.21 205.78 102.75 202.57C103.149 199.376 103.342 196.159 103.33 192.94L118.3 195.28Z" fill="white" stroke="#263238" stroke-linecap="round" stroke-linejoin="round"/>
<path d="M81.52 285.15C81.5631 286.799 82.0766 288.402 83 289.77C84.68 291.65 87.39 288 88.8 285.77C88.3387 287.378 87.6661 288.918 86.8 290.35C83.59 295.3 80.38 297.64 80.96 288.89C81.0564 287.631 81.2436 286.381 81.52 285.15V285.15Z" fill="#263238" stroke="#263238" stroke-linecap="round" stroke-linejoin="round"/>
<path d="M116 77.8999C116 77.8999 114.25 79.3599 113.08 89.2799C111.91 99.1999 119.21 130.11 119.21 130.11C119.21 130.11 106.67 150.65 103.75 160.86C100.83 171.07 99.0798 209.32 99.0798 209.32C99.0798 209.32 105.21 211.66 117.75 212.53C130.29 213.4 137 210.2 137 210.2C137 210.2 137.58 155.61 137.58 147.2C137.58 138.79 138.17 119.66 139.04 117.33C139.91 115 142.54 108.87 142.54 106.54C142.54 104.21 125 79.3599 125 79.3599L116 77.8999Z" fill="white" stroke="#263238" stroke-linecap="round" stroke-linejoin="round"/>
<path d="M103.72 160.86C106.02 152.86 115.54 131.58 118.94 127.92C124.11 129.64 133.54 131.34 137.75 130.08C137.62 133.08 137.55 144.28 137.55 147.15C137.55 155.61 136.97 210.15 136.97 210.15C136.97 210.15 130.26 213.36 117.72 212.48C105.18 211.6 99.0498 209.27 99.0498 209.27C99.0498 209.27 100.8 171.07 103.72 160.86Z" fill="#263238" stroke="#263238" stroke-linecap="round" stroke-linejoin="round"/>
<path d="M122.47 43.52C122.47 43.52 125.6 36.7 131.79 36.7C137.98 36.7 140.73 42.1999 139.36 47.0099C137.99 51.8199 143.48 50.45 144.17 53.55C144.86 56.65 139.7 58.7 136.95 58.7C134.2 58.7 122.47 43.52 122.47 43.52Z" fill="#263238" stroke="#263238" stroke-linecap="round" stroke-linejoin="round"/>
<path d="M131.51 42.82C133.35 41.82 135.51 41.1 136.51 42.66C138.44 45.66 132.44 48.02 134.37 51.24C136.3 54.46 141.02 53.6 140.8 54.67C140.58 55.74 137.59 56.38 137.59 56.38" stroke="white" stroke-width="0.5" stroke-linecap="round" stroke-linejoin="round"/>
<path d="M128.36 45C128.36 45 128.95 44.49 129.83 43.87" stroke="white" stroke-width="0.5" stroke-linecap="round" stroke-linejoin="round"/>
<path d="M138.34 59.39C137.902 59.0646 137.557 58.6302 137.34 58.13C136.84 54.44 135.76 50.81 133.72 48.77C130.634 45.8648 126.698 44.0249 122.49 43.52C121.244 43.3363 119.972 43.4529 118.78 43.86C113.47 45.72 108.91 49.39 109.89 58.24C110.97 67.99 118.56 70.43 118.56 70.43L119.1 76.43L126.68 79.95L126.95 73.45C126.95 73.45 132.09 75.61 133.95 75.34C135.81 75.07 136.39 72.63 137.2 69.11C137.497 67.5038 137.645 65.8734 137.64 64.24L139.91 61.98C141.2 60.67 139.93 60.35 138.34 59.39Z" fill="white" stroke="#263238" stroke-linecap="round" stroke-linejoin="round"/>
<path d="M109.87 58.24C108.87 49.39 113.45 45.72 118.76 43.86C119.952 43.4529 121.224 43.3363 122.47 43.52C125.339 43.9035 128.101 44.8627 130.59 46.34C129.07 46.03 131.66 50.5 129.28 53.34C127.196 55.9764 124.538 58.1035 121.51 59.56C121.51 59.56 118.81 57.39 117.99 60.37C117.17 63.35 117.45 65.51 119.62 66.06C121.79 66.61 122.62 66.06 122.62 66.06C122.62 66.06 121.18 69.47 118.62 70.88V70.39C118.62 70.39 111 68 109.87 58.24Z" fill="#263238" stroke="#263238" stroke-linecap="round" stroke-linejoin="round"/>
<path d="M130.55 78.19L129.1 86.07L113.64 77.9L115.1 70.61L130.55 78.19Z" fill="white" stroke="#263238" stroke-linecap="round" stroke-linejoin="round"/>
<path d="M123.08 144.63C124.681 144.972 126.306 145.193 127.94 145.29C129.21 145.21 130.94 143.78 132.22 144.39C133.5 145 135.29 148.85 135.29 148.85C135.29 148.85 136.99 149.71 136.5 150.62C136.01 151.53 133.91 152.37 133.91 152.37C133.91 152.37 131.91 154.26 130.75 154.45C129.59 154.64 122.52 149.45 122.52 149.45L123.08 144.63Z" fill="white" stroke="#263238" stroke-linecap="round" stroke-linejoin="round"/>
<path d="M123.83 148.37C124.064 148.089 124.232 147.759 124.322 147.404C124.412 147.049 124.421 146.679 124.349 146.321C124.277 145.962 124.126 145.624 123.906 145.331C123.687 145.039 123.404 144.799 123.08 144.63L103.65 126.43L124.81 93.5299C125.754 91.7903 125.983 89.7514 125.449 87.8456C124.915 85.9398 123.659 84.3172 121.948 83.3219C120.237 82.3267 118.206 82.0371 116.285 82.5147C114.364 82.9922 112.705 84.1993 111.66 85.8799L93.3198 122.33C92.3662 123.255 91.8149 124.519 91.785 125.847C91.755 127.176 92.2489 128.462 93.1598 129.43L93.2298 129.5C95.0698 132.34 115.31 147.19 121.23 149.13C121.69 149.276 122.182 149.281 122.646 149.146C123.109 149.01 123.521 148.74 123.83 148.37V148.37Z" fill="white" stroke="#263238" stroke-linecap="round" stroke-linejoin="round"/>
<path d="M200.71 98.0001C200.71 98.0001 203.22 105.77 203.22 107.28C203.201 108.371 203.118 109.459 202.97 110.54L205.18 113.97C205.309 114.191 205.35 114.453 205.292 114.702C205.234 114.951 205.083 115.169 204.87 115.31L201.46 117.31C201.46 117.31 200.96 125.31 200.46 126.31C199.96 127.31 191.46 127.07 191.46 127.07L188.7 132.33L174.4 126.82L178.16 116.53L177.38 101C177.38 101 186.16 93.2401 200.71 98.0001Z" fill="white" stroke="#263238" stroke-linecap="round" stroke-linejoin="round"/>
<path d="M190.92 116.9C190.92 116.9 188.43 119.24 186.56 119.4C184.69 119.56 178.61 118.15 178.14 117.53C177.67 116.91 173.47 108.18 173.62 103.97C173.77 99.76 173.94 93.53 178.45 91.51C182.96 89.49 190.14 90.1 193.88 87.77C197.62 85.44 203.54 83.56 206.66 87.61C209.78 91.66 207.44 97.27 204.95 99.61C202.46 101.95 199.34 102.61 199.65 103.61C199.96 104.61 201.83 105.79 200.74 107.35C199.65 108.91 195.74 110.35 195.74 110.93C195.74 111.51 196.68 113.74 195.59 114.05C194.5 114.36 193.4 111.87 192.31 111.87C191.22 111.87 188.9 114.88 190.92 116.9Z" fill="#263238" stroke="#263238" stroke-linecap="round" stroke-linejoin="round"/>
<path d="M184.41 109.75C183.961 110.253 183.578 110.81 183.27 111.41" stroke="white" stroke-width="0.5" stroke-linecap="round" stroke-linejoin="round"/>
<path d="M204.89 93.6C204.692 95.3162 204.067 96.9554 203.071 98.3671C202.075 99.7788 200.741 100.918 199.19 101.68C195.19 103.75 189.86 105.44 186.32 108.04" stroke="white" stroke-width="0.5" stroke-linecap="round" stroke-linejoin="round"/>
<path d="M199.65 103.66C199.65 103.66 196.1 106.66 192.3 109.75C189.707 111.757 186.824 113.359 183.75 114.5" stroke="white" stroke-width="0.5" stroke-linecap="round" stroke-linejoin="round"/>
<path d="M190.67 117.32L192.67 117.82C192.549 118.755 192.62 119.705 192.88 120.611C193.14 121.518 193.582 122.361 194.18 123.09" fill="white"/>
<path d="M190.67 117.32L192.67 117.82C192.549 118.755 192.62 119.705 192.88 120.611C193.14 121.518 193.582 122.361 194.18 123.09" stroke="#263238" stroke-linecap="round" stroke-linejoin="round"/>
<path d="M192.99 111.95L207.11 108.45" stroke="#263238" stroke-linecap="round" stroke-linejoin="round"/>
<path d="M203.48 108.17L206.7 108.31C206.7 108.31 207.81 111.95 204.46 112.37" stroke="#263238" stroke-linecap="round" stroke-linejoin="round"/>
<path d="M189.24 281.06C189.24 281.06 202.24 289.27 204.53 289.27C206.82 289.27 207.96 291.33 206.82 291.56C205.68 291.79 198.6 292.01 193.82 292.24C189.04 292.47 185.82 292.01 183.09 292.01C180.36 292.01 177.15 292.24 175.78 291.56C174.41 290.88 176.7 283.11 176.7 281.74C176.7 280.37 187.64 280.14 189.24 281.06Z" fill="#263238" stroke="#263238" stroke-linecap="round" stroke-linejoin="round"/>
<path d="M206 289.61C200.95 291.27 192.76 290.18 187.84 289.73C183.95 289.38 177.84 289.3 175.35 289.28C175.25 290.45 175.35 291.34 175.74 291.56C177.11 292.24 180.31 292.01 183.05 292.01C185.79 292.01 188.98 292.47 193.78 292.24C198.58 292.01 205.65 291.78 206.78 291.56C207.67 291.38 207.25 290.2 206 289.61Z" fill="white" stroke="#263238" stroke-linecap="round" stroke-linejoin="round"/>
<path d="M199.51 224.66L189.25 276.11L191.39 281.45C189.854 283.674 187.537 285.238 184.9 285.83C181.967 286.407 178.988 286.714 176 286.75C176 286.75 174.86 281.04 175.55 280.35C176.24 279.66 176.46 276.93 176.46 276.93L182.39 225.11L199.51 224.66Z" fill="#4941C0" stroke="#263238" stroke-linecap="round" stroke-linejoin="round"/>
<path d="M230.78 279.32C230.78 279.32 238.78 285.94 242.43 287.08C246.08 288.22 249.96 289.36 249.96 290.5C249.96 291.64 241.29 292.78 234.67 292.1C228.05 291.42 218 288.45 215.72 288.45C213.44 288.45 213.89 282.51 213.89 281.6C213.89 280.69 225.08 273.38 230.78 279.32Z" fill="#263238" stroke="#263238" stroke-linecap="round" stroke-linejoin="round"/>
<path d="M250 290.5C250 290.09 249.49 289.68 248.68 289.27C242.146 290.144 235.521 290.097 229 289.13C222.43 288.19 216.93 286.93 214.12 286.23C214.36 287.46 214.83 288.45 215.76 288.45C218.04 288.45 228.09 291.45 234.71 292.1C241.33 292.75 250 291.64 250 290.5Z" fill="white" stroke="#263238" stroke-linecap="round" stroke-linejoin="round"/>
<path d="M191.07 201.6C197.915 201.076 204.795 201.23 211.61 202.06C223.25 203.43 249.26 205.06 249.71 208C250.16 210.94 229.53 272.73 229.53 274.32C229.53 275.91 231.35 277.52 231.81 278.43C232.1 279.079 232.257 279.779 232.27 280.49C232.27 280.49 226.68 286.49 222.34 288.12C218 289.75 214.34 288.22 213.44 288.22C212.54 288.22 212.53 282.06 213.22 279.09C213.91 276.12 215.04 268.59 215.27 267.91C215.5 267.23 228 223.29 228 223.29C228 223.29 194 228.77 173.69 226.48C153.38 224.19 151.32 221.01 150.18 216.21C149.04 211.41 151.32 201.83 151.32 201.83L191.07 201.6Z" fill="#4941C0" stroke="#263238" stroke-linecap="round" stroke-linejoin="round"/>
<path d="M188.5 216.39C188.039 217.057 187.524 217.686 186.96 218.27" stroke="#263238" stroke-linecap="round" stroke-linejoin="round"/>
<path d="M194.72 204.11C193.408 207.396 191.895 210.599 190.19 213.7" stroke="#263238" stroke-linecap="round" stroke-linejoin="round"/>
<path d="M192 206.4C189.246 210.944 185.075 214.457 180.13 216.4" stroke="#263238" stroke-linecap="round" stroke-linejoin="round"/>
<path d="M243.82 219C244.6 218.7 245.35 218.39 246.06 218.07Z" fill="white"/>
<path d="M243.82 219C244.6 218.7 245.35 218.39 246.06 218.07" stroke="#263238" stroke-linecap="round" stroke-linejoin="round"/>
<path d="M228 223.29C232.392 222.442 236.733 221.343 241 220Z" fill="white"/>
<path d="M228 223.29C232.392 222.442 236.733 221.343 241 220" stroke="#263238" stroke-linecap="round" stroke-linejoin="round"/>
<path d="M254.39 147.48C254.87 145.57 255.67 145.72 255.03 145.09C254.15 144.21 253.44 145.25 250.89 146.68C248.34 148.11 245.8 149.86 245.8 149.86C245.856 149.329 246.076 148.829 246.43 148.43C247.075 147.376 247.42 146.166 247.43 144.93C247.43 143.93 246.63 144.13 246.31 145.09C245.99 146.05 243.13 147.79 242.97 148.59C242.81 149.39 242.24 152.53 242.24 152.53C241.33 153.9 241.33 160.29 241.33 160.29L222.8 174.21L213.44 185.21C213.44 185.21 217.55 191.83 219.83 190.92C222.11 190.01 223.25 189.09 228.73 184.52C233.37 180.65 245 162.8 245 162.8C247.026 161.528 248.942 160.089 250.73 158.5C252.792 156.167 254.011 153.209 254.19 150.1C254.147 149.222 254.214 148.342 254.39 147.48V147.48Z" fill="white" stroke="#263238" stroke-linecap="round" stroke-linejoin="round"/>
<path d="M168.65 126.36C168.65 126.36 170.41 119.76 177.89 121.08C185.37 122.4 191.09 128.56 192.41 130.76C193.73 132.96 168.21 129.88 168.21 129.88L168.65 126.36Z" fill="white" stroke="#263238" stroke-linecap="round" stroke-linejoin="round"/>
<path d="M211.77 184C211.77 184 210.03 185.88 211.77 188.84C212.96 190.89 215.06 192.46 219.08 191.77C222.84 191.11 228.49 181.77 228.49 175.2C228.49 168.63 223.65 168.2 221.89 169.48C220.13 170.76 211.77 184 211.77 184Z" fill="white" stroke="#263238" stroke-linecap="round" stroke-linejoin="round"/>
<path d="M171.89 125.59C171.89 125.59 154.09 134.04 151.58 135.59C149.07 137.14 147.47 157.04 147.47 160.47C147.47 163.9 149.98 197.47 150.66 203.15C151.34 208.83 173.26 212.74 180.57 210.68C187.88 208.62 195 203.43 195 201.6C195 199.77 194.31 184.26 194.77 181.29C195.23 178.32 199.33 165.77 199.33 165.77L211.79 185.65C211.79 185.65 213.1 188.09 217.73 186.17C224.35 183.43 224.9 172.84 224.9 172.84C224.9 172.84 217.6 160.06 215.54 153.67C213.48 147.28 212.54 142.48 211.66 141.34C210.78 140.2 190.2 130.61 186.55 128.1C184.483 126.543 182.075 125.504 179.524 125.067C176.974 124.63 174.357 124.81 171.89 125.59V125.59Z" fill="white" stroke="#263238" stroke-linecap="round" stroke-linejoin="round"/>
<path d="M199.28 165.77L193.35 157.09" stroke="#263238" stroke-linecap="round" stroke-linejoin="round"/>
<path d="M198.32 164.53L187.87 159.38" stroke="#263238" stroke-linecap="round" stroke-linejoin="round"/>
<path d="M167.35 230L176.47 294.82C176.491 294.97 176.543 295.114 176.623 295.243C176.703 295.372 176.809 295.483 176.934 295.569C177.059 295.654 177.201 295.713 177.35 295.741C177.499 295.768 177.652 295.765 177.8 295.73C178.056 295.667 178.282 295.514 178.436 295.3C178.59 295.085 178.662 294.823 178.64 294.56L172.21 228.93L167.35 230Z" fill="#263238" stroke="#263238" stroke-linecap="round" stroke-linejoin="round"/>
<path d="M141.15 230.51L125.91 294.17C125.875 294.318 125.872 294.471 125.899 294.62C125.927 294.769 125.986 294.911 126.071 295.036C126.157 295.161 126.268 295.267 126.397 295.347C126.526 295.427 126.67 295.479 126.82 295.5V295.5C127.081 295.539 127.347 295.481 127.568 295.337C127.789 295.194 127.95 294.974 128.02 294.72L145.72 232.94L141.15 230.51Z" fill="#263238" stroke="#263238" stroke-linecap="round" stroke-linejoin="round"/>
<path d="M168.83 229.72L159.13 294.45C159.108 294.599 159.116 294.751 159.155 294.897C159.194 295.043 159.263 295.179 159.356 295.297C159.45 295.415 159.567 295.513 159.7 295.584C159.833 295.655 159.98 295.698 160.13 295.71V295.71C160.393 295.724 160.652 295.643 160.86 295.482C161.068 295.32 161.21 295.088 161.26 294.83L173.57 231.75L168.83 229.72Z" fill="#263238" stroke="#263238" stroke-linecap="round" stroke-linejoin="round"/>
<path d="M203.17 230L212.29 294.82C212.311 294.97 212.363 295.114 212.443 295.243C212.523 295.372 212.629 295.483 212.754 295.569C212.879 295.654 213.021 295.713 213.17 295.741C213.319 295.769 213.472 295.765 213.62 295.73C213.876 295.667 214.102 295.514 214.255 295.3C214.409 295.085 214.482 294.823 214.46 294.56L208 228.91L203.17 230Z" fill="#263238" stroke="#263238" stroke-linecap="round" stroke-linejoin="round"/>
<path d="M126.72 162.73L137.82 234.9H216.76C216.76 234.9 217.93 214.1 214.45 206.75C210.97 199.4 168 215.16 166.45 214.75C165.3 214.46 167 177.2 169.11 162.64C169.258 161.615 169.183 160.57 168.892 159.577C168.6 158.583 168.098 157.664 167.42 156.881C166.742 156.099 165.903 155.471 164.961 155.042C164.019 154.612 162.995 154.389 161.96 154.39H133.86C132.816 154.389 131.785 154.614 130.837 155.05C129.889 155.486 129.047 156.122 128.368 156.915C127.689 157.707 127.191 158.638 126.906 159.642C126.622 160.645 126.558 161.699 126.72 162.73V162.73Z" fill="#4941C0" stroke="#263238" stroke-linecap="round" stroke-linejoin="round"/>
<path d="M214.45 206.75C210.97 199.4 168 215.16 166.45 214.75C165.3 214.46 167 177.2 169.11 162.64C169.294 161.628 169.254 160.588 168.99 159.594C168.727 158.599 168.248 157.675 167.587 156.887C166.926 156.099 166.1 155.466 165.167 155.034C164.233 154.601 163.216 154.38 162.188 154.385C161.159 154.39 160.144 154.622 159.216 155.064C158.287 155.506 157.467 156.147 156.814 156.942C156.161 157.737 155.692 158.666 155.439 159.663C155.185 160.66 155.155 161.7 155.35 162.71L166.45 234.88H216.76C216.76 234.88 217.93 214.1 214.45 206.75Z" fill="#263238" stroke="#263238" stroke-linecap="round" stroke-linejoin="round"/>
<path d="M254.39 147.48C254.39 147.48 253.12 148.75 251.21 150.98Z" fill="white"/>
<path d="M254.39 147.48C254.39 147.48 253.12 148.75 251.21 150.98" stroke="#263238" stroke-linecap="round" stroke-linejoin="round"/>
<path d="M254.19 150.06C254.19 150.06 252.64 153.21 251.69 154.64Z" fill="white"/>
<path d="M254.19 150.06C254.19 150.06 252.64 153.21 251.69 154.64" stroke="#263238" stroke-linecap="round" stroke-linejoin="round"/>
<path d="M40.3601 186.54C42.0201 187.26 46.0701 187.17 46.0801 187.17C46.0901 187.17 45.2101 184.52 45.1301 184.36C44.2401 182.49 41.4201 179.42 39.1301 179.73C38.751 179.792 38.3892 179.933 38.0683 180.144C37.7475 180.355 37.4748 180.632 37.2681 180.955C37.0614 181.279 36.9254 181.643 36.8688 182.023C36.8123 182.402 36.8366 182.79 36.9401 183.16C37.3201 184.74 38.9401 185.92 40.3601 186.54Z" fill="#263238"/>
<path d="M93.5101 172.73C91.2101 172.48 88.5101 175.63 87.6401 177.52C87.5701 177.68 86.7301 180.36 86.7701 180.36C86.3301 180.85 85.8701 181.36 85.3801 181.98C84.4801 183.08 83.4801 184.34 82.4701 185.78C81.3822 187.323 80.3807 188.926 79.4701 190.58C78.4437 192.435 77.5805 194.376 76.8901 196.38C76.8944 196.403 76.8944 196.427 76.8901 196.45C76.8901 195.78 76.8901 193.88 76.8901 193.74C76.6201 191.69 74.8901 187.89 72.6301 187.47C72.2536 187.409 71.8685 187.428 71.4997 187.525C71.1309 187.622 70.7866 187.796 70.4889 188.034C70.1911 188.272 69.9467 188.57 69.7712 188.909C69.5957 189.248 69.4932 189.619 69.4701 190C69.3301 191.63 70.4701 193.26 71.6601 194.28C72.9601 195.44 76.5601 196.56 76.8501 196.65C76.1962 198.729 75.6883 200.85 75.3301 203C75.1001 204.24 74.9201 205.49 74.7501 206.75C74.7501 206.16 74.7501 205.64 74.7501 205.57C74.4901 203.52 72.7501 199.72 70.5001 199.3C70.1206 199.241 69.7329 199.262 69.3622 199.362C68.9914 199.462 68.6458 199.639 68.3478 199.881C68.0499 200.124 67.8062 200.426 67.6326 200.768C67.459 201.111 67.3593 201.486 67.3401 201.87C67.2101 203.5 68.3401 205.13 69.5401 206.16C70.7401 207.19 73.7501 208.22 74.5401 208.47C74.4801 208.96 74.4101 209.47 74.3501 209.92C74.0801 212.24 73.8101 214.56 73.4801 216.82C73.3601 217.62 73.2201 218.4 73.0801 219.18C73.0801 218.66 73.0801 218.23 73.0801 218.18C72.8101 216.13 71.0801 212.33 68.8201 211.91C68.4406 211.852 68.0532 211.875 67.6829 211.976C67.3127 212.077 66.9679 212.256 66.6709 212.499C66.3739 212.742 66.1314 213.045 65.9589 213.388C65.7865 213.731 65.6881 214.106 65.6701 214.49C65.5401 216.11 66.6701 217.74 67.8701 218.77C69.3632 219.757 70.9989 220.509 72.7201 221C72.5501 221.8 72.3801 222.59 72.1801 223.36C72.0301 223.88 71.9301 224.36 71.7501 224.9C71.5701 225.44 71.4201 225.9 71.2601 226.42C70.9101 227.37 70.5601 228.36 70.2001 229.28C69.9501 229.93 69.7001 230.54 69.4601 231.15C69.5801 230.36 69.7901 228.8 69.8001 228.67C69.7719 226.853 69.2797 225.073 68.3701 223.5C68.3949 223.301 68.3949 223.099 68.3701 222.9C68.3248 222.515 68.198 222.144 67.9982 221.812C67.7984 221.48 67.5302 221.194 67.2114 220.974C66.8926 220.753 66.5305 220.603 66.1492 220.534C65.768 220.464 65.3762 220.476 65.0001 220.57C62.7601 221.16 61.3501 225.08 61.2401 227.14C61.2401 227.26 61.3201 228.59 61.3801 229.43C61.2701 228.94 61.1601 228.43 61.0401 227.97C60.8101 226.97 60.5401 225.97 60.2701 224.97C60.1101 224.46 59.9601 223.97 59.8001 223.44C59.6401 222.91 59.4401 222.44 59.2601 221.88C58.8201 220.67 58.3201 219.47 57.7801 218.27C58.6401 218.06 61.7001 217.27 62.9301 216.34C64.1601 215.41 65.4501 213.86 65.4401 212.23C65.452 211.842 65.3809 211.455 65.2315 211.097C65.0822 210.738 64.8581 210.416 64.5741 210.151C64.2901 209.886 63.9529 209.684 63.5849 209.56C63.2169 209.436 62.8266 209.391 62.4401 209.43C60.1401 209.68 58.1401 213.34 57.7301 215.36C57.7301 215.49 57.5601 216.97 57.5001 217.79C57.1801 217.07 56.8501 216.35 56.5001 215.63C55.5001 213.57 54.3601 211.5 53.2701 209.44L52.2701 207.54C52.5801 207.47 56.2701 206.63 57.6101 205.54C58.9501 204.45 60.1301 203.07 60.1201 201.43C60.1304 201.042 60.0581 200.657 59.9083 200.299C59.7584 199.941 59.5342 199.619 59.2506 199.354C58.967 199.09 58.6304 198.888 58.2632 198.763C57.8959 198.638 57.5063 198.593 57.1201 198.63C54.8201 198.88 52.8301 202.54 52.4101 204.56C52.4101 204.72 52.1801 206.85 52.1601 207.4C51.4401 206.01 50.7301 204.61 50.0901 203.21C49.2115 201.318 48.4566 199.37 47.8301 197.38C47.9701 197.38 51.8301 196.48 53.2101 195.38C54.4301 194.44 55.7301 192.9 55.7101 191.27C55.722 190.882 55.6509 190.495 55.5015 190.137C55.3522 189.778 55.1281 189.456 54.8441 189.191C54.5601 188.926 54.2229 188.724 53.8549 188.6C53.4869 188.476 53.0966 188.431 52.7101 188.47C50.4101 188.72 48.4201 192.38 48.0001 194.4C48.0001 194.56 47.7601 196.86 47.7501 197.28C47.7501 197.16 47.6701 197.05 47.6301 196.93C47.0618 194.918 46.6703 192.86 46.4601 190.78C46.3401 189.63 46.2801 188.53 46.2401 187.45C46.9701 187.36 50.2401 186.92 51.6701 186.09C53.1001 185.26 54.4501 183.9 54.6701 182.28C54.7221 181.899 54.6936 181.512 54.5864 181.143C54.4791 180.775 54.2955 180.433 54.0476 180.139C53.7996 179.846 53.4927 179.608 53.1469 179.441C52.801 179.274 52.424 179.182 52.0401 179.17C49.7201 179.17 47.3401 182.59 46.7001 184.55C46.7001 184.66 46.4401 185.78 46.2801 186.6C46.2801 186.12 46.2801 185.6 46.2801 185.15C46.2801 183.4 46.3901 181.8 46.5001 180.39C46.5701 179.58 46.6501 178.85 46.7301 178.17C47.4001 177.71 50.0701 175.83 50.8901 174.48C51.7101 173.13 52.3501 171.26 51.7501 169.74C51.6213 169.379 51.4179 169.049 51.1532 168.772C50.8884 168.495 50.5683 168.276 50.2136 168.131C49.8589 167.986 49.4776 167.917 49.0945 167.929C48.7114 167.941 48.3351 168.033 47.9901 168.2C45.9301 169.26 45.3901 173.39 45.7301 175.43C45.7301 175.6 46.5401 178.3 46.5701 178.28C46.4801 178.93 46.3901 179.63 46.3101 180.4C46.1701 181.82 46.0301 183.4 45.9801 185.18C45.9198 187.068 45.9666 188.957 46.1201 190.84C46.2674 192.952 46.602 195.047 47.1201 197.1C47.1244 197.123 47.1244 197.147 47.1201 197.17C46.7601 196.6 45.6901 195.04 45.5901 194.93C44.2401 193.37 40.7101 191.14 38.5901 192.05C38.2406 192.208 37.9284 192.439 37.6739 192.726C37.4194 193.014 37.2284 193.351 37.1133 193.717C36.9981 194.084 36.9615 194.47 37.0058 194.851C37.05 195.232 37.1742 195.6 37.3701 195.93C38.1601 197.36 40.0401 198.07 41.5701 198.29C43.2901 198.54 46.9101 197.49 47.2001 197.41C47.7949 199.483 48.5265 201.514 49.3901 203.49C49.8901 204.64 50.3901 205.79 50.9801 206.93C50.6501 206.44 50.3501 206.01 50.3101 205.93C48.9601 204.37 45.4301 202.14 43.3101 203.05C42.9665 203.225 42.6638 203.471 42.4221 203.771C42.1804 204.072 42.0051 204.42 41.9078 204.794C41.8105 205.167 41.7933 205.556 41.8575 205.937C41.9217 206.317 42.0657 206.679 42.2801 207C43.0601 208.43 44.9501 209.14 46.4701 209.36C47.9901 209.58 51.1201 208.76 51.9401 208.52C52.1601 208.96 52.3701 209.4 52.5901 209.83C53.5901 211.92 54.7001 214 55.6701 216.07C56.0101 216.8 56.3201 217.53 56.6701 218.26L56.0801 217.42C54.7301 215.86 51.2001 213.64 49.0801 214.54C48.7311 214.7 48.4197 214.933 48.1662 215.221C47.9127 215.51 47.7228 215.849 47.6087 216.215C47.4946 216.582 47.4589 216.969 47.5039 217.35C47.549 217.732 47.6737 218.1 47.8701 218.43C48.6601 219.86 50.5401 220.57 52.0601 220.79C53.8672 220.797 55.6648 220.527 57.3901 219.99C57.6901 220.75 57.9901 221.51 58.2401 222.25C58.4101 222.77 58.6001 223.25 58.7301 223.78C58.8601 224.31 59.0201 224.78 59.1601 225.32C59.4001 226.32 59.6501 227.32 59.8601 228.32C60.0101 228.99 60.1401 229.64 60.2701 230.32C59.9301 229.59 59.2701 228.17 59.1801 228.06C58.0801 226.31 54.9301 223.58 52.6901 224.15C52.3215 224.256 51.9793 224.439 51.6858 224.686C51.3923 224.933 51.1539 225.239 50.9861 225.584C50.8183 225.929 50.7248 226.305 50.7117 226.689C50.6986 227.072 50.7662 227.454 50.9101 227.81C51.4701 229.34 53.2201 230.33 54.6901 230.81C56.3201 231.3 59.9101 230.81 60.3601 230.81C60.5801 231.88 60.7701 232.93 60.9501 233.92C61.5501 237.35 61.9501 240.24 62.1601 242.25C62.1601 242.61 62.2401 242.93 62.2701 243.25H55.2701L57.8101 292.82H69.6701L72.2101 243.25H65.7201L65.8701 242.96C66.7601 241.1 67.9901 238.44 69.3201 235.18C69.7501 234.18 70.1801 233.05 70.6101 231.91C71.0501 232 74.6101 232.72 76.2601 232.34C77.7701 232 79.5901 231.15 80.2601 229.67C80.4311 229.326 80.5275 228.95 80.5431 228.566C80.5587 228.182 80.4931 227.799 80.3506 227.442C80.2081 227.085 79.9918 226.763 79.716 226.495C79.4402 226.228 79.1111 226.021 78.7501 225.89C76.5601 225.15 73.2201 227.64 71.9901 229.3C71.9201 229.4 71.2501 230.55 70.8401 231.3L71.3701 229.9C71.7201 228.95 72.0401 227.98 72.3701 226.95L72.8201 225.42C72.9901 224.91 73.1001 224.36 73.2401 223.82C73.5301 222.57 73.7701 221.29 73.9901 219.99C74.8201 220.29 77.8101 221.33 79.3501 221.22C80.8901 221.11 82.8201 220.55 83.7101 219.22C83.9357 218.904 84.0917 218.544 84.1677 218.164C84.2437 217.783 84.2381 217.391 84.1511 217.013C84.0641 216.635 83.8978 216.279 83.6632 215.97C83.4286 215.661 83.131 215.405 82.7901 215.22C80.7901 214.22 77.0501 216.12 75.5901 217.57C75.5001 217.67 74.5901 218.83 74.0701 219.48C74.1901 218.7 74.3101 217.92 74.4101 217.12C74.7001 214.83 74.9101 212.5 75.1401 210.18C75.2101 209.47 75.2901 208.76 75.3601 208.05C75.6601 208.16 79.1801 209.47 80.9101 209.35C82.4401 209.24 84.3701 208.68 85.2601 207.35C85.4857 207.034 85.6417 206.674 85.7177 206.294C85.7937 205.913 85.7881 205.521 85.7011 205.143C85.6141 204.765 85.4478 204.409 85.2132 204.1C84.9786 203.791 84.681 203.535 84.3401 203.35C82.3401 202.3 78.6101 204.25 77.1401 205.7C77.0301 205.81 75.6901 207.49 75.3701 207.93C75.5401 206.37 75.7201 204.82 75.9601 203.29C76.268 201.229 76.7123 199.192 77.2901 197.19C77.4301 197.19 81.0901 198.62 82.8701 198.5C84.4001 198.39 86.3301 197.82 87.2201 196.5C87.4473 196.185 87.6046 195.825 87.6815 195.444C87.7584 195.063 87.7532 194.67 87.6661 194.292C87.579 193.913 87.4121 193.557 87.1765 193.248C86.941 192.939 86.6422 192.684 86.3001 192.5C84.3001 191.44 80.5701 193.39 79.1001 194.85C78.9901 194.96 77.5501 196.77 77.3101 197.11L77.4001 196.76C78.035 194.766 78.8448 192.832 79.8201 190.98C80.3501 189.98 80.9101 188.98 81.4701 188.08C82.1301 188.41 85.1501 189.88 86.7501 189.94C88.3501 190 90.2701 189.65 91.3101 188.39C91.5572 188.103 91.7419 187.767 91.8522 187.405C91.9626 187.042 91.9963 186.66 91.9511 186.284C91.906 185.908 91.783 185.545 91.59 185.219C91.397 184.893 91.1382 184.611 90.8301 184.39C88.9001 183.11 85.0301 184.64 83.4201 185.93C83.3301 186 82.5101 186.81 81.9301 187.41C82.1901 187 82.4501 186.57 82.7101 186.19C83.7101 184.73 84.6501 183.46 85.5301 182.33C86.0301 181.7 86.5301 181.14 86.9401 180.62C87.7501 180.62 91.0201 180.5 92.4501 179.83C93.8801 179.16 95.4501 177.95 95.7801 176.36C95.9184 175.972 95.9671 175.558 95.9226 175.148C95.8782 174.739 95.7416 174.345 95.5233 173.996C95.3049 173.647 95.0104 173.351 94.6618 173.132C94.3131 172.913 93.9194 172.775 93.5101 172.73V172.73ZM68.0601 234.48C66.6701 237.68 65.3901 240.29 64.4801 242.1L63.9701 243.1H63.8201C63.8201 242.75 63.7201 242.36 63.6601 241.93C63.3801 239.93 62.9401 236.99 62.2501 233.54C62.0401 232.45 61.7901 231.29 61.5201 230.1C62.6009 229.664 63.6559 229.166 64.6801 228.61C66.0713 229.817 67.6226 230.827 69.2901 231.61C68.8801 232.58 68.4601 233.56 68.0601 234.48Z" fill="#263238"/>
<path d="M81.4001 187.43C81.4001 187.43 82.1401 184.74 82.1601 184.56C82.4501 182.51 81.8001 178.4 79.7101 177.39C79.3628 177.235 78.987 177.153 78.6065 177.151C78.2261 177.149 77.8494 177.226 77.5004 177.378C77.1514 177.529 76.8377 177.752 76.5794 178.031C76.3211 178.31 76.1238 178.64 76.0001 179C75.4401 180.53 76.1501 182.41 77.0001 183.71C78.0001 185.27 81.4001 187.43 81.4001 187.43Z" fill="#263238"/>
<path d="M457.93 292.58H51.1799V297.56H457.93V292.58Z" fill="#263238"/>
</g>
<defs>
<clipPath id="clip0_12_847">
<rect width="500" height="298" fill="white"/>
</clipPath>
</defs>
</svg>
