<svg xmlns="http://www.w3.org/2000/svg" xmlns:xlink="http://www.w3.org/1999/xlink" viewBox="0 0 500 500"><defs><clipPath id="freepik--clip-path--inject-101"><rect x="164.86" y="73.47" width="188" height="242.07" rx="8.26" style="fill:#4941C0;stroke:#263238;stroke-linecap:round;stroke-linejoin:round"></rect></clipPath><clipPath id="freepik--clip-path-2--inject-101"><rect x="172.86" y="188.73" width="86" height="67.08" style="fill:#4941C0;stroke:#263238;stroke-linecap:round;stroke-linejoin:round"></rect></clipPath><clipPath id="freepik--clip-path-3--inject-101"><path d="M380.93,284.11l18,68s.25,7.5,3.75,13.25l4.91,57.28s3.75,5.75,17.25,0c0,0,.59-41-4.41-66.53l-4.25-48.58a73.07,73.07,0,0,0-.75-22.92Z" style="fill:#263238;stroke:#263238;stroke-linecap:round;stroke-linejoin:round;stroke-width:0.75px"></path></clipPath><clipPath id="freepik--clip-path-4--inject-101"><path d="M384.63,192.13v-3.79s-6.49,1-7.38-.67.56-8.61.56-8.61-3.12.11-3.12-1.34,3.68-7.59,3.68-7.59-.44-4.92,0-6.48,5-10.39,5-10.39,6.7,3.68,6.48,5.69-2.12,3.91-.56,5.59,3.69,6.2,3,8.35l1,.7s.56-4,2.8-4.69,4,3.79,2.45,6.92-3.35,2.57-3.35,2.57.9,5.37,3.24,7.15l.71,5.59Z" style="fill:#fff;stroke:#263238;stroke-linecap:round;stroke-linejoin:round"></path></clipPath><clipPath id="freepik--clip-path-5--inject-101"><path d="M421.81,213.93s18.88,38.87,14.88,44.89-21.25,25.76-21.25,25.76l-7-8,14-23.76-7.25-14.74S411.94,226.52,421.81,213.93Z" style="fill:#4941C0;stroke:#263238;stroke-linecap:round;stroke-linejoin:round"></path></clipPath><clipPath id="freepik--clip-path-6--inject-101"><path d="M362.19,283.67,365.92,253l-1.51-46a9,9,0,0,1,6.52-9c12.7-3.68,39.89-8.2,50.88,15.94a11,11,0,0,1,.85,6.45l-7.47,42.95,2,23.43S392.85,304.67,362.19,283.67Z" style="fill:#4941C0;stroke:#263238;stroke-linecap:round;stroke-linejoin:round"></path></clipPath><clipPath id="freepik--clip-path-7--inject-101"><rect x="141.24" y="293.51" width="45.55" height="34.89" rx="8.32" style="fill:#263238;stroke:#263238;stroke-linecap:round;stroke-linejoin:round"></rect></clipPath><clipPath id="freepik--clip-path-8--inject-101"><path d="M189.36,330.15s62.09-4.16,64.92,4.61,4.16,36.84,4.3,48-.74,25.25-.74,25.25a19.72,19.72,0,0,1-11.44,0s-2.73-16.19-4.7-24.06-4.06-18.37-2.87-35c0,0-59.5,9-59.83-1.44S189.36,330.15,189.36,330.15Z" style="fill:#fff;stroke:#263238;stroke-linecap:round;stroke-linejoin:round"></path></clipPath><clipPath id="freepik--clip-path-9--inject-101"><path d="M259.28,404.44l-.43,4.2s-7.1,3.81-13.35.29l-1.3-4.13S248.43,407.7,259.28,404.44Z" style="fill:#4941C0;stroke:#263238;stroke-linecap:round;stroke-linejoin:round;stroke-width:0.75px"></path></clipPath><clipPath id="freepik--clip-path-10--inject-101"><path d="M168,332.49s-8.81,17.6,2.45,19.16,45.68-.44,45.68-.44a174.54,174.54,0,0,0-11.44,21.58c-4.46,10.54-8.91,21.39-8.91,21.39s1.93,5.2,9.8,6.24c0,0,6.39-10,20.35-25.55s17.83-31.2,14.86-36.55-18.42-8.24-43.38-9.39Z" style="fill:#fff;stroke:#263238;stroke-linecap:round;stroke-linejoin:round"></path></clipPath><clipPath id="freepik--clip-path-11--inject-101"><path d="M208.22,398.93l-2.67,3.27s-8-.74-11.29-7.13l1.19-4.16S197.38,395.66,208.22,398.93Z" style="fill:#4941C0;stroke:#263238;stroke-linecap:round;stroke-linejoin:round;stroke-width:0.75px"></path></clipPath><clipPath id="freepik--clip-path-12--inject-101"><polygon points="193.54 258.45 194.87 250.65 184.81 241.98 181.97 255.04 193.54 258.45" style="fill:#fff;stroke:#263238;stroke-linecap:round;stroke-linejoin:round"></polygon></clipPath><clipPath id="freepik--clip-path-13--inject-101"><path d="M201.65,261.24l20.14.42,7.56-21L236,243s-3.41,26.59-6.82,28.17S205,275,205,275,198.54,267.87,201.65,261.24Z" style="fill:#4941C0;stroke:#263238;stroke-linecap:round;stroke-linejoin:round"></path></clipPath><clipPath id="freepik--clip-path-14--inject-101"><rect x="227.41" y="194.9" width="7.24" height="5.16" transform="translate(-38.23 56.51) rotate(-12.89)" style="fill:#4941C0"></rect></clipPath><clipPath id="freepik--clip-path-15--inject-101"><rect x="228.84" y="201.13" width="7.24" height="5.16" transform="translate(-39.58 56.98) rotate(-12.89)" style="fill:#4941C0"></rect></clipPath><clipPath id="freepik--clip-path-16--inject-101"><rect x="231.69" y="213.58" width="7.24" height="5.16" transform="translate(-42.29 57.93) rotate(-12.89)" style="fill:#4941C0"></rect></clipPath><clipPath id="freepik--clip-path-17--inject-101"><rect x="233.11" y="219.81" width="7.24" height="5.16" transform="translate(-43.64 58.41) rotate(-12.89)" style="fill:#4941C0"></rect></clipPath><clipPath id="freepik--clip-path-18--inject-101"><path d="M164.16,261.68l6.29,56.24-4,16.91s4.21.95,15.88-2.72,24.16-2.57,24.16-2.57,5.17-37.44,3.1-49.14a46.85,46.85,0,0,0-7.92-19.16s-22.41-9.8-36.1-2.31A2.77,2.77,0,0,0,164.16,261.68Z" style="fill:#4941C0;stroke:#263238;stroke-linecap:round;stroke-linejoin:round"></path></clipPath><clipPath id="freepik--clip-path-19--inject-101"><rect x="221.68" y="319.08" width="5.8" height="4.13" transform="translate(497.51 39.93) rotate(79.11)" style="fill:#4941C0"></rect></clipPath><clipPath id="freepik--clip-path-20--inject-101"><rect x="216.66" y="320.04" width="5.8" height="4.13" transform="translate(494.38 45.65) rotate(79.11)" style="fill:#4941C0"></rect></clipPath><clipPath id="freepik--clip-path-21--inject-101"><rect x="206.62" y="321.98" width="5.79" height="4.13" transform="translate(488.14 57.07) rotate(79.11)" style="fill:#4941C0"></rect></clipPath><clipPath id="freepik--clip-path-22--inject-101"><rect x="201.6" y="322.94" width="5.79" height="4.13" transform="translate(485.01 62.78) rotate(79.11)" style="fill:#4941C0"></rect></clipPath><clipPath id="freepik--clip-path-23--inject-101"><rect x="216.2" y="306.79" width="5.79" height="4.13" transform="translate(309.15 -58.96) rotate(49.11)" style="fill:#4941C0"></rect></clipPath><clipPath id="freepik--clip-path-24--inject-101"><rect x="212.33" y="310.13" width="5.8" height="4.13" transform="translate(310.35 -54.88) rotate(49.11)" style="fill:#4941C0"></rect></clipPath><clipPath id="freepik--clip-path-25--inject-101"><rect x="204.61" y="316.83" width="5.79" height="4.13" transform="translate(312.74 -46.72) rotate(49.11)" style="fill:#4941C0"></rect></clipPath><clipPath id="freepik--clip-path-26--inject-101"><rect x="200.74" y="320.17" width="5.8" height="4.13" transform="translate(313.93 -42.65) rotate(49.11)" style="fill:#4941C0"></rect></clipPath><clipPath id="freepik--clip-path-27--inject-101"><rect x="204.64" y="298.57" width="5.8" height="4.13" transform="translate(109.85 -51.37) rotate(19.11)" style="fill:#4941C0"></rect></clipPath><clipPath id="freepik--clip-path-28--inject-101"><rect x="202.96" y="303.4" width="5.79" height="4.13" transform="translate(111.34 -50.56) rotate(19.11)" style="fill:#4941C0"></rect></clipPath><clipPath id="freepik--clip-path-29--inject-101"><rect x="199.62" y="313.06" width="5.8" height="4.13" transform="translate(114.32 -48.93) rotate(19.11)" style="fill:#4941C0"></rect></clipPath><clipPath id="freepik--clip-path-30--inject-101"><rect x="197.94" y="317.89" width="5.79" height="4.13" transform="translate(115.81 -48.12) rotate(19.11)" style="fill:#4941C0"></rect></clipPath><clipPath id="freepik--clip-path-31--inject-101"><path d="M97.94,179.18c.09,2.68.37,10.72.37,10.72l15.94,9.56,1-18.22.55-25,2.62-3.64s3.92-6-2.62-8.33-4.72,2-11.22,2.73S82.84,158,89.74,166.93,97.78,174.7,97.94,179.18Z" style="fill:#999;stroke:#263238;stroke-linecap:round;stroke-linejoin:round"></path></clipPath><clipPath id="freepik--clip-path-32--inject-101"><path d="M104.18,165.89s-6.42.17-3,5,7,3.91,7,3.91l3.91,7.45s13.61,1.92,16.82,1-2.34-12.14-2.34-12.14l2.13-2.44a1.31,1.31,0,0,0-.17-1.9l-5.08-4.08c.43-2.51-5.12-10.06-5.12-10.06s-8.24-.09-9,2.69a47.55,47.55,0,0,0-1.13,5l-4.68,1.91Z" style="fill:#999;stroke:#263238;stroke-linecap:round;stroke-linejoin:round"></path></clipPath><clipPath id="freepik--clip-path-33--inject-101"><polygon points="187.14 174.86 195.6 155.13 210.3 170.77 187.14 174.86" style="fill:#4941C0;stroke:#263238;stroke-linecap:round;stroke-linejoin:round;stroke-width:0.75px"></polygon></clipPath><clipPath id="freepik--clip-path-34--inject-101"><path d="M207.11,153.1a3,3,0,1,1-3.47-2.43A3,3,0,0,1,207.11,153.1Z" style="fill:#4941C0;stroke:#263238;stroke-linecap:round;stroke-linejoin:round;stroke-width:0.75px"></path></clipPath><clipPath id="freepik--clip-path-35--inject-101"><path d="M127.15,290.94S116.47,320.61,102.8,349c0,0-2.65,12.48-8.62,21l-15,47.89s-6.58,2.71-14.38-2c0,0,3.72-30.64,13.23-52.87l5.61-17.61,7-35.46s-5.93-10.26-4.35-25.32l26.33-.36Z" style="fill:#4941C0;stroke:#263238;stroke-linecap:round;stroke-linejoin:round"></path></clipPath><clipPath id="freepik--clip-path-36--inject-101"><polygon points="110.48 292.93 122.22 274.95 134 292.89 110.48 292.93" style="fill:#4941C0;stroke:#263238;stroke-linecap:round;stroke-linejoin:round;stroke-width:0.75px"></polygon></clipPath><clipPath id="freepik--clip-path-37--inject-101"><path d="M133.91,274.93a3,3,0,1,1-3-3A3,3,0,0,1,133.91,274.93Z" style="fill:#4941C0;stroke:#263238;stroke-linecap:round;stroke-linejoin:round;stroke-width:0.75px"></path></clipPath><clipPath id="freepik--clip-path-38--inject-101"><polygon points="111.96 295 121.29 275.66 135.29 291.93 111.96 295" style="fill:#4941C0;stroke:#263238;stroke-linecap:round;stroke-linejoin:round;stroke-width:0.75px"></polygon></clipPath><clipPath id="freepik--clip-path-39--inject-101"><path d="M132.88,274.13a3,3,0,1,1-3.37-2.58A3,3,0,0,1,132.88,274.13Z" style="fill:#4941C0;stroke:#263238;stroke-linecap:round;stroke-linejoin:round;stroke-width:0.75px"></path></clipPath></defs><g id="freepik--background-simple--inject-101"><path d="M362.46,140.51c-33.6-59-86.46-91.92-150.16-87S145.65,106,145.65,159.34c0,52.72-75.28,28.13-99.28,91.72-18.7,49.55,29.94,140.08,52.34,177.66H416.47c12.33-42.59,34.73-126.41,37.16-180.66C458,150.52,389.27,187.61,362.46,140.51Z" style="fill:#4941C0"></path><path d="M362.46,140.51c-33.6-59-86.46-91.92-150.16-87S145.65,106,145.65,159.34c0,52.72-75.28,28.13-99.28,91.72-18.7,49.55,29.94,140.08,52.34,177.66H416.47c12.33-42.59,34.73-126.41,37.16-180.66C458,150.52,389.27,187.61,362.46,140.51Z" style="fill:#fff;opacity:0.7000000000000001"></path></g><g id="freepik--Plant--inject-101"><path d="M336.18,360.48s20.5-61.65-5.24-4.71c0,0-9.08-49.56-6.71,4.52,0,0-26.54-41.5-4.16,9,0,0-34.44-36.73,1.12,11.13,0,0,69.46-3.49,15.49-5.86,0,0,62.83-26.62,2.94-7.48C339.62,367.1,393.17,314.07,336.18,360.48Z" style="fill:#4941C0"></path><path d="M331.81,361.85S318,381.32,313,401.5" style="fill:none;stroke:#263238;stroke-linecap:round;stroke-linejoin:round;stroke-width:0.75px"></path><path d="M294,362.46s-48.34-38.08-5.89,3.15c0,0-47.06-7.83,1.87,7.43,0,0-45.5,10.31,6.7,6.6,0,0-43.79,18.88,10.28,2.58,0,0,19.21-63-.25-15.68,0,0-3.52-64.53-5.71-5C301,361.52,270.92,296.78,294,362.46Z" style="fill:#4941C0"></path><path d="M294,362.46s-48.34-38.08-5.89,3.15c0,0-47.06-7.83,1.87,7.43,0,0-45.5,10.31,6.7,6.6,0,0-43.79,18.88,10.28,2.58,0,0,19.21-63-.25-15.68,0,0-3.52-64.53-5.71-5C301,361.52,270.92,296.78,294,362.46Z" style="fill:#fff;opacity:0.30000000000000004"></path><path d="M316.76,403.35c-8.69-29-24-36.08-24-36.08" style="fill:none;stroke:#263238;stroke-linecap:round;stroke-linejoin:round;stroke-width:0.75px"></path><path d="M313.56,365.83s6.2,5.82,7.85,13.73a48,48,0,0,1,18.51-2.49" style="fill:none;stroke:#263238;stroke-linecap:round;stroke-linejoin:round;stroke-width:0.5px"></path><path d="M320.11,359.56s4.26,5.17,1.3,20l16.3-11.43" style="fill:none;stroke:#263238;stroke-linecap:round;stroke-linejoin:round;stroke-width:0.5px"></path><path d="M308.77,366.56a35.38,35.38,0,0,0-2.54,13.88s-7,.78-11.74,3" style="fill:none;stroke:#263238;stroke-linecap:round;stroke-linejoin:round;stroke-width:0.5px"></path><path d="M301.22,364.72a47.42,47.42,0,0,0,5,15.72s-4.46-4-16.26-4.66" style="fill:none;stroke:#263238;stroke-linecap:round;stroke-linejoin:round;stroke-width:0.5px"></path><path d="M300.24,399.29h28.84l-4.43,27h-1.4v1.08a1.4,1.4,0,0,1-1.4,1.41h-1.34a1.4,1.4,0,0,1-1.4-1.41v-1.08h-8.9v1.08a1.41,1.41,0,0,1-1.41,1.41h-1.34a1.41,1.41,0,0,1-1.4-1.41v-1.08h-1.4Z" style="fill:#263238;stroke:#263238;stroke-linecap:round;stroke-linejoin:round;stroke-width:0.75px"></path></g><g id="freepik--Shadow--inject-101"><path d="M427.41,428.72H89.91c-20.37,3.12-36.71,7.16-31.58,11.76,12,10.77,98.42-1.81,95.88,10.66s62.27,9.38,97.53,9.38,73.75-3.31,61.36-12.88,69.86-2.58,105.21-2.58C444.11,445.06,461.79,437.86,427.41,428.72Z" style="fill:#4941C0"></path></g><g id="freepik--Floor--inject-101"><line x1="27.57" y1="428.72" x2="472.43" y2="428.72" style="fill:none;stroke:#263238;stroke-linecap:round;stroke-linejoin:round;stroke-width:0.75px"></line></g><g id="freepik--Layout--inject-101"><rect x="167.86" y="77.02" width="188" height="242.07" rx="8.26" style="fill:#263238;stroke:#263238;stroke-linecap:round;stroke-linejoin:round"></rect><rect x="164.86" y="73.47" width="188" height="242.07" rx="8.26" style="fill:#4941C0"></rect><g style="clip-path:url(#freepik--clip-path--inject-101)"><rect x="164.86" y="73.47" width="188" height="242.07" rx="8.26" style="fill:#fff;opacity:0.8"></rect></g><rect x="164.86" y="73.47" width="188" height="242.07" rx="8.26" style="fill:none;stroke:#263238;stroke-linecap:round;stroke-linejoin:round"></rect><rect x="172.86" y="108.06" width="172" height="67.08" style="fill:#fff;stroke:#263238;stroke-linecap:round;stroke-linejoin:round"></rect><line x1="344.86" y1="175.14" x2="172.86" y2="108.06" style="fill:none;stroke:#263238;stroke-linecap:round;stroke-linejoin:round;stroke-width:0.75px"></line><line x1="172.86" y1="175.14" x2="344.86" y2="108.06" style="fill:none;stroke:#263238;stroke-linecap:round;stroke-linejoin:round;stroke-width:0.75px"></line><rect x="172.86" y="188.73" width="86" height="67.08" style="fill:#4941C0"></rect><g style="clip-path:url(#freepik--clip-path-2--inject-101)"><rect x="172.86" y="188.73" width="86" height="67.08" style="fill:#fff;opacity:0.5"></rect></g><rect x="172.86" y="188.73" width="86" height="67.08" style="fill:none;stroke:#263238;stroke-linecap:round;stroke-linejoin:round"></rect><rect x="220.11" y="85.04" width="77.5" height="3" rx="1.5" style="fill:#263238;stroke:#263238;stroke-linecap:round;stroke-linejoin:round;stroke-width:0.75px"></rect><path d="M343.36,191.73h-74.5a1.5,1.5,0,0,1-1.5-1.5h0a1.5,1.5,0,0,1,1.5-1.5h74.5a1.5,1.5,0,0,1,1.5,1.5h0A1.5,1.5,0,0,1,343.36,191.73Z" style="fill:#263238;stroke:#263238;stroke-linecap:round;stroke-linejoin:round;stroke-width:0.75px"></path><path d="M327.36,208.31h-58.5a1.5,1.5,0,0,1-1.5-1.5h0a1.5,1.5,0,0,1,1.5-1.5h58.5a1.5,1.5,0,0,1,1.5,1.5h0A1.5,1.5,0,0,1,327.36,208.31Z" style="fill:#263238;stroke:#263238;stroke-linecap:round;stroke-linejoin:round;stroke-width:0.75px"></path><rect x="267.36" y="217.04" width="53.75" height="3" rx="1.5" style="fill:#263238;stroke:#263238;stroke-linecap:round;stroke-linejoin:round;stroke-width:0.75px"></rect><path d="M334.36,231.76h-65.5a1.5,1.5,0,0,1-1.5-1.5h0a1.5,1.5,0,0,1,1.5-1.5h65.5a1.5,1.5,0,0,1,1.5,1.5h0A1.5,1.5,0,0,1,334.36,231.76Z" style="fill:#263238;stroke:#263238;stroke-linecap:round;stroke-linejoin:round;stroke-width:0.75px"></path><path d="M328.11,243.48H268.86a1.5,1.5,0,0,1-1.5-1.5h0a1.5,1.5,0,0,1,1.5-1.5h59.25a1.5,1.5,0,0,1,1.5,1.5h0A1.5,1.5,0,0,1,328.11,243.48Z" style="fill:#263238;stroke:#263238;stroke-linecap:round;stroke-linejoin:round;stroke-width:0.75px"></path><path d="M319.61,255.21H268.86a1.5,1.5,0,0,1-1.5-1.5h0a1.5,1.5,0,0,1,1.5-1.5h50.75a1.5,1.5,0,0,1,1.5,1.5h0A1.5,1.5,0,0,1,319.61,255.21Z" style="fill:#263238;stroke:#263238;stroke-linecap:round;stroke-linejoin:round;stroke-width:0.75px"></path><path d="M307.36,98.2h-97a1.5,1.5,0,0,1-1.5-1.5h0a1.5,1.5,0,0,1,1.5-1.5h97a1.5,1.5,0,0,1,1.5,1.5h0A1.5,1.5,0,0,1,307.36,98.2Z" style="fill:#263238;stroke:#263238;stroke-linecap:round;stroke-linejoin:round;stroke-width:0.75px"></path><circle cx="258.86" cy="289.2" r="16" style="fill:#4941C0;stroke:#263238;stroke-linecap:round;stroke-linejoin:round;stroke-width:0.75px"></circle><circle cx="210.86" cy="289.2" r="16" style="fill:#4941C0;stroke:#263238;stroke-linecap:round;stroke-linejoin:round"></circle><circle cx="306.86" cy="289.2" r="16" style="fill:#4941C0;stroke:#263238;stroke-linecap:round;stroke-linejoin:round"></circle></g><g id="freepik--character-3--inject-101"><polygon points="300.98 217.64 274.14 217.64 274.14 180.69 293.69 180.69 300.98 187.97 300.98 217.64" style="fill:#fff;stroke:#263238;stroke-linecap:round;stroke-linejoin:round"></polygon><polygon points="293.69 180.69 293.69 180.69 293.69 181.69 293.69 188.98 300.98 188.98 300.98 187.97 293.69 180.69" style="fill:#263238;stroke:#263238;stroke-linecap:round;stroke-linejoin:round;stroke-width:0.75px"></polygon><polygon points="293.69 187.98 300.98 187.98 293.69 180.69 293.69 187.98" style="fill:#fff;stroke:#263238;stroke-linecap:round;stroke-linejoin:round"></polygon><path d="M286.48,190h4.34l3.32,20.38h-3.21l-.58-4.05v.06h-3.64l-.58,4h-3ZM290,203.6l-1.42-10.07h-.06l-1.4,10.07Z" style="fill:#4941C0;stroke:#4941C0;stroke-linecap:round;stroke-linejoin:round;stroke-width:0.5px"></path><path d="M284.48,189h4.34l3.32,20.38h-3.21l-.58-4.05v.06h-3.64l-.58,4h-3ZM288,202.6l-1.42-10.07h-.06l-1.4,10.07Z" style="fill:#fff;stroke:#263238;stroke-linecap:round;stroke-linejoin:round;stroke-width:0.75px"></path><path d="M380.93,284.11l18,68s.25,7.5,3.75,13.25l4.91,57.28s3.75,5.75,17.25,0c0,0,.59-41-4.41-66.53l-4.25-48.58a73.07,73.07,0,0,0-.75-22.92Z" style="fill:#263238"></path><g style="clip-path:url(#freepik--clip-path-3--inject-101)"><path d="M410.42,290.66c-2.45.86-5.14,1.38-7.53,2a3.63,3.63,0,0,1-.45.1c-2.06,5-4.12,10-6.43,14.94-2.72,5.8-6.2,13.1-6.32,20a4.25,4.25,0,0,1,3.7,3.53,47,47,0,0,0,1,4.8c.6,1.85,1.33,3.58,1.79,5.5.12.5.24,1,.35,1.49-.26-10.84-.92-21.39,6.35-30.88C408.17,305.3,409.9,296.73,410.42,290.66Z" style="opacity:0.5"></path></g><path d="M380.93,284.11l18,68s.25,7.5,3.75,13.25l4.91,57.28s3.75,5.75,17.25,0c0,0,.59-41-4.41-66.53l-4.25-48.58a73.07,73.07,0,0,0-.75-22.92Z" style="fill:none;stroke:#263238;stroke-linecap:round;stroke-linejoin:round;stroke-width:0.75px"></path><path d="M408.63,422.61s-8.67,4-11.78,4c-2.13,0-6.11-2.15-8,2.84,0,0-2.26,4.41,11.44,6a143.86,143.86,0,0,0,26.2.19,1.9,1.9,0,0,0,1.72-2.25l-.17-.89s-.34-6.56-4.42-9.85Z" style="fill:#4941C0;stroke:#263238;stroke-linecap:round;stroke-linejoin:round"></path><path d="M397.8,432.92c-8.91-1.74-8.68-4.19-8.68-4.19h0c-.11.22-.21.44-.31.69,0,0-2.26,4.41,11.44,6a143.86,143.86,0,0,0,26.2.19,1.9,1.9,0,0,0,1.72-2.25l-.07-.33-8.13.73S406.7,434.65,397.8,432.92Z" style="fill:#fff;stroke:#263238;stroke-linecap:round;stroke-linejoin:round;stroke-width:0.75px"></path><path d="M408.44,354a11.56,11.56,0,0,0,9.87,3.59" style="fill:none;stroke:#7f7f7f;stroke-linecap:round;stroke-linejoin:round;stroke-width:0.75px"></path><path d="M363.69,281.33s-4.5,11.75,3.75,62c0,0-1.5,4.75,1.5,14.25l4,32.25v32s2.75,6.75,19,0c0,0,.5-56.75-1.25-68.75l3.83-36.62a12.3,12.3,0,0,1,5-8.61c3.57-2.63,8.15-8.14,8.9-19.31Z" style="fill:#263238;stroke:#263238;stroke-linecap:round;stroke-linejoin:round;stroke-width:0.75px"></path><path d="M374.06,421.21s-9.57,4.4-13,4.37c-2.35,0-6.75-2.37-8.87,3.13,0,0-2.5,4.87,12.62,6.62a159.6,159.6,0,0,0,28.93.22,2.09,2.09,0,0,0,1.88-2.49l-.18-1s-.38-7.25-4.88-10.87Z" style="fill:#4941C0;stroke:#263238;stroke-linecap:round;stroke-linejoin:round"></path><path d="M362.1,432.58c-9.83-1.91-9.57-4.61-9.57-4.61v0a6.68,6.68,0,0,0-.34.76s-2.5,4.87,12.62,6.62a159.6,159.6,0,0,0,28.93.22,2.09,2.09,0,0,0,1.88-2.49l-.07-.36-9,.8S371.94,434.5,362.1,432.58Z" style="fill:#fff;stroke:#263238;stroke-linecap:round;stroke-linejoin:round;stroke-width:0.75px"></path><path d="M376.19,350.58s3.92,4.7,11.75,4.06" style="fill:none;stroke:#7f7f7f;stroke-linecap:round;stroke-linejoin:round;stroke-width:0.75px"></path><path d="M383.4,154.83s-8.09,3.63-8.71,0a11.07,11.07,0,0,0,4.91-3.75c2-2.75,12-2,12-2s17.63-1.65,15.38,7.37c0,0,7,6.61,1,16.24s-9.46,12.85-9.46,12.85l-6-1-8.34-25.37Z" style="fill:#263238;stroke:#263238;stroke-linecap:round;stroke-linejoin:round;stroke-width:0.75px"></path><path d="M384.63,192.13v-3.79s-6.49,1-7.38-.67.56-8.61.56-8.61-3.12.11-3.12-1.34,3.68-7.59,3.68-7.59-.44-4.92,0-6.48,5-10.39,5-10.39,6.7,3.68,6.48,5.69-2.12,3.91-.56,5.59,3.69,6.2,3,8.35l1,.7s.56-4,2.8-4.69,4,3.79,2.45,6.92-3.35,2.57-3.35,2.57.9,5.37,3.24,7.15l.71,5.59Z" style="fill:#fff"></path><g style="clip-path:url(#freepik--clip-path-4--inject-101)"><path d="M377.25,187.67s3.31.83,10.56-2.13,7.43-7.15,7.43-7.15l.32.57s-.62,6.58-10.93,9.38c-8.32,2.25-8.32.62-8.32.62Z" style="fill:#263238;stroke:#263238;stroke-linecap:round;stroke-linejoin:round;stroke-width:0.5px"></path></g><path d="M384.63,192.13v-3.79s-6.49,1-7.38-.67.56-8.61.56-8.61-3.12.11-3.12-1.34,3.68-7.59,3.68-7.59-.44-4.92,0-6.48,5-10.39,5-10.39,6.7,3.68,6.48,5.69-2.12,3.91-.56,5.59,3.69,6.2,3,8.35l1,.7s.56-4,2.8-4.69,4,3.79,2.45,6.92-3.35,2.57-3.35,2.57.9,5.37,3.24,7.15l.71,5.59Z" style="fill:none;stroke:#263238;stroke-linecap:round;stroke-linejoin:round"></path><path d="M384.3,179.06s-1.13,3.61-4.73,1.67" style="fill:none;stroke:#263238;stroke-linecap:round;stroke-linejoin:round;stroke-width:0.75px"></path><path d="M380.33,165.1a2.84,2.84,0,0,1,3.07,2" style="fill:none;stroke:#263238;stroke-linecap:round;stroke-linejoin:round;stroke-width:0.75px"></path><path d="M379.6,168.9c0,.74.33,1.34.73,1.34s.72-.6.72-1.34-.32-1.34-.72-1.34S379.6,168.16,379.6,168.9Z" style="fill:#2e353a"></path><path d="M421.81,213.93s18.88,38.87,14.88,44.89-21.25,25.76-21.25,25.76l-7-8,14-23.76-7.25-14.74S411.94,226.52,421.81,213.93Z" style="fill:#4941C0"></path><g style="clip-path:url(#freepik--clip-path-5--inject-101)"><path d="M422.66,240.33c1.08-6,.24-17,0-19.44a192.2,192.2,0,0,1-4.45,22,5.37,5.37,0,0,1-.35,1c1.8,2.82,3.93,5.49,3.62,9.06s-3.79,8.22-5.82,11.22a5.66,5.66,0,0,1-.8.94,5.08,5.08,0,0,1,.39.93c.84,2.85.71,5.78.73,8.71,2.44-14.86,11.32-19.5,12.09-22.86C429,247.81,421.44,247.08,422.66,240.33Z" style="opacity:0.2"></path></g><path d="M421.81,213.93s18.88,38.87,14.88,44.89-21.25,25.76-21.25,25.76l-7-8,14-23.76-7.25-14.74S411.94,226.52,421.81,213.93Z" style="fill:none;stroke:#263238;stroke-linecap:round;stroke-linejoin:round"></path><path d="M424.87,252.27a12.26,12.26,0,0,1,6.48,0" style="fill:none;stroke:#263238;stroke-linecap:round;stroke-linejoin:round;stroke-width:0.75px"></path><path d="M380.19,197.83l4.5-7.36s12.5-5.11,18.75,0l3.5,9.86Z" style="fill:#4941C0;stroke:#263238;stroke-linecap:round;stroke-linejoin:round"></path><path d="M362.19,283.67,365.92,253l-1.51-46a9,9,0,0,1,6.52-9c12.7-3.68,39.89-8.2,50.88,15.94a11,11,0,0,1,.85,6.45l-7.47,42.95,2,23.43S392.85,304.67,362.19,283.67Z" style="fill:#4941C0"></path><g style="clip-path:url(#freepik--clip-path-6--inject-101)"><path d="M393.56,281.33c-.62-9,15.63-12.5,14.88-16.21s-12.25-1.79-12.25-5.45-30.43-11.56-23.47-28.59a37.5,37.5,0,0,0,3.09-14.23,78.36,78.36,0,0,1-11,11.51,5.15,5.15,0,0,1,.25,2.28c0,.11.09.22.12.33a19,19,0,0,1,.16,7.79,5.78,5.78,0,0,1-.09,1.55,55.49,55.49,0,0,1,.44,8.88c0,.24.06.48.11.72a5.46,5.46,0,0,1-.08,2.29,4.67,4.67,0,0,1,.08,3.13c-.18.57-.37,1.14-.56,1.71a4.05,4.05,0,0,1,.12.85c.18,4.53-.79,9-1.56,13.41-.72,4.11-.86,8.32-1.62,12.42a4.89,4.89,0,0,1,1.41,1c2.62,2.64,7.39,4.36,10.83,5.68a64.55,64.55,0,0,0,12.39,3.24,38.17,38.17,0,0,0,25.1-4.2C408.82,289.53,394.12,289.4,393.56,281.33Z" style="opacity:0.2"></path></g><path d="M362.19,283.67,365.92,253l-1.51-46a9,9,0,0,1,6.52-9c12.7-3.68,39.89-8.2,50.88,15.94a11,11,0,0,1,.85,6.45l-7.47,42.95,2,23.43S392.85,304.67,362.19,283.67Z" style="fill:none;stroke:#263238;stroke-linecap:round;stroke-linejoin:round"></path><path d="M412.44,264.33s-37.5,8-39.5,0,10.5-3,20.62-4.25" style="fill:none;stroke:#263238;stroke-linecap:round;stroke-linejoin:round;stroke-width:0.75px"></path><path d="M319.6,217l-12-4.35s-3.15-8.22-5.41-9.92-5-5-5.74-3.74c-.53.89.85,3.26,2.77,4.91,2.08,1.79,1.18,4.06.75,5s-3.77,2.48-6.47,3.43-9-1.4-10.61.23,2.53,2.18,2.53,2.18-3.08.22-3.36,2c-.16,1.07,2.91.4,4.44.24s4.67-.36,4.67-.36-5.32,1.85-4.93,3.33,4.11-.77,7.2-1.3c0,0-4.15,2.06-3.6,3.44s2.54-.61,6.1-2l7.46-1.71L315.53,225Z" style="fill:#fff;stroke:#263238;stroke-linecap:round;stroke-linejoin:round"></path><path d="M286.56,214.72a19.24,19.24,0,0,0,5.16.46" style="fill:none;stroke:#263238;stroke-linecap:round;stroke-linejoin:round;stroke-width:0.75px"></path><path d="M369.65,199a2.11,2.11,0,0,0-2.31.52l-21.45,22.84-35.17-9.71-3.89,9.8s26.68,14.93,40.24,14.11c10.29-.63,22.87-11.7,28.34-17a7.77,7.77,0,0,0,2.22-6.91" style="fill:#4941C0;stroke:#263238;stroke-linecap:round;stroke-linejoin:round"></path><path d="M314.27,221.41a1.19,1.19,0,1,1-1.37-1A1.18,1.18,0,0,1,314.27,221.41Z" style="fill:#fff;stroke:#263238;stroke-linecap:round;stroke-linejoin:round;stroke-width:0.75px"></path><path d="M345.54,229.13c1.14-2.95-.42-5.38,1.18-5.66s1.72,4.78,4.37,4.71" style="fill:none;stroke:#263238;stroke-linecap:round;stroke-linejoin:round;stroke-width:0.75px"></path></g><g id="freepik--character-2--inject-101"><path d="M222,429.57l-25.24-2.84v-57.1l12.95-7.78V359H175v2.83L188,369.59v57.14l-25.24,2.84a4.64,4.64,0,0,0-4.12,4.61v2.34h67.55v-2.34A4.64,4.64,0,0,0,222,429.57Z" style="fill:#fff;stroke:#263238;stroke-linecap:round;stroke-linejoin:round;stroke-width:0.75px"></path><rect x="160.56" y="325.54" width="6.9" height="31.34" style="fill:#fff;stroke:#263238;stroke-linecap:round;stroke-linejoin:round;stroke-width:0.75px"></rect><rect x="151.37" y="350.39" width="81.99" height="12.98" rx="4.33" style="fill:#263238;stroke:#263238;stroke-linecap:round;stroke-linejoin:round"></rect><rect x="141.24" y="293.51" width="45.55" height="34.89" rx="8.32" style="fill:#263238"></rect><g style="clip-path:url(#freepik--clip-path-7--inject-101)"><rect x="148.84" y="293.51" width="45.55" height="34.89" rx="8.32" style="opacity:0.5"></rect></g><rect x="141.24" y="293.51" width="45.55" height="34.89" rx="8.32" style="fill:none;stroke:#263238;stroke-linecap:round;stroke-linejoin:round"></rect><path d="M218.79,348.43a28.76,28.76,0,0,1,7.11-4.17" style="fill:none;stroke:#263238;stroke-linecap:round;stroke-linejoin:round;stroke-width:0.75px"></path><path d="M223.08,341.89s-7.25,5.94-5.78,6.83" style="fill:none;stroke:#263238;stroke-linecap:round;stroke-linejoin:round;stroke-width:0.75px"></path><path d="M246,397.42l2.25,15.85s-4.21,3.44-4.42,12.8l7.42,2.64,2-2.64,6.62,6.9s11.73,5.28,13.33,1.75-4.87-6.14-10.34-13.9c-1.42-2-6.17-7.72-6.17-7.72l.47-16.54Z" style="fill:#263238;stroke:#263238;stroke-linecap:round;stroke-linejoin:round;stroke-width:0.75px"></path><path d="M189.36,330.15s62.09-4.16,64.92,4.61,4.16,36.84,4.3,48-.74,25.25-.74,25.25a19.72,19.72,0,0,1-11.44,0s-2.73-16.19-4.7-24.06-4.06-18.37-2.87-35c0,0-59.5,9-59.83-1.44S189.36,330.15,189.36,330.15Z" style="fill:#fff"></path><g style="clip-path:url(#freepik--clip-path-8--inject-101)"><path d="M189.36,330.15s62.09-4.16,64.92,4.61,4.16,36.84,4.3,48-.74,25.25-.74,25.25a19.72,19.72,0,0,1-11.44,0s-2.73-16.19-4.7-24.06-4.06-18.37-2.87-35c0,0-59.5,9-59.83-1.44S189.36,330.15,189.36,330.15Z" style="opacity:0.5"></path><path d="M233.1,333.09l1.08.48.43.17.26.12a6.91,6.91,0,0,1,1.31.73c4.45,2.17,6.55,6.13,5,11.18a6.26,6.26,0,0,1-.08.84,61.73,61.73,0,0,1-3,10.41,3.68,3.68,0,0,1,.47,2.28c-.16,1.27-.29,2.53-.39,3.8a6.3,6.3,0,0,1,.42,3.47,14.74,14.74,0,0,0-.16,2.3c.37,2.78.73,5.56,1.25,8.31l.6,2.3c0-.54,0-1.12-.06-1.77-1.16-22.81,2.36-13.54,3.91-29.28C245.37,336.59,237.22,333.76,233.1,333.09Z" style="opacity:0.2"></path></g><path d="M189.36,330.15s62.09-4.16,64.92,4.61,4.16,36.84,4.3,48-.74,25.25-.74,25.25a19.72,19.72,0,0,1-11.44,0s-2.73-16.19-4.7-24.06-4.06-18.37-2.87-35c0,0-59.5,9-59.83-1.44S189.36,330.15,189.36,330.15Z" style="fill:none;stroke:#263238;stroke-linecap:round;stroke-linejoin:round"></path><path d="M245.5,343.3s-.64,2.88-4.66,5.67" style="fill:none;stroke:#263238;stroke-linecap:round;stroke-linejoin:round;stroke-width:0.75px"></path><path d="M259.28,404.44l-.43,4.2s-7.1,3.81-13.35.29l-1.3-4.13S248.43,407.7,259.28,404.44Z" style="fill:#4941C0"></path><g style="clip-path:url(#freepik--clip-path-9--inject-101)"><path d="M259.28,404.44l-.43,4.2s-7.1,3.81-13.35.29l-1.3-4.13S248.43,407.7,259.28,404.44Z" style="fill:#4941C0;stroke:#263238;stroke-miterlimit:10;stroke-width:0.75px;opacity:0.30000000000000004"></path></g><path d="M259.28,404.44l-.43,4.2s-7.1,3.81-13.35.29l-1.3-4.13S248.43,407.7,259.28,404.44Z" style="fill:none;stroke:#263238;stroke-linecap:round;stroke-linejoin:round;stroke-width:0.75px"></path><path d="M256.3,414.52a53.46,53.46,0,0,1,7.48,9.39" style="fill:none;stroke:#7f7f7f;stroke-linecap:round;stroke-linejoin:round"></path><path d="M200.87,386.35l-6.93,14.43s-5.41.52-10.78,8.19l4.71,6.31L191,414.2l1.68,9.42s6.82,10.9,10.11,8.85-.63-7.81-.87-17.3c-.07-2.47-.85-9.85-.85-9.85l9.58-13.49Z" style="fill:#263238;stroke:#263238;stroke-linecap:round;stroke-linejoin:round;stroke-width:0.75px"></path><path d="M168,332.49s-8.81,17.6,2.45,19.16,45.68-.44,45.68-.44a174.54,174.54,0,0,0-11.44,21.58c-4.46,10.54-8.91,21.39-8.91,21.39s1.93,5.2,9.8,6.24c0,0,6.39-10,20.35-25.55s17.83-31.2,14.86-36.55-18.42-8.24-43.38-9.39Z" style="fill:#fff"></path><g style="clip-path:url(#freepik--clip-path-10--inject-101)"><path d="M168,332.49s-8.81,17.6,2.45,19.16,45.68-.44,45.68-.44a174.54,174.54,0,0,0-11.44,21.58c-4.46,10.54-8.91,21.39-8.91,21.39s1.93,5.2,9.8,6.24c0,0,6.39-10,20.35-25.55s17.83-31.2,14.86-36.55-18.42-8.24-43.38-9.39Z" style="opacity:0.5"></path></g><path d="M168,332.49s-8.81,17.6,2.45,19.16,45.68-.44,45.68-.44a174.54,174.54,0,0,0-11.44,21.58c-4.46,10.54-8.91,21.39-8.91,21.39s1.93,5.2,9.8,6.24c0,0,6.39-10,20.35-25.55s17.83-31.2,14.86-36.55-18.42-8.24-43.38-9.39Z" style="fill:none;stroke:#263238;stroke-linecap:round;stroke-linejoin:round"></path><path d="M208.22,398.93l-2.67,3.27s-8-.74-11.29-7.13l1.19-4.16S197.38,395.66,208.22,398.93Z" style="fill:#4941C0"></path><g style="clip-path:url(#freepik--clip-path-11--inject-101)"><path d="M208.22,398.93l-2.67,3.27s-8-.74-11.29-7.13l1.19-4.16S197.38,395.66,208.22,398.93Z" style="fill:#4941C0;stroke:#263238;stroke-miterlimit:10;stroke-width:0.75px;opacity:0.30000000000000004"></path></g><path d="M208.22,398.93l-2.67,3.27s-8-.74-11.29-7.13l1.19-4.16S197.38,395.66,208.22,398.93Z" style="fill:none;stroke:#263238;stroke-linecap:round;stroke-linejoin:round;stroke-width:0.75px"></path><path d="M199.7,406.68c.4,2.18,1.15,6.62,1.54,11.41" style="fill:none;stroke:#7f7f7f;stroke-linecap:round;stroke-linejoin:round"></path><path d="M196.49,227.22s7.65-3.8-.41-8.87-22.15,8.87-22.15,8.87l-1.37,6.51s.59,5.19,2.46,8.2c1.5,2.43,4.17,2.44,5.43,4.85,1.93,3.66,1.29,6.26,3.28,4.66,4.92-4,6.51-19.81,6.51-19.81Z" style="fill:#263238;stroke:#263238;stroke-linecap:round;stroke-linejoin:round"></path><polygon points="193.54 258.45 194.87 250.65 184.81 241.98 181.97 255.04 193.54 258.45" style="fill:#fff"></polygon><g style="clip-path:url(#freepik--clip-path-12--inject-101)"><path d="M183.83,242.89s.82,4.5,3.27,7.33,8.84,6.19,8.84,6.19l.55-5.36-10-7.62L184.81,242Z" style="fill:#263238;stroke:#263238;stroke-linecap:round;stroke-linejoin:round;stroke-width:0.5px"></path></g><polygon points="193.54 258.45 194.87 250.65 184.81 241.98 181.97 255.04 193.54 258.45" style="fill:none;stroke:#263238;stroke-linecap:round;stroke-linejoin:round"></polygon><path d="M196.74,224.47s4.57,8,4.47,10.31c0,0,6,15.75,0,18.34-4.66,2-10.51-1.9-12.8-3.68a6.23,6.23,0,0,1-1.55-1.8l-1.95-3.43s-2.4.69-4.59-2.43.06-6.08,2.47-4.24c0,0,1.82-3.77,1.25-5.85s2.16-2.11,2.28-4.32C186.35,227.37,192.84,227.14,196.74,224.47Z" style="fill:#fff"></path><path d="M196.74,224.47s4.57,8,4.47,10.31c0,0,6,15.75,0,18.34-4.66,2-10.51-1.9-12.8-3.68a6.23,6.23,0,0,1-1.55-1.8l-1.95-3.43s-2.4.69-4.59-2.43.06-6.08,2.47-4.24c0,0,1.82-3.77,1.25-5.85s2.16-2.11,2.28-4.32C186.35,227.37,192.84,227.14,196.74,224.47Z" style="fill:none;stroke:#263238;stroke-linecap:round;stroke-linejoin:round"></path><path d="M195.9,246.06s1.48,2,4.49-.67" style="fill:none;stroke:#263238;stroke-linecap:round;stroke-linejoin:round;stroke-width:0.75px"></path><path d="M198.39,236.73c.55,2.16-.09,4.18-1.43,4.52s-2.87-1.12-3.42-3.27.33-3,1.67-3.33S197.84,234.58,198.39,236.73Z" style="fill:none;stroke:#263238;stroke-linecap:round;stroke-linejoin:round;stroke-width:0.75px"></path><path d="M204.51,235c.55,2.16.11,4.13-1,4.41s-2.43-1.24-3-3.39.15-2.94,1.24-3.22S204,232.8,204.51,235Z" style="fill:#fff;stroke:#263238;stroke-linecap:round;stroke-linejoin:round;stroke-width:0.75px"></path><path d="M192.83,234.59a3,3,0,0,1,4.07-1.36" style="fill:none;stroke:#263238;stroke-linecap:round;stroke-linejoin:round;stroke-width:0.75px"></path><path d="M199.45,232.36a2,2,0,0,1,1.27-1.46" style="fill:none;stroke:#263238;stroke-linecap:round;stroke-linejoin:round;stroke-width:0.75px"></path><polyline points="193.54 237.98 190.99 239.01 182.82 237.54" style="fill:none;stroke:#263238;stroke-linecap:round;stroke-linejoin:round;stroke-width:0.75px"></polyline><line x1="200.47" y1="235.61" x2="198.43" y2="236.44" style="fill:none;stroke:#263238;stroke-linecap:round;stroke-linejoin:round;stroke-width:0.75px"></line><path d="M197.26,237.25c.07.68-.2,1.27-.63,1.32s-.83-.47-.91-1.15.2-1.27.62-1.32S197.18,236.56,197.26,237.25Z" style="fill:#263238"></path><path d="M202.25,235.44c.08.67-.1,1.23-.41,1.27s-.61-.48-.68-1.14.1-1.23.4-1.26S202.17,234.78,202.25,235.44Z" style="fill:#263238"></path><path d="M199.94,235.84l4.2,3.69a.86.86,0,0,1-.11,1.37l-2.16,1.35" style="fill:#fff;stroke:#263238;stroke-linecap:round;stroke-linejoin:round;stroke-width:0.75px"></path><path d="M176.15,227.49s-.74-13.3-11.06-8-.46,20.9-3.55,24.34,2.82,1.9,3.55-.59.13,4.15,1.56,4.39,1.66-5.7,3-5.7-.35,3.7.72,4.11,3.56-7.26,4.27-11.5A66.47,66.47,0,0,1,176.15,227.49Z" style="fill:#263238;stroke:#263238;stroke-linecap:round;stroke-linejoin:round"></path><path d="M176.15,225.68s-3.61,4-2.2,14C174,239.66,167,229.53,176.15,225.68Z" style="fill:#4941C0;stroke:#263238;stroke-linecap:round;stroke-linejoin:round"></path><path d="M184.7,227.22s4,1.11,4.55,4.41S191.66,224.05,184.7,227.22Z" style="fill:#263238;stroke:#263238;stroke-linecap:round;stroke-linejoin:round;stroke-width:0.75px"></path><path d="M198,226.51s4.35-1.31,5.65,1.54C203.62,228.05,203,221.18,198,226.51Z" style="fill:#263238;stroke:#263238;stroke-linecap:round;stroke-linejoin:round;stroke-width:0.75px"></path><path d="M232.34,223.65c.88-.24,1.79.9,1.79.9.94-1.6,2.44,1.06,2.44,1.06,1.26-1.54,1.9,1.83,1.9,1.83s1.33-.31,1.17,1.38c-.21,2.22-2.79,7.3-2.79,7.3l-1.68,8.6-6.29-.74,2-8.25L229,232.11a10.37,10.37,0,0,1-1-4.66C228.3,225.4,231.46,223.88,232.34,223.65Z" style="fill:#fff;stroke:#263238;stroke-linecap:round;stroke-linejoin:round"></path><path d="M232.35,225.71s1.88,3.93,1.65,0c0,0,1.37,4.87,2.24.91,0,0-.53,4.55,1.32,2,0,0-.78,1.36-.43,2s1.34-.41,1.34-.41" style="fill:#fff;stroke:#263238;stroke-linecap:round;stroke-linejoin:round;stroke-width:0.75px"></path><path d="M201.65,261.24l20.14.42,7.56-21L236,243s-3.41,26.59-6.82,28.17S205,275,205,275,198.54,267.87,201.65,261.24Z" style="fill:#4941C0"></path><g style="clip-path:url(#freepik--clip-path-13--inject-101)"><path d="M208.8,267.27a13.62,13.62,0,0,0-8.52-6.64c3.09,2,4.93,6,6.14,9.27a24.31,24.31,0,0,1,1.11,4.08,66.25,66.25,0,0,0,13-1.32C217.39,272.49,211.32,271.61,208.8,267.27Z" style="opacity:0.2"></path></g><path d="M201.65,261.24l20.14.42,7.56-21L236,243s-3.41,26.59-6.82,28.17S205,275,205,275,198.54,267.87,201.65,261.24Z" style="fill:none;stroke:#263238;stroke-linecap:round;stroke-linejoin:round"></path><polygon points="228.16 242.28 236 244.95 236.53 241.38 229.11 239.02 228.16 242.28" style="fill:#4941C0;stroke:#263238;stroke-linecap:round;stroke-linejoin:round"></polygon><path d="M239.16,232.73h0a5.61,5.61,0,0,1-6.73-4.22l-7.77-33.95,11-2.51L243.39,226A5.62,5.62,0,0,1,239.16,232.73Z" style="fill:#fff;stroke:#263238;stroke-linecap:round;stroke-linejoin:round;stroke-width:0.75px"></path><rect x="227.41" y="194.9" width="7.24" height="5.16" transform="translate(-38.23 56.51) rotate(-12.89)" style="fill:#4941C0"></rect><g style="clip-path:url(#freepik--clip-path-14--inject-101)"><rect x="227.41" y="194.9" width="7.24" height="5.16" transform="translate(-38.23 56.51) rotate(-12.89)" style="fill:#fff;opacity:0.7000000000000001"></rect></g><rect x="228.84" y="201.13" width="7.24" height="5.16" transform="translate(-39.58 56.98) rotate(-12.89)" style="fill:#4941C0"></rect><g style="clip-path:url(#freepik--clip-path-15--inject-101)"><rect x="228.84" y="201.13" width="7.24" height="5.16" transform="translate(-39.58 56.98) rotate(-12.89)" style="fill:#fff;opacity:0.30000000000000004"></rect></g><rect x="230.26" y="207.36" width="7.24" height="5.16" transform="translate(-40.93 57.46) rotate(-12.89)" style="fill:#4941C0"></rect><rect x="231.69" y="213.58" width="7.24" height="5.16" transform="translate(-42.29 57.93) rotate(-12.89)" style="fill:#4941C0"></rect><g style="clip-path:url(#freepik--clip-path-16--inject-101)"><rect x="231.69" y="213.58" width="7.24" height="5.16" transform="translate(-42.29 57.93) rotate(-12.89)" style="opacity:0.2"></rect></g><rect x="233.11" y="219.81" width="7.24" height="5.16" transform="translate(-43.64 58.41) rotate(-12.89)" style="fill:#4941C0"></rect><g style="clip-path:url(#freepik--clip-path-17--inject-101)"><rect x="233.11" y="219.81" width="7.24" height="5.16" transform="translate(-43.64 58.41) rotate(-12.89)" style="opacity:0.30000000000000004"></rect></g><path d="M229.66,226.73a1.19,1.19,0,0,1,2.06-.65c1.62,1.19,4,1.58,3.73,2.32s-.89,1.19-3.21.25c0,0-.41.25.17,1a6,6,0,0,1,1.54,2.94" style="fill:#fff;stroke:#263238;stroke-linecap:round;stroke-linejoin:round;stroke-width:0.75px"></path><path d="M164.16,261.68l6.29,56.24-4,16.91s4.21.95,15.88-2.72,24.16-2.57,24.16-2.57,5.17-37.44,3.1-49.14a46.85,46.85,0,0,0-7.92-19.16s-22.41-9.8-36.1-2.31A2.77,2.77,0,0,0,164.16,261.68Z" style="fill:#4941C0"></path><g style="clip-path:url(#freepik--clip-path-18--inject-101)"><path d="M176.15,294.19c.47-7-2.65-18.51-2.65-18.51l-2.33.31a131.52,131.52,0,0,0,.18,20.34c.24,2.71,1.67,5.53,1.58,8.22-.08,2.39-1.45,4-2.61,6-.2.34-.38.68-.58,1a4.3,4.3,0,0,1,.63,3c-.13,1.27-.34,2.52-.57,3.76a5.26,5.26,0,0,1-.12,1.87c-.7,2.94-1.32,5.85-1.86,8.82a52,52,0,0,0-1.23,6,63.42,63.42,0,0,0,13.06-1.76,25.08,25.08,0,0,0,5.09-1.83c-16.19,2.39-10.64-8.08-10.15-12.43s16.12-9.66,16.9-14.41S175.67,301.16,176.15,294.19Z" style="opacity:0.12"></path></g><path d="M164.16,261.68l6.29,56.24-4,16.91s4.21.95,15.88-2.72,24.16-2.57,24.16-2.57,5.17-37.44,3.1-49.14a46.85,46.85,0,0,0-7.92-19.16s-22.41-9.8-36.1-2.31A2.77,2.77,0,0,0,164.16,261.68Z" style="fill:none;stroke:#263238;stroke-linecap:round;stroke-linejoin:round"></path><path d="M178.34,256.41l2.95-5.76a99,99,0,0,0,10.35,2.88c5.67,1.24,4.3,2.88,4.3,2.88l-1.45,4.37S192.26,263,178.34,256.41Z" style="fill:#4941C0;stroke:#263238;stroke-linecap:round;stroke-linejoin:round"></path><path d="M167.38,300s3.21-2.53,4-1.45-.9.72-2.17,4.4" style="fill:none;stroke:#263238;stroke-linecap:round;stroke-linejoin:round"></path><path d="M196.16,326.66h0a4.51,4.51,0,0,1,3.57-5.27l27.36-5.26,1.7,8.83-27.36,5.26A4.5,4.5,0,0,1,196.16,326.66Z" style="fill:#fff;stroke:#263238;stroke-linecap:round;stroke-linejoin:round;stroke-width:0.75px"></path><rect x="221.68" y="319.08" width="5.8" height="4.13" transform="translate(497.51 39.93) rotate(79.11)" style="fill:#4941C0"></rect><g style="clip-path:url(#freepik--clip-path-19--inject-101)"><rect x="221.68" y="319.08" width="5.8" height="4.13" transform="translate(497.51 39.93) rotate(79.11)" style="fill:#fff;opacity:0.7000000000000001"></rect></g><rect x="216.66" y="320.04" width="5.8" height="4.13" transform="translate(494.38 45.65) rotate(79.11)" style="fill:#4941C0"></rect><g style="clip-path:url(#freepik--clip-path-20--inject-101)"><rect x="216.66" y="320.04" width="5.8" height="4.13" transform="translate(494.38 45.65) rotate(79.11)" style="fill:#fff;opacity:0.30000000000000004"></rect></g><rect x="211.64" y="321.01" width="5.79" height="4.13" transform="translate(491.26 51.36) rotate(79.11)" style="fill:#4941C0"></rect><rect x="206.62" y="321.98" width="5.79" height="4.13" transform="translate(488.14 57.07) rotate(79.11)" style="fill:#4941C0"></rect><g style="clip-path:url(#freepik--clip-path-21--inject-101)"><rect x="206.62" y="321.98" width="5.79" height="4.13" transform="translate(488.14 57.07) rotate(79.11)" style="opacity:0.2"></rect></g><rect x="201.6" y="322.94" width="5.79" height="4.13" transform="translate(485.01 62.78) rotate(79.11)" style="fill:#4941C0"></rect><g style="clip-path:url(#freepik--clip-path-22--inject-101)"><rect x="201.6" y="322.94" width="5.79" height="4.13" transform="translate(485.01 62.78) rotate(79.11)" style="opacity:0.30000000000000004"></rect></g><path d="M197.25,327.84h0a4.5,4.5,0,0,1,.45-6.35l21.06-18.24,5.89,6.8-21.06,18.24A4.49,4.49,0,0,1,197.25,327.84Z" style="fill:#fff;stroke:#263238;stroke-linecap:round;stroke-linejoin:round;stroke-width:0.75px"></path><rect x="216.2" y="306.79" width="5.79" height="4.13" transform="translate(309.15 -58.96) rotate(49.11)" style="fill:#4941C0"></rect><g style="clip-path:url(#freepik--clip-path-23--inject-101)"><rect x="216.2" y="306.79" width="5.79" height="4.13" transform="translate(309.15 -58.96) rotate(49.11)" style="fill:#fff;opacity:0.7000000000000001"></rect></g><rect x="212.33" y="310.13" width="5.8" height="4.13" transform="translate(310.35 -54.88) rotate(49.11)" style="fill:#4941C0"></rect><g style="clip-path:url(#freepik--clip-path-24--inject-101)"><rect x="212.33" y="310.13" width="5.8" height="4.13" transform="translate(310.35 -54.88) rotate(49.11)" style="fill:#fff;opacity:0.30000000000000004"></rect></g><rect x="208.47" y="313.48" width="5.79" height="4.13" transform="translate(311.54 -50.8) rotate(49.11)" style="fill:#4941C0"></rect><rect x="204.61" y="316.83" width="5.79" height="4.13" transform="translate(312.74 -46.72) rotate(49.11)" style="fill:#4941C0"></rect><g style="clip-path:url(#freepik--clip-path-25--inject-101)"><rect x="204.61" y="316.83" width="5.79" height="4.13" transform="translate(312.74 -46.72) rotate(49.11)" style="opacity:0.2"></rect></g><rect x="200.74" y="320.17" width="5.8" height="4.13" transform="translate(313.93 -42.65) rotate(49.11)" style="fill:#4941C0"></rect><g style="clip-path:url(#freepik--clip-path-26--inject-101)"><rect x="200.74" y="320.17" width="5.8" height="4.13" transform="translate(313.93 -42.65) rotate(49.11)" style="opacity:0.30000000000000004"></rect></g><path d="M198.1,328h0a4.5,4.5,0,0,1-2.77-5.72L204.45,296l8.49,2.94-9.12,26.33A4.49,4.49,0,0,1,198.1,328Z" style="fill:#fff;stroke:#263238;stroke-linecap:round;stroke-linejoin:round;stroke-width:0.75px"></path><rect x="204.64" y="298.57" width="5.8" height="4.13" transform="translate(109.85 -51.37) rotate(19.11)" style="fill:#4941C0"></rect><g style="clip-path:url(#freepik--clip-path-27--inject-101)"><rect x="204.64" y="298.57" width="5.8" height="4.13" transform="translate(109.85 -51.37) rotate(19.11)" style="fill:#fff;opacity:0.7000000000000001"></rect></g><rect x="202.96" y="303.4" width="5.79" height="4.13" transform="translate(111.34 -50.56) rotate(19.11)" style="fill:#4941C0"></rect><g style="clip-path:url(#freepik--clip-path-28--inject-101)"><rect x="202.96" y="303.4" width="5.79" height="4.13" transform="translate(111.34 -50.56) rotate(19.11)" style="fill:#fff;opacity:0.30000000000000004"></rect></g><rect x="201.29" y="308.23" width="5.79" height="4.13" transform="translate(112.83 -49.75) rotate(19.11)" style="fill:#4941C0"></rect><rect x="199.62" y="313.06" width="5.8" height="4.13" transform="translate(114.32 -48.93) rotate(19.11)" style="fill:#4941C0"></rect><g style="clip-path:url(#freepik--clip-path-29--inject-101)"><rect x="199.62" y="313.06" width="5.8" height="4.13" transform="translate(114.32 -48.93) rotate(19.11)" style="opacity:0.2"></rect></g><rect x="197.94" y="317.89" width="5.79" height="4.13" transform="translate(115.81 -48.12) rotate(19.11)" style="fill:#4941C0"></rect><g style="clip-path:url(#freepik--clip-path-30--inject-101)"><rect x="197.94" y="317.89" width="5.79" height="4.13" transform="translate(115.81 -48.12) rotate(19.11)" style="opacity:0.30000000000000004"></rect></g><path d="M187.59,311.53l7.58,5.53s8.6,0,10.16,2.35,2,5,.6,5.95.73-2.54-3.16-4.31c0,0,2,9.07-1.47,7.13,0,0-.45,1.54-1.76.13a5,5,0,0,0-.48-3.32,2.37,2.37,0,0,0-1.83-1.44s2.44,3.33.83,4.24c-1.3.73-2-4.06-3.74-4.6a5.34,5.34,0,0,1-4.45-3L184,317Z" style="fill:#fff;stroke:#263238;stroke-linecap:round;stroke-linejoin:round"></path><path d="M201.6,326.77a6.52,6.52,0,0,0-1.32-4.73" style="fill:none;stroke:#263238;stroke-linecap:round;stroke-linejoin:round;stroke-width:0.75px"></path><path d="M203.48,319.49s-.16.69-1.72.54c-1.15-.11-2.84,2.21-4.6,1.86" style="fill:none;stroke:#263238;stroke-linecap:round;stroke-linejoin:round;stroke-width:0.75px"></path><path d="M165.8,260.13a.85.85,0,0,0-1.48.2c-1.65,4.24-6.07,18.41-3.69,43.53,0,0,1.91,5.13,24.35,14.93l4.27-6.6-16.59-13.47s2.17-18,.53-24.72" style="fill:#4941C0;stroke:#263238;stroke-linecap:round;stroke-linejoin:round"></path><polygon points="188.26 310.67 183.11 319.01 187.15 320.46 191.49 313.17 188.26 310.67" style="fill:#4941C0;stroke:#263238;stroke-linecap:round;stroke-linejoin:round"></polygon></g><g id="freepik--character-1--inject-101"><path d="M97.94,179.18c.09,2.68.37,10.72.37,10.72l15.94,9.56,1-18.22.55-25,2.62-3.64s3.92-6-2.62-8.33-4.72,2-11.22,2.73S82.84,158,89.74,166.93,97.78,174.7,97.94,179.18Z" style="fill:#999"></path><g style="clip-path:url(#freepik--clip-path-31--inject-101)"><path d="M104.05,174.41a7.4,7.4,0,0,0,3.26,1.63s2.47,7,3.71,7.94,5.66,1.69,5.66,1.69l1.3-9.23-9.18-6-5-1.5Z" style="fill:#263238;stroke:#263238;stroke-linecap:round;stroke-linejoin:round"></path></g><path d="M97.94,179.18c.09,2.68.37,10.72.37,10.72l15.94,9.56,1-18.22.55-25,2.62-3.64s3.92-6-2.62-8.33-4.72,2-11.22,2.73S82.84,158,89.74,166.93,97.78,174.7,97.94,179.18Z" style="fill:none;stroke:#263238;stroke-linecap:round;stroke-linejoin:round"></path><path d="M115.79,156.26l2.62-3.64s3.92-6-2.62-8.33-4.72,2-11.22,2.73S82.84,158,89.74,166.93c4.48,5.84,6.54,7.37,7.47,9a3.78,3.78,0,0,1,4.76.55c2.6,2.59,5.25-11.88,5.25-11.88l8.52-6.05Z" style="fill:#263238;stroke:#263238;stroke-linecap:round;stroke-linejoin:round"></path><path d="M104.18,165.89s-6.42.17-3,5,7,3.91,7,3.91l3.91,7.45s13.61,1.92,16.82,1-2.34-12.14-2.34-12.14l2.13-2.44a1.31,1.31,0,0,0-.17-1.9l-5.08-4.08c.43-2.51-5.12-10.06-5.12-10.06s-8.24-.09-9,2.69a47.55,47.55,0,0,0-1.13,5l-4.68,1.91Z" style="fill:#999"></path><g style="clip-path:url(#freepik--clip-path-32--inject-101)"><path d="M107.31,158.34l1,2s4.12,2.82,4.34,4.34c.28,2-1.85,3.38,2.5,7.63s8.52-.69,11.55-1.21,5.55,7.2,5.55,7.2l-.34,7-16.76.52-3.63-2.25-4.75-8s5.15-.46,2.58-5c-3.56-6.27-7.72-5.38-7.72-5.38l-2.87-2.55,7.38-5.31Z" style="opacity:0.30000000000000004"></path></g><path d="M104.18,165.89s-6.42.17-3,5,7,3.91,7,3.91l3.91,7.45s13.61,1.92,16.82,1-2.34-12.14-2.34-12.14l2.13-2.44a1.31,1.31,0,0,0-.17-1.9l-5.08-4.08c.43-2.51-5.12-10.06-5.12-10.06s-8.24-.09-9,2.69a47.55,47.55,0,0,0-1.13,5l-4.68,1.91Z" style="fill:none;stroke:#263238;stroke-linecap:round;stroke-linejoin:round"></path><path d="M122.28,163.35c.26.77.22,1.49-.1,1.6s-.79-.43-1.05-1.21-.21-1.48.1-1.59S122,162.58,122.28,163.35Z" style="fill:#263238"></path><path d="M121,159.73s-2.34-.52-3,2.69" style="fill:none;stroke:#263238;stroke-linecap:round;stroke-linejoin:round"></path><path d="M125.65,172.67s-.81,2.26-3.9,1.12" style="fill:none;stroke:#263238;stroke-linecap:round;stroke-linejoin:round"></path><path d="M182.09,172.24c1,.43,1.08,2.24,1.08,2.24,2.14-.87,1.62,2.87,1.62,2.87,2.39-.57.5,3.24.5,3.24s1.55.7.12,2.24c-1.88,2-8.24,5.1-8.24,5.1l-8.12,7.24-5.65-5.46,8.14-6.67s.39-2.17.9-5c0,0,.75-3.48,2.55-5.31S181,171.81,182.09,172.24Z" style="fill:#999;stroke:#263238;stroke-linecap:round;stroke-linejoin:round"></path><path d="M180.56,174.28s-1.11,5.3,1.63,1.22c0,0-2.3,5.84,1.53,2.59,0,0-3.95,4.09-.19,2.93,0,0-1.78.76-1.92,1.64s1.63.6,1.63.6" style="fill:#999;stroke:#263238;stroke-linecap:round;stroke-linejoin:round"></path><path d="M97.54,217s14.47,3.37,45.47-1.2c0,0,23.81-12.44,29.89-23.89l-5.65-6.49L138,201.84s-30.46-4.7-36.1-4Z" style="fill:#263238;stroke:#263238;stroke-linecap:round;stroke-linejoin:round"></path><rect x="177.01" y="143.27" width="49.62" height="36.87" transform="translate(-25.03 37.54) rotate(-10.01)" style="fill:#999;stroke:#263238;stroke-linecap:round;stroke-linejoin:round;stroke-width:0.75px"></rect><rect x="178.06" y="149.17" width="5.2" height="3.86" transform="translate(-23.52 33.7) rotate(-10.01)" style="fill:#263238;stroke:#263238;stroke-linecap:round;stroke-linejoin:round"></rect><polygon points="187.14 174.86 195.6 155.13 210.3 170.77 187.14 174.86" style="fill:#4941C0"></polygon><g style="clip-path:url(#freepik--clip-path-33--inject-101)"><polygon points="187.14 174.86 195.6 155.13 210.3 170.77 187.14 174.86" style="fill:#fff;opacity:0.5"></polygon></g><polygon points="187.14 174.86 195.6 155.13 210.3 170.77 187.14 174.86" style="fill:none;stroke:#263238;stroke-linecap:round;stroke-linejoin:round;stroke-width:0.75px"></polygon><polygon points="202.44 172.16 208.9 157.1 220.13 169.04 202.44 172.16" style="fill:#4941C0;stroke:#263238;stroke-linecap:round;stroke-linejoin:round;stroke-width:0.75px"></polygon><path d="M207.11,153.1a3,3,0,1,1-3.47-2.43A3,3,0,0,1,207.11,153.1Z" style="fill:#4941C0"></path><g style="clip-path:url(#freepik--clip-path-34--inject-101)"><path d="M207.11,153.1a3,3,0,1,1-3.47-2.43A3,3,0,0,1,207.11,153.1Z" style="fill:#fff;opacity:0.7000000000000001"></path></g><path d="M207.11,153.1a3,3,0,1,1-3.47-2.43A3,3,0,0,1,207.11,153.1Z" style="fill:none;stroke:#263238;stroke-linecap:round;stroke-linejoin:round;stroke-width:0.75px"></path><path d="M177.12,172.26a1.48,1.48,0,0,1,2.52.92c.71,2.38,3.78,3.57,2.94,4.08s-2.77,1.51-4.36-1.16c0,0-.59-.06-.55,1.09.05,1.4,0,3.15-.69,4.05" style="fill:#999;stroke:#263238;stroke-linecap:round;stroke-linejoin:round"></path><path d="M66.62,415.83a28.78,28.78,0,0,0-5.38,11.39A3.14,3.14,0,0,0,63.7,431L84,435.14c4.46.92,11.29.73,14.74.56a2.8,2.8,0,0,0,2.66-3.26,5.2,5.2,0,0,0-2.93-3.51c-4.8-2.66-16.21-4.45-20.91-11.66Z" style="fill:#263238;stroke:#263238;stroke-linecap:round;stroke-linejoin:round"></path><path d="M127.15,290.94S116.47,320.61,102.8,349c0,0-2.65,12.48-8.62,21l-15,47.89s-6.58,2.71-14.38-2c0,0,3.72-30.64,13.23-52.87l5.61-17.61,7-35.46s-5.93-10.26-4.35-25.32l26.33-.36Z" style="fill:#4941C0"></path><g style="clip-path:url(#freepik--clip-path-35--inject-101)"><path d="M93.34,286.3c-1.77,1-3.45,2.13-5.25,3.07a23.27,23.27,0,0,0-2.71,1.53c.06,0-.06.09-.18.2a2.22,2.22,0,0,1,0,.49,3.72,3.72,0,0,1-.26.88A4.34,4.34,0,0,1,86.23,296c0,.46,0,.92-.08,1.38l.13.2a14.9,14.9,0,0,1,1.17,4.08,24.6,24.6,0,0,0,2.07,6.05,6.44,6.44,0,0,1,.45,1.39l.67.85s6.48,43.36,11.31,42.39,8-24.07,8-24.07Z" style="opacity:0.2"></path></g><path d="M127.15,290.94S116.47,320.61,102.8,349c0,0-2.65,12.48-8.62,21l-15,47.89s-6.58,2.71-14.38-2c0,0,3.72-30.64,13.23-52.87l5.61-17.61,7-35.46s-5.93-10.26-4.35-25.32l26.33-.36Z" style="fill:none;stroke:#263238;stroke-linecap:round;stroke-linejoin:round"></path><path d="M112,420.59s-3.2,4.27-3.37,11.89a3.34,3.34,0,0,0,3.35,3.37h22c4.83,0,11.88-1.65,15.43-2.56a3,3,0,0,0,2.07-4,5.58,5.58,0,0,0-3.79-3c-5.56-1.73-17.79-1.16-24.21-7.65Z" style="fill:#263238;stroke:#263238;stroke-linecap:round;stroke-linejoin:round"></path><path d="M125.25,281.8s4.41,31.91,0,63.14c0,0,.27,13-2.85,22.9l2.49,51.27s-5.35,4.16-14.2,2.08c0,0-9.11-32.27-7-55.43l-1-18.48L95.6,309s-8.13-6-11.19-20.82l25-8.33Z" style="fill:#4941C0;stroke:#263238;stroke-linecap:round;stroke-linejoin:round"></path><path d="M95.86,189.05s-10.93,8.33-12.5,29.15-4.94,64.28,1.83,75.73c0,0,6.5-11.69,41.64-7,0,0,3.64-17.44-1.83-51.53S113.29,192.7,95.86,189.05Z" style="fill:#263238;stroke:#263238;stroke-linecap:round;stroke-linejoin:round"></path><path d="M95.86,190.09l1-6.5a24.37,24.37,0,0,1,14.31,5.59c4.65,3.92,6.12,7.68,2.73,12.1L95.86,190.87Z" style="fill:#263238;stroke:#263238;stroke-linecap:round;stroke-linejoin:round"></path><path d="M113.66,198.84c-3.81-4.93-8.68-7.56-15.28-9.23" style="fill:none;stroke:#7f7f7f;stroke-linecap:round;stroke-linejoin:round;stroke-width:0.75px"></path><path d="M122.1,219.58c-1.85-7.82-3.93-13.62-6.55-18" style="fill:none;stroke:#7f7f7f;stroke-linecap:round;stroke-linejoin:round;stroke-width:0.75px"></path><rect x="102.4" y="264.06" width="49.62" height="36.87" transform="translate(-0.38 0.17) rotate(-0.08)" style="fill:#999;stroke:#263238;stroke-linecap:round;stroke-linejoin:round;stroke-width:0.75px"></rect><rect x="105.59" y="266.47" width="5.2" height="3.86" transform="translate(-0.36 0.14) rotate(-0.08)" style="fill:#263238;stroke:#263238;stroke-linecap:round;stroke-linejoin:round"></rect><polygon points="110.48 292.93 122.22 274.95 134 292.89 110.48 292.93" style="fill:#4941C0"></polygon><g style="clip-path:url(#freepik--clip-path-36--inject-101)"><polygon points="110.48 292.93 122.22 274.95 134 292.89 110.48 292.93" style="fill:#fff;opacity:0.5"></polygon></g><polygon points="110.48 292.93 122.22 274.95 134 292.89 110.48 292.93" style="fill:none;stroke:#263238;stroke-linecap:round;stroke-linejoin:round;stroke-width:0.75px"></polygon><polygon points="126.02 292.91 134.98 279.18 143.98 292.88 126.02 292.91" style="fill:#4941C0;stroke:#263238;stroke-linecap:round;stroke-linejoin:round;stroke-width:0.75px"></polygon><path d="M133.91,274.93a3,3,0,1,1-3-3A3,3,0,0,1,133.91,274.93Z" style="fill:#4941C0"></path><g style="clip-path:url(#freepik--clip-path-37--inject-101)"><path d="M133.91,274.93a3,3,0,1,1-3-3A3,3,0,0,1,133.91,274.93Z" style="fill:#fff;opacity:0.7000000000000001"></path></g><path d="M133.91,274.93a3,3,0,1,1-3-3A3,3,0,0,1,133.91,274.93Z" style="fill:none;stroke:#263238;stroke-linecap:round;stroke-linejoin:round;stroke-width:0.75px"></path><rect x="102.4" y="264.06" width="49.62" height="36.87" transform="translate(-35.7 18.97) rotate(-7.48)" style="fill:#fff;stroke:#263238;stroke-linecap:round;stroke-linejoin:round;stroke-width:0.75px"></rect><rect x="103.94" y="269.04" width="5.2" height="3.86" transform="translate(-34.37 16.18) rotate(-7.48)" style="fill:#263238;stroke:#263238;stroke-linecap:round;stroke-linejoin:round"></rect><polygon points="111.96 295 121.29 275.66 135.29 291.93 111.96 295" style="fill:#4941C0"></polygon><g style="clip-path:url(#freepik--clip-path-38--inject-101)"><polygon points="111.96 295 121.29 275.66 135.29 291.93 111.96 295" style="fill:#fff;opacity:0.5"></polygon></g><polygon points="111.96 295 121.29 275.66 135.29 291.93 111.96 295" style="fill:none;stroke:#263238;stroke-linecap:round;stroke-linejoin:round;stroke-width:0.75px"></polygon><polygon points="127.37 292.97 134.49 278.21 145.18 290.63 127.37 292.97" style="fill:#4941C0;stroke:#263238;stroke-linecap:round;stroke-linejoin:round;stroke-width:0.75px"></polygon><path d="M132.88,274.13a3,3,0,1,1-3.37-2.58A3,3,0,0,1,132.88,274.13Z" style="fill:#4941C0"></path><g style="clip-path:url(#freepik--clip-path-39--inject-101)"><path d="M132.88,274.13a3,3,0,1,1-3.37-2.58A3,3,0,0,1,132.88,274.13Z" style="fill:#fff;opacity:0.7000000000000001"></path></g><path d="M132.88,274.13a3,3,0,1,1-3.37-2.58A3,3,0,0,1,132.88,274.13Z" style="fill:none;stroke:#263238;stroke-linecap:round;stroke-linejoin:round;stroke-width:0.75px"></path><path d="M120.51,281.8l5.25,7.48,6,1.39c2.46.57,3.76,1.11,4.7,3.47.67,1.69.22,2.21-1,2.65,0,0,3.58,6.87-.15,6.2,0,0,.31,3.15-3.41,2,0,0-1.19,2.13-3.77.4,0,0-2,1.53-4.78-3.64l-4-7.36-5.89-6.64Z" style="fill:#999;stroke:#263238;stroke-linecap:round;stroke-linejoin:round"></path><path d="M135,300.77s.5,2.08-1.55,2-1.68,2-6.47,1.27" style="fill:#999;stroke:#263238;stroke-linecap:round;stroke-linejoin:round"></path><path d="M92.21,207s-5.2,15.61-2.34,50c0,0,12.81,27.06,25.92,34.61l8.17-6.77-15.87-32.27s8.12-33.05,7.7-39.29" style="fill:#263238;stroke:#263238;stroke-linecap:round;stroke-linejoin:round"></path><path d="M113.93,226.7c1.19-6,2-11.3,1.91-13.44" style="fill:none;stroke:#7f7f7f;stroke-linecap:round;stroke-linejoin:round;stroke-width:0.75px"></path><path d="M109,254.28l-.85-1.73s3-12.23,5.26-23.22" style="fill:none;stroke:#7f7f7f;stroke-linecap:round;stroke-linejoin:round;stroke-width:0.75px"></path><line x1="113.4" y1="263.26" x2="110.04" y2="256.42" style="fill:none;stroke:#7f7f7f;stroke-linecap:round;stroke-linejoin:round;stroke-width:0.75px"></line><path d="M89.64,253.29c.08,1.21.17,2.43.28,3.69a155.33,155.33,0,0,0,10.63,18.44" style="fill:none;stroke:#7f7f7f;stroke-linecap:round;stroke-linejoin:round;stroke-width:0.75px"></path><path d="M92.26,207s-4.53,13.61-2.81,43.36" style="fill:none;stroke:#7f7f7f;stroke-linecap:round;stroke-linejoin:round;stroke-width:0.75px"></path></g><g id="freepik--Tool--inject-101"><path d="M424.84,150.6a107.08,107.08,0,0,0-6-25.76" style="fill:none;stroke:#263238;stroke-linecap:round;stroke-linejoin:round"></path><path d="M394.07,86.12a.86.86,0,0,1,.13.14" style="fill:none;stroke:#263238;stroke-linecap:round;stroke-linejoin:round"></path><path d="M391.25,83.48c-.45-.41-.9-.8-1.35-1.18h0c-11.14-9.57-19.84-11.7-23.49-12.18" style="fill:none;stroke:#263238;stroke-linecap:round;stroke-linejoin:round"></path><rect x="363.58" y="68.49" width="2.5" height="2.5" transform="translate(6.4 167.18) rotate(-26.03)" style="fill:none;stroke:#263238;stroke-linecap:round;stroke-linejoin:round"></rect><rect x="423.69" y="150.69" width="2.5" height="2.5" transform="translate(-23.57 201.9) rotate(-26.03)" style="fill:none;stroke:#263238;stroke-linecap:round;stroke-linejoin:round"></rect><path d="M406,97.81l1.33,1.34a.91.91,0,0,1-.26.44.93.93,0,0,1-.42.26l-1.35-1.36L393.49,86.72l.68-.7Z" style="fill:#263238;stroke:#263238;stroke-linecap:round;stroke-linejoin:round"></path><path d="M407.59,98.08a1.41,1.41,0,0,1,.35,1.44,1.3,1.3,0,0,1-.34.6,1.52,1.52,0,0,1-.57.34,1.45,1.45,0,0,1-1.47-.34,1.46,1.46,0,0,1-.35-1.48,1.42,1.42,0,0,1,.35-.57,1.28,1.28,0,0,1,.59-.35A1.42,1.42,0,0,1,407.59,98.08Z" style="fill:#263238;stroke:#263238;stroke-linecap:round;stroke-linejoin:round"></path><line x1="391.09" y1="83.48" x2="379.5" y2="71.99" style="fill:none;stroke:#263238;stroke-linecap:round;stroke-linejoin:round"></line><path d="M379.72,70.72a1.12,1.12,0,1,1-1.5-.54A1.12,1.12,0,0,1,379.72,70.72Z" style="fill:none;stroke:#263238;stroke-linecap:round;stroke-linejoin:round"></path><polygon points="394.22 83.48 394.2 85.98 394.07 86.12 393.92 86.28 393.39 86.82 390.88 86.8 390.89 83.48 394.22 83.48" style="fill:none;stroke:#263238;stroke-linecap:round;stroke-linejoin:round"></polygon><polygon points="394.2 85.98 394.2 86.57 394.2 86.82 393.39 86.82 393.92 86.28 394.07 86.12 394.2 85.98" style="fill:none;stroke:#5c5c5c;stroke-miterlimit:10"></polygon><polygon points="416.84 92.3 421.04 103.36 411.28 113.14 400.22 108.98 392.4 87.81 393.92 86.28 394.07 86.12 395.64 84.55 416.84 92.3" style="fill:none;stroke:#263238;stroke-linecap:round;stroke-linejoin:round"></polygon><polygon points="434.06 110.38 419.16 125.31 411.28 113.15 421.04 103.36 434.06 110.38" style="fill:none;stroke:#263238;stroke-linecap:round;stroke-linejoin:round"></polygon><polyline points="416.14 112.03 422.15 106 427.75 108.99" style="fill:none;stroke:#263238;stroke-linecap:round;stroke-linejoin:round"></polyline><line x1="414.27" y1="113.91" x2="414.87" y2="113.3" style="fill:none;stroke:#263238;stroke-linecap:round;stroke-linejoin:round"></line></g><g id="freepik--light-bulb--inject-101"><path d="M125.89,96a15.43,15.43,0,1,0-28.66,11.43c2.29,5.74,8.41,7.8,13.11,11.19,1.46,1.06,3.46,6.36,3.46,6.36L126,120.14s-2.2-5.22-1.86-7C125.16,107.46,128.18,101.75,125.89,96Z" style="fill:none;stroke:#263238;stroke-linecap:round;stroke-linejoin:round"></path><path d="M114.35,123.25h13.09a0,0,0,0,1,0,0v.34A3.41,3.41,0,0,1,124,127h-6.27a3.41,3.41,0,0,1-3.41-3.41v-.34A0,0,0,0,1,114.35,123.25Z" transform="translate(-37.74 53.66) rotate(-21.74)" style="fill:none;stroke:#263238;stroke-linecap:round;stroke-linejoin:round"></path><path d="M114.35,123.25h13.09a0,0,0,0,1,0,0v.34A3.41,3.41,0,0,1,124,127h-6.27a3.41,3.41,0,0,1-3.41-3.41v-.34A0,0,0,0,1,114.35,123.25Z" transform="translate(-37.74 53.66) rotate(-21.74)" style="fill:none;stroke:#263238;stroke-linecap:round;stroke-linejoin:round;opacity:0.5"></path><path d="M119.42,127.57h6.12a0,0,0,0,1,0,0v.28a2.78,2.78,0,0,1-2.78,2.78h-.55a2.78,2.78,0,0,1-2.78-2.78v-.28A0,0,0,0,1,119.42,127.57Z" transform="translate(-39.09 54.52) rotate(-21.73)" style="fill:none;stroke:#263238;stroke-linecap:round;stroke-linejoin:round"></path><path d="M119.42,127.57h6.12a0,0,0,0,1,0,0v.28a2.78,2.78,0,0,1-2.78,2.78h-.55a2.78,2.78,0,0,1-2.78-2.78v-.28A0,0,0,0,1,119.42,127.57Z" transform="translate(-39.09 54.52) rotate(-21.73)" style="fill:none;stroke:#263238;stroke-linecap:round;stroke-linejoin:round;opacity:0.2"></path><line x1="103.12" y1="68.98" x2="106.65" y2="82.18" style="fill:none;stroke:#263238;stroke-linecap:round;stroke-linejoin:round"></line><line x1="101.69" y1="63.65" x2="102.41" y2="66.34" style="fill:none;stroke:#263238;stroke-linecap:round;stroke-linejoin:round"></line><line x1="87.81" y1="107.47" x2="74.3" y2="111.09" style="fill:none;stroke:#263238;stroke-linecap:round;stroke-linejoin:round"></line><line x1="92.83" y1="106.13" x2="90.54" y2="106.74" style="fill:none;stroke:#263238;stroke-linecap:round;stroke-linejoin:round"></line><line x1="144.74" y1="92.21" x2="130.6" y2="96" style="fill:none;stroke:#263238;stroke-linecap:round;stroke-linejoin:round"></line><line x1="149.12" y1="91.04" x2="147.11" y2="91.58" style="fill:none;stroke:#263238;stroke-linecap:round;stroke-linejoin:round"></line><line x1="101.94" y1="118" x2="92.35" y2="134.61" style="fill:none;stroke:#263238;stroke-linecap:round;stroke-linejoin:round"></line><line x1="131.08" y1="67.52" x2="121.49" y2="84.13" style="fill:none;stroke:#263238;stroke-linecap:round;stroke-linejoin:round"></line><line x1="94.77" y1="91.29" x2="78.17" y2="81.7" style="fill:none;stroke:#263238;stroke-linecap:round;stroke-linejoin:round"></line><line x1="131.17" y1="112.3" x2="128.65" y2="110.84" style="fill:none;stroke:#263238;stroke-linecap:round;stroke-linejoin:round"></line><line x1="145.26" y1="120.43" x2="133.47" y2="113.63" style="fill:none;stroke:#263238;stroke-linecap:round;stroke-linejoin:round"></line></g></svg>