<svg width="500" height="363" viewBox="0 0 500 363" fill="none" xmlns="http://www.w3.org/2000/svg">
<g clip-path="url(#clip0_12_605)">
<rect width="500" height="363" fill="white"/>
<path d="M373 16.82C338.7 0.870046 297.61 -3.92996 260.52 6.74004C226.95 16.41 199.61 39.31 172.33 60.08C144.44 81.3 110 95.63 85.5099 120.9C51.8999 155.64 44.9999 210 68.1799 252.3C91.9999 295.84 140 315.24 187.09 321C248.35 328.45 322.96 321.88 369.27 277.14C393.16 254.06 411.1 225.32 423.73 194.73C436.54 163.67 447.9 133.03 440.54 98.8501C432.51 61.5701 407.08 32.69 373 16.82Z" fill="#4941C0"/>
<path opacity="0.7" d="M373 16.82C338.7 0.870046 297.61 -3.92996 260.52 6.74004C226.95 16.41 199.61 39.31 172.33 60.08C144.44 81.3 110 95.63 85.5099 120.9C51.8999 155.64 44.9999 210 68.1799 252.3C91.9999 295.84 140 315.24 187.09 321C248.35 328.45 322.96 321.88 369.27 277.14C393.16 254.06 411.1 225.32 423.73 194.73C436.54 163.67 447.9 133.03 440.54 98.8501C432.51 61.5701 407.08 32.69 373 16.82Z" fill="white"/>
<path d="M247.07 347.36C364.066 347.36 458.91 330.92 458.91 310.64C458.91 290.36 364.066 273.92 247.07 273.92C130.074 273.92 35.23 290.36 35.23 310.64C35.23 330.92 130.074 347.36 247.07 347.36Z" fill="#4941C0"/>
<path opacity="0.5" d="M247.07 347.36C364.066 347.36 458.91 330.92 458.91 310.64C458.91 290.36 364.066 273.92 247.07 273.92C130.074 273.92 35.23 290.36 35.23 310.64C35.23 330.92 130.074 347.36 247.07 347.36Z" fill="white"/>
<path d="M32.7402 266.47L32.6802 268.17L33.1702 273.94L134.77 302.54L224.72 194.22L223.92 184.9L203.19 184.41L32.7402 266.47Z" fill="#4941C0"/>
<path d="M223.61 184.62L125.71 160.6L32.74 266.47L132.35 294.48L223.61 184.62Z" fill="white" stroke="#263238" stroke-linecap="round" stroke-linejoin="round"/>
<path d="M223.61 184.62L224.46 194.54L134.77 302.54L132.35 294.48" stroke="#263238" stroke-linecap="round" stroke-linejoin="round"/>
<path d="M134.77 302.54L33.1701 273.94L32.5601 266.74" stroke="#263238" stroke-linecap="round" stroke-linejoin="round"/>
<path d="M133.54 298.44L48.3501 274.51" stroke="#263238" stroke-linecap="round" stroke-linejoin="round"/>
<path d="M223.94 191.59L176.05 247.29" stroke="#263238" stroke-linecap="round" stroke-linejoin="round"/>
<path d="M170.63 252.49L133.41 296.94" stroke="#263238" stroke-linecap="round" stroke-linejoin="round"/>
<path d="M119.09 183.69C120.64 186.49 124.71 187.2 128.18 185.27C131.65 183.34 133.18 179.51 131.63 176.71C130.08 173.91 126 173.21 122.53 175.14C119.06 177.07 117.53 180.9 119.09 183.69Z" stroke="#263238" stroke-miterlimit="10"/>
<path d="M197.76 204.25L134.21 186.71" stroke="#263238" stroke-linecap="round" stroke-linejoin="round"/>
<path d="M199.85 201.76L136.29 184.23" stroke="#263238" stroke-linecap="round" stroke-linejoin="round"/>
<path d="M100.83 204.12C102.39 206.92 106.46 207.63 109.92 205.7C113.38 203.77 114.92 199.94 113.37 197.14C111.82 194.34 107.74 193.64 104.28 195.57C100.82 197.5 99.27 201.33 100.83 204.12Z" stroke="#263238" stroke-miterlimit="10"/>
<path d="M184.11 222.94L121.43 205.65" stroke="#263238" stroke-linecap="round" stroke-linejoin="round"/>
<path d="M186.27 220.48L123.52 203.17" stroke="#263238" stroke-linecap="round" stroke-linejoin="round"/>
<path d="M170.63 237.51L106.01 219.67" stroke="#263238" stroke-linecap="round" stroke-linejoin="round"/>
<path d="M172.76 235.04L108.09 217.19" stroke="#263238" stroke-linecap="round" stroke-linejoin="round"/>
<path d="M90.1204 228.23C93.5846 226.3 95.1292 222.467 93.5703 219.669C92.0115 216.871 87.9395 216.167 84.4753 218.096C81.0112 220.026 79.4666 223.859 81.0254 226.657C82.5842 229.456 86.6562 230.16 90.1204 228.23Z" stroke="#263238" stroke-miterlimit="10"/>
<path d="M156.03 254.3L91.3801 236.47" stroke="#263238" stroke-linecap="round" stroke-linejoin="round"/>
<path d="M158.07 251.81L93.47 233.99" stroke="#263238" stroke-linecap="round" stroke-linejoin="round"/>
<path d="M59.8902 250.79C61.4402 253.58 65.5202 254.29 68.9802 252.36C72.4402 250.43 73.9802 246.6 72.4302 243.8C70.8802 241 66.8002 240.3 63.3302 242.23C59.8602 244.16 58.3302 248 59.8902 250.79Z" stroke="#263238" stroke-miterlimit="10"/>
<path d="M138.22 275.15L74.6702 257.61" stroke="#263238" stroke-linecap="round" stroke-linejoin="round"/>
<path d="M140.31 272.66L76.76 255.13" stroke="#263238" stroke-linecap="round" stroke-linejoin="round"/>
<path d="M123.2 176.33C123.2 176.33 122.57 182.41 123.84 183.18C125.6 181.43 134.36 173.5 134.36 173.5" stroke="#4941C0" stroke-width="3" stroke-linecap="round" stroke-linejoin="round"/>
<path d="M86 221C86 221 84.77 227 86 227.89C87.93 226.32 97.44 219.3 97.44 219.3" stroke="#4941C0" stroke-width="3" stroke-linecap="round" stroke-linejoin="round"/>
<path d="M109.15 208.28L105.39 192.68" stroke="#263238" stroke-width="3" stroke-linecap="round" stroke-linejoin="round"/>
<path d="M69.21 255.54L65.45 239.94" stroke="#263238" stroke-width="3" stroke-linecap="round" stroke-linejoin="round"/>
<path d="M99.27 205.65L113.91 195.48" stroke="#263238" stroke-width="3" stroke-linecap="round" stroke-linejoin="round"/>
<path d="M58.1301 252.38L72.7701 242.21" stroke="#263238" stroke-width="3" stroke-linecap="round" stroke-linejoin="round"/>
<path d="M113.37 154L181.85 237.8C180.039 241.211 179.347 245.106 179.873 248.932C180.398 252.759 182.115 256.323 184.778 259.119C187.442 261.916 190.919 263.803 194.715 264.514C198.511 265.225 202.435 264.723 205.93 263.08L191.66 245.58L198.55 240L212.84 257.52C215.166 254.422 216.454 250.668 216.521 246.795C216.588 242.921 215.431 239.125 213.215 235.948C210.998 232.77 207.835 230.374 204.177 229.099C200.518 227.825 196.551 227.738 192.84 228.85L124.35 144.95C124.28 144.86 126.14 140.29 126.27 139.7C127.62 133.77 127.1 126.97 123.51 121.91C117.67 113.69 107.58 113.13 98.8001 116.48C96.6356 117.271 94.5846 118.344 92.7001 119.67L110.31 139.13L107.31 142.28L90.6301 121.53C83.5301 123.82 79.6301 132.17 83.8901 144.06C84.8901 146.81 94.8901 149.33 97.0701 150.95C99.3677 152.673 102.037 153.834 104.864 154.34C107.692 154.845 110.598 154.681 113.35 153.86L113.37 154Z" fill="#263238"/>
<path d="M105.8 154L174.28 237.8C172.471 241.21 171.78 245.103 172.306 248.928C172.832 252.752 174.547 256.314 177.209 259.11C179.871 261.906 183.345 263.794 187.139 264.506C190.933 265.219 194.855 264.72 198.35 263.08L184.08 245.58L191 240L205.3 257.52C207.625 254.422 208.914 250.668 208.981 246.795C209.048 242.921 207.891 239.125 205.675 235.948C203.458 232.77 200.295 230.374 196.637 229.099C192.978 227.825 189.011 227.738 185.3 228.85L116.81 144.95C118.621 141.539 119.313 137.644 118.787 133.818C118.262 129.991 116.546 126.428 113.882 123.631C111.218 120.834 107.741 118.947 103.945 118.236C100.149 117.525 96.2252 118.027 92.73 119.67L106.63 136.67L99.72 142.24L85.82 125.24C83.4922 128.331 82.1999 132.078 82.1275 135.947C82.0551 139.816 83.2062 143.609 85.4166 146.785C87.6271 149.961 90.784 152.358 94.4371 153.634C98.0901 154.91 102.053 154.999 105.76 153.89L105.8 154Z" fill="#4941C0" stroke="#263238" stroke-width="1.25654" stroke-linecap="round" stroke-linejoin="round"/>
<path d="M112.65 149.36C112.652 149.772 112.532 150.175 112.305 150.518C112.077 150.862 111.753 151.13 111.373 151.289C110.993 151.448 110.575 151.49 110.171 151.411C109.766 151.332 109.395 151.135 109.103 150.844C108.811 150.554 108.612 150.183 108.531 149.78C108.45 149.376 108.49 148.957 108.648 148.576C108.805 148.196 109.071 147.87 109.414 147.641C109.756 147.412 110.158 147.29 110.57 147.29C111.12 147.29 111.648 147.508 112.037 147.896C112.427 148.284 112.648 148.81 112.65 149.36V149.36Z" fill="#263238"/>
<path d="M150.35 203.71L173.99 233.15" stroke="#263238" stroke-width="1.25654" stroke-linecap="round" stroke-linejoin="round"/>
<path d="M139.75 190.51L146 198.29" stroke="#263238" stroke-width="1.25654" stroke-linecap="round" stroke-linejoin="round"/>
<path d="M402.74 346.15L394.13 346.77L385.26 347.4L214.12 359.58L188.39 351.52L177.39 348.08L188 343L212.13 331.3L381.68 319.24L391.68 318.52L400.81 317.88L401.23 318.88C404.967 327.5 405.502 337.17 402.74 346.15Z" fill="#4941C0"/>
<path d="M399.3 337.192L211.906 349.835L212.141 353.318L399.535 340.674L399.3 337.192Z" fill="#263238"/>
<path d="M397.241 324.499L209.847 337.143L210.082 340.625L397.476 327.981L397.241 324.499Z" fill="#263238"/>
<path d="M402.74 346.15L394.13 346.77L384.39 347.46C385.18 336.46 382.85 323.52 381.65 319.19L391.65 318.47L400.78 317.83L401.2 318.83C404.959 327.461 405.505 337.152 402.74 346.15Z" fill="white"/>
<path d="M214.12 359.58L188.39 351.52L177.39 348.08L188 343L212.13 331.3C222.33 347.3 214.12 359.58 214.12 359.58Z" fill="white"/>
<path d="M188.39 351.52L177.39 348.08L188 343C189.049 345.723 189.186 348.713 188.39 351.52V351.52Z" fill="#263238"/>
<path d="M214.12 359.58C214.12 359.58 222.91 345.58 212.12 331.25" stroke="#263238" stroke-linecap="round" stroke-linejoin="round"/>
<path d="M402.74 346.15L394.13 346.77C394.31 345.56 394.45 344.35 394.55 343.15C395.023 334.814 394.024 326.46 391.6 318.47L400.73 317.83L401.15 318.83C404.931 327.464 405.495 337.166 402.74 346.18V346.15Z" fill="#263238"/>
<path d="M402.74 346.15L214.12 359.58L188.39 351.52L177.39 348.08L188 343L212.13 331.3L400.76 317.88L401.18 318.88C404.957 327.518 405.521 337.222 402.77 346.24L402.74 346.15Z" stroke="#263238" stroke-linecap="round" stroke-linejoin="round"/>
<path opacity="0.1" d="M402.74 346.15L394.13 346.77C394.31 345.56 394.45 344.35 394.55 343.15L404.36 331.78C404.715 336.629 404.166 341.502 402.74 346.15V346.15Z" fill="white"/>
<path d="M381.65 319.19C381.65 319.19 385.57 337.19 384.39 347.46" stroke="#263238" stroke-miterlimit="10"/>
<path d="M362.81 89.7401C362.871 89.7624 362.938 89.7648 363.001 89.7468C363.064 89.7289 363.12 89.6915 363.16 89.64L366.96 84.5701C367.001 84.5188 367.023 84.4554 367.023 84.39C367.023 84.3247 367.001 84.2613 366.96 84.2101L363.47 79.8801C364.304 78.1105 364.935 76.2519 365.35 74.34L370.85 73.06C370.915 73.0452 370.973 73.01 371.016 72.9596C371.059 72.9092 371.085 72.8463 371.09 72.78L371.27 66.45C371.272 66.3839 371.251 66.319 371.211 66.2662C371.171 66.2135 371.114 66.176 371.05 66.1601L365.61 64.6101C365.044 61.2413 363.798 58.0228 361.95 55.15L365 50.3001C365.042 50.2512 365.064 50.1892 365.064 50.1251C365.064 50.0609 365.042 49.9989 365 49.95L360.64 45.34C360.595 45.2919 360.535 45.2599 360.47 45.249C360.405 45.2382 360.338 45.2491 360.28 45.28L355.28 48.1C353.72 46.9982 352.044 46.0725 350.28 45.34L350.02 39.5501C350.018 39.4835 349.991 39.4202 349.945 39.3722C349.899 39.3242 349.836 39.2949 349.77 39.2901L343.57 38.0101C343.506 37.9956 343.439 38.0025 343.38 38.0296C343.32 38.0567 343.271 38.1025 343.24 38.1601L340.71 43.4001C338.818 43.3796 336.93 43.5708 335.08 43.9701L331.55 39.35C331.509 39.2998 331.453 39.2633 331.391 39.2454C331.328 39.2276 331.262 39.2292 331.2 39.2501L325.38 41.77C325.322 41.7967 325.273 41.8409 325.241 41.8964C325.208 41.9519 325.194 42.0161 325.2 42.0801L326.13 47.7901C325 48.5561 323.933 49.4123 322.94 50.35C322.57 50.69 322.21 51.0601 321.8 51.5001L316.3 49.77C316.238 49.7505 316.171 49.7516 316.11 49.7733C316.049 49.7949 315.996 49.8359 315.96 49.89L312.62 55.2801C312.579 55.3313 312.557 55.3947 312.557 55.4601C312.557 55.5254 312.579 55.5888 312.62 55.6401L316.62 59.73C315.935 61.5302 315.455 63.4021 315.19 65.31L309.78 67.0001C309.719 67.0237 309.667 67.0649 309.63 67.1182C309.592 67.1716 309.572 67.2349 309.57 67.3001L309.96 73.64C309.966 73.7038 309.992 73.7639 310.036 73.8109C310.079 73.8579 310.137 73.8893 310.2 73.9L315.69 74.98C316.16 76.8875 316.851 78.7335 317.75 80.48L314.37 85C314.329 85.0528 314.306 85.118 314.306 85.185C314.306 85.2521 314.329 85.3172 314.37 85.37L318.31 90.37C318.355 90.3974 318.407 90.4119 318.46 90.4119C318.513 90.4119 318.565 90.3974 318.61 90.37L323.61 88.14C325.101 89.4427 326.739 90.567 328.49 91.4901L328.28 96.98C328.281 97.0442 328.301 97.1065 328.339 97.1584C328.377 97.2104 328.429 97.2494 328.49 97.2701L334.57 99.09C334.632 99.1098 334.698 99.1077 334.758 99.084C334.818 99.0603 334.869 99.0165 334.9 98.9601L337.74 94.28C339.717 94.4785 341.709 94.4517 343.68 94.2L346.68 98.8201C346.717 98.8724 346.771 98.9114 346.832 98.9312C346.893 98.951 346.959 98.9506 347.02 98.93L353.02 96.93C353.08 96.9082 353.132 96.8668 353.166 96.8125C353.201 96.7582 353.216 96.694 353.21 96.6301L352.86 91.15C354.58 90.179 356.18 89.0111 357.63 87.67L362.81 89.7401ZM329.81 57.6301C332.046 55.5278 334.854 54.1351 337.88 53.6276C340.907 53.1201 344.016 53.5206 346.815 54.7786C349.614 56.0366 351.978 58.0956 353.608 60.6958C355.237 63.296 356.06 66.3208 355.972 69.3883C355.885 72.4558 354.89 75.4285 353.114 77.9311C351.338 80.4338 348.86 82.3542 345.994 83.45C343.128 84.5457 340.001 84.7677 337.008 84.0878C334.016 83.408 331.292 81.8568 329.18 79.6301C327.772 78.1482 326.669 76.4029 325.937 74.4943C325.204 72.5858 324.855 70.5513 324.91 68.5076C324.964 66.4639 325.422 64.4511 326.256 62.5845C327.09 60.718 328.284 59.0343 329.77 57.6301H329.81Z" fill="#263238"/>
<path d="M305.82 95.26C305.869 95.2067 305.895 95.1371 305.895 95.065C305.895 94.9929 305.869 94.9234 305.82 94.87L302.58 91.82C303.258 90.3815 303.774 88.8723 304.12 87.32L308.59 86.94C308.662 86.9377 308.73 86.9088 308.782 86.8589C308.834 86.809 308.865 86.7417 308.87 86.67L309.07 80.08C309.068 80.0082 309.039 79.9398 308.989 79.888C308.939 79.8363 308.872 79.805 308.8 79.8L304.31 79.15C303.837 76.3864 302.817 73.7449 301.31 71.38L304.26 67.84C304.308 67.7883 304.334 67.7205 304.334 67.65C304.334 67.5796 304.308 67.5118 304.26 67.46L299.73 62.67C299.678 62.6193 299.608 62.591 299.535 62.591C299.462 62.591 299.392 62.6193 299.34 62.67L295.63 65.43C294.381 64.5427 293.04 63.7917 291.63 63.19L292.04 58.57C292.049 58.4963 292.031 58.4217 291.989 58.3608C291.946 58.2998 291.882 58.2568 291.81 58.24L285.34 56.91C285.271 56.8943 285.199 56.9051 285.138 56.9403C285.077 56.9755 285.031 57.0326 285.01 57.1L283.55 61.53C282.011 61.5175 280.476 61.6718 278.97 61.99L276.65 57.99C276.612 57.9304 276.554 57.8852 276.487 57.8617C276.42 57.8382 276.347 57.8376 276.28 57.86L270.23 60.48C270.163 60.5069 270.109 60.5576 270.078 60.6223C270.046 60.687 270.04 60.761 270.06 60.83L271.41 65.27C270.487 65.9058 269.611 66.6076 268.79 67.37C268.5 67.65 268.21 67.93 267.89 68.29L263.7 66.29C263.636 66.2598 263.562 66.2543 263.494 66.2745C263.426 66.2948 263.367 66.3395 263.33 66.4L259.78 72C259.737 72.0598 259.718 72.1343 259.73 72.2074C259.741 72.2805 259.781 72.3461 259.84 72.39L263.43 75.21C262.874 76.6762 262.478 78.1985 262.25 79.75L257.78 80.53C257.709 80.5423 257.644 80.5809 257.6 80.6383C257.555 80.6957 257.534 80.7677 257.54 80.84L257.92 87.43C257.924 87.5012 257.954 87.5684 258.004 87.6197C258.053 87.671 258.119 87.703 258.19 87.71L262.66 87.95C263.041 89.4985 263.598 90.9983 264.32 92.42L261.17 95.56C261.119 95.6123 261.091 95.6822 261.091 95.755C261.091 95.8278 261.119 95.8978 261.17 95.95L265.27 101.09C265.322 101.141 265.392 101.169 265.465 101.169C265.538 101.169 265.608 101.141 265.66 101.09L269.41 98.77C270.639 99.821 271.981 100.733 273.41 101.49L272.64 105.82C272.627 105.89 272.64 105.962 272.677 106.023C272.714 106.084 272.772 106.129 272.84 106.15L279.17 108.04C279.237 108.058 279.307 108.052 279.369 108.023C279.432 107.993 279.482 107.943 279.51 107.88L281.24 103.88C282.844 104.038 284.462 104.012 286.06 103.8L287.91 107.8C287.94 107.863 287.993 107.913 288.057 107.941C288.121 107.968 288.193 107.971 288.26 107.95L294.51 105.89C294.578 105.867 294.636 105.82 294.671 105.757C294.706 105.694 294.716 105.62 294.7 105.55L293.8 101.27C295.199 100.467 296.506 99.5145 297.7 98.43L301.52 100.64C301.583 100.674 301.655 100.684 301.725 100.67C301.794 100.655 301.856 100.616 301.9 100.56L305.82 95.26ZM273.94 91.57C271.659 89.0741 270.451 85.7813 270.577 82.4024C270.702 79.0235 272.152 75.8295 274.612 73.5099C277.072 71.1903 280.345 69.9311 283.726 70.004C287.106 70.077 290.322 71.4764 292.68 73.9L292.92 74.17C295.225 76.6896 296.434 80.0215 296.282 83.4328C296.13 86.8441 294.63 90.0553 292.11 92.36C289.59 94.6648 286.259 95.8742 282.847 95.7223C279.436 95.5704 276.225 94.0696 273.92 91.55L273.94 91.57Z" stroke="#263238" stroke-miterlimit="10"/>
<path d="M296.92 39.34C296.891 39.3714 296.875 39.4124 296.875 39.455C296.875 39.4976 296.891 39.5387 296.92 39.57L299.33 42.57C299.36 42.5982 299.399 42.6138 299.44 42.6138C299.481 42.6138 299.52 42.5982 299.55 42.57L301.76 41.2C302.475 41.8263 303.26 42.3666 304.1 42.81L303.65 45.35C303.644 45.3697 303.642 45.3904 303.645 45.4109C303.647 45.4314 303.653 45.4511 303.664 45.469C303.674 45.4868 303.688 45.5023 303.705 45.5145C303.721 45.5267 303.74 45.5354 303.76 45.54L307.48 46.66C307.52 46.6704 307.562 46.6659 307.599 46.6475C307.636 46.6291 307.664 46.5981 307.68 46.56L308.68 44.19C309.624 44.3 310.577 44.3 311.52 44.19L312.6 46.53C312.621 46.5652 312.653 46.5923 312.691 46.6068C312.729 46.6214 312.771 46.6225 312.81 46.61L316.48 45.41C316.519 45.3945 316.551 45.3662 316.571 45.3297C316.591 45.2932 316.598 45.2509 316.59 45.21L316.07 42.68C316.89 42.2092 317.658 41.6528 318.36 41.02L320.6 42.32C320.631 42.3461 320.67 42.3604 320.71 42.3604C320.75 42.3604 320.789 42.3461 320.82 42.32L323.14 39.21C323.155 39.196 323.167 39.179 323.176 39.16C323.184 39.1411 323.188 39.1207 323.188 39.1C323.188 39.0794 323.184 39.0589 323.176 39.04C323.167 39.0211 323.155 39.0041 323.14 38.99L321.24 37.19C321.639 36.3436 321.941 35.4546 322.14 34.54L324.77 34.32C324.813 34.3179 324.853 34.3006 324.885 34.2713C324.916 34.242 324.935 34.2025 324.94 34.16L325.05 30.28C325.048 30.2399 325.032 30.2019 325.004 30.1726C324.977 30.1433 324.94 30.1247 324.9 30.12L322.26 29.73C321.972 28.1079 321.367 26.5585 320.48 25.17L322.22 23.09C322.247 23.0577 322.262 23.017 322.262 22.975C322.262 22.933 322.247 22.8923 322.22 22.86L319.56 20C319.53 19.9719 319.491 19.9562 319.45 19.9562C319.409 19.9562 319.37 19.9719 319.34 20L317.15 21.63C316.41 21.1052 315.616 20.6626 314.78 20.31L315.03 17.59C315.034 17.5468 315.021 17.5038 314.996 17.4689C314.97 17.434 314.932 17.4095 314.89 17.4L311.09 16.62C311.07 16.6139 311.048 16.6119 311.027 16.6142C311.006 16.6164 310.986 16.6228 310.967 16.6331C310.948 16.6433 310.932 16.6572 310.919 16.6738C310.906 16.6905 310.896 16.7096 310.89 16.73L310.03 19.33C309.126 19.3247 308.225 19.4152 307.34 19.6L306 17.22C305.992 17.201 305.979 17.184 305.964 17.17C305.948 17.156 305.93 17.1454 305.911 17.1388C305.891 17.1322 305.87 17.1298 305.849 17.1317C305.828 17.1337 305.808 17.1399 305.79 17.15L302.23 18.68C302.191 18.6975 302.16 18.7283 302.142 18.7667C302.123 18.8052 302.119 18.8488 302.13 18.89L302.92 21.5C302.378 21.8679 301.866 22.2793 301.39 22.73C301.22 22.89 301.05 23.06 300.85 23.27L298.39 22.12C298.372 22.1099 298.352 22.1037 298.331 22.1017C298.31 22.0998 298.289 22.1022 298.27 22.1088C298.25 22.1153 298.232 22.126 298.216 22.14C298.201 22.154 298.189 22.171 298.18 22.19L296.18 25.49C296.155 25.5231 296.141 25.5635 296.141 25.605C296.141 25.6466 296.155 25.687 296.18 25.72L298.29 27.38C297.96 28.2411 297.728 29.1368 297.6 30.05L294.97 30.5C294.928 30.5072 294.889 30.5293 294.862 30.5623C294.834 30.5953 294.819 30.6371 294.82 30.68L295.05 34.55C295.05 34.5934 295.067 34.6352 295.096 34.6668C295.126 34.6984 295.167 34.7175 295.21 34.72L297.83 34.86C298.064 35.7714 298.399 36.6535 298.83 37.49L296.92 39.34ZM315.13 37.34C314.039 38.3687 312.667 39.0506 311.189 39.2996C309.71 39.5486 308.191 39.3535 306.823 38.7388C305.455 38.1242 304.301 37.1177 303.505 35.8467C302.709 34.5757 302.309 33.0973 302.354 31.5985C302.398 30.0997 302.887 28.6478 303.757 27.4266C304.627 26.2054 305.839 25.2696 307.241 24.7377C308.643 24.2059 310.172 24.1018 311.633 24.4386C313.094 24.7754 314.422 25.5381 315.45 26.63C316.823 28.091 317.561 30.0371 317.501 32.0412C317.441 34.0453 316.588 35.9438 315.13 37.32V37.34Z" stroke="#263238" stroke-miterlimit="10"/>
<path d="M434.95 300.42L447.62 278.47L309.5 282.25L281.89 128.46L271.75 152.33L294.01 302.25L434.95 300.42Z" fill="#4941C0"/>
<path d="M447.62 278.47L309.5 282.25L281.89 125.63L410.73 121.53L413.46 151.8L447.62 278.47Z" fill="white" stroke="#263238" stroke-linecap="round" stroke-linejoin="round"/>
<path d="M447.62 278.47L434.95 300.42L294.01 302.25L271.75 152.33L281.89 125.63" stroke="#263238" stroke-linecap="round" stroke-linejoin="round"/>
<path d="M281.89 125.63C281.89 125.63 292.89 207.73 336.16 266.52L462 261.64C462 261.64 413.47 178.05 410.74 121.53L281.89 125.63Z" fill="white" stroke="#263238" stroke-linecap="round" stroke-linejoin="round"/>
<path d="M397.2 136C397.198 136.768 397.424 137.519 397.849 138.158C398.274 138.798 398.879 139.297 399.588 139.592C400.297 139.887 401.077 139.965 401.831 139.817C402.584 139.668 403.276 139.299 403.82 138.757C404.364 138.215 404.734 137.524 404.885 136.771C405.035 136.018 404.959 135.237 404.666 134.528C404.372 133.818 403.875 133.211 403.237 132.785C402.598 132.358 401.848 132.13 401.08 132.13C400.053 132.13 399.067 132.537 398.34 133.263C397.613 133.988 397.203 134.973 397.2 136V136Z" fill="#263238"/>
<path d="M380.52 136.71C380.518 137.478 380.744 138.229 381.169 138.868C381.594 139.508 382.199 140.007 382.908 140.302C383.617 140.597 384.398 140.675 385.151 140.527C385.904 140.378 386.596 140.009 387.14 139.467C387.684 138.925 388.054 138.234 388.205 137.481C388.355 136.728 388.279 135.947 387.986 135.237C387.692 134.528 387.195 133.921 386.557 133.495C385.918 133.068 385.168 132.84 384.4 132.84C383.891 132.839 383.387 132.938 382.916 133.132C382.445 133.326 382.018 133.61 381.657 133.97C381.297 134.329 381.011 134.756 380.816 135.227C380.62 135.697 380.52 136.201 380.52 136.71V136.71Z" fill="#263238"/>
<path d="M351.136 141.488C353.027 140.479 353.742 138.129 352.733 136.238C351.725 134.348 349.374 133.633 347.484 134.641C345.593 135.65 344.878 138 345.887 139.891C346.895 141.782 349.246 142.497 351.136 141.488Z" fill="#263238"/>
<path d="M328.29 138.57C328.288 139.338 328.514 140.089 328.939 140.728C329.364 141.368 329.969 141.867 330.678 142.162C331.387 142.457 332.168 142.535 332.921 142.387C333.674 142.238 334.366 141.869 334.91 141.327C335.454 140.785 335.824 140.094 335.975 139.341C336.125 138.588 336.049 137.807 335.756 137.097C335.462 136.388 334.965 135.781 334.327 135.355C333.688 134.928 332.938 134.7 332.17 134.7C331.661 134.699 331.157 134.798 330.686 134.992C330.215 135.186 329.787 135.47 329.427 135.83C329.067 136.189 328.781 136.616 328.586 137.087C328.39 137.557 328.29 138.061 328.29 138.57V138.57Z" fill="#263238"/>
<path d="M303.24 140.59C303.202 141.17 302.944 141.714 302.52 142.111C302.096 142.508 301.536 142.729 300.955 142.729C300.374 142.729 299.814 142.508 299.39 142.111C298.966 141.714 298.708 141.17 298.67 140.59C298.609 137.599 298.319 134.617 297.8 131.67C296.95 126.86 295.28 121.24 291.97 117.97C291.154 117.123 290.173 116.453 289.088 116C288.003 115.548 286.836 115.323 285.66 115.34H285.57C284.63 115.289 283.692 115.463 282.833 115.848C281.974 116.232 281.219 116.816 280.63 117.55C277.73 121.24 278.02 128.86 278.74 133.94L275.74 141.94C275.44 140.59 271.22 122.18 277.08 114.72C278.089 113.439 279.382 112.411 280.858 111.716C282.333 111.022 283.95 110.681 285.58 110.72C287.376 110.697 289.157 111.04 290.816 111.728C292.475 112.416 293.977 113.434 295.23 114.72C303.15 122.63 303.24 139.86 303.24 140.59Z" fill="#263238"/>
<path d="M318.86 139.4C318.86 140.005 318.62 140.585 318.192 141.012C317.765 141.44 317.185 141.68 316.58 141.68C315.975 141.68 315.395 141.44 314.968 141.012C314.54 140.585 314.3 140.005 314.3 139.4C314.233 136.409 313.939 133.427 313.42 130.48C312.58 125.66 310.91 120.05 307.6 116.77C306.777 115.908 305.782 115.228 304.679 114.775C303.577 114.322 302.392 114.106 301.2 114.14C300.26 114.097 299.323 114.275 298.465 114.661C297.607 115.047 296.852 115.629 296.26 116.36C294.61 118.46 294 121.82 293.9 125.25L289.34 125.39C289.44 121.12 290.24 116.62 292.67 113.54C293.675 112.257 294.966 111.227 296.44 110.532C297.915 109.838 299.531 109.498 301.16 109.54C302.958 109.509 304.744 109.848 306.406 110.536C308.068 111.224 309.57 112.247 310.82 113.54C318.77 121.43 318.86 138.67 318.86 139.4Z" fill="#263238"/>
<path d="M334.84 139.4C334.802 139.98 334.544 140.524 334.12 140.921C333.696 141.318 333.136 141.539 332.555 141.539C331.974 141.539 331.415 141.318 330.99 140.921C330.566 140.524 330.308 139.98 330.27 139.4C330.209 136.409 329.919 133.427 329.4 130.48C328.56 125.66 326.88 120.05 323.57 116.77C322.746 115.909 321.751 115.231 320.648 114.778C319.546 114.325 318.361 114.108 317.17 114.14C316.231 114.093 315.295 114.269 314.437 114.655C313.58 115.041 312.827 115.626 312.24 116.36C310.67 118.36 310.03 121.48 309.89 124.73L305.33 124.88C305.48 120.77 306.33 116.51 308.65 113.54C309.654 112.256 310.945 111.226 312.42 110.531C313.894 109.836 315.511 109.497 317.14 109.54C318.937 109.507 320.722 109.846 322.382 110.534C324.042 111.222 325.543 112.246 326.79 113.54C334.75 121.43 334.84 138.67 334.84 139.4Z" fill="#263238"/>
<path d="M350.93 137.37C350.93 137.975 350.69 138.555 350.262 138.982C349.835 139.41 349.255 139.65 348.65 139.65C348.045 139.65 347.465 139.41 347.038 138.982C346.61 138.555 346.37 137.975 346.37 137.37C346.303 134.379 346.009 131.397 345.49 128.45C344.64 123.64 342.96 118.02 339.67 114.75C338.852 113.903 337.87 113.232 336.783 112.78C335.695 112.328 334.527 112.103 333.35 112.12H333.27C332.33 112.068 331.391 112.242 330.532 112.626C329.673 113.011 328.918 113.595 328.33 114.33C326.52 116.63 325.95 120.46 325.95 124.24L321.4 124.37C321.4 119.82 322.12 114.85 324.74 111.51C325.748 110.23 327.04 109.203 328.513 108.509C329.987 107.814 331.601 107.473 333.23 107.51H333.35C335.128 107.495 336.891 107.842 338.531 108.53C340.171 109.218 341.654 110.232 342.89 111.51C350.84 119.4 350.93 136.64 350.93 137.37Z" fill="#263238"/>
<path d="M368 136.43C368.021 136.743 367.977 137.057 367.871 137.352C367.766 137.647 367.601 137.917 367.387 138.146C367.173 138.375 366.914 138.557 366.626 138.682C366.339 138.807 366.028 138.871 365.715 138.871C365.401 138.871 365.091 138.807 364.804 138.682C364.516 138.557 364.257 138.375 364.043 138.146C363.829 137.917 363.664 137.647 363.558 137.352C363.453 137.057 363.409 136.743 363.43 136.43C363.369 133.439 363.078 130.457 362.56 127.51C361.71 122.7 360.04 117.08 356.73 113.81C355.907 112.948 354.912 112.267 353.809 111.812C352.707 111.358 351.522 111.139 350.33 111.17C349.39 111.127 348.453 111.305 347.595 111.691C346.737 112.077 345.982 112.659 345.39 113.39C343.53 115.76 342.98 119.72 343.01 123.59H338.46C338.46 119 339.15 113.94 341.8 110.59C342.808 109.31 344.1 108.283 345.573 107.589C347.047 106.894 348.662 106.553 350.29 106.59C352.088 106.56 353.873 106.9 355.535 107.588C357.197 108.276 358.699 109.298 359.95 110.59C367.87 118.47 368 135.71 368 136.43Z" fill="#263238"/>
<path d="M386.71 137.37C386.71 137.975 386.47 138.555 386.042 138.982C385.615 139.41 385.035 139.65 384.43 139.65C383.825 139.65 383.245 139.41 382.818 138.982C382.39 138.555 382.15 137.975 382.15 137.37C382.089 134.378 381.794 131.396 381.27 128.45C380.42 123.64 378.75 118.02 375.45 114.75C374.632 113.903 373.65 113.232 372.563 112.78C371.475 112.328 370.307 112.103 369.13 112.12H369.05C368.11 112.068 367.171 112.242 366.312 112.626C365.453 113.011 364.698 113.595 364.11 114.33C362.48 116.41 361.85 119.74 361.75 123.16L357.2 123.24C357.3 119.02 358.12 114.57 360.52 111.51C361.528 110.23 362.82 109.203 364.293 108.509C365.767 107.814 367.382 107.473 369.01 107.51H369.13C370.908 107.495 372.671 107.842 374.311 108.53C375.951 109.218 377.434 110.232 378.67 111.51C386.62 119.4 386.71 136.64 386.71 137.37Z" fill="#263238"/>
<path d="M403.66 136.43C403.621 137.01 403.364 137.554 402.94 137.951C402.515 138.348 401.956 138.569 401.375 138.569C400.794 138.569 400.234 138.348 399.81 137.951C399.386 137.554 399.128 137.01 399.09 136.43C399.029 133.439 398.738 130.457 398.22 127.51C397.37 122.7 395.7 117.08 392.39 113.81C391.569 112.947 390.576 112.266 389.475 111.811C388.375 111.356 387.191 111.138 386 111.17C385.058 111.125 384.12 111.303 383.26 111.689C382.4 112.074 381.643 112.657 381.05 113.39C379.36 115.54 378.75 119.01 378.68 122.52L374.13 122.68C374.2 118.34 374.99 113.68 377.46 110.57C378.469 109.29 379.763 108.262 381.238 107.567C382.713 106.873 384.33 106.532 385.96 106.57C387.756 106.543 389.539 106.884 391.198 107.572C392.858 108.26 394.359 109.28 395.61 110.57C403.57 118.47 403.66 135.71 403.66 136.43Z" fill="#263238"/>
<path d="M296.34 139.87C296.338 140.638 296.564 141.389 296.989 142.028C297.414 142.668 298.02 143.167 298.728 143.462C299.437 143.757 300.218 143.835 300.971 143.687C301.724 143.538 302.416 143.169 302.96 142.627C303.504 142.085 303.874 141.394 304.025 140.641C304.175 139.888 304.099 139.107 303.806 138.398C303.512 137.688 303.015 137.081 302.377 136.655C301.738 136.228 300.988 136 300.22 136C299.711 135.999 299.207 136.098 298.736 136.292C298.265 136.486 297.838 136.77 297.477 137.13C297.117 137.489 296.831 137.917 296.636 138.387C296.441 138.857 296.34 139.361 296.34 139.87V139.87Z" fill="#263238"/>
<path d="M362.57 137.37C362.57 138.137 362.798 138.888 363.224 139.526C363.65 140.164 364.256 140.661 364.965 140.955C365.674 141.248 366.454 141.325 367.207 141.175C367.96 141.026 368.651 140.656 369.194 140.114C369.736 139.571 370.106 138.88 370.255 138.127C370.405 137.374 370.328 136.594 370.035 135.885C369.741 135.176 369.244 134.57 368.606 134.144C367.968 133.718 367.217 133.49 366.45 133.49C365.422 133.493 364.436 133.902 363.709 134.629C362.982 135.356 362.573 136.342 362.57 137.37Z" fill="#263238"/>
<path d="M312.31 139.09C312.308 139.858 312.534 140.609 312.959 141.248C313.384 141.888 313.99 142.387 314.698 142.682C315.407 142.977 316.188 143.055 316.941 142.907C317.694 142.758 318.386 142.389 318.93 141.847C319.474 141.305 319.844 140.614 319.995 139.861C320.145 139.108 320.069 138.327 319.776 137.617C319.482 136.908 318.985 136.301 318.347 135.875C317.708 135.448 316.958 135.22 316.19 135.22C315.163 135.22 314.177 135.627 313.45 136.353C312.723 137.078 312.313 138.063 312.31 139.09V139.09Z" fill="#263238"/>
<path d="M274.37 146.17L280.78 185.06" stroke="#263238" stroke-linecap="round" stroke-linejoin="round"/>
<path d="M281.89 171.31L287.4 203.41" stroke="#263238" stroke-linecap="round" stroke-linejoin="round"/>
<path d="M399.94 291.69L301.35 292.94" stroke="#263238" stroke-linecap="round" stroke-linejoin="round"/>
<path d="M309.5 282.25L294.01 302.25" stroke="#263238" stroke-linecap="round" stroke-linejoin="round"/>
<path d="M295.65 233.62L305.75 287.08L345.86 285.82" stroke="#263238" stroke-linecap="round" stroke-linejoin="round"/>
<path d="M295.65 260.35L285.55 206.89" stroke="#263238" stroke-linecap="round" stroke-linejoin="round"/>
<path d="M443.52 285.58L381.89 287.09" stroke="#263238" stroke-linecap="round" stroke-linejoin="round"/>
<path d="M318.95 221.26L384.4 219.47" stroke="#263238" stroke-linecap="round" stroke-linejoin="round"/>
<path d="M320.86 225.61L393.29 223.63" stroke="#263238" stroke-linecap="round" stroke-linejoin="round"/>
<path d="M323.51 230.87L384.4 229.21" stroke="#263238" stroke-linecap="round" stroke-linejoin="round"/>
<path d="M326.35 236.13L394.02 234.28" stroke="#263238" stroke-linecap="round" stroke-linejoin="round"/>
<path d="M307.53 193.4L377.48 191.48" stroke="#263238" stroke-linecap="round" stroke-linejoin="round"/>
<path d="M310.02 197.36L384.4 195.32" stroke="#263238" stroke-linecap="round" stroke-linejoin="round"/>
<path d="M311.31 201.46L369.13 199.88" stroke="#263238" stroke-linecap="round" stroke-linejoin="round"/>
<path d="M300.07 167.55L366.73 165.73" stroke="#263238" stroke-linecap="round" stroke-linejoin="round"/>
<path d="M301.6 171.92L346.78 170.69" stroke="#263238" stroke-linecap="round" stroke-linejoin="round"/>
<path d="M298.99 163.07L374.24 161.02" stroke="#263238" stroke-linecap="round" stroke-linejoin="round"/>
<path d="M399.345 168.812C401.153 164.793 398.589 159.722 393.618 157.486C388.647 155.249 383.151 156.695 381.343 160.714C379.535 164.733 382.099 169.805 387.07 172.041C392.042 174.277 397.537 172.832 399.345 168.812Z" fill="white" stroke="#263238" stroke-linecap="round" stroke-linejoin="round"/>
<path d="M384.4 161.99L392.43 168.1L402.18 148.22" stroke="#4941C0" stroke-width="4" stroke-linecap="round" stroke-linejoin="round"/>
<path d="M408.957 195.526C410.765 191.506 408.2 186.435 403.229 184.199C398.258 181.963 392.762 183.408 390.954 187.427C389.146 191.447 391.71 196.518 396.682 198.754C401.653 200.99 407.149 199.545 408.957 195.526Z" fill="white" stroke="#263238" stroke-linecap="round" stroke-linejoin="round"/>
<path d="M421.43 224C419.63 228 414.13 229.46 409.16 227.23C404.19 225 401.63 219.92 403.43 215.91C405.23 211.9 410.73 210.44 415.7 212.68C420.67 214.92 423.24 220 421.43 224Z" fill="white" stroke="#263238" stroke-linecap="round" stroke-linejoin="round"/>
<path d="M406.51 215.98L414.54 222.09L424.28 202.21" stroke="#4941C0" stroke-width="4" stroke-linecap="round" stroke-linejoin="round"/>
<path d="M390.24 181.87L411.96 201.08" stroke="#263238" stroke-width="4" stroke-linecap="round" stroke-linejoin="round"/>
<path d="M395.09 203.63L404.73 179.13" stroke="#263238" stroke-width="4" stroke-linecap="round" stroke-linejoin="round"/>
<path d="M279.61 91.25V292.42C279.609 293.359 279.468 294.293 279.19 295.19C278.603 297.058 277.434 298.69 275.855 299.848C274.276 301.007 272.368 301.631 270.41 301.63H171C169.791 301.63 168.594 301.392 167.477 300.929C166.36 300.466 165.346 299.787 164.491 298.932C163.637 298.077 162.959 297.061 162.497 295.944C162.036 294.826 161.799 293.629 161.8 292.42V91.25C161.805 88.8117 162.776 86.4747 164.501 84.7505C166.225 83.0263 168.562 82.0553 171 82.05H270.42C272.858 82.0527 275.196 83.0232 276.919 84.7482C278.642 86.4732 279.61 88.8118 279.61 91.25Z" fill="#263238"/>
<path opacity="0.1" d="M279.61 91.2501V292.42C279.609 293.359 279.468 294.293 279.19 295.19L163.67 85.6901C164.525 84.5579 165.631 83.6398 166.901 83.0082C168.172 82.3765 169.571 82.0485 170.99 82.0501H270.41C271.618 82.0501 272.814 82.288 273.931 82.7504C275.047 83.2127 276.061 83.8904 276.915 84.7447C277.77 85.599 278.447 86.6132 278.91 87.7294C279.372 88.8456 279.61 90.0419 279.61 91.2501Z" fill="white"/>
<path d="M279.61 91.25V292.42C279.609 293.359 279.468 294.293 279.19 295.19C278.603 297.058 277.434 298.69 275.855 299.848C274.276 301.007 272.368 301.631 270.41 301.63H171C169.791 301.63 168.594 301.392 167.477 300.929C166.36 300.466 165.346 299.787 164.491 298.932C163.637 298.077 162.959 297.061 162.497 295.944C162.036 294.826 161.799 293.629 161.8 292.42V91.25C161.805 88.8117 162.776 86.4747 164.501 84.7505C166.225 83.0263 168.562 82.0553 171 82.05H270.42C272.858 82.0527 275.196 83.0232 276.919 84.7482C278.642 86.4732 279.61 88.8118 279.61 91.25Z" stroke="#263238" stroke-miterlimit="10"/>
<path d="M273.49 102.65H168.11V277.12H273.49V102.65Z" fill="white"/>
<path d="M175.57 110.76H173.19V114.01H175.57V110.76Z" fill="#263238"/>
<path d="M178.82 108.51H176.44V114.01H178.82V108.51Z" fill="#263238"/>
<path d="M182.32 105.49H179.94V114.01H182.32V105.49Z" fill="#263238"/>
<path d="M269.93 108.51H260.49V113.68H269.93V108.51Z" stroke="#263238" stroke-width="0.821067" stroke-linecap="round" stroke-linejoin="round"/>
<path d="M267.85 108.51H260.49V113.68H267.85V108.51Z" fill="#263238" stroke="#263238" stroke-width="0.725073" stroke-linecap="round" stroke-linejoin="round"/>
<path d="M271.24 109.96H269.91V112.24H271.24V109.96Z" fill="#263238" stroke="#263238" stroke-width="0.725073" stroke-linecap="round" stroke-linejoin="round"/>
<path opacity="0.1" d="M220.7 295.18C223.655 295.18 226.05 292.785 226.05 289.83C226.05 286.875 223.655 284.48 220.7 284.48C217.745 284.48 215.35 286.875 215.35 289.83C215.35 292.785 217.745 295.18 220.7 295.18Z" fill="white"/>
<path d="M273.49 102.65H168.11V277.12H273.49V102.65Z" stroke="#263238" stroke-miterlimit="10"/>
<path opacity="0.1" d="M189.32 284.61H181.14V292.79H189.32V284.61Z" stroke="white" stroke-miterlimit="10"/>
<path d="M257.66 145.86C257.651 145.797 257.619 145.74 257.572 145.698C257.524 145.656 257.463 145.632 257.4 145.63L252.15 145.22C251.474 143.493 250.601 141.848 249.55 140.32L252.25 135.7C252.287 135.651 252.307 135.591 252.307 135.53C252.307 135.469 252.287 135.409 252.25 135.36L248 131.11C247.952 131.071 247.892 131.05 247.83 131.05C247.768 131.05 247.708 131.071 247.66 131.11L243 133.81C240.312 132.005 237.283 130.769 234.1 130.18L232.77 124.91C232.756 124.849 232.722 124.795 232.672 124.757C232.623 124.719 232.562 124.698 232.5 124.7H226.5C226.438 124.7 226.378 124.721 226.329 124.759C226.28 124.797 226.245 124.85 226.23 124.91L224.89 130.21C223.125 130.56 221.404 131.107 219.76 131.84L215.61 128.25C215.56 128.212 215.498 128.191 215.435 128.191C215.372 128.191 215.31 128.212 215.26 128.25L210.34 131.7C210.29 131.734 210.252 131.785 210.234 131.843C210.216 131.901 210.218 131.963 210.24 132.02L212.24 137.17C210.998 138.466 209.901 139.895 208.97 141.43L203.49 140.86C203.427 140.855 203.365 140.869 203.311 140.902C203.257 140.934 203.215 140.982 203.19 141.04L201.14 146.68C201.118 146.739 201.118 146.804 201.138 146.864C201.157 146.924 201.197 146.975 201.25 147.01L205.79 150.09C205.578 151.366 205.471 152.657 205.47 153.95C205.47 154.43 205.47 154.95 205.53 155.48L200.75 158.16C200.695 158.188 200.652 158.234 200.628 158.291C200.604 158.348 200.601 158.411 200.62 158.47L202.16 164.27C202.172 164.332 202.206 164.387 202.256 164.426C202.305 164.464 202.367 164.484 202.43 164.48L207.83 164.41C208.617 166.04 209.58 167.579 210.7 169L208.37 173.84C208.341 173.897 208.333 173.962 208.348 174.025C208.362 174.087 208.399 174.142 208.45 174.18L213.06 178.04C213.108 178.079 213.168 178.1 213.23 178.1C213.292 178.1 213.352 178.079 213.4 178.04L217.72 174.96C219.337 175.875 221.056 176.6 222.84 177.12L223.73 182.36C223.744 182.421 223.777 182.475 223.823 182.516C223.87 182.558 223.928 182.583 223.99 182.59L229.99 183.1C230.038 183.09 230.084 183.068 230.122 183.037C230.16 183.005 230.19 182.965 230.21 182.92L231.95 177.99C233.82 177.81 235.663 177.41 237.44 176.8L241.1 180.51C241.142 180.553 241.196 180.582 241.255 180.593C241.315 180.603 241.376 180.595 241.43 180.57L246.63 177.57C246.682 177.539 246.723 177.493 246.747 177.437C246.77 177.381 246.775 177.319 246.76 177.26L245.38 172.26C246.802 171.027 248.077 169.635 249.18 168.11L254.32 169.05C254.38 169.063 254.442 169.054 254.495 169.025C254.549 168.995 254.589 168.947 254.61 168.89L257.15 163.45C257.177 163.393 257.184 163.33 257.171 163.268C257.159 163.207 257.127 163.152 257.08 163.11L253.08 159.81C253.532 157.987 253.767 156.118 253.78 154.24L258.55 152.07C258.608 152.046 258.656 152.004 258.687 151.949C258.717 151.895 258.729 151.832 258.72 151.77L257.66 145.86ZM229.66 168.7C225.821 168.6 222.173 167.005 219.493 164.254C216.813 161.504 215.314 157.815 215.314 153.975C215.314 150.135 216.813 146.446 219.493 143.696C222.173 140.945 225.821 139.35 229.66 139.25V139.25C233.567 139.25 237.313 140.802 240.076 143.564C242.838 146.327 244.39 150.073 244.39 153.98C244.39 157.887 242.838 161.633 240.076 164.396C237.313 167.158 233.567 168.71 229.66 168.71V168.7Z" fill="#4941C0" stroke="#263238" stroke-linecap="round" stroke-linejoin="round"/>
<path d="M225.26 195C225.25 194.932 225.215 194.87 225.161 194.827C225.107 194.785 225.039 194.764 224.97 194.77L220.76 195.03C220.213 193.618 219.501 192.276 218.64 191.03L221.3 187.69C221.343 187.638 221.367 187.573 221.367 187.505C221.367 187.437 221.343 187.372 221.3 187.32L216.88 182.9C216.828 182.857 216.763 182.833 216.695 182.833C216.627 182.833 216.562 182.857 216.51 182.9L213.14 185.58C210.932 184.095 208.445 183.075 205.83 182.58L205.31 178.24C205.306 178.204 205.295 178.168 205.278 178.136C205.26 178.104 205.236 178.076 205.207 178.053C205.178 178.031 205.144 178.015 205.109 178.005C205.073 177.996 205.036 177.994 205 178H198.75C198.681 178.002 198.615 178.028 198.564 178.074C198.513 178.119 198.479 178.182 198.47 178.25L197.96 182.62C196.529 182.897 195.134 183.333 193.8 183.92L190.88 180.63C190.83 180.583 190.764 180.557 190.695 180.557C190.626 180.557 190.56 180.583 190.51 180.63L185.38 184.22C185.324 184.259 185.283 184.317 185.267 184.383C185.25 184.449 185.258 184.519 185.29 184.58L187.4 188.46C186.385 189.508 185.49 190.665 184.73 191.91L180.44 190.91C180.374 190.893 180.304 190.901 180.243 190.932C180.182 190.964 180.135 191.016 180.11 191.08L178 196.88C177.985 196.912 177.977 196.947 177.976 196.982C177.976 197.017 177.982 197.052 177.995 197.085C178.008 197.118 178.028 197.148 178.053 197.172C178.078 197.197 178.107 197.217 178.14 197.23L182.07 199.23C181.907 200.275 181.823 201.332 181.82 202.39C181.82 202.76 181.82 203.15 181.82 203.61L177.75 205.22C177.685 205.243 177.631 205.29 177.599 205.351C177.568 205.413 177.561 205.484 177.58 205.55L179.2 211.55C179.212 211.617 179.251 211.677 179.307 211.717C179.363 211.756 179.432 211.772 179.5 211.76L183.78 211.12C184.429 212.46 185.224 213.724 186.15 214.89L183.77 218.47C183.726 218.524 183.702 218.591 183.702 218.66C183.702 218.729 183.726 218.796 183.77 218.85L188.57 222.85C188.622 222.889 188.685 222.91 188.75 222.91C188.815 222.91 188.878 222.889 188.93 222.85L192.02 219.92C193.333 220.661 194.725 221.252 196.17 221.68L196.29 225.9C196.29 225.967 196.316 226.032 196.363 226.08C196.409 226.129 196.473 226.157 196.54 226.16L202.76 226.68C202.829 226.681 202.896 226.657 202.949 226.613C203.002 226.569 203.038 226.508 203.05 226.44L203.89 222.34C205.407 222.179 206.9 221.843 208.34 221.34L210.83 224.68C210.87 224.735 210.93 224.773 210.996 224.785C211.063 224.798 211.132 224.786 211.19 224.75L216.6 221.63C216.659 221.596 216.703 221.541 216.724 221.477C216.744 221.412 216.739 221.341 216.71 221.28L215.06 217.47C216.215 216.468 217.251 215.337 218.15 214.1L222.08 215.41C222.145 215.431 222.216 215.427 222.278 215.4C222.341 215.372 222.391 215.322 222.42 215.26L225.07 209.62C225.097 209.558 225.101 209.489 225.08 209.424C225.06 209.36 225.017 209.305 224.96 209.27L221.42 207.09C221.782 205.61 221.977 204.094 222 202.57L226 201.37C226.064 201.35 226.119 201.307 226.156 201.251C226.192 201.194 226.208 201.127 226.2 201.06L225.26 195ZM214.18 202.38C214.17 204.792 213.446 207.146 212.098 209.146C210.751 211.146 208.841 212.702 206.61 213.618C204.378 214.533 201.926 214.766 199.562 214.288C197.198 213.81 195.029 212.642 193.329 210.932C191.628 209.222 190.473 207.046 190.008 204.679C189.544 202.313 189.791 199.862 190.719 197.636C191.647 195.41 193.214 193.509 195.222 192.173C197.23 190.837 199.588 190.126 202 190.13V190.13C205.233 190.133 208.333 191.417 210.62 193.703C212.907 195.988 214.195 199.087 214.2 202.32L214.18 202.38Z" fill="#4941C0" stroke="#263238" stroke-linecap="round" stroke-linejoin="round"/>
<path d="M237.78 239.58H202.45C196.402 239.58 191.5 244.483 191.5 250.53V251.1C191.5 257.148 196.402 262.05 202.45 262.05H237.78C243.828 262.05 248.73 257.148 248.73 251.1V250.53C248.73 244.483 243.828 239.58 237.78 239.58Z" fill="#4941C0" stroke="#263238" stroke-linecap="round" stroke-linejoin="round"/>
<path d="M201.57 250.25C201.623 249.483 201.897 248.748 202.357 248.132C202.817 247.516 203.446 247.046 204.166 246.778C204.887 246.51 205.669 246.455 206.42 246.621C207.171 246.786 207.859 247.164 208.4 247.71L207.52 248.53C207.267 248.253 206.958 248.034 206.613 247.887C206.268 247.74 205.895 247.67 205.52 247.68C205.168 247.658 204.816 247.708 204.485 247.828C204.153 247.947 203.85 248.134 203.593 248.375C203.336 248.616 203.131 248.907 202.992 249.231C202.852 249.554 202.78 249.903 202.78 250.255C202.78 250.607 202.852 250.956 202.992 251.279C203.131 251.603 203.336 251.894 203.593 252.135C203.85 252.377 204.153 252.563 204.485 252.682C204.816 252.802 205.168 252.852 205.52 252.83C205.897 252.841 206.272 252.769 206.617 252.619C206.963 252.468 207.271 252.243 207.52 251.96L208.4 252.8C207.858 253.346 207.17 253.724 206.418 253.889C205.666 254.054 204.883 253.999 204.162 253.73C203.441 253.46 202.813 252.989 202.353 252.372C201.894 251.755 201.622 251.018 201.57 250.25V250.25Z" fill="#263238"/>
<path d="M216.22 246.59V253.92H214.86V250.78H211.07V253.92H209.71V246.59H211.07V249.59H214.86V246.59H216.22Z" fill="#263238"/>
<path d="M223.69 252.78V253.92H218.2V246.59H223.55V247.73H219.55V249.63H223.09V250.75H219.55V252.75L223.69 252.78Z" fill="#263238"/>
<path d="M224.66 250.25C224.713 249.483 224.987 248.748 225.447 248.132C225.907 247.516 226.536 247.046 227.256 246.778C227.977 246.51 228.76 246.455 229.51 246.621C230.261 246.786 230.949 247.164 231.49 247.71L230.61 248.53C230.359 248.251 230.049 248.031 229.704 247.884C229.359 247.737 228.985 247.668 228.61 247.68C228.259 247.658 227.906 247.708 227.575 247.828C227.243 247.947 226.94 248.134 226.683 248.375C226.426 248.616 226.222 248.907 226.082 249.231C225.942 249.554 225.87 249.903 225.87 250.255C225.87 250.607 225.942 250.956 226.082 251.279C226.222 251.603 226.426 251.894 226.683 252.135C226.94 252.377 227.243 252.563 227.575 252.682C227.906 252.802 228.259 252.852 228.61 252.83C228.987 252.843 229.363 252.772 229.709 252.622C230.055 252.471 230.363 252.245 230.61 251.96L231.49 252.8C230.948 253.346 230.26 253.724 229.508 253.889C228.756 254.054 227.973 253.999 227.252 253.73C226.531 253.46 225.903 252.989 225.443 252.372C224.984 251.755 224.712 251.018 224.66 250.25V250.25Z" fill="#263238"/>
<path d="M235.33 250.85L234.16 252V253.88H232.8V246.55H234.16V250.31L237.79 246.55H239.32L236.24 249.82L239.5 253.88H237.91L235.33 250.85Z" fill="#263238"/>
<path opacity="0.1" d="M254.15 293.34V285.16L262.33 289.25L254.15 293.34Z" stroke="white" stroke-miterlimit="10"/>
</g>
<defs>
<clipPath id="clip0_12_605">
<rect width="500" height="363" fill="white"/>
</clipPath>
</defs>
</svg>
