<svg width="500" height="363" viewBox="0 0 500 363" fill="none" xmlns="http://www.w3.org/2000/svg">
<g clip-path="url(#clip0_15_2811)">
<rect width="500" height="363" fill="white"/>
<g clip-path="url(#clip1_15_2811)">
<path opacity="0.7" d="M114.617 124.974C114.617 124.974 86.737 196.974 125.917 269.474C165.097 341.974 245.797 380.274 310.387 413.024C374.977 445.774 442.047 429.824 473.917 376.184C505.787 322.544 462.077 284.254 462.017 207.764C461.957 131.274 473.467 111.024 432.017 46.4043C390.567 -18.2157 288.957 -32.5257 212.117 15.4044C135.277 63.3344 114.617 124.974 114.617 124.974Z" fill="white"/>
<path d="M156.687 70.3544C170.147 54.2744 188.337 41.8844 210.017 42.0944C247.017 42.5544 267.017 75.3044 288.237 100.564C299.237 113.664 311.727 126.304 328.067 132.464C352.577 141.694 379.877 136.304 403.757 127.734C414.457 123.894 427.127 118.494 439.177 121.254C475.807 129.634 471.997 174.334 465.947 202.644C457.777 240.884 444.497 281.544 417.587 310.884C353.157 381.174 237.207 338.084 179.087 281.994C174.817 277.864 170.727 273.564 166.877 268.994C156.875 257.333 148.409 244.438 141.687 230.624C122.967 191.674 120.387 144.334 136.687 104.084C141.582 91.8806 148.327 80.5038 156.687 70.3544V70.3544Z" fill="#4941C0"/>
<path opacity="0.7" d="M156.687 70.3544C170.147 54.2744 188.337 41.8844 210.017 42.0944C247.017 42.5544 267.017 75.3044 288.237 100.564C299.237 113.664 311.727 126.304 328.067 132.464C352.577 141.694 379.877 136.304 403.757 127.734C414.457 123.894 427.127 118.494 439.177 121.254C475.807 129.634 471.997 174.334 465.947 202.644C457.777 240.884 444.497 281.544 417.587 310.884C353.157 381.174 237.207 338.084 179.087 281.994C174.817 277.864 170.727 273.564 166.877 268.994C156.875 257.333 148.409 244.438 141.687 230.624C122.967 191.674 120.387 144.334 136.687 104.084C141.582 91.8806 148.327 80.5038 156.687 70.3544V70.3544Z" fill="white"/>
<path d="M54.05 360.43H445.95" stroke="#263238" stroke-linecap="round" stroke-linejoin="round"/>
<path d="M324.97 150.257L325.161 150.141L325.202 149.92L329.103 128.718L344.212 132.905L343.987 133.643C343.747 134.428 343.404 135.551 342.99 136.907C342.161 139.62 341.046 143.265 339.902 146.994C337.612 154.46 335.214 162.243 334.757 163.578C334.758 163.575 334.759 163.573 334.759 163.573C334.757 163.575 334.741 163.607 334.681 163.668C334.611 163.74 334.504 163.829 334.355 163.935C334.057 164.147 333.629 164.395 333.079 164.677C331.98 165.238 330.449 165.901 328.621 166.627C324.969 168.079 320.18 169.765 315.411 171.37C310.643 172.974 305.904 174.495 302.356 175.614C300.582 176.174 299.107 176.633 298.074 176.953C297.558 177.113 297.153 177.237 296.877 177.322L296.844 177.332L292.757 169.829L324.97 150.257Z" fill="white" stroke="black"/>
<path d="M343 91.3298L340.82 117.69L339.67 131.52C333.38 134.58 327.23 129.98 326.85 129.68C328.56 124.66 330.55 96.3298 343 91.3298Z" fill="#F5E461" stroke="#263238" stroke-linecap="round" stroke-linejoin="round"/>
<path d="M365.59 335.44L366.59 338.38C365.075 340.882 363.377 343.268 361.51 345.52C361.51 345.52 360.51 345.2 358.87 346.65C357.86 347.657 357.237 348.989 357.11 350.41C357.11 350.41 349.47 359.57 339.78 359.7C330.09 359.83 333.01 354.95 333.01 354.95L365.59 335.44Z" fill="#4941C0" stroke="#263238" stroke-linecap="round" stroke-linejoin="round"/>
<path d="M356.48 312.13C356.48 312.13 343.48 307.34 340.94 316.92C340.94 316.92 343.26 327.47 341.87 333.24C340.48 339.01 333.48 350.03 333.05 352.12C332.2 356.22 332.84 356.5 332.84 356.5C332.84 356.5 337.93 359.44 344.77 356.29C351.61 353.14 363.45 339.58 365.3 336.79C367.15 334 359.5 323 359.5 323L356.48 312.13Z" fill="white"/>
<path opacity="0.4" d="M356.48 312.13C356.48 312.13 343.48 307.34 340.94 316.92C340.94 316.92 343.26 327.47 341.87 333.24C340.48 339.01 333.48 350.03 333.05 352.12C332.2 356.22 332.84 356.5 332.84 356.5C332.84 356.5 337.93 359.44 344.77 356.29C351.61 353.14 363.45 339.58 365.3 336.79C367.15 334 359.5 323 359.5 323L356.48 312.13Z" fill="#4941C0"/>
<path d="M356.48 312.13C356.48 312.13 343.48 307.34 340.94 316.92C340.94 316.92 343.26 327.47 341.87 333.24C340.48 339.01 333.48 350.03 333.05 352.12C332.2 356.22 332.84 356.5 332.84 356.5C332.84 356.5 337.93 359.44 344.77 356.29C351.61 353.14 363.45 339.58 365.3 336.79C367.15 334 359.5 323 359.5 323L356.48 312.13Z" stroke="#263238" stroke-linecap="round" stroke-linejoin="round"/>
<path d="M349.83 325.68C350.961 332.134 349.812 338.78 346.58 344.48" stroke="#263238" stroke-linecap="round" stroke-linejoin="round"/>
<path d="M346.58 347C346.096 348.218 345.345 349.311 344.383 350.201C343.421 351.09 342.272 351.753 341.02 352.14C338.399 352.841 335.641 352.841 333.02 352.14L336.14 345.82C339.452 347.139 343.057 347.547 346.58 347V347Z" fill="#4941C0" stroke="#263238" stroke-linecap="round" stroke-linejoin="round"/>
<path d="M348.42 343.17C348.42 343.17 341.62 343.58 338.07 342.17" stroke="#263238" stroke-linecap="round" stroke-linejoin="round"/>
<path d="M349.68 339.42C349.68 339.42 343.32 340.42 339.77 338.42" stroke="#263238" stroke-linecap="round" stroke-linejoin="round"/>
<path d="M350.76 335.25C350.76 335.25 345.19 336.06 341.55 334.34" stroke="#263238" stroke-linecap="round" stroke-linejoin="round"/>
<path d="M351.38 330.53C351.38 330.53 345.18 332.47 342.25 330.53" stroke="#263238" stroke-linecap="round" stroke-linejoin="round"/>
<path d="M352.31 318.87L353.39 325.68C353.39 325.68 345.19 331.08 339.77 324.33V317.22C339.77 317.22 341.81 322 352.31 318.87Z" fill="#4941C0" stroke="#263238" stroke-linecap="round" stroke-linejoin="round"/>
<path d="M345.19 166C336.88 192.33 311.09 234.56 313.7 245.37C315.13 251.27 323.64 284.7 330.3 299.37C332.83 304.98 338.3 308.73 338.3 308.73L342.25 317.2C351.88 321.39 355.33 312.87 355.33 312.87L353.39 303.27C358.55 293.89 356.39 293.89 349.68 245.27C348.89 239.54 362.18 221.83 362.18 221.83L369 266.39L370.11 302.89L373.65 314.17C373.65 314.17 374.53 324.76 374.45 325.4H390.28L392 313.76C392 313.76 399.35 306.83 399.35 298.83C399.35 290.83 397.77 250.08 399.35 238.21C400.93 226.34 395.65 171 395.65 171L345.19 166Z" fill="#263238"/>
<path d="M237.576 142.539L259.576 144.519C260.075 144.564 260.535 144.805 260.856 145.189C261.177 145.574 261.332 146.07 261.287 146.568L259.874 162.268L234.114 159.95L235.527 144.25C235.572 143.751 235.813 143.291 236.197 142.97C236.581 142.649 237.077 142.494 237.576 142.539V142.539Z" fill="#4941C0"/>
<path opacity="0.3" d="M237.576 142.539L259.576 144.519C260.075 144.564 260.535 144.805 260.856 145.189C261.177 145.574 261.332 146.07 261.287 146.568L259.874 162.268L234.114 159.95L235.527 144.25C235.572 143.751 235.813 143.291 236.197 142.97C236.582 142.649 237.078 142.494 237.576 142.539V142.539Z" fill="black" fill-opacity="0.7"/>
<path d="M237.576 142.539L259.576 144.519C260.075 144.564 260.535 144.805 260.856 145.189C261.177 145.574 261.332 146.07 261.287 146.568L259.874 162.268L234.114 159.95L235.527 144.25C235.572 143.751 235.813 143.291 236.197 142.97C236.581 142.649 237.077 142.494 237.576 142.539V142.539Z" stroke="#263238" stroke-width="1.00404" stroke-linecap="round" stroke-linejoin="round"/>
<path d="M275.549 143.929L297.468 145.812C297.965 145.855 298.425 146.093 298.746 146.474C299.067 146.856 299.223 147.349 299.181 147.846L297.837 163.488L272.171 161.284L273.515 145.641C273.558 145.144 273.796 144.685 274.178 144.364C274.559 144.043 275.052 143.886 275.549 143.929Z" fill="#4941C0"/>
<path opacity="0.3" d="M275.549 143.929L297.468 145.812C297.965 145.855 298.425 146.093 298.746 146.474C299.067 146.856 299.223 147.349 299.181 147.846L297.837 163.488L272.171 161.284L273.515 145.641C273.558 145.144 273.796 144.685 274.178 144.364C274.559 144.043 275.052 143.886 275.549 143.929Z" fill="black" fill-opacity="0.7"/>
<path d="M275.549 143.929L297.468 145.812C297.965 145.855 298.425 146.093 298.746 146.474C299.067 146.856 299.223 147.349 299.181 147.846L297.837 163.488L272.171 161.284L273.515 145.641C273.558 145.144 273.796 144.685 274.178 144.364C274.559 144.043 275.052 143.886 275.549 143.929Z" stroke="#263238" stroke-linecap="round" stroke-linejoin="round"/>
<path d="M267.587 143.239L289.507 145.122C290.003 145.165 290.463 145.403 290.784 145.785C291.105 146.166 291.262 146.66 291.219 147.156L289.875 162.799L264.21 160.594L265.553 144.951C265.596 144.455 265.834 143.995 266.216 143.674C266.597 143.353 267.091 143.197 267.587 143.239V143.239Z" fill="#4941C0" stroke="#263238" stroke-linecap="round" stroke-linejoin="round"/>
<path d="M305.44 146.498L327.359 148.381C327.856 148.423 328.315 148.662 328.636 149.043C328.957 149.425 329.114 149.918 329.071 150.415L327.728 166.047L302.063 163.842L303.406 148.2C303.452 147.705 303.691 147.248 304.072 146.929C304.453 146.61 304.944 146.455 305.44 146.498V146.498Z" fill="#4941C0" stroke="#263238" stroke-linecap="round" stroke-linejoin="round"/>
<path d="M339.19 163.39L333 235.32L217.11 225.32L223.3 153.4C223.35 152.805 223.518 152.225 223.792 151.695C224.067 151.164 224.444 150.693 224.901 150.309C225.358 149.924 225.886 149.634 226.456 149.454C227.026 149.274 227.625 149.208 228.22 149.26L335.04 158.44C335.639 158.489 336.222 158.656 336.756 158.932C337.29 159.208 337.763 159.588 338.149 160.048C338.535 160.509 338.826 161.041 339.005 161.615C339.183 162.188 339.246 162.792 339.19 163.39V163.39Z" fill="#4941C0"/>
<path opacity="0.3" d="M339.19 163.39L333 235.32L217.11 225.32L223.3 153.4C223.35 152.805 223.518 152.225 223.792 151.695C224.067 151.164 224.444 150.693 224.901 150.309C225.358 149.924 225.886 149.634 226.456 149.454C227.026 149.274 227.625 149.208 228.22 149.26L335.04 158.44C335.639 158.489 336.222 158.656 336.756 158.932C337.29 159.208 337.763 159.588 338.149 160.048C338.535 160.509 338.826 161.041 339.005 161.615C339.183 162.188 339.246 162.792 339.19 163.39V163.39Z" fill="black" fill-opacity="0.7"/>
<path d="M339.19 163.39L333 235.32L217.11 225.32L223.3 153.4C223.35 152.805 223.518 152.225 223.792 151.695C224.067 151.164 224.444 150.693 224.901 150.309C225.358 149.924 225.886 149.634 226.456 149.454C227.026 149.274 227.625 149.208 228.22 149.26L335.04 158.44C335.639 158.489 336.222 158.656 336.756 158.932C337.29 159.208 337.763 159.588 338.149 160.048C338.535 160.509 338.826 161.041 339.005 161.615C339.183 162.188 339.246 162.792 339.19 163.39V163.39Z" stroke="#263238" stroke-linecap="round" stroke-linejoin="round"/>
<path d="M339.19 163.39L333 235.32L247 227.92L253.2 156C253.25 155.405 253.418 154.825 253.692 154.295C253.967 153.764 254.344 153.293 254.801 152.909C255.258 152.524 255.786 152.234 256.356 152.054C256.925 151.874 257.525 151.808 258.12 151.86L335.05 158.47C335.645 158.52 336.225 158.688 336.755 158.962C337.285 159.237 337.757 159.614 338.141 160.071C338.526 160.528 338.816 161.056 338.996 161.626C339.176 162.195 339.242 162.795 339.19 163.39V163.39Z" fill="#4941C0" stroke="#263238" stroke-linecap="round" stroke-linejoin="round"/>
<path d="M390.8 325.81C390.8 325.81 385.26 321.86 373.8 322.65C373.8 322.65 372.96 336.4 371.4 340.4C369.84 344.4 361.62 351.33 360.09 352.52C358.56 353.71 358.56 357.86 358.56 357.86H393.38C392.933 351.908 392.007 346.002 390.61 340.2L390.8 325.81Z" fill="white"/>
<path opacity="0.4" d="M390.8 325.81C390.8 325.81 385.26 321.86 373.8 322.65C373.8 322.65 372.96 336.4 371.4 340.4C369.84 344.4 361.62 351.33 360.09 352.52C358.56 353.71 358.56 357.86 358.56 357.86H393.38C392.933 351.908 392.007 346.002 390.61 340.2L390.8 325.81Z" fill="#4941C0"/>
<path d="M390.8 325.81C390.8 325.81 385.26 321.86 373.8 322.65C373.8 322.65 372.96 336.4 371.4 340.4C369.84 344.4 361.62 351.33 360.09 352.52C358.56 353.71 358.56 357.86 358.56 357.86H393.38C392.933 351.908 392.007 346.002 390.61 340.2L390.8 325.81Z" stroke="#263238" stroke-linecap="round" stroke-linejoin="round"/>
<path d="M383.61 327.59C383.61 327.59 382.79 340.25 380.82 343.59C379.768 345.425 378.469 347.108 376.96 348.59" stroke="#263238" stroke-linecap="round" stroke-linejoin="round"/>
<path d="M376 350.34C376 350.34 374.25 352.52 372.31 352.81C370.37 353.1 360.12 352.52 360.12 352.52L364.3 348.9C364.3 348.9 372.8 347.47 376 350.34Z" fill="#4941C0" stroke="#263238" stroke-linecap="round" stroke-linejoin="round"/>
<path d="M379.62 347.37C379.62 347.37 372.2 343.11 366.91 346.37" stroke="#263238" stroke-linecap="round" stroke-linejoin="round"/>
<path d="M381.41 344.48C381.41 344.48 376.23 340.43 370.12 342.65" stroke="#263238" stroke-linecap="round" stroke-linejoin="round"/>
<path d="M383.61 340.07C383.61 340.07 378.03 335.73 372.15 338.49" stroke="#263238" stroke-linecap="round" stroke-linejoin="round"/>
<path d="M384.37 334.56C384.37 334.56 377.6 330.92 372.68 333.68" stroke="#263238" stroke-linecap="round" stroke-linejoin="round"/>
<path d="M393.37 357.86V360.43H389.37C389.37 360.43 385.94 358.43 382.68 360.43H363.9C361.916 360.423 359.957 359.983 358.16 359.14L358.55 357.86H393.37Z" fill="#4941C0" stroke="#263238" stroke-linecap="round" stroke-linejoin="round"/>
<path d="M388.38 325L387.49 330.61C387.49 330.61 377.04 327.22 371.27 329.42V322.52C371.27 322.52 382 318.76 388.38 325Z" fill="#4941C0" stroke="#263238" stroke-linecap="round" stroke-linejoin="round"/>
<path d="M399.68 185.23C399.68 185.23 377.47 189.58 355.68 182.52C350.719 180.939 345.973 178.749 341.55 176C341.55 176 341.61 174.6 341.65 172.31C341.83 163.37 341.78 140.88 337.07 135.31C334.07 131.8 331.72 110.1 337.51 99.1299L355.22 84.8899C379.74 89.6799 384.92 96.1699 388.97 110.17C389.72 112.73 390.42 115.54 391.2 118.64C392.05 122.02 392.85 126.15 393.61 130.64C397.29 153 399.68 185.23 399.68 185.23Z" fill="#F5E461"/>
<path d="M399.68 185.23C399.68 185.23 377.47 189.58 355.68 182.52C350.719 180.939 345.973 178.749 341.55 176C341.55 176 341.61 174.6 341.65 172.31C341.83 163.37 341.78 140.88 337.07 135.31C334.07 131.8 331.72 110.1 337.51 99.1299L355.22 84.8899C379.74 89.6799 384.92 96.1699 388.97 110.17C389.72 112.73 390.42 115.54 391.2 118.64C392.05 122.02 392.85 126.15 393.61 130.64C397.29 153 399.68 185.23 399.68 185.23Z" stroke="#263238" stroke-linecap="round" stroke-linejoin="round"/>
<path d="M356 66.2C356 66.2 348.18 77.4 358.58 86.14C358.58 86.14 345.96 100.3 341.81 98.35C340.06 97.53 341.81 92.42 341.81 92.42L334.49 78.88L356 66.2Z" fill="white" stroke="#263238" stroke-linecap="round" stroke-linejoin="round"/>
<path d="M353.45 72C355.89 61.33 354.72 45.44 339.77 46.85C329.29 47.85 321.82 53.65 324.77 67.71C326 73.64 327.01 82.04 332.45 89.62C333.96 91.72 349.76 84.29 348.8 78.28" fill="white"/>
<path d="M353.45 72C355.89 61.33 354.72 45.44 339.77 46.85C329.29 47.85 321.82 53.65 324.77 67.71C326 73.64 327.01 82.04 332.45 89.62C333.96 91.72 349.76 84.29 348.8 78.28" stroke="#263238" stroke-linecap="round" stroke-linejoin="round"/>
<path d="M332.06 65.33C333.114 64.9218 334.25 64.7661 335.375 64.8755C336.5 64.9849 337.584 65.3563 338.54 65.96" stroke="#263238" stroke-linecap="round" stroke-linejoin="round"/>
<path d="M324.54 66.64C324.732 66.2305 325.065 65.9041 325.479 65.7204C325.892 65.5367 326.357 65.5082 326.79 65.64" stroke="#263238" stroke-linecap="round" stroke-linejoin="round"/>
<path d="M328.28 68.8599C328.28 68.8599 325.2 74.4699 325.19 75.2699C325.18 76.0699 328.98 76.3399 328.98 76.3399" fill="white"/>
<path d="M328.28 68.8599C328.28 68.8599 325.2 74.4699 325.19 75.2699C325.18 76.0699 328.98 76.3399 328.98 76.3399" stroke="#263238" stroke-linecap="round" stroke-linejoin="round"/>
<path d="M334.9 69.9998C334.9 70.6098 334.63 71.1098 334.25 71.1298C333.87 71.1498 333.55 70.6498 333.53 70.0398C333.51 69.4298 333.8 68.9298 334.18 68.9198C334.56 68.9098 334.88 69.4098 334.9 69.9998Z" fill="#263238"/>
<path d="M330.55 80.42C330.55 80.42 336.46 79.31 337.55 77.23" stroke="#263238" stroke-linecap="round" stroke-linejoin="round"/>
<path d="M324.5 57.9999L329.1 56.6599C329.1 56.6599 335.55 53.6599 336.92 54.0799C338.29 54.4999 341.07 58.7699 340.98 61.2099C340.98 61.2099 345.32 65.0299 345.87 70.5699L347.19 69.9699C347.19 69.9699 347.12 64.9699 349.96 65.0999C352.8 65.2299 354.08 68.6299 353.89 69.6999C353.7 70.7699 350.59 75.2099 350.59 75.2099C350.59 75.2099 357.71 74.1499 357.94 60.2099C358.17 46.2699 342.89 43.9999 335.46 44.5699C331.698 44.9303 327.918 45.0706 324.14 44.9899L324.56 48.9899L321.56 49.7799L323.82 52.5499L321.34 53.6799L324.5 57.9999Z" fill="#263238"/>
<path d="M360.42 103.61C360.42 103.61 360.36 118.42 371.04 125.1" stroke="#263238" stroke-linecap="round" stroke-linejoin="round"/>
<path d="M366.43 125.22C364.17 127.44 366.63 155.3 366.63 155.3C366.63 155.3 353.5 160.44 349.39 163.75C345.28 167.06 325.81 174.66 325.81 174.66C325.81 174.66 322.81 184.88 326.55 185.23C330.29 185.58 369.02 172.38 377.88 167.75C377.88 167.75 383.65 133.75 383.61 125.1" fill="white"/>
<path d="M366.43 125.22C364.17 127.44 366.63 155.3 366.63 155.3C366.63 155.3 353.5 160.44 349.39 163.75C345.28 167.06 325.81 174.66 325.81 174.66C325.81 174.66 322.81 184.88 326.55 185.23C330.29 185.58 369.02 172.38 377.88 167.75C377.88 167.75 383.65 133.75 383.61 125.1" stroke="#263238" stroke-linecap="round" stroke-linejoin="round"/>
<path d="M327.35 174.05C325.55 173.71 322.35 172.53 320.67 172.92C318.99 173.31 315.92 175.16 312.76 175.92C309.6 176.68 310.91 177.92 312.76 178.29C314.114 178.515 315.496 178.515 316.85 178.29L314.28 180.8C312.808 181.596 311.289 182.301 309.73 182.91C308.8 182.91 305.51 183.8 305.73 185.2C305.95 186.6 307.84 186.44 309.95 186.52C309.95 186.52 306.59 187.19 306.95 189.1C307.17 190.41 310.95 189.23 312.88 189.23C312.88 189.23 311.3 190.95 312.48 191.48C313.66 192.01 316.28 190.69 316.28 190.69C316.28 190.69 316.18 192.11 317.36 192.25C318.54 192.39 321.51 191.25 323.53 190.03C325.519 188.748 327.423 187.338 329.23 185.81C329.995 185.111 330.87 184.543 331.82 184.13" fill="white"/>
<path d="M327.35 174.05C325.55 173.71 322.35 172.53 320.67 172.92C318.99 173.31 315.92 175.16 312.76 175.92C309.6 176.68 310.91 177.92 312.76 178.29C314.114 178.515 315.496 178.515 316.85 178.29L314.28 180.8C312.808 181.596 311.289 182.301 309.73 182.91C308.8 182.91 305.51 183.8 305.73 185.2C305.95 186.6 307.84 186.44 309.95 186.52C309.95 186.52 306.59 187.19 306.95 189.1C307.17 190.41 310.95 189.23 312.88 189.23C312.88 189.23 311.3 190.95 312.48 191.48C313.66 192.01 316.28 190.69 316.28 190.69C316.28 190.69 316.18 192.11 317.36 192.25C318.54 192.39 321.51 191.25 323.53 190.03C325.519 188.748 327.423 187.338 329.23 185.81C329.995 185.111 330.87 184.543 331.82 184.13" stroke="#263238" stroke-linecap="round" stroke-linejoin="round"/>
<path d="M310 186.56C310.929 186.51 311.854 186.403 312.77 186.24C313.56 186.04 314.35 185.78 314.35 185.78" stroke="#263238" stroke-linecap="round" stroke-linejoin="round"/>
<path d="M312.89 189.27C314.099 189.1 315.263 188.699 316.32 188.09" stroke="#263238" stroke-linecap="round" stroke-linejoin="round"/>
<path d="M316.29 190.73C317.184 190.617 318.04 190.299 318.79 189.8" stroke="#263238" stroke-linecap="round" stroke-linejoin="round"/>
<path d="M314.6 181.56C314.6 181.56 313.88 183.21 314.6 184.13C315.32 185.05 316.19 185.13 316.32 186.13C316.45 187.13 318.17 187.13 318.79 187.78C319.41 188.43 319.88 189.68 321.86 189.78" stroke="#263238" stroke-linecap="round" stroke-linejoin="round"/>
<path d="M365.59 96.3298C358.78 111.74 365.59 133.12 365.59 133.12C365.59 133.12 382.07 138.72 383.59 136.31C385.11 133.9 387.89 122.08 388.36 116.62" fill="#F5E461"/>
<path d="M365.59 96.3298C358.78 111.74 365.59 133.12 365.59 133.12C365.59 133.12 382.07 138.72 383.59 136.31C385.11 133.9 387.89 122.08 388.36 116.62" stroke="#263238" stroke-linecap="round" stroke-linejoin="round"/>
<mask id="path-65-inside-1_15_2811" fill="white">
<path d="M138 247.51C141.855 245.371 146.387 244.805 150.65 245.93C157.96 247.77 176.95 274.93 179.59 277.58C182.23 280.23 187.17 281.58 191.72 286.37C198.92 293.88 209.39 300.52 210.45 300.52C211.51 300.52 212.36 299.86 213.68 299.6C215 299.34 225.22 298.41 225.22 298.41C225.22 298.41 228.65 299.17 225.22 300.64C221.79 302.11 222.05 303.42 222.05 303.42C222.05 303.42 221.36 304.53 222.74 305.59C224.12 306.65 224.93 306.07 226.9 308.86C228.87 311.65 224.12 310.07 224.12 310.07C224.12 310.07 225.17 313.07 223.06 312.77C220.95 312.47 222.8 315.7 219.37 315.26C215.94 314.82 208.6 310.19 206.76 305.34C206.76 305.34 176.82 291.03 172.34 287.34C167.86 283.65 149 263.86 147.71 263.6"/>
</mask>
<path d="M138 247.51C141.855 245.371 146.387 244.805 150.65 245.93C157.96 247.77 176.95 274.93 179.59 277.58C182.23 280.23 187.17 281.58 191.72 286.37C198.92 293.88 209.39 300.52 210.45 300.52C211.51 300.52 212.36 299.86 213.68 299.6C215 299.34 225.22 298.41 225.22 298.41C225.22 298.41 228.65 299.17 225.22 300.64C221.79 302.11 222.05 303.42 222.05 303.42C222.05 303.42 221.36 304.53 222.74 305.59C224.12 306.65 224.93 306.07 226.9 308.86C228.87 311.65 224.12 310.07 224.12 310.07C224.12 310.07 225.17 313.07 223.06 312.77C220.95 312.47 222.8 315.7 219.37 315.26C215.94 314.82 208.6 310.19 206.76 305.34C206.76 305.34 176.82 291.03 172.34 287.34C167.86 283.65 149 263.86 147.71 263.6" fill="white"/>
<path d="M150.65 245.93L150.395 246.897L150.406 246.9L150.65 245.93ZM191.72 286.37L190.995 287.059L190.998 287.062L191.72 286.37ZM225.22 298.41L225.436 297.434L225.284 297.4L225.129 297.414L225.22 298.41ZM222.05 303.42L222.899 303.948L223.108 303.613L223.031 303.225L222.05 303.42ZM224.12 310.07L224.436 309.121L222.503 308.478L223.176 310.4L224.12 310.07ZM206.76 305.34L207.695 304.985L207.553 304.611L207.191 304.438L206.76 305.34ZM138.485 248.384C142.115 246.371 146.382 245.838 150.395 246.897L150.905 244.963C146.393 243.773 141.596 244.372 137.515 246.636L138.485 248.384ZM150.406 246.9C151.122 247.08 152.089 247.607 153.282 248.508C154.455 249.393 155.771 250.581 157.178 251.986C159.991 254.797 163.108 258.416 166.096 262.083C169.082 265.746 171.923 269.437 174.19 272.385C175.321 273.857 176.312 275.147 177.102 276.153C177.878 277.139 178.502 277.904 178.882 278.286L180.298 276.874C180.018 276.593 179.471 275.93 178.674 274.917C177.892 273.922 176.91 272.642 175.775 271.166C173.51 268.219 170.652 264.507 167.646 260.819C164.643 257.135 161.477 253.454 158.591 250.571C157.149 249.131 155.761 247.874 154.486 246.911C153.231 245.964 152.005 245.24 150.894 244.96L150.406 246.9ZM178.882 278.286C180.317 279.727 182.376 280.813 184.428 282.032C186.535 283.284 188.815 284.763 190.995 287.059L192.445 285.681C190.075 283.187 187.61 281.596 185.449 280.313C183.234 278.997 181.503 278.083 180.298 276.874L178.882 278.286ZM190.998 287.062C194.656 290.877 199.127 294.455 202.808 297.076C204.65 298.388 206.306 299.468 207.577 300.224C208.211 300.602 208.761 300.906 209.197 301.119C209.414 301.224 209.618 301.315 209.798 301.382C209.942 301.435 210.191 301.52 210.45 301.52V299.52C210.577 299.52 210.62 299.553 210.49 299.505C210.397 299.471 210.26 299.412 210.075 299.321C209.707 299.142 209.209 298.868 208.6 298.506C207.385 297.783 205.775 296.734 203.967 295.447C200.348 292.87 195.984 289.373 192.442 285.678L190.998 287.062ZM210.45 301.52C211.184 301.52 211.815 301.289 212.329 301.09C212.872 300.879 213.32 300.69 213.873 300.581L213.487 298.619C212.72 298.77 212.083 299.041 211.606 299.225C211.1 299.421 210.776 299.52 210.45 299.52V301.52ZM213.873 300.581C214.471 300.463 217.284 300.171 220.042 299.903C221.4 299.77 222.717 299.646 223.695 299.555C224.184 299.509 224.588 299.472 224.87 299.446C225.011 299.433 225.121 299.423 225.196 299.416C225.233 299.413 225.262 299.41 225.281 299.409C225.291 299.408 225.298 299.407 225.303 299.407C225.306 299.406 225.308 299.406 225.309 299.406C225.309 299.406 225.31 299.406 225.31 299.406C225.31 299.406 225.31 299.406 225.311 299.406C225.311 299.406 225.311 299.406 225.22 298.41C225.129 297.414 225.129 297.414 225.129 297.414C225.129 297.414 225.129 297.414 225.129 297.414C225.129 297.414 225.128 297.414 225.127 297.414C225.126 297.414 225.124 297.415 225.122 297.415C225.117 297.415 225.11 297.416 225.1 297.417C225.08 297.419 225.051 297.421 225.014 297.425C224.938 297.432 224.828 297.442 224.687 297.455C224.404 297.481 224 297.518 223.51 297.564C222.53 297.655 221.21 297.78 219.848 297.912C217.166 298.174 214.209 298.477 213.487 298.619L213.873 300.581ZM225.22 298.41C225.004 299.386 225.003 299.386 225.003 299.386C225.003 299.386 225.003 299.386 225.003 299.386C225.002 299.386 225.002 299.386 225.002 299.386C225.002 299.386 225.001 299.386 225.001 299.386C225.001 299.386 225.002 299.386 225.004 299.386C225.006 299.387 225.012 299.388 225.021 299.39C225.037 299.394 225.064 299.401 225.099 299.411C225.168 299.429 225.265 299.458 225.371 299.495C225.614 299.581 225.785 299.671 225.849 299.728C225.875 299.75 225.806 299.701 225.766 299.565C225.716 299.391 225.761 299.24 225.801 299.171C225.824 299.132 225.808 299.182 225.638 299.299C225.475 299.41 225.218 299.553 224.826 299.721L225.614 301.559C226.08 301.36 226.465 301.157 226.772 300.946C227.071 300.74 227.349 300.489 227.533 300.172C227.733 299.825 227.805 299.418 227.688 299.012C227.582 298.643 227.352 298.384 227.163 298.22C226.799 297.902 226.326 297.711 226.034 297.608C225.872 297.551 225.727 297.509 225.623 297.48C225.57 297.466 225.527 297.455 225.495 297.447C225.479 297.444 225.466 297.44 225.456 297.438C225.451 297.437 225.447 297.436 225.444 297.435C225.442 297.435 225.441 297.435 225.439 297.434C225.439 297.434 225.438 297.434 225.438 297.434C225.437 297.434 225.437 297.434 225.437 297.434C225.437 297.434 225.436 297.434 225.22 298.41ZM224.826 299.721C223.019 300.495 222.044 301.285 221.534 302.002C221.275 302.365 221.141 302.705 221.082 302.996C221.054 303.14 221.044 303.266 221.046 303.371C221.046 303.424 221.049 303.471 221.054 303.512C221.056 303.532 221.058 303.551 221.061 303.568C221.062 303.576 221.064 303.585 221.065 303.593C221.066 303.596 221.066 303.6 221.067 303.604C221.067 303.606 221.068 303.608 221.068 303.609C221.068 303.61 221.069 303.612 221.069 303.612C221.069 303.613 221.069 303.615 222.05 303.42C223.031 303.225 223.031 303.227 223.031 303.228C223.031 303.228 223.032 303.23 223.032 303.231C223.032 303.232 223.033 303.234 223.033 303.236C223.033 303.239 223.034 303.242 223.035 303.246C223.036 303.252 223.037 303.258 223.038 303.265C223.04 303.277 223.041 303.288 223.042 303.298C223.044 303.319 223.045 303.336 223.045 303.35C223.046 303.378 223.043 303.391 223.043 303.389C223.044 303.389 223.059 303.308 223.164 303.161C223.381 302.855 223.991 302.255 225.614 301.559L224.826 299.721ZM222.05 303.42C221.201 302.892 221.2 302.893 221.2 302.893C221.2 302.893 221.2 302.894 221.199 302.894C221.199 302.895 221.198 302.896 221.198 302.897C221.197 302.898 221.196 302.9 221.195 302.902C221.193 302.905 221.19 302.909 221.188 302.914C221.183 302.922 221.177 302.932 221.171 302.943C221.159 302.965 221.144 302.992 221.128 303.023C221.097 303.087 221.059 303.171 221.022 303.273C220.95 303.476 220.878 303.763 220.878 304.107C220.878 304.85 221.212 305.677 222.131 306.383L223.349 304.797C222.888 304.443 222.878 304.185 222.878 304.107C222.878 304.042 222.892 303.985 222.905 303.947C222.912 303.928 222.917 303.917 222.918 303.916C222.918 303.916 222.917 303.918 222.914 303.923C222.913 303.925 222.911 303.929 222.908 303.933C222.907 303.935 222.906 303.937 222.904 303.94C222.904 303.941 222.903 303.942 222.902 303.944C222.901 303.944 222.901 303.945 222.901 303.946C222.9 303.946 222.9 303.947 222.9 303.947C222.9 303.947 222.899 303.948 222.05 303.42ZM222.131 306.383C222.555 306.709 222.936 306.907 223.277 307.064C223.645 307.233 223.848 307.307 224.123 307.456C224.573 307.699 225.16 308.129 226.083 309.437L227.717 308.283C226.67 306.801 225.867 306.126 225.075 305.697C224.728 305.509 224.347 305.355 224.113 305.247C223.853 305.128 223.615 305.001 223.349 304.797L222.131 306.383ZM226.083 309.437C226.297 309.74 226.363 309.908 226.379 309.967C226.39 310.009 226.341 309.85 226.473 309.659C226.586 309.495 226.715 309.482 226.653 309.496C226.6 309.509 226.486 309.522 226.298 309.512C225.926 309.494 225.469 309.403 225.076 309.304C224.886 309.256 224.722 309.209 224.607 309.174C224.55 309.157 224.505 309.143 224.475 309.134C224.461 309.129 224.45 309.126 224.443 309.124C224.44 309.122 224.437 309.122 224.436 309.121C224.435 309.121 224.435 309.121 224.435 309.121C224.435 309.121 224.435 309.121 224.435 309.121C224.435 309.121 224.435 309.121 224.435 309.121C224.435 309.121 224.436 309.121 224.12 310.07C223.804 311.019 223.805 311.019 223.805 311.019C223.805 311.019 223.805 311.019 223.805 311.019C223.806 311.019 223.806 311.019 223.807 311.02C223.808 311.02 223.809 311.02 223.811 311.021C223.814 311.022 223.819 311.024 223.824 311.025C223.835 311.029 223.851 311.034 223.87 311.04C223.909 311.053 223.965 311.07 224.033 311.09C224.17 311.131 224.363 311.186 224.587 311.243C225.023 311.353 225.63 311.482 226.2 311.51C226.482 311.524 226.808 311.516 227.119 311.441C227.421 311.369 227.839 311.202 228.12 310.793C228.42 310.358 228.42 309.864 228.313 309.459C228.212 309.071 227.995 308.677 227.717 308.283L226.083 309.437ZM224.12 310.07C223.176 310.4 223.176 310.4 223.176 310.4C223.176 310.4 223.176 310.4 223.176 310.399C223.176 310.399 223.176 310.399 223.176 310.399C223.175 310.398 223.175 310.398 223.175 310.398C223.175 310.398 223.176 310.399 223.176 310.4C223.177 310.402 223.179 310.407 223.181 310.415C223.186 310.43 223.194 310.455 223.204 310.487C223.224 310.553 223.251 310.649 223.278 310.764C223.335 311.004 223.382 311.285 223.381 311.531C223.381 311.807 223.321 311.866 223.346 311.836C223.433 311.731 223.497 311.822 223.201 311.78L222.919 313.76C223.678 313.868 224.401 313.697 224.885 313.113C225.307 312.605 225.38 311.971 225.381 311.534C225.382 311.068 225.298 310.617 225.224 310.304C225.186 310.142 225.148 310.006 225.118 309.909C225.104 309.861 225.091 309.821 225.082 309.792C225.077 309.778 225.073 309.766 225.07 309.757C225.068 309.753 225.067 309.749 225.066 309.746C225.066 309.745 225.065 309.744 225.065 309.742C225.065 309.742 225.064 309.741 225.064 309.741C225.064 309.741 225.064 309.74 225.064 309.74C225.064 309.74 225.064 309.74 224.12 310.07ZM223.201 311.78C222.829 311.727 222.448 311.738 222.088 311.872C221.71 312.012 221.441 312.255 221.255 312.523C221.083 312.77 220.984 313.034 220.92 313.229C220.886 313.331 220.856 313.433 220.831 313.519C220.804 313.61 220.782 313.687 220.758 313.761C220.659 314.07 220.587 314.151 220.528 314.192C220.472 314.231 220.232 314.362 219.497 314.268L219.243 316.252C220.223 316.378 221.038 316.27 221.665 315.837C222.291 315.405 222.531 314.78 222.662 314.374C222.695 314.27 222.725 314.167 222.75 314.082C222.777 313.992 222.798 313.92 222.819 313.855C222.841 313.79 222.858 313.744 222.873 313.711C222.888 313.678 222.896 313.666 222.896 313.666C222.887 313.679 222.846 313.723 222.785 313.746C222.74 313.763 222.763 313.738 222.919 313.76L223.201 311.78ZM219.497 314.268C218.028 314.08 215.498 312.926 213.058 311.146C210.625 309.371 208.513 307.143 207.695 304.985L205.825 305.695C206.847 308.387 209.325 310.899 211.879 312.762C214.427 314.619 217.282 316 219.243 316.252L219.497 314.268ZM206.76 305.34C207.191 304.438 207.191 304.438 207.191 304.438C207.191 304.437 207.19 304.437 207.19 304.437C207.189 304.437 207.188 304.436 207.186 304.435C207.182 304.433 207.177 304.431 207.17 304.428C207.156 304.421 207.134 304.41 207.106 304.397C207.049 304.37 206.965 304.329 206.855 304.277C206.635 304.171 206.312 304.016 205.899 303.817C205.072 303.419 203.886 302.846 202.449 302.147C199.575 300.749 195.696 298.847 191.679 296.83C187.66 294.812 183.508 292.683 180.084 290.83C176.622 288.955 174.006 287.416 172.976 286.568L171.704 288.112C172.914 289.109 175.721 290.742 179.132 292.589C182.582 294.456 186.755 296.596 190.781 298.617C194.809 300.639 198.695 302.545 201.574 303.946C203.014 304.646 204.202 305.22 205.031 305.619C205.445 305.818 205.769 305.974 205.99 306.08C206.101 306.133 206.185 306.173 206.242 306.201C206.271 306.214 206.292 306.225 206.307 306.232C206.314 306.235 206.319 306.238 206.323 306.24C206.325 306.24 206.326 306.241 206.327 306.242C206.328 306.242 206.328 306.242 206.328 306.242C206.329 306.242 206.329 306.242 206.76 305.34ZM172.976 286.568C170.785 284.764 165.002 278.948 159.536 273.477C156.819 270.758 154.194 268.138 152.167 266.181C151.155 265.203 150.282 264.382 149.618 263.794C149.287 263.502 148.995 263.255 148.756 263.074C148.638 262.983 148.518 262.898 148.404 262.828C148.32 262.776 148.134 262.665 147.908 262.62L147.512 264.58C147.367 264.551 147.296 264.494 147.359 264.533C147.392 264.553 147.452 264.594 147.544 264.664C147.725 264.803 147.975 265.012 148.292 265.292C148.924 265.851 149.771 266.647 150.778 267.62C152.79 269.562 155.402 272.169 158.121 274.891C163.528 280.302 169.415 286.226 171.704 288.112L172.976 286.568Z" fill="black" mask="url(#path-65-inside-1_15_2811)"/>
<path d="M216.33 274.31H238.33C238.829 274.31 239.307 274.508 239.659 274.861C240.012 275.213 240.21 275.691 240.21 276.19V291.89H214.45V276.19C214.45 275.691 214.648 275.213 215.001 274.861C215.353 274.508 215.831 274.31 216.33 274.31V274.31Z" fill="#F5E461"/>
<path opacity="0.3" d="M216.33 274.31H238.33C238.829 274.31 239.307 274.508 239.659 274.861C240.012 275.213 240.21 275.691 240.21 276.19V291.89H214.45V276.19C214.45 275.691 214.648 275.213 215.001 274.861C215.353 274.508 215.831 274.31 216.33 274.31V274.31Z" fill="black" fill-opacity="0.7"/>
<path d="M216.33 274.31H238.33C238.829 274.31 239.307 274.508 239.659 274.861C240.012 275.213 240.21 275.691 240.21 276.19V291.89H214.45V276.19C214.45 275.691 214.648 275.213 215.001 274.861C215.353 274.508 215.831 274.31 216.33 274.31V274.31Z" stroke="#263238" stroke-linecap="round" stroke-linejoin="round"/>
<path d="M254.33 274.31H276.33C276.829 274.31 277.307 274.508 277.659 274.861C278.012 275.213 278.21 275.691 278.21 276.19V291.89H252.45V276.19C252.45 275.943 252.499 275.699 252.593 275.471C252.688 275.243 252.826 275.035 253.001 274.861C253.175 274.686 253.382 274.548 253.611 274.453C253.839 274.359 254.083 274.31 254.33 274.31V274.31Z" fill="#F5E461"/>
<path opacity="0.3" d="M254.33 274.31H276.33C276.829 274.31 277.307 274.508 277.659 274.861C278.012 275.213 278.21 275.691 278.21 276.19V291.89H252.45V276.19C252.45 275.943 252.499 275.699 252.593 275.471C252.688 275.243 252.826 275.035 253.001 274.861C253.175 274.686 253.382 274.548 253.611 274.453C253.839 274.359 254.083 274.31 254.33 274.31V274.31Z" fill="black" fill-opacity="0.7"/>
<path d="M254.33 274.31H276.33C276.829 274.31 277.307 274.508 277.659 274.861C278.012 275.213 278.21 275.691 278.21 276.19V291.89H252.45V276.19C252.45 275.943 252.499 275.699 252.593 275.471C252.688 275.243 252.826 275.035 253.001 274.861C253.175 274.686 253.382 274.548 253.611 274.453C253.839 274.359 254.083 274.31 254.33 274.31V274.31Z" stroke="#263238" stroke-linecap="round" stroke-linejoin="round"/>
<path d="M246.33 274.31H268.33C268.829 274.31 269.307 274.508 269.659 274.861C270.012 275.213 270.21 275.691 270.21 276.19V291.89H244.45V276.19C244.45 275.943 244.499 275.699 244.593 275.471C244.688 275.243 244.826 275.035 245.001 274.861C245.175 274.686 245.382 274.548 245.611 274.453C245.839 274.359 246.083 274.31 246.33 274.31V274.31Z" fill="#F5E461" stroke="#263238" stroke-linecap="round" stroke-linejoin="round"/>
<path d="M284.33 274.31H306.33C306.829 274.31 307.307 274.508 307.659 274.861C308.012 275.213 308.21 275.691 308.21 276.19V291.89H282.45V276.19C282.45 275.691 282.648 275.213 283.001 274.861C283.353 274.508 283.831 274.31 284.33 274.31V274.31Z" fill="#F5E461" stroke="#263238" stroke-linecap="round" stroke-linejoin="round"/>
<path d="M319.42 288.23V360.42H203.11V288.23C203.11 287.023 203.589 285.866 204.443 285.013C205.296 284.159 206.453 283.68 207.66 283.68H314.87C316.077 283.68 317.234 284.159 318.087 285.013C318.941 285.866 319.42 287.023 319.42 288.23V288.23Z" fill="#F5E461"/>
<path opacity="0.3" d="M319.42 288.23V360.42H203.11V288.23C203.11 287.023 203.589 285.866 204.443 285.013C205.296 284.159 206.453 283.68 207.66 283.68H314.87C316.077 283.68 317.234 284.159 318.087 285.013C318.941 285.866 319.42 287.023 319.42 288.23V288.23Z" fill="black" fill-opacity="0.7"/>
<path d="M319.42 288.23V360.42H203.11V288.23C203.11 287.023 203.589 285.866 204.443 285.013C205.296 284.159 206.453 283.68 207.66 283.68H314.87C316.077 283.68 317.234 284.159 318.087 285.013C318.941 285.866 319.42 287.023 319.42 288.23V288.23Z" stroke="#263238" stroke-linecap="round" stroke-linejoin="round"/>
<path d="M319.42 288.23V360.42H233.11V288.23C233.11 287.023 233.589 285.866 234.443 285.013C235.296 284.159 236.453 283.68 237.66 283.68H314.87C316.077 283.68 317.234 284.159 318.087 285.013C318.941 285.866 319.42 287.023 319.42 288.23V288.23Z" fill="#F5E461" stroke="#263238" stroke-linecap="round" stroke-linejoin="round"/>
<path d="M177 360.42C171 360.42 162.57 356.56 152.86 352.48C142.79 348.24 131.32 343.76 119.68 343.09C115.34 342.84 117.97 360.42 117.97 360.42H108.47C108.47 360.42 99.09 347.9 98 336.69C98 336.69 105.66 331.96 107.5 331.69C108.134 331.624 108.772 331.594 109.41 331.6C111.47 331.6 114.22 331.69 114.22 331.69C113.78 331.43 106.77 327.21 102.9 322.92C99.71 319.38 98.25 313.79 98.14 310.45C98.2636 308.239 98.5073 306.035 98.87 303.85L148.79 304.68C148.79 304.68 149.33 305.06 150.29 305.77C156.08 309.99 177.24 325.71 187.82 337.56C191.24 341.39 193.55 344.81 193.89 347.31C195.48 358.84 186.05 360.42 177 360.42Z" fill="#757575" stroke="#263238" stroke-linecap="round" stroke-linejoin="round"/>
<path d="M187.83 337.54L163.55 343.09C159.387 345.471 155.745 348.665 152.84 352.48C142.77 348.24 131.3 343.76 119.66 343.09C115.32 342.84 117.95 360.42 117.95 360.42H108.45C108.45 360.42 99.09 347.9 98 336.69C98 336.69 106.84 349.29 109 355.69C109 355.69 112.43 343.85 118 339.1C115.484 336.267 112.626 333.757 109.49 331.63C111.55 331.63 114.3 331.72 114.3 331.72C113.86 331.46 106.85 327.24 102.98 322.95C99.79 319.41 98.5 313.81 98.22 310.48C98.08 308.84 98.28 303.88 98.28 303.88C98.28 303.88 135.51 309.19 150.37 305.8C156.09 310 177.25 325.69 187.83 337.54Z" fill="#263238"/>
<path d="M148.8 336.69C148.8 336.69 168.58 346.6 173.86 350.48C179.14 354.36 180.71 353.31 180.71 353.31" stroke="#263238" stroke-linecap="round" stroke-linejoin="round"/>
<path d="M102.91 335.64C102.91 335.64 107.66 342.89 107.91 345.06" stroke="#263238" stroke-linecap="round" stroke-linejoin="round"/>
<path d="M182.47 196.48C182.47 196.48 193 191.9 192 211.38C191 230.86 194.57 231.86 194.57 231.86C194.57 231.86 168.07 242.74 161.34 233.44C154.61 224.14 161 198.69 182.47 196.48Z" fill="#263238"/>
<path d="M181 231.86C181 231.86 170.1 237 169.11 241.75C168.12 246.5 154.47 239.35 154.47 239.35L164.36 225.13L181 231.86Z" fill="white" stroke="#263238" stroke-linecap="round" stroke-linejoin="round"/>
<path d="M109.53 284C84.53 315.84 104.82 331.2 133.16 328.66L127.48 337.66L141.74 340.13C141.74 340.13 152.67 332.99 167.57 325.36C192.93 312.36 203.18 313.14 200.57 300.13C197.96 287.12 166.88 278.68 135.72 292.39C135.69 292.38 118.77 272.28 109.53 284Z" fill="#757575" stroke="#263238" stroke-linecap="round" stroke-linejoin="round"/>
<path d="M118.25 353.31C118.25 353.31 124.76 335.31 127.48 334.31C130.2 333.31 140.48 337.21 141.74 340.11C141.74 340.11 145.21 334.79 146.63 337.05C148.05 339.31 146 343.05 146.63 345.91C147.26 348.77 154.29 352.77 157.1 353.3C159.91 353.83 161.51 355.41 161.51 356.99V360.42H118.25C117.77 359.296 117.522 358.087 117.522 356.865C117.522 355.643 117.77 354.434 118.25 353.31V353.31Z" fill="white" stroke="#263238" stroke-linecap="round" stroke-linejoin="round"/>
<path d="M146.63 343.09C146.63 343.09 140.9 345.92 138.81 345.09C136.72 344.26 139.88 349.84 140.67 350.37C141.46 350.9 146.67 348.52 146.67 348.52" stroke="#263238" stroke-linecap="round" stroke-linejoin="round"/>
<path d="M123.66 340.12C123.66 340.12 131.44 340.27 133.81 343.12" stroke="#263238" stroke-linecap="round" stroke-linejoin="round"/>
<path d="M118.25 353.31C118.25 353.31 130.65 356.21 131.7 356.21C133.405 355.872 135.078 355.387 136.7 354.76C136.7 354.76 140.1 356.47 142.36 357.53C144.62 358.59 159.36 357.53 159.36 357.53" stroke="#263238" stroke-linecap="round" stroke-linejoin="round"/>
<path d="M133.16 328.68C145 327.4 168 312.81 176 307.74C184 302.67 186 304 186 304" stroke="#263238" stroke-linecap="round" stroke-linejoin="round"/>
<path d="M98.21 303.83L100.1 289.48L104.66 286.04C112.05 268.11 145.53 234.62 154.66 234.73C168.37 234.89 170.79 249.28 172.48 265.03C174.17 280.78 152.81 278.41 152.81 278.41V282.36L140.66 288.65L148.02 288.42C148.02 288.42 126.85 309 98.21 303.83Z" fill="#4941C0" stroke="#263238" stroke-linecap="round" stroke-linejoin="round"/>
<path d="M157.55 207C160.42 198 173.55 195.6 178.27 197.07C182.144 198.583 185.319 201.48 187.18 205.2C188.38 207.79 185.87 212.37 187.66 215.04C190.22 218.87 190 226.95 189.08 232.04C188.58 234.74 177.35 236.34 168.17 230.04C158.31 223.22 154.77 215.66 157.55 207Z" fill="white" stroke="#263238" stroke-linecap="round" stroke-linejoin="round"/>
<path d="M170.82 194.38C170.82 194.38 182.38 192.5 182.46 195.47C182.97 215.2 171.14 219.34 171.14 219.34C171.14 219.34 166.31 215.49 165.23 218.13C164.15 220.77 166.93 228.07 170.35 228.22C169.562 229.444 169.131 230.864 169.106 232.32C169.082 233.776 169.464 235.21 170.21 236.46C170.21 236.46 150.63 239.73 149.01 230.66C149.767 227.507 150.308 224.306 150.63 221.08C151.9 208.37 148.93 199.82 170.82 194.38Z" fill="#263238"/>
<path d="M186.26 214.49C188.67 216.66 190.4 216.66 190.37 217.44C190.28 219.87 187.37 221.08 187.37 221.08" fill="white"/>
<path d="M186.26 214.49C188.67 216.66 190.4 216.66 190.37 217.44C190.28 219.87 187.37 221.08 187.37 221.08" stroke="#263238" stroke-linecap="round" stroke-linejoin="round"/>
<path d="M187.31 225.13C185.607 225.707 183.769 225.752 182.04 225.26" stroke="#263238" stroke-linecap="round" stroke-linejoin="round"/>
<path d="M180.9 202.38C180.9 202.38 188.59 200.15 187.18 212.63C187.18 212.63 190.38 208.28 190.37 203.39C190.37 194.92 179.04 196.62 179.04 196.62L180.52 202.62" fill="#263238"/>
<path d="M187.89 208.49C187.599 208.297 187.271 208.164 186.928 208.101C186.584 208.037 186.231 208.044 185.89 208.12" stroke="#263238" stroke-linecap="round" stroke-linejoin="round"/>
<path d="M182.71 208.35C182.71 208.35 178.58 208.59 176.79 211.35" stroke="#263238" stroke-linecap="round" stroke-linejoin="round"/>
<path d="M181.72 214.92C181.78 215.58 181.5 216.15 181.09 216.19C180.68 216.23 180.3 215.72 180.23 215.06C180.16 214.4 180.45 213.83 180.86 213.79C181.27 213.75 181.66 214.26 181.72 214.92Z" fill="#263238"/>
<path d="M133.81 331.68C133.81 331.68 143.01 332.68 145.01 336.68" stroke="#263238" stroke-linecap="round" stroke-linejoin="round"/>
<path d="M157.1 241.48C160.955 239.341 165.487 238.775 169.75 239.9C177.07 241.75 196.05 268.9 198.69 271.55C201.33 274.2 206.27 275.55 210.82 280.34C218.02 287.85 228.49 294.49 229.55 294.49C230.61 294.49 231.46 293.83 232.78 293.57C234.1 293.31 244.32 292.38 244.32 292.38C244.32 292.38 247.75 293.15 244.32 294.61C240.89 296.07 241.15 297.4 241.15 297.4C241.15 297.4 240.47 298.5 241.84 299.56C243.21 300.62 244.03 300.04 246 302.83C247.97 305.62 243.22 304.04 243.22 304.04C243.22 304.04 244.27 307.04 242.16 306.74C240.05 306.44 241.9 309.67 238.47 309.23C235.04 308.79 227.7 304.16 225.86 299.31C225.86 299.31 195.92 285 191.44 281.31C186.96 277.62 168.12 257.83 166.79 257.57" fill="white"/>
<path d="M157.1 241.48C160.955 239.341 165.487 238.775 169.75 239.9C177.07 241.75 196.05 268.9 198.69 271.55C201.33 274.2 206.27 275.55 210.82 280.34C218.02 287.85 228.49 294.49 229.55 294.49C230.61 294.49 231.46 293.83 232.78 293.57C234.1 293.31 244.32 292.38 244.32 292.38C244.32 292.38 247.75 293.15 244.32 294.61C240.89 296.07 241.15 297.4 241.15 297.4C241.15 297.4 240.47 298.5 241.84 299.56C243.21 300.62 244.03 300.04 246 302.83C247.97 305.62 243.22 304.04 243.22 304.04C243.22 304.04 244.27 307.04 242.16 306.74C240.05 306.44 241.9 309.67 238.47 309.23C235.04 308.79 227.7 304.16 225.86 299.31C225.86 299.31 195.92 285 191.44 281.31C186.96 277.62 168.12 257.83 166.79 257.57" stroke="#263238" stroke-linecap="round" stroke-linejoin="round"/>
<path d="M152.8 238.58C152.8 238.58 167.56 234.63 172.71 237.53C177.86 240.43 187.62 253.88 187.62 253.88C187.62 253.88 175.72 264.53 172.04 263.56C168.36 262.59 157.1 261 157.1 261" fill="#4941C0"/>
<path d="M152.8 238.58C152.8 238.58 167.56 234.63 172.71 237.53C177.86 240.43 187.62 253.88 187.62 253.88C187.62 253.88 175.72 264.53 172.04 263.56C168.36 262.59 157.1 261 157.1 261" stroke="#263238" stroke-linecap="round" stroke-linejoin="round"/>
<path d="M165.6 262.3C165.6 262.3 160.25 265.24 158.28 265.24" stroke="#263238" stroke-linecap="round" stroke-linejoin="round"/>
<path d="M100.45 307.74C100.45 307.74 97.5599 320.2 109.89 325.74" stroke="#263238" stroke-linecap="round" stroke-linejoin="round"/>
<path d="M106.91 308.6C106.91 308.6 106.98 314.74 108.91 318.1L115.04 320.1L121.9 316.28C121.9 316.28 120.44 308.43 120.31 306.84" stroke="#263238" stroke-linecap="round" stroke-linejoin="round"/>
</g>
</g>
<defs>
<clipPath id="clip0_15_2811">
<rect width="500" height="363" fill="white"/>
</clipPath>
<clipPath id="clip1_15_2811">
<rect width="500" height="500" fill="white" transform="translate(0 -83)"/>
</clipPath>
</defs>
</svg>
