<svg width="655" height="396" fill="none" xmlns="http://www.w3.org/2000/svg"><g clip-path="url(#a)"><path d="M89.447 352.516C39.395 341.086-2.493 291.483.114 248.719c2.112-34.65 31.756-37.283 65.694-92.702 42.779-69.857 15.568-98.164 53.51-127.847 41.938-32.812 123.71-36.205 178.806-14.106 45.821 18.382 59.117 48.756 119.013 59.84 23.011 4.257 23.243.18 56.552 4.114 37.772 4.46 87.793 10.296 124.801 36.063 48.183 33.552 61.382 92.555 55.017 136.775-2.215 15.392-14.296 81.061-74.375 111.129-47.443 23.743-68.071-3.111-172.183 15.387-62.066 11.028-80.663 25.178-115.67 15.284-40.513-11.451-36.71-39.295-77.745-47.67-52.018-10.611-74.618 18.824-124.087 7.53Z" fill="#F2F2F2"/><path d="M467.321 168.117h61.178c1.5 0 2.864 1.216 3.05 2.716l5.021 40.69h18.887a1.022 1.022 0 0 1 1.023 1.022v1.84a1.026 1.026 0 0 1-1.023 1.022h-20.726c-.13.019-.262.029-.394.03h-61.18c-1.498 0-2.864-1.218-3.049-2.717l-5.169-41.887c-.182-1.5.882-2.716 2.382-2.716Z" fill="#C7C7C7"/><path d="M533.098 208.208h-59.934l-4.395-35.218h59.845l4.484 35.218Z" fill="#EAEAEA"/><path d="M316.821 168.117H378c1.499 0 2.864 1.216 3.049 2.716l5.022 40.69h18.887a1.01 1.01 0 0 1 .723.299 1.02 1.02 0 0 1 .3.723v1.84a1.03 1.03 0 0 1-.632.945 1.028 1.028 0 0 1-.391.077h-20.726a2.89 2.89 0 0 1-.394.03h-61.181c-1.498 0-2.864-1.218-3.049-2.717l-5.168-41.887c-.183-1.5.883-2.716 2.381-2.716Z" fill="#C7C7C7"/><path d="M382.599 208.208h-59.934l-4.395-35.218h59.845l4.484 35.218Z" fill="#EAEAEA"/><path d="m448.48 303.472 11.196.111-2.158 22.863-7.403-.551-1.635-22.423Z" fill="#C0AFD7" stroke="#000"/><path d="M434.477 334.336a5.38 5.38 0 0 0 1.068-.312c6.956-2.176 12.579-8.048 13.84-8.822 1.533.927 7.311 1.64 8.458.917.119-.071.245-.13.376-.174.456.583 3.574 4.693 3.345 7.699-.028.356-.047.782-.061 1.251l-.243 4.639-30.452.281c-.345-1.708.467-4.975 3.669-5.479Z" fill="#161514"/><path d="m385.822 303.274 11.195.113-2.156 22.861-7.404-.551-1.635-22.423Z" fill="#C0AFD7" stroke="#000"/><path d="M371.82 334.139a5.494 5.494 0 0 0 1.066-.311c6.958-2.176 12.58-8.049 13.842-8.822 1.532.926 7.311 1.64 8.457.917.118-.073.245-.131.377-.174.454.581 3.572 4.693 3.344 7.697a29.79 29.79 0 0 0-.062 1.251l-.243 4.641-30.452.281c-.345-1.717.469-4.976 3.671-5.48Z" fill="#161514"/><path d="M452.548 145.888s12.852 139.153 12.138 161.516c0 0-8.21 4.24-21.062 1.928l-23.329-104.949-18.085 106.105s-15.311 1.241-24.593-3.384l9.959-159.288s29.986 5.01 64.972-1.928Z" fill="#001335" stroke="#000" stroke-miterlimit="10"/><path d="M420.296 204.863a.479.479 0 0 0 .478-.463c.015-.438.348-10.767-.45-15.557a.476.476 0 0 0-.363-.41.496.496 0 0 0-.372.062.483.483 0 0 0-.211.506c.783 4.697.442 15.26.438 15.366a.481.481 0 0 0 .463.496h.017ZM383.811 281.926a.313.313 0 0 0 .31-.294l3.979-66.567a.313.313 0 0 0-.291-.33.31.31 0 0 0-.329.292l-3.98 66.569a.304.304 0 0 0 .077.225.318.318 0 0 0 .214.103l.02.002Z" fill="#000"/><path d="M406.271 44.131s12.933-5.423 20.767 6.333-2.035 22.018-2.035 22.018c-2.989 9.792 3.67 16.945 3.67 16.945-.14.08-.28.154-.42.231-4.853 1.592-15.697 4.257-22.699-.793 5.829-3.518 4.782-9.594 4.782-9.594-11.352.099-9.748-8.326-10.197-18.484-.449-10.158 6.132-16.656 6.132-16.656Z" fill="#C0AFD7" stroke="#000" stroke-miterlimit="10"/><path d="M416.492 68.707c2.956-1.277 5.848-5.98 6.355-10.65-.549-3.999-2.759-10.94-11.424-12.684 0 0-10.328 1.208-11.126 11.53 0 0-5.427-5.098-5.22-10.433a8.058 8.058 0 0 1 1.868-4.95 9.379 9.379 0 0 1 2.128-1.86c8.248-6.252 18.246-3.428 18.246-3.428l-.127.14c3.144.903 6.517 3.027 9.547 7.38 0 0 8.604-.634 9.57 9.356 0 0-3.706 14.263-11.654 20.062l.028-4.303s4.327-4.102 2.625-6.867c-1.029-1.672-2.384-1.71-3.291-1.478-.066 1.743.3 4.534-.129 7.48-.884 6.075-3.061 13.91-12.001 13.514-8.94-.396-13.447-.661-11.513-12.635-.001-.007 11.887 1.651 16.118-.174Z" fill="#000"/><path d="M455.037 172.691s-58.614 3.098-69.164.535l1.32-40.722 63.818-5.125 4.026 45.312Z" fill="#5A437A"/><path d="M367.316 151.104c-1.133-4.511-2.516-14.6 1.414-30.561 5.539-22.497 15.297-29.621 15.297-29.621l24.33-4.52s1.441 5.098 6.522 5.065c3.109-.021 7.637-1.62 11.08-6.235 0 0 25.055-.568 28.747 9.112 3.691 9.681 19.515 38.73 17.933 49.837-1.582 11.108-19.516 16.517-48.789 8.258 0 0-23.205 18.658-52.658 3.109l.022-.019c-2.711-1.467-3.804-4.184-3.898-4.425Z" fill="#5A437A" stroke="#000" stroke-miterlimit="10"/><path d="m415.587 128.019-3.956 12.174-11.671-.213s4.353-11.749 15.627-11.961Z" fill="#fff" stroke="#000" stroke-width="2" stroke-miterlimit="10"/><path d="M437.309 134.519s4.818-2.089 4.324-3.295c-.493-1.206-4.506 1.648-4.875 1.364-.369-.283 1.202-1.333 4.018-2.901 0 0 .222-1.693-1.021-1.223-1.242.47-4.316 2.77-4.736 2.576-.421-.194 1.6-1.991 4.512-3.821 0 0 .195-1.23-.916-1.08 0 0-5.813 3.556-5.852 2.978-.039-.579 5.511-4.166 5.24-5.054-.27-.889-1.241-.831-1.963-.309-.723.522-7.506 5.462-7.715 4.613-.209-.849 2.222-3.491 1.888-4.105-.334-.613-1.862-.585-2.805 1.092-.942 1.678-4.603 5.958-4.603 5.958l14.504 3.207Z" fill="#C0AFD7" stroke="#000" stroke-miterlimit="10"/><path d="M438.208 135.076c1.954 0 3.544-.285 4.769-.855 3.216-1.502 4.898-5.922 5-13.136a63.414 63.414 0 0 0-.774-10.234.48.48 0 0 0-.944.164 62.28 62.28 0 0 1 .759 10.069c-.068 4.68-.892 10.607-4.446 12.267-1.159.541-2.655.767-4.348.767-8.583 0-22.197-5.828-22.361-5.896a.468.468 0 0 0-.378-.02.48.48 0 0 0-.002.9 105.23 105.23 0 0 0 10.861 3.865c4.826 1.404 8.791 2.109 11.864 2.109ZM423.85 152.917a.479.479 0 0 0 .214-.908c-.088-.045-8.937-4.546-11.942-12.018a.485.485 0 0 0-.254-.278.472.472 0 0 0-.643.259.486.486 0 0 0 .008.377c1.646 4.095 4.933 7.28 7.4 9.233a31.992 31.992 0 0 0 5.004 3.285.463.463 0 0 0 .213.05ZM399.961 140.46a.48.48 0 0 0 0-.961c-.128 0-12.917-.064-17.073-5.369-1.683-2.141-1.497-6.697.526-13.177a76.58 76.58 0 0 1 3.682-9.383.478.478 0 0 0-.221-.642.482.482 0 0 0-.642.221c-.352.725-8.585 17.848-4.1 23.572 1.88 2.397 5.462 4.092 10.649 5.035a44.45 44.45 0 0 0 7.179.704Z" fill="#000"/><path d="M477.189 340.291a1.006 1.006 0 0 1-.708-.294.991.991 0 0 1-.293-.708V219.613a1.002 1.002 0 1 1 2.003 0v119.676a.991.991 0 0 1-.619.926c-.121.05-.251.076-.383.076Z" fill="#382234"/><path d="M177.513 130.453s-14.828-.421-22.401-5.789c0 0-6.379-7.862-11.847-8.564 0 0-1.403.562 0 1.755 1.402 1.193 5.118 3.298 4.557 3.859-.561.562-3.981-.632-5.182-1.334-1.2-.701-5.545-3.859-5.966-3.509-.421.349-1.263 1.404-.281 1.965.982.562 5.96 3.299 5.751 3.931-.209.632-.561.562-1.403.07-.841-.491-5.891-3.229-6.592-3.158-.701.07-.912 1.052-.491 1.403.421.351 6.312 3.438 6.312 4 0 .561-.473.369-.499.289-.027-.08-4.574-2.288-4.91-2.236-.335.052-.92.632-.552 1.105.367.473 5.128 3.026 5.101 3.369-.027.342-.132.394-.421.341-.289-.053-3.9-1.991-4.111-1.85-.21.14-.805.631-.561 1.053.244.421 5.959 5.034 8.956 5.508 2.997.475 6.205 1.368 7.995 3.37 1.789 2.002 17.719 17.367 27.499 19.262-.008.001 1.149-18.945-.954-24.84Z" fill="#EDEAFF" stroke="#000" stroke-miterlimit="10"/><path d="M215.932 51.826s-7.223 6.284-6.742 16.087c.481 9.803.15 17.97 10.761 17.806 0 0 .889 4.15-2.081 7.455 0 0 4.023 7.704 9.72 6.386 4.872-1.123 5.981-3.751 7.715-7.382 0 0-3.831-4.617-1.683-13.105 0 0 9.164-9.967 1.768-21.265s-19.458-5.982-19.458-5.982Z" fill="#EDEAFF"/><path d="M231.556 49.063s6.541-2.132 4.108-9.898a7.687 7.687 0 0 0-.808-1.785c-3.042-3.449-8.643-1.98-9.799 1.33-1.629 4.668.561 8.07.561 8.07s-15.822-.306-20.995 18.425c-5.108 18.5 5.248 25.129 15.179 23.826.297-1.226.306-2.667.147-3.319-1.073.08-7.362.148-9.397-6.498-2.594-8.49-1.145-22.31 4.769-25.868 8.718-5.249 15.121 6.862 15.121 13.866 0 0 3.215-1.903 4.208.386 1.039 2.387-.748 5.165-4.013 6.591 0 0 1.133 9.747 2.654 13.098 0 0 15.604-1.373 18.19-8.984 2.586-7.612-7.146-24.672-19.925-29.24Z" fill="#382234" stroke="#000" stroke-miterlimit="10"/><path d="M216.136 79.729a4.323 4.323 0 0 0 5.958.024c.199-.184-.098-.482-.298-.298a3.904 3.904 0 0 1-5.363-.024c-.196-.186-.495.111-.297.298ZM217.042 68.988l-.48 2.339c-.159.768-.352 1.537-.467 2.314-.094.627.029 1.22.554 1.618a1.891 1.891 0 0 0 1.543.32c.701-.155 1.278-.654 1.708-1.208.164-.212-.13-.513-.297-.298-.61.786-1.697 1.544-2.672.877-.5-.345-.497-.908-.39-1.453l.421-2.06.479-2.338c.055-.264-.35-.378-.405-.11h.006ZM223.963 68.848a.638.638 0 0 0-.483.49.711.711 0 0 0 0 .366.593.593 0 0 0 .23.325.196.196 0 0 0 .211 0 .877.877 0 0 0 .365-.642.86.86 0 0 0-.219-.665.211.211 0 0 0-.255-.033.77.77 0 0 0-.337.454.568.568 0 0 0 .119.536.563.563 0 0 0 .519.178.43.43 0 0 0 .353-.334.509.509 0 0 0-.134-.463.403.403 0 0 0-.254-.115.324.324 0 0 0-.287.156.47.47 0 0 0-.081.248.467.467 0 0 0 .068.253c.032.048.073.089.121.12a.258.258 0 0 0 .264-.015.544.544 0 0 0 .281-.513.531.531 0 0 0-.123-.304.546.546 0 0 0-.581-.162.213.213 0 0 0-.147.26l.208.507a.216.216 0 0 0 .258.147.449.449 0 0 0 .299-.304.445.445 0 0 0-.1-.416.213.213 0 0 0-.298.001.212.212 0 0 0-.062.15.223.223 0 0 0 .077.164c-.033-.021-.023-.034-.013-.013.01.021-.011-.044-.008-.021a.038.038 0 0 0 0 .021c.008.022 0-.055 0-.02v.022-.024a.063.063 0 0 0-.007.026c0 .009-.013.033 0 0 .012-.032 0-.007 0 0a.073.073 0 0 0-.014.023c0-.007.033-.037.012-.019-.021.019-.012.012-.014.016-.001.004.041-.027.017-.014s-.039.02 0 0l.258.147-.206-.507-.147.259c.016 0 .036-.009.054-.016.019-.007-.039 0-.018 0h.024-.011a.15.15 0 0 0 .025 0l.024.007s.045.017.01 0c-.035-.016 0 0 0 0l.026.016c.027.015-.011 0-.011-.01s.015.014.018.017l.017.018c.027.028-.013-.027 0-.007a.175.175 0 0 0 .013.021c.018.031-.012 0 0-.01a.278.278 0 0 0 .011.05c-.009-.013 0-.05 0-.013a.107.107 0 0 0 0 .025c0 .023.011-.038 0-.018s0 .02-.007.03a.198.198 0 0 0-.007.025c-.01.03 0-.013 0-.014a.41.41 0 0 0-.03.049c-.009.02.029-.027.01-.013a.356.356 0 0 0-.021.022s-.018.012-.019.017c-.002.006.037-.023.012-.01l-.028.015c-.019.012.049-.019.009 0l.162.02s.035.034.017.013c-.018-.02-.028-.032 0 0 .028.033-.02-.045 0 0v.024a.202.202 0 0 0 0-.049c0-.02-.011.043 0 .024a.074.074 0 0 0 0-.021c0-.023.018-.017-.008.015a.074.074 0 0 0 .009-.02s.01-.01.012-.018c.001-.007-.031.04-.012.019.02-.021-.03.014-.013.01a.15.15 0 0 0 .023-.013l-.106.028h.029c-.033 0-.049-.009-.028 0h.014c.009 0-.046-.025-.017 0 .03.025-.033-.035 0 0 0 0 .028.034 0 0s0 0 0 .01a.2.2 0 0 0 .013.025s-.018-.052-.01-.022v.02l.007.029v-.033.021a.144.144 0 0 0 0 .03v-.031.024c0 .008-.015.042 0 .007.016-.035 0 0-.007.008-.007.009.032-.03.009-.01l-.01.009c-.01.013.043-.025.011-.01a.172.172 0 0 0-.031.017s.042-.013.024-.011h-.038.028a.4.4 0 0 0-.041 0c-.035 0 .05.012 0 0l-.033-.01c-.044-.011.032.02 0 0l-.037-.021c-.039-.023.024.024 0 0l-.026-.024a.1.1 0 0 0-.013-.014c-.014-.013.014.018.015.02a.236.236 0 0 0-.025-.041c-.019-.03.011.04 0 .007-.011-.034 0-.031-.011-.045-.011-.014 0 .021 0 .022a.075.075 0 0 0 0-.02v-.055.022a.131.131 0 0 0 0-.028c0-.018.01-.035.015-.053.006-.019-.018.035 0-.007a.48.48 0 0 1 .027-.05l.013-.018c.015-.024 0 0-.009.009a.211.211 0 0 0 .038-.043c.01-.01.038-.026.042-.037.004-.012-.033.023-.014.01l.03-.019-.256-.034.02.024c.007.007-.025-.038 0-.008s.023.034.032.052c.007.01.013.022.017.034 0 .007.02.04 0 .008s0 0 0 .008a.3.3 0 0 1 .01.03c0 .02.01.04.014.06.004.021 0 .021 0 .031-.015-.05 0-.032 0-.014a.947.947 0 0 1 0 .13c0 .038.007-.037 0-.012-.007.025 0 .021 0 .03 0 .01-.008.042-.014.061a.304.304 0 0 0-.021.06c0-.034.015-.034 0-.012a.545.545 0 0 1-.066.111c0-.014.031-.035.007-.008-.024.026-.028.029-.043.043l-.023.021c-.029.027.038-.027 0 0h.212c.057.044 0 0-.01-.015-.01-.016.022.035.01.015l-.016-.025a.768.768 0 0 1-.012-.023c-.01-.02-.009-.039 0 .014 0-.018-.013-.035-.017-.053v-.024c-.01-.04 0 .052 0 .016v-.089.02c0-.02.007-.04.013-.06.005-.02.012-.037.016-.055.005-.019-.022.047-.007.017a.254.254 0 0 1 .014-.028c.009-.017.02-.033.03-.05.01-.016-.023.027-.008.012l.016-.02.044-.04c.012-.015-.042.029-.014.012l.021-.014.028-.014c-.042.028-.035.014-.013.007a.303.303 0 0 1 .061-.014.215.215 0 0 0 .127-.1.218.218 0 0 0 .02-.16.22.22 0 0 0-.26-.14l.028-.01ZM213.421 68.602a.675.675 0 0 0-.786.105.617.617 0 0 0-.152.757.719.719 0 0 0 .627.346.61.61 0 0 0 .599-.468.644.644 0 0 0-.372-.751.627.627 0 0 0-.739.272.527.527 0 0 0-.025.465c.062.145.178.26.324.319a.49.49 0 0 0 .691-.351.594.594 0 0 0-.052-.406.456.456 0 0 0-.342-.243.541.541 0 0 0-.537.326.526.526 0 0 0-.043.218c.002.08.026.16.071.227.03.046.074.08.126.097a.211.211 0 0 0 .237-.31l-.017-.027a.027.027 0 0 0 0-.013s.015.047.013.03a.284.284 0 0 0-.008-.03v.01c0 .042 0 .011 0 0v-.027c0-.002-.009.05 0 .034v-.017a.12.12 0 0 1 0-.027c.011-.039-.024.045 0 .009 0 0 .025-.052.031-.052.005 0-.033.038-.019.025a.275.275 0 0 1 .035-.038l.014-.012s-.04.028-.023.02a.102.102 0 0 1 .022-.016l.028-.016c.007 0 .025-.01-.008 0-.034.012-.009 0 0 0h.025c.029-.008-.058 0-.016 0h.027-.034.023c.024.007.035.024-.014-.007l.022.012c.035.02-.021-.02-.012-.011.008.008.014.012.019.02.006.006.03.034 0 0-.029-.036 0 0 0 0l.014.024c.006.009.01.024 0-.01-.009-.033 0-.01 0 0 0 .012.01.034.014.052.005.019 0-.036 0-.022v.064-.023a.529.529 0 0 0-.014.056c0 .01-.017.045 0 0l-.012.021-.007.01c-.013.02.036-.042.015-.021l-.017.018-.012.011s.04-.028.026-.02l-.023.015-.012.007c-.012.008.041-.013.023-.01a.258.258 0 0 0-.034.01h-.014c-.02 0 .032-.007.031 0a.149.149 0 0 1-.034 0h-.015.026a.172.172 0 0 1-.066-.019s.047.023.027.012h-.014l-.035-.021-.013-.009c-.019-.01.027.02.023.018a.143.143 0 0 1-.027-.023l-.025-.026a.047.047 0 0 0-.01-.011c-.015-.014.024.037.014.018-.01-.018-.036-.043-.032-.057.004-.014.02.055.01.024v-.016c0-.006 0-.025-.01-.038-.01-.012.008.034 0 .031a.04.04 0 0 1 0-.015.206.206 0 0 0 0-.035c0-.034-.011.049 0 .016.011-.032 0-.023.01-.036v-.013c0-.018-.011.03-.013.028a.3.3 0 0 1 .016-.028s.014-.026.018-.026c.004 0-.032.037-.018.023l.012-.014c.014-.015.03-.028.045-.042-.048.044-.024.019-.008.009l.032-.019c.008 0 .042-.02 0 0s0 0 .011 0a.492.492 0 0 1 .065-.016c.032-.007-.059 0-.014 0h.061c.031 0-.054-.012-.014 0l.033.008c.009 0 .047.018.011 0-.037-.018 0 0 0 0s.021.016.032.021c.011.006-.028-.018-.022-.018l.011.01.024.024.018.02c-.044-.046-.016-.019 0 0l.015.03c0 .009.02.042 0 0-.019-.042 0 0 0 .011 0 .012.007.026.012.038a.144.144 0 0 0 0 .03v-.013a.822.822 0 0 1 0 .07c0 .009 0 .047 0 0v.011c0 .012-.009.054-.021.065-.013.011.025-.052.009-.024 0 0 0 .01-.007.014a.143.143 0 0 1-.015.026l-.01.015c-.011.02.017-.027.017-.023 0 .005-.02.023-.024.027l-.018.018a.05.05 0 0 0-.013.01s.039-.028.025-.02c-.014.009-.033.022-.05.03s.043-.015.015 0l-.023.008a.374.374 0 0 1-.058.013h.018-.021a.43.43 0 0 1-.06 0h-.013c-.019 0 .038.007.035 0a.107.107 0 0 0-.031 0l-.057-.015-.029-.011c-.031-.012.047.022.018.008-.03-.014-.035-.018-.052-.03l-.025-.015c-.034-.023.033.03.011.01a.313.313 0 0 1-.042-.04l-.017-.02c-.02-.023.031.046.01.012l-.028-.05c-.01-.016.012.032.012.03a.045.045 0 0 0-.007-.015v-.025c0-.01 0-.02-.007-.03-.009-.04 0 .047 0 .016v-.066s-.008.049 0 .032a.027.027 0 0 0 0-.013.449.449 0 0 1 .01-.036c0-.009.007-.017.01-.027-.018.062-.014.031 0 .013a.424.424 0 0 1 .034-.056c.023-.037-.03.033-.007.01l.018-.022c.017-.018.035-.032.052-.049.017-.016-.026.023-.024.019a.032.032 0 0 1 .013-.009l.028-.018.058-.032c.028-.014-.053.02-.011 0l.027-.009a.496.496 0 0 1 .064-.015h-.028.073c.044 0-.052-.011-.009 0l.057.015c.032.01-.043-.022-.015 0l.033.018a.214.214 0 0 0 .163.027.217.217 0 0 0 .076-.036.214.214 0 0 0 .038-.3.215.215 0 0 0-.065-.054l-.006.015ZM221.439 64.904a.705.705 0 0 1 .269-.292c.155-.097.33-.16.512-.184.386-.063.902.089 1.314.232.939.323 2.084.717 2.978.05a.434.434 0 0 0 .15-.578c-.104-.178-.393-.288-.575-.15-.851.637-1.985-.08-2.877-.303-.982-.246-2.16-.034-2.582 1-.087.211.093.464.293.519a.431.431 0 0 0 .518-.294ZM216.705 64.831a1.317 1.317 0 0 0-.783-1.111 2.065 2.065 0 0 0-1.478-.08c-.488.14-.947.41-1.455.483a1.72 1.72 0 0 1-.493-.019.6.6 0 0 1-.376-.229.43.43 0 0 0-.577-.15.425.425 0 0 0-.15.576 1.575 1.575 0 0 0 1.225.668c.477.042.932-.102 1.37-.272a7.29 7.29 0 0 1 .708-.253 1.71 1.71 0 0 1 .322-.065.992.992 0 0 1 .158 0c.013 0 .14.014.072 0 .091.015.18.04.266.073-.045-.016.069.037.084.045.016.009.122.079.079.045a.56.56 0 0 1 .132.14c.007.01.053.114.031.051a.772.772 0 0 1 .022.082v.018a.43.43 0 0 0 .421.421.42.42 0 0 0 .421-.421l.001-.002Z" fill="#000"/><path d="m260.968 314.217 14.036 1.123 4.947 11.662s13.218 9.278 14.847 9.529c1.628.252 7.14-.627 6.139 3.51h-38.504s1.419-9.406 4.927-12.915l-6.392-12.909Z" fill="#EDEAFF" stroke="#000" stroke-miterlimit="10"/><path d="M300.637 337.791h-5.876v-1.264c-.271-.059-.799-.317-1.504-.716v1.978h-21.821c-.016-1.451-.274-5.785-2.634-9.279h13.32c-.16-2.569-1.823-2.757-1.823-2.757h-14.016l.69 1.38c-3.507 3.509-4.543 12.915-4.543 12.915h38.504c.252-1.033.097-1.753-.297-2.257Z" fill="#382234"/><path d="m203.384 314.04 14.035 1.123 4.948 11.662s13.217 9.28 14.845 9.53c1.629.249 7.142-.627 6.14 3.509h-38.505s1.421-9.406 4.929-12.915l-6.392-12.909Z" fill="#EDEAFF" stroke="#000" stroke-miterlimit="10"/><path d="M243.046 337.615h-5.874v-1.263c-.272-.059-.801-.318-1.504-.716v1.979h-21.816c-.017-1.451-.273-5.785-2.635-9.279h13.314c-.153-2.571-1.815-2.759-1.815-2.759h-14.014l.69 1.379c-3.507 3.509-4.545 12.915-4.545 12.915h38.505c.251-1.033.095-1.753-.306-2.256Z" fill="#382234"/><path d="M208.775 94.148s7.693-.665 8.976-.842c0 0 3.017 7.019 8.775 6.422 7.275-.762 8.46-7.66 8.46-7.66s4.412-.547 5.877-.301c1.466.246 9.318 2.31 9.502 8.072.183 5.763.549 64.858 2.934 71.283l-43.092 2.202s-.115-66.622-1.432-73.412c0-.006-1.25-3.816 0-5.764Z" fill="#fff"/><path d="M202.689 168.614s-6.813 118.906-.946 147.535h31.173s2.045-83.167 2.779-92.41c0 0 15.148 78.829 20.279 92.41h34.844S266.5 189.903 259.899 166.416l-57.21 2.198Z" fill="#5A437A" stroke="#000" stroke-miterlimit="10"/><path d="M208.775 94.148s-14.854 1.468-17.605 4.221c-2.75 2.753-3.85 4.588-5.867 11.379-2.017 6.79-3.3 17.068-8.435 19.638 0 0 2.017 20.003 0 28.63 0 0 2.568 2.387 4.218 1.835 1.649-.552 12.835-8.259 15.769-14.131 0 0 2.751 8.625-1.099 21.289-3.851 12.664-1.284 18.353-1.284 18.353s19.254 4.589 24.387.918c0 0 .918-15.784-.917-26.429-1.835-10.645-.182-41.845-2.751-51.572-2.568-9.727-6.416-14.131-6.416-14.131ZM240.863 91.761s.55 21.84-2.017 34.504c-2.566 12.664-1.963 28.077 1.034 40.376 2.998 12.3 6.118 13.583 6.118 13.583s19.436-1.469 22.554-2.937c0 0-5.317-12.664-5.501-16.706 0 0 3.484 2.203 8.802 2.203 0 0 .917-.734.917-2.203 0-1.468.916-18.72 6.051-24.593 0 0-9.903-29.916-13.203-35.422-3.3-5.505-24.755-8.805-24.755-8.805Z" fill="#F9E341" stroke="#000" stroke-miterlimit="10"/><path d="M235.629 217.788c-3.507-16.557-6.392-48.211-6.421-48.528l.998-.09c.028.316 2.907 31.911 6.403 48.41l-.98.208Z" fill="#000"/><path d="m234.267 203.477-.683-.733 5.007-4.674a1.741 1.741 0 0 0 .536-1.493c-1.011-7.637-3.48-27.094-3.507-27.292l.995-.126c.024.195 2.492 19.654 3.506 27.286a2.747 2.747 0 0 1-.841 2.357l-5.013 4.675ZM262.646 160.88c-.059-.081-1.47-2.05-2.805-6.27-1.228-3.862-2.625-10.436-2.31-19.825l1.001.034c-.591 17.662 4.874 25.396 4.93 25.471l-.816.59Z" fill="#000"/><path d="M568.779 156.407c-1.014-2.336-2.6-6.417-2.6-9.066 0 0 .777-15.393-2.333-19.197-3.11-3.805-17.533-5.564-24.613-4.352 0 0 .037 8.935-.853 10.669-.889 1.734-3.653 3.545-3.047 4.409.605.865 2.591 1.039 2.591 1.039l-.086 1.988s-.124 8.303.542 9.254c.667.952 9.653 2.247 11.813 1.903l-.045 4.899c2.912.562 10.997 1.668 18.631-1.546ZM565.51 334.198c.221-2.623-3.856-17.371-6.883-27.782l-11.431.581a816.68 816.68 0 0 1 7.026 20.216s-10.216 6.417-15.185 7.283c0 0-4.401 2.18-1.241 4.773 3.16 2.593 27.391-1.247 27.714-5.071Z" fill="#fff" stroke="#000" stroke-miterlimit="10"/><path d="M564.569 328.455c-.957 1.255-2.385 3.767-5.621 4.609-4.496 1.169-13.709 4.369-17.382 3.574-1.694-.366-2.271-1.282-2.401-2.162l-.128.024s-4.401 2.18-1.241 4.773c2.384 1.956 16.717.253 23.785-2.34l-.14 3.71 3.825.141.255-6.749a11.999 11.999 0 0 0-.952-5.58Z" fill="#1C213F"/><path d="M525.109 332.602c.222-2.624-3.857-17.371-6.882-27.781l-11.432.58a821.627 821.627 0 0 1 7.026 20.216s-10.217 6.418-15.185 7.283c0 0-4.401 2.18-1.241 4.773 3.16 2.593 27.39-1.251 27.714-5.071Z" fill="#fff" stroke="#000" stroke-miterlimit="10"/><path d="M524.167 326.86c-.956 1.254-2.385 3.765-5.619 4.608-4.497 1.169-13.709 4.369-17.383 3.575-1.694-.366-2.272-1.283-2.402-2.163l-.127.024s-4.401 2.18-1.241 4.773c2.384 1.956 16.716.254 23.784-2.34l-.14 3.71 3.826.141.255-6.749a11.97 11.97 0 0 0-.953-5.579Z" fill="#1C213F"/><path d="M468.388 193.758s-5.179-2.214-8.135-5c-2.957-2.787-6.665-6.84-7.424-6.165-.759.676-1.013 1.521 0 2.28 1.012.76 3.459 3.462 3.121 3.8-.338.339-12.484-4.475-12.825-4.306-.34.168-.758 1.013 0 1.52.759.507 7.426 4.053 7.426 4.307 0 .254-.254.759-.76.505-.507-.254-8.689-4.137-9.45-3.714-.76.422-.758 1.182 0 1.684.759.503 8.185 3.209 8.437 3.801.253.591-.421.759-.927.591-.506-.169-8.549-1.891-9.027-1.352-.581.655-.633 1.147.464 1.484 1.097.336 8.647 2.232 8.731 2.738.084.507-.841.76-1.435.507-.593-.253-7.802-1.544-8.31-.421-.387.854.043 1.605 2.067 1.773 2.024.169 9.197 1.605 11.305 2.787 2.108 1.182 7.004.507 9.538 1.604a105.186 105.186 0 0 1 4.726 2.196l2.478-10.619Z" fill="#fff" stroke="#000" stroke-miterlimit="10"/><path d="M144.671 220.37h412.997v-4.809H144.671v4.809Z" fill="#E03B1F"/><path d="M275.424 136.058s9.575-1.579 12.732-4.423c3.158-2.844 15.148-8.531 16.311-8.002 1.163.529-.421 1.895-1.052 2-.631.106-6.031 2.948-4.842 3.582 1.19.633 14.167-2.459 14.588-1.757.42.702.28 1.123-1.755 1.404-2.035.281-5.611 1.545-5.611 1.755 0 .211.071.702.982.562.912-.141 8.769-1.194 8.91-.632.14.561.492 1.404-1.193 1.544-1.684.141-8.275.281-8.208.913.068.631-.14.491.702.561.841.07 7.714-.281 7.927-.07.213.211.913 1.263-.771 1.474-1.685.211-8.489-.14-8.489.421 0 .562.351.632.842.667.491.035 7.293-.105 7.647.317.353.423.421 1.404-.982 1.404s-11.361.562-13.82 1.615c-2.459 1.052-8.401 5.459-12.19 10.041-3.788 4.582-10.891 9.9-19.099 12.429.004.001-2.1-13.903 7.371-25.805Z" fill="#EDEAFF" stroke="#000" stroke-miterlimit="10"/><path d="m308.302 208.352.123.022.119-.039 9.933-3.245v10.054l-5.309.927-30.191-.204c3.047-5.245 9.087-7.191 14.604-7.779 2.866-.305 5.55-.239 7.519-.096a41.57 41.57 0 0 1 2.984.325l.165.026.041.007.01.002h.002Z" fill="#fff" stroke="#000"/><path d="M286.599 216.129a.257.257 0 0 1-.109-.026.253.253 0 0 1-.117-.334 11.835 11.835 0 0 1 4.576-4.682.258.258 0 0 1 .194-.029.246.246 0 0 1 .09.045.247.247 0 0 1 .04.36.25.25 0 0 1-.079.062 11.542 11.542 0 0 0-4.369 4.462.255.255 0 0 1-.226.142ZM294.568 216.776c-1.507 0-2.881-.183-3.601-.731a1.369 1.369 0 0 1-.574-1.013c-.051-.727.936-.971 2.078-1.253 1.057-.261 2.254-.562 2.357-1.196.583-3.572 6.217-3.712 6.452-3.716a.251.251 0 1 1 0 .502c-.053 0-5.454.141-5.969 3.294-.157.966-1.525 1.304-2.732 1.603-.725.18-1.72.421-1.699.73a.872.872 0 0 0 .377.65c1.926 1.467 9.617-.06 9.694-.076a.25.25 0 0 1 .257.385.25.25 0 0 1-.159.106c-.2.043-3.588.715-6.481.715Z" fill="#D59B89"/><path d="m334.797 304.394 10.914.108-13.284 22.201-7.816-.259 10.186-22.05Z" fill="#fff" stroke="#000"/><path d="M309.665 334.817c.36-.066.712-.169 1.051-.307 6.86-2.145 12.402-7.935 13.646-8.697 1.51.914 7.208 1.616 8.338.903a1.96 1.96 0 0 1 .372-.172c.447.575 3.522 4.633 3.296 7.59-.027.352-.046.772-.06 1.234l-.24 4.573-30.016.281c-.346-1.694.456-4.908 3.613-5.405Z" fill="#000"/><path d="m310.657 276.76 10.915.109-13.284 22.201-7.817-.259 10.186-22.051Z" fill="#fff" stroke="#000"/><path d="M285.525 307.184c.36-.066.712-.169 1.051-.308 6.86-2.145 12.403-7.934 13.647-8.697 1.509.914 7.206 1.616 8.337.905.117-.072.242-.129.372-.173.447.574 3.521 4.633 3.296 7.589-.027.352-.047.772-.061 1.234l-.239 4.574-30.016.281c-.351-1.696.456-4.908 3.613-5.405Z" fill="#000"/><path d="M412.789 156.851c-1.015-2.336-2.601-6.417-2.601-9.066 0 0 .777-15.393-2.332-19.198-3.11-3.804-17.533-5.563-24.613-4.352 0 0 .036 8.936-.853 10.67-.889 1.733-3.654 3.544-3.048 4.409.606.865 2.592 1.037 2.592 1.037l-.087 1.99s-.123 8.302.543 9.254 9.653 2.246 11.813 1.902l-.045 4.9c2.912.561 10.996 1.667 18.631-1.546Z" fill="#fff"/><path d="M415.717 120.285c-1.554-5.194-13.824-12.281-27.994-7.092 0 0-5.405 4.632-5.33 10.02 1.053 2.52 2.945 2.735 3.093 2.749h.011c2.775.229 6.779.813 6.892 2.279.173 2.246 0 8.302 0 8.302s-.063 1.154-.235 2.61c-.018.157-.038.317-.059.48a3.406 3.406 0 0 1-.379 1.166c-.421.598-1.293 1.592-2.56 1.678-4.156.281-7.222-2.13-7.222-2.13s-.526 2.453-.421 4.671c.087 2.008.207 4.414.327 5.002.199.963.24 2.535.939 2.834.037.014.075.027.113.037 1.603.421 9.8 1.457 11.312.602 1.512-.855 2.863-3.991 2.693-7.87-.17-3.879-2.212-7.746-2.087-9.08 0 0 0-4.671 2.765-4.324 2.764.347 3.283 5.708 1.9 8.648-1.383 2.939.738 6.053.738 6.053l9.977.865s2.419-9.858 4.32-12.799c1.9-2.941 2.763-9.512 1.207-14.701Z" fill="#666" stroke="#000" stroke-miterlimit="10"/><path d="M381.891 146.6a7.305 7.305 0 0 0 3.724.755c.269-.016.27-.438 0-.421a6.885 6.885 0 0 1-3.507-.702c-.241-.119-.456.243-.213.364l-.004.004ZM384.201 131.713l.045.611a.21.21 0 0 0 .062.149.216.216 0 0 0 .148.062.694.694 0 0 0 .582-.44.73.73 0 0 0 .06-.342.673.673 0 0 0-.157-.382.217.217 0 0 0-.095-.055.202.202 0 0 0-.109 0 .695.695 0 0 0-.358 1.112.199.199 0 0 0 .095.055c.036.01.074.009.11-.002a.583.583 0 0 0 .28-.212.584.584 0 0 0 .103-.245.604.604 0 0 0-.177-.573.218.218 0 0 0-.23-.047.208.208 0 0 0-.067.047l-.264.324a.232.232 0 0 0-.062.149.22.22 0 0 0 .062.15.213.213 0 0 0 .297 0l.264-.325h-.297l.033.03c.013.014.02.036-.009-.015l.009.015.024.043c.011.018-.019-.054-.008-.021a.074.074 0 0 0 0 .021c0 .014.007.029.011.043.007.037 0-.021 0-.024a.089.089 0 0 0 0 .023v.049c0 .015-.017.069 0 0a.705.705 0 0 1-.024.087c-.01.032.021-.042.01-.02-.011.023 0 .013-.011.02-.007.013-.014.027-.023.039-.011.017-.029.028.012-.014l-.012.014-.035.034c-.014.014.047-.032.019-.014l-.02.012c-.017.01-.073.033 0 0l.205.055c-.03-.035.008.014.009.014a.423.423 0 0 1-.04-.071c.033.064 0 .014 0-.009v-.026c-.009-.041 0 .012 0 .021v-.11c0-.018-.01.055 0 .02v-.027a.374.374 0 0 1 .017-.057c0-.009.016-.043 0 0-.017.042 0 0 0 0a.296.296 0 0 1 .026-.05l.014-.022c.024-.035-.025.029-.01.014a.36.36 0 0 1 .037-.041l.02-.018c.029-.028-.033.022-.014.011a.668.668 0 0 1 .044-.029l.024-.012c.02-.011-.056.019-.017 0a.545.545 0 0 1 .058-.014l-.205-.054c.023.026-.034-.048 0 0l.014.022.013.024c.017.031-.021-.056 0-.008 0 .016.011.033.015.05s0 .051 0 .007v.098-.021c0 .019-.01.042-.015.064l-.009.025c0 .008-.018.049 0 .01.019-.04 0 0 0 .008l-.012.024-.034.055c-.011.018.034-.042.011-.014l-.018.021a.614.614 0 0 1-.045.043c-.015.014.013-.012.014-.011l-.029.021-.047.025c-.032.016.055-.019.013 0l-.029.01h-.027c-.034.009.063 0 .011 0l.211.211-.045-.611a.219.219 0 0 0-.063-.148.22.22 0 0 0-.148-.063.212.212 0 0 0-.21.211l-.007-.006Z" fill="#000"/><path d="M384.232 129.99a5.908 5.908 0 0 0 3.034-.163c.18-.059.218-.368 0-.406a8.875 8.875 0 0 0-2.789-.041.214.214 0 0 0-.14.259.213.213 0 0 0 .258.147 8.258 8.258 0 0 1 2.564.041v-.406a5.464 5.464 0 0 1-2.805.163c-.265-.055-.378.351-.112.406h-.01Z" fill="#666"/><path d="m340.029 251.322-13.746 67.338 26.034 7.027 21.938-67.631s-12.285-15.81-20.478-14.931c-8.192.878-13.748 8.197-13.748 8.197Z" fill="#D59B89" stroke="#000" stroke-miterlimit="10"/><path d="m401.749 229.95-43.876-7.614s-8.776-2.635-17.252 3.808c-8.476 6.442-38.474 55.94-38.474 55.94l18.583 15.496 12.538-13.196s8.231-37.458 18.175-34.823c9.945 2.635 19.307 16.987 28.375 18.444 9.068 1.457 51.055 7.203 59.826-1.287 8.772-8.491 2.633-26.349 0-30.156-2.632-3.808-37.895-6.612-37.895-6.612Z" fill="#D59B89" stroke="#000" stroke-miterlimit="10"/><path d="M386.246 234.341s-5.557-16.102-7.605-22.543c0 0-26.184 8.597-42.911 7.887-16.728-.711-19.917-.325-19.917-.325l.903-15.968s15.99-5.648 34.275-10.039c0 0 15.064-30.449 40.22-35.427 0 0 20.184-3.22 24.572-2.341 4.389.879 9.34 4.536 15.656 17.663 7.606 15.81 13.757 62.519 11.405 62.69-10.496.763-56.598-1.597-56.598-1.597Z" fill="#F9E341" stroke="#000" stroke-miterlimit="10"/><path d="M378.641 212.299a.503.503 0 0 1-.46-.702.494.494 0 0 1 .22-.24c.034-.018 3.411-1.874 7.196-5.475 3.479-3.305 8.028-8.801 9.94-16.22a.503.503 0 0 1 .61-.361.5.5 0 0 1 .36.611c-1.975 7.662-6.661 13.321-10.239 16.72-3.878 3.678-7.243 5.524-7.384 5.601a.506.506 0 0 1-.243.066Z" fill="#000"/><path d="m101.895 304.366-9.518 23.2 8.337-.256 13.29-23.064-12.109.12Z" fill="#9D7ADA" stroke="#000" stroke-width="2" stroke-miterlimit="10"/><path d="M116.067 335.172a5.334 5.334 0 0 1-1.052-.308c-6.859-2.146-12.402-7.935-13.646-8.697-1.51.914-7.207 1.617-8.338.904a1.756 1.756 0 0 0-.37-.171c-.45.574-3.524 4.632-3.298 7.589.026.352.046.77.06 1.232l.24 4.575 30.023.281c.339-1.696-.462-4.909-3.619-5.405Z" fill="#382234"/><path d="m143.946 303.656-9.518 23.201 8.339-.257 13.288-23.065-12.109.121Z" fill="#9D7ADA" stroke="#000" stroke-width="2" stroke-miterlimit="10"/><path d="M158.118 334.456a5.182 5.182 0 0 1-1.05-.307c-6.861-2.145-12.404-7.935-13.648-8.704-1.509.914-7.206 1.617-8.337.904a1.756 1.756 0 0 0-.371-.171c-.449.573-3.524 4.626-3.297 7.589.027.352.047.771.061 1.233l.24 4.575 30.015.281c.345-1.684-.456-4.897-3.613-5.4Z" fill="#382234"/><path d="M95.225 156.128c1.013-2.334 2.6-6.415 2.6-9.065 0 0-.778-15.393 2.333-19.199 3.111-3.805 17.533-5.562 24.613-4.352 0 0-.036 8.936.852 10.67.888 1.733 3.653 3.546 3.049 4.411-.605.864-2.592 1.037-2.592 1.037l.087 1.989s.123 8.303-.544 9.255c-.668.951-9.653 2.246-11.813 1.902l.045 4.899c-2.911.562-10.995 1.667-18.63-1.547Z" fill="#9D7ADA" stroke="#000" stroke-miterlimit="10"/><path d="M92.295 119.562c1.556-5.194 13.826-12.28 27.996-7.091 0 0 5.403 4.633 5.33 10.021-1.053 2.52-2.945 2.734-3.094 2.747h-.011c-2.774.229-6.779.813-6.891 2.278-.173 2.247 0 8.303 0 8.303h-2.42s0-4.671-2.764-4.324c-2.765.347-3.284 5.707-1.901 8.648 1.383 2.941-.739 6.053-.739 6.053l-9.975.865s-2.42-9.859-4.32-12.799c-1.9-2.94-2.766-9.511-1.21-14.701Z" fill="#000"/><path d="M232 168.24h-61.178c-1.498 0-2.865 1.218-3.05 2.717l-5.02 40.689h-18.888a1.026 1.026 0 0 0-.944.632 1.011 1.011 0 0 0-.077.392v1.839a1.01 1.01 0 0 0 .298.723 1.019 1.019 0 0 0 .723.3h20.72c.13.019.262.028.393.028h61.182c1.499 0 2.864-1.216 3.049-2.716l5.168-41.887c.188-1.497-.876-2.717-2.376-2.717Z" fill="#C7C7C7"/><path d="M166.224 208.334h59.934l4.395-35.217h-59.845l-4.484 35.217Z" fill="#EAEAEA"/><path d="M113.81 154.74s19.614 3.126 25.668 10.137c6.053 7.011 30.245 29.316 43.936 33.141 13.691 3.824 24.197 6.053 24.197 6.053s1.591 8.283 0 12.11h-51.264s-16.874-5.737-20.057-9.879c0 0 1.914 18.926 1.273 27.404-.76 10.073-3.821 29.954-3.821 29.954H65.295v-55.129s.637-37.282 7.642-46.205c7.004-8.923 23.307-8.826 23.307-8.826s4.195 8.564 17.566 1.24Z" fill="#5A437A" stroke="#000" stroke-miterlimit="10"/><path d="M135.658 245.667s30.241.945 42.179 2.141c11.939 1.196 13.373 12.666 11.701 16.968-1.672 4.303-27.46 54.252-33.907 61.422l-22.207-4.78s14.089-33.46 19.098-43.256h-83.33s-3.581-21.031 0-26.767c3.58-5.736 29.33-7.448 66.466-5.728Z" fill="#D59B89" stroke="#000" stroke-miterlimit="10"/><path d="m136.803 277.096-22.923 47.56-24.356-1.433 17.193-45.171 30.086-.956Z" fill="#D59B89" stroke="#000" stroke-miterlimit="10"/><path d="M208.25 203.853h4.657s4.059-4.78 7.76-4.78c3.702 0 10.706 0 11.475 2.093.578 1.574-1.671 2.183-1.671 2.183s3.94-.518 4.198 1.674c.222 1.877-2.182 2.177-2.182 2.177s2.044-.247 2.004 1.925c-.039 2.172-3.064 1.807-3.064 1.807s2.562.301 1.179 2.84c-.701 1.288-4.297 0-4.297 0s2.984 1.434 1.432 2.386c-1.553.952-21.491 0-21.491 0v-12.305Z" fill="#9D7ADA" stroke="#000" stroke-miterlimit="10"/><path d="M136.291 206.804a.497.497 0 0 1-.421-.222c-.071-.106-1.766-2.64-3.565-6.608-1.662-3.665-3.714-9.276-4.051-15.198a.508.508 0 0 1 .127-.362.494.494 0 0 1 .707-.039.5.5 0 0 1 .166.345c.628 11.047 7.379 21.198 7.448 21.302a.507.507 0 0 1-.162.712.492.492 0 0 1-.259.07h.01ZM225.346 204.103a.501.501 0 1 1 0-1.002c.878 0 5.445-.25 5.492-.251a.489.489 0 0 1 .361.127.496.496 0 0 1 .138.539.489.489 0 0 1-.255.286.504.504 0 0 1-.19.049c-.189.009-4.64.252-5.546.252ZM229.917 207.718c-.713 0-1.392 0-1.823-.017a.502.502 0 1 1 .031-1.002c1.25.038 4.72 0 4.755 0a.507.507 0 0 1 .355.143.51.51 0 0 1 .151.353.495.495 0 0 1-.495.506c-.1.002-1.599.017-2.974.017ZM231.821 211.433h-3.928a.502.502 0 0 1 0-1.003h3.928a.5.5 0 0 1 0 1.003ZM228.703 214.274a.281.281 0 0 1-.058 0l-2.081-.238a.518.518 0 0 1-.347-.182.505.505 0 0 1-.049-.565.509.509 0 0 1 .509-.249l2.082.238a.499.499 0 0 1 .437.526.503.503 0 0 1-.493.474v-.004ZM152.606 278.655l-.158-.99c.112-.018 11.258-1.881 22.006-9.988l.603.801c-5.725 4.319-11.516 6.854-15.366 8.22-4.18 1.484-6.969 1.939-7.085 1.957Z" fill="#000"/><path d="M168.091 274.512c-1.741 0-2.702-.271-2.78-.293l.28-.963c.037.009 3.726 1.023 10.033-1.157l.327.947c-3.386 1.185-6.045 1.466-7.86 1.466Z" fill="#000"/><path d="M544.18 158.133s-17.086 2.281-27.11 15.507c-10.025 13.225-23.24 18.926-24.606 19.154-1.366.227-18.655 1.442-26.559-.23l-2.604 12.088s23.998 11.705 31.138 11.705c7.139 0 25.06-7.753 25.06-7.753s-1.215 22.803 3.038 25.236 5.47 9.125 10.632 11.858c5.161 2.733 17.315 11.554 23.694 11.554 6.379 0 29.466-.305 30.073-1.521.607-1.215-.303-26.148 1.216-27.06 1.519-.913 12.151-1.216 17.314-11.249 5.163-10.034-2.734-23.411-4.556-31.013s-5.772-24.018-21.568-28.276c0 0-7.822-.798-11.125-.798 0-.004-18.101-.624-24.037.798Z" fill="#5A437A" stroke="#000" stroke-miterlimit="10"/><path d="M527.777 236.115s-26.428.229-36.908 4.334c-10.48 4.105-15.265 21.434-13.214 28.96s19.872 37.887 21.694 41.307l25.289-1.596s-10.987-34.695-10.303-38.115c.683-3.42 4.557-2.509 4.557-2.509s15.709 37.545 19.131 41.423l29.39-1.369s-13.886-41.194-13.886-43.019c0-1.825 28.473.229 30.757-1.367 2.283-1.596 2.426-3.879 2.665-8.437.238-4.558-11.544-18.016-18.834-18.699-7.291-.684-40.338-.913-40.338-.913Z" fill="#D59B89" stroke="#000" stroke-miterlimit="10"/><path d="M593.703 163.763c-8.857-13.172-7.592-14.178-7.086-22.293.506-8.114-5.822-14.186-10.379-17.732-4.406-3.431-2.894-8.993-11.262-10.27-14.256-3.676-22.403 2.438-25.037 4.959-.021.031-1.571 2.231-1.263 3.826.208 1.096.672 2.065 1.301 2.635a3.23 3.23 0 0 0 1.505.63h.011c2.776.229 4.973 2.983 6.52 5.179 0 0 1.403 3.437 1.463 4.419 2.137-3.068 4.106-2.562 4.106-2.562 2.764.347 3.271 4.929 1.888 7.869a4.7 4.7 0 0 0-.229.583s-2.756 7.85-.31 13.464c1.173 2.687.884 5.054.265 6.785-.503.966-1.101 1.979-1.736 3.028-2.985 4.922-6.814 10.584-5.815 15.442 1.771 8.614 6.833 23.814 27.587 16.213 20.754-7.6 27.33-19.002 18.471-32.175Z" fill="#353535"/><path d="M535.247 268.998h-16.356a.502.502 0 0 1 0-1.003h16.356a.5.5 0 0 1 0 1.003ZM519.499 209.101a.496.496 0 0 1-.466-.297.496.496 0 0 1 .093-.545c.019-.023 1.983-2.231 4.133-6.156a47.445 47.445 0 0 0 5.438-16.839.498.498 0 0 1 .558-.437.5.5 0 0 1 .437.559 48.498 48.498 0 0 1-5.57 17.229c-2.205 4.017-4.168 6.221-4.25 6.318a.515.515 0 0 1-.373.168Z" fill="#000"/><path d="M192.148 341.046a.995.995 0 0 1-1.003-1.002V220.37a1.007 1.007 0 0 1 1.003-1.042c.134 0 .268.028.392.08a1.017 1.017 0 0 1 .544.566.992.992 0 0 1 .066.396v119.674a1.003 1.003 0 0 1-1.002 1.002Z" fill="#382234"/><path d="M426.487 84.616c-1.099-.997-1.543-2.478-1.684-3.914-.078-.834-.071-1.674-.074-2.51 0-.864-.002-1.727-.007-2.59v-2.94a.209.209 0 0 0-.062-.149.21.21 0 0 0-.297 0 .209.209 0 0 0-.062.149c0 1.785.005 3.57.014 5.354 0 1.64-.043 3.349.561 4.904a5.189 5.189 0 0 0 1.317 1.995c.195.181.494-.117.294-.3ZM425.912 43.257c-.758-.16-1.219-.908-1.664-1.515a15.342 15.342 0 0 0-1.543-1.8 15.907 15.907 0 0 0-3.767-2.788c-2.758-1.467-5.901-2.095-8.964-1.677-1.86.255-3.657.842-5.42 1.5-1.581.596-3.194 1.18-4.69 1.991-1.403.758-2.682 1.794-3.498 3.249-.794 1.413-1.122 3.088-1.079 4.725.086 3.61 1.938 6.768 4.042 9.46.271.346.547.688.826 1.026.181.216.477-.103.299-.32-2.147-2.59-4.253-5.582-4.672-9.117-.188-1.58-.053-3.239.544-4.71.615-1.512 1.704-2.66 3.017-3.496 1.38-.877 2.915-1.44 4.417-2.025 1.728-.676 3.48-1.316 5.292-1.677a14.463 14.463 0 0 1 8.992 1.123c2.088.978 3.93 2.411 5.392 4.195.481.587.876 1.286 1.438 1.791.258.247.578.42.925.504.264.05.378-.383.113-.439Z" fill="#000"/><path d="M435.654 49.29a7.057 7.057 0 0 0-3.098-4.199 7.046 7.046 0 0 0-6.023-.676c-.255.089-.14.496.111.407 2.265-.786 4.878-.28 6.648 1.344a6.78 6.78 0 0 1 1.809 2.751c.421 1.215.446 2.516.225 3.774-.24 1.359-.727 2.66-1.24 3.93a197.946 197.946 0 0 1-1.436 3.482c-.96 2.266-1.981 4.51-3.19 6.654-1.209 2.146-2.592 4.162-4.265 5.95-.208.222-.421.44-.636.654a.21.21 0 0 0 .298.298c1.789-1.779 3.289-3.83 4.569-6 1.295-2.196 2.375-4.51 3.378-6.851.498-1.161.982-2.33 1.454-3.5.536-1.314 1.071-2.639 1.378-4.029.289-1.307.363-2.681.018-3.99ZM407.347 63.325l-1.302 4.352a.22.22 0 0 0-.003.096.217.217 0 0 0 .113.148.215.215 0 0 0 .093.023 8.797 8.797 0 0 0 3.243-.224c.262-.067.15-.474-.112-.405a8.496 8.496 0 0 1-3.131.208l.202.266 1.302-4.352c.079-.26-.328-.37-.405-.11v-.002Z" fill="#000"/><path d="M209.273 94.437a23.642 23.642 0 0 0 8.654-1.06c.256-.081.14-.488-.113-.405a23.249 23.249 0 0 1-8.541 1.044c-.27-.017-.27.404 0 .421Z" fill="#000" stroke="#000" stroke-width=".5"/><path d="M217.844 93.275a6.984 6.984 0 0 0 2.272-4.23c.036-.264-.369-.38-.405-.11a6.628 6.628 0 0 1-2.165 4.042c-.203.18.096.477.298.298ZM232.904 87.668l2.214 4.616c.117.244.48.03.364-.212l-2.215-4.618c-.117-.244-.48-.03-.363.214Z" fill="#000"/><path d="M235.355 92.38a14.894 14.894 0 0 1 7.14-.172c.265.057.377-.348.112-.406a15.357 15.357 0 0 0-7.364.173.21.21 0 0 0-.122.1.21.21 0 0 0 .234.305Z" fill="#000" stroke="#000" stroke-width=".5"/><path d="M218.009 93.5c1.285 2.786 3.431 5.6 6.604 6.221a9.384 9.384 0 0 0 4.602-.317 7.969 7.969 0 0 0 2.01-.947 7.41 7.41 0 0 0 1.638-1.532c1.142-1.404 2.077-2.965 2.64-4.696.084-.258-.323-.368-.406-.111a13.793 13.793 0 0 1-2.175 4.056 8.72 8.72 0 0 1-1.514 1.628 7.026 7.026 0 0 1-1.84 1.03 9.16 9.16 0 0 1-4.384.56 6.722 6.722 0 0 1-2.125-.628 7.506 7.506 0 0 1-1.839-1.328c-1.225-1.167-2.142-2.616-2.847-4.146-.114-.245-.476-.032-.364.212V93.5Z" fill="#000" stroke="#000" stroke-width=".75"/><path d="M401.053 58.196c1.485.418 3.019.64 4.561.66a.632.632 0 1 0 0-1.264 16.812 16.812 0 0 1-1.615-.097l-.268-.03c-.027 0-.101-.014-.033 0l-.167-.025a16.96 16.96 0 0 1-2.143-.46.63.63 0 0 0-.776.441.633.633 0 0 0 .441.777v-.002ZM412.251 58.55c1.033.182 2.083.243 3.13.183.329-.02.648-.28.631-.632-.014-.325-.281-.652-.631-.631a12.93 12.93 0 0 1-2.169-.05l-.171-.02c-.04 0-.172-.023-.059-.006-.132-.02-.263-.04-.395-.062-.324-.056-.702.086-.776.44-.07.307.093.718.44.779ZM404.076 60.726c-.24.32-.11.809.209 1.021.343.226.848.04 1.012-.324a.653.653 0 0 0-.04-.635.762.762 0 0 0-.505-.345.66.66 0 0 0-.61.216.561.561 0 0 0 .062.818.497.497 0 0 0 .559.027.497.497 0 0 0 .21-.31.428.428 0 0 0 0-.214.51.51 0 0 0-.039-.092.246.246 0 0 0-.168-.107.21.21 0 0 0-.258.14.216.216 0 0 0 .14.26l.042.012-.125-.097c.016.026-.018-.048 0 0 0 .007 0 .03 0 0s0-.01 0 0c0 .045.013-.04 0 0 0 .01-.019.064 0 .03.02-.036 0 .006-.011.016s.032-.032 0 0c0 0-.048.043-.018.02.029-.024-.014 0-.024.01-.01.012.042-.009.018-.008h-.017c-.031.012.017 0 .021 0h-.023c-.027 0 0-.014.016 0 .017.014-.014 0-.018 0l-.024-.008c-.019 0 .042.025.01 0-.008 0-.048-.032-.022-.011.025.02-.012-.013-.017-.019a.186.186 0 0 0-.017-.02s.028.044.01.012a.356.356 0 0 0-.025-.045c.012 0 .014.042 0 .014-.014-.028 0-.017-.007-.025v-.02c-.007-.026 0 .045 0 .018v-.046c0-.004-.009.046 0 .017a.184.184 0 0 1 .008-.032v-.019c.011-.036 0 .015 0 .015a.381.381 0 0 0 .025-.047l.011-.017c.016-.022-.028.031-.008.013l.038-.04c.038-.033-.025.016 0 0l.046-.027a.083.083 0 0 0 .024-.012s-.041.014-.02.009a.415.415 0 0 1 .059-.019h.026-.024.07c.025 0 0 .013-.017 0 .011.009.035.008.049.012.014.004.034.014.049.017.015.002-.039-.02-.02-.009l.023.011.039.023.023.014c.032.02-.026-.023 0 0a.83.83 0 0 1 .068.069c.021.024-.025-.038 0 0a.393.393 0 0 1 .042.07c-.015-.034 0 .014 0 .024s0 .03.01.043c.01.014 0-.045 0-.018v.079c0 .015.011-.047 0-.02v.017c0 .006-.008.03-.014.046-.005.016-.007.017-.008.023-.002.005.021-.042.007-.017-.014.025-.014.028-.024.042-.01.014-.034.046-.011.018.022-.028-.007.009-.014.016a.594.594 0 0 1-.04.038l-.014.012c-.025.023.012-.01.014-.011a.373.373 0 0 1-.04.027.207.207 0 0 1-.037.02l-.017.01c-.036.017.034-.012.012 0l-.087.023c-.037.01.049 0 0 0a.348.348 0 0 1-.054 0h-.039a.292.292 0 0 0-.046-.015s.048.023.018.008l-.021-.011-.042-.027c-.018-.011.02.015.02.015a.157.157 0 0 0-.026-.022l-.032-.034-.014-.018s.027.04.013.016-.032-.062-.051-.09c0 0 .016.043.01.022l-.01-.026c0-.017-.01-.034-.014-.051-.004-.017-.01-.062 0-.024s0-.018 0-.03v-.044a.095.095 0 0 0 0-.024.113.113 0 0 0-.116-.104.11.11 0 0 0-.076.034.11.11 0 0 0-.032.078c0 .03.011.057.032.078a.11.11 0 0 0 .155.006.11.11 0 0 0 .037-.075c0-.016 0-.03.01-.045a.075.075 0 0 0 0-.021c.01-.034 0 0 0 .012.02-.026.031-.06.052-.088a.203.203 0 0 0 .027-.08.208.208 0 0 0-.262-.228.216.216 0 0 0-.128.096v-.016ZM413.278 60.909a.513.513 0 0 0-.593.101.567.567 0 0 0-.174.542.484.484 0 0 0 .442.348.602.602 0 0 0 .464-.16.482.482 0 0 0 .141-.227.511.511 0 0 0-.252-.567.495.495 0 0 0-.458-.033.422.422 0 0 0-.136.1.486.486 0 0 0-.111.296.475.475 0 0 0 .303.465.39.39 0 0 0 .474-.216.506.506 0 0 0 .049-.255.372.372 0 0 0-.273-.35.215.215 0 0 0-.164.017.21.21 0 0 0-.101.129.197.197 0 0 0-.006.083.203.203 0 0 0 .083.142.206.206 0 0 0 .075.036l.023.007-.051-.021a.133.133 0 0 1 .037.022l-.042-.034.025.026-.034-.042a.14.14 0 0 1 .021.036l-.021-.05a.272.272 0 0 1 .016.056l-.009-.056a.224.224 0 0 1 0 .072l.007-.054a.296.296 0 0 1-.018.071l.021-.05a.278.278 0 0 1-.034.059l.033-.042a.21.21 0 0 1-.038.038l.043-.033a.15.15 0 0 1-.042.024l.051-.02a.17.17 0 0 1-.037.009l.056-.007a.263.263 0 0 1-.047 0l.056.007a.177.177 0 0 1-.048-.013l.051.021a.19.19 0 0 1-.045-.026l.042.033a.229.229 0 0 1-.037-.038l.033.043a.266.266 0 0 1-.037-.064l.021.05a.358.358 0 0 1-.021-.078l.009.056a.231.231 0 0 1 0-.082l-.009.056a.356.356 0 0 1 .02-.072l-.021.05a.271.271 0 0 1 .026-.047l-.032.043a.221.221 0 0 1 .038-.039l-.042.032a.31.31 0 0 1 .048-.028l-.05.022a.332.332 0 0 1 .064-.017l-.055.008a.26.26 0 0 1 .066 0l-.056-.007a.368.368 0 0 1 .078.021l-.05-.02a.421.421 0 0 1 .08.045l-.044-.032c.025.02.047.04.066.065l-.033-.042a.39.39 0 0 1 .042.073l-.022-.051a.305.305 0 0 1 .019.066l-.009-.056a.215.215 0 0 1 0 .071v-.056a.183.183 0 0 1-.018.065l.023-.05a.298.298 0 0 1-.037.061l.032-.042a.293.293 0 0 1-.056.055l.044-.033a.5.5 0 0 1-.087.051l.05-.021a.483.483 0 0 1-.109.03l.056-.008a.456.456 0 0 1-.107 0l.056.007a.342.342 0 0 1-.081-.022l.051.022a.301.301 0 0 1-.062-.036l.042.032a.278.278 0 0 1-.044-.043l.034.043a.33.33 0 0 1-.035-.059l.021.05a.39.39 0 0 1-.018-.067l.008.056a.309.309 0 0 1 0-.074l-.008.056a.377.377 0 0 1 .025-.087l-.021.05a.374.374 0 0 1 .051-.086l-.034.043a.42.42 0 0 1 .076-.077l-.042.034a.344.344 0 0 1 .085-.05l-.05.02a.307.307 0 0 1 .078-.022l-.056.007a.284.284 0 0 1 .076 0l-.056-.009c.02.005.04.01.06.017l-.049-.02h.013a.218.218 0 0 0 .162.02.206.206 0 0 0 .125-.095.213.213 0 0 0-.074-.29l.005.016Z" fill="#000"/><path d="M405.941 75.322a3.903 3.903 0 0 0 3.072 1.063 3.953 3.953 0 0 0 2.758-1.624.428.428 0 0 0 .044-.32.413.413 0 0 0-.195-.257.43.43 0 0 0-.576.151 3.055 3.055 0 0 1-2.084 1.213 3.083 3.083 0 0 1-2.424-.821c-.393-.373-.989.22-.595.595Z" fill="#fff"/><path d="M122.662 146.505a3.292 3.292 0 0 0 2.955 0c.243-.123.03-.486-.212-.364a2.848 2.848 0 0 1-2.531 0c-.242-.121-.455.241-.212.364ZM121.996 132.622a1.099 1.099 0 0 0 .081 1.272.204.204 0 0 0 .205.054.831.831 0 0 0 .544-.675.845.845 0 0 0-.33-.842.207.207 0 0 0-.106-.03.21.21 0 0 0-.106.03.95.95 0 0 0-.295 1.263.209.209 0 0 0 .128.097.207.207 0 0 0 .16-.021.88.88 0 0 0 .421-.764l-.21.211h-.025c.021 0 .014 0-.021-.01.032.017-.037-.035-.012-.008-.043-.046-.016-.017 0 0 .017.017 0 0-.011-.027a.074.074 0 0 1 0 .021c.009.04 0-.05 0-.012 0 .037.011-.036 0 0-.011.035.025-.045 0-.013s0 .013.016-.018c-.013.011-.01.01 0 0 .009-.01.018-.014 0 0a.096.096 0 0 1 .06-.017c-.039 0 .05.014.011 0 .034.014.039.017.02.007l.015.011-.01-.008.012.014a.086.086 0 0 1-.013-.02l.011.028-.007-.024v.023c0-.04-.015.046 0 .01a.169.169 0 0 0-.008.019c-.021.027-.026.032-.009.016a.21.21 0 0 0-.297-.298c-.281.272.08.8.432.597a.372.372 0 0 0 .16-.413.36.36 0 0 0-.34-.281.216.216 0 0 0-.148.062.214.214 0 0 0-.062.149v.076c0 .025.008-.038 0 0v.033a.452.452 0 0 1-.025.08c-.01.027 0 .011 0 0l-.02.037a.716.716 0 0 1-.039.066c-.013.018-.01.011 0 0l-.028.032a.676.676 0 0 1-.055.052c-.017.015-.011.008 0 0l-.042.028.281.076-.033-.058s-.015-.036 0-.008c.016.028 0 0 0-.01s-.042-.107-.031-.119c.012-.013 0 .047 0 0v-.155c0-.011-.008.044 0 .013.009-.031 0-.024.007-.037a.36.36 0 0 1 .038-.119c-.007.009-.016.035 0 .01a.632.632 0 0 1 .047-.083l.016-.025s.026-.028 0-.007c-.025.021.007-.009.012-.013l.019-.022.044-.04c.033-.03-.025.013 0 0a.211.211 0 0 0 .031-.021h-.212c.034.024-.035-.033 0 0l.031.031a.216.216 0 0 1 .025.027c.029.031-.027-.041 0 0s.028.043.041.067v.017c.009.02.007.014 0-.017a.544.544 0 0 1 .032.106c0 .007.008.06 0 .021-.009-.04 0 .014 0 .021a.457.457 0 0 1 0 .074.241.241 0 0 1 0 .038.192.192 0 0 1-.064.157.194.194 0 0 1-.271-.009.195.195 0 1 1 .335-.148c-.01.051-.023.102-.039.152-.014.04.019-.041 0 0 0 .012-.012.025-.019.038a.543.543 0 0 1-.042.068c-.018.026-.022.012 0 0-.01 0-.017.02-.024.028-.007.009-.046.037-.063.058.014-.018.034-.024 0 0l-.032.018c-.01.007-.021.012-.032.017-.032.017.047-.017-.009 0l.205.053c.032.041-.011-.016-.017-.025l-.033-.056c-.01-.018-.017-.035-.026-.053-.008-.019 0-.01 0 .012a.82.82 0 0 1-.046-.161c0-.013-.017-.059 0-.01a.25.25 0 0 1 0-.067 1.141 1.141 0 0 1 0-.117c0-.024 0-.022 0 0v-.032c0-.011.01-.044.016-.066a.258.258 0 0 1 .014-.048c.005-.015.032-.076.008-.027.019-.04.041-.079.065-.118a.21.21 0 0 0-.075-.287.21.21 0 0 0-.159-.02.214.214 0 0 0-.13.096l.033-.027ZM121.47 130.49h2.165a.212.212 0 0 0 .211-.211.212.212 0 0 0-.211-.211h-2.165a.212.212 0 0 0-.211.211.212.212 0 0 0 .211.211ZM540.522 133.796a.041.041 0 0 1 0 .022l.016-.112v.018l.042-.101a.118.118 0 0 1-.011.019l.064-.084a.081.081 0 0 1-.018.019l.085-.066a.135.135 0 0 1-.026.015l.101-.042a.098.098 0 0 1-.028.008l.111-.015a.113.113 0 0 1-.026 0l.111.015h-.019l.1.042-.016-.008.085.066-.014-.014.066.086-.008-.016.042.1a.074.074 0 0 1 0-.021l.014.112a.122.122 0 0 1 0-.027l-.016.113a.23.23 0 0 1 .007-.028l-.042.101c.004-.01.01-.02.016-.028l-.066.085a.114.114 0 0 1 .019-.019l-.085.066.017-.01-.1.042h.02l-.112.015a.054.054 0 0 1 .018 0l-.363-.209-.043-.101v.022l-.015-.112a.096.096 0 0 1 0 .024l.015-.111a.09.09 0 0 1-.008.028l.042-.099a.117.117 0 0 1-.017.028l.066-.085a.172.172 0 0 1-.027.027l.086-.066a.202.202 0 0 1-.032.018l.101-.042-.03.007.113-.014h-.026l.113.014a.049.049 0 0 1-.024 0l.101.042a.055.055 0 0 1-.021-.012l.085.066a.057.057 0 0 1-.015-.016l.066.086a.092.092 0 0 1-.013-.021l.042.101a.109.109 0 0 1-.008-.031l.015.112a.204.204 0 0 1 0-.035l-.015.113a.182.182 0 0 1 .011-.04l-.042.101a.134.134 0 0 1 .017-.031l-.066.086a.107.107 0 0 1 .019-.018l-.085.064a.094.094 0 0 1 .022-.012l-.101.042h.023l-.112.015a.315.315 0 0 0 .162-.035.313.313 0 0 0 .14-.088.297.297 0 0 0 .087-.141.307.307 0 0 0 .037-.162l-.015-.111a.417.417 0 0 0-.109-.187l-.084-.066a.442.442 0 0 0-.213-.058.533.533 0 0 0-.255.072.558.558 0 0 0-.246.331v.012c0 .04-.012.082-.015.122a.53.53 0 0 0 .255.466.517.517 0 0 0 .525-.003l.012-.009a.964.964 0 0 0 .094-.071l.023-.023a.572.572 0 0 0 .133-.233.512.512 0 0 0-.046-.391l-.066-.086-.084-.064a.467.467 0 0 0-.351-.041h-.012a1.174 1.174 0 0 0-.103.043.42.42 0 0 0-.144.134c-.011.014-.028.033-.041.052a.787.787 0 0 0-.053.123.029.029 0 0 0 0 .013.604.604 0 0 0 .047.386.524.524 0 0 0 .08.107.37.37 0 0 0 .11.081.916.916 0 0 0 .102.043h.009c.04.011.082.017.124.019a.605.605 0 0 0 .141-.017h.015a1.44 1.44 0 0 0 .114-.048l.014-.008a2.18 2.18 0 0 0 .095-.073.543.543 0 0 0 .084-.107.033.033 0 0 0 0-.014.786.786 0 0 0 .048-.112.752.752 0 0 0 .017-.125v-.017a.46.46 0 0 0-.124-.298.31.31 0 0 0-.14-.087.317.317 0 0 0-.163-.036l-.11.015a.425.425 0 0 0-.187.108l-.066.086a.426.426 0 0 0-.057.212l-.005-.008ZM540.209 144.194c1.358.954 3.323.808 4.544-.305.2-.182-.097-.48-.298-.298-1.088.994-2.833 1.083-4.032.239-.223-.156-.434.209-.214.364ZM540.461 130.946a3.489 3.489 0 0 1 2.182 1.422c.039.055.163.066.219.067a.79.79 0 0 0 .318-.064c.114-.051.324-.17.219-.318a3.869 3.869 0 0 0-2.438-1.544.725.725 0 0 0-.575.154c-.125.111-.095.246.075.281v.002Z" fill="#000"/><path d="M397.878 341.055a1.011 1.011 0 0 1-.709-.293.998.998 0 0 1-.294-.71v-58.558a1 1 0 0 1 1.002-.967 1.003 1.003 0 0 1 1.002.967v58.553a.996.996 0 0 1-.617.931.994.994 0 0 1-.384.077Z" fill="#382234"/><path d="M422.232 341.055h-47.994a1.002 1.002 0 0 1 0-2.005h47.994a1.003 1.003 0 0 1 0 2.005Z" fill="#382234"/><path d="M364.163 279.6c.073-.257.156-.521.246-.786.056-.166.114-.333.174-.499.722-1.732 2.712-4.051 2.712-4.051 3.619-3.791 15.045-16.918 15.045-16.918l11.289-55.452s.716-6.458 3.104-7.17c2.389-.711 49.732-2.868 51.404-1.433 1.672 1.435 3.582 2.868 2.866 7.169-.717 4.302-14.328 75.762-14.328 75.762s-.477 3.345-3.581 4.301c-2.771.854-55.62 2.279-67.071 1.553-2.012-.386-1.86-2.476-1.86-2.476Z" fill="#C7C7C7"/><path d="M91.368 340.695a1 1 0 0 1-1.002-1.003v-58.554a1.004 1.004 0 0 1 2.004 0v58.554a1.003 1.003 0 0 1-1.002 1.003Z" fill="#382234"/><path d="M115.727 340.695H67.733a1.005 1.005 0 0 1-.733-1.726 1.01 1.01 0 0 1 .733-.28h47.994a1.02 1.02 0 0 1 .734.28 1.014 1.014 0 0 1 .307.723 1.019 1.019 0 0 1-.307.723 1.008 1.008 0 0 1-.734.28Z" fill="#382234"/><path d="M43.085 209.825s-2.547-6.373 0-8.282c2.547-1.91 45.209-1.592 49.666-1.592 4.458 0 5.731 1.91 7.642 7.646 1.91 5.737 18.146 69.15 18.146 69.15h29.291v4.784s-25.151 3.823-29.609 3.823H65.689s-3.183-.319-3.82-1.912-18.784-73.617-18.784-73.617Z" fill="#C7C7C7"/><path d="M559.765 341.055a1.003 1.003 0 0 1-1.002-1.003v-58.558a1.006 1.006 0 0 1 1.002-.967 1.003 1.003 0 0 1 1.002.967v58.553a.996.996 0 0 1-.617.931.998.998 0 0 1-.385.077Z" fill="#382234"/><path d="M584.121 341.055h-47.987a1.003 1.003 0 0 1 0-2.005h47.994a1 1 0 0 1 1.002 1.002 1.003 1.003 0 0 1-1.002 1.003h-.007Z" fill="#382234"/><path d="M526.052 279.6a17.49 17.49 0 0 1 .419-1.285c.722-1.732 2.711-4.051 2.711-4.051 3.619-3.791 15.046-16.918 15.046-16.918l11.288-55.452s.717-6.458 3.104-7.17c2.387-.711 49.734-2.868 51.405-1.433 1.672 1.435 3.581 2.868 2.866 7.169-.715 4.302-14.328 75.762-14.328 75.762s-.477 3.345-3.582 4.301c-2.771.854-55.619 2.279-67.069 1.553-2.017-.386-1.86-2.476-1.86-2.476Z" fill="#C7C7C7"/></g><defs><clipPath id="a"><path fill="#fff" d="M0 0h655v396H0z"/></clipPath></defs></svg>