<svg width="80" height="88" viewBox="0 0 80 88" fill="none" xmlns="http://www.w3.org/2000/svg">
<path fill-rule="evenodd" clip-rule="evenodd" d="M73 26.0001C72.4486 26.0001 72 25.5515 72 25.0001C72 24.4487 72.4486 24.0001 73 24.0001C73.5514 24.0001 74 24.4487 74 25.0001C74 25.5515 73.5514 26.0001 73 26.0001Z" fill="#CACAFB"/>
<path fill-rule="evenodd" clip-rule="evenodd" d="M7 26.0001C6.4486 26.0001 6 25.5515 6 25.0001C6 24.4487 6.4486 24.0001 7 24.0001C7.5514 24.0001 8 24.4487 8 25.0001C8 25.5515 7.5514 26.0001 7 26.0001Z" fill="#CACAFB"/>
<path fill-rule="evenodd" clip-rule="evenodd" d="M11 76.0001C10.4486 76.0001 10 75.5515 10 75.0001C10 74.4487 10.4486 74.0001 11 74.0001C11.5514 74.0001 12 74.4487 12 75.0001C12 75.5515 11.5514 76.0001 11 76.0001Z" fill="#CACAFB"/>
<path fill-rule="evenodd" clip-rule="evenodd" d="M65 80.0001C64.4486 80.0001 64 79.5515 64 79.0001C64 78.4487 64.4486 78.0001 65 78.0001C65.5514 78.0001 66 78.4487 66 79.0001C66 79.5515 65.5514 80.0001 65 80.0001Z" fill="#CACAFB"/>
<path fill-rule="evenodd" clip-rule="evenodd" d="M19 14.0001C18.4486 14.0001 18 13.5515 18 13.0001C18 12.4487 18.4486 12.0001 19 12.0001C19.5514 12.0001 20 12.4487 20 13.0001C20 13.5515 19.5514 14.0001 19 14.0001Z" fill="#CACAFB"/>
<path fill-rule="evenodd" clip-rule="evenodd" d="M55 86.0001C54.4486 86.0001 54 85.5515 54 85.0001C54 84.4487 54.4486 84.0001 55 84.0001C55.5514 84.0001 56 84.4487 56 85.0001C56 85.5515 55.5514 86.0001 55 86.0001Z" fill="#CACAFB"/>
<path fill-rule="evenodd" clip-rule="evenodd" d="M16 38.0001C16 35.7935 17.7935 34.0001 20 34.0001C22.2065 34.0001 24 35.7935 24 38.0001C24 40.2066 22.2065 42.0001 20 42.0001C17.7935 42.0001 16 40.2066 16 38.0001ZM22 38.0001C22 36.8981 21.102 36.0001 20 36.0001C18.898 36.0001 18 36.8981 18 38.0001C18 39.102 18.8981 40.0001 20 40.0001C21.1019 40.0001 22 39.102 22 38.0001Z" fill="#F4BE30"/>
<path fill-rule="evenodd" clip-rule="evenodd" d="M26 34.0001C26 31.7935 27.7935 30.0001 30 30.0001C32.2065 30.0001 34 31.7935 34 34.0001C34 36.2066 32.2065 38.0001 30 38.0001C27.7935 38.0001 26 36.2066 26 34.0001ZM32 34.0001C32 32.8981 31.102 32.0001 30 32.0001C28.898 32.0001 28 32.8981 28 34.0001C28 35.102 28.8981 36.0001 30 36.0001C31.1019 36.0001 32 35.102 32 34.0001Z" fill="#F4BE30"/>
<path d="M26.5528 34.1057C27.0468 33.8587 27.6474 34.0589 27.8944 34.5529C28.1238 35.0116 27.9675 35.5623 27.5485 35.8364L27.4472 35.8945L23.4472 37.8945C22.9532 38.1415 22.3526 37.9413 22.1056 37.4473C21.8762 36.9886 22.0325 36.438 22.4515 36.1639L22.5528 36.1057L26.5528 34.1057Z" fill="#F4BE30"/>
<path d="M32.2929 35.293C32.6534 34.9325 33.2206 34.9048 33.6129 35.2098L33.7071 35.293L37.7071 39.293C38.0976 39.6835 38.0976 40.3167 37.7071 40.7072C37.3466 41.0677 36.7794 41.0954 36.3871 40.7904L36.2929 40.7072L32.2929 36.7072C31.9024 36.3167 31.9024 35.6835 32.2929 35.293Z" fill="#F4BE30"/>
<path fill-rule="evenodd" clip-rule="evenodd" d="M50 42.0001C50 36.485 54.485 32.0001 60 32.0001C65.515 32.0001 70 36.485 70 42.0001C70 47.515 65.5149 52.0001 60 52.0001C54.4851 52.0001 50 47.515 50 42.0001ZM68 42.0001C68 37.5895 64.4105 34.0001 60 34.0001C55.5895 34.0001 52 37.5895 52 42.0001C52 46.4104 55.5897 50.0001 60 50.0001C64.4103 50.0001 68 46.4104 68 42.0001Z" fill="#F4BE30"/>
<path d="M60.0366 36.7319C60.1848 36.1998 60.7362 35.8886 61.2682 36.0368C63.6078 36.6882 65.4014 38.5232 65.8762 40.7984C65.989 41.339 65.6422 41.8687 65.1016 41.9816C64.5609 42.0944 64.0312 41.7476 63.9184 41.207C63.5998 39.6805 62.3664 38.4186 60.7318 37.9635C60.1997 37.8153 59.8885 37.2639 60.0366 36.7319Z" fill="#F4BE30"/>
<path d="M65.9641 48.1341C66.4082 47.8777 66.9673 48.0007 67.266 48.4025L67.3301 48.5001L73.3301 58.8924C74.1586 60.3273 73.6669 62.1621 72.2321 62.9905C70.8484 63.7893 69.0929 63.3607 68.2265 62.0425L68.134 61.8924L62.134 51.5001C61.8578 51.0218 62.0217 50.4102 62.5 50.1341C62.9441 49.8777 63.5032 50.0007 63.8019 50.4025L63.866 50.5001L69.866 60.8924C70.1422 61.3707 70.7538 61.5346 71.2321 61.2585C71.6762 61.002 71.8492 60.4564 71.6506 59.9968L71.5981 59.8924L65.5981 49.5001C65.3219 49.0218 65.4858 48.4102 65.9641 48.1341Z" fill="#F4BE30"/>
<path d="M44.5528 38.1057C45.0468 37.8587 45.6474 38.0589 45.8944 38.5529C46.1238 39.0116 45.9675 39.5623 45.5485 39.8364L45.4472 39.8945L43.4472 40.8945C42.9532 41.1415 42.3526 40.9413 42.1056 40.4473C41.8762 39.9886 42.0325 39.438 42.4515 39.1639L42.5528 39.1057L44.5528 38.1057Z" fill="#F4BE30"/>
<path fill-rule="evenodd" clip-rule="evenodd" d="M36 40.0001C36 37.7935 37.7935 36.0001 40 36.0001C42.2065 36.0001 44 37.7935 44 40.0001C44 42.2066 42.2065 44.0001 40 44.0001C37.7935 44.0001 36 42.2066 36 40.0001ZM42 40.0001C42 38.8981 41.102 38.0001 40 38.0001C38.898 38.0001 38 38.8981 38 40.0001C38 41.102 38.8981 42.0001 40 42.0001C41.1019 42.0001 42 41.102 42 40.0001Z" fill="#F4BE30"/>
<path d="M59 24.0001C59.5128 24.0001 59.9355 24.3862 59.9933 24.8835L60 25.0001V27.0001C60 27.5524 59.5523 28.0001 59 28.0001C58.4872 28.0001 58.0645 27.6141 58.0067 27.1167L58 27.0001V26.0001H12V62.0001H58V57.0001C58 56.4873 58.386 56.0646 58.8834 56.0069L59 56.0001C59.5128 56.0001 59.9355 56.3862 59.9933 56.8835L60 57.0001V63.0001C60 63.513 59.614 63.9356 59.1166 63.9934L59 64.0001H11C10.4872 64.0001 10.0645 63.6141 10.0067 63.1167L10 63.0001V25.0001C10 24.4873 10.386 24.0646 10.8834 24.0068L11 24.0001H59Z" fill="url(#paint0_radial_232_3539)"/>
<path d="M39 26.0001C39.5128 26.0001 39.9355 25.6141 39.9933 25.1167L40 25.0001V23.0001C40 21.4024 38.7511 20.0965 37.1763 20.0052L37 20.0001H33C31.4023 20.0001 30.0963 21.249 30.0051 22.8238L30 23.0001V25.0001C30 25.5524 30.4477 26.0001 31 26.0001C31.5128 26.0001 31.9355 25.6141 31.9933 25.1167L32 25.0001V23.0001C32 22.4873 32.386 22.0646 32.8834 22.0068L33 22.0001H37C37.5128 22.0001 37.9355 22.3862 37.9933 22.8835L38 23.0001V25.0001C38 25.5524 38.4477 26.0001 39 26.0001Z" fill="url(#paint1_radial_232_3539)"/>
<path d="M51 62.0001C51.5128 62.0001 51.9355 62.3862 51.9933 62.8835L52 63.0001V65.0001C52 66.5978 50.7511 67.9038 49.1763 67.995L49 68.0001H21C19.4023 68.0001 18.0963 66.7512 18.0051 65.1764L18 65.0001V63.0001C18 62.4478 18.4477 62.0001 19 62.0001C19.5128 62.0001 19.9355 62.3862 19.9933 62.8835L20 63.0001V65.0001C20 65.513 20.386 65.9356 20.8834 65.9934L21 66.0001H49C49.5128 66.0001 49.9355 65.6141 49.9933 65.1167L50 65.0001V63.0001C50 62.4478 50.4477 62.0001 51 62.0001Z" fill="url(#paint2_radial_232_3539)"/>
<path d="M37.8 66.4001C37.4686 65.9583 36.8418 65.8688 36.4 66.2001C35.9922 66.506 35.8845 67.0636 36.131 67.4951L36.2 67.6001L42.2 75.6001C42.5314 76.042 43.1582 76.1315 43.6 75.8001C44.0078 75.4942 44.1155 74.9366 43.869 74.5051L43.8 74.4001L37.8 66.4001Z" fill="url(#paint3_radial_232_3539)"/>
<path d="M23 46.0001C23.5128 46.0001 23.9355 46.3862 23.9933 46.8835L24 47.0001V49.0001C24 49.5524 23.5523 50.0001 23 50.0001C22.4872 50.0001 22.0645 49.6141 22.0067 49.1167L22 49.0001V48.0001H18V56.0001H22V53.0001C22 52.4873 22.386 52.0646 22.8834 52.0069L23 52.0001C23.5128 52.0001 23.9355 52.3862 23.9933 52.8835L24 53.0001V57.0001C24 57.513 23.614 57.9356 23.1166 57.9934L23 58.0001H17C16.4872 58.0001 16.0645 57.6141 16.0067 57.1167L16 57.0001V47.0001C16 46.4873 16.386 46.0646 16.8834 46.0068L17 46.0001H23Z" fill="url(#paint4_radial_232_3539)"/>
<path d="M29 42.0001C29.5523 42.0001 30 42.4478 30 43.0001C30 43.513 29.614 43.9356 29.1166 43.9934L29 44.0001H28V56.0001H32V45.0001C32 44.4873 32.386 44.0646 32.8834 44.0068L33 44.0001C33.5128 44.0001 33.9355 44.3862 33.9933 44.8835L34 45.0001V57.0001C34 57.513 33.614 57.9356 33.1166 57.9934L33 58.0001H27C26.4872 58.0001 26.0645 57.6141 26.0067 57.1167L26 57.0001V43.0001C26 42.4873 26.386 42.0646 26.8834 42.0068L27 42.0001H29Z" fill="url(#paint5_radial_232_3539)"/>
<path d="M39 50.0001C39.5523 50.0001 40 50.4478 40 51.0001C40 51.513 39.614 51.9356 39.1166 51.9934L39 52.0001H38V56.0001H42V51.0001C42 50.4873 42.386 50.0646 42.8834 50.0068L43 50.0001C43.5128 50.0001 43.9355 50.3862 43.9933 50.8835L44 51.0001V57.0001C44 57.513 43.614 57.9356 43.1166 57.9934L43 58.0001H37C36.4872 58.0001 36.0645 57.6141 36.0067 57.1167L36 57.0001V51.0001C36 50.4873 36.386 50.0646 36.8834 50.0068L37 50.0001H39Z" fill="url(#paint6_radial_232_3539)"/>
<path d="M47 48.0001C47.5128 48.0001 47.9355 48.3862 47.9933 48.8835L48 49.0001V56.0001H52V55.0001C52 54.4873 52.386 54.0646 52.8834 54.0069L53 54.0001C53.5128 54.0001 53.9355 54.3862 53.9933 54.8835L54 55.0001V57.0001C54 57.513 53.614 57.9356 53.1166 57.9934L53 58.0001H47C46.4872 58.0001 46.0645 57.6141 46.0067 57.1167L46 57.0001V49.0001C46 48.4478 46.4477 48.0001 47 48.0001Z" fill="url(#paint7_radial_232_3539)"/>
<path d="M32.2 66.4001C32.5314 65.9583 33.1582 65.8688 33.6 66.2001C34.0078 66.506 34.1155 67.0636 33.869 67.4951L33.8 67.6001L27.8 75.6001C27.4686 76.042 26.8418 76.1315 26.4 75.8001C25.9922 75.4942 25.8845 74.9366 26.131 74.5051L26.2 74.4001L32.2 66.4001Z" fill="url(#paint8_radial_232_3539)"/>
<defs>
<radialGradient id="paint0_radial_232_3539" cx="0" cy="0" r="1" gradientUnits="userSpaceOnUse" gradientTransform="translate(35 48.0002) rotate(90) scale(28 29.5603)">
<stop stop-color="#4C3CC7"/>
<stop offset="1" stop-color="#3026A6"/>
</radialGradient>
<radialGradient id="paint1_radial_232_3539" cx="0" cy="0" r="1" gradientUnits="userSpaceOnUse" gradientTransform="translate(35 48.0002) rotate(90) scale(28 29.5603)">
<stop stop-color="#4C3CC7"/>
<stop offset="1" stop-color="#3026A6"/>
</radialGradient>
<radialGradient id="paint2_radial_232_3539" cx="0" cy="0" r="1" gradientUnits="userSpaceOnUse" gradientTransform="translate(35 48.0002) rotate(90) scale(28 29.5603)">
<stop stop-color="#4C3CC7"/>
<stop offset="1" stop-color="#3026A6"/>
</radialGradient>
<radialGradient id="paint3_radial_232_3539" cx="0" cy="0" r="1" gradientUnits="userSpaceOnUse" gradientTransform="translate(35 48.0002) rotate(90) scale(28 29.5603)">
<stop stop-color="#4C3CC7"/>
<stop offset="1" stop-color="#3026A6"/>
</radialGradient>
<radialGradient id="paint4_radial_232_3539" cx="0" cy="0" r="1" gradientUnits="userSpaceOnUse" gradientTransform="translate(35 48.0002) rotate(90) scale(28 29.5603)">
<stop stop-color="#4C3CC7"/>
<stop offset="1" stop-color="#3026A6"/>
</radialGradient>
<radialGradient id="paint5_radial_232_3539" cx="0" cy="0" r="1" gradientUnits="userSpaceOnUse" gradientTransform="translate(35 48.0002) rotate(90) scale(28 29.5603)">
<stop stop-color="#4C3CC7"/>
<stop offset="1" stop-color="#3026A6"/>
</radialGradient>
<radialGradient id="paint6_radial_232_3539" cx="0" cy="0" r="1" gradientUnits="userSpaceOnUse" gradientTransform="translate(35 48.0002) rotate(90) scale(28 29.5603)">
<stop stop-color="#4C3CC7"/>
<stop offset="1" stop-color="#3026A6"/>
</radialGradient>
<radialGradient id="paint7_radial_232_3539" cx="0" cy="0" r="1" gradientUnits="userSpaceOnUse" gradientTransform="translate(35 48.0002) rotate(90) scale(28 29.5603)">
<stop stop-color="#4C3CC7"/>
<stop offset="1" stop-color="#3026A6"/>
</radialGradient>
<radialGradient id="paint8_radial_232_3539" cx="0" cy="0" r="1" gradientUnits="userSpaceOnUse" gradientTransform="translate(35 48.0002) rotate(90) scale(28 29.5603)">
<stop stop-color="#4C3CC7"/>
<stop offset="1" stop-color="#3026A6"/>
</radialGradient>
</defs>
</svg>
