<svg width="80" height="88" viewBox="0 0 80 88" fill="none" xmlns="http://www.w3.org/2000/svg">
<path fill-rule="evenodd" clip-rule="evenodd" d="M70 77.0001C69.4486 77.0001 69 76.5515 69 76.0001C69 75.4487 69.4486 75.0001 70 75.0001C70.5514 75.0001 71 75.4487 71 76.0001C71 76.5515 70.5514 77.0001 70 77.0001Z" fill="#CACAFB"/>
<path fill-rule="evenodd" clip-rule="evenodd" d="M68 21.0001C67.4486 21.0001 67 20.5515 67 20.0001C67 19.4487 67.4486 19.0001 68 19.0001C68.5514 19.0001 69 19.4487 69 20.0001C69 20.5515 68.5514 21.0001 68 21.0001Z" fill="#CACAFB"/>
<path fill-rule="evenodd" clip-rule="evenodd" d="M14 77.0001C13.4486 77.0001 13 76.5515 13 76.0001C13 75.4487 13.4486 75.0001 14 75.0001C14.5514 75.0001 15 75.4487 15 76.0001C15 76.5515 14.5514 77.0001 14 77.0001Z" fill="#CACAFB"/>
<path fill-rule="evenodd" clip-rule="evenodd" d="M19.3966 20.0064C19.5956 20.0022 19.7968 20.0001 20 20.0001L20.3032 20.0017C20.4038 20.0027 20.5039 20.0043 20.6034 20.0064L21.1937 20.0251L21.7694 20.0563C22.0534 20.0751 22.3314 20.0984 22.6026 20.1265L23.1355 20.1889C26.014 20.5659 28 21.5067 28 23.0001V29.0001C28 29.5524 27.5523 30.0001 27 30.0001C26.4872 30.0001 26.0645 29.6141 26.0067 29.1167L26 29.0001V25.1262C25.2189 25.4377 24.2433 25.6663 23.1355 25.8114L22.6026 25.8737C22.3314 25.9018 22.0534 25.9252 21.7694 25.9439L21.1937 25.9751L20.6034 25.9939C20.4044 25.998 20.2032 26.0001 20 26.0001C19.7968 26.0001 19.5956 25.998 19.3966 25.9939L18.8063 25.9751L18.2306 25.9439C17.9466 25.9252 17.6686 25.9018 17.3974 25.8737L16.8645 25.8114C13.986 25.4343 12 24.4936 12 23.0001C12 21.5067 13.986 20.5659 16.8645 20.1889L17.3974 20.1265C17.6686 20.0984 17.9466 20.0751 18.2306 20.0563L18.8063 20.0251L19.3966 20.0064ZM26 23.0001L25.9782 22.9861C25.7511 22.8575 25.4307 22.7271 25.0337 22.6068L24.8288 22.5474C23.5811 22.2023 21.8536 22.0001 20.0005 22.0001C18.1474 22.0001 16.4199 22.2023 15.1722 22.5474C14.7501 22.6642 14.4018 22.7928 14.1441 22.9217L14 23.0001L14.1702 23.0914C14.3811 23.1945 14.6497 23.2972 14.9674 23.3935L15.1722 23.4528C16.4199 23.798 18.1474 24.0001 20.0005 24.0001C21.8536 24.0001 23.5811 23.798 24.8288 23.4528C25.2509 23.336 25.5992 23.2074 25.8569 23.0785L26 23.0001Z" fill="#F4BE30"/>
<path d="M59.7317 57.8041C58.6723 56.6593 57.2227 56.0001 55.6751 56.0001C53.2002 56.0001 51.1014 57.6724 50.3231 60.0001H49L48.8834 60.0069C48.386 60.0646 48 60.4873 48 61.0001C48 61.5524 48.4477 62.0001 49 62.0001H50C50 62.3407 50.0269 62.6748 50.0785 63.0001H49L48.8834 63.0069C48.386 63.0646 48 63.4873 48 64.0001C48 64.5524 48.4477 65.0001 49 65.0001H50.7594C51.7396 66.792 53.5715 68.0001 55.6751 68.0001C57.087 68.0001 58.4199 67.4517 59.4512 66.4793C59.846 66.107 59.874 65.4745 59.5138 65.0666C59.1535 64.6586 58.5414 64.6297 58.1466 65.0019C57.4673 65.6424 56.5979 66.0001 55.6751 66.0001C54.7284 66.0001 53.8618 65.6229 53.2017 65.0001H55L55.1166 64.9934C55.614 64.9356 56 64.513 56 64.0001C56 63.4478 55.5523 63.0001 55 63.0001H52.0532C51.9764 62.6807 51.9355 62.3456 51.9355 62.0001H55L55.1166 61.9934C55.614 61.9356 56 61.513 56 61.0001C56 60.4478 55.5523 60.0001 55 60.0001H52.4356C53.0832 58.803 54.2939 58.0001 55.6751 58.0001C56.6867 58.0001 57.6335 58.4307 58.3329 59.1863C58.7023 59.5855 59.3148 59.5996 59.7011 59.2179C60.0874 58.8362 60.1011 58.2032 59.7317 57.8041Z" fill="#F4BE30"/>
<path d="M13 28.0001C13.5128 28.0001 13.9355 28.3511 13.9933 28.8032L14 28.9092V47.091C14 47.5931 13.5523 48.0001 13 48.0001C12.4872 48.0001 12.0645 47.6492 12.0067 47.1971L12 47.091V28.9092C12 28.4071 12.4477 28.0001 13 28.0001Z" fill="#F4BE30"/>
<path d="M13 52.0001C13.5523 52.0001 14 51.5524 14 51.0001C14 50.4478 13.5523 50.0001 13 50.0001C12.4477 50.0001 12 50.4478 12 51.0001C12 51.5524 12.4477 52.0001 13 52.0001Z" fill="#F4BE30"/>
<path fill-rule="evenodd" clip-rule="evenodd" d="M60 36.0001C59.7968 36.0001 59.5956 36.0022 59.3966 36.0064L58.8063 36.0251L58.2306 36.0563C57.9466 36.0751 57.6686 36.0984 57.3974 36.1265L56.8645 36.1889C53.986 36.5659 52 37.5067 52 39.0001C52 40.4936 53.986 41.4343 56.8645 41.8114L57.3974 41.8737C57.6686 41.9018 57.9466 41.9252 58.2306 41.9439L58.8063 41.9751L59.3966 41.9939C59.5956 41.998 59.7968 42.0001 60 42.0001C60.2032 42.0001 60.4044 41.998 60.6034 41.9939L61.1937 41.9751L61.7694 41.9439C62.0534 41.9252 62.3314 41.9018 62.6026 41.8737L63.1355 41.8114C64.2433 41.6663 65.2189 41.4377 66 41.1262V45.0001L66.0067 45.1167C66.0645 45.6141 66.4872 46.0001 67 46.0001C67.5523 46.0001 68 45.5524 68 45.0001V39.0001C68 37.5067 66.014 36.5659 63.1355 36.1889L62.6026 36.1265C62.3314 36.0984 62.0534 36.0751 61.7694 36.0563L61.1937 36.0251L60.6034 36.0064C60.5039 36.0043 60.4038 36.0027 60.3032 36.0017L60 36.0001ZM65.8569 39.0785L66 39.0001L65.9782 38.9861C65.7511 38.8575 65.4307 38.7271 65.0337 38.6068L64.8288 38.5474C63.5811 38.2023 61.8536 38.0001 60.0005 38.0001C58.1474 38.0001 56.4199 38.2023 55.1722 38.5474C54.7501 38.6642 54.4018 38.7928 54.1441 38.9217L54 39.0001L54.1702 39.0914C54.3811 39.1945 54.6497 39.2972 54.9674 39.3935L55.1722 39.4528C56.4199 39.798 58.1474 40.0001 60.0005 40.0001C61.8536 40.0001 63.5811 39.798 64.8288 39.4528C65.2509 39.336 65.5992 39.2074 65.8569 39.0785Z" fill="#F4BE30"/>
<path d="M53.9933 42.8835C53.9355 42.3862 53.5128 42.0001 53 42.0001C52.4477 42.0001 52 42.4478 52 43.0001V47.0001L52.0067 47.1167C52.0645 47.6141 52.4872 48.0001 53 48.0001C53.5523 48.0001 54 47.5524 54 47.0001V43.0001L53.9933 42.8835Z" fill="#F4BE30"/>
<path fill-rule="evenodd" clip-rule="evenodd" d="M36.662 30.0001L35.994 30.0121C35.8836 30.0151 35.7737 30.0186 35.6643 30.0226L35.0142 30.0524L34.3775 30.094C34.0627 30.1176 33.7533 30.1457 33.45 30.178L32.8516 30.2482C32.7533 30.2609 32.6557 30.274 32.5588 30.2876L31.9868 30.3748C28.4228 30.962 26 32.2171 26 33.9994V38.5717L26.0049 38.72C26.0073 38.7563 26.0106 38.7924 26.0147 38.8283C26.005 38.8842 26 38.9416 26 39.0002V43.5717L26.0049 43.72C26.0073 43.7563 26.0106 43.7924 26.0147 43.8283C26.005 43.8842 26 43.9416 26 44.0002V48.5717L26.0049 48.72C26.0073 48.7561 26.0105 48.7921 26.0146 48.8278C26.005 48.8835 26 48.9408 26 48.9993V53.5709L26.0049 53.7191C26.0141 53.8593 26.0365 53.9966 26.0715 54.131C25.9231 54.1177 25.7734 54.1053 25.6225 54.094L24.9858 54.0524L24.3357 54.0226C24.2263 54.0186 24.1164 54.0151 24.006 54.0121L23.338 54.0001H22.662L21.994 54.0121C21.8836 54.0151 21.7737 54.0186 21.6643 54.0226L21.0142 54.0524L20.3775 54.094C20.0627 54.1176 19.7533 54.1457 19.45 54.178L18.8516 54.2482C18.7533 54.2609 18.6557 54.274 18.5588 54.2876L17.9868 54.3748C14.4228 54.962 12 56.2171 12 57.9994V62.5712L12.0049 62.7194C12.0073 62.7557 12.0106 62.7919 12.0147 62.8279C12.005 62.8837 12 62.9411 12 62.9997V67.5713L12.0049 67.7196C12.1345 69.682 14.838 71.0858 18.6512 71.6818L19.2313 71.7651C19.4273 71.7908 19.6259 71.8145 19.8269 71.8361L20.437 71.8946C21.2597 71.9642 22.1179 72.0001 23 72.0001C23.8821 72.0001 24.7403 71.9642 25.563 71.8946L26.1731 71.8361C26.3741 71.8145 26.5727 71.7908 26.7687 71.7651L27.3488 71.6818C31.0866 71.0976 33.7582 69.7372 33.9844 67.8353C34.9383 67.9441 35.9343 68.0001 36.9499 68.0001C39.4401 68.0001 42.4907 67.6818 44.184 67.2038C46.1223 71.2252 50.2371 74.0001 55 74.0001C61.6274 74.0001 67 68.6274 67 61.9997C67 55.3721 61.6274 49.9993 55 49.9993C52.3876 49.9993 49.9702 50.8341 48 52.2515V48.9993L47.9933 48.8826C47.9922 48.8733 47.991 48.8641 47.9896 48.8548C47.9883 48.8458 47.9869 48.8368 47.9854 48.8278C47.9951 48.7435 48 48.6582 48 48.5717V44.0002L47.9933 43.8835C47.9911 43.865 47.9885 43.8466 47.9853 43.8283C47.9951 43.7439 48 43.6583 48 43.5717V39.0002L47.9933 38.8835C47.9911 38.865 47.9885 38.8466 47.9853 38.8283C47.9951 38.7439 48 38.6583 48 38.5717V34.0002C48 32.2648 45.703 31.0285 42.2922 30.4225L41.7295 30.3298C41.5388 30.3007 41.345 30.2735 41.1484 30.2482L40.55 30.178C40.2467 30.1457 39.9373 30.1176 39.6225 30.094L38.9858 30.0524L38.3357 30.0226C38.2263 30.0186 38.1164 30.0151 38.006 30.0121L37.338 30.0001H36.662ZM44.0601 57.0609C43.2475 57.3189 42.3353 57.5271 41.3488 57.6813L40.7687 57.7646C40.5727 57.7904 40.3741 57.814 40.1731 57.8356L39.563 57.8942C38.7403 57.9638 37.8821 57.9996 37 57.9996C36.1179 57.9996 35.2597 57.9638 34.437 57.8942L33.9944 57.8517C33.9981 57.9005 34 57.9497 34 57.9994V60.5931C34.9538 60.7118 35.96 60.7734 36.99 60.7734C39.0254 60.7734 41.4511 60.5398 43.137 60.1806C43.3036 59.085 43.6183 58.038 44.0601 57.0609ZM43.009 62.4677C41.235 62.798 38.9505 63.0001 36.99 63.0001C35.9608 63.0001 34.9516 62.9426 33.9858 62.831L33.9889 62.8502L33.9916 62.8696L33.9933 62.8831L34 62.9997V65.6053C34.9418 65.7209 35.9342 65.7808 36.9499 65.7808C39.1511 65.7808 41.8479 65.5126 43.4115 65.127C43.182 64.2744 43.0441 63.3842 43.009 62.4677ZM28 38.5717V36.4457C28.9631 36.9335 30.2311 37.3139 31.7078 37.5762L32.2705 37.6689C32.4612 37.698 32.655 37.7252 32.8516 37.7505L33.45 37.8208C33.7533 37.8531 34.0627 37.8811 34.3775 37.9048L35.0142 37.9463L35.6643 37.9761C35.7737 37.9801 35.8836 37.9836 35.994 37.9866L36.662 37.9986C36.7742 37.9996 36.8869 38.0001 37 38.0001L37.338 37.9986L38.006 37.9866C38.1164 37.9836 38.2263 37.9801 38.3357 37.9761L38.9858 37.9463L39.6225 37.9048C39.9373 37.8811 40.2467 37.8531 40.55 37.8208L41.1484 37.7505C41.2467 37.7378 41.3443 37.7247 41.4412 37.7111L42.0132 37.624C43.6094 37.3609 44.9767 36.964 46 36.4457V38.5717L45.993 38.6328C45.9138 38.992 45.1613 39.5652 43.7467 40.0502C41.9954 40.6507 39.584 41.0004 37 41.0004C34.416 41.0004 32.0046 40.6507 30.2533 40.0502C28.7555 39.5367 28 38.9243 28 38.5717ZM28.7727 34.6721C28.2764 34.4381 28 34.2044 28 34.0005C28 33.7966 28.2764 33.5629 28.7727 33.3289L29.0389 33.2121C29.1336 33.1732 29.2341 33.1344 29.3402 33.0959L29.6749 32.9814C29.7919 32.9435 29.9143 32.9061 30.0417 32.8692L30.4387 32.7602C30.5073 32.7424 30.5772 32.7247 30.6481 32.7072L31.0878 32.6046C31.2389 32.5712 31.3943 32.5387 31.5539 32.5072L32.0449 32.4159L32.5591 32.3315C32.6467 32.318 32.7352 32.3049 32.8245 32.2921L33.3708 32.2195L33.9364 32.1559L34.5198 32.102C34.7171 32.0857 34.917 32.0713 35.1194 32.0587L35.7337 32.0267L36.3611 32.0069C36.4667 32.0047 36.5727 32.003 36.6792 32.0018L37 32.0001C37.2147 32.0001 37.4278 32.0024 37.6389 32.0069L38.2663 32.0267L38.8806 32.0587C39.083 32.0713 39.2829 32.0857 39.4802 32.102L40.0636 32.1559L40.6292 32.2195L41.1755 32.2921L41.7008 32.3728C41.7865 32.3869 41.8713 32.4012 41.9551 32.4159L42.4461 32.5072C42.5259 32.523 42.6046 32.539 42.6823 32.5552L43.1354 32.6553C43.282 32.6895 43.424 32.7245 43.5613 32.7602L43.9583 32.8692C44.022 32.8876 44.0845 32.9062 44.1456 32.9249L44.4965 33.0384C44.664 33.0957 44.8191 33.1537 44.9611 33.2121L45.2273 33.3289C45.7236 33.5629 46 33.7966 46 34.0005C46 34.2044 45.7236 34.4381 45.2273 34.6721L44.9611 34.7889C44.8664 34.8278 44.7659 34.8666 44.6598 34.9051L44.3251 35.0196C44.2081 35.0575 44.0857 35.0949 43.9583 35.1318L43.5613 35.2408C43.4927 35.2586 43.4228 35.2763 43.3519 35.2938L42.9122 35.3964C42.7611 35.4298 42.6057 35.4623 42.4461 35.4938L41.9551 35.5851L41.4409 35.6695C41.3533 35.683 41.2648 35.6961 41.1755 35.7089L40.6292 35.7815L40.0636 35.8451L39.4802 35.899C39.2829 35.9153 39.083 35.9297 38.8806 35.9423L38.2663 35.9743L37.6389 35.9941C37.4278 35.9986 37.2147 36.0009 37 36.0009C36.7853 36.0009 36.5722 35.9986 36.3611 35.9941L35.7337 35.9743L35.1194 35.9423C34.917 35.9297 34.7171 35.9153 34.5198 35.899L33.9364 35.8451L33.3708 35.7815L32.8245 35.7089L32.2992 35.6282C32.2135 35.6141 32.1287 35.5998 32.0449 35.5851L31.5539 35.4938C31.4741 35.478 31.3954 35.462 31.3177 35.4458L30.8646 35.3457C30.718 35.3115 30.576 35.2765 30.4387 35.2408L30.0417 35.1318C29.978 35.1134 29.9155 35.0948 29.8544 35.0761L29.5035 34.9626C29.336 34.9053 29.1809 34.8473 29.0389 34.7889L28.7727 34.6721ZM28 43.5717V41.2438C29.1647 41.8993 30.7734 42.3887 32.6512 42.6822L33.2313 42.7655C33.4273 42.7913 33.6259 42.8149 33.8269 42.8365L34.437 42.8951C35.2597 42.9647 36.1179 43.0005 37 43.0005C37.8821 43.0005 38.7403 42.9647 39.563 42.8951L40.1731 42.8365C40.3741 42.8149 40.5727 42.7913 40.7687 42.7655L41.3488 42.6822C43.2266 42.3887 44.8353 41.8993 46 41.2438V43.5717L45.993 43.6328C45.9138 43.992 45.1613 44.5652 43.7467 45.0502C41.9954 45.6507 39.584 46.0004 37 46.0004C34.416 46.0004 32.0046 45.6507 30.2533 45.0502C28.7555 44.5367 28 43.9243 28 43.5717ZM32 65.2432C30.8353 65.8987 29.2266 66.3881 27.3488 66.6816L26.7687 66.7649C26.5727 66.7907 26.3741 66.8144 26.1731 66.836L25.563 66.8945C24.7403 66.9641 23.8821 66.9999 23 66.9999C22.1179 66.9999 21.2597 66.9641 20.437 66.8945L19.8269 66.836C19.6259 66.8144 19.4273 66.7907 19.2313 66.7649L18.6512 66.6816C16.7734 66.3881 15.1647 65.8987 14 65.2432V67.5713C14 67.9238 14.7555 68.5363 16.2533 69.0498C18.0046 69.6503 20.416 70 23 70C25.584 70 27.9954 69.6503 29.7467 69.0498C31.1613 68.5648 31.9138 67.9916 31.993 67.6324L32 67.5713V65.2432ZM28 46.2438C29.1647 46.8993 30.7734 47.3887 32.6512 47.6822L33.2313 47.7655C33.4273 47.7913 33.6259 47.8149 33.8269 47.8365L34.437 47.8951C35.2597 47.9647 36.1179 48.0005 37 48.0005C37.8821 48.0005 38.7403 47.9647 39.563 47.8951L40.1731 47.8365C40.3741 47.8149 40.5727 47.7913 40.7687 47.7655L41.3488 47.6822C43.2266 47.3887 44.8353 46.8993 46 46.2438V48.5717L45.993 48.6328C45.9138 48.992 45.1613 49.5652 43.7467 50.0502C41.9954 50.6507 39.584 51.0004 37 51.0004C34.416 51.0004 32.0046 50.6507 30.2533 50.0502C28.7555 49.5367 28 48.9243 28 48.5717V46.2438ZM46 53.5709V51.2438C44.8353 51.8993 43.2266 52.3887 41.3488 52.6822L40.7687 52.7655C40.5727 52.7913 40.3741 52.8149 40.1731 52.8365L39.563 52.8951C38.7403 52.9647 37.8821 53.0005 37 53.0005C36.1179 53.0005 35.2597 52.9647 34.437 52.8951L33.8269 52.8365C33.6259 52.8149 33.4273 52.7913 33.2313 52.7655L32.6512 52.6822C30.7734 52.3887 29.1647 51.8993 28 51.2438V53.5709C28 53.8228 28.386 54.2077 29.1534 54.5942C30.2099 54.8293 31.1345 55.1315 31.8851 55.4961C33.3812 55.8195 35.1462 55.9995 37 55.9995C39.584 55.9995 41.9954 55.6498 43.7467 55.0493C45.1613 54.5643 45.9138 53.9911 45.993 53.6319L46 53.5709ZM31.4988 57.4694C30.3806 57.2306 29.3864 56.9151 28.5615 56.5303C28.5233 56.5225 28.4848 56.5149 28.4461 56.5072L27.9551 56.4159C27.8713 56.4012 27.7865 56.3869 27.7008 56.3728L27.1755 56.2921L26.6292 56.2195L26.0636 56.1559L25.4802 56.102C25.2829 56.0857 25.083 56.0713 24.8806 56.0587L24.2663 56.0267L23.6389 56.0069C23.4278 56.0024 23.2147 56.0001 23 56.0001L22.6792 56.0018C22.5727 56.003 22.4667 56.0047 22.3611 56.0069L21.7337 56.0267L21.1194 56.0587C20.917 56.0713 20.7171 56.0857 20.5198 56.102L19.9364 56.1559L19.3708 56.2195L18.8245 56.2921C18.7352 56.3049 18.6467 56.318 18.5591 56.3315L18.0449 56.4159L17.5539 56.5072C17.3943 56.5387 17.2389 56.5712 17.0878 56.6046L16.6481 56.7072C16.5772 56.7247 16.5073 56.7424 16.4387 56.7602L16.0417 56.8692C15.9143 56.9061 15.7919 56.9435 15.6749 56.9814L15.3402 57.0959C15.2341 57.1344 15.1336 57.1732 15.0389 57.2121L14.7727 57.3289C14.2764 57.5629 14 57.7966 14 58.0005C14 58.2044 14.2764 58.4381 14.7727 58.6721L15.0389 58.7889C15.1809 58.8473 15.336 58.9053 15.5035 58.9626L15.8544 59.0761C15.9155 59.0948 15.978 59.1134 16.0417 59.1318L16.4387 59.2408C16.576 59.2765 16.718 59.3115 16.8646 59.3457L17.3177 59.4458C17.3954 59.462 17.4741 59.478 17.5539 59.4938L18.0449 59.5851C18.1287 59.5998 18.2135 59.6141 18.2992 59.6282L18.8245 59.7089L19.3708 59.7815L19.9364 59.8451L20.5198 59.899C20.7171 59.9153 20.917 59.9297 21.1194 59.9423L21.7337 59.9743L22.3611 59.9941C22.5722 59.9986 22.7853 60.0009 23 60.0009C23.2147 60.0009 23.4278 59.9986 23.6389 59.9941L24.2663 59.9743L24.8806 59.9423C25.083 59.9297 25.2829 59.9153 25.4802 59.899L26.0636 59.8451L26.6292 59.7815L27.1755 59.7089C27.2648 59.6961 27.3533 59.683 27.4409 59.6695L27.9551 59.5851L28.4461 59.4938C28.6057 59.4623 28.7611 59.4298 28.9122 59.3964L29.3519 59.2938C29.4228 59.2763 29.4927 59.2586 29.5613 59.2408L29.9583 59.1318C30.0857 59.0949 30.2081 59.0575 30.3251 59.0196L30.6598 58.9051C30.7659 58.8666 30.8664 58.8278 30.9611 58.7889L31.2273 58.6721C31.7236 58.4381 32 58.2044 32 58.0005C32 57.8375 31.8233 57.6554 31.4988 57.4694ZM32 62.5712V60.4457C30.9767 60.964 29.6094 61.3609 28.0132 61.624L27.4412 61.7111C27.3443 61.7247 27.2467 61.7378 27.1484 61.7505L26.55 61.8208C26.2467 61.8531 25.9373 61.8811 25.6225 61.9048L24.9858 61.9463L24.3357 61.9761C24.2263 61.9801 24.1164 61.9836 24.006 61.9866L23.338 61.9986L23 62.0001C22.8869 62.0001 22.7742 61.9996 22.662 61.9986L21.994 61.9866C21.8836 61.9836 21.7737 61.9801 21.6643 61.9761L21.0142 61.9463L20.3775 61.9048C20.0627 61.8811 19.7533 61.8531 19.45 61.8208L18.8516 61.7505C18.655 61.7252 18.4612 61.698 18.2705 61.6689L17.7078 61.5762C16.2311 61.3139 14.9631 60.9335 14 60.4457V62.5712C14 62.9237 14.7555 63.5361 16.2533 64.0496C18.0046 64.6501 20.416 64.9998 23 64.9998C25.584 64.9998 27.9954 64.6501 29.7467 64.0496C31.1613 63.5646 31.9138 62.9914 31.993 62.6323L32 62.5712ZM55 51.9994C60.5229 51.9994 65 56.4767 65 61.9997C65 67.5227 60.5229 72.0001 55 72.0001C49.4772 72.0001 45 67.5227 45 61.9997C45 56.4767 49.4772 51.9994 55 51.9994Z" fill="url(#paint0_radial_232_3524)"/>
<path d="M61.4214 48.0934C60.9205 47.8608 60.3259 48.0783 60.0933 48.5792C59.8606 49.0801 60.0781 49.6748 60.5791 49.9074C65.0635 51.99 68.0002 56.3551 68.0002 61.0008C68.0002 61.5531 68.448 62.0008 69.0002 62.0008C69.5525 62.0008 70.0002 61.5531 70.0002 61.0008C70.0002 55.5571 66.5954 50.4962 61.4214 48.0934Z" fill="url(#paint1_radial_232_3524)"/>
<defs>
<radialGradient id="paint0_radial_232_3524" cx="0" cy="0" r="1" gradientUnits="userSpaceOnUse" gradientTransform="translate(41.0001 52.0001) rotate(90) scale(22 34.2901)">
<stop stop-color="#4C3CC7"/>
<stop offset="1" stop-color="#3026A6"/>
</radialGradient>
<radialGradient id="paint1_radial_232_3524" cx="0" cy="0" r="1" gradientUnits="userSpaceOnUse" gradientTransform="translate(41.0001 52.0001) rotate(90) scale(22 34.2901)">
<stop stop-color="#4C3CC7"/>
<stop offset="1" stop-color="#3026A6"/>
</radialGradient>
</defs>
</svg>
