<svg width="80" height="88" viewBox="0 0 80 88" fill="none" xmlns="http://www.w3.org/2000/svg">
<path fill-rule="evenodd" clip-rule="evenodd" d="M76 78.0001C75.4486 78.0001 75 77.5515 75 77.0001C75 76.4487 75.4486 76.0001 76 76.0001C76.5514 76.0001 77 76.4487 77 77.0001C77 77.5515 76.5514 78.0001 76 78.0001Z" fill="#CACAFB"/>
<path fill-rule="evenodd" clip-rule="evenodd" d="M39 12.0001C38.4486 12.0001 38 11.5515 38 11.0001C38 10.4487 38.4486 10.0001 39 10.0001C39.5514 10.0001 40 10.4487 40 11.0001C40 11.5515 39.5514 12.0001 39 12.0001Z" fill="#CACAFB"/>
<path fill-rule="evenodd" clip-rule="evenodd" d="M4 70.0001C3.4486 70.0001 3 69.5515 3 69.0001C3 68.4487 3.4486 68.0001 4 68.0001C4.5514 68.0001 5 68.4487 5 69.0001C5 69.5515 4.5514 70.0001 4 70.0001Z" fill="#CACAFB"/>
<path fill-rule="evenodd" clip-rule="evenodd" d="M54.2514 51.195L58.1351 41.8337C58.5584 40.8135 59.7286 40.3295 60.7488 40.7528C61.2361 40.955 61.6238 41.3414 61.8274 41.8281L65.7455 51.191C65.9702 51.7282 65.9498 52.3367 65.6893 52.8575L64.1708 55.8946C64.1212 55.9938 64.0639 56.0878 64 56.1758V59.8378L65.9487 65.6839C65.9835 65.7885 66.0008 65.8978 66 66.0075L65.9931 66.1172L64.5791 78.1172C64.5244 78.582 64.1565 78.941 63.7015 78.9935L63.586 79.0001H56.414C55.946 79.0001 55.5463 78.6768 55.4409 78.231L55.4209 78.1172L54.9569 74.1796C54.8923 73.6312 55.2845 73.1341 55.833 73.0695C56.3423 73.0095 56.8073 73.3434 56.9228 73.8306L56.9432 73.9456L57.303 77.0001H62.696L63.98 66.1031L62.279 61.0001H57.72L55.9487 66.3164C55.7865 66.8029 55.2866 67.0818 54.7965 66.9793L54.6838 66.9488C54.1973 66.7866 53.9184 66.2868 54.0208 65.7967L54.0513 65.6839L56 59.8379V56.1758C55.9361 56.0878 55.8788 55.9938 55.8292 55.8946L54.3098 52.8559C54.0504 52.337 54.029 51.7309 54.2514 51.195ZM58 57.0001V59.0001H62V57.0001H58ZM59 44.9682L56.0987 51.9614L57.618 55.0001H62.382L63.9005 51.9631L61 45.0318V50.0001C61 50.5524 60.5523 51.0001 60 51.0001C59.4872 51.0001 59.0645 50.6141 59.0067 50.1168L59 50.0001V44.9682Z" fill="#F4BE30"/>
<path d="M47 61.0001C48.8856 61.0001 50 62.1145 50 64.0001C50 64.0819 49.99 64.1633 49.9701 64.2427C49.4648 66.264 47.2178 67.5778 43.2082 68.3021L42.5605 68.4116C42.3397 68.4465 42.114 68.4798 41.8835 68.5114L41.1771 68.6016C41.0569 68.6159 40.9355 68.6297 40.8129 68.6432L40.0625 68.7192L39.2827 68.7859L38.4735 68.8433L37.6349 68.8917C37.4926 68.899 37.3492 68.9059 37.2045 68.9125L36.3218 68.9473L35.4096 68.9733L34.4679 68.9905L33 69.0001C32.4477 69.0001 32 68.5524 32 68.0001C32 67.4478 32.4477 67.0001 33 67.0001L33.95 66.9958C34.1058 66.9944 34.2603 66.9926 34.4135 66.9904L35.3174 66.9733L36.1906 66.9478L37.033 66.9141L37.8447 66.8722L38.6255 66.8223L39.3755 66.7646L40.0946 66.6991C40.2119 66.6875 40.3279 66.6757 40.4426 66.6635L41.1154 66.5866C41.4441 66.5463 41.7612 66.5032 42.0667 66.4574L42.6622 66.3622L43.2267 66.2599L43.7603 66.1506C46.1778 65.6243 47.5824 64.8738 47.9638 63.9567L47.997 63.8651L47.9903 63.7472C47.944 63.209 47.7218 63.0247 47.1321 63.0025L47 63.0001C45.9612 63.0001 44.8672 63.5471 43.7071 64.7072C43.1045 65.3098 42.0928 64.9278 42.006 64.1138L42 64.0001C42 63.2191 41.781 63.0001 41 63.0001C39.9612 63.0001 38.8672 63.5471 37.7071 64.7072C37.3166 65.0978 36.6834 65.0978 36.2929 64.7072C35.9024 64.3167 35.9024 63.6835 36.2929 63.293C37.7994 61.7865 39.3721 61.0001 41 61.0001C42.1448 61.0001 43.0054 61.4109 43.5048 62.1557L43.544 62.2191L43.7396 62.0833C44.7168 61.4233 45.719 61.0588 46.7434 61.0067L47 61.0001Z" fill="#F4BE30"/>
<path d="M55.9933 19.8835C55.9355 19.3862 55.5128 19.0001 55 19.0001H17L16.8834 19.0068C16.386 19.0646 16 19.4873 16 20.0001V74.0001L16.0067 74.1167C16.0645 74.6141 16.4872 75.0001 17 75.0001H49L49.1166 74.9934C49.614 74.9356 50 74.513 50 74.0001L49.9933 73.8835C49.9355 73.3862 49.5128 73.0001 49 73.0001H18V21.0001H54V40.0001L54.0067 40.1167C54.0645 40.6141 54.4872 41.0001 55 41.0001C55.5523 41.0001 56 40.5524 56 40.0001V20.0001L55.9933 19.8835Z" fill="url(#paint0_radial_232_3557)"/>
<path d="M40 26.0001C40 25.4478 39.5523 25.0001 39 25.0001H23L22.8834 25.0068C22.386 25.0646 22 25.4873 22 26.0001C22 26.5524 22.4477 27.0001 23 27.0001H39L39.1166 26.9934C39.614 26.9356 40 26.513 40 26.0001Z" fill="url(#paint1_radial_232_3557)"/>
<path d="M49 31.0001C49.5523 31.0001 50 31.4478 50 32.0001C50 32.513 49.614 32.9356 49.1166 32.9934L49 33.0001H23C22.4477 33.0001 22 32.5524 22 32.0001C22 31.4873 22.386 31.0646 22.8834 31.0069L23 31.0001H49Z" fill="url(#paint2_radial_232_3557)"/>
<path d="M44 38.0001C44 37.4478 43.5523 37.0001 43 37.0001H23L22.8834 37.0068C22.386 37.0646 22 37.4873 22 38.0001C22 38.5524 22.4477 39.0001 23 39.0001H43L43.1166 38.9934C43.614 38.9356 44 38.513 44 38.0001Z" fill="url(#paint3_radial_232_3557)"/>
<path d="M49 43.0001C49.5523 43.0001 50 43.4478 50 44.0001C50 44.513 49.614 44.9356 49.1166 44.9934L49 45.0001H23C22.4477 45.0001 22 44.5524 22 44.0001C22 43.4873 22.386 43.0646 22.8834 43.0068L23 43.0001H49Z" fill="url(#paint4_radial_232_3557)"/>
<path d="M59.9933 27.8835C59.9355 27.3862 59.5128 27.0001 59 27.0001C58.4477 27.0001 58 27.4478 58 28.0001V36.0001L58.0067 36.1167C58.0645 36.6141 58.4872 37.0001 59 37.0001C59.5523 37.0001 60 36.5524 60 36.0001V28.0001L59.9933 27.8835Z" fill="url(#paint5_radial_232_3557)"/>
<path d="M51 77.0001C51.5523 77.0001 52 77.4478 52 78.0001C52 78.513 51.614 78.9356 51.1166 78.9934L51 79.0001H25C24.4477 79.0001 24 78.5524 24 78.0001C24 77.4873 24.386 77.0646 24.8834 77.0069L25 77.0001H51Z" fill="url(#paint6_radial_232_3557)"/>
<path d="M44 50.0001C44 49.4478 43.5523 49.0001 43 49.0001H23L22.8834 49.0068C22.386 49.0646 22 49.4873 22 50.0001C22 50.5524 22.4477 51.0001 23 51.0001H43L43.1166 50.9934C43.614 50.9356 44 50.513 44 50.0001Z" fill="url(#paint7_radial_232_3557)"/>
<defs>
<radialGradient id="paint0_radial_232_3557" cx="0" cy="0" r="1" gradientUnits="userSpaceOnUse" gradientTransform="translate(38 49.0001) rotate(90) scale(30 26.0131)">
<stop stop-color="#4C3CC7"/>
<stop offset="1" stop-color="#3026A6"/>
</radialGradient>
<radialGradient id="paint1_radial_232_3557" cx="0" cy="0" r="1" gradientUnits="userSpaceOnUse" gradientTransform="translate(38 49.0001) rotate(90) scale(30 26.0131)">
<stop stop-color="#4C3CC7"/>
<stop offset="1" stop-color="#3026A6"/>
</radialGradient>
<radialGradient id="paint2_radial_232_3557" cx="0" cy="0" r="1" gradientUnits="userSpaceOnUse" gradientTransform="translate(38 49.0001) rotate(90) scale(30 26.0131)">
<stop stop-color="#4C3CC7"/>
<stop offset="1" stop-color="#3026A6"/>
</radialGradient>
<radialGradient id="paint3_radial_232_3557" cx="0" cy="0" r="1" gradientUnits="userSpaceOnUse" gradientTransform="translate(38 49.0001) rotate(90) scale(30 26.0131)">
<stop stop-color="#4C3CC7"/>
<stop offset="1" stop-color="#3026A6"/>
</radialGradient>
<radialGradient id="paint4_radial_232_3557" cx="0" cy="0" r="1" gradientUnits="userSpaceOnUse" gradientTransform="translate(38 49.0001) rotate(90) scale(30 26.0131)">
<stop stop-color="#4C3CC7"/>
<stop offset="1" stop-color="#3026A6"/>
</radialGradient>
<radialGradient id="paint5_radial_232_3557" cx="0" cy="0" r="1" gradientUnits="userSpaceOnUse" gradientTransform="translate(38 49.0001) rotate(90) scale(30 26.0131)">
<stop stop-color="#4C3CC7"/>
<stop offset="1" stop-color="#3026A6"/>
</radialGradient>
<radialGradient id="paint6_radial_232_3557" cx="0" cy="0" r="1" gradientUnits="userSpaceOnUse" gradientTransform="translate(38 49.0001) rotate(90) scale(30 26.0131)">
<stop stop-color="#4C3CC7"/>
<stop offset="1" stop-color="#3026A6"/>
</radialGradient>
<radialGradient id="paint7_radial_232_3557" cx="0" cy="0" r="1" gradientUnits="userSpaceOnUse" gradientTransform="translate(38 49.0001) rotate(90) scale(30 26.0131)">
<stop stop-color="#4C3CC7"/>
<stop offset="1" stop-color="#3026A6"/>
</radialGradient>
</defs>
</svg>
