<svg width="288" height="289" viewBox="0 0 288 289" fill="none" xmlns="http://www.w3.org/2000/svg">
<path fill-rule="evenodd" clip-rule="evenodd" d="M262.8 65.3055C260.815 65.3055 259.2 63.6905 259.2 61.7055C259.2 59.7203 260.815 58.1055 262.8 58.1055C264.785 58.1055 266.4 59.7203 266.4 61.7055C266.4 63.6905 264.785 65.3055 262.8 65.3055Z" fill="#CACAFB"/>
<path fill-rule="evenodd" clip-rule="evenodd" d="M25.2 65.3055C23.2149 65.3055 21.6 63.6905 21.6 61.7055C21.6 59.7203 23.2149 58.1055 25.2 58.1055C27.185 58.1055 28.8 59.7203 28.8 61.7055C28.8 63.6905 27.185 65.3055 25.2 65.3055Z" fill="#CACAFB"/>
<path fill-rule="evenodd" clip-rule="evenodd" d="M39.6 245.305C37.615 245.305 36 243.691 36 241.705C36 239.72 37.615 238.105 39.6 238.105C41.585 238.105 43.2 239.72 43.2 241.705C43.2 243.691 41.585 245.305 39.6 245.305Z" fill="#CACAFB"/>
<path fill-rule="evenodd" clip-rule="evenodd" d="M68.3999 22.1063C66.4149 22.1063 64.7999 20.4913 64.7999 18.5063C64.7999 16.521 66.4149 14.9062 68.3999 14.9062C70.385 14.9062 71.9999 16.521 71.9999 18.5063C71.9999 20.4913 70.385 22.1063 68.3999 22.1063Z" fill="#CACAFB"/>
<path fill-rule="evenodd" clip-rule="evenodd" d="M198 281.305C196.015 281.305 194.4 279.69 194.4 277.705C194.4 275.72 196.015 274.105 198 274.105C199.985 274.105 201.6 275.72 201.6 277.705C201.6 279.69 199.985 281.305 198 281.305Z" fill="#CACAFB"/>
<path d="M194.532 147.14C195.065 145.224 197.05 144.104 198.966 144.637C207.388 146.983 213.845 153.588 215.554 161.779C215.961 163.725 214.712 165.632 212.766 166.039C210.819 166.445 208.912 165.196 208.506 163.25C207.359 157.755 202.919 153.212 197.034 151.574C195.119 151.04 193.999 149.055 194.532 147.14Z" fill="#E9C53B"/>
<path fill-rule="evenodd" clip-rule="evenodd" d="M158.4 166.105C158.4 146.251 174.546 130.105 194.4 130.105C214.254 130.105 230.4 146.251 230.4 166.105C230.4 175.344 226.904 183.779 221.166 190.158L242.388 226.918C245.371 232.083 243.601 238.689 238.435 241.671C233.454 244.547 227.135 243.004 224.016 238.258L223.682 237.718L202.581 201.168C199.952 201.781 197.213 202.105 194.4 202.105C174.546 202.105 158.4 185.959 158.4 166.105ZM209.514 198.778L229.918 234.118C230.912 235.84 233.114 236.43 234.835 235.435C236.434 234.512 237.057 232.548 236.342 230.893L236.153 230.518L215.709 195.107C213.781 196.527 211.707 197.76 209.514 198.778ZM223.2 166.105C223.2 150.227 210.278 137.305 194.4 137.305C178.522 137.305 165.6 150.227 165.6 166.105C165.6 181.983 178.523 194.905 194.4 194.905C210.277 194.905 223.2 181.983 223.2 166.105Z" fill="#E9C53B"/>
<path d="M248.376 64.8852C248.168 63.0948 246.646 61.7051 244.8 61.7051H50.4L49.9802 61.7293C48.1898 61.9373 46.8 63.4589 46.8 65.3051V230.905L46.8243 231.325C47.0322 233.115 48.5538 234.505 50.4 234.505H201.6L202.02 234.481C203.81 234.273 205.2 232.751 205.2 230.905L205.176 230.485C204.968 228.695 203.446 227.305 201.6 227.305H54V97.7051H187.2L187.62 97.6809C189.41 97.4729 190.8 95.9513 190.8 94.1051C190.8 92.1169 189.188 90.5051 187.2 90.5051H54V68.9051H241.2V90.5051H208.8L208.38 90.5293C206.59 90.7373 205.2 92.2589 205.2 94.1051C205.2 96.0933 206.812 97.7051 208.8 97.7051H241.2V202.105L241.224 202.525C241.432 204.315 242.954 205.705 244.8 205.705C246.788 205.705 248.4 204.093 248.4 202.105V65.3051L248.376 64.8852Z" fill="#000091"/>
<path d="M64.8 83.3051C62.815 83.3051 61.2 81.6901 61.2 79.7051C61.2 77.7199 62.815 76.1051 64.8 76.1051C66.7851 76.1051 68.4 77.7199 68.4 79.7051C68.4 81.6901 66.7851 83.3051 64.8 83.3051Z" fill="#000091"/>
<path d="M75.6 79.7051C75.6 81.6901 77.215 83.3051 79.2 83.3051C81.1851 83.3051 82.8 81.6901 82.8 79.7051C82.8 77.7199 81.1851 76.1051 79.2 76.1051C77.215 76.1051 75.6 77.7199 75.6 79.7051Z" fill="#000091"/>
<path d="M93.6 83.3051C91.615 83.3051 90 81.6901 90 79.7051C90 77.7199 91.615 76.1051 93.6 76.1051C95.5851 76.1051 97.2 77.7199 97.2 79.7051C97.2 81.6901 95.5851 83.3051 93.6 83.3051Z" fill="#000091"/>
<path d="M230.4 76.1051C232.388 76.1051 234 77.7169 234 79.7051C234 81.5513 232.61 83.0729 230.82 83.2809L230.4 83.3051H122.4C120.412 83.3051 118.8 81.6933 118.8 79.7051C118.8 77.8589 120.19 76.3373 121.98 76.1293L122.4 76.1051H230.4Z" fill="#000091"/>
<path d="M147.6 122.905C147.6 120.917 145.988 119.305 144 119.305H79.2L78.7802 119.329C76.9898 119.537 75.6 121.059 75.6 122.905C75.6 124.893 77.2118 126.505 79.2 126.505H144L144.42 126.481C146.21 126.273 147.6 124.751 147.6 122.905Z" fill="#000091"/>
<path d="M129.6 140.905C131.588 140.905 133.2 142.517 133.2 144.505C133.2 146.351 131.81 147.873 130.02 148.081L129.6 148.105H79.2C77.2118 148.105 75.6 146.493 75.6 144.505C75.6 142.659 76.9898 141.137 78.7802 140.929L79.2 140.905H129.6Z" fill="#000091"/>
<path d="M126 166.105C126 164.117 124.388 162.505 122.4 162.505H79.2L78.7802 162.529C76.9898 162.737 75.6 164.259 75.6 166.105C75.6 168.093 77.2118 169.705 79.2 169.705H122.4L122.82 169.681C124.61 169.473 126 167.951 126 166.105Z" fill="#000091"/>
</svg>
