<svg width="80" height="88" viewBox="0 0 80 88" fill="none"
    xmlns="http://www.w3.org/2000/svg">
    <path fill-rule="evenodd" clip-rule="evenodd" d="M59 84C58.4486 84 58 83.5514 58 83C58 82.4486 58.4486 82 59 82C59.5514 82 60 82.4486 60 83C60 83.5514 59.5514 84 59 84Z" fill="#CACAFB"/>
    <path fill-rule="evenodd" clip-rule="evenodd" d="M67 20C66.4486 20 66 19.5514 66 19C66 18.4486 66.4486 18 67 18C67.5514 18 68 18.4486 68 19C68 19.5514 67.5514 20 67 20Z" fill="#CACAFB"/>
    <path fill-rule="evenodd" clip-rule="evenodd" d="M9 24C8.4486 24 8 23.5514 8 23C8 22.4486 8.4486 22 9 22C9.5514 22 10 22.4486 10 23C10 23.5514 9.5514 24 9 24Z" fill="#CACAFB"/>
    <path d="M37 31C37 30.4477 36.5523 30 36 30H24L23.8834 30.0067C23.386 30.0645 23 30.4872 23 31C23 31.5523 23.4477 32 24 32H36L36.1166 31.9933C36.614 31.9355 37 31.5128 37 31Z" fill="#E9C53B"/>
    <path d="M39 48C37.8954 48 37 48.8954 37 50C37 52.487 38.0086 54 40 54C40.5523 54 41 53.5523 41 53C41 52.4477 40.5523 52 40 52L39.9059 51.9966C39.7865 51.9878 39.6792 51.9612 39.5839 51.9134C40.4036 51.6636 41 50.9015 41 50C41 48.8954 40.1046 48 39 48Z" fill="#E9C53B"/>
    <path d="M43 50C43 48.8954 43.8954 48 45 48C46.1046 48 47 48.8954 47 50C47 50.9015 46.4036 51.6636 45.5839 51.9134C45.6792 51.9612 45.7865 51.9878 45.9059 51.9966L46 52C46.5523 52 47 52.4477 47 53C47 53.5523 46.5523 54 46 54C44.0086 54 43 52.487 43 50Z" fill="#E9C53B"/>
    <path d="M34 34C34.5523 34 35 34.4477 35 35C35 35.5128 34.614 35.9355 34.1166 35.9933L34 36H24C23.4477 36 23 35.5523 23 35C23 34.4872 23.386 34.0645 23.8834 34.0067L24 34H34Z" fill="#E9C53B"/>
    <path d="M31 39C31 38.4477 30.5523 38 30 38H24L23.8834 38.0067C23.386 38.0645 23 38.4872 23 39C23 39.5523 23.4477 40 24 40H30L30.1166 39.9933C30.614 39.9355 31 39.5128 31 39Z" fill="#E9C53B"/>
    <path d="M56 58C56.5523 58 57 58.4477 57 59C57 59.5128 56.614 59.9355 56.1166 59.9933L56 60H38C37.4477 60 37 59.5523 37 59C37 58.4872 37.386 58.0645 37.8834 58.0067L38 58H56Z" fill="#E9C53B"/>
    <path d="M53 63C53 62.4477 52.5523 62 52 62H38L37.8834 62.0067C37.386 62.0645 37 62.4872 37 63C37 63.5523 37.4477 64 38 64H52L52.1166 63.9933C52.614 63.9355 53 63.5128 53 63Z" fill="#E9C53B"/>
    <path d="M32 20C38.8541 20 44.2879 24.0571 46.9279 30.6272C47.1338 31.1396 46.8853 31.722 46.3728 31.9279C45.8604 32.1338 45.278 31.8853 45.0721 31.3728C42.7238 25.5287 37.9977 22 32 22C23.7157 22 17 28.7157 17 37C17 40.2158 18.0133 43.2762 19.8657 45.8201C20.1006 46.1426 20.1191 46.5696 19.9238 46.9082L19.8507 47.0175L16.027 52H22C22.5128 52 22.9355 52.386 22.9933 52.8834L23 53C23 53.5128 22.614 53.9355 22.1166 53.9933L22 54H14C13.2086 54 12.7453 53.1335 13.1438 52.4827L13.2066 52.3913L17.82 46.378L17.7635 46.2944C16.0508 43.6767 15.0862 40.6291 15.0055 37.4363L15 37C15 27.6112 22.6112 20 32 20Z" fill="#000091"/>
    <path d="M47 36C58.0457 36 67 44.9543 67 56C67 59.1306 66.2794 62.1604 64.9137 64.9032C64.6676 65.3975 64.0672 65.5988 63.5728 65.3526C63.0784 65.1064 62.8772 64.5061 63.1234 64.0117C64.3519 61.5444 65 58.8195 65 56C65 46.0589 56.9411 38 47 38C37.0589 38 29 46.0589 29 56C29 65.8307 36.8808 73.8207 46.6693 73.997L47 74H64.131L61.1679 69.5547C60.8835 69.128 60.9702 68.5622 61.352 68.2382L61.4453 68.1679C61.872 67.8835 62.4378 67.9702 62.7618 68.352L62.8321 68.4453L66.8321 74.4453C67.254 75.0782 66.842 75.9157 66.1118 75.9941L66 76H47C35.9543 76 27 67.0457 27 56C27 44.9543 35.9543 36 47 36Z" fill="#000091"/>
    <path d="M55 27C55 27.5514 55.4486 28 56 28C56.5514 28 57 27.5514 57 27C57 26.4486 56.5514 26 56 26C55.4486 26 55 26.4486 55 27Z" fill="#000091"/>
    <path d="M60 28C59.4486 28 59 27.5514 59 27C59 26.4486 59.4486 26 60 26C60.5514 26 61 26.4486 61 27C61 27.5514 60.5514 28 60 28Z" fill="#000091"/>
    <path d="M63 27C63 27.5514 63.4486 28 64 28C64.5514 28 65 27.5514 65 27C65 26.4486 64.5514 26 64 26C63.4486 26 63 26.4486 63 27Z" fill="#000091"/>
    <path fill-rule="evenodd" clip-rule="evenodd" d="M68 22H52C51.4477 22 51 22.4477 51 23V31L51.0067 31.1166C51.0645 31.614 51.4872 32 52 32H59.585L63.2929 35.7071L63.3775 35.7832C64.0145 36.2974 65 35.8522 65 35V32H68C68.5523 32 69 31.5523 69 31V23C69 22.4477 68.5523 22 68 22ZM67 24V30H64L63.8834 30.0067C63.386 30.0645 63 30.4872 63 31V32.585L60.7071 30.2929L60.608 30.2061C60.4345 30.0732 60.221 30 60 30H53V24H67Z" fill="#000091"/>
    <path d="M16 66C16.5523 66 17 66.4477 17 67C17 67.5128 16.614 67.9355 16.1166 67.9933L16 68H12C11.4477 68 11 67.5523 11 67C11 66.4872 11.386 66.0645 11.8834 66.0067L12 66H16Z" fill="#000091"/>
    <path d="M19 67C19 67.5514 19.4486 68 20 68C20.5514 68 21 67.5514 21 67C21 66.4486 20.5514 66 20 66C19.4486 66 19 66.4486 19 67Z" fill="#000091"/>
    <path d="M24 68C23.4486 68 23 67.5514 23 67C23 66.4486 23.4486 66 24 66C24.5514 66 25 66.4486 25 67C25 67.5514 24.5514 68 24 68Z" fill="#000091"/>
</svg>
