<svg width="80" height="88" viewBox="0 0 80 88" fill="none"
    xmlns="http://www.w3.org/2000/svg">
    <path fill-rule="evenodd" clip-rule="evenodd" d="M68 21C67.4486 21 67 20.5514 67 20C67 19.4486 67.4486 19 68 19C68.5514 19 69 19.4486 69 20C69 20.5514 68.5514 21 68 21Z" fill="#CACAFB"/>
    <path fill-rule="evenodd" clip-rule="evenodd" d="M30 88C29.4486 88 29 87.5514 29 87C29 86.4486 29.4486 86 30 86C30.5514 86 31 86.4486 31 87C31 87.5514 30.5514 88 30 88Z" fill="#CACAFB"/>
    <path fill-rule="evenodd" clip-rule="evenodd" d="M15 18C14.4486 18 14 17.5514 14 17C14 16.4486 14.4486 16 15 16C15.5514 16 16 16.4486 16 17C16 17.5514 15.5514 18 15 18Z" fill="#CACAFB"/>
    <path fill-rule="evenodd" clip-rule="evenodd" d="M54 43C44.6112 43 37 50.6112 37 60C37 60.0637 37.0004 60.1273 37.0011 60.1908C36.9631 63.504 37.9344 66.8431 39.9555 69.7416C43.028 74.1481 47.9551 76.7163 53.1252 76.9779C53.3503 76.9893 53.5766 76.9963 53.8039 76.9989C56.0402 77.0244 58.3085 76.6175 60.4799 75.7408C60.5435 75.7151 60.6035 75.6833 60.6594 75.6462C63.1053 74.6038 65.257 73.0046 66.9553 71.0078C67.076 70.9472 67.1895 70.8579 67.2885 70.7364C69.7555 67.7118 71.041 63.976 70.999 60.1843C70.9997 60.1229 71 60.0615 71 60C71 50.6112 63.3889 43 54 43ZM58.8221 45.7919C57.3087 45.2785 55.6869 45 54 45C49.9417 45 46.2597 46.6117 43.5594 49.23C43.7359 49.4543 43.8837 49.6986 43.9981 49.9556C44.1007 50.1803 44.1853 50.4113 44.2535 50.6496C44.3888 51.1219 44.4516 51.522 44.4785 52.0605L44.4925 52.4936C44.4953 52.6488 44.4964 52.8159 44.4964 52.9983L44.497 53.1983L44.5028 53.5361L44.5156 53.7977L44.5366 53.9959C44.5536 54.1098 44.5766 54.19 44.6072 54.2537C44.6122 54.264 44.6359 54.2793 44.6788 54.2989L44.7898 54.3437L44.9519 54.399L45.1654 54.4635L45.5826 54.5751L46.1172 54.701L47.3353 54.9617L47.7621 55.0682C48.5128 55.2711 49.0679 55.6108 49.7113 56.2247L49.846 56.356L49.8353 56.3336C49.2391 54.9499 49.1576 53.1382 49.5335 51.9288L49.6045 51.7219C50.1219 50.3488 51.2835 49.8161 52.8758 49.7793C52.9247 49.7782 52.9726 49.7774 53.0204 49.7771L53.3112 49.7798C53.3612 49.781 53.4126 49.7827 53.466 49.7847L54.5485 49.8446L54.8607 49.8541L55.0111 49.8514L55.1315 49.8416C55.3004 49.8209 55.5043 49.6192 55.7326 49.1722L56.0716 48.4118L56.1976 48.146C56.2579 48.0242 56.3121 47.9247 56.3513 47.8722C56.6821 47.4295 57.2061 46.9608 57.9753 46.3919L58.4195 46.0712L58.8221 45.7919ZM54.4914 74.9921C54.3282 74.9974 54.1644 75 54 75C45.78 75 39.1043 68.388 39.0012 60.1925C39.0422 57.0179 40.1395 53.8714 42.2475 51.2829L42.326 51.187L42.3308 51.2002C42.4046 51.458 42.4472 51.698 42.4706 52.011L42.4881 52.3518L42.4956 52.7614L42.4995 53.4502C42.5128 54.2472 42.5758 54.6436 42.8049 55.1206C43.1628 55.8634 43.6896 56.1745 44.9636 56.4908L45.3914 56.5914L45.8729 56.6954L46.7297 56.8754L47.0042 56.9386L47.2399 56.9988C47.7741 57.1432 48.2281 57.5136 49.0005 58.3759L49.5312 58.9685C49.833 59.2941 50.0369 59.4873 50.2651 59.6173C50.5988 59.8075 51.0118 59.7897 51.3279 59.5718C51.7091 59.3089 52.1144 58.7207 52.3057 58.0502C52.4946 57.3876 52.4557 56.7274 52.1067 56.2331L52.0038 56.1026C51.3148 55.3079 51.1349 53.3287 51.4756 52.4284C51.6414 51.9883 52.0547 51.7988 52.9221 51.7787L53.154 51.7774L53.5528 51.7907L54.3643 51.8382L54.6808 51.8518C54.728 51.8532 54.7727 51.8542 54.8154 51.8547L55.0525 51.8522L55.2666 51.8384C55.3017 51.8351 55.3369 51.8313 55.3726 51.827C56.2956 51.7141 56.9253 51.1445 57.4117 50.2731L57.5542 50.0001L57.6441 49.8077L57.8634 49.3016L57.9531 49.0752C57.955 49.0692 57.9552 49.067 57.9535 49.0692C58.0932 48.8823 58.3454 48.6448 58.7027 48.3583L59.0345 48.1008L59.4167 47.8194C59.4846 47.7706 59.5545 47.7208 59.6264 47.6699L60.0823 47.3534L60.403 47.136L60.6065 47.2305C64.5577 49.1206 67.4703 52.6165 68.5479 56.8006L68.6377 57.1695C68.8671 58.1688 68.9863 59.1796 68.9989 60.1861C68.9726 62.3448 68.4904 64.3938 67.644 66.2411C67.494 64.9537 67.0454 64.2987 65.8937 63.6551C65.4988 63.4376 65.1861 63.2813 64.8143 63.1109L64.5221 62.9793C63.6966 62.6145 63.5023 62.4753 63.0603 61.8434L62.8318 61.5125C61.7063 59.8392 60.8366 59.3027 58.7731 59.6216C55.1135 60.189 54.0515 60.8918 53.7683 62.761L53.6712 63.4296C53.6608 63.506 53.6512 63.5803 53.6424 63.6525L53.5989 64.062C53.4919 65.2864 53.6848 65.8544 54.4048 66.5932L54.9311 67.1376L55.4251 67.6586L55.8863 68.1558L56.3148 68.6288L56.7101 69.0773L57.0722 69.5007L57.4007 69.8988L57.6955 70.2709L57.9564 70.6169C57.997 70.6723 58.0362 70.7267 58.074 70.7799L58.2834 71.0857C58.4757 71.3779 58.6161 71.6292 58.7038 71.8377L58.7959 72.0711C59.0021 72.6257 59.1439 73.2473 59.1637 73.8674L59.164 74.0874C57.6999 74.6243 56.1288 74.9394 54.4914 74.9921ZM61.1212 73.2051C62.8476 72.2722 64.3703 71.0105 65.6055 69.504C65.6736 69.0602 65.7095 68.5873 65.7095 68.085L65.7094 67.6609L65.7068 67.2638L65.6987 66.9248L65.6828 66.6378C65.6247 65.8924 65.4468 65.6964 64.9236 65.404L64.6767 65.2707C64.3602 65.1035 64.0828 64.9725 63.7121 64.8079L63.4947 64.71C62.5184 64.2605 62.0585 63.9006 61.4179 62.9847L61.0766 62.4877L60.8902 62.2239C60.4501 61.6264 60.181 61.4827 59.5241 61.5409L59.2394 61.5744L58.8151 61.6395L58.1097 61.7568L57.5245 61.867L57.1954 61.9384L56.9109 62.0098C56.1213 62.2248 55.8882 62.4542 55.7877 62.8456L55.7585 62.9823L55.6887 63.4429L55.6164 63.9519L55.5855 64.2177L55.5689 64.4343L55.567 64.6096C55.5735 64.7931 55.6108 64.9089 55.6817 65.0147L55.7507 65.1042C55.7766 65.1341 55.8052 65.1645 55.8367 65.1968L56.1339 65.5029L56.7006 66.0953L57.2301 66.6615L57.7224 67.2015L58.1775 67.7156L58.5955 68.204L58.9764 68.6668L59.3201 69.1043C59.9163 69.8831 60.3255 70.5347 60.5481 71.0642C60.8226 71.7203 61.0321 72.4456 61.1212 73.2051Z" fill="#E9C53B"/>
    <path d="M66.9933 25.8834C66.9355 25.386 66.5128 25 66 25H12L11.8834 25.0067C11.386 25.0645 11 25.4872 11 26V72L11.0067 72.1166C11.0645 72.614 11.4872 73 12 73H36L36.1166 72.9933C36.614 72.9355 37 72.5128 37 72L36.9933 71.8834C36.9355 71.386 36.5128 71 36 71H13V35H50L50.1166 34.9933C50.614 34.9355 51 34.5128 51 34C51 33.4477 50.5523 33 50 33H13V27H65V33H56L55.8834 33.0067C55.386 33.0645 55 33.4872 55 34C55 34.5523 55.4477 35 56 35H65V42L65.0067 42.1166C65.0645 42.614 65.4872 43 66 43C66.5523 43 67 42.5523 67 42V26L66.9933 25.8834Z" fill="#000091"/>
    <path d="M16 31C15.4486 31 15 30.5514 15 30C15 29.4486 15.4486 29 16 29C16.5514 29 17 29.4486 17 30C17 30.5514 16.5514 31 16 31Z" fill="#000091"/>
    <path d="M19 30C19 30.5514 19.4486 31 20 31C20.5514 31 21 30.5514 21 30C21 29.4486 20.5514 29 20 29C19.4486 29 19 29.4486 19 30Z" fill="#000091"/>
    <path d="M24 31C23.4486 31 23 30.5514 23 30C23 29.4486 23.4486 29 24 29C24.5514 29 25 29.4486 25 30C25 30.5514 24.5514 31 24 31Z" fill="#000091"/>
    <path d="M62 29C62.5523 29 63 29.4477 63 30C63 30.5128 62.614 30.9355 62.1166 30.9933L62 31H32C31.4477 31 31 30.5523 31 30C31 29.4872 31.386 29.0645 31.8834 29.0067L32 29H62Z" fill="#000091"/>
    <path d="M39 42C39 41.4477 38.5523 41 38 41H20L19.8834 41.0067C19.386 41.0645 19 41.4872 19 42C19 42.5523 19.4477 43 20 43H38L38.1166 42.9933C38.614 42.9355 39 42.5128 39 42Z" fill="#000091"/>
    <path d="M34 47C34.5523 47 35 47.4477 35 48C35 48.5128 34.614 48.9355 34.1166 48.9933L34 49H20C19.4477 49 19 48.5523 19 48C19 47.4872 19.386 47.0645 19.8834 47.0067L20 47H34Z" fill="#000091"/>
    <path d="M33 54C33 53.4477 32.5523 53 32 53H20L19.8834 53.0067C19.386 53.0645 19 53.4872 19 54C19 54.5523 19.4477 55 20 55H32L32.1166 54.9933C32.614 54.9355 33 54.5128 33 54Z" fill="#000091"/>
</svg>
