<svg width="315" height="276" viewBox="0 0 315 276" fill="none" xmlns="http://www.w3.org/2000/svg">
<!-- <path d="M71.14 174.75L36.38 162.49L1.60999 150.24L29.61 126.25L57.6 102.27L64.37 138.51L71.14 174.75Z" fill="#FCDC59" stroke="#090938" stroke-width="0.79" stroke-miterlimit="10"/> -->
<path d="M97.42 98.73C95.23 101.07 92.21 102.43 89.42 103.95C86.63 105.47 83.74 107.35 82.35 110.24C81.77 111.45 81.12 113.83 81.9 114.92L91.25 109.4C88.62 111.69 85.25 113 82.25 114.74C79.25 116.48 76.25 118.93 75.39 122.31C75.2172 122.85 75.193 123.427 75.32 123.98C75.3896 124.255 75.5387 124.503 75.7486 124.693C75.9585 124.883 76.2198 125.008 76.5 125.05L90.14 120.9C76.7111 125.225 63.6162 130.526 50.96 136.76C49.04 137.76 46.78 139.44 47.48 141.47C48.09 143.24 50.48 143.52 52.33 143.4C62.74 142.74 72.78 139.4 83.01 137.4C93.24 135.4 104.23 134.58 113.77 138.81L100.95 141.66C99.04 139.5 96.61 137.66 93.76 137.24C90.91 136.82 87.67 138.42 86.91 141.19C92.62 147.43 99.78 153.08 108.19 153.86C115.11 154.49 121.95 151.71 127.75 147.86C133.55 144.01 138.57 139.16 144.09 134.92C154.95 126.57 167.55 120.82 180.02 115.13L243.09 86.38L274.09 76.28C276.141 75.411 277.992 74.1314 279.53 72.52C281.45 70.26 282.09 67.2 282.61 64.28C285.403 48.6184 286.865 32.7483 286.98 16.84C286.98 11.48 286.83 5.84 284.07 1.25L201.57 57.87C183.8 70 165.11 82.56 143.75 85C134.95 86 126.05 85.19 117.22 85.83C108.39 86.47 99.22 88.83 92.83 94.91C91.667 96.117 90.7649 97.5505 90.1799 99.1212C89.595 100.692 89.3397 102.366 89.43 104.04L97.42 98.73Z" fill="white"/>
<path d="M96.9999 98.3094C93.6699 101.729 88.8799 102.999 85.1799 105.919C83.601 107.094 82.3537 108.659 81.5599 110.459C80.9799 111.879 80.4899 113.799 81.3399 115.219C81.3792 115.287 81.4313 115.345 81.4933 115.392C81.5553 115.439 81.626 115.473 81.7013 115.493C81.7766 115.512 81.8549 115.517 81.9319 115.506C82.0089 115.495 82.083 115.469 82.1499 115.429L91.4999 109.909L90.7799 108.979C87.45 111.799 83.1799 113.099 79.6799 115.669C78.2658 116.668 77.0373 117.907 76.0499 119.329C75.1899 120.639 74.1799 122.699 74.7799 124.329C75.5199 126.329 77.1599 125.499 78.5799 125.069L85.3199 123.019L90.2599 121.519L89.9499 120.369C81.9499 122.949 74.0766 125.866 66.3299 129.119C62.5633 130.706 58.8232 132.373 55.1099 134.119C53.2604 134.913 51.4545 135.804 49.6999 136.789C48.5408 137.408 47.596 138.363 46.9899 139.529C45.8199 142.249 48.4999 143.849 50.8299 144.029C52.7384 144.081 54.6474 143.947 56.5299 143.629C58.4633 143.383 60.3832 143.076 62.2899 142.709C70.4499 141.149 78.4099 138.709 86.6099 137.339C95.5199 135.859 105 135.659 113.44 139.339L113.58 138.249L100.75 141.099L101.33 141.259C98.2699 137.859 93.3299 134.969 88.9199 137.709C87.7499 138.429 85.4699 140.539 86.7299 141.929C88.5503 143.938 90.5228 145.804 92.6299 147.509C96.6299 150.739 101.27 153.379 106.4 154.239C112 155.179 117.63 153.849 122.69 151.439C128 148.899 132.61 145.179 137.1 141.439C141.731 137.422 146.622 133.714 151.74 130.339C162.18 123.699 173.58 118.759 184.81 113.639L221.57 96.8794L239.72 88.5994C241.636 87.6964 243.602 86.9051 245.61 86.2294L262.46 80.7394C266.34 79.4694 270.4 78.4194 274.19 76.9094C276.514 76.0316 278.578 74.5799 280.19 72.6894C281.644 70.6048 282.587 68.2066 282.94 65.6894C284.18 59.3794 285.05 52.9694 285.77 46.5794C286.523 39.9794 287.037 33.3627 287.31 26.7294C287.56 20.7294 288 14.5794 287.13 8.65941C286.767 5.96938 285.894 3.37314 284.56 1.00941C284.479 0.875813 284.349 0.779125 284.198 0.739907C284.046 0.700688 283.886 0.722035 283.75 0.799408L202.89 56.2894C191.13 64.3594 179.28 72.5794 166.12 78.2894C159.62 81.1524 152.771 83.1462 145.75 84.2194C137.75 85.3694 129.69 84.8594 121.66 85.0894C114.27 85.2994 106.74 86.2194 99.9899 89.4294C94.2699 92.1394 88.1499 97.0394 88.8599 104.109C88.8596 104.214 88.8868 104.316 88.9389 104.406C88.9911 104.497 89.0662 104.571 89.1566 104.623C89.247 104.675 89.3496 104.702 89.4538 104.701C89.558 104.701 89.6602 104.672 89.7499 104.619L97.7499 99.3494C98.3899 98.9294 97.7499 97.8994 97.1599 98.3494L89.1599 103.619L90.0599 104.129C89.3599 97.1894 95.7199 92.6294 101.32 90.1294C107.54 87.3594 114.43 86.5194 121.18 86.2994C128.99 86.0494 136.85 86.5394 144.64 85.5694C151.358 84.6765 157.935 82.929 164.21 80.3694C177.21 75.1594 188.93 67.3694 200.43 59.4694C213.477 50.4427 226.53 41.4394 239.59 32.4594L284.32 1.75941L283.51 1.53941C286.26 6.23941 286.39 11.7794 286.35 17.0694C286.3 23.0694 286.06 29.0694 285.63 34.9994C285.2 40.9294 284.63 46.9994 283.76 52.9394C283.347 55.9394 282.887 58.9394 282.38 61.9394C282.072 64.5354 281.471 67.0883 280.59 69.5494C278.44 74.6594 273.22 75.9294 268.5 77.4594L252.16 82.7894C248.821 83.7095 245.534 84.8043 242.31 86.0694C231.4 90.9994 220.53 95.9994 209.64 100.999C198.75 105.999 187.74 110.999 176.81 115.999C166.81 120.569 156.81 125.309 147.81 131.559C138.91 137.699 131.49 146.189 121.55 150.719C116.55 152.989 111 154.099 105.55 152.899C100.712 151.657 96.2502 149.254 92.5499 145.899C90.7012 144.308 88.9513 142.604 87.3099 140.799L87.4699 141.379C88.2399 138.909 90.9299 137.619 93.3999 137.829C96.2699 138.069 98.6599 140.049 100.51 142.109C100.586 142.182 100.679 142.234 100.78 142.261C100.882 142.287 100.989 142.286 101.09 142.259L113.91 139.409C114.022 139.377 114.122 139.312 114.197 139.223C114.273 139.135 114.321 139.026 114.336 138.91C114.351 138.795 114.332 138.677 114.281 138.572C114.23 138.467 114.15 138.379 114.05 138.319C100.28 132.319 85.1699 136.179 71.2599 139.529C67.4199 140.449 63.5699 141.349 59.6699 141.999C57.6699 142.329 55.7199 142.589 53.7299 142.759C52.2099 142.889 50.2399 143.189 48.8699 142.329C45.0299 139.929 52.6599 136.629 54.2299 135.879C57.7966 134.173 61.4032 132.536 65.0499 130.969C73.3099 127.429 81.7199 124.286 90.2799 121.539C91 121.299 90.6999 120.169 89.9699 120.389L80.5899 123.239L77.9499 124.039C77.479 124.266 76.9768 124.421 76.4599 124.499C74.8599 124.269 76.4599 120.919 76.9999 120.149C78.031 118.618 79.3651 117.315 80.9199 116.319C84.3799 113.959 88.4199 112.609 91.6399 109.879C92.1599 109.439 91.4899 108.609 90.9199 108.949L81.5699 114.469L82.3799 114.679C81.5199 113.229 82.5699 110.869 83.3799 109.609C84.5543 107.968 86.0731 106.603 87.8299 105.609C91.2099 103.519 95.0199 102.139 97.8299 99.2394C98.3799 98.5994 97.5399 97.7594 96.9999 98.3094Z" fill="#090938"/>
</svg>
