<svg width="177" height="139" viewBox="0 0 177 139" fill="none" xmlns="http://www.w3.org/2000/svg">
<path d="M91.29 33.9506L29.39 90.6706L1.47998 56.0305L52.29 5.81055L91.29 33.9506Z" fill="#FCDC59" stroke="#090938" stroke-width="0.79" stroke-miterlimit="10"/>
<path d="M70.5901 13.2704C67.8609 12.3536 65.0662 11.6449 62.23 11.1504C56.83 9.88038 53.45 11.2204 48.41 13.5504L31.0801 21.5504C29.3501 22.3504 27.29 23.9104 28 25.6804C28.44 26.7904 29.8 27.2104 31 27.2504C34.35 27.3504 37.4 25.5504 40.54 24.4004C44.72 22.8704 52.15 21.0504 56.54 21.8204L59.13 21.7704L76.26 22.6904C71.1534 22.2371 66.0334 21.9337 60.9001 21.7804C59.5289 21.6566 58.1466 21.7819 56.82 22.1504C55.2767 22.8148 53.8901 23.796 52.75 25.0304C45.26 32.1304 37.42 39.8004 34.97 49.8304C38.03 50.4904 41.54 51.0604 44.04 49.1704C44.9862 48.3635 45.8024 47.4157 46.4601 46.3604C49.1968 42.5833 52.2477 39.044 55.5801 35.7804C57.9701 33.5304 66.4301 34.4504 72.4601 34.4104C75.0501 34.4104 79.1001 36.7504 81.3901 37.9604C85.3901 40.0604 85.63 44.1404 84.91 48.5804C84.63 50.2604 84.11 50.5804 83.22 52.0704C80.03 57.2304 73.45 58.9504 67.49 60.1404L66.8301 60.2704C62.4801 61.1604 57.83 62.1804 54.24 64.9304C53.07 65.8304 51.7 67.0504 51.47 68.5904C51.06 71.2204 54.41 72.9204 56.47 73.1404C70.68 74.6504 84.36 67.2004 98.63 66.4804C105.43 66.1404 112.21 67.3304 119.02 67.5504C124.28 67.7104 129.59 67.2904 134.78 68.1804C143.78 69.7004 151.59 74.9504 159.25 79.8904C176.88 91.2704 199.39 119.45 218.25 128.74C223.15 131.15 228.75 136.22 234.07 137.44C243.99 139.71 249.96 117.19 258.42 111.53C264.42 107.53 269.32 101.48 270.69 94.4004C272.06 87.3204 269.29 79.2804 263.12 75.5404C260.639 74.1528 257.93 73.2214 255.12 72.7904C248.35 71.5004 241.4 71.4704 234.52 71.0304C209.84 69.4504 191.3 55.4104 167.69 48.0304C153.22 43.5304 122.53 30.6804 109.38 23.1404C92.45 13.4204 89.1701 14.6104 73.8301 2.53038C72.4701 1.46038 70.0301 0.650392 69.3901 2.26039C68.9801 3.26039 69.87 4.36038 70.68 5.12038L74.3901 8.62038L77.9001 12.0004L65.5301 7.88039C56.9401 7.06039 56.0401 7.46038 47.4501 6.65038C44.1901 6.34038 40.34 6.27039 38.32 8.85039C37.9285 9.29156 37.7116 9.86054 37.7101 10.4504C37.7701 11.5104 38.8101 12.2104 39.7701 12.6504C41.4605 13.4208 43.2093 14.0562 45 14.5504" fill="white"/>
<path d="M70.75 12.7003C68.4665 11.9136 66.1264 11.3018 63.75 10.8703C61.7406 10.3371 59.6689 10.0748 57.59 10.0903C53.43 10.3003 49.64 12.3503 45.93 14.0903L31.93 20.5803C30.33 21.3203 28.44 22.1303 27.61 23.8103C27.314 24.3885 27.2442 25.0563 27.4144 25.6832C27.5845 26.3101 27.9823 26.851 28.53 27.2003C30.03 28.2003 32.1 27.9803 33.75 27.6203C35.9276 27.0028 38.054 26.2171 40.11 25.2703C43.7737 23.8355 47.6097 22.8874 51.52 22.4503C53.2069 22.3052 54.9031 22.3052 56.59 22.4503C57.45 22.4503 58.31 22.3803 59.16 22.3903C60.47 22.3903 61.78 22.5303 63.09 22.6003L76.29 23.3203C77.06 23.3203 77.04 22.2003 76.29 22.1303C72.01 21.7503 67.7166 21.4736 63.41 21.3003C61.4669 21.0968 59.5067 21.1237 57.57 21.3803C55.9538 21.7818 54.4755 22.6107 53.29 23.7803C48.11 28.3903 42.98 33.5003 39.14 39.3003C36.994 42.4761 35.4015 45.9925 34.43 49.7003C34.3927 49.8526 34.4156 50.0134 34.4938 50.1494C34.572 50.2853 34.6995 50.3859 34.85 50.4303C37.33 50.9603 40.07 51.4903 42.54 50.6503C45.01 49.8103 46.3 47.5903 47.81 45.5903C49.5097 43.3306 51.322 41.1579 53.24 39.0803C54.71 37.4703 56.02 35.7803 58.24 35.2903C60.6297 34.8772 63.0593 34.743 65.48 34.8903C67.97 34.9403 70.59 34.7903 73.07 35.0603C75.55 35.3303 77.94 36.7903 80.07 37.9503C82.2 39.1103 84.07 40.5403 84.49 43.2003C84.91 45.5103 84.79 48.6303 83.49 50.6203C82.1848 52.8447 80.3548 54.7159 78.16 56.0703C73.56 58.7503 68.16 59.2703 63.08 60.5203C60.4173 61.106 57.856 62.0833 55.48 63.4203C53.61 64.5403 51.23 66.2103 50.89 68.5403C50.62 70.4303 51.97 71.9403 53.52 72.8003C55.62 73.9603 58.1 73.9703 60.44 73.9603C72.94 73.9603 84.54 68.3103 96.9 67.2203C103.66 66.6303 110.37 67.7103 117.1 68.0803C123.83 68.4503 130.61 67.6603 137.19 69.3103C143.19 70.8203 148.63 73.8803 153.84 77.1403C158.073 79.7161 162.147 82.5445 166.04 85.6103C174.04 92.0903 181.38 99.4103 188.88 106.48C196.21 113.38 203.66 120.38 212.11 125.91C213.907 127.09 215.766 128.172 217.68 129.15C220.093 130.431 222.431 131.85 224.68 133.4C226.924 134.975 229.323 136.315 231.84 137.4C233.384 138.106 235.099 138.352 236.78 138.11C239.78 137.53 242.13 135.04 243.94 132.72C246.258 129.583 248.382 126.307 250.3 122.91C252.3 119.68 254.22 116.28 256.93 113.61C258.35 112.2 260.11 111.19 261.65 109.92C263.683 108.233 265.497 106.298 267.05 104.16C270.14 100.041 271.751 94.9987 271.62 89.8503C271.436 85.0314 269.427 80.4627 266 77.0703C261.72 73.0003 255.49 72.0703 249.85 71.4503C243.32 70.7403 236.73 70.8803 230.21 70.0703C218.65 68.6203 207.79 64.3003 197.21 59.5803C192 57.2503 186.83 54.8403 181.56 52.6303C176.56 50.5103 171.41 48.7103 166.22 47.0203C157.73 44.2503 149.4 40.9103 141.15 37.4703C132.34 33.8003 123.57 29.9503 115.06 25.6103C111.06 23.5403 107.12 21.2003 103.06 19.0903C99.39 17.1803 95.64 15.4403 91.93 13.6103C88.3509 11.8478 84.8962 9.84311 81.59 7.61025C79.3 6.05025 77.08 4.40028 74.89 2.70028C73.56 1.70028 71.47 0.0802678 69.67 1.03027C67.62 2.11027 69.04 4.43027 70.18 5.56027C72.54 7.89027 75.01 10.1203 77.42 12.3903L78 11.3903L71.7 9.29028C69.7 8.63028 67.7 7.72028 65.63 7.29028C64.3064 7.08196 62.9697 6.96834 61.63 6.95028C60.56 6.87028 59.48 6.80027 58.4 6.75027C56.48 6.65027 54.56 6.59027 52.64 6.47027C50.12 6.31027 47.59 5.95026 45.06 5.90026C42.9313 5.73649 40.8065 6.26244 39 7.40026C37.28 8.66026 36.33 10.8703 38.25 12.4003C39.2121 13.0754 40.2707 13.6014 41.39 13.9603C42.5155 14.4227 43.6716 14.8069 44.85 15.1103C45.6 15.2903 45.91 14.1103 45.17 13.9703C43.3529 13.5313 41.5915 12.8872 39.92 12.0503C39.34 11.7603 38.52 11.3203 38.34 10.6203C38.3195 10.2596 38.3881 9.89935 38.5398 9.57147C38.6916 9.24358 38.9218 8.9581 39.21 8.74026C40.0506 7.97967 41.0918 7.47642 42.21 7.29028C44.4867 7.00581 46.7916 7.03609 49.06 7.38027C51.06 7.56027 53.06 7.6936 55.06 7.78027C56.68 7.86027 58.3 7.92026 59.92 8.02026C61.78 8.00736 63.6374 8.16134 65.47 8.48028C67.47 9.00028 69.52 9.84028 71.47 10.4803L77.66 12.5503C77.786 12.58 77.9184 12.5681 78.0372 12.5164C78.1559 12.4647 78.2548 12.3759 78.3189 12.2634C78.383 12.1509 78.409 12.0206 78.393 11.8921C78.377 11.7635 78.3198 11.6436 78.23 11.5503C75.82 9.28026 73.35 7.05027 70.99 4.72027C70.46 4.20027 69.33 3.18026 69.92 2.33026C70.27 1.82026 71.01 1.95026 71.51 2.08026C72.7569 2.55184 73.8961 3.26942 74.86 4.19027C78.55 7.09016 82.4397 9.72666 86.5 12.0803C89.69 13.8903 93.02 15.4303 96.33 17.0203C100.73 19.1403 105.03 21.4303 109.27 23.8403C116.651 27.8911 124.234 31.5625 131.99 34.8403C140.63 38.6203 149.37 42.2103 158.23 45.4703C161.89 46.8103 165.58 48.0103 169.23 49.2303C174.74 51.0403 180.1 53.2303 185.4 55.5803C195.55 60.0503 205.54 65.0203 216.18 68.2303C221.54 69.8797 227.056 70.9721 232.64 71.4903C239.15 72.0703 245.71 71.9803 252.2 72.9203C257.97 73.7603 263.76 75.3303 267.2 80.4303C268.594 82.5578 269.543 84.9454 269.99 87.4494C270.437 89.9534 270.372 92.5219 269.8 95.0003C268.427 100.294 265.425 105.023 261.22 108.52C259.66 109.88 257.84 110.92 256.32 112.32C255.093 113.499 253.984 114.795 253.01 116.19C250.73 119.33 248.84 122.74 246.81 126.04C244.93 129.1 242.98 132.3 240.29 134.72C239.223 135.756 237.907 136.499 236.47 136.88C234.6 137.111 232.705 136.74 231.06 135.82C228.563 134.584 226.166 133.156 223.89 131.55C221.76 130.14 219.6 128.88 217.35 127.69C208.97 123.29 201.72 116.81 194.79 110.46C187.17 103.46 179.88 96.1703 172.14 89.3403C164.658 82.6241 156.384 76.8479 147.5 72.1403C142.434 69.3676 136.851 67.6658 131.1 67.1403C127.84 66.9003 124.56 67.0003 121.29 66.9703C118.02 66.9403 114.84 66.7203 111.61 66.4403C105.25 65.8903 98.99 65.5003 92.61 66.5003C86.61 67.4503 80.75 69.2203 74.83 70.6403C68.91 72.0603 62.83 73.2103 56.75 72.5703C54.85 72.3703 51.75 71.2403 51.85 68.8703C51.91 67.4603 53.18 66.3503 54.21 65.5403C55.4381 64.5982 56.7825 63.8184 58.21 63.2203C63.08 61.1303 68.47 60.8003 73.5 59.2203C75.8394 58.541 78.0519 57.4837 80.05 56.0903C81.7767 54.7347 83.2322 53.0655 84.34 51.1703C85.53 49.3503 85.7 46.9303 85.65 44.8103C85.7 42.7794 85.0385 40.795 83.78 39.2003C82.4 37.5803 80.21 36.6703 78.34 35.7503C76.3938 34.6057 74.2114 33.9215 71.96 33.7503C67.33 33.7503 62.42 33.0803 57.85 34.0303C56.143 34.4395 54.618 35.3988 53.51 36.7603C51.68 38.6503 49.95 40.6503 48.3 42.7103C47.57 43.6103 46.86 44.5203 46.18 45.4603C45.4143 46.7451 44.4255 47.8829 43.26 48.8203C40.83 50.4103 37.62 49.7603 34.97 49.2003L35.38 49.9303C37.49 41.5803 43.23 34.9303 49.22 29.0403C50.66 27.6103 52.12 26.1903 53.63 24.8103C54.5379 23.8889 55.6231 23.1609 56.82 22.6703C58.0935 22.3105 59.4223 22.1884 60.74 22.3103C65.87 22.4503 70.99 22.7803 76.1 23.2303V22.0403L65.92 21.4903L60.08 21.1803C58.92 21.1103 57.77 21.1803 56.61 21.1803C55.27 21.1303 53.97 20.9603 52.61 21.0403C50.8517 21.1662 49.1042 21.4135 47.38 21.7803C43.8091 22.5579 40.3201 23.6729 36.96 25.1103C35.0526 26.0473 32.9645 26.5591 30.84 26.6103C29.9 26.5603 28.55 26.2603 28.32 25.1603C28.09 24.0603 29.45 23.0103 30.32 22.5003C32.21 21.4813 34.1527 20.5633 36.14 19.7503L42.58 16.7503C44.99 15.6303 47.39 14.5003 49.81 13.4103C51.7541 12.464 53.8106 11.7684 55.93 11.3403C58.3122 11.0667 60.7246 11.2465 63.04 11.8703C65.5054 12.3212 67.935 12.9495 70.31 13.7503C71.02 14.0203 71.31 12.8703 70.62 12.6103L70.75 12.7003Z" fill="#090938"/>
</svg>
