<svg width="270" height="254" viewBox="0 0 270 254" fill="none" xmlns="http://www.w3.org/2000/svg">
<path d="M41.34 126.179C63.4037 126.179 81.29 108.293 81.29 86.2293C81.29 64.1655 63.4037 46.2793 41.34 46.2793C19.2762 46.2793 1.39001 64.1655 1.39001 86.2293C1.39001 108.293 19.2762 126.179 41.34 126.179Z" fill="#FCDC59" stroke="#090938" stroke-width="0.79" stroke-miterlimit="10"/>
<path d="M118.884 132.215L124.217 137.664C131.019 145.496 138.708 152.522 146.373 159.522L212.607 220.052C213.344 220.824 214.233 221.435 215.218 221.846C216.503 222.153 217.848 222.104 219.107 221.704C239.504 216.906 256.962 203.549 262.984 183.475L263.141 180.1C255.119 175.485 247.109 170.868 239.113 166.248C226.512 158.95 213.934 151.616 201.38 144.248C188.827 136.88 176.293 129.474 163.78 122.03C157.517 118.31 151.265 114.577 145.024 110.832L135.663 105.214L133.25 103.719C132.108 103.046 131.869 103.07 131.693 101.74C130.674 94.1583 124.69 88.3214 119.494 83.2233C104.678 68.6924 90.7637 53.271 77.8271 37.0452C77.0723 35.9079 76.0209 34.9986 74.7868 34.4154C73.5026 33.9619 71.7532 34.51 71.468 35.824C71.3748 36.6718 71.5799 37.5256 72.0479 38.2387C76.5197 47.0715 81.2364 55.781 86.1981 64.367C71.8335 59.1889 63.1724 44.6745 50.5926 36.0127C49.3338 35.1476 47.6959 34.3224 46.3497 35.0704C44.1099 36.3196 45.6467 39.7265 47.3519 41.6275L74.5242 71.8912C72.8847 73.6902 69.9226 72.7444 67.8261 71.4753C55.2476 63.9726 50.386 56.402 34.0539 43.5743C31.5399 41.5894 26.9705 41.1347 25.5046 43.9797C25.0829 44.7972 24.9161 45.7225 25.0256 46.6359C25.1351 47.5492 25.5159 48.4088 26.1189 49.1035C35.4621 58.3553 36.6807 60.5398 43.56 67.3091C49.5535 73.1952 57.0454 77.1253 63.7649 82.1546C65.3835 83.3699 66.87 86.1759 64.9961 86.9301C64.3606 87.1007 63.6857 87.0462 63.0859 86.7758C55.1519 84.2156 47.5499 80.7225 40.4395 76.3698C34.9655 73.0114 29.5002 69.0412 23.1251 68.3925C22.1811 68.2929 21.0088 68.3882 20.6102 69.2554C20.4308 69.8261 20.4798 70.4441 20.7468 70.9794C22.4608 75.4519 26.2031 78.7957 29.9388 81.7746C38.2977 88.4195 47.3331 94.1655 56.8956 98.9177C66.8373 103.828 77.7635 107.904 85.0769 116.302C78.9031 117.334 72.6104 117.445 66.4041 116.631C63.444 116.244 60.4456 115.651 57.5137 116.184C54.5818 116.718 51.6757 118.762 51.1832 121.701L51.5786 123.011L100.865 132.831C106.254 133.865 111.999 134.956 117.173 133.021C119.839 131.973 122.155 130.194 123.856 127.889C125.557 125.584 126.573 122.846 126.788 119.99" fill="white"/>
<path d="M118.448 132.601C120.667 134.864 122.923 137.1 125.029 139.466C130.276 145.328 135.982 150.759 141.759 156.084C153.788 167.147 165.893 178.134 177.956 189.16L196.33 205.983L205.168 214.047L209.577 218.08C210.882 219.439 212.298 220.687 213.809 221.811C216.425 223.472 219.712 222.222 222.438 221.452C225.32 220.636 228.148 219.639 230.906 218.469C236.271 216.206 241.302 213.221 245.858 209.594C251 205.488 255.352 200.48 258.699 194.816C260.369 191.957 261.759 188.944 262.849 185.818C263.257 184.798 263.51 183.723 263.6 182.628L263.717 180.135C263.725 180.029 263.705 179.924 263.658 179.829C263.612 179.734 263.542 179.653 263.454 179.594C246.623 169.927 229.824 160.193 213.056 150.392C196.289 140.591 179.541 130.715 162.813 120.765C154.429 115.769 146.042 110.761 137.653 105.74L134.743 103.98C134.082 103.595 132.87 103.148 132.434 102.497C132.123 101.636 131.932 100.737 131.868 99.8251C131.644 98.9167 131.356 98.0252 131.007 97.1573C129.405 93.5123 127.146 90.1938 124.341 87.3684C121.402 84.1909 118.221 81.2413 115.171 78.176C111.935 74.9112 108.743 71.6111 105.596 68.2756C99.188 61.4697 92.974 54.4855 86.954 47.3229C83.9543 43.7601 81.016 40.1451 78.0975 36.5265C77.2572 35.2243 76.0001 34.2455 74.5316 33.7501C73.9339 33.608 73.3084 33.6366 72.7262 33.8326C72.144 34.0287 71.6285 34.3843 71.2385 34.859C70.1562 36.3716 71.3172 38.1905 72.0331 39.5833C73.1006 41.6839 74.1668 43.7779 75.2319 45.8654C77.463 50.1098 79.7489 54.3203 82.0895 58.4969C83.2439 60.5543 84.4102 62.6027 85.5884 64.6421L86.3217 63.8247C74.415 59.452 66.5119 48.9162 57.3442 40.7201C55.1548 38.6177 52.7622 36.7378 50.2014 35.1081C48.3767 34.0429 45.4209 33.6248 44.7018 36.2193C44.0996 38.4566 45.8019 40.8361 47.1901 42.3993C49.936 45.4702 52.6943 48.5354 55.4652 51.5949L73.9923 72.2027L74.061 71.3662C72.2256 73.1507 69.4408 71.7346 67.632 70.6461C66.1011 69.7027 64.58 68.7032 63.0689 67.6477C60.4262 65.7518 57.8889 63.7132 55.4684 61.5409C49.5676 56.3191 43.9333 50.8344 37.8409 45.8413C34.9867 43.5024 31.8556 40.4928 27.8135 41.4558C27.076 41.6663 26.3988 42.0483 25.8373 42.5707C25.2757 43.093 24.8457 43.7408 24.5825 44.4611C24.3193 45.1815 24.2303 45.9539 24.3228 46.7152C24.4153 47.4765 24.6866 48.2052 25.1146 48.8415C25.8082 49.7141 26.5808 50.5207 27.4226 51.2512L29.9159 53.7282C31.1635 54.9716 32.336 56.2492 33.5184 57.5251C35.5026 59.6693 37.4583 61.8798 39.4825 63.9658C42.1961 66.891 45.1332 69.6006 48.2671 72.0701C51.9988 74.9176 55.9965 77.3902 59.9134 80.0304C61.5802 81.1758 63.7513 82.2988 64.7968 84.0984C65.2701 84.8955 65.7329 86.2945 64.31 86.3549C63.1483 86.3974 61.6437 85.578 60.5565 85.1998C55.9037 83.5534 51.3719 81.5831 46.9944 79.3033C42.8394 77.1344 38.9924 74.5423 34.9306 72.1629C31.3768 70.0554 27.5376 68.1636 23.3822 67.6932C22.0526 67.5431 20.2456 67.7256 19.9462 69.3473C19.6468 70.9691 21.1466 73.2438 22.0555 74.5805C24.6169 78.3568 28.37 81.2105 31.9267 83.9378C39.6724 89.8566 47.9687 95.0176 56.7014 99.3497C64.5467 103.265 72.9092 106.515 79.8488 112.073C81.5742 113.454 83.1775 114.98 84.6409 116.636L84.9899 115.666C81.032 116.317 77.0219 116.598 73.0119 116.504C69.0868 116.398 65.2576 115.602 61.3499 115.371C58.3654 115.182 55.2973 115.639 52.935 117.653C51.9426 118.475 51.2025 119.561 50.8001 120.785C50.6051 121.546 50.6826 122.352 51.0191 123.063C51.0491 123.187 51.1151 123.298 51.209 123.384C51.3028 123.47 51.42 123.526 51.5458 123.545L87.6629 130.742C93.5971 131.919 99.5339 133.331 105.525 134.213C110.587 134.963 116.009 134.914 120.363 131.961C122.344 130.618 123.996 128.845 125.197 126.775C126.398 124.706 127.117 122.392 127.3 120.006C127.298 119.857 127.241 119.715 127.14 119.606C127.039 119.497 126.901 119.43 126.753 119.417C126.605 119.404 126.457 119.446 126.339 119.536C126.22 119.625 126.139 119.755 126.111 119.901C125.947 122.077 125.301 124.189 124.221 126.085C123.141 127.981 121.653 129.613 119.865 130.863C115.366 134.026 109.605 133.782 104.399 132.856C98.8034 131.859 93.2654 130.679 87.7089 129.563L70.6322 126.159L51.6231 122.371L52.1596 122.851C51.9808 122.497 51.8844 122.107 51.8778 121.71C51.8711 121.313 51.9544 120.92 52.1213 120.56C52.7653 119.261 53.8234 118.213 55.1288 117.582C58.1125 116.012 61.5811 116.508 64.7874 116.961C71.5505 117.955 78.4255 117.911 85.1755 116.832C85.2764 116.811 85.37 116.764 85.4474 116.695C85.5249 116.627 85.5834 116.541 85.6175 116.443C85.6516 116.346 85.6601 116.242 85.642 116.14C85.624 116.039 85.5802 115.943 85.5147 115.864C79.8908 109.502 72.3012 105.54 64.7558 101.925C56.2192 98.0357 47.9773 93.5303 40.0951 88.4442C36.1212 85.8094 32.293 82.9611 28.6275 79.9118C26.7862 78.4339 25.1117 76.7596 23.6336 74.9185C22.9013 73.9654 22.2652 72.942 21.7348 71.8634C21.4868 71.4115 21.2921 70.9322 21.1547 70.4353C20.9178 69.157 21.7021 68.8896 22.7076 68.9371C27.0589 69.1474 31.3119 71.4608 34.9035 73.663C38.8033 75.9911 42.6143 78.4983 46.6717 80.6345C50.8201 82.7549 55.1034 84.6006 59.4937 86.1596C60.5863 86.5673 61.7379 86.964 62.8706 87.3134C63.623 87.6284 64.4618 87.6707 65.2422 87.433C65.7588 87.1975 66.1619 86.768 66.3643 86.2375C66.5667 85.707 66.552 85.1182 66.3236 84.5984C65.7543 83.174 64.7509 81.9651 63.4556 81.1433C61.5842 79.7715 59.6665 78.4795 57.7408 77.199C53.8371 74.7279 50.0831 72.0278 46.4984 69.113C41.5134 64.8809 37.3195 59.7596 32.83 55.0186C31.4385 53.5476 30.0304 52.0966 28.6057 50.6657C26.9326 48.9927 24.9505 47.4074 25.8447 44.7702C26.4925 42.7788 28.6116 42.3045 30.5294 42.61C32.7623 42.969 34.3693 44.4509 36.0681 45.8242C42.2642 50.8285 48.0103 56.3129 53.9293 61.633C56.298 63.767 58.7738 65.8201 61.2867 67.7442C62.6649 68.76 64.0771 69.7389 65.5194 70.6615C67.0359 71.7603 68.7146 72.6157 70.495 73.1969C71.2559 73.4584 72.0726 73.5135 72.8618 73.3565C73.651 73.1994 74.3844 72.8359 74.9873 72.303C75.1036 72.1988 75.1756 72.054 75.1883 71.8984C75.2011 71.7428 75.1537 71.5882 75.0559 71.4665L59.7347 54.546L52.1241 46.0815L48.4858 42.037C47.4979 41.0506 46.7057 39.8862 46.151 38.6051C45.724 37.4537 45.6242 35.7636 47.1643 35.4577C48.7043 35.1518 50.555 36.7411 51.7621 37.6563C54.1074 39.4177 56.3473 41.315 58.4704 43.3387C62.5569 47.1679 66.3886 51.2681 70.5428 55.0237C75.1367 59.1758 80.1351 62.8766 86.0145 65.0207C86.1252 65.0569 86.2439 65.0601 86.3563 65.03C86.4687 64.9999 86.57 64.9378 86.6477 64.8511C86.7254 64.7645 86.7763 64.6571 86.794 64.5421C86.8118 64.4271 86.7957 64.3094 86.7478 64.2034C82.1232 56.1922 77.7004 48.0622 73.4793 39.8135C72.9336 38.9304 72.4865 37.9902 72.1458 37.0096C71.8028 35.5985 72.9119 34.8335 74.1961 35.0124C76.103 35.2589 77.4906 37.6968 78.5874 39.0597C81.4208 42.6025 84.2962 46.0799 87.2138 49.4919C93.0418 56.3511 99.05 63.048 105.238 69.5827C108.342 72.8653 111.482 76.1039 114.657 79.2985C117.555 82.1989 120.555 84.9988 123.388 87.9925C126.236 90.8251 128.518 94.175 130.11 97.8625C130.483 98.8302 130.77 99.8285 130.969 100.846C131.016 101.621 131.195 102.382 131.498 103.097C131.756 103.454 132.099 103.74 132.496 103.929L135.379 105.653C143.46 110.514 151.552 115.357 159.654 120.181C175.784 129.795 191.948 139.341 208.148 148.82C224.347 158.299 240.576 167.719 256.835 177.078C258.832 178.234 260.835 179.384 262.845 180.531L262.584 179.999C262.617 181.562 262.427 183.121 262.018 184.63C261.074 187.459 259.88 190.199 258.451 192.817C255.668 197.863 252.072 202.416 247.809 206.293C243.495 210.2 238.64 213.463 233.394 215.983C230.761 217.263 228.049 218.37 225.273 219.299C223.921 219.743 222.554 220.16 221.178 220.527C219.577 220.945 217.718 221.615 216.055 221.365C214.391 221.114 212.891 219.439 211.605 218.264L206.818 213.893L197.988 205.818L180.329 189.676C168.699 179.058 157.071 168.437 145.446 157.811C139.176 152.078 132.938 146.299 127.199 140.03C124.645 137.228 122.012 134.493 119.352 131.772C118.814 131.231 117.926 132.036 118.478 132.544L118.448 132.601Z" fill="#090938"/>
</svg>
