<svg width="272" height="138" viewBox="0 0 272 138" fill="none" xmlns="http://www.w3.org/2000/svg">
<path d="M90.68 33.2299L28.78 89.9499L0.869995 55.3098L51.68 5.08984L90.68 33.2299Z" fill="#FCDC59" stroke="#090938" stroke-width="0.79" stroke-miterlimit="10"/>
<path d="M69.9801 12.5497C67.251 11.6329 64.4562 10.9242 61.62 10.4297C56.22 9.15967 52.84 10.4997 47.8 12.8297L30.4701 20.8297C28.7401 21.6297 26.6801 23.1897 27.3901 24.9597C27.8301 26.0697 29.1901 26.4897 30.3901 26.5297C33.7401 26.6297 36.79 24.8297 39.93 23.6797C44.11 22.1497 51.54 20.3297 55.93 21.0997L58.5201 21.0497L75.6501 21.9697C70.5434 21.5163 65.4234 21.213 60.2901 21.0597C58.9189 20.9358 57.5366 21.0612 56.2101 21.4297C54.6667 22.0941 53.2801 23.0753 52.1401 24.3097C44.6501 31.4097 36.81 39.0797 34.36 49.1097C37.42 49.7697 40.93 50.3397 43.43 48.4497C44.3762 47.6428 45.1925 46.695 45.8501 45.6397C48.5868 41.8626 51.6377 38.3233 54.9701 35.0597C57.3601 32.8097 65.8201 33.7297 71.8501 33.6897C74.4401 33.6897 78.4901 36.0297 80.7801 37.2397C84.7801 39.3397 85.02 43.4197 84.3 47.8597C84.02 49.5397 83.5 49.8597 82.61 51.3497C79.42 56.5097 72.84 58.2297 66.88 59.4197L66.2201 59.5497C61.8701 60.4397 57.22 61.4597 53.63 64.2097C52.46 65.1097 51.09 66.3297 50.86 67.8697C50.45 70.4997 53.8 72.1997 55.86 72.4197C70.07 73.9297 83.7501 66.4797 98.0201 65.7597C104.82 65.4197 111.6 66.6097 118.41 66.8297C123.67 66.9897 128.98 66.5697 134.17 67.4597C143.17 68.9797 150.98 74.2297 158.64 79.1697C176.27 90.5497 198.78 118.73 217.64 128.02C222.54 130.43 228.14 135.5 233.46 136.72C243.38 138.99 249.35 116.47 257.81 110.81C263.81 106.81 268.71 100.76 270.08 93.6797C271.45 86.5997 268.68 78.5597 262.51 74.8197C260.029 73.4321 257.32 72.5006 254.51 72.0697C247.74 70.7797 240.79 70.7497 233.91 70.3097C209.23 68.7297 190.69 54.6897 167.08 47.3097C152.61 42.8097 121.92 29.9597 108.77 22.4197C91.8401 12.6997 88.5601 13.8897 73.2201 1.80968C71.8601 0.739678 69.4201 -0.070311 68.7801 1.53969C68.3701 2.53969 69.26 3.63967 70.07 4.39967L73.7801 7.89967L77.2901 11.2797L64.9201 7.15968C56.3301 6.33968 55.4301 6.73967 46.8401 5.92967C43.5801 5.61967 39.7301 5.54969 37.7101 8.12969C37.3185 8.57085 37.1016 9.13984 37.1001 9.72969C37.1601 10.7897 38.2001 11.4897 39.1601 11.9297C40.8505 12.7001 42.5993 13.3355 44.3901 13.8297" fill="white"/>
<path d="M70.14 11.9796C67.8565 11.1929 65.5164 10.5811 63.14 10.1496C61.1306 9.61638 59.0589 9.35406 56.98 9.36956C52.82 9.57956 49.03 11.6296 45.32 13.3696L31.32 19.8596C29.72 20.5996 27.83 21.4096 27 23.0896C26.704 23.6678 26.6342 24.3356 26.8044 24.9625C26.9745 25.5894 27.3723 26.1303 27.92 26.4796C29.42 27.4796 31.49 27.2596 33.14 26.8996C35.3177 26.2821 37.444 25.4964 39.5 24.5496C43.1637 23.1148 46.9998 22.1667 50.91 21.7296C52.5969 21.5845 54.2931 21.5845 55.98 21.7296C56.84 21.7296 57.7 21.6596 58.55 21.6696C59.86 21.6696 61.17 21.8096 62.48 21.8796L75.68 22.5996C76.45 22.5996 76.43 21.4796 75.68 21.4096C71.4 21.0296 67.1066 20.7529 62.8 20.5796C60.857 20.3761 58.8967 20.403 56.96 20.6596C55.3438 21.0611 53.8655 21.89 52.68 23.0596C47.5 27.6696 42.37 32.7796 38.53 38.5796C36.384 41.7554 34.7915 45.2718 33.82 48.9796C33.7827 49.1319 33.8056 49.2927 33.8838 49.4287C33.962 49.5646 34.0896 49.6652 34.24 49.7096C36.72 50.2396 39.46 50.7696 41.93 49.9296C44.4 49.0896 45.69 46.8696 47.2 44.8696C48.8997 42.6099 50.712 40.4371 52.63 38.3596C54.1 36.7496 55.41 35.0596 57.63 34.5696C60.0197 34.1565 62.4493 34.0223 64.87 34.1696C67.36 34.2196 69.98 34.0696 72.46 34.3396C74.94 34.6096 77.33 36.0696 79.46 37.2296C81.59 38.3896 83.46 39.8196 83.88 42.4796C84.3 44.7896 84.18 47.9096 82.88 49.8996C81.5748 52.124 79.7448 53.9952 77.55 55.3496C72.95 58.0296 67.55 58.5496 62.47 59.7996C59.8073 60.3853 57.2461 61.3626 54.87 62.6996C53 63.8196 50.62 65.4896 50.28 67.8196C50.01 69.7096 51.36 71.2196 52.91 72.0796C55.01 73.2396 57.49 73.2496 59.83 73.2396C72.33 73.2396 83.93 67.5896 96.29 66.4996C103.05 65.9096 109.76 66.9896 116.49 67.3596C123.22 67.7296 130 66.9396 136.58 68.5896C142.58 70.0996 148.02 73.1596 153.23 76.4196C157.463 78.9954 161.537 81.8238 165.43 84.8895C173.43 91.3695 180.77 98.6896 188.27 105.76C195.6 112.66 203.05 119.66 211.5 125.19C213.297 126.37 215.156 127.451 217.07 128.43C219.483 129.71 221.821 131.129 224.07 132.68C226.314 134.254 228.713 135.595 231.23 136.68C232.774 137.385 234.489 137.632 236.17 137.39C239.17 136.81 241.52 134.32 243.33 132C245.648 128.862 247.772 125.586 249.69 122.19C251.69 118.96 253.61 115.56 256.32 112.89C257.74 111.48 259.5 110.47 261.04 109.2C263.073 107.512 264.887 105.577 266.44 103.44C269.53 99.3198 271.141 94.278 271.01 89.1296C270.826 84.3107 268.817 79.742 265.39 76.3496C261.11 72.2796 254.88 71.3496 249.24 70.7296C242.71 70.0196 236.12 70.1596 229.6 69.3496C218.04 67.8996 207.18 63.5796 196.6 58.8596C191.39 56.5296 186.22 54.1196 180.95 51.9096C175.95 49.7896 170.8 47.9896 165.61 46.2996C157.12 43.5296 148.79 40.1896 140.54 36.7496C131.73 33.0796 122.96 29.2296 114.45 24.8896C110.45 22.8196 106.51 20.4796 102.45 18.3696C98.78 16.4596 95.03 14.7196 91.32 12.8896C87.7409 11.1271 84.2862 9.12241 80.98 6.88955C78.69 5.32955 76.47 3.67958 74.28 1.97958C72.95 0.979578 70.86 -0.640435 69.06 0.309565C67.01 1.38956 68.43 3.70956 69.57 4.83956C71.93 7.16956 74.4 9.39958 76.81 11.6696L77.39 10.6696L71.09 8.56957C69.09 7.90957 67.09 6.99957 65.02 6.56957C63.6965 6.36126 62.3597 6.24764 61.02 6.22958C59.95 6.14958 58.87 6.07957 57.79 6.02957C55.87 5.92957 53.95 5.86957 52.03 5.74957C49.51 5.58957 46.98 5.22956 44.45 5.17956C42.3213 5.01579 40.1965 5.54174 38.39 6.67956C36.67 7.93956 35.72 10.1496 37.64 11.6796C38.6021 12.3547 39.6608 12.8807 40.78 13.2396C41.9055 13.702 43.0616 14.0862 44.24 14.3896C44.99 14.5696 45.3 13.3896 44.56 13.2496C42.7429 12.8106 40.9816 12.1665 39.31 11.3296C38.73 11.0396 37.91 10.5996 37.73 9.89956C37.7095 9.53885 37.7781 9.17865 37.9299 8.85076C38.0816 8.52288 38.3118 8.23739 38.6 8.01956C39.4406 7.25896 40.4818 6.75571 41.6 6.56957C43.8767 6.28511 46.1816 6.31539 48.45 6.65957C50.45 6.83957 52.45 6.9729 54.45 7.05956C56.07 7.13956 57.69 7.19955 59.31 7.29955C61.17 7.28666 63.0274 7.44063 64.86 7.75958C66.86 8.27958 68.91 9.11958 70.86 9.75958L77.05 11.8296C77.1761 11.8593 77.3084 11.8474 77.4272 11.7957C77.5459 11.744 77.6448 11.6552 77.7089 11.5427C77.7731 11.4302 77.799 11.2999 77.783 11.1714C77.767 11.0428 77.7098 10.9229 77.62 10.8296C75.21 8.55955 72.74 6.32957 70.38 3.99957C69.85 3.47957 68.72 2.45955 69.31 1.60955C69.66 1.09955 70.4 1.22955 70.9 1.35955C72.1469 1.83114 73.2861 2.54872 74.25 3.46957C77.94 6.36945 81.8297 9.00595 85.89 11.3596C89.08 13.1696 92.41 14.7096 95.72 16.2996C100.12 18.4196 104.42 20.7096 108.66 23.1196C116.041 27.1704 123.624 30.8418 131.38 34.1196C140.02 37.8996 148.76 41.4896 157.62 44.7496C161.28 46.0896 164.97 47.2896 168.62 48.5096C174.13 50.3196 179.49 52.5096 184.79 54.8596C194.94 59.3296 204.93 64.2996 215.57 67.5096C220.93 69.159 226.446 70.2514 232.03 70.7696C238.54 71.3496 245.1 71.2596 251.59 72.1996C257.36 73.0396 263.15 74.6096 266.59 79.7096C267.984 81.8371 268.933 84.2247 269.38 86.7287C269.827 89.2327 269.762 91.8012 269.19 94.2796C267.817 99.5736 264.815 104.303 260.61 107.8C259.05 109.16 257.23 110.2 255.71 111.6C254.483 112.778 253.374 114.074 252.4 115.47C250.12 118.61 248.23 122.02 246.2 125.32C244.32 128.38 242.37 131.58 239.68 134C238.613 135.035 237.297 135.779 235.86 136.16C233.99 136.391 232.095 136.019 230.45 135.1C227.953 133.863 225.556 132.436 223.28 130.83C221.15 129.42 218.99 128.16 216.74 126.97C208.36 122.57 201.11 116.09 194.18 109.74C186.56 102.74 179.27 95.4496 171.53 88.6196C164.048 81.9034 155.774 76.1272 146.89 71.4196C141.824 68.6469 136.241 66.9451 130.49 66.4196C127.23 66.1796 123.95 66.2796 120.68 66.2496C117.41 66.2196 114.23 65.9996 111 65.7196C104.64 65.1696 98.38 64.7796 92 65.7796C86 66.7296 80.14 68.4996 74.22 69.9196C68.3 71.3396 62.22 72.4896 56.14 71.8496C54.24 71.6496 51.14 70.5196 51.24 68.1496C51.3 66.7396 52.57 65.6296 53.6 64.8196C54.8281 63.8775 56.1725 63.0977 57.6 62.4996C62.47 60.4096 67.86 60.0796 72.89 58.4996C75.2294 57.8203 77.4419 56.763 79.44 55.3696C81.1667 54.014 82.6222 52.3448 83.73 50.4496C84.92 48.6296 85.09 46.2096 85.04 44.0896C85.09 42.0587 84.4285 40.0743 83.17 38.4796C81.79 36.8596 79.6 35.9496 77.73 35.0296C75.7838 33.885 73.6014 33.2008 71.35 33.0296C66.72 33.0296 61.81 32.3596 57.24 33.3096C55.533 33.7188 54.008 34.6781 52.9 36.0396C51.07 37.9296 49.34 39.9296 47.69 41.9896C46.96 42.8896 46.25 43.7996 45.57 44.7396C44.8043 46.0244 43.8155 47.1622 42.65 48.0996C40.22 49.6896 37.01 49.0396 34.36 48.4796L34.77 49.2096C36.88 40.8596 42.62 34.2096 48.61 28.3196C50.05 26.8896 51.51 25.4696 53.02 24.0896C53.928 23.1682 55.0131 22.4402 56.21 21.9496C57.4835 21.5898 58.8123 21.4677 60.13 21.5896C65.26 21.7296 70.38 22.0596 75.49 22.5096V21.3196L65.31 20.7696L59.47 20.4596C58.31 20.3896 57.16 20.4596 56 20.4596C54.66 20.4096 53.36 20.2396 52 20.3196C50.2417 20.4455 48.4942 20.6928 46.77 21.0596C43.1991 21.8372 39.7101 22.9522 36.35 24.3896C34.4426 25.3266 32.3546 25.8384 30.23 25.8896C29.29 25.8396 27.94 25.5396 27.71 24.4396C27.48 23.3396 28.84 22.2896 29.71 21.7796C31.6 20.7606 33.5427 19.8426 35.53 19.0296L41.97 16.0296C44.38 14.9096 46.78 13.7796 49.2 12.6896C51.1442 11.7433 53.2006 11.0477 55.32 10.6196C57.7022 10.346 60.1147 10.5258 62.43 11.1496C64.8954 11.6005 67.3251 12.2288 69.7 13.0296C70.41 13.2996 70.7 12.1496 70.01 11.8896L70.14 11.9796Z" fill="#090938"/>
</svg>
