<svg width="190" height="253" viewBox="0 0 190 253" fill="none" xmlns="http://www.w3.org/2000/svg">
<path d="M40.95 125.9C63.0137 125.9 80.9 108.014 80.9 85.95C80.9 63.8862 63.0137 46 40.95 46C18.8862 46 1 63.8862 1 85.95C1 108.014 18.8862 125.9 40.95 125.9Z" fill="#FCDC59" stroke="#090938" stroke-width="0.79" stroke-miterlimit="10"/>
<path d="M118.494 131.936L123.827 137.385C130.629 145.216 138.318 152.242 145.983 159.242L212.217 219.772C212.954 220.545 213.843 221.156 214.828 221.567C216.113 221.874 217.458 221.825 218.717 221.425C239.114 216.626 256.572 203.27 262.594 183.196L262.751 179.821C254.729 175.206 246.719 170.589 238.723 165.969C226.122 158.67 213.544 151.337 200.99 143.969C188.437 136.6 175.903 129.195 163.39 121.751C157.127 118.03 150.875 114.298 144.634 110.552L135.273 104.935L132.86 103.44C131.718 102.766 131.479 102.791 131.303 101.46C130.284 93.879 124.3 88.0421 119.104 82.944C104.288 68.4131 90.3737 52.9918 77.4371 36.7659C76.6822 35.6286 75.6309 34.7193 74.3968 34.1361C73.1126 33.6826 71.3632 34.2307 71.078 35.5447C70.9848 36.3925 71.1899 37.2463 71.6579 37.9594C76.1297 46.7922 80.8464 55.5017 85.8081 64.0877C71.4434 58.9096 62.7824 44.3952 50.2026 35.7334C48.9438 34.8683 47.3059 34.0431 45.9597 34.7911C43.7199 36.0403 45.2567 39.4472 46.9618 41.3483L74.1342 71.6119C72.4946 73.4109 69.5326 72.4651 67.4361 71.196C54.8576 63.6933 49.996 56.1227 33.6639 43.295C31.1499 41.3101 26.5805 40.8554 25.1146 43.7004C24.6929 44.5179 24.526 45.4432 24.6356 46.3566C24.7451 47.27 25.1259 48.1295 25.7289 48.8242C35.072 58.076 36.2907 60.2605 43.17 67.0298C49.1635 72.9159 56.6554 76.846 63.3748 81.8753C64.9935 83.0906 66.48 85.8966 64.6061 86.6508C63.9706 86.8214 63.2957 86.7669 62.6959 86.4965C54.7619 83.9363 47.1598 80.4432 40.0494 76.0905C34.5755 72.7321 29.1101 68.7619 22.7351 68.1132C21.7911 68.0136 20.6188 68.1089 20.2202 68.9761C20.0408 69.5468 20.0898 70.1648 20.3568 70.7001C22.0708 75.1726 25.8131 78.5164 29.5488 81.4953C37.9077 88.1402 46.9431 93.8862 56.5056 98.6384C66.4473 103.548 77.3735 107.625 84.6869 116.022C78.5131 117.055 72.2204 117.166 66.0141 116.352C63.0539 115.965 60.0556 115.372 57.1237 115.905C54.1918 116.439 51.2857 118.483 50.7932 121.422L51.1886 122.731L100.475 132.551C105.864 133.586 111.609 134.677 116.783 132.742C119.449 131.694 121.765 129.915 123.466 127.61C125.167 125.305 126.183 122.567 126.398 119.71" fill="white"/>
<path d="M118.058 132.321C120.277 134.585 122.533 136.821 124.639 139.187C129.886 145.048 135.592 150.479 141.369 155.805C153.398 166.868 165.503 177.855 177.566 188.881L195.94 205.703L204.778 213.767L209.187 217.801C210.492 219.159 211.908 220.407 213.419 221.532C216.035 223.193 219.322 221.943 222.048 221.173C224.93 220.356 227.758 219.36 230.516 218.189C235.881 215.927 240.912 212.941 245.468 209.315C250.61 205.209 254.962 200.201 258.309 194.536C259.979 191.678 261.369 188.665 262.459 185.539C262.867 184.519 263.12 183.444 263.21 182.349L263.327 179.856C263.335 179.75 263.315 179.645 263.268 179.55C263.222 179.455 263.152 179.374 263.064 179.314C246.233 169.647 229.434 159.913 212.666 150.113C195.899 140.312 179.151 130.436 162.423 120.485C154.039 115.49 145.652 110.482 137.263 105.46L134.353 103.701C133.692 103.315 132.48 102.869 132.044 102.217C131.733 101.357 131.542 100.458 131.478 99.5458C131.254 98.6374 130.966 97.7459 130.617 96.878C129.015 93.233 126.756 89.9145 123.951 87.0891C121.012 83.9116 117.831 80.962 114.781 77.8967C111.545 74.6319 108.353 71.3318 105.206 67.9963C98.798 61.1904 92.584 54.2062 86.564 47.0436C83.5642 43.4808 80.626 39.8658 77.7075 36.2472C76.8671 34.945 75.6101 33.9662 74.1416 33.4708C73.5439 33.3287 72.9183 33.3573 72.3361 33.5533C71.7539 33.7494 71.2385 34.105 70.8485 34.5797C69.7662 36.0923 70.9272 37.9112 71.6431 39.304C72.7106 41.4046 73.7768 43.4986 74.8419 45.5861C77.073 49.8305 79.3589 54.041 81.6995 58.2176C82.8539 60.275 84.0202 62.3234 85.1984 64.3628L85.9317 63.5454C74.025 59.1727 66.1219 48.6369 56.9541 40.4408C54.7648 38.3384 52.3722 36.4585 49.8114 34.8289C47.9866 33.7637 45.0309 33.3455 44.3118 35.94C43.7096 38.1773 45.4119 40.5568 46.8001 42.12C49.546 45.1909 52.3043 48.2561 55.0751 51.3156L73.6023 71.9234L73.671 71.0869C71.8356 72.8714 69.0507 71.4553 67.242 70.3668C65.711 69.4234 64.19 68.4239 62.6789 67.3684C60.0362 65.4726 57.4989 63.434 55.0783 61.2616C49.1775 56.0398 43.5432 50.5551 37.4509 45.562C34.5967 43.2231 31.4656 40.2135 27.4234 41.1765C26.686 41.387 26.0088 41.769 25.4473 42.2914C24.8857 42.8137 24.4557 43.4615 24.1925 44.1818C23.9293 44.9022 23.8403 45.6746 23.9328 46.4359C24.0253 47.1972 24.2966 47.9259 24.7246 48.5622C25.4181 49.4348 26.1908 50.2414 27.0326 50.9719L29.5259 53.4489C30.7735 54.6923 31.946 55.9699 33.1284 57.2458C35.1126 59.39 37.0683 61.6005 39.0925 63.6865C41.8061 66.6117 44.7432 69.3213 47.8771 71.7908C51.6087 74.6383 55.6065 77.1109 59.5234 79.7511C61.1901 80.8965 63.3612 82.0195 64.4068 83.8191C64.8801 84.6162 65.3428 86.0152 63.92 86.0756C62.7583 86.1181 61.2537 85.2987 60.1665 84.9205C55.5136 83.2741 50.9819 81.3038 46.6044 79.024C42.4494 76.8551 38.6024 74.263 34.5406 71.8836C30.9868 69.7761 27.1476 67.8843 22.9922 67.4139C21.6625 67.2638 19.8555 67.4463 19.5562 69.068C19.2568 70.6898 20.7566 72.9645 21.6655 74.3012C24.2268 78.0776 27.9799 80.9312 31.5367 83.6585C39.2824 89.5773 47.5787 94.7383 56.3114 99.0704C64.1566 102.986 72.5192 106.236 79.4587 111.794C81.1842 113.174 82.7875 114.701 84.2508 116.357L84.5999 115.387C80.642 116.038 76.6319 116.318 72.6219 116.224C68.6968 116.118 64.8676 115.323 60.9599 115.091C57.9754 114.902 54.9073 115.359 52.545 117.374C51.5526 118.196 50.8125 119.281 50.4101 120.505C50.2151 121.267 50.2925 122.073 50.6291 122.784C50.659 122.907 50.7251 123.019 50.8189 123.105C50.9128 123.191 51.03 123.247 51.1558 123.266L87.2729 130.462C93.2071 131.64 99.1438 133.052 105.135 133.934C110.197 134.684 115.619 134.635 119.973 131.681C121.954 130.338 123.606 128.566 124.807 126.496C126.008 124.426 126.727 122.112 126.91 119.727C126.908 119.578 126.851 119.436 126.75 119.327C126.649 119.218 126.511 119.151 126.363 119.138C126.215 119.125 126.067 119.167 125.949 119.256C125.83 119.346 125.749 119.476 125.721 119.622C125.557 121.797 124.911 123.91 123.831 125.805C122.751 127.701 121.263 129.333 119.475 130.584C114.976 133.747 109.215 133.503 104.009 132.577C98.4134 131.58 92.8754 130.4 87.3189 129.284L70.2422 125.88L51.2331 122.092L51.7696 122.572C51.5907 122.218 51.4944 121.828 51.4877 121.431C51.4811 121.034 51.5643 120.641 51.7313 120.281C52.3753 118.982 53.4334 117.934 54.7387 117.303C57.7225 115.732 61.1911 116.228 64.3974 116.681C71.1605 117.675 78.0355 117.632 84.7855 116.553C84.8863 116.531 84.98 116.484 85.0574 116.416C85.1348 116.348 85.1934 116.261 85.2275 116.164C85.2616 116.067 85.27 115.962 85.252 115.861C85.234 115.759 85.1902 115.664 85.1247 115.585C79.5008 109.223 71.9112 105.26 64.3658 101.645C55.8292 97.7564 47.5872 93.251 39.7051 88.1649C35.7312 85.5301 31.903 82.6818 28.2375 79.6325C26.3962 78.1546 24.7216 76.4803 23.2436 74.6392C22.5113 73.6861 21.8752 72.6627 21.3448 71.5842C21.0967 71.1322 20.9021 70.6529 20.7647 70.156C20.5277 68.8777 21.3121 68.6103 22.3176 68.6578C26.6689 68.8681 30.9219 71.1815 34.5135 73.3837C38.4133 75.7118 42.2242 78.219 46.2816 80.3552C50.4301 82.4756 54.7134 84.3213 59.1037 85.8804C60.1963 86.288 61.3479 86.6847 62.4806 87.0341C63.233 87.3491 64.0718 87.3914 64.8521 87.1538C65.3688 86.9182 65.7719 86.4887 65.9743 85.9582C66.1767 85.4277 66.162 84.8389 65.9335 84.3191C65.3643 82.8947 64.3609 81.6858 63.0656 80.864C61.1942 79.4922 59.2765 78.2002 57.3508 76.9197C53.4471 74.4486 49.6931 71.7485 46.1084 68.8337C41.1234 64.6016 36.9295 59.4803 32.44 54.7393C31.0485 53.2683 29.6404 51.8173 28.2156 50.3864C26.5426 48.7134 24.5605 47.1281 25.4547 44.4909C26.1025 42.4995 28.2216 42.0252 30.1394 42.3307C32.3722 42.6897 33.9793 44.1716 35.6781 45.5449C41.8742 50.5492 47.6203 56.0336 53.5393 61.3537C55.908 63.4877 58.3838 65.5408 60.8966 67.4649C62.2749 68.4807 63.687 69.4597 65.1294 70.3822C66.6459 71.481 68.3246 72.3365 70.105 72.9176C70.8659 73.1791 71.6826 73.2342 72.4718 73.0772C73.261 72.9201 73.9944 72.5566 74.5973 72.0237C74.7136 71.9195 74.7856 71.7747 74.7983 71.6191C74.8111 71.4635 74.7637 71.3089 74.6659 71.1872L59.3446 54.2667L51.7341 45.8022L48.0958 41.7577C47.1079 40.7713 46.3157 39.6069 45.761 38.3258C45.334 37.1744 45.2342 35.4843 46.7742 35.1784C48.3143 34.8725 50.165 36.4618 51.3721 37.3771C53.7174 39.1384 55.9573 41.0357 58.0804 43.0594C62.1669 46.8886 65.9986 50.9888 70.1528 54.7444C74.7467 58.8965 79.7451 62.5973 85.6245 64.7414C85.7351 64.7776 85.8539 64.7808 85.9663 64.7507C86.0787 64.7206 86.1799 64.6585 86.2577 64.5718C86.3354 64.4852 86.3862 64.3778 86.404 64.2628C86.4218 64.1478 86.4057 64.0301 86.3578 63.9241C81.7332 55.9129 77.3104 47.7829 73.0893 39.5342C72.5436 38.6511 72.0965 37.7109 71.7558 36.7303C71.4128 35.3192 72.5219 34.5542 73.8061 34.7331C75.713 34.9796 77.1006 37.4175 78.1974 38.7804C81.0307 42.3232 83.9062 45.8006 86.8238 49.2126C92.6518 56.0718 98.66 62.7687 104.848 69.3034C107.952 72.586 111.092 75.8246 114.267 79.0192C117.165 81.9196 120.165 84.7195 122.998 87.7132C125.846 90.5458 128.128 93.8957 129.72 97.5832C130.092 98.5509 130.38 99.5492 130.579 100.567C130.626 101.342 130.805 102.103 131.108 102.818C131.366 103.174 131.709 103.46 132.106 103.65L134.989 105.373C143.07 110.235 151.162 115.078 159.264 119.901C175.394 129.515 191.558 139.062 207.758 148.541C223.957 158.02 240.186 167.439 256.445 176.799C258.442 177.954 260.445 179.105 262.455 180.251L262.194 179.72C262.227 181.283 262.037 182.842 261.628 184.351C260.684 187.18 259.49 189.92 258.061 192.538C255.278 197.584 251.682 202.137 247.419 206.014C243.105 209.92 238.25 213.184 233.004 215.704C230.371 216.984 227.659 218.091 224.883 219.02C223.531 219.464 222.164 219.88 220.788 220.247C219.187 220.666 217.328 221.336 215.665 221.085C214.001 220.834 212.501 219.16 211.215 217.984L206.428 213.614L197.598 205.538L179.939 189.397C168.309 178.779 156.681 168.158 145.056 157.532C138.786 151.799 132.548 146.019 126.809 139.751C124.255 136.949 121.622 134.213 118.962 131.493C118.424 130.952 117.536 131.757 118.088 132.265L118.058 132.321Z" fill="#090938"/>
</svg>
