<svg width="242" height="154" viewBox="0 0 242 154" fill="none" xmlns="http://www.w3.org/2000/svg">
<path d="M50.81 98.0093C48.62 100.349 45.6 101.709 42.81 103.229C40.02 104.749 37.13 106.629 35.74 109.519C35.16 110.729 34.51 113.109 35.29 114.199L44.64 108.679C42.01 110.969 38.64 112.279 35.64 114.019C32.64 115.759 29.64 118.209 28.78 121.589C28.6072 122.13 28.583 122.706 28.71 123.259C28.7796 123.534 28.9287 123.782 29.1386 123.972C29.3485 124.163 29.6099 124.287 29.89 124.329L43.53 120.179C30.1011 124.504 17.0062 129.805 4.35002 136.039C2.43002 137.039 0.169979 138.719 0.869979 140.749C1.47998 142.519 3.87002 142.799 5.72002 142.679C16.13 142.019 26.17 138.679 36.4 136.679C46.63 134.679 57.62 133.859 67.16 138.089L54.34 140.939C52.43 138.779 50 136.939 47.15 136.519C44.3 136.099 41.06 137.699 40.3 140.469C46.01 146.709 53.17 152.359 61.58 153.139C68.5 153.769 75.34 150.989 81.14 147.139C86.94 143.289 91.96 138.439 97.48 134.199C108.34 125.849 120.94 120.099 133.41 114.409L196.48 85.6593L227.48 75.5593C229.531 74.6903 231.382 73.4107 232.92 71.7993C234.84 69.5393 235.48 66.4793 236 63.5593C238.793 47.8977 240.255 32.0276 240.37 16.1193C240.37 10.7593 240.22 5.1193 237.46 0.529297L154.96 57.1493C137.19 69.2793 118.5 81.8393 97.14 84.2793C88.34 85.2793 79.44 84.4693 70.61 85.1093C61.78 85.7493 52.61 88.1093 46.22 94.1893C45.057 95.3963 44.1549 96.8298 43.5699 98.4005C42.985 99.9712 42.7297 101.646 42.82 103.319L50.81 98.0093Z" fill="white"/>
<path d="M50.3899 97.5887C47.0599 101.009 42.2699 102.279 38.5699 105.199C36.991 106.374 35.7437 107.938 34.9499 109.739C34.3699 111.159 33.88 113.079 34.73 114.499C34.7692 114.566 34.8213 114.625 34.8833 114.672C34.9453 114.718 35.016 114.753 35.0913 114.772C35.1666 114.792 35.2449 114.796 35.3219 114.785C35.3989 114.774 35.473 114.748 35.54 114.709L44.8899 109.189L44.17 108.259C40.84 111.079 36.5699 112.379 33.0699 114.949C31.6558 115.948 30.4273 117.186 29.4399 118.609C28.5799 119.919 27.57 121.979 28.17 123.609C28.91 125.609 30.55 124.779 31.97 124.349L38.7099 122.299L43.6499 120.799L43.3399 119.649C35.3399 122.229 27.4666 125.145 19.72 128.399C15.9533 129.985 12.2133 131.652 8.49992 133.399C6.65038 134.192 4.84451 135.083 3.08995 136.069C1.93078 136.688 0.986023 137.643 0.379925 138.809C-0.790075 141.529 1.88995 143.129 4.21995 143.309C6.12843 143.361 8.03743 143.227 9.91996 142.909C11.8533 142.662 13.7732 142.355 15.6799 141.989C23.8399 140.429 31.7999 137.989 39.9999 136.619C48.9099 135.139 58.3899 134.939 66.8299 138.619L66.97 137.529L54.1399 140.379L54.72 140.539C51.66 137.139 46.7199 134.249 42.3099 136.989C41.1399 137.709 38.8599 139.819 40.1199 141.209C41.9403 143.218 43.9128 145.083 46.0199 146.789C50.0199 150.019 54.66 152.659 59.79 153.519C65.39 154.459 71.0199 153.129 76.0799 150.719C81.3899 148.179 85.9999 144.459 90.4899 140.719C95.1211 136.702 100.012 132.994 105.13 129.619C115.57 122.979 126.97 118.039 138.2 112.919L174.96 96.1587L193.11 87.8787C195.026 86.9757 196.993 86.1844 199 85.5087L215.85 80.0187C219.73 78.7487 223.79 77.6987 227.58 76.1887C229.904 75.3109 231.968 73.8592 233.58 71.9687C235.034 69.8841 235.977 67.4858 236.33 64.9687C237.57 58.6587 238.44 52.2487 239.16 45.8587C239.913 39.2587 240.427 32.642 240.7 26.0087C240.95 20.0087 241.39 13.8587 240.52 7.93871C240.157 5.24868 239.284 2.65244 237.95 0.288704C237.869 0.15511 237.739 0.0584222 237.588 0.0192037C237.436 -0.0200149 237.276 0.00133169 237.14 0.0787053L156.28 55.5687C144.52 63.6387 132.67 71.8587 119.51 77.5687C113.01 80.4316 106.161 82.4255 99.1399 83.4987C91.1399 84.6487 83.0799 84.1387 75.0499 84.3687C67.6599 84.5787 60.1299 85.4987 53.3799 88.7087C47.6599 91.4187 41.5399 96.3187 42.2499 103.389C42.2496 103.493 42.2769 103.595 42.329 103.686C42.3811 103.776 42.4562 103.851 42.5466 103.903C42.637 103.954 42.7396 103.981 42.8438 103.981C42.948 103.98 43.0502 103.952 43.1399 103.899L51.1399 98.6287C51.7799 98.2087 51.1399 97.1787 50.5499 97.6287L42.5499 102.899L43.4499 103.409C42.7499 96.4687 49.1099 91.9087 54.7099 89.4087C60.9299 86.6387 67.8199 85.7987 74.5699 85.5787C82.3799 85.3287 90.24 85.8187 98.03 84.8487C104.748 83.9558 111.325 82.2083 117.6 79.6487C130.6 74.4387 142.32 66.6487 153.82 58.7487C166.867 49.722 179.92 40.7187 192.98 31.7387L237.71 1.0387L236.9 0.818707C239.65 5.51871 239.78 11.0587 239.74 16.3487C239.69 22.3487 239.45 28.3487 239.02 34.2787C238.59 40.2087 238.02 46.2787 237.15 52.2187C236.737 55.2187 236.277 58.2187 235.77 61.2187C235.462 63.8147 234.861 66.3676 233.98 68.8287C231.83 73.9387 226.61 75.2087 221.89 76.7387L205.55 82.0687C202.211 82.9888 198.924 84.0836 195.7 85.3487C184.79 90.2787 173.92 95.2787 163.03 100.279C152.14 105.279 141.13 110.279 130.2 115.279C120.2 119.849 110.2 124.589 101.2 130.839C92.2999 136.979 84.8799 145.469 74.9399 149.999C69.9399 152.269 64.3899 153.379 58.9399 152.179C54.1023 150.936 49.6402 148.534 45.9399 145.179C44.0912 143.587 42.3413 141.884 40.6999 140.079L40.8599 140.659C41.6299 138.189 44.32 136.899 46.79 137.109C49.66 137.349 52.0499 139.329 53.8999 141.389C53.9756 141.461 54.0687 141.514 54.1703 141.54C54.2719 141.566 54.3785 141.566 54.48 141.539L67.2999 138.689C67.4118 138.656 67.5117 138.591 67.5873 138.503C67.663 138.414 67.7111 138.305 67.726 138.189C67.7408 138.074 67.7217 137.956 67.6709 137.851C67.6201 137.747 67.5398 137.659 67.4399 137.599C53.6699 131.599 38.5599 135.459 24.6499 138.809C20.8099 139.729 16.9599 140.629 13.0599 141.279C11.0599 141.609 9.10992 141.869 7.11992 142.039C5.59992 142.169 3.62993 142.469 2.25993 141.609C-1.58007 139.209 6.04992 135.909 7.61992 135.159C11.1866 133.452 14.7933 131.815 18.4399 130.249C26.6999 126.709 35.11 123.565 43.67 120.819C44.39 120.579 44.0899 119.449 43.3599 119.669L33.98 122.519L31.3399 123.319C30.8691 123.546 30.3668 123.701 29.85 123.779C28.25 123.549 29.8499 120.199 30.3899 119.429C31.421 117.897 32.7551 116.594 34.3099 115.599C37.7699 113.239 41.8099 111.889 45.0299 109.159C45.5499 108.719 44.8799 107.889 44.3099 108.229L34.9599 113.749L35.7699 113.959C34.9099 112.509 35.9599 110.149 36.7699 108.889C37.9443 107.247 39.4631 105.882 41.22 104.889C44.6 102.799 48.41 101.419 51.22 98.5187C51.77 97.8787 50.9299 97.0387 50.3899 97.5887Z" fill="#090938"/>
</svg>
