<svg width="504" height="396" viewBox="0 0 504 396" fill="none" xmlns="http://www.w3.org/2000/svg">
<path d="M112 268.09C112.005 270.187 112.84 272.196 114.323 273.678C115.805 275.16 117.814 275.995 119.91 276H495.08C497.176 275.995 499.185 275.16 500.667 273.678C502.15 272.196 502.985 270.187 502.99 268.09V26.4805H112V268.09Z" fill="#E4DFFC" stroke="#090938" stroke-miterlimit="10"/>
<path d="M495.82 1H119.18C117.28 1.00528 115.459 1.76239 114.116 3.10588C112.772 4.44937 112.015 6.27002 112.01 8.17V26.48H503V8.17C502.995 6.26829 502.236 4.44613 500.891 3.10236C499.545 1.75858 497.722 1.00264 495.82 1Z" fill="white" stroke="#090938" stroke-miterlimit="10"/>
<path d="M126.95 17.6899C128.889 17.6899 130.46 16.1184 130.46 14.1799C130.46 12.2414 128.889 10.6699 126.95 10.6699C125.011 10.6699 123.44 12.2414 123.44 14.1799C123.44 16.1184 125.011 17.6899 126.95 17.6899Z" fill="#4941C0"/>
<path d="M139.25 17.6899C141.189 17.6899 142.76 16.1184 142.76 14.1799C142.76 12.2414 141.189 10.6699 139.25 10.6699C137.311 10.6699 135.74 12.2414 135.74 14.1799C135.74 16.1184 137.311 17.6899 139.25 17.6899Z" fill="#4941C0"/>
<path d="M151.55 17.6899C153.488 17.6899 155.06 16.1184 155.06 14.1799C155.06 12.2414 153.488 10.6699 151.55 10.6699C149.611 10.6699 148.04 12.2414 148.04 14.1799C148.04 16.1184 149.611 17.6899 151.55 17.6899Z" fill="#4941C0"/>
<path d="M322 79H179V188H322V79Z" fill="white" stroke="#090938" stroke-miterlimit="10"/>
<path d="M179 188L322 79" stroke="#090938" stroke-miterlimit="10"/>
<path d="M179 79L322 188" stroke="#090938" stroke-miterlimit="10"/>
<path d="M455.54 109.301H349.05V117.691H455.54V109.301Z" fill="#090938"/>
<path d="M455.54 125.23H349.05V133.62H455.54V125.23Z" fill="#090938"/>
<path d="M455.54 141.17H349.05V149.56H455.54V141.17Z" fill="#090938"/>
<path d="M417.81 157.1H349.05V165.49H417.81V157.1Z" fill="#090938"/>
<path d="M222.77 230.409C222.77 242.173 213.234 251.709 201.47 251.709C189.706 251.709 180.17 242.173 180.17 230.409C180.17 218.646 189.706 209.109 201.47 209.109C213.234 209.109 222.77 218.646 222.77 230.409Z" fill="#4941C0" stroke="black"/>
<path d="M288.17 230.409C288.17 242.173 278.634 251.709 266.87 251.709C255.106 251.709 245.57 242.173 245.57 230.409C245.57 218.646 255.106 209.109 266.87 209.109C278.634 209.109 288.17 218.646 288.17 230.409Z" fill="#4941C0" stroke="black"/>
<path d="M353.58 230.409C353.58 242.173 344.044 251.709 332.28 251.709C320.516 251.709 310.98 242.173 310.98 230.409C310.98 218.646 320.516 209.109 332.28 209.109C344.044 209.109 353.58 218.646 353.58 230.409Z" fill="#4941C0" stroke="black"/>
<path d="M418.98 230.409C418.98 242.173 409.444 251.709 397.68 251.709C385.916 251.709 376.38 242.173 376.38 230.409C376.38 218.646 385.916 209.109 397.68 209.109C409.444 209.109 418.98 218.646 418.98 230.409Z" fill="#4941C0" stroke="black"/>
<path d="M99.04 139.06C114.675 139.06 127.35 124.272 127.35 106.03C127.35 87.788 114.675 73 99.04 73C83.4048 73 70.73 87.788 70.73 106.03C70.73 124.272 83.4048 139.06 99.04 139.06Z" fill="#FCDC59" stroke="#090938" stroke-width="1.81" stroke-miterlimit="10"/>
<path d="M83.26 233.859C76.05 238.199 67.89 239.259 59.62 238.569C55.3527 238.22 51.1175 237.551 46.95 236.569C43.1 235.659 39.37 234.289 35.57 233.189C35.4383 233.156 35.3007 233.153 35.1677 233.181C35.0346 233.208 34.9095 233.266 34.8018 233.348C34.694 233.431 34.6064 233.537 34.5455 233.659C34.4845 233.78 34.4519 233.914 34.45 234.049C34.24 241.049 33.45 248.049 33.22 255.109C33.0946 258.604 33.2149 262.102 33.58 265.579C33.95 268.979 34.64 272.349 35.22 275.719C36.38 282.439 37.22 289.139 36.58 295.969C35.9374 302.094 34.7323 308.146 32.98 314.049C29.69 325.849 25.36 337.499 24.34 349.799C24.12 352.409 23.61 355.509 25.65 357.539C27.4422 359.133 29.7165 360.08 32.11 360.229C34.94 360.339 35.2 356.999 35.92 354.959C37.0488 351.882 38.3646 348.876 39.86 345.959C43.05 339.649 46.8 333.639 50.13 327.409C51.58 324.679 53.13 321.959 54.48 319.189C55.73 316.689 56.85 313.909 56.25 311.069C56.01 309.959 54.31 310.429 54.54 311.539C55.08 314.119 53.75 316.779 52.59 318.999C51.43 321.219 50.13 323.619 48.91 325.929C46.12 331.209 43.01 336.309 40.17 341.559C37.4009 346.645 35.0885 351.965 33.26 357.459C32.96 358.359 32.62 358.609 31.65 358.459C31.0923 358.335 30.5415 358.182 30 357.999C28.8112 357.702 27.7193 357.103 26.83 356.259C25.76 355.099 25.93 353.489 26.01 352.029C26.09 350.569 26.2 349.159 26.36 347.739C27.71 336.019 31.92 324.879 35.01 313.559C36.5679 308.107 37.6717 302.534 38.31 296.899C38.8276 290.824 38.5621 284.707 37.52 278.699C36.94 274.999 36.2 271.319 35.64 267.609C35.1169 263.9 34.9028 260.154 35 256.409C35.13 248.969 36 241.569 36.26 234.129L35.14 234.979C39.14 236.139 43.06 237.579 47.14 238.499C51.3767 239.428 55.6743 240.053 60 240.369C68.43 241.019 76.78 239.799 84.11 235.369C84.3115 235.251 84.458 235.058 84.517 234.832C84.5761 234.606 84.543 234.366 84.425 234.164C84.307 233.963 84.1137 233.816 83.8877 233.757C83.6617 233.698 83.4215 233.731 83.22 233.849L83.26 233.859Z" fill="#090938"/>
<path d="M41.59 249.08C41.9 258.08 45.3 266.39 47.93 274.85C50.6748 283.681 52.5964 292.746 53.67 301.93C54.6596 311.065 54.9004 320.266 54.39 329.44C53.96 338.44 53.22 347.44 53.59 356.44C53.7459 360.847 54.2542 365.235 55.11 369.56C55.33 370.62 55.58 371.67 55.85 372.72C56.05 373.5 56.16 374.88 56.85 375.43C57.54 375.98 58.85 376.03 59.62 376.22C60.6086 376.589 61.6467 376.808 62.7 376.87C64.63 376.75 64.77 374.24 65.12 372.87L66.83 365.97C67.9367 361.45 69.0333 356.924 70.12 352.39C74.49 334.06 78.47 315.6 81.12 296.93C82.44 287.54 83.3 278.08 85.12 268.77C86.02 264.24 87.02 259.77 87 255.1C86.8568 250.549 86.4629 246.009 85.82 241.5L85.05 234.56C84.92 233.44 83.15 233.42 83.28 234.56C84.28 243.98 86.18 253.56 84.46 263.03C83.6 267.77 82.59 272.47 81.9 277.24C81.21 282.01 80.66 286.64 80.06 291.34C77.4334 310.6 73.8052 329.709 69.19 348.59C67.9567 353.83 66.6933 359.07 65.4 364.31C64.76 366.93 64.11 369.54 63.47 372.16C63.31 372.79 63.16 373.43 63 374.06C62.95 374.24 62.9 374.75 62.78 374.87C62.51 375.17 61.97 375.01 61.66 374.96C60.3 374.75 58.94 374.27 57.61 373.96L58.23 374.58C53.44 358.58 55.83 341.69 56.38 325.28C56.9676 308.624 54.8535 291.981 50.12 276C47.48 267.15 43.68 258.45 43.36 249.1C43.36 247.96 41.55 247.96 41.59 249.1V249.08Z" fill="#090938"/>
<path d="M63 376.38C63 377.767 63 379.157 63 380.55C63.039 381.372 62.8595 382.19 62.48 382.92C62.1499 383.37 61.71 383.727 61.2022 383.959C60.6945 384.19 60.1359 384.287 59.58 384.24C58.4742 384.131 57.3953 383.833 56.39 383.36C56.11 383.25 55.79 383.1 55.7 382.81C55.6551 382.636 55.6551 382.454 55.7 382.28L57.22 375.74C57.232 375.616 57.2848 375.5 57.37 375.41C57.4658 375.34 57.5812 375.301 57.7 375.3C59.4923 375.121 61.3022 375.308 63.02 375.85" fill="white"/>
<path d="M62.19 376.38C62.19 377.3 62.19 378.23 62.19 379.16C62.2201 379.992 62.18 380.825 62.07 381.65C62.0223 381.953 61.9077 382.24 61.7347 382.493C61.5618 382.746 61.3347 382.956 61.07 383.11C60.4783 383.423 59.802 383.539 59.14 383.44C58.2752 383.3 57.434 383.041 56.64 382.67C56.5275 382.638 56.4199 382.591 56.32 382.53C56.32 382.58 56.25 382.71 56.32 382.53C56.3991 382.31 56.4528 382.082 56.48 381.85L56.64 381.16L57.27 378.4L57.59 377.03C57.6647 376.599 57.7717 376.175 57.91 375.76L57.71 376.1C57.52 376.1 57.53 376.1 57.71 376.1H58.05C58.27 376.1 58.49 376.1 58.72 376.1C59.17 376.1 59.62 376.1 60.06 376.1C60.939 376.194 61.8066 376.375 62.65 376.64C63.65 376.94 64.02 375.44 63.07 375.15C62.0351 374.833 60.9689 374.628 59.89 374.54C59.3871 374.51 58.8829 374.51 58.38 374.54C57.8456 374.498 57.309 374.591 56.82 374.81C56.37 375.09 56.3 375.65 56.19 376.12L55.79 377.84L55.04 381.11C54.82 382.04 54.39 383.11 55.32 383.83C55.7221 384.083 56.1559 384.281 56.61 384.42C57.102 384.616 57.6064 384.78 58.12 384.91C59.86 385.3 61.93 385 62.96 383.38C63.4464 382.419 63.6673 381.345 63.6 380.27C63.6 379 63.6 377.72 63.6 376.45C63.5783 376.26 63.4874 376.084 63.3444 375.956C63.2015 375.829 63.0166 375.758 62.825 375.758C62.6334 375.758 62.4485 375.829 62.3056 375.956C62.1626 376.084 62.0716 376.26 62.05 376.45L62.19 376.38Z" fill="#090938"/>
<path d="M32.4799 360.571V365.311C30.4799 365.744 28.46 366.078 26.42 366.311L25.95 357.631C28.1766 358.484 30.4366 359.244 32.7299 359.911" fill="white"/>
<path d="M31.7 360.57V365.31L32.27 364.57C30.33 364.976 28.3767 365.31 26.41 365.57L27.19 366.35L26.72 357.67L25.72 358.42C27.9467 359.266 30.2034 360.026 32.49 360.7C32.6827 360.736 32.882 360.699 33.0483 360.595C33.2146 360.491 33.3357 360.328 33.3874 360.139C33.4391 359.95 33.4176 359.748 33.3273 359.574C33.237 359.4 33.0844 359.266 32.9 359.2C30.62 358.533 28.3634 357.776 26.13 356.93C26.0143 356.893 25.8917 356.885 25.7721 356.905C25.6525 356.925 25.5394 356.973 25.442 357.046C25.3445 357.118 25.2655 357.212 25.2112 357.32C25.157 357.429 25.1292 357.548 25.13 357.67L25.6 366.35C25.6 366.73 25.94 367.17 26.37 367.12C28.48 366.87 30.57 366.54 32.64 366.12C32.8038 366.074 32.9481 365.976 33.051 365.84C33.1539 365.705 33.2098 365.54 33.21 365.37V360.63C33.1884 360.439 33.0974 360.264 32.9545 360.136C32.8115 360.008 32.6266 359.938 32.435 359.938C32.2434 359.938 32.0585 360.008 31.9156 360.136C31.7727 360.264 31.6817 360.439 31.66 360.63L31.7 360.57Z" fill="#090938"/>
<path d="M61.57 384.179C66.99 388.449 74.21 387.939 80.21 390.889L79.81 389.889C79.3 392.719 76.37 393.649 73.81 393.769C70.96 393.899 68.06 393.699 65.2 393.629L60.91 393.539C59.81 393.539 57.21 393.899 56.8 392.669C56.4962 391.196 56.422 389.685 56.58 388.189C56.6015 386.654 56.7385 385.123 56.99 383.609L56.13 384.259C58.3395 384.283 60.5462 384.095 62.72 383.699C63.84 383.489 63.36 381.789 62.25 381.989C60.2312 382.355 58.1814 382.523 56.13 382.489C55.9374 382.492 55.7509 382.557 55.5979 382.674C55.4449 382.791 55.3335 382.954 55.28 383.139C54.98 384.961 54.8195 386.803 54.8 388.649C54.6609 390.329 54.8097 392.02 55.24 393.649C55.78 395.089 57.16 395.209 58.52 395.239L64.25 395.369C67.82 395.449 71.58 395.869 75.13 395.369C77.99 394.999 80.94 393.369 81.48 390.309C81.5317 390.121 81.5207 389.922 81.4484 389.742C81.3762 389.561 81.2468 389.409 81.08 389.309C75.29 386.449 67.98 386.949 62.79 382.869C61.91 382.169 60.65 383.409 61.54 384.119L61.57 384.179Z" fill="#090938"/>
<path d="M33.23 364.369C34.8482 363.69 36.5208 363.148 38.23 362.749C39.31 362.489 40.96 361.949 42.06 362.439C43.62 363.149 41.63 365.309 40.96 365.979C39.9406 366.955 38.7894 367.783 37.54 368.439C34.6189 370.022 31.5956 371.409 28.49 372.589C27.7776 372.791 27.0822 373.049 26.41 373.359C26.72 373.639 26.85 373.579 26.79 373.179L26.89 372.489L27.09 371.119L27.86 365.639C28.02 364.529 26.32 364.049 26.16 365.169L25.38 370.649C25.25 371.569 25.11 372.479 24.99 373.389C24.918 373.664 24.9289 373.954 25.0215 374.223C25.114 374.492 25.284 374.727 25.51 374.899C25.7452 375.033 26.0075 375.112 26.2775 375.131C26.5475 375.15 26.8183 375.109 27.07 375.009C27.92 374.759 28.76 374.379 29.59 374.009C31.2766 373.343 32.9433 372.613 34.59 371.819C37.32 370.559 40.16 369.269 42.29 367.089C43.3994 366.135 44.1391 364.822 44.38 363.379C44.4124 362.766 44.2307 362.16 43.8659 361.666C43.5011 361.171 42.9758 360.819 42.38 360.669C40.8759 360.378 39.3223 360.482 37.87 360.969C35.9636 361.416 34.0998 362.028 32.3 362.799C31.25 363.239 32.15 364.799 33.19 364.329L33.23 364.369Z" fill="#090938"/>
<path d="M94.09 179.759C110.09 176.919 123.77 166.319 128.33 153.199C129.704 148.923 130.508 144.485 130.72 139.999C131.35 131.109 130.92 121.949 126.88 113.709C122.88 116.909 124.88 123.059 121.17 126.529C120.556 125.031 119.621 123.686 118.43 122.589C117.56 126.589 120.08 130.479 120.97 134.469C122.48 141.269 119.04 148.349 113.57 153.549C108.1 158.749 100.77 162.319 93.36 165.419C93.69 170.023 93.6197 174.647 93.15 179.239" fill="white"/>
<path d="M94.3 180.509C104.929 178.679 114.646 173.363 121.92 165.399C125.167 161.8 127.653 157.583 129.23 152.999C131.23 146.929 131.72 140.249 131.73 133.889C131.73 126.809 130.64 119.759 127.55 113.349C127.489 113.249 127.405 113.163 127.306 113.098C127.207 113.034 127.095 112.993 126.978 112.977C126.861 112.962 126.742 112.973 126.63 113.01C126.518 113.046 126.415 113.108 126.33 113.189C122.33 116.529 124.15 122.519 120.62 126.009L121.91 126.359C121.255 124.719 120.264 123.234 119 121.999C118.904 121.906 118.785 121.839 118.655 121.806C118.525 121.772 118.389 121.772 118.259 121.806C118.13 121.84 118.011 121.907 117.915 122.001C117.818 122.094 117.748 122.211 117.71 122.339C117.02 125.959 118.56 129.209 119.66 132.579C120.785 135.927 120.785 139.551 119.66 142.899C117.32 150.069 111.19 155.209 104.9 158.899C101.112 161.064 97.1835 162.972 93.14 164.609C92.9778 164.658 92.8353 164.757 92.7329 164.892C92.6305 165.026 92.5734 165.19 92.57 165.359C92.8818 169.964 92.8082 174.587 92.35 179.179C92.26 180.179 93.8 180.179 93.9 179.179C94.3582 174.587 94.4317 169.964 94.12 165.359L93.55 166.109C100.68 163.109 107.88 159.729 113.64 154.449C118.76 149.759 122.85 142.919 121.95 135.729C121.41 131.379 118.31 127.209 119.16 122.729L117.87 123.069C118.951 124.087 119.812 125.316 120.4 126.679C120.44 126.808 120.511 126.924 120.608 127.018C120.706 127.111 120.825 127.178 120.955 127.212C121.085 127.246 121.222 127.246 121.353 127.212C121.483 127.179 121.603 127.112 121.7 127.019C123.41 125.319 124.04 123.099 124.5 120.799C124.96 118.499 125.4 115.879 127.41 114.199L126.19 114.039C128.775 119.689 130.122 125.826 130.14 132.039C130.402 138.168 129.81 144.304 128.38 150.269C125.84 159.969 118.87 167.769 110.38 172.839C105.297 175.865 99.7115 177.951 93.89 178.999C92.89 179.169 93.32 180.669 94.3 180.489V180.509Z" fill="#090938"/>
<path d="M55.67 128.489L69.43 100.909C70.9083 98.0815 72.2205 95.1699 73.36 92.1894C74.83 88.1094 75.74 83.6494 78.56 80.3594C75.73 81.1694 73.69 83.6594 72.34 86.2794C70.99 88.8994 70.14 91.7694 68.66 94.2794C67.0254 96.8211 65.0842 99.152 62.88 101.219L43.88 120.479" fill="white"/>
<path d="M56.43 128.94L69 103.81C71.071 99.9306 72.8914 95.9224 74.45 91.8102C75.74 88.0802 76.64 84.0502 79.22 80.9502C79.74 80.3202 79.27 79.1802 78.36 79.4702C74.61 80.6402 72.36 83.9602 70.84 87.3902C69.95 89.3902 69.22 91.5102 68.14 93.3902C67.0193 95.3178 65.6584 97.0954 64.09 98.6802C57.31 105.86 50.23 112.77 43.3 119.8C42.5 120.62 43.75 121.87 44.55 121.06C51.28 114.23 58.08 107.46 64.74 100.56C66.209 99.0819 67.5473 97.4793 68.74 95.7702C69.8003 94.0962 70.6914 92.3208 71.4 90.4702C72.92 86.8202 74.66 82.4202 78.8 81.1202L77.94 79.6502C75.45 82.6502 74.35 86.3002 73.17 89.9302C71.645 94.2113 69.8033 98.3728 67.66 102.38L54.9 128C54.4 129 55.9 129.92 56.43 128.9V128.94Z" fill="#090938"/>
<path d="M54.4799 125.249L61.1499 136.139C60.7713 136.254 60.4413 136.491 60.2116 136.813C59.9818 137.135 59.8652 137.524 59.88 137.919C59.9355 138.711 60.1319 139.487 60.46 140.209C61.38 142.829 61.37 146.209 59.11 147.849C58.6631 148.098 58.2744 148.439 57.97 148.849C57.63 149.449 58.3099 155.509 58.3399 156.199C58.4799 159.089 55.06 159.679 52.44 160.919C51.36 161.429 50.15 157.919 48.96 157.919C47.2 157.819 45.7599 156.489 44.6499 155.119C42.2984 152.189 40.614 148.782 39.7142 145.134C38.8144 141.487 38.7208 137.687 39.44 133.999C39.9045 131.296 41.0506 128.756 42.77 126.619C43.636 125.559 44.7245 124.703 45.9583 124.11C47.1922 123.517 48.5412 123.203 49.91 123.189C51.2794 123.212 52.6084 123.658 53.7148 124.465C54.8212 125.272 55.6508 126.402 56.0899 127.699" fill="white"/>
<path d="M53.71 125.699L60.38 136.579L60.91 135.279C57.64 136.349 59.66 139.859 60.03 142.089C60.3517 143.498 60.1416 144.976 59.44 146.239C58.81 147.239 57.44 147.569 57.07 148.729C56.9549 149.485 56.9549 150.253 57.07 151.009C57.13 152.059 57.22 153.119 57.32 154.169C57.38 154.809 57.48 155.459 57.49 156.099C57.49 157.519 56.49 158.169 55.34 158.729C54.77 158.999 54.18 159.219 53.6 159.449C53.41 159.529 52.39 160.069 52.36 160.069C52.03 160.009 51.65 159.279 51.47 159.069C51.1532 158.589 50.7951 158.137 50.4 157.719C49.6 156.949 48.63 157.109 47.68 156.609C46.2725 155.709 45.0973 154.489 44.25 153.049C42.387 150.326 41.0815 147.261 40.4087 144.031C39.7359 140.801 39.7091 137.469 40.33 134.229C41.08 130.539 42.8 126.749 46.33 124.939C49.55 123.269 54.1 124.119 55.33 127.939C55.67 129.019 57.33 128.559 57.04 127.469C56.5469 126.02 55.6285 124.754 54.4047 123.835C53.1809 122.917 51.7086 122.388 50.18 122.319C46.76 122.129 43.56 124.149 41.58 126.819C37.37 132.529 37.38 141.019 39.58 147.489C40.6667 150.876 42.4749 153.988 44.88 156.609C45.4159 157.174 46.0246 157.665 46.69 158.069C47.3799 158.371 48.0962 158.609 48.83 158.779C49.83 159.129 50.26 160.509 50.97 161.209C51.89 162.099 52.61 161.849 53.67 161.399C55.0366 160.934 56.3478 160.321 57.58 159.569C59.51 158.179 59.34 156.319 59.15 154.219C59.03 152.899 58.9 151.559 58.87 150.219C58.8964 149.916 58.8964 149.612 58.87 149.309C59.06 148.899 59.77 148.629 60.13 148.309C60.4267 148.047 60.6919 147.752 60.92 147.429C61.7902 146.091 62.1815 144.498 62.03 142.909C61.971 142.029 61.8065 141.16 61.54 140.319C61.29 139.509 60.21 137.449 61.54 137.019C61.6702 136.982 61.7904 136.916 61.8914 136.826C61.9923 136.736 62.0713 136.624 62.1224 136.498C62.1735 136.373 62.1954 136.238 62.1863 136.103C62.1772 135.968 62.1374 135.836 62.07 135.719L55.4 124.839C54.81 123.839 53.28 124.759 53.87 125.729L53.71 125.699Z" fill="#090938"/>
<path d="M94.86 163.799C87.2544 164.456 79.5932 163.652 72.29 161.429C64.57 159.069 56.13 155.159 48.87 158.699C45.3139 160.628 42.5676 163.768 41.13 167.549C39.7133 171.301 38.789 175.22 38.38 179.209C35.9613 196.457 34.6686 213.843 34.51 231.259C34.3641 231.865 34.3619 232.497 34.5037 233.105C34.6455 233.712 34.9272 234.278 35.3265 234.757C35.7259 235.235 36.2316 235.614 36.8035 235.863C37.3753 236.112 37.9974 236.224 38.62 236.189C50.47 238.539 62.86 241.299 74.86 239.929C77.96 239.569 83.31 238.629 85.48 236.389C88.48 233.249 85.89 226.339 85.25 222.019C83.3633 209.352 81.2133 196.739 78.8 184.179L93 180.719C93.9023 180.603 94.7383 180.184 95.37 179.529C95.8215 178.786 96.0116 177.913 95.91 177.049C95.8592 172.494 95.4007 167.952 94.54 163.479" fill="#E4DFFC"/>
<path d="M52.93 120.669C55.5 121.429 55.84 125.149 54.49 127.459C53.14 129.769 50.77 131.329 49.22 133.509C45.49 138.769 47.32 145.949 48.94 152.189C51.54 162.189 53.23 172.769 50.58 182.739C47.93 192.709 40 201.849 29.76 203.139C26.5733 203.455 23.3558 203.119 20.3028 202.153C17.2498 201.187 14.425 199.61 12 197.519C7.18051 193.273 3.7051 187.712 1.99999 181.519C-0.674138 172.506 -0.18069 162.849 3.3982 154.156C6.97708 145.463 13.4255 138.257 21.67 133.739C27.53 130.519 34.29 128.659 39.16 124.079C40.81 122.539 42.16 120.709 43.93 119.269C44.7545 118.491 45.7335 117.895 46.8033 117.519C47.8731 117.144 49.0099 116.997 50.14 117.089C52.37 117.439 54.37 119.629 53.88 121.839" fill="#090938"/>
</svg>
