<svg width="130" height="130" viewBox="0 0 130 130" fill="none" xmlns="http://www.w3.org/2000/svg">
<path d="M63.2634 41.8989C62.6264 41.8976 61.9946 41.9925 61.3862 42.181C58.3572 43.0962 56.4592 46.094 56.9285 49.2231C57.3965 52.3522 60.0901 54.6623 63.2543 54.6506C63.8913 54.6493 64.5244 54.5505 65.1315 54.3594C68.1436 53.4325 70.0247 50.4425 69.558 47.3264C69.0913 44.2103 66.4159 41.9028 63.2647 41.9002" fill="#80829B"/>
<path d="M61.5032 44.642C62.0999 46.5244 61.4993 48.5797 59.9835 49.8446C58.4677 51.1095 56.3383 51.3331 54.5924 50.4101C52.8478 49.4871 51.8338 47.6008 52.0262 45.6365C52.2186 43.6722 53.581 42.0186 55.4725 41.4531C58.0166 40.6913 60.7011 42.1122 61.5032 44.6433V44.642Z" fill="#000638"/>
<path d="M75.3051 59.9221C76.0799 62.4428 74.6642 65.1143 72.1435 65.8891C69.6228 66.6639 66.9513 65.2495 66.1752 62.7301C65.3991 60.2094 66.8122 57.5379 69.3329 56.7605C71.8549 55.9883 74.5251 57.4027 75.3051 59.9221Z" fill="#000638"/>
<path d="M45.7938 52.8606C45.4636 52.8619 45.136 52.9113 44.8214 53.0062C43.1782 53.5132 42.2019 55.2006 42.5841 56.8776C42.9663 58.5546 44.5757 59.6544 46.2774 59.3983C47.9778 59.1435 49.1946 57.6199 49.0685 55.9052C48.9411 54.1892 47.5137 52.8619 45.7938 52.8606Z" fill="#000638"/>
<path d="M76.2087 46.9663C75.9656 46.9689 75.7225 47.0053 75.4885 47.0729C74.3484 47.4382 73.6412 48.5783 73.8193 49.7626C73.9987 50.9469 75.0101 51.827 76.2074 51.8387C76.4518 51.84 76.6949 51.8049 76.9276 51.7321C78.0677 51.3668 78.7749 50.2267 78.5968 49.0424C78.4174 47.8581 77.406 46.978 76.2087 46.9663Z" fill="#CCCDD7"/>
<path d="M50.0344 28.106C49.4936 28.106 48.9567 28.1853 48.4393 28.34C45.7041 29.1668 44.0713 31.9631 44.6927 34.7516C45.3141 37.5401 47.9817 39.377 50.8092 38.9636C53.6354 38.5502 55.6647 36.0256 55.4619 33.176C55.2591 30.3264 52.8918 28.1164 50.0357 28.1073" fill="#80829B"/>
<path d="M71.7355 18.6524C70.7254 18.6511 69.7217 18.8058 68.7584 19.11C63.9744 20.5829 60.9858 25.3331 61.7307 30.2835C62.4756 35.2339 66.7292 38.8947 71.7355 38.8947C77.2033 38.7257 81.5466 34.2446 81.5466 28.7742C81.5466 23.3038 77.202 18.8227 71.7355 18.6537" fill="#CCCDD7"/>
<path d="M81.6465 24.3516C79.4105 24.3555 77.5737 26.117 77.4749 28.3504C77.3761 30.5838 79.053 32.5 81.2799 32.7002C83.5068 32.9004 85.4971 31.3131 85.7987 29.0979C86.1003 26.8827 84.6054 24.8222 82.4058 24.4205C82.1562 24.3737 81.9013 24.3503 81.6465 24.3529" fill="#000638"/>
<path d="M22.7041 75.9968H26.4923C29.0169 75.9968 30.5587 77.2916 30.5587 79.4236C30.5587 81.5556 29.0169 82.8348 26.4923 82.8348H25.0337V87.4745H22.7054V75.9968H22.7041ZM25.0324 77.9312V80.8991H26.5898C27.5739 80.8991 28.1641 80.3258 28.1641 79.3911C28.1641 78.5214 27.5739 77.9312 26.5898 77.9312H25.0324Z" fill="black"/>
<path d="M32.1982 75.1765H34.2808V87.4745H32.1982V75.1765Z" fill="black"/>
<path d="M36.3138 85.2438C36.3138 83.9971 37.281 83.0624 39.0516 82.7673L41.5762 82.3409V82.1277C41.5762 81.2593 40.921 80.7016 39.9694 80.7016C39.166 80.7016 38.5433 81.0786 38.1 81.6857L36.5751 80.5209C37.3135 79.5043 38.5264 78.8816 40.0344 78.8816C42.429 78.8816 43.6588 80.3077 43.6588 82.1277V87.4733H41.5762V86.6699C41.051 87.3095 40.0682 87.719 39.0997 87.719C37.4435 87.719 36.3125 86.7674 36.3125 85.2438H36.3138ZM39.5274 86.0641C40.479 86.0641 41.1667 85.6208 41.5775 84.9656V83.8008L39.6093 84.1284C38.7409 84.2753 38.3795 84.6367 38.3795 85.145C38.3795 85.7027 38.8228 86.0628 39.5274 86.0628V86.0641Z" fill="black"/>
<path d="M46.5618 81.0799H45.02V79.2105H46.5618V77.1448H48.66V79.2105H51.1846V81.0799H48.66V84.4573C48.66 85.3751 49.1514 85.7365 49.9717 85.7365C50.5463 85.7365 50.9233 85.6715 51.2015 85.5558V87.3758C50.792 87.5565 50.2993 87.6384 49.6116 87.6384C47.5459 87.6384 46.5618 86.4736 46.5618 84.4573V81.0799Z" fill="black"/>
<path d="M56.8919 87.8022C53.9565 87.8022 52.3003 85.7521 52.3003 83.3419C52.3003 80.9317 53.8421 78.8816 56.5474 78.8816C58.8432 78.8816 60.3512 80.439 60.3512 82.6035C60.3512 83.0624 60.2862 83.4888 60.2199 83.7683H54.4323C54.6286 85.3101 55.5802 85.9328 56.875 85.9328C57.7772 85.9328 58.5637 85.5389 59.007 84.9487L60.4994 86.1291C59.7285 87.1626 58.4493 87.8022 56.8919 87.8022ZM54.4973 82.2603H58.3011C58.2686 81.4244 57.6615 80.5872 56.498 80.5872C55.432 80.5872 54.7274 81.1774 54.4973 82.2603Z" fill="black"/>
<path d="M62.9096 79.2103V78.3419C62.9096 76.5869 64.0744 75.1777 66.1401 75.1777C66.8941 75.1777 67.5337 75.3584 68.0589 75.6366L67.1736 77.3747C66.9279 77.194 66.6003 77.0471 66.1739 77.0471C65.4693 77.0471 65.0091 77.5385 65.0091 78.2938V79.2116H67.5337V81.081H65.0091V87.4757H62.9109V81.081H61.3691V79.2116H62.9109L62.9096 79.2103Z" fill="black"/>
<path d="M77.1092 83.3419C77.1092 85.8184 75.2723 87.8022 72.5839 87.8022C69.8955 87.8022 68.0586 85.8184 68.0586 83.3419C68.0586 80.8654 69.8955 78.8816 72.5839 78.8816C75.2723 78.8816 77.1092 80.8654 77.1092 83.3419ZM74.9447 83.3419C74.9447 81.8989 73.945 80.8498 72.6164 80.8498C71.2878 80.8498 70.2231 81.8989 70.2231 83.3419C70.2231 84.7849 71.2397 85.834 72.6164 85.834C73.9931 85.834 74.9447 84.768 74.9447 83.3419Z" fill="black"/>
<path d="M79.0112 79.2104H81.0938V80.0307C81.6346 79.473 82.3405 79.0466 83.2739 79.0466C83.5521 79.0466 83.7991 79.096 83.9954 79.161V81.2111C83.7328 81.1461 83.4546 81.0967 83.0776 81.0967C82.061 81.0967 81.4045 81.6544 81.0938 82.1783V87.4745H79.0112V79.2104Z" fill="black"/>
<path d="M85.6685 79.2105H87.7511V79.8332C88.3088 79.2924 89.0134 78.8816 90.03 78.8816C91.0466 78.8816 91.9982 79.3405 92.539 80.2258C93.1292 79.5043 93.9157 78.8816 95.3106 78.8816C97.0162 78.8816 98.3604 80.062 98.3604 82.3903V87.4733H96.2622V82.4722C96.2622 81.4725 95.7214 80.8485 94.7867 80.8485C93.852 80.8485 93.3931 81.4712 93.0655 82.0289C93.0824 82.1433 93.0824 82.259 93.0824 82.389V87.472H90.9842V82.4709C90.9842 81.4712 90.4434 80.8472 89.5087 80.8472C88.574 80.8472 88.0657 81.5518 87.7537 82.077V87.472H85.6711V79.2079L85.6685 79.2105Z" fill="black"/>
<path d="M104.737 87.8022C101.802 87.8022 100.146 85.7521 100.146 83.3419C100.146 80.9317 101.687 78.8816 104.393 78.8816C106.688 78.8816 108.196 80.439 108.196 82.6035C108.196 83.0624 108.131 83.4888 108.065 83.7683H102.278C102.474 85.3101 103.425 85.9328 104.72 85.9328C105.622 85.9328 106.409 85.5389 106.852 84.9487L108.345 86.1291C107.574 87.1626 106.295 87.8022 104.737 87.8022ZM102.343 82.2603H106.146C106.114 81.4244 105.507 80.5872 104.343 80.5872C103.277 80.5872 102.573 81.1774 102.343 82.2603Z" fill="black"/>
<path d="M17.5888 98.5583C18.7042 98.5583 19.5076 98.9028 20.1472 99.5424V94.8533H22.2454V107.151H20.1472V106.496C19.5076 107.136 18.7042 107.48 17.5888 107.48C14.9823 107.48 13.3911 105.43 13.3911 103.02C13.3911 100.61 14.981 98.5596 17.5888 98.5596V98.5583ZM17.8839 105.511C18.8186 105.511 19.5895 105.117 20.1472 104.363V101.674C19.5895 100.92 18.8186 100.526 17.8839 100.526C16.4734 100.526 15.5725 101.576 15.5725 103.019C15.5725 104.462 16.4747 105.511 17.8839 105.511Z" fill="black"/>
<path d="M28.7391 107.479C25.8037 107.479 24.1475 105.429 24.1475 103.019C24.1475 100.608 25.6893 98.5583 28.3946 98.5583C30.6904 98.5583 32.1984 100.116 32.1984 102.28C32.1984 102.739 32.1334 103.166 32.0671 103.445H26.2795C26.4758 104.987 27.4274 105.61 28.7222 105.61C29.6244 105.61 30.4109 105.216 30.8542 104.625L32.3466 105.806C31.5757 106.839 30.2965 107.479 28.7391 107.479ZM26.3445 101.937H30.1483C30.1158 101.101 29.5087 100.264 28.3452 100.264C27.2792 100.264 26.5746 100.854 26.3445 101.937Z" fill="black"/>
<path d="M38.6592 94.8533H40.7418V107.151H38.6592V94.8533Z" fill="black"/>
<path d="M42.4136 100.395L43.8891 95.6724H46.2499L44.348 100.395H42.4136Z" fill="black"/>
<path d="M47.6108 96.083C47.6108 95.3446 48.2335 94.7219 48.9719 94.7219C49.7103 94.7219 50.3161 95.3446 50.3161 96.083C50.3161 96.8214 49.709 97.4441 48.9719 97.4441C48.2348 97.4441 47.6108 96.8214 47.6108 96.083ZM47.9228 98.8871H50.0054V107.151H47.9228V98.8871Z" fill="black"/>
<path d="M52.4976 98.886H54.5802V99.5412C55.1548 98.9835 55.9244 98.5571 57.0229 98.5571C58.8104 98.5571 60.2365 99.7869 60.2365 102.23V107.149H58.1383V102.312C58.1383 101.213 57.5156 100.524 56.499 100.524C55.4824 100.524 54.8922 101.229 54.5802 101.754V107.149H52.4976V98.8847V98.886Z" fill="black"/>
<path d="M68.4345 104.56L70.0582 105.807C69.2873 106.824 68.0744 107.48 66.5651 107.48C63.7116 107.48 62.0073 105.43 62.0073 103.02C62.0073 100.61 63.7129 98.5596 66.5651 98.5596C68.0731 98.5596 69.2873 99.2148 70.0582 100.233L68.4345 101.479C68.0406 100.905 67.3854 100.528 66.5326 100.528C65.1715 100.528 64.1718 101.577 64.1718 103.02C64.1718 104.463 65.1715 105.512 66.5651 105.512C67.3854 105.512 68.0406 105.135 68.4345 104.56Z" fill="black"/>
<path d="M71.6157 94.8533H73.6983V107.151H71.6157V94.8533Z" fill="black"/>
<path d="M81.6344 98.886H83.7326V103.478C83.7326 105.954 82.2896 107.479 79.8625 107.479C77.4354 107.479 76.0093 105.954 76.0093 103.478V98.886H78.1075V103.575C78.1075 104.772 78.7302 105.509 79.8781 105.509C81.026 105.509 81.6331 104.771 81.6331 103.575V98.886H81.6344Z" fill="black"/>
<path d="M86.6358 104.707C87.1441 105.347 87.7512 105.806 88.5377 105.806C89.2098 105.806 89.5543 105.412 89.5543 104.921C89.5543 103.478 85.6023 104.018 85.6023 101.117C85.6023 99.6568 86.8321 98.5583 88.5533 98.5583C89.8156 98.5583 90.9635 99.1654 91.5537 99.9688L90.177 101.182C89.7506 100.657 89.2098 100.23 88.5702 100.23C87.9306 100.23 87.603 100.59 87.603 101.017C87.603 102.427 91.555 101.934 91.555 104.788C91.5225 106.526 90.1289 107.476 88.5702 107.476C87.0947 107.476 86.0456 106.886 85.2578 105.951L86.6345 104.705L86.6358 104.707Z" fill="black"/>
<path d="M93.1616 96.083C93.1616 95.3446 93.7843 94.7219 94.5227 94.7219C95.2611 94.7219 95.8669 95.3446 95.8669 96.083C95.8669 96.8214 95.2598 97.4441 94.5227 97.4441C93.7856 97.4441 93.1616 96.8214 93.1616 96.083ZM93.4736 98.8871H95.5562V107.151H93.4736V98.8871Z" fill="black"/>
<path d="M106.508 103.019C106.508 105.494 104.671 107.479 101.982 107.479C99.2939 107.479 97.457 105.495 97.457 103.019C97.457 100.542 99.2939 98.5583 101.982 98.5583C104.671 98.5583 106.508 100.542 106.508 103.019ZM104.343 103.019C104.343 101.576 103.343 100.527 102.015 100.527C100.686 100.527 99.6202 101.576 99.6202 103.019C99.6202 104.462 100.637 105.511 102.015 105.511C103.393 105.511 104.343 104.445 104.343 103.019Z" fill="black"/>
<path d="M108.409 98.886H110.492V99.5412C111.065 98.9835 111.836 98.5571 112.934 98.5571C114.722 98.5571 116.148 99.7869 116.148 102.23V107.149H114.05V102.312C114.05 101.213 113.427 100.524 112.411 100.524C111.394 100.524 110.804 101.229 110.492 101.754V107.149H108.409V98.8847V98.886Z" fill="black"/>
</svg>
