<svg width="80" height="80" viewBox="0 0 80 80" fill="none" xmlns="http://www.w3.org/2000/svg">
<path fill-rule="evenodd" clip-rule="evenodd" d="M72 12C71.4486 12 71 11.5514 71 11C71 10.4486 71.4486 10 72 10C72.5514 10 73 10.4486 73 11C73 11.5514 72.5514 12 72 12Z" fill="#CACAFB"/>
<path fill-rule="evenodd" clip-rule="evenodd" d="M65 24C64.4486 24 64 23.5514 64 23C64 22.4486 64.4486 22 65 22C65.5514 22 66 22.4486 66 23C66 23.5514 65.5514 24 65 24Z" fill="#CACAFB"/>
<path fill-rule="evenodd" clip-rule="evenodd" d="M13 71C12.4486 71 12 70.5514 12 70C12 69.4486 12.4486 69 13 69C13.5514 69 14 69.4486 14 70C14 70.5514 13.5514 71 13 71Z" fill="#CACAFB"/>
<path fill-rule="evenodd" clip-rule="evenodd" d="M67 75C66.4486 75 66 74.5514 66 74C66 73.4486 66.4486 73 67 73C67.5514 73 68 73.4486 68 74C68 74.5514 67.5514 75 67 75Z" fill="#CACAFB"/>
<path fill-rule="evenodd" clip-rule="evenodd" d="M57 8C56.4486 8 56 7.5514 56 7C56 6.44855 56.4486 6 57 6C57.5514 6 58 6.44855 58 7C58 7.5514 57.5514 8 57 8Z" fill="#CACAFB"/>
<path fill-rule="evenodd" clip-rule="evenodd" d="M7 14C6.4486 14 6 13.5514 6 13C6 12.4486 6.4486 12 7 12C7.5514 12 8 12.4486 8 13C8 13.5514 7.5514 14 7 14Z" fill="#CACAFB"/>
<path fill-rule="evenodd" clip-rule="evenodd" d="M50.3717 51.0715C50.8844 51.2767 51.1339 51.8586 50.9287 52.3714L46.9287 62.3714C46.7236 62.8842 46.1417 63.1336 45.6289 62.9285C45.1161 62.7234 44.8667 62.1414 45.0718 61.6286L49.0718 51.6286C49.2769 51.1158 49.8589 50.8664 50.3717 51.0715ZM58.3717 56.0715C58.8844 56.2767 59.1339 56.8586 58.9287 57.3714L56.9287 62.3714C56.7236 62.8842 56.1417 63.1336 55.6289 62.9285C55.1161 62.7234 54.8667 62.1414 55.0718 61.6286L57.0718 56.6286C57.2769 56.1158 57.8589 55.8664 58.3717 56.0715Z" fill="#E1000F"/>
<path fill-rule="evenodd" clip-rule="evenodd" d="M35.3717 51.0715C35.8844 51.2767 36.1339 51.8586 35.9287 52.3714L31.9287 62.3714C31.7236 62.8842 31.1417 63.1336 30.6289 62.9285C30.1161 62.7234 29.8667 62.1414 30.0718 61.6286L34.0718 51.6286C34.2769 51.1158 34.8589 50.8664 35.3717 51.0715Z" fill="#E1000F"/>
<path fill-rule="evenodd" clip-rule="evenodd" d="M20.3717 51.0715C20.8844 51.2767 21.1339 51.8586 20.9287 52.3714L16.9287 62.3714C16.7236 62.8842 16.1417 63.1336 15.6289 62.9285C15.1161 62.7234 14.8667 62.1414 15.0718 61.6286L19.0718 51.6286C19.2769 51.1158 19.8589 50.8664 20.3717 51.0715Z" fill="#E1000F"/>
<path fill-rule="evenodd" clip-rule="evenodd" d="M32.0002 38C33.6571 38 35.0002 36.6569 35.0002 35C35.0002 33.3431 33.6571 32 32.0002 32C30.3434 32 29.0002 33.3431 29.0002 35C29.0002 36.6569 30.3434 38 32.0002 38ZM32.0002 40C34.7617 40 37.0002 37.7614 37.0002 35C37.0002 32.2386 34.7617 30 32.0002 30C29.2388 30 27.0002 32.2386 27.0002 35C27.0002 37.7614 29.2388 40 32.0002 40Z" fill="#E1000F"/>
<path fill-rule="evenodd" clip-rule="evenodd" d="M19.0002 31C19.0002 30.4477 19.448 30 20.0002 30H24.0002C24.5525 30 25.0002 30.4477 25.0002 31C25.0002 31.5523 24.5525 32 24.0002 32H20.0002C19.448 32 19.0002 31.5523 19.0002 31ZM19.0002 35C19.0002 34.4477 19.448 34 20.0002 34H24.0002C24.5525 34 25.0002 34.4477 25.0002 35C25.0002 35.5523 24.5525 36 24.0002 36H20.0002C19.448 36 19.0002 35.5523 19.0002 35ZM19.0002 39C19.0002 38.4477 19.448 38 20.0002 38H24.0002C24.5525 38 25.0002 38.4477 25.0002 39C25.0002 39.5523 24.5525 40 24.0002 40H20.0002C19.448 40 19.0002 39.5523 19.0002 39Z" fill="#E1000F"/>
<path fill-rule="evenodd" clip-rule="evenodd" d="M48.8947 19.3385C49.2926 17.9539 50.5592 17 51.9998 17C53.4405 17 54.707 17.9539 55.1049 19.3385L60.3855 37.7141L64.4056 50.7044L64.4115 50.7238L65.3529 54H68.9998C69.5521 54 69.9998 54.4477 69.9998 55V60C69.9998 60.5523 69.5521 61 68.9998 61H61.9998C61.4475 61 60.9998 60.5523 60.9998 60C60.9998 59.4477 61.4475 59 61.9998 59H67.9998V56H64.5998C64.1539 56 63.7619 55.7048 63.6387 55.2762L62.492 51.2859L60.2626 44.0818H50.9998C50.4475 44.0818 49.9998 43.6341 49.9998 43.0818C49.9998 42.5295 50.4475 42.0818 50.9998 42.0818H59.6436L58.4719 38.2956L58.4661 38.2762L57.5246 35H46.475L45.5336 38.2762L45.5278 38.2956L42.7425 47.2956C42.5792 47.8232 42.0191 48.1186 41.4916 47.9553C40.964 47.792 40.6686 47.232 40.8319 46.7044L42.0445 42.7861L43.6142 37.7141L48.8947 19.3385ZM47.0498 33H56.9499L54.9383 26H49.0613L47.0498 33ZM49.6361 24H54.3636L53.1827 19.8908C53.0311 19.3634 52.5486 19 51.9998 19C51.451 19 50.9685 19.3634 50.8169 19.8908L49.6361 24Z" fill="#000091"/>
<path fill-rule="evenodd" clip-rule="evenodd" d="M45.3712 51.0715C45.8839 51.2766 46.1334 51.8586 45.9283 52.3714L41.9283 62.3714C41.7231 62.8842 41.1412 63.1336 40.6284 62.9285C40.1156 62.7234 39.8662 62.1414 40.0713 61.6286L44.0713 51.6286C44.2764 51.1158 44.8584 50.8664 45.3712 51.0715ZM55.3712 51.0715C55.8839 51.2766 56.1334 51.8586 55.9283 52.3714L51.9283 62.3714C51.7231 62.8842 51.1412 63.1336 50.6284 62.9285C50.1156 62.7234 49.8662 62.1414 50.0713 61.6286L54.0713 51.6286C54.2764 51.1158 54.8584 50.8664 55.3712 51.0715Z" fill="#000091"/>
<path fill-rule="evenodd" clip-rule="evenodd" d="M30.3712 51.0715C30.884 51.2766 31.1334 51.8586 30.9283 52.3714L26.9283 62.3714C26.7231 62.8842 26.1412 63.1336 25.6284 62.9285C25.1156 62.7234 24.8662 62.1414 25.0713 61.6286L29.0713 51.6286C29.2764 51.1158 29.8584 50.8664 30.3712 51.0715ZM40.3712 51.0715C40.884 51.2766 41.1334 51.8586 40.9283 52.3714L36.9283 62.3714C36.7231 62.8842 36.1412 63.1336 35.6284 62.9285C35.1156 62.7234 34.8662 62.1414 35.0713 61.6286L39.0713 51.6286C39.2764 51.1158 39.8584 50.8664 40.3712 51.0715Z" fill="#000091"/>
<path fill-rule="evenodd" clip-rule="evenodd" d="M25.3712 51.0715C25.884 51.2766 26.1334 51.8586 25.9283 52.3714L21.9283 62.3714C21.7231 62.8842 21.1412 63.1336 20.6284 62.9285C20.1156 62.7234 19.8662 62.1414 20.0713 61.6286L24.0713 51.6286C24.2764 51.1158 24.8584 50.8664 25.3712 51.0715ZM14.3712 53.5715C14.884 53.7766 15.1334 54.3586 14.9283 54.8714L11.9283 62.3714C11.7231 62.8842 11.1412 63.1336 10.6284 62.9285C10.1156 62.7234 9.86619 62.1414 10.0713 61.6286L13.0713 54.1286C13.2764 53.6158 13.8584 53.3664 14.3712 53.5715Z" fill="#000091"/>
<path fill-rule="evenodd" clip-rule="evenodd" d="M14.9998 18C14.9998 17.4477 15.4475 17 15.9998 17H43.9998C44.5521 17 44.9998 17.4477 44.9998 18V20C44.9998 20.5523 44.5521 21 43.9998 21C43.4475 21 42.9998 20.5523 42.9998 20V19H16.9998V25H40.9998C41.5521 25 41.9998 25.4477 41.9998 26C41.9998 26.5523 41.5521 27 40.9998 27H16.9998V48C16.9998 48.5523 16.5521 49 15.9998 49C15.4475 49 14.9998 48.5523 14.9998 48V18Z" fill="#000091"/>
<path d="M20.9998 22C20.9998 22.5523 20.5521 23 19.9998 23C19.4475 23 18.9998 22.5523 18.9998 22C18.9998 21.4477 19.4475 21 19.9998 21C20.5521 21 20.9998 21.4477 20.9998 22Z" fill="#000091"/>
<path d="M24.9998 22C24.9998 22.5523 24.5521 23 23.9998 23C23.4475 23 22.9998 22.5523 22.9998 22C22.9998 21.4477 23.4475 21 23.9998 21C24.5521 21 24.9998 21.4477 24.9998 22Z" fill="#000091"/>
<path d="M28.9998 22C28.9998 22.5523 28.5521 23 27.9998 23C27.4475 23 26.9998 22.5523 26.9998 22C26.9998 21.4477 27.4475 21 27.9998 21C28.5521 21 28.9998 21.4477 28.9998 22Z" fill="#000091"/>
<path d="M47.9998 43C47.9998 43.5523 47.5521 44 46.9998 44C46.4475 44 45.9998 43.5523 45.9998 43C45.9998 42.4477 46.4475 42 46.9998 42C47.5521 42 47.9998 42.4477 47.9998 43Z" fill="#000091"/>
</svg>
