<svg xmlns="http://www.w3.org/2000/svg" viewBox="0 0 503.52 503.52"><g fill="#FFF"><path d="M412.864.032l22.627 22.628-22.627 22.627-22.627-22.627zm-22.642 67.917l-22.627 22.627-22.627-22.627 22.627-22.627z"/><path d="M243.024 396.264l-11.2-33.856L503.52 90.632l-22.624-22.624-272.64 272.64-37.808-7.568-7.568-37.808 182.128-182.128-22.624-22.624L141.12 271.784l-33.856-11.296L345.136 22.632 322.512.008 51.728 270.792 0 503.512 232.736 451.8 503.52 181.016l-22.624-22.624-237.872 237.872zM42.16 461.368l17.024-76.592 59.568 59.584-76.592 17.008zm174.544-38.848l-60.928 13.536-88.368-88.304 13.6-60.928 1.024-1.024 49.632 16.56 11.584 57.92 57.92 11.584 16.56 49.696-1.024.96z"/></g></svg>