<svg xmlns="http://www.w3.org/2000/svg" viewBox="0 0 485.61 485.61"><g fill="#FFF"><path d="M366.781 73.842c-12.021 0-23.321 4.681-31.82 13.18-17.546 17.545-17.546 46.094 0 63.639 8.499 8.5 19.8 13.181 31.82 13.181s23.32-4.681 31.819-13.181c17.546-17.545 17.546-46.094 0-63.639-8.499-8.5-19.799-13.18-31.819-13.18zm10.607 55.606a14.904 14.904 0 0 1-10.606 4.394 14.903 14.903 0 0 1-10.607-4.394c-5.849-5.849-5.849-15.365 0-21.213 2.833-2.833 6.601-4.393 10.607-4.393s7.773 1.56 10.606 4.393c5.848 5.848 5.848 15.365 0 21.213z"/><path d="M472.704 21.533l-2.393-6.223-6.224-2.393C441.801 4.346 418.406 0 394.556 0c-50.711 0-98.243 19.604-133.841 55.202l-44.928 44.927-113.138 14.142-83.364 83.364 70.711 28.285-15.734 15.735 22.835 22.835-35.355 49.497 109.895 109.895 49.497-35.356 22.835 22.835 15.734-15.735 28.284 70.711 83.364-83.364 14.141-113.136 44.928-44.929c52.867-52.868 69.465-132.698 42.284-203.375zM72.67 186.679l43.915-43.916 64.65-8.081-68.159 68.159-40.406-16.162zm102.208 198.019l-73.953-73.954 17.677-24.748 81.025 81.024-24.749 17.678zm167.98-15.66l-43.915 43.915-16.163-40.406 68.159-68.159-8.081 64.65zm66.35-165.344l-165.24 165.24-53.034-53.034 116.673-116.672-21.213-21.213-116.673 116.673-53.033-53.033 165.24-165.24C311.859 46.484 351.858 30 394.556 30c17.909 0 35.516 2.9 52.435 8.63 19.624 58.007 5.143 122.138-37.783 165.064zM42.434 421.966l42.425-42.425 21.213 21.213-42.425 42.425zm63.643 63.648L84.864 464.4l42.426-42.425 21.213 21.213zM.012 379.534l42.425-42.425 21.213 21.213-42.425 42.425z"/></g></svg>