<?xml version="1.0" encoding="UTF-8" standalone="no"?>
<svg
   xmlns:dc="http://purl.org/dc/elements/1.1/"
   xmlns:cc="http://creativecommons.org/ns#"
   xmlns:rdf="http://www.w3.org/1999/02/22-rdf-syntax-ns#"
   xmlns:svg="http://www.w3.org/2000/svg"
   xmlns="http://www.w3.org/2000/svg"
   height="60"
   width="395"
   version="1.1">
  <metadata>
    <rdf:RDF>
      <cc:Work>
        <dc:format>image/svg+xml</dc:format>
        <dc:type
           rdf:resource="http://purl.org/dc/dcmitype/StillImage" />
        <dc:title>Logo beta.gouv.fr</dc:title>
      </cc:Work>
    </rdf:RDF>
  </metadata>
  <g
     style="font-size:47px;fill:#373c42"
     transform="scale(1.04,0.96)">
    <path
       style="font-weight:bold;font-family:'Century Gothic Std'"
       d="m 101.28867,47.368 c 2.256,2.162 4.559,3.29 7.708,3.29 6.345,0 11.938,-5.452 11.938,-13.113 0,-7.802 -5.358,-13.16 -11.797,-13.16 -3.008,0 -5.593,1.128 -7.849,3.384 l 0,-12.361 -6.250998,0 0,34.592 6.250998,0 0,-2.632 z m 6.58,-17.249 c 4.136,0 6.768,3.29 6.768,7.379 0,4.277 -2.867,7.426 -6.768,7.426 -3.854,0 -6.862,-2.961 -6.862,-7.473 0,-4.371 2.867,-7.332 6.862,-7.332 z" />
    <path
       style="font-weight:bold;font-family:'Century Gothic Std'"
       d="m 144.20702,42.668 c -1.739,1.692 -3.525,2.444 -6.204,2.444 -3.572,0 -6.392,-2.068 -7.003,-5.781 l 20.116,0 c 0,-0.564 0.047,-0.846 0.047,-1.41 0,-7.896 -5.358,-13.536 -13.254,-13.536 -8.037,0 -12.972,6.298 -12.972,13.113 0,7.332 5.123,13.16 13.066,13.16 5.264,0 8.789,-1.692 11.468,-5.499 l -5.264,-2.491 z m -12.925,-8.272 c 1.222,-3.149 3.619,-4.7 6.721,-4.7 3.337,0 6.016,1.786 6.862,4.7 l -13.583,0 z" />
    <path
       style="font-weight:bold;font-family:'Century Gothic Std'"
       d="m 156.83459,25.043 -3.196,0 0,5.358 3.196,0 0,19.599 6.251,0 0,-19.599 3.713,0 0,-5.358 -3.713,0 0,-9.212 -6.251,0 0,9.212 z" />
    <path
       style="font-weight:bold;font-family:'Century Gothic Std'"
       d="m 188.69031,50 6.251,0 0,-24.957 -6.251,0 0,2.726 c -2.256,-2.256 -4.841,-3.384 -7.849,-3.384 -6.486,0 -11.75,5.358 -11.75,13.16 0,7.661 5.546,13.113 11.891,13.113 3.149,0 5.499,-1.128 7.708,-3.29 l 0,2.632 z m -6.58,-19.881 c 3.948,0 6.862,2.961 6.862,7.332 0,4.559 -3.008,7.473 -6.862,7.473 -3.901,0 -6.721,-3.149 -6.721,-7.426 0,-4.089 2.585,-7.379 6.721,-7.379 z" />
    <path
       style="font-weight:bold;font-family:'Century Gothic Std'"
       d="m 204.67766,43.467 c -1.974,0 -3.619,1.551 -3.619,3.572 0,1.974 1.645,3.619 3.619,3.619 2.021,0 3.572,-1.645 3.572,-3.619 0,-1.974 -1.598,-3.572 -3.572,-3.572 z" />
    <path
       style="font-weight:bold;font-family:'Century Gothic Std'"
       d="m 239.09561,25.043 -6.251,0 0,2.726 c -2.35,-2.209 -4.794,-3.384 -7.896,-3.384 -6.345,0 -11.656,5.076 -11.656,12.784 0,7.473 5.264,12.831 11.985,12.831 3.243,0 5.499,-1.081 7.567,-3.102 0,2.35 -0.047,4.042 -1.551,5.452 -1.128,1.034 -3.008,1.645 -5.311,1.645 -2.632,0 -4.512,-0.658 -5.781,-2.162 l -6.909,0 c 1.692,5.217 6.063,7.896 12.925,7.896 3.807,0 6.815,-0.893 9.071,-2.773 2.867,-2.444 3.807,-5.687 3.807,-10.528 l 0,-21.385 z m -12.737,5.076 c 4.136,0 6.815,3.102 6.815,7.144 0,4.23 -2.867,7.003 -6.721,7.003 -3.901,0 -6.862,-2.914 -6.862,-7.05 0,-3.854 2.632,-7.097 6.768,-7.097 z" />
    <path
       style="font-weight:bold;font-family:'Century Gothic Std'"
       d="m 257.15095,24.385 c -6.815,0 -12.925,5.593 -12.925,13.16 0,7.332 5.734,13.113 12.972,13.113 7.614,0 13.207,-5.922 13.207,-13.16 0,-7.379 -5.969,-13.113 -13.254,-13.113 z m 0.094,5.922 c 4.089,0 6.862,3.008 6.862,7.238 0,4.371 -3.008,7.191 -6.862,7.191 -4.042,0 -6.721,-3.008 -6.721,-7.238 0,-4.136 2.82,-7.191 6.721,-7.191 z" />
    <path
       style="font-weight:bold;font-family:'Century Gothic Std'"
       d="m 275.46553,36.464 c 0,2.068 -0.094,3.243 0.235,5.264 0.987,5.828 4.7,8.883 10.716,8.883 3.478,0 6.063,-0.94 8.037,-3.149 2.632,-2.914 2.914,-6.298 2.914,-10.904 l 0,-11.515 -6.251,0 0,13.301 c 0,4.23 -1.363,6.533 -4.7,6.533 -3.29,0 -4.7,-2.35 -4.7,-6.815 l 0,-13.019 -6.251,0 0,11.421 z" />
    <path
       style="font-weight:bold;font-family:'Century Gothic Std'"
       d="m 311.68197,50 4.042,0 10.622,-24.957 -6.345,0 -6.298,14.711 -6.298,-14.711 -6.392,0 10.669,24.957 z" />
    <path
       style="font-style:italic;font-weight:normal;font-size:56.25px;font-family:'Times New Roman'"
       d="m 331.55786,45.083618 q 1.18103,0 1.97754,0.823975 0.82397,0.796509 0.82397,1.950073 0,1.153564 -0.82397,1.977539 -0.82397,0.796509 -1.97754,0.796509 -1.15356,0 -1.97754,-0.796509 -0.79651,-0.823975 -0.79651,-1.977539 0,-1.153564 0.79651,-1.950073 0.82398,-0.823975 1.97754,-0.823975 z" />
    <path
       style="font-style:italic;font-weight:normal;font-size:56.25px;font-family:'Times New Roman'"
       d="m 357.62292,25.802612 -0.49438,1.812744 -4.01001,0 -3.02124,12.002564 q -2.005,7.937622 -4.03748,12.277222 -2.88391,6.124878 -6.20727,8.459472 -2.52686,1.785279 -5.05371,1.785279 -1.64795,0 -2.80152,-0.98877 -0.85144,-0.686645 -0.85144,-1.785278 0,-0.878907 0.71412,-1.538086 0.68664,-0.631714 1.70288,-0.631714 0.74157,0 1.26342,0.466919 0.49439,0.466919 0.49439,1.071167 0,0.604248 -0.57678,1.126098 -0.43946,0.384522 -0.43946,0.576783 0,0.247192 0.19226,0.384521 0.2472,0.192261 0.76905,0.192261 1.18103,0 2.49939,-0.741577 1.29089,-0.741577 2.30713,-2.224732 1.01623,-1.455688 1.9226,-4.229736 0.38452,-1.153564 2.05994,-7.608032 l 4.77905,-18.594361 -4.77905,0 0.38452,-1.812744 q 2.27966,0 3.18604,-0.302124 0.90637,-0.32959 1.64795,-1.208496 0.76904,-0.906372 1.97753,-3.35083 1.62049,-3.295898 3.10364,-5.108642 2.03247,-2.444458 4.2572,-3.652955 2.2522,-1.235961 4.22974,-1.235961 2.0874,0 3.35083,1.071167 1.26343,1.043701 1.26343,2.279663 0,0.961303 -0.63172,1.620483 -0.63171,0.65918 -1.62048,0.65918 -0.85144,0 -1.40076,-0.494385 -0.52185,-0.494385 -0.52185,-1.18103 0,-0.439453 0.35706,-1.071167 0.35706,-0.65918 0.35706,-0.878907 0,-0.384521 -0.2472,-0.576782 -0.35705,-0.274658 -1.0437,-0.274658 -1.73035,0 -3.10364,1.098633 -1.84021,1.455688 -3.29589,4.559326 -0.74158,1.620483 -2.71912,8.047485 l 4.03747,0 z" />
    <path
       style="font-style:italic;font-weight:normal;font-size:56.25px;font-family:'Times New Roman'"
       d="m 359.4906,26.681519 9.47571,-1.538086 -3.95508,13.348388 q 4.80652,-8.21228 8.73413,-11.480713 2.22473,-1.867675 3.62549,-1.867675 0.90637,0 1.42822,0.549316 0.52185,0.521851 0.52185,1.538086 0,1.812744 -0.93384,3.460693 -0.65917,1.235962 -1.89514,1.235962 -0.63171,0 -1.09863,-0.411987 -0.43945,-0.411987 -0.54932,-1.263428 -0.0549,-0.52185 -0.24719,-0.686645 -0.21972,-0.219727 -0.52185,-0.219727 -0.46692,0 -0.87891,0.219727 -0.71411,0.384521 -2.16979,2.142334 -2.27967,2.69165 -4.94385,6.976318 -1.15357,1.812744 -1.97754,4.092407 -1.15357,3.131104 -1.31836,3.762818 L 361.90759,50 l -4.20227,0 5.08118,-17.056274 q 0.87891,-2.966309 0.87891,-4.229737 0,-0.494385 -0.41199,-0.823974 -0.54932,-0.439453 -1.45569,-0.439453 -0.57678,0 -2.11487,0.247192 l -0.19226,-1.016235 z" />
  </g>
</svg>
