<svg xmlns="http://www.w3.org/2000/svg" viewBox="99 0 395 60" role="img" aria-labelledby="logo--alt"><g fill="#373c42"><title id="logo--alt">beta.gouv.fr</title><path d="M105.34 45.473c2.346 2.076 4.742 3.16 8.017 3.16 6.598 0 12.415-5.235 12.415-12.59 0-7.49-5.572-12.633-12.27-12.633-3.127 0-5.816 1.082-8.162 3.248V14.792h-6.5V48h6.5v-2.527zm6.843-16.56c4.302 0 7.04 3.16 7.04 7.085 0 4.106-2.983 7.13-7.04 7.13-4.008 0-7.136-2.844-7.136-7.175 0-4.196 2.982-7.04 7.136-7.04zm37.792 12.047c-1.808 1.626-3.666 2.348-6.452 2.348-3.715 0-6.648-1.986-7.283-5.55h20.92c0-.542.05-.812.05-1.354 0-7.58-5.573-12.994-13.785-12.994-8.358 0-13.49 6.046-13.49 12.588 0 7.04 5.327 12.634 13.588 12.634 5.475 0 9.14-1.625 11.927-5.28l-5.475-2.39zm-13.442-7.94c1.27-3.023 3.764-4.512 6.99-4.512 3.47 0 6.257 1.715 7.137 4.512h-14.127zm26.575-8.98h-3.324v5.145h3.324V48h6.5V29.185h3.863V24.04h-3.86V15.2h-6.5v8.843zM196.238 48h6.5V24.04h-6.5v2.618c-2.346-2.166-5.035-3.248-8.163-3.248-6.745 0-12.22 5.143-12.22 12.633 0 7.355 5.768 12.59 12.367 12.59 3.275 0 5.72-1.084 8.016-3.16V48zm-6.843-19.086c4.106 0 7.136 2.843 7.136 7.04 0 4.376-3.12 7.173-7.13 7.173-4.05 0-6.99-3.023-6.99-7.13 0-3.924 2.69-7.083 6.99-7.083zm23.47 12.814c-2.053 0-3.764 1.49-3.764 3.43 0 1.894 1.72 3.474 3.77 3.474 2.1 0 3.72-1.58 3.72-3.475s-1.66-3.43-3.71-3.43zM248.66 24.04h-6.502v2.618c-2.444-2.12-4.985-3.248-8.21-3.248-6.6 0-12.124 4.873-12.124 12.272C221.824 42.856 227.3 48 234.29 48c3.37 0 5.718-1.038 7.868-2.978 0 2.256-.048 3.88-1.613 5.234-1.173.993-3.128 1.58-5.523 1.58-2.737 0-4.693-.632-6.012-2.076h-7.186c1.76 5.008 6.306 7.58 13.442 7.58 3.96 0 7.088-.857 9.434-2.662 2.982-2.346 3.96-5.46 3.96-10.107V24.04zm-13.247 4.874c4.3 0 7.088 2.978 7.088 6.858 0 4.06-2.98 6.723-6.99 6.723-4.05 0-7.13-2.797-7.13-6.768 0-3.7 2.74-6.813 7.04-6.813zm32.024-5.504c-7.088 0-13.442 5.37-13.442 12.633 0 7.04 5.963 12.59 13.49 12.59 7.92 0 13.736-5.686 13.736-12.635 0-7.084-6.2-12.588-13.78-12.588zm.098 5.685c4.252 0 7.136 2.887 7.136 6.948 0 4.196-3.12 6.904-7.13 6.904-4.2 0-6.99-2.888-6.99-6.95 0-3.97 2.94-6.902 6.99-6.902zm18.95 5.91c0 1.986-.1 3.114.244 5.054 1.02 5.59 4.88 8.52 11.14 8.52 3.61 0 6.3-.91 8.36-3.03 2.73-2.8 3.03-6.05 3.03-10.47V24.04h-6.5v12.77c0 4.06-1.42 6.272-4.89 6.272-3.42 0-4.89-2.256-4.89-6.542v-12.5h-6.5v10.965zM324.15 48h4.203L339.4 24.04h-6.6l-6.55 14.124-6.55-14.123h-6.647L324.15 48z"/><path d="M344.82 43.28q1.228 0 2.057.79.857.766.857 1.873 0 1.108-.857 1.9-.857.763-2.057.763t-2.056-.764q-.83-.79-.83-1.9 0-1.106.83-1.87.856-.792 2.056-.792zm27.108-18.51l-.514 1.74h-4.17L364.1 38.034q-2.084 7.62-4.198 11.786-3 5.88-6.455 8.12-2.628 1.714-5.256 1.714-1.71 0-2.91-.95-.88-.658-.88-1.713 0-.84.74-1.47.72-.6 1.77-.6.78 0 1.32.45.52.45.52 1.03 0 .58-.6 1.08-.46.37-.46.56 0 .24.2.37.26.19.8.19 1.23 0 2.6-.71 1.34-.71 2.4-2.13 1.06-1.4 2-4.06.4-1.11 2.14-7.3l4.97-17.85h-4.97l.4-1.74q2.37 0 3.32-.29.95-.31 1.72-1.16.8-.87 2.06-3.21 1.69-3.16 3.23-4.9 2.12-2.35 4.43-3.51 2.34-1.18 4.4-1.18 2.17 0 3.49 1.025 1.32 1 1.32 2.19 0 .92-.66 1.555-.65.632-1.68.632-.88 0-1.46-.47-.54-.474-.54-1.133 0-.42.37-1.03.38-.63.38-.84 0-.37-.26-.556-.37-.265-1.083-.265-1.8 0-3.223 1.056-1.91 1.4-3.422 4.38-.77 1.56-2.827 7.73h4.19z"/><path d="M373.87 25.614l9.855-1.476-4.113 12.814q4.998-7.884 9.083-11.02 2.314-1.794 3.77-1.794.943 0 1.486.527.55.5.55 1.477 0 1.74-.97 3.322-.68 1.186-1.97 1.186-.65 0-1.14-.395-.45-.396-.57-1.213-.06-.5-.26-.66-.22-.21-.54-.21-.48 0-.91.21-.74.37-2.25 2.057-2.37 2.58-5.14 6.69-1.2 1.74-2.06 3.93-1.2 3-1.37 3.61l-.92 3.32h-4.37l5.28-16.37q.92-2.85.92-4.06 0-.48-.43-.79-.57-.42-1.51-.42-.6 0-2.2.23l-.2-.98z"/></g></svg>
