<?xml version="1.0" encoding="UTF-8" standalone="no"?>
<!-- Created with Inkscape (http://www.inkscape.org/) -->

<svg
   xmlns:dc="http://purl.org/dc/elements/1.1/"
   xmlns:cc="http://creativecommons.org/ns#"
   xmlns:rdf="http://www.w3.org/1999/02/22-rdf-syntax-ns#"
   xmlns:svg="http://www.w3.org/2000/svg"
   xmlns="http://www.w3.org/2000/svg"
   xmlns:sodipodi="http://sodipodi.sourceforge.net/DTD/sodipodi-0.dtd"
   xmlns:inkscape="http://www.inkscape.org/namespaces/inkscape"
   version="1.1"
   width="1578.2737"
   height="250"
   id="svg2"
   inkscape:version="0.91 r13725"
   sodipodi:docname="logo-beta-source.svg">
  <metadata
     id="metadata11">
    <rdf:RDF>
      <cc:Work
         rdf:about="">
        <dc:format>image/svg+xml</dc:format>
        <dc:type
           rdf:resource="http://purl.org/dc/dcmitype/StillImage" />
        <dc:title></dc:title>
      </cc:Work>
    </rdf:RDF>
  </metadata>
  <sodipodi:namedview
     pagecolor="#ffffff"
     bordercolor="#666666"
     borderopacity="1"
     objecttolerance="10"
     gridtolerance="10"
     guidetolerance="10"
     inkscape:pageopacity="0"
     inkscape:pageshadow="2"
     inkscape:window-width="1232"
     inkscape:window-height="755"
     id="namedview9"
     showgrid="false"
     fit-margin-top="0"
     fit-margin-left="0"
     fit-margin-right="0"
     fit-margin-bottom="0"
     inkscape:zoom="0.35355339"
     inkscape:cx="1479.5044"
     inkscape:cy="305.9224"
     inkscape:window-x="50"
     inkscape:window-y="5"
     inkscape:window-maximized="0"
     inkscape:current-layer="svg2" />
  <defs
     id="defs4" />
  <rect
     width="456.30801"
     height="143.48785"
     x="0"
     y="0"
     id="rect6"
     style="fill:#ffffff;stroke:none" />
  <path
     d="m 364.38433,249.84021 c -0.25177,-0.0955 -0.26738,-0.3511 -0.0558,-0.91545 0.26797,-0.7149 0.39151,-0.77073 1.4215,-0.64224 0.93415,0.11653 1.20907,0.0331 1.59936,-0.48511 0.75054,-0.99659 0.17128,-1.71553 -1.19073,-1.47789 -1.04461,0.18227 -1.06093,0.17136 -0.85969,-0.57436 0.6391,-2.36833 0.6998,-2.23787 -1.20459,-2.58909 -2.26703,-0.41809 -4.43615,-1.59918 -6.10227,-3.32267 -2.50171,-2.5879 -3.36932,-5.20583 -3.11998,-9.41427 0.12701,-2.14386 0.32336,-2.97971 1.05019,-4.47058 2.22431,-4.56247 7.30493,-6.889 14.13377,-6.47217 1.47852,0.0903 3.35576,0.32439 4.17166,0.52032 l 1.48344,0.35623 0.0853,2.55242 0.0853,2.55243 -0.90123,0 c -0.53151,0 -0.90119,-0.14399 -0.90119,-0.35104 0,-0.71681 -1.81681,-2.37572 -3.10168,-2.83209 -1.65834,-0.58904 -4.87576,-0.45475 -6.48743,0.27077 -3.68376,1.65827 -5.36328,5.96302 -4.24328,10.87571 0.52036,2.28251 1.38011,3.81364 3.02374,5.38506 1.55794,1.4895 3.12956,2.09073 5.48432,2.09807 2.49047,0.008 4.23403,-0.92295 5.33065,-2.84548 0.74505,-1.30624 1.01082,-1.46649 1.72955,-1.04288 0.33449,0.19714 0.33757,0.6513 0.0187,2.74679 l -0.38208,2.51061 -1.35379,0.43509 c -0.74457,0.2393 -2.45525,0.50985 -3.80148,0.60122 -2.3212,0.15754 -2.44768,0.19966 -2.44768,0.81498 0,0.49126 0.16413,0.64887 0.67571,0.64887 0.99088,0 1.92041,0.7137 2.13987,1.64303 0.25497,1.07979 -0.57125,2.67724 -1.6541,3.19804 -0.78323,0.3767 -3.83534,0.5256 -4.62604,0.22568 z m -176.51863,-1.1613 c -2.56843,-0.70425 -4.78353,-1.76661 -7.44784,-3.57199 l -2.30174,-1.55971 -3.56027,-0.16984 c -3.94763,-0.18832 -5.32697,-0.59816 -7.88063,-2.34162 -5.62543,-3.84062 -5.82967,-13.61395 -0.38392,-18.37086 4.09964,-3.58106 11.31186,-4.32097 16.50324,-1.69309 7.0085,3.54771 7.75256,14.01352 1.38604,19.49555 -0.98796,0.8507 -1.95557,1.54721 -2.15024,1.5478 -0.60639,0.002 6.36597,3.54914 8.40467,4.276 2.2524,0.80306 4.88406,0.91037 6.81185,0.27778 1.40238,-0.46018 1.64208,-0.40504 1.87741,0.43193 0.13745,0.48887 -0.10246,0.69478 -1.52181,1.30612 -2.23736,0.96367 -6.92552,1.14274 -9.73676,0.37193 z m -8.6999,-8.52775 c 4.96798,-2.41378 5.91378,-10.14367 1.84515,-15.08003 -3.7706,-4.57476 -10.37928,-3.88222 -12.8633,1.34799 -2.24435,4.72557 0.3163,12.03131 4.89475,13.96515 1.85305,0.78269 4.21801,0.69266 6.1234,-0.23311 z m -155.921457,2.8597 c -1.362688,-0.55315 -2.85772,-2.27387 -5.220274,-6.00832 -3.629625,-5.73729 -4.30988,-6.57787 -5.323248,-6.57787 l -0.879013,0 0.006,3.1043 c 0.01089,5.66585 0.623406,7.60478 2.544027,8.05311 0.51378,0.11993 0.713588,0.35826 0.713588,0.85116 l 0,0.68459 -6.082129,0 -6.082129,0 0,-0.64993 c 0,-0.49223 0.226644,-0.71039 0.934049,-0.89907 0.513723,-0.13704 1.214651,-0.59877 1.557618,-1.02608 0.608602,-0.75828 0.62357,-1.03429 0.62357,-11.49803 0,-10.46383 -0.01496,-10.73974 -0.62357,-11.49777 -0.342967,-0.42717 -1.043895,-0.88879 -1.557618,-1.02582 -0.682555,-0.18206 -0.934049,-0.41222 -0.934049,-0.85483 0,-0.60299 0.03353,-0.60649 7.535669,-0.78603 7.984773,-0.19109 9.744324,-0.0497 11.994928,0.96355 1.966133,0.88522 3.604935,3.56745 3.60951,5.9077 0.0052,2.67924 -2.137097,5.7052 -4.963988,7.01144 l -1.47977,0.68377 3.270589,4.55906 c 3.847689,5.3635 5.05605,6.79629 6.192901,7.34306 1.061278,0.51042 1.16323,1.62377 0.171329,1.87099 -1.193334,0.29744 -5.094711,0.16173 -6.007956,-0.20898 z m -7.423918,-15.37741 c 3.97735,-1.02697 5.319724,-6.16733 2.309699,-8.84453 -1.414941,-1.25849 -2.917497,-1.7153 -4.835204,-1.46999 l -1.473112,0.18843 0,5.21693 0,5.21694 1.409273,-0.002 c 0.775101,-8.3e-4 1.940306,-0.13865 2.589344,-0.30624 z m 68.358625,15.37936 c -1.62606,-0.54043 -3.15925,-1.50281 -3.97091,-2.49252 -1.47507,-1.79865 -1.62997,-2.74435 -1.648,-10.06133 -0.0188,-7.64778 -0.17355,-8.48805 -1.6828,-9.14025 -0.6063,-0.26201 -0.96012,-0.61644 -0.96408,-0.96578 -0.006,-0.53047 0.18944,-0.55188 5.03739,-0.55188 5.0327,0 5.04366,0.001 5.04356,0.62086 -6e-5,0.41711 -0.17786,0.62086 -0.54176,0.62086 -0.29791,0 -0.86533,0.32038 -1.26093,0.71196 l -0.71927,0.71196 0,7.4972 c 0,7.05573 0.0363,7.56155 0.61636,8.59001 0.90467,1.60398 2.7093,2.42903 5.03013,2.29969 2.49698,-0.13914 3.84766,-0.96276 4.84465,-2.95415 0.76502,-1.52806 0.7721,-1.60375 0.77755,-8.31467 0.005,-6.00926 -0.0534,-6.85623 -0.51745,-7.51493 -0.28763,-0.4083 -0.85505,-0.81989 -1.26093,-0.91463 -0.46081,-0.10757 -0.73797,-0.36831 -0.73797,-0.69423 0,-0.48621 0.2743,-0.52196 4.0053,-0.52196 3.731,0 4.00531,0.0358 4.00531,0.52196 0,0.32501 -0.27666,0.58654 -0.73317,0.6931 -1.36623,0.31893 -1.47531,0.91046 -1.63703,8.87736 l -0.15166,7.471 -0.89315,1.6231 c -1.05417,1.91572 -2.76152,3.24024 -4.95923,3.84724 -1.85386,0.51203 -6.1937,0.53465 -7.68191,0.04 z m 115.7088,0 c -1.64413,-0.54644 -3.16193,-1.50607 -4.00174,-2.53011 -1.39852,-1.7053 -1.59903,-2.96638 -1.61718,-10.17087 -0.0189,-7.49062 -0.17837,-8.343 -1.68279,-8.99312 -0.60631,-0.26201 -0.96012,-0.61644 -0.96409,-0.96578 -0.006,-0.53047 0.18945,-0.55188 5.0374,-0.55188 4.98503,0 5.04366,0.007 5.04356,0.60167 -7e-5,0.40429 -0.20933,0.63059 -0.63788,0.68984 -0.35079,0.0485 -0.9182,0.43848 -1.26093,0.86663 -0.58397,0.72951 -0.6293,1.18413 -0.72108,7.23117 -0.11275,7.42926 0.11025,8.99605 1.46366,10.28353 2.44844,2.32917 7.53748,1.67856 8.97964,-1.14801 0.90829,-1.7802 1.14143,-4.01041 1.02971,-9.85035 -0.11828,-6.18341 -0.31677,-6.9543 -1.88478,-7.32032 -0.4608,-0.10757 -0.73797,-0.36831 -0.73797,-0.69423 0,-0.48621 0.27431,-0.52196 4.00531,-0.52196 3.72129,0 4.0053,0.0368 4.0053,0.5184 0,0.31301 -0.34419,0.65099 -0.86874,0.85308 -0.47782,0.18407 -0.97094,0.54061 -1.09583,0.7923 -0.12488,0.2517 -0.30137,3.81976 -0.39218,7.92904 l -0.16511,7.4714 -0.89315,1.6227 c -1.05419,1.9153 -2.76188,3.23994 -4.95923,3.84684 -1.85385,0.51203 -6.19369,0.53465 -7.6819,0.04 z m 93.91111,-0.0116 c -1.18592,-0.48021 -2.59647,-2.11542 -4.77901,-5.54013 -2.81858,-4.42278 -3.13879,-4.82175 -3.87319,-4.82551 -0.65696,-0.003 -0.66755,0.0515 -0.66755,3.45468 0,4.12596 0.37039,5.28906 1.76699,5.54884 0.70224,0.13063 0.90322,0.31383 0.90322,0.82336 l 0,0.65536 -5.04372,0 -5.04372,0 0,-0.65536 c 0,-0.50953 0.20095,-0.69273 0.90321,-0.82336 1.69027,-0.31441 1.80996,-1.06164 1.70849,-10.6668 l -0.0898,-8.50625 -0.71926,-0.71165 c -0.39561,-0.3914 -0.96303,-0.71164 -1.26093,-0.71164 -0.33583,0 -0.54167,-0.20077 -0.54167,-0.52833 0,-0.45523 0.30111,-0.55458 2.17622,-0.718 1.1969,-0.10432 4.50128,-0.14223 7.34306,-0.0843 4.62007,0.0942 5.29762,0.16957 6.40279,0.71176 1.96328,0.96318 3.06604,2.84134 3.06604,5.22186 0,2.26129 -1.39393,4.24739 -3.92437,5.59149 -0.80779,0.42909 -1.32964,0.86012 -1.15964,0.95784 0.17001,0.0977 1.48105,1.81923 2.91343,3.82557 2.81191,3.93867 4.37484,5.71745 5.02367,5.71745 0.5719,0 0.52128,1.2811 -0.0588,1.48813 -0.84194,0.3005 -4.10728,0.15486 -5.04541,-0.22504 z m -5.48341,-12.98055 c 1.17931,-0.56719 2.33735,-1.9313 2.55482,-3.00942 0.27925,-1.38432 -0.37587,-3.21042 -1.50798,-4.20345 -1.04838,-0.9196 -2.06107,-1.18327 -3.8137,-0.99297 l -1.06948,0.11613 0,4.24685 0,4.24685 1.49816,0 c 0.824,0 1.87618,-0.1818 2.33818,-0.40399 z m 132.06323,12.9328 c -0.88876,-0.22218 -1.6692,-0.45351 -1.7343,-0.51407 -0.0651,-0.0606 -0.28212,-1.29859 -0.48223,-2.75117 l -0.36383,-2.64105 0.83719,0 c 0.46047,0 0.8372,0.10288 0.8372,0.22863 0,0.71793 1.94694,2.83255 3.07593,3.34086 3.05148,1.37388 6.71627,0.0805 6.71372,-2.36949 -0.003,-1.60775 -0.84115,-2.5687 -3.69978,-4.23532 -4.01109,-2.33852 -5.55995,-3.57334 -6.35992,-5.07038 -0.79755,-1.49253 -0.94005,-3.81525 -0.3381,-5.51162 0.39732,-1.11969 2.26124,-2.79171 3.83032,-3.43597 1.57966,-0.6486 6.5236,-0.62768 8.57123,0.0363 l 1.55762,0.50507 0,2.46127 0,2.46126 -0.85791,0 c -0.66598,0 -0.89924,-0.1532 -1.04268,-0.68478 -0.31102,-1.15243 -1.90149,-2.59146 -3.23267,-2.92484 -3.56119,-0.89186 -6.4135,2.50616 -4.17789,4.9772 0.42697,0.47193 2.36254,1.85796 4.30131,3.08008 3.7554,2.36726 5.14278,3.65631 5.60767,5.21018 1.02295,3.41925 -0.67613,6.4393 -4.34006,7.71426 -1.96601,0.68414 -6.219,0.74454 -8.70282,0.1236 z M 31.699985,242.37391 c 0,-0.48913 0.166114,-0.63577 0.72019,-0.63577 0.424654,0 0.972523,-0.29836 1.335101,-0.72706 0.592468,-0.70052 0.614912,-1.04365 0.614912,-9.40004 0,-6.06447 -0.103808,-8.85426 -0.34515,-9.2757 -0.442008,-0.77186 -1.146446,-1.27265 -1.805846,-1.28379 -0.353512,-0.006 -0.519207,-0.22893 -0.519207,-0.69862 l 0,-0.68985 8.900677,0 8.900677,0 0,2.91568 0,2.91568 -0.778937,-0.0873 c -0.586688,-0.0658 -0.861283,-0.3193 -1.112585,-1.02726 -0.584899,-1.64774 -1.561534,-2.06753 -5.093005,-2.18911 l -3.102907,-0.10683 0,3.92989 0,3.92988 2.386384,-0.12848 c 2.600838,-0.14003 3.910569,-0.72731 4.087242,-1.83269 0.06994,-0.43761 0.303379,-0.59308 0.890067,-0.5928 l 0.795261,2.8e-4 0,3.58685 0,3.58685 -0.815895,-4e-5 c -0.658105,-3e-5 -0.815896,-0.12518 -0.815896,-0.64711 0,-1.23221 -0.989304,-1.68894 -3.887679,-1.79484 l -2.639484,-0.0964 0,3.87494 c 0,4.67046 0.04612,4.73405 3.433668,4.73405 3.340815,0 5.082369,-0.78691 5.954262,-2.69039 0.440657,-0.96203 1.467908,-1.23681 1.781586,-0.47656 0.206991,0.50169 -0.629124,3.74112 -1.257129,4.87061 l -0.444449,0.79936 -8.590927,-0.0639 -8.590931,-0.0639 0,-0.63577 z m 22.845075,0.0886 c 0,-0.50473 0.20085,-0.69271 0.87393,-0.81791 1.56538,-0.29118 1.63972,-0.69976 1.74014,-9.56426 0.10456,-9.22971 -0.0224,-10.06109 -1.64341,-10.76159 -0.67608,-0.29216 -0.95971,-0.60425 -0.96424,-1.06098 l -0.006,-0.64707 6.74967,0.11441 c 7.29797,0.12371 7.89333,0.231 9.87132,1.77896 2.17385,1.70124 2.73739,5.08483 1.26572,7.59964 -1.28358,2.19341 -3.50276,3.35817 -7.0405,3.69527 l -1.85317,0.17658 -0.46043,-1.06847 -0.46044,-1.06847 1.09632,-0.14915 c 1.39285,-0.18949 2.90539,-1.00987 3.70647,-2.01034 0.45561,-0.56901 0.61887,-1.16573 0.60397,-2.20751 -0.0384,-2.6868 -1.66242,-4.33003 -4.49527,-4.54852 l -1.60319,-0.12365 0.0926,9.21053 c 0.10094,10.04497 0.14865,10.32724 1.79852,10.64168 0.61411,0.11704 0.81589,0.31758 0.81589,0.81085 l 0,0.65536 -5.04371,0 -5.04372,0 0,-0.65536 z m 49.25041,-0.10083 c 0,-0.42736 0.17632,-0.6235 0.56051,-0.6235 0.30828,0 0.87569,-0.23723 1.26093,-0.52717 l 0.70042,-0.52716 0.0898,-8.55277 c 0.10058,-9.57429 -0.0133,-10.29707 -1.71645,-10.89497 -0.53421,-0.18755 -0.89525,-0.51245 -0.89525,-0.80567 0,-0.44672 0.41123,-0.49765 4.52451,-0.56037 8.65821,-0.13201 10.47026,-0.0416 11.87844,0.59236 1.82531,0.82182 2.67819,2.01166 2.82865,3.94623 0.0676,0.86951 0.0405,1.88631 -0.0602,2.25956 -0.2923,1.08314 -1.67519,2.40582 -3.20416,3.06465 l -1.41329,0.609 1.1971,0.33357 c 2.86038,0.79706 4.68408,3.57888 4.30626,6.56869 -0.31889,2.5235 -1.48325,3.94265 -4.18446,5.10011 -1.41867,0.6079 -1.79761,0.63577 -8.67816,0.6383 l -7.19471,0.003 0,-0.6235 z m 13.08462,-2.07768 c 1.51212,-0.93951 2.11237,-2.21892 1.94393,-4.14337 -0.25342,-2.89525 -2.42768,-4.61217 -5.84074,-4.61217 l -1.81333,0 0.0955,4.16408 c 0.0916,3.99143 0.12459,4.18593 0.79597,4.69095 1.02462,0.77074 3.50029,0.71962 4.81863,-0.0995 z m -1.22521,-11.466 c 1.82149,-0.6492 2.7801,-1.97553 2.59057,-3.58431 -0.25466,-2.16172 -2.12759,-3.36306 -5.24309,-3.36306 l -1.78966,0 0,3.72516 0,3.72517 1.55762,-0.015 c 0.85669,-0.008 2.15474,-0.22784 2.88456,-0.48795 z m 12.17251,13.55936 c -7e-5,-0.44597 0.20428,-0.62521 0.78646,-0.68984 0.44219,-0.0491 1.05919,-0.4284 1.40927,-0.86638 0.60077,-0.75159 0.62272,-1.07752 0.62272,-9.24393 0,-6.78429 -0.0832,-8.60182 -0.41932,-9.15471 -0.52399,-0.86203 -1.20623,-1.35952 -1.88002,-1.37091 -0.33785,-0.006 -0.51921,-0.22565 -0.51921,-0.62964 0,-0.62086 0,-0.62086 5.34041,-0.62086 5.34041,0 5.34041,0 5.34041,0.62086 0,0.43097 -0.17643,0.62086 -0.57684,0.62086 -0.31726,0 -0.95143,0.29954 -1.40927,0.66564 l -0.83244,0.66564 -0.0861,8.70263 -0.0861,8.70263 0.75925,0.46269 c 0.60101,0.36625 1.24352,0.43661 3.08277,0.33759 2.82324,-0.15201 4.14539,-0.80182 4.93187,-2.42394 0.52328,-1.07926 1.07698,-1.34137 1.85863,-0.87983 0.29342,0.17326 0.24559,0.6831 -0.22446,2.39243 -0.32854,1.19474 -0.80372,2.46519 -1.05595,2.82322 l -0.45861,0.65098 -8.2917,-0.0813 -8.29169,-0.0813 -9e-5,-0.60254 z m 20.76815,0.0851 c 0,-0.50954 0.20096,-0.69273 0.9032,-0.82336 1.63821,-0.30472 1.76714,-1.05737 1.76589,-10.30878 -8.9e-4,-7.68288 -0.0391,-8.27594 -0.58417,-9.10742 -0.32069,-0.48916 -0.92099,-0.96827 -1.33399,-1.06468 -0.51102,-0.11928 -0.75093,-0.36409 -0.75093,-0.76623 0,-0.5808 0.0866,-0.59095 5.04372,-0.59095 4.95708,0 5.04371,0.0101 5.04371,0.59095 0,0.39941 -0.23919,0.64678 -0.73797,0.76321 -0.40588,0.0947 -0.9733,0.50618 -1.26093,0.91432 -0.47066,0.66784 -0.52296,1.58498 -0.52296,9.17056 0,9.36888 0.12089,10.12042 1.67439,10.40939 0.64671,0.12029 0.84747,0.31289 0.84747,0.81299 l 0,0.65536 -5.04371,0 -5.04372,0 0,-0.65536 z m 70.90872,-0.0499 c 0,-0.45392 0.22605,-0.64749 0.90321,-0.77345 1.63873,-0.30482 1.767,-1.05518 1.767,-10.33696 0,-8.13078 -0.01,-8.25932 -0.67775,-9.1838 -0.37276,-0.51569 -0.97355,-0.97729 -1.3351,-1.02579 -0.47236,-0.0634 -0.65736,-0.27691 -0.65736,-0.75883 l 0,-0.67065 8.75234,0 8.75233,0 0,2.89735 c 0,2.87055 -0.007,2.89735 -0.70871,2.89735 -0.57343,0 -0.74544,-0.18216 -0.90121,-0.95437 -0.33084,-1.64019 -1.54273,-2.19094 -5.08972,-2.31306 l -3.00168,-0.10334 -0.19306,1.30999 c -0.10618,0.7205 -0.19306,2.4898 -0.19306,3.93179 l 0,2.62179 2.52404,-0.14645 c 2.77891,-0.16125 3.87877,-0.61615 4.17892,-1.72843 0.13273,-0.49183 0.38632,-0.68635 0.89478,-0.68635 l 0.70956,0 0,3.5872 0,3.58719 -0.74172,0 c -0.50502,0 -0.74474,-0.1541 -0.75116,-0.48289 -0.0267,-1.36581 -1.43856,-2.00055 -4.44985,-2.00055 l -2.42147,0 0.10262,3.88564 c 0.12432,4.70702 0.0941,4.66844 3.65674,4.66844 3.14438,0 4.77962,-0.70058 5.63558,-2.41446 0.43111,-0.8632 0.7593,-1.17273 1.24341,-1.17273 0.36175,0 0.74797,0.13581 0.85828,0.3018 0.27039,0.4069 -1.04566,4.89235 -1.58172,5.39093 -0.3538,0.32904 -1.86032,0.38646 -8.8508,0.3373 l -8.42444,-0.0592 0,-0.60543 z m 32.63582,0.0652 c 0,-0.45241 0.27646,-0.75577 0.94306,-1.03477 0.51868,-0.2171 1.21961,-0.74536 1.55762,-1.17392 0.59592,-0.75557 0.61455,-1.0945 0.61455,-11.1755 0,-11.69464 -0.0234,-11.83554 -2.07166,-12.46425 -0.81166,-0.24913 -1.04357,-0.46887 -1.04357,-0.98876 l 0,-0.66845 10.38413,0 10.38412,0 0,3.44923 0,3.44923 -0.89007,0 c -0.72493,0 -0.89027,-0.11521 -0.89119,-0.62087 -0.002,-1.01545 -1.11902,-2.41589 -2.30471,-2.88901 -0.70164,-0.27997 -2.32655,-0.48839 -4.44384,-0.57 l -3.33776,-0.12864 0,4.72567 0,4.72567 2.44769,-0.0156 c 3.26239,-0.0208 4.37898,-0.39728 5.06813,-1.70904 0.44332,-0.84376 0.70345,-1.03477 1.40928,-1.03477 l 0.86565,0 0,4.15656 0,4.15655 -0.95258,-0.0865 c -0.65426,-0.0594 -1.00269,-0.25931 -1.11259,-0.63835 -0.47058,-1.62304 -2.28625,-2.34547 -5.89486,-2.34547 l -1.89688,0 0.12087,4.8979 c 0.13793,5.58958 0.39074,6.40647 2.16761,7.00405 0.77944,0.26214 1.04127,0.50971 1.04127,0.98461 l 0,0.63441 -6.08213,0 -6.08214,0 0,-0.64005 z m 47.47029,-0.0498 c 0,-0.50424 0.15852,-0.68984 0.58916,-0.68984 0.90912,0 1.94741,-1.71967 4.20409,-6.96297 3.0219,-7.02128 5.88756,-14.16057 5.88756,-14.6678 0,-0.34686 0.30903,-0.44305 1.40927,-0.43866 l 1.40928,0.006 4.00174,9.53951 c 4.34558,10.35912 5.14658,11.96929 6.15986,12.38276 0.40931,0.16702 0.66755,0.51393 0.66755,0.8968 0,0.6241 -0.003,0.62441 -5.04372,0.62441 l -5.04371,0 0,-0.65535 c 0,-0.50612 0.20089,-0.69272 0.88214,-0.81945 1.27509,-0.23718 1.35199,-1.03982 0.36093,-3.76802 l -0.85201,-2.34548 -3.50579,0 -3.5058,0 -0.70473,1.93157 c -0.88793,2.4337 -0.83648,4.09951 0.13054,4.22725 0.48316,0.0638 0.66756,0.27342 0.66756,0.75883 l 0,0.67065 -3.85696,0 -3.85696,0 0,-0.68984 z m 13.6477,-9.66227 c 0,-0.41983 -2.17948,-5.92824 -2.34557,-5.92824 -0.10817,0 -0.41061,0.52773 -0.67212,1.17274 -0.26153,0.64501 -0.81838,2.0109 -1.23746,3.03532 l -0.76198,1.86258 2.50856,0 c 1.37973,0 2.50857,-0.0641 2.50857,-0.1424 z m 12.75764,9.69676 c 0,-0.49327 0.20177,-0.69381 0.81589,-0.81085 1.605,-0.30589 1.67707,-0.69456 1.80177,-9.71816 0.12864,-9.3091 0.003,-10.09181 -1.7224,-10.69739 -0.53422,-0.18755 -0.89526,-0.51245 -0.89526,-0.80567 0,-0.44213 0.33454,-0.49132 3.33775,-0.49079 l 3.33775,5.5e-4 1.92848,2.27001 c 1.06067,1.2485 3.79763,4.32402 6.08213,6.83449 2.28451,2.51046 4.45981,4.93447 4.83402,5.38669 l 0.68037,0.8222 -0.0961,-6.23372 c -0.10476,-6.79252 -0.27064,-7.49324 -1.86172,-7.86466 -0.46082,-0.10756 -0.73799,-0.3683 -0.73799,-0.69422 0,-0.48622 0.27432,-0.52196 4.0053,-0.52196 3.75941,0 4.00531,0.0327 4.00531,0.53268 0,0.33374 -0.23818,0.56562 -0.63779,0.62086 -0.35078,0.0485 -0.9182,0.43854 -1.26093,0.86676 -0.60252,0.75282 -0.62614,1.11589 -0.71404,10.96854 l -0.0909,10.18996 -1.29345,0 c -1.17002,0 -1.38702,-0.11189 -2.27433,-1.17273 -0.78438,-0.93779 -13.35353,-15.41669 -13.83358,-15.93543 -0.0702,-0.0759 -0.0693,2.96633 0.003,6.76048 0.14458,7.69372 0.3252,8.61413 1.74231,8.87773 0.65529,0.1219 0.85609,0.31296 0.85609,0.8146 l 0,0.65535 -4.0053,0 -4.0053,0 0,-0.65535 z m 51.92061,-0.0345 c 0,-0.40992 0.16988,-0.68984 0.41866,-0.68984 0.58635,0 1.68602,-1.29482 2.4713,-2.90984 1.09205,-2.24596 6.16956,-14.4355 7.04079,-16.90273 l 0.80881,-2.29049 1.32626,0.083 1.32626,0.083 3.93617,9.3819 c 2.16491,5.16004 4.17392,9.8165 4.46452,10.34768 0.66331,1.21252 1.62898,2.20751 2.14243,2.20751 0.22174,0 0.39332,0.30092 0.39332,0.68984 l 0,0.68985 -5.04372,0 -5.04372,0 0,-0.68985 c 0,-0.48034 0.1622,-0.68984 0.53404,-0.68984 1.43586,0 1.56893,-1.16612 0.48002,-4.20712 l -0.76608,-2.13946 -3.4818,0 -3.4818,0 -0.63141,1.86258 c -1.19263,3.51809 -1.13602,4.484 0.26281,4.484 0.3964,0 0.55706,0.19895 0.55706,0.68984 l 0,0.68985 -3.85696,0 -3.85696,0 0,-0.68985 z m 12.58855,-12.34823 c -0.56092,-1.5556 -1.09932,-3.01463 -1.19645,-3.24228 -0.10548,-0.24724 -0.69871,0.80832 -1.47324,2.62142 -0.71316,1.66942 -1.30075,3.12845 -1.30576,3.24227 -0.005,0.11382 1.11688,0.20695 2.49311,0.20695 l 2.50224,0 -1.0199,-2.82836 z m 13.5201,12.34823 c 0,-0.53972 0.1514,-0.68984 0.69574,-0.68984 0.38267,0 0.95009,-0.2612 1.26093,-0.58044 0.52612,-0.54029 0.57121,-1.1748 0.65236,-9.17494 0.0479,-4.72698 0.0131,-8.87047 -0.0778,-9.20774 -0.21143,-0.78624 -1.30027,-1.73225 -1.99382,-1.73225 -0.35949,0 -0.53745,-0.20553 -0.53751,-0.62086 -1.2e-4,-0.61951 0.011,-0.62086 5.04354,-0.62086 4.85075,0 5.04369,0.0212 5.04384,0.5535 9e-5,0.34519 -0.32301,0.68654 -0.85847,0.90698 -0.47221,0.19441 -0.99634,0.69036 -1.16472,1.10212 -0.43233,1.05742 -0.67829,9.66792 -0.40898,14.31961 0.18783,3.24451 0.32146,4.01066 0.78204,4.484 0.3055,0.31398 0.8018,0.57088 1.10288,0.57088 0.38609,0 0.5474,0.20327 0.5474,0.68984 l 0,0.68985 -5.04372,0 -5.04372,0 0,-0.68985 z m 33.22919,-0.0496 c 0,-0.49388 0.16467,-0.64025 0.72019,-0.64025 0.42465,0 0.97252,-0.29836 1.3351,-0.72706 0.59246,-0.70052 0.61492,-1.04365 0.61492,-9.40004 0,-6.06447 -0.10381,-8.85426 -0.34514,-9.2757 -0.44201,-0.77186 -1.14647,-1.27265 -1.80586,-1.28379 -0.3535,-0.006 -0.51921,-0.22893 -0.51921,-0.69862 l 0,-0.68985 8.90068,0 8.90068,0 0,2.91568 0,2.91568 -0.77893,-0.0873 c -0.5867,-0.0658 -0.86129,-0.3193 -1.11258,-1.02726 -0.5849,-1.64774 -1.56154,-2.06753 -5.09303,-2.18911 l -3.1029,-0.10683 0,3.89443 0,3.89443 1.85431,-0.0156 c 2.57405,-0.0216 3.82937,-0.47058 4.37617,-1.5651 0.32591,-0.65237 0.64358,-0.89232 1.18676,-0.89641 l 0.74172,-0.006 0,3.58685 0,3.58685 -0.8159,-3e-5 c -0.65811,-3e-5 -0.81589,-0.12518 -0.81589,-0.64712 0,-1.2322 -0.98931,-1.68894 -3.88767,-1.79484 l -2.6395,-0.0964 0,3.87495 c 0,4.67046 0.0461,4.73405 3.43368,4.73405 3.34081,0 5.08237,-0.78691 5.95425,-2.6904 0.44068,-0.96203 1.4679,-1.23681 1.78159,-0.47655 0.207,0.50168 -0.62913,3.74112 -1.25713,4.87061 l -0.44447,0.79937 -8.5909,-0.0594 -8.59094,-0.0594 0,-0.64026 z m -397.546966,-25.17748 -0.72512,-0.51833 1.763533,-2.50653 c 0.969945,-1.37858 1.952864,-2.50847 2.184267,-2.51085 1.003225,-0.0103 4.197553,0.628 4.117551,0.82281 -0.159319,0.38796 -6.01508,5.24029 -6.318418,5.23571 -0.163179,-0.002 -0.622994,-0.23773 -1.021813,-0.52281 z M 2.031063,198.1399 l 451.857697,0 0,2.48345 -451.857697,0 0,-2.48345 z m 171.972127,-5.64702 c -2.37339,-0.78692 -3.70816,-2.84445 -3.27582,-5.04967 0.29135,-1.4861 1.19584,-2.526 2.7973,-3.21607 l 1.40138,-0.60386 -0.85266,-0.45512 c -0.4846,-0.25867 -0.85265,-0.68961 -0.85265,-0.99834 0,-0.4993 2.17547,-2.51778 2.7136,-2.51778 0.12831,0 -0.0579,-0.45905 -0.41386,-1.02012 -1.51935,-2.395 -0.30385,-5.85767 2.53281,-7.21537 1.53574,-0.73504 2.05421,-0.76614 7.43144,-0.44578 3.09341,0.1843 3.20854,0.2138 3.04512,0.78023 -0.0934,0.32377 -0.17168,0.68181 -0.17391,0.79563 -0.002,0.11383 -0.52543,0.20696 -1.16267,0.20696 l -1.15862,0 0.15641,1.60423 c 0.34124,3.50005 -2.33511,5.89719 -6.65579,5.96144 -2.24438,0.0334 -3.33069,0.47608 -2.45509,1.00052 0.24341,0.14579 1.69235,0.64124 3.21988,1.10102 4.91193,1.47846 5.81966,2.22245 5.61018,4.59824 -0.21756,2.46752 -2.35162,4.61891 -5.4389,5.48306 -1.76797,0.49486 -4.96153,0.49031 -6.46815,-0.009 z m 6.60594,-1.70365 c 2.4086,-1.11631 3.45203,-3.24348 2.13484,-4.35215 -0.88741,-0.74692 -4.74151,-1.89359 -5.74022,-1.70782 -2.03325,0.37821 -3.93264,2.68383 -3.58208,4.34819 0.48179,2.2874 4.09088,3.14694 7.18746,1.71178 z m 0.79432,-12.48533 c 1.80834,-1.0256 2.50678,-3.93623 1.28982,-5.37513 -1.66469,-1.96829 -4.83302,0.22551 -4.86258,3.36692 -0.009,0.97614 0.14212,1.31934 0.82118,1.86258 1.00091,0.80074 1.54565,0.82957 2.75158,0.14563 z m 11.25044,6.40306 c -1.30337,-0.24765 -2.00164,-1.05679 -2.14983,-2.49118 -0.37944,-3.67268 2.94288,-9.05544 6.66097,-10.79198 1.93263,-0.90265 5.7448,-0.99371 8.28452,-0.19791 0.22785,0.0714 0.0594,1.01472 -0.52779,2.95481 -1.14837,3.79452 -1.80596,7.59252 -1.42823,8.24894 0.24777,0.43058 0.42354,0.46043 1.20997,0.20545 0.72589,-0.23535 0.97497,-0.21763 1.1801,0.0839 0.42707,0.62787 0.16752,0.8667 -1.52773,1.40578 -2.27921,0.72476 -3.32256,0.58348 -3.66514,-0.49629 l -0.27045,-0.85246 -1.21481,0.63148 c -2.05067,1.06598 -4.85402,1.62199 -6.55158,1.29943 z m 5.12887,-2.48088 c 0.86272,-0.38118 1.76251,-0.9683 1.99951,-1.30472 0.39623,-0.56242 1.60477,-4.70183 2.07661,-7.11261 0.19335,-0.98789 0.16961,-1.0218 -0.90899,-1.29879 -1.99269,-0.51172 -3.99678,0.83981 -5.59326,3.77203 -1.67478,3.07603 -2.09707,5.81624 -1.00588,6.52708 0.74083,0.4826 1.19472,0.4055 3.43201,-0.58299 z m 140.47322,2.3998 c -1.3314,-0.29396 -1.80112,-0.7237 -2.16506,-1.98078 -0.55188,-1.90612 0.7251,-5.51176 2.89672,-8.17908 2.60048,-3.19408 5.49083,-4.27214 9.75864,-3.63982 1.12366,0.16647 2.1313,0.38885 2.23927,0.49417 0.10793,0.10533 -0.26699,1.86782 -0.83317,3.91666 -0.5662,2.04884 -1.05505,4.53229 -1.08635,5.51877 l -0.0569,1.79359 1.26093,-0.0522 c 1.13134,-0.0469 1.26093,0.0124 1.26093,0.57717 0,0.52684 -0.27898,0.70798 -1.71184,1.11147 -2.35794,0.664 -3.45216,0.52205 -3.57409,-0.46366 -0.0517,-0.41736 -0.14796,-0.75883 -0.21407,-0.75883 -0.0661,0 -0.84197,0.29689 -1.72418,0.65975 -1.4193,0.58378 -4.31187,1.32082 -4.8805,1.24357 -0.11435,-0.0155 -0.641,-0.12387 -1.17032,-0.24074 z m 4.9677,-2.36207 c 0.73431,-0.3413 1.5516,-0.85127 1.81618,-1.13327 0.65649,-0.69964 1.83491,-4.30107 2.44484,-7.47182 0.16259,-0.84529 0.11352,-0.90284 -1.00999,-1.18421 -0.96136,-0.24076 -1.37388,-0.21057 -2.21891,0.16238 -1.88344,0.83124 -3.75243,3.65116 -4.72166,7.12394 -0.92828,3.32611 0.22917,4.11133 3.68954,2.50298 z m -321.760529,1.73426 c -0.08839,-0.34147 0.440498,-2.90825 1.175308,-5.70394 1.448772,-5.51207 1.436533,-5.95995 -0.151297,-5.53642 -0.78531,0.20947 -0.87461,0.16929 -0.87461,-0.3936 0,-0.52551 0.275894,-0.70181 1.705963,-1.09011 0.93828,-0.25477 2.173249,-0.49174 2.744375,-0.52658 0.977535,-0.0597 1.043999,-0.009 1.133691,0.86221 0.05241,0.50907 -0.459346,3.03131 -1.137218,5.60498 -0.677873,2.57367 -1.153119,4.87179 -1.056098,5.10693 0.1405,0.34053 0.452163,0.38907 1.531557,0.23853 1.291283,-0.1801 1.350559,-0.1592 1.257511,0.44336 -0.07698,0.49851 -0.443055,0.73284 -1.729443,1.10707 -0.897485,0.26109 -2.263418,0.4823 -3.035409,0.49157 -1.217601,0.0146 -1.424922,-0.0654 -1.56433,-0.604 z m 11.406259,0.11142 -0.676449,-0.50944 2.298484,-9.39152 c 1.264163,-5.16533 2.254702,-9.74775 2.201197,-10.18316 -0.09976,-0.81179 -0.207234,-0.85364 -1.358214,-0.5289 -0.569266,0.16062 -0.66755,0.0859 -0.66755,-0.50712 0,-0.80369 1.042008,-1.19195 3.931132,-1.46478 1.655158,-0.1563 1.705963,-0.14118 1.705963,0.50759 0,0.36778 -0.467286,2.63808 -1.038412,5.04513 -0.571127,2.40704 -1.038413,4.53775 -1.038413,4.73491 0,0.26769 0.326181,0.22429 1.287922,-0.17138 3.304166,-1.35936 6.184425,-1.28748 7.218369,0.18015 0.968094,1.37416 0.466846,4.93035 -1.105829,7.84549 -0.818316,1.51684 -3.253159,3.87755 -4.575589,4.43628 -1.73718,0.73395 -7.211022,0.73847 -8.182611,0.007 z m 7.50759,-1.74974 c 1.487535,-0.97908 3.145814,-4.28789 3.613509,-7.21012 0.468549,-2.92759 -1.61196,-3.51161 -4.935052,-1.38531 -0.701901,0.44912 -1.265092,1.1178 -1.555746,1.84716 -0.537921,1.34984 -1.646076,5.75505 -1.646076,6.54358 0,1.16111 2.872755,1.2911 4.523365,0.20469 z m 11.330843,1.413 c -0.803642,-0.78038 -0.86999,-1.00032 -0.853242,-2.82837 0.04267,-4.65793 2.889819,-8.82675 6.811929,-9.97413 1.95685,-0.57245 3.67824,-0.37842 4.8321,0.54467 0.66546,0.53237 0.79876,0.86509 0.79876,1.99376 0,2.84086 -2.78554,4.99572 -6.79431,5.256 -1.1585,0.0752 -2.20446,0.27461 -2.32434,0.44308 -0.334,0.46936 -0.26758,2.06461 0.11404,2.73891 0.74033,1.30814 1.80241,1.33881 4.34627,0.1255 1.58491,-0.75593 1.911,-0.82931 2.14645,-0.483 0.52435,0.77123 0.28151,1.01344 -2.0258,2.02046 -1.92137,0.83858 -2.63964,1.0093 -4.24648,1.0093 -1.77095,0 -2.00743,-0.0713 -2.805377,-0.84618 z m 5.312907,-6.62585 c 2.52406,-0.65185 4.1891,-3.16156 2.89562,-4.36457 -0.81565,-0.7586 -1.5699,-0.7337 -2.61784,0.0864 -0.83465,0.65319 -2.19086,2.7229 -2.59154,3.95495 -0.16895,0.51949 -0.0897,0.62061 0.48562,0.61932 0.37815,-8.3e-4 1.20082,-0.13409 1.82814,-0.2961 z m 9.98525,7.37802 c 0,-0.0459 0.53323,-2.18549 1.18495,-4.75465 0.65172,-2.56917 1.18576,-5.21481 1.18675,-5.87921 l 0.002,-1.20801 -1.18675,0.1765 c -1.05196,0.15645 -1.18676,0.11386 -1.18676,-0.37494 0,-0.60516 0.95927,-1.06859 3.36739,-1.62681 1.6475,-0.3819 2.26971,-0.11997 2.26971,0.95548 l 0,0.64774 1.053,-0.66461 c 1.85215,-1.16899 2.98356,-1.38325 4.32767,-0.81953 0.6438,0.27001 1.12965,0.62501 1.07966,0.78889 -0.80558,2.64096 -1.26384,3.47126 -1.91583,3.47126 -0.58323,0 -0.68755,-0.14141 -0.68755,-0.932 0,-2.00748 -1.87769,-2.02181 -3.23945,-0.0247 -0.84849,1.24436 -1.72572,4.07418 -2.42221,7.8137 -0.20774,1.11543 -0.52085,2.06722 -0.69578,2.11508 -0.52203,0.14284 -3.13661,0.4061 -3.13661,0.31584 z m 14.88262,-0.26593 c -0.32749,-0.367 -0.14761,-1.3587 1.54879,-8.53907 l 0.70081,-2.96633 -1.00053,0 c -0.5503,0 -1.00054,-0.0702 -1.00054,-0.15611 0,-0.4315 0.66424,-1.22358 1.02609,-1.22358 0.72333,0 2.11233,-1.30658 2.69507,-2.53513 0.65143,-1.37339 0.91043,-1.59391 1.87885,-1.59972 0.63738,-0.004 0.68619,0.0814 0.51132,0.89257 -0.10633,0.49324 -0.27359,1.36245 -0.3717,1.93157 l -0.17837,1.03477 1.37302,0 c 1.4024,0 1.60888,0.21102 1.19293,1.21915 -0.12949,0.31386 -0.57888,0.43648 -1.59962,0.43648 -1.64928,0 -1.37855,-0.5517 -2.69455,5.49095 -0.96673,4.43893 -0.90149,4.84794 0.70498,4.41944 1.34061,-0.35759 1.44855,-0.32797 1.34223,0.36831 -0.0719,0.47095 -0.45298,0.73211 -1.57825,1.08163 -1.81645,0.5642 -4.11124,0.63736 -4.55053,0.14507 z m 11.96753,-0.35621 c -2.17132,-2.17902 -0.60006,-8.37592 2.85667,-11.26645 1.41041,-1.17938 3.61263,-2.09025 5.05367,-2.09025 0.91222,0 2.92209,0.86938 3.22439,1.39474 0.47819,0.83102 0.32923,2.81608 -0.2812,3.74714 -1.25094,1.90802 -3.94742,3.13627 -6.8853,3.13627 l -1.74283,0 0,1.45626 c 0,2.82689 1.26314,3.32298 4.58353,1.80014 1.05851,-0.48547 1.98292,-0.82694 2.05424,-0.75883 0.0713,0.0681 0.17574,0.37219 0.23205,0.67572 0.0822,0.44293 -0.33027,0.75615 -2.08916,1.58664 -1.90463,0.8993 -2.45998,1.03477 -4.24199,1.03477 -1.82613,0 -2.12852,-0.0784 -2.76407,-0.71615 z m 5.22219,-6.77639 c 1.56772,-0.49455 2.66716,-1.32987 3.14224,-2.38737 0.39967,-0.88963 0.38855,-1.02571 -0.1375,-1.6836 -0.81542,-1.01977 -1.61605,-1.02616 -2.84488,-0.0227 -0.94803,0.77417 -2.56328,3.36961 -2.56328,4.11879 0,0.38493 1.14139,0.373 2.40342,-0.0251 z m 111.42635,7.30858 c -0.41895,-0.38965 -0.14726,-2.01787 1.27592,-7.6465 1.93609,-7.65714 2.97663,-12.16529 2.97663,-12.89632 0,-0.52323 -0.12167,-0.57431 -1.03842,-0.43594 -0.94497,0.14262 -1.03841,0.0972 -1.03841,-0.50514 0,-0.69034 0.74019,-0.99592 3.68832,-1.52269 1.52257,-0.27205 1.94878,-0.0926 1.94878,0.8207 0,0.41245 -1.00045,4.77624 -2.22322,9.6973 -1.22277,4.92106 -2.22409,9.36782 -2.22517,9.88169 l -0.002,0.93431 1.35535,-0.17278 c 1.27432,-0.16245 1.34971,-0.13634 1.26093,0.4367 -0.073,0.47124 -0.46456,0.71717 -1.72622,1.0842 -1.66669,0.48487 -3.8971,0.65505 -4.25254,0.32447 z m 11.18415,-0.15307 c -0.36403,-0.54781 -0.15582,-1.74277 1.10764,-6.35691 0.658,-2.40299 1.14644,-4.58064 1.08544,-4.83922 -0.11708,-0.49634 -0.19123,-0.50754 -1.48494,-0.22433 -0.68915,0.15086 -0.81589,0.0899 -0.81589,-0.39261 0,-0.65781 1.26634,-1.2422 3.57363,-1.64917 1.64823,-0.29071 2.36015,-0.14187 2.36015,0.49343 0,0.23761 -0.60449,2.77614 -1.34332,5.64118 -0.73883,2.86504 -1.25527,5.34168 -1.14764,5.50365 0.1198,0.18029 0.7061,0.22942 1.51192,0.12669 1.23255,-0.15712 1.31024,-0.12904 1.22181,0.44169 -0.073,0.47124 -0.46456,0.71717 -1.72621,1.0842 -1.93079,0.5617 -4.02822,0.64448 -4.34259,0.1714 z m 10.95796,-0.12311 c -0.10442,-0.25308 -0.0249,-1.15333 0.17671,-2.00056 0.66185,-2.78126 2.10859,-9.14628 2.10859,-9.27683 0,-0.0703 -0.41032,-0.12781 -0.91182,-0.12781 -1.28795,0 -1.04769,-0.77127 0.46705,-1.49928 0.90175,-0.4334 1.42183,-0.98415 2.1671,-2.29487 0.84857,-1.49241 1.0933,-1.72462 1.81753,-1.72462 l 0.83693,0 -0.39784,1.72462 c -0.21881,0.94854 -0.40252,1.81774 -0.40825,1.93157 -0.006,0.11382 0.65712,0.20695 1.47302,0.20695 1.54995,0 1.58626,0.029 1.29645,1.03477 -0.1563,0.54243 -0.37284,0.62086 -1.7142,0.62086 l -1.5353,0 -0.99782,4.6567 c -0.54881,2.56119 -0.91744,4.85157 -0.81917,5.08974 0.14441,0.35 0.36617,0.38303 1.1565,0.17222 1.35972,-0.36269 1.42678,-0.34423 1.42678,0.39266 0,0.56082 -0.24465,0.71733 -1.72542,1.10375 -2.29877,0.59989 -4.16698,0.59571 -4.41684,-0.01 z m 12.21806,-0.16477 c -0.73849,-0.5908 -0.86658,-0.91492 -0.9724,-2.46058 -0.23777,-3.47303 1.47168,-7.39394 4.00933,-9.19606 2.80229,-1.99006 5.86298,-2.25426 7.58295,-0.65459 0.79788,0.74208 0.86831,0.95142 0.73951,2.19808 -0.28237,2.73319 -3.09878,4.71844 -6.95256,4.90078 -2.41013,0.11402 -2.66369,0.38331 -2.19093,2.32689 0.51463,2.11577 1.44971,2.33292 4.41937,1.02631 1.96707,-0.86549 2.42008,-0.86496 2.42008,0.003 0,0.88189 -3.5608,2.29868 -6.10506,2.42911 -1.89361,0.0971 -2.18327,0.0408 -2.95029,-0.57277 z m 6.37998,-7.37485 c 1.85012,-0.87784 2.6441,-2.83055 1.59098,-3.91284 -1.3254,-1.36211 -3.77902,0.42184 -4.99734,3.6334 l -0.44767,1.18011 1.33717,-0.17047 c 0.73544,-0.0937 1.86804,-0.42234 2.51686,-0.7302 z m 70.91391,7.89803 c 0,-0.0417 0.53324,-2.17777 1.18494,-4.74693 0.65171,-2.56917 1.18575,-5.21481 1.18676,-5.87921 l 0.003,-1.20801 -1.18676,0.1765 c -1.04829,0.15591 -1.18676,0.11286 -1.18676,-0.36893 0,-0.67004 0.52212,-0.94144 2.92557,-1.52067 2.08833,-0.50329 2.71153,-0.30947 2.71153,0.84333 l 0,0.64774 1.05301,-0.66461 c 1.84668,-1.16555 2.98434,-1.38292 4.31564,-0.82458 0.63717,0.26724 1.15854,0.56016 1.15857,0.65093 3e-5,0.0908 -0.29918,0.94112 -0.66491,1.88966 -0.54905,1.42403 -0.78175,1.72461 -1.33516,1.72461 -0.5635,0 -0.67019,-0.14835 -0.67019,-0.932 0,-1.88612 -1.74353,-2.02683 -3.04531,-0.24577 -0.9899,1.35431 -1.49644,2.82416 -2.30788,6.69654 -0.3657,1.7453 -0.74609,3.25041 -0.84527,3.34467 -0.17805,0.1692 -3.2956,0.56341 -3.2956,0.41673 z m 34.21921,-0.32993 c -0.2434,-0.58999 0.0376,-2.28956 1.18347,-7.15664 l 0.97444,-4.13907 -0.83224,-0.0865 c -0.99557,-0.10344 -1.16371,-1.02022 -0.23726,-1.2937 1.04295,-0.30787 2.24748,-1.44562 2.82949,-2.67262 0.65141,-1.37339 0.91042,-1.59391 1.87885,-1.59972 0.63737,-0.004 0.68618,0.0814 0.51131,0.89257 -0.10633,0.49324 -0.27358,1.36245 -0.37169,1.93157 l -0.17837,1.03477 1.37302,0 c 1.40239,0 1.60888,0.21102 1.19292,1.21915 -0.1295,0.31386 -0.57887,0.43648 -1.59963,0.43648 -1.64926,0 -1.37853,-0.5517 -2.69453,5.49095 -0.96673,4.43893 -0.90149,4.84794 0.70497,4.41944 1.34062,-0.35759 1.44855,-0.32797 1.34225,0.36831 -0.0719,0.47095 -0.45299,0.73211 -1.57827,1.08163 -1.97512,0.61348 -4.26049,0.65075 -4.49873,0.0734 z m 11.97067,-0.28256 c -2.24908,-2.09177 -0.69428,-8.34499 2.80173,-11.26838 1.41043,-1.17938 3.61263,-2.09025 5.05368,-2.09025 0.9122,0 2.92206,0.86938 3.22439,1.39474 0.47817,0.83102 0.32924,2.81608 -0.2812,3.74714 -1.25678,1.91693 -3.94757,3.13627 -6.92096,3.13627 l -1.7785,0 0.13164,1.69271 c 0.20907,2.68814 1.27101,3.05526 4.5232,1.56369 1.05853,-0.48547 1.98292,-0.82694 2.05425,-0.75883 0.0713,0.0681 0.17573,0.37219 0.23204,0.67572 0.0822,0.44293 -0.33025,0.75615 -2.08914,1.58664 -1.88745,0.89119 -2.46848,1.03477 -4.18738,1.03477 -1.75145,0 -2.08985,-0.0874 -2.76375,-0.71422 z m 6.21973,-7.19137 c 2.07526,-0.95924 3.00508,-3.18347 1.71146,-4.09388 -0.85922,-0.60467 -1.48229,-0.5028 -2.62318,0.42887 -0.9546,0.77951 -2.54417,3.36586 -2.54417,4.13951 0,0.45671 2.05033,0.1752 3.45589,-0.4745 z m 9.00506,7.66832 c 0,-0.1162 0.54181,-2.35395 1.20402,-4.97279 0.66224,-2.61884 1.1629,-5.15658 1.11258,-5.63942 -0.0857,-0.82283 -0.15926,-0.87429 -1.17269,-0.82054 -0.84779,0.045 -1.11347,-0.0573 -1.23055,-0.47363 -0.12146,-0.432 0.13544,-0.62871 1.37795,-1.05512 0.83998,-0.28827 2.02799,-0.60851 2.64003,-0.71165 1.15041,-0.19385 1.13095,-0.2087 1.8508,1.41127 0.0136,0.0308 0.80652,-0.31065 1.76186,-0.75883 2.04437,-0.95907 2.38713,-0.98557 3.63011,-0.28067 l 0.93834,0.53214 -0.64165,1.80565 c -0.53537,1.50658 -0.75222,1.80675 -1.3092,1.8123 -0.55887,0.006 -0.66755,-0.1416 -0.66755,-0.90393 0,-2.40442 -2.46047,-1.92885 -3.80723,0.73587 -0.33838,0.66949 -1.00863,2.97769 -1.48947,5.12932 -0.48085,2.15163 -0.92105,3.94851 -0.97819,3.99305 -0.26111,0.20348 -3.21916,0.38448 -3.21916,0.19698 z m 14.83446,10e-4 c 0,-0.12416 0.47633,-1.95332 1.05852,-4.06481 0.63581,-2.3059 1.08013,-4.61047 1.11259,-5.77065 l 0.0541,-1.93156 -1.07583,0.0767 c -0.84562,0.0603 -1.10712,-0.0347 -1.22218,-0.44386 -0.1196,-0.42538 0.13125,-0.59916 1.37251,-0.95075 2.69732,-0.76403 3.33271,-0.81881 3.85569,-0.3324 0.26494,0.24642 0.48173,0.7496 0.48173,1.11818 0,0.36857 0.0548,0.67014 0.1217,0.67014 0.0669,0 0.94799,-0.36345 1.95792,-0.80765 2.39131,-1.05181 5.56081,-1.60354 6.50684,-1.13265 0.61735,0.30729 0.66149,0.46603 0.48111,1.73063 -0.10922,0.76576 -0.58929,2.89566 -1.06684,4.7331 -0.47755,1.83744 -0.90434,3.77541 -0.9484,4.30659 -0.0801,0.96566 -0.08,0.96578 1.16804,0.94284 0.85307,-0.0157 1.30226,0.10812 1.41901,0.39106 0.23521,0.57005 -0.0451,0.75579 -1.90514,1.26246 -2.11002,0.57477 -4.05259,0.57929 -4.28748,0.01 -0.0973,-0.23593 0.35567,-2.64123 1.00667,-5.3451 1.30531,-5.42133 1.38025,-6.03844 0.76026,-6.25972 -0.63996,-0.2284 -2.90996,0.80703 -4.26449,1.94518 -1.11496,0.93683 -1.25764,1.228 -1.94225,3.96321 -0.4064,1.62366 -0.83325,3.55179 -0.94857,4.28475 -0.11532,0.73296 -0.3598,1.37432 -0.5433,1.42524 -0.89983,0.2497 -3.15217,0.37768 -3.15217,0.17911 z m 20.3489,-0.21487 c -0.10239,-0.24814 0.42723,-2.80434 1.17697,-5.68046 0.7497,-2.87612 1.29347,-5.39808 1.20835,-5.60437 -0.11855,-0.28732 -0.3835,-0.31405 -1.13258,-0.11424 -0.53781,0.14345 -1.01209,0.26082 -1.05396,0.26082 -0.0419,0 -0.0761,-0.28775 -0.0761,-0.63945 0,-0.53181 0.26219,-0.7132 1.55762,-1.07756 3.51526,-0.98874 4.60115,-0.82101 4.2461,0.65585 -0.0856,0.35599 -0.69701,2.74987 -1.35875,5.31974 -0.66176,2.56987 -1.1289,4.85255 -1.03808,5.07263 0.12609,0.30562 0.4839,0.35951 1.51459,0.22812 1.26808,-0.16165 1.3438,-0.13525 1.25509,0.43745 -0.18276,1.17959 -5.85911,2.20819 -6.29922,1.14147 z m 11.19355,0.004 c -0.19789,-0.47965 0.0425,-1.7971 1.20201,-6.58885 1.28202,-5.29788 1.2636,-4.82892 0.18985,-4.82892 -1.3046,0 -1.08743,-0.76125 0.42771,-1.49928 0.8717,-0.4246 1.40936,-0.99313 2.10501,-2.22588 0.7597,-1.34624 1.08923,-1.67265 1.76346,-1.74669 0.90051,-0.0989 0.90704,-0.0288 0.2715,2.91942 l -0.19332,0.8968 1.55227,0 c 1.29357,0 1.52226,0.0727 1.37219,0.43648 -0.0991,0.24006 -0.18009,0.61258 -0.18009,0.82781 0,0.28929 -0.41584,0.39134 -1.59467,0.39134 l -1.59465,0 -0.9797,4.64068 c -0.53881,2.55238 -0.89629,4.84276 -0.79438,5.08974 0.15155,0.36733 0.36327,0.40159 1.16311,0.18824 1.35973,-0.36269 1.42678,-0.34423 1.42678,0.39266 0,0.56082 -0.24465,0.71733 -1.72543,1.10375 -2.27554,0.59383 -4.16727,0.59499 -4.41165,0.003 z m 12.19627,-0.19119 c -0.8496,-0.68022 -0.86713,-0.74943 -0.86713,-3.42298 0,-2.60071 0.0526,-2.82763 1.12086,-4.83734 1.31063,-2.46558 2.81466,-3.7996 5.23247,-4.64094 4.21145,-1.4655 7.23634,1.0241 5.3726,4.42182 -1.05381,1.92118 -3.86467,3.30793 -6.72423,3.31744 -1.71762,0.006 -1.83336,0.0477 -2.01787,0.73132 -0.24803,0.91916 0.0619,2.30513 0.65545,2.93092 0.67461,0.71129 1.83472,0.5923 3.90437,-0.40045 1.54341,-0.74031 1.8857,-0.8185 2.11397,-0.48289 0.52544,0.7725 0.26485,1.06958 -1.72118,1.96209 -1.52905,0.68715 -2.49922,0.92544 -4.10241,1.00763 -1.9038,0.0976 -2.1807,0.0429 -2.9669,-0.58662 z m 6.46216,-7.42817 c 2.00482,-1.04797 2.67391,-3.10907 1.28419,-3.95596 -0.54798,-0.33396 -0.93985,-0.38217 -1.55762,-0.19165 -1.04627,0.32268 -2.54049,2.12652 -3.15822,3.81267 l -0.47675,1.30135 1.36192,-0.17362 c 0.74908,-0.0955 1.89498,-0.45225 2.54648,-0.79279 z M 0.009123,183.86782 c 0.05515,-0.26635 0.365761,-0.52956 0.690247,-0.58491 0.880972,-0.15028 1.650756,-0.87697 2.251913,-2.12583 0.797397,-1.65654 3.257957,-13.17685 3.324483,-15.56519 0.05674,-2.03704 0.04811,-2.06229 -0.895521,-2.62142 -1.840909,-1.09079 -1.34898,-1.25441 3.77136,-1.25441 4.056373,0 4.747027,0.0612 4.747027,0.42081 0,0.24775 -0.369758,0.48958 -0.899131,0.58805 -1.892085,0.35195 -2.610234,2.08909 -4.396564,10.63491 -1.669322,7.98607 -1.65298,7.83175 -0.903166,8.52912 0.569753,0.5299 0.879796,0.57526 3.192432,0.46703 3.110647,-0.14557 4.234429,-0.63248 5.320925,-2.30544 0.855913,-1.31792 0.889982,-1.34009 1.50369,-0.9785 0.34062,0.20069 0.327871,0.45636 -0.07891,1.58242 -0.266848,0.73868 -0.787615,1.83975 -1.157263,2.44681 l -0.67209,1.10375 -7.94985,0.0735 c -7.444194,0.0688 -7.943474,0.0427 -7.849578,-0.41074 z m 150.069867,0.084 c 0,-0.21515 0.50066,-0.61871 1.11258,-0.8968 0.77529,-0.35233 1.30982,-0.88206 1.76316,-1.74734 0.85,-1.62234 3.41952,-13.37381 3.46662,-15.85431 0.0356,-1.87448 0.0141,-1.93263 -0.91636,-2.48344 -1.99108,-1.17861 -1.54099,-1.25386 7.49997,-1.25386 8.29397,0 8.47166,0.0117 8.29036,0.54291 -0.10189,0.29861 -0.35183,1.38511 -0.5554,2.41446 -0.31396,1.58749 -0.469,1.88493 -1.02148,1.95973 -0.52988,0.0717 -0.65134,-0.0474 -0.65134,-0.63901 0,-1.83181 -1.16868,-2.34652 -5.32786,-2.34652 l -2.8658,0 -0.82284,3.51821 c -0.45257,1.93502 -0.88766,3.73551 -0.96689,4.0011 -0.12937,0.43373 0.12232,0.48248 2.47199,0.47883 2.95443,-0.005 3.82528,-0.2978 4.69227,-1.57983 0.77149,-1.14081 1.77786,-1.23253 1.544,-0.14072 -0.0894,0.41736 -0.39899,1.90742 -0.68799,3.31126 -0.41446,2.01328 -0.63081,2.55243 -1.02422,2.55243 -0.31478,0 -0.56324,-0.29982 -0.67355,-0.81281 -0.0963,-0.44796 -0.47921,-0.96511 -0.85298,-1.15212 -0.71198,-0.35621 -5.37763,-0.51495 -5.72319,-0.19472 -0.19965,0.18501 -1.07567,4.16186 -1.45996,6.62776 -0.18473,1.18536 -0.1375,1.33401 0.55863,1.75823 0.61156,0.37268 1.26806,0.43966 3.35338,0.34213 3.09599,-0.1448 4.19606,-0.60426 5.46935,-2.28435 0.55091,-0.72691 1.07218,-1.14584 1.31703,-1.05845 0.57715,0.20598 0.50891,0.69934 -0.36602,2.64633 -1.29751,2.88735 -0.55828,2.68208 -9.65884,2.68208 -6.67623,0 -7.96462,-0.0633 -7.96462,-0.39118 z m 150.71813,0.006 c 0,-0.21974 0.43391,-0.53709 0.96424,-0.70523 1.873,-0.59383 2.49204,-2.16758 4.3659,-11.09934 1.6137,-7.69165 1.57418,-8.92186 -0.30452,-9.47642 -0.33437,-0.0987 -0.55614,-0.32414 -0.49283,-0.50097 0.083,-0.23203 2.40565,-0.34193 8.34513,-0.39489 8.08985,-0.0721 8.22683,-0.0641 8.04324,0.47393 -0.10274,0.30102 -0.35333,1.3895 -0.55691,2.41885 -0.31396,1.58749 -0.46901,1.88493 -1.02148,1.95973 -0.54979,0.0744 -0.65135,-0.0439 -0.65135,-0.75883 0,-1.7421 -1.44695,-2.31693 -5.46976,-2.17298 l -2.3545,0.0842 -0.82482,3.5872 c -0.45364,1.97295 -0.82934,3.74241 -0.83488,3.93212 -0.0148,0.50934 4.51875,0.46403 5.59995,-0.056 0.45844,-0.22049 1.00206,-0.77926 1.20802,-1.24172 0.22943,-0.51518 0.59033,-0.84083 0.93185,-0.84083 0.6906,0 0.6952,-0.20019 -0.0808,3.51822 -0.54398,2.60662 -0.73502,3.1043 -1.19156,3.1043 -0.32862,0 -0.54372,-0.1993 -0.54372,-0.50378 0,-1.28761 -2.77366,-2.24501 -5.33705,-1.84222 l -1.13386,0.17816 -0.6018,3.08447 c -1.06129,5.43921 -1.01652,5.93192 0.59522,6.55284 1.77402,0.68342 0.74991,0.9449 -4.00519,1.02264 -3.89737,0.0637 -4.64847,0.0114 -4.64847,-0.32352 z m -174.03966,-5.93585 c -1.32706,-0.56051 -2.49044,-2.29285 -2.49044,-3.70841 0,-2.19205 2.0833,-4.15232 4.40481,-4.14468 2.77644,0.009 4.49276,1.5865 4.49476,4.13087 0.003,3.23311 -3.18466,5.08414 -6.40913,3.72222 z m 151.01037,0.13024 c -0.50926,-0.20615 -1.30578,-0.83798 -1.77004,-1.40409 -0.68835,-0.83937 -0.83999,-1.29363 -0.82183,-2.46211 0.0394,-2.53515 1.73435,-4.09438 4.45075,-4.09438 1.34599,0 1.79426,0.13607 2.71322,0.82354 2.04802,1.5321 2.36634,4.10081 0.73206,5.90721 -1.37362,1.51827 -3.41961,1.99266 -5.30416,1.22983 z M 100.38892,168.3441 c -0.58358,-0.59974 -0.62559,-0.53691 2.7461,-4.1075 l 1.13752,-1.20463 1.68994,0.35174 c 0.92947,0.19346 1.68995,0.4351 1.68995,0.53699 0,0.18616 -6.35256,4.96976 -6.59978,4.96976 -0.0727,0 -0.37134,-0.24586 -0.66373,-0.54636 z m 150.94162,-2.7e-4 -0.65822,-0.49572 2.23963,-2.37614 c 1.2318,-1.30687 2.35292,-2.37613 2.49138,-2.37613 0.72362,0 3.26686,0.67822 3.19693,0.85254 -0.0736,0.18353 -5.60108,4.31769 -6.31332,4.72193 -0.164,0.0931 -0.59437,-0.0538 -0.9564,-0.32648 z m 197.22867,0.002 -0.71591,-0.50224 2.31747,-2.3741 c 1.27461,-1.30576 2.4244,-2.37411 2.55506,-2.37411 0.58706,0 3.2483,0.66311 3.2356,0.80622 -0.0134,0.14923 -5.6157,4.3535 -6.34372,4.76053 -0.18291,0.10227 -0.65473,-0.0401 -1.0485,-0.3163 z M 25.141919,166.93014 c -1.205694,-1.12136 -0.02903,-3.28251 1.787203,-3.28251 1.263107,0 1.922647,0.61637 1.922647,1.79682 0,1.84148 -2.325827,2.77292 -3.70985,1.48569 z m 200.221961,0.1965 c -0.72919,-0.51481 -0.68597,-2.22016 0.0742,-2.92714 1.22373,-1.13814 3.56027,-0.39527 3.56027,1.13195 0,1.65398 -2.25607,2.76834 -3.63444,1.79519 z m 197.04491,-0.1965 c -1.22675,-1.14095 -0.0237,-3.28251 1.84392,-3.28251 1.86377,0 2.66228,1.93345 1.31573,3.18583 -0.91401,0.85008 -2.30385,0.89261 -3.15965,0.0967 z m -259.92933,-7.8875 c -0.45324,-0.46986 -0.34512,-0.63852 1.80111,-2.80965 l 2.2833,-2.30978 1.69664,0.35314 c 0.93316,0.19423 1.68993,0.42651 1.68171,0.51618 -0.0241,0.2624 -5.98204,4.50713 -6.50473,4.63425 -0.26172,0.0637 -0.69284,-0.10921 -0.95803,-0.38414 z"
     id="path8"
     style="fill:#000000;stroke:none"
     inkscape:connector-curvature="0" />
  <path
     d="m 261.11614,143.48786 0.69221,-1.6648 c 1.17295,-3.00745 2.38946,-5.30275 4.14512,-7.82086 1.85982,-2.66752 5.95358,-6.5968 7.65651,-7.34888 2.09296,-0.92432 4.69483,-1.24976 7.91236,-0.98966 2.76297,0.22336 11.25214,1.51441 14.67773,2.23221 2.60716,0.54631 6.42466,0.59858 8.22099,0.11257 3.46115,-0.93644 5.51166,-2.74661 6.48477,-5.72477 0.7465,-2.28463 0.73938,-4.36101 -0.0196,-5.74574 -1.01955,-1.85995 -0.84595,-2.3437 1.63179,-4.54729 1.22384,-1.08842 2.2268,-2.09479 2.22882,-2.23638 0.0104,-0.73671 -1.68523,-3.69485 -2.12178,-3.70152 -0.26749,-0.004 -0.79592,-0.24073 -1.17432,-0.52589 l -0.68799,-0.51848 1.47101,-0.69941 c 2.00859,-0.95502 3.49838,-2.44012 3.49838,-3.48738 0,-0.45243 -0.4232,-1.56156 -0.94041,-2.46473 -0.99261,-1.7332 -1.25814,-3.38925 -0.6993,-4.3611 0.36926,-0.6421 1.00601,-0.91213 4.13386,-1.75301 2.62837,-0.7066 3.57863,-1.42288 3.95332,-2.97993 0.32058,-1.33202 0.16306,-2.18815 -0.69698,-3.78853 -0.70022,-1.30302 -5.26045,-7.80072 -6.58878,-9.38813 -1.78503,-2.13316 -3.95956,-5.81854 -4.60269,-7.80068 -0.63397,-1.95383 -0.63821,-2.06457 -0.17564,-4.59021 0.97786,-5.33906 0.40608,-9.76561 -2.37636,-18.39664 -2.06787,-6.41455 -2.62318,-7.97176 -3.27071,-9.17186 -1.1707,-2.16968 -1.01429,-2.6776 1.38756,-4.50642 1.14964,-0.87537 2.21772,-1.81321 2.37348,-2.08408 0.72529,-1.26123 -0.0853,-3.6914 -1.45953,-4.37589 -0.87221,-0.43445 -1.35774,-0.13619 -2.24327,1.37805 -0.67096,1.14729 -0.93397,1.36455 -1.65205,1.36455 -1.16884,0 -1.37379,-0.456 -0.62732,-1.39568 0.87031,-1.09555 0.80139,-1.27122 -0.56576,-1.44188 -1.02334,-0.12774 -1.56426,-0.49967 -3.78278,-2.60094 -2.97436,-2.81717 -4.97247,-4.1154 -8.9556,-5.81872 -1.82597,-0.78084 -2.46192,-1.15043 -1.79203,-1.04142 0.57113,0.0929 2.59045,0.24143 4.48741,0.33 5.50443,0.25699 6.84241,-0.41937 8.1252,-4.10737 0.87096,-2.50398 1.2887,-3.66204 -0.70986,-5.41028 L 291.71847,0 l 164.58955,0 0,143.48786 -195.19188,0 z"
     id="path10"
     style="fill:#e2011c;fill-opacity:1;stroke:none"
     inkscape:connector-curvature="0" />
  <path
     d="m 120.76221,143.48786 c -1.19451,-0.11661 -2.23025,-0.16728 -2.30163,-0.23372 -0.12561,-0.1169 1.22352,-0.92353 7.40217,-4.4257 1.98181,-1.12332 2.79715,-1.72544 2.52185,-1.86236 -0.22377,-0.11129 -1.95366,-0.28769 -3.84421,-0.39202 -2.80871,-0.15501 -3.62263,-0.11053 -4.45033,0.24319 -0.55712,0.23809 -2.7805,0.8643 -4.94083,1.39158 -5.35809,1.30777 -7.16116,2.20561 -8.8816,4.42258 l -0.64284,0.85645 L 0,143.48786 0,0 209.56314,0 205.5027,2.46515 c -2.2354,1.0322 -4.8332,2.46579 -5.77289,3.18577 -3.18757,2.44227 -7.4799,7.99816 -8.5517,11.06913 -0.39394,1.12873 -0.75158,1.55182 -1.96031,2.31907 -1.84447,1.1708 -4.0539,3.40352 -5.88336,5.9454 -2.48415,3.45151 -7.21906,11.23002 -8.14941,13.38785 -1.44325,3.34746 -1.31214,5.89645 0.81784,15.90019 0.93773,4.40414 1.95239,8.8773 2.25481,9.94037 0.30241,1.06307 0.63341,2.86476 0.73554,4.00376 0.18235,2.03365 0.32448,2.47392 1.60457,4.97019 0.35045,0.68339 0.63681,1.45894 0.63636,1.72341 -6e-4,0.26449 0.26619,0.63607 0.59255,0.82576 0.33847,0.19672 0.59337,0.64392 0.59337,1.041 0,0.47834 0.67572,1.38618 2.15993,2.90188 3.39551,3.46758 5.85066,6.7182 5.85066,7.74627 0,0.84434 -1.3317,1.06256 -3.47729,0.56978 -2.50774,-0.57594 -4.55912,-1.81994 -7.7227,-4.68321 -1.34622,-1.21843 -2.44767,-2.03761 -2.44767,-1.82039 0,0.21722 0.92301,1.35006 2.05114,2.51741 2.24364,2.32166 2.59554,2.95511 2.11037,3.79883 -0.42444,0.7381 -1.45714,0.95304 -2.85417,0.59404 -1.61216,-0.41428 -2.55683,0.1632 -2.29094,1.40047 0.16312,0.75905 0.11836,0.84835 -0.34266,0.6837 -0.91137,-0.32548 -2.90571,-0.69831 -4.69908,-0.87846 -1.6474,-0.16548 -1.76932,-0.23267 -2.76658,-1.52456 -0.75573,-0.979 -1.34374,-1.42993 -2.1336,-1.63622 -2.94395,-0.7689 -10.26649,-1.95408 -15.18306,-2.45746 -8.64205,-0.8848 -10.72363,-0.95426 -14.86392,-0.49604 -3.17948,0.35188 -4.04406,0.55839 -5.78542,1.38187 -3.08264,1.45777 -8.42612,6.02562 -8.42612,7.20303 0,0.55237 1.17691,0.3575 2.52185,-0.41756 4.08148,-2.35208 18.06217,-5.67168 24.92182,-5.91748 3.39921,-0.12181 3.21494,0.0296 -0.86353,0.70961 -1.12766,0.188 -3.79786,0.82425 -5.93377,1.41388 -2.13591,0.58963 -5.81937,1.49821 -8.18546,2.01905 -2.36609,0.52084 -5.03628,1.19231 -5.93377,1.49214 l -1.63178,0.54515 2.52185,0.0256 c 12.84973,0.13059 27.49749,3.92469 33.45864,8.66653 2.56494,2.04029 3.50423,2.2879 7.27715,1.91837 5.17061,-0.50643 11.86318,-2.80231 14.79816,-5.07649 1.27365,-0.98689 2.32138,-1.37927 2.31953,-0.86866 -0.003,0.90191 -1.69046,5.75041 -2.41963,6.9533 -0.8129,1.341 -0.85907,1.53404 -0.43579,1.82209 0.26039,0.17721 0.3987,0.39175 0.30735,0.47677 -0.0914,0.085 0.11099,0.23642 0.44964,0.33645 0.9737,0.28762 0.72867,0.56557 -0.82533,0.93624 -1.51496,0.36136 -2.71257,0.99406 -2.71257,1.43306 0,0.14325 0.20815,0.26046 0.46255,0.26046 0.762,0 0.19336,0.49558 -0.80214,0.69907 -0.68161,0.13933 -0.81781,0.25319 -0.5158,0.4312 0.29605,0.17451 0.30706,0.24306 0.0395,0.24611 -0.20398,0.002 -0.37086,0.28453 -0.37086,0.62713 0,0.42655 -0.28057,0.73848 -0.89007,0.98957 -1.48548,0.61195 -1.06906,0.94244 0.96424,0.76526 1.01987,-0.0889 1.65404,-0.088 1.40927,0.002 -0.24477,0.0899 -1.91364,0.79257 -3.7086,1.56136 -1.79497,0.76879 -4.13139,1.68141 -5.19205,2.02805 -1.20067,0.39239 -1.96755,0.80564 -2.03202,1.095 -0.10355,0.46484 0.45391,0.44941 1.85611,-0.0514 0.25993,-0.0928 0.46934,-0.0623 0.46537,0.0679 -0.004,0.13014 -3.09406,1.78981 -6.86686,3.68814 -3.77279,1.89834 -7.3031,3.85535 -7.84512,4.34892 -0.54202,0.49356 -1.23554,0.89739 -1.54114,0.89739 -0.30751,0 -0.7094,0.31407 -0.89995,0.7033 -0.57628,1.1771 -0.45706,1.32028 0.91661,1.1008 2.04085,-0.32608 2.97622,-0.30813 3.11171,0.0597 0.0733,0.199 -0.11921,0.34515 -0.45464,0.34515 -0.31997,0 -0.7414,0.17901 -0.9365,0.3978 -0.1951,0.21878 -0.7103,0.43623 -1.1449,0.48321 -0.50564,0.0547 -1.00528,0.40187 -1.38756,0.96425 -0.32856,0.48337 -0.8644,0.94268 -1.19076,1.0207 -0.32636,0.078 0.14093,0.091 1.03841,0.0289 13.34501,-0.92367 15.83129,-1.38329 21.21322,-3.92148 4.59142,-2.16538 9.3577,-5.38437 12.74831,-8.6098 0.97397,-0.92652 1.87516,-1.68457 2.00265,-1.68457 0.46103,0 0.21092,1.54881 -0.46981,2.90933 -1.17813,2.35462 -3.65006,4.52361 -8.73103,7.66103 -2.56303,1.58264 -5.3276,3.07315 -6.1435,3.31227 -2.54918,0.74708 -6.66449,1.5429 -10.97876,2.12308 -14.05511,1.8901 -19.43377,3.32373 -24.76166,6.59998 -0.89169,0.54833 -1.82772,0.9644 -2.08008,0.92461 -0.25235,-0.0398 -0.92463,0.29815 -1.49396,0.75098 -1.60129,1.2736 -0.44117,1.05815 2.87995,-0.53484 3.40335,-1.63244 4.99892,-1.88969 2.31535,-0.3733 -3.29052,1.85937 -5.79885,3.02456 -8.25457,3.02456 l -13.20202,0 z m -17.45905,-16.0061 c 0.53343,-0.20743 2.29815,-1.12696 3.92159,-2.0434 1.62344,-0.91643 3.5525,-1.91976 4.2868,-2.22962 0.73431,-0.30986 2.80371,-1.17982 4.59867,-1.93325 3.7622,-1.57917 9.28336,-3.06922 9.60088,-2.59108 0.11154,0.16796 0.93418,0.35294 1.8281,0.41107 1.25118,0.0814 1.47165,0.15615 0.95776,0.32494 -0.36715,0.12059 -0.66755,0.32902 -0.66755,0.46318 0,0.49952 2.77661,0.34967 3.94563,-0.21295 0.45831,-0.22057 1.49366,-0.47382 2.30078,-0.56279 1.00352,-0.11061 1.46749,-0.28822 1.46749,-0.56175 0,-0.3122 0.25483,-0.35992 1.16104,-0.21743 1.24695,0.19607 3.92896,-0.27579 11.15153,-1.96193 4.89136,-1.14191 8.59598,-2.29113 11.84972,-3.67594 l 2.3557,-1.00259 -2.3557,-1.40406 c -5.74161,-3.42218 -11.50705,-5.52363 -24.16229,-8.80695 -2.20291,-0.57153 -4.1388,-1.1626 -4.30198,-1.31349 -0.19679,-0.18197 -0.0969,-0.20767 0.29669,-0.0763 1.26356,0.42171 2.22516,0.50254 2.22516,0.18705 0,-0.40923 -0.95549,-0.73912 -2.83272,-0.97803 -1.71694,-0.21852 -2.82522,-0.69522 -1.63244,-0.70216 1.84608,-0.0107 -1.32751,-1.09945 -4.88052,-1.67429 -2.63039,-0.42557 -2.78191,-0.51665 -1.68324,-1.01186 0.95745,-0.43157 1.98726,-2.06465 1.71632,-2.72177 -0.22999,-0.55781 -0.51686,-0.50027 -1.93957,0.389 -2.74297,1.71449 -5.25891,4.5221 -6.6728,7.44638 -0.80654,1.66812 -0.52728,1.82117 3.62402,1.98626 3.39933,0.13518 3.45324,0.14735 2.58176,0.58287 -0.48953,0.24464 -1.4715,0.52777 -2.18213,0.62917 -2.41359,0.34438 -3.75423,1.41019 -2.55772,2.03337 0.35533,0.18507 0.21433,0.34109 -0.65818,0.72832 -0.97801,0.43405 -1.04678,0.52593 -0.57688,0.77068 0.29344,0.15283 1.14666,0.23249 1.89605,0.17702 1.04149,-0.0771 1.51708,0.0273 2.01845,0.44289 l 0.65593,0.54375 -1.31621,0.77684 c -0.72391,0.42727 -1.54273,1.17523 -1.8196,1.66214 -0.27688,0.48691 -1.27109,1.64536 -2.20937,2.57433 -0.93828,0.92897 -1.70596,1.88983 -1.70596,2.13523 0,0.24541 -1.36847,1.46499 -3.04105,2.71017 -4.49806,3.34868 -6.45297,5.18922 -6.45297,6.07544 0,0.46893 -0.25418,0.89121 -0.7001,1.16314 -1.40422,0.8563 -2.13707,1.84556 -1.36719,1.84556 0.16841,0 0.74266,-0.16972 1.2761,-0.37715 z m 34.7064,-3.2264 c 1.11167,-0.13824 2.39896,-0.45901 2.86063,-0.71283 l 0.83941,-0.46147 -1.43166,-0.66397 -1.43166,-0.66397 -1.42897,0.53872 c -0.78593,0.2963 -1.87425,0.69552 -2.41847,0.88717 -2.1889,0.77079 -2.47453,1.80693 -0.41977,1.52266 0.7751,-0.10723 2.31882,-0.30807 3.43049,-0.44631 z M 87.77648,111.69915 c 6.61164,-6.43376 11.27731,-10.25052 17.19954,-14.07012 2.01256,-1.29802 3.43028,-2.04847 3.50034,-1.85286 0.19224,0.53675 1.05434,0.37873 2.4579,-0.45051 1.61284,-0.9529 2.41971,-1.91729 4.43296,-5.29844 2.08862,-3.50773 2.8778,-4.38427 5.89279,-6.54509 1.41026,-1.01072 3.48695,-2.51972 4.61487,-3.35333 1.62535,-1.20125 2.01577,-1.39112 1.88208,-0.91534 -0.10355,0.36854 -0.0321,0.60033 0.18516,0.60033 0.67407,0 3.84994,-1.26155 3.96175,-1.57372 0.17478,-0.488 -3.05193,-0.99191 -5.4387,-0.84935 -1.83236,0.10944 -2.48135,0.30728 -4.75502,1.4496 -5.3429,2.68431 -9.20245,5.57974 -16.5723,12.43251 -5.30367,4.93155 -9.48172,8.23818 -11.59346,9.17539 -0.68773,0.30522 -1.20567,0.94501 -2.03995,2.51988 -1.62148,3.06088 -4.51644,7.45361 -7.26452,11.02297 -2.59718,3.37336 -3.15463,4.54031 -1.13628,2.37865 0.69351,-0.74275 2.79629,-2.84451 4.67284,-4.67057 z m 66.16151,30.20817 c 7.94054,-1.53595 8.81708,-1.65032 14.38939,-1.8774 6.25707,-0.25498 7.05448,-0.40628 10.81859,-2.05271 1.206,-0.52751 1.67897,-0.62343 1.84657,-0.3745 0.29173,0.43329 2.33325,-0.60149 6.32289,-3.20489 1.63179,-1.0648 3.93932,-2.42556 5.12785,-3.0239 1.79099,-0.90164 2.33891,-1.05682 3.20042,-0.90641 0.91984,0.1606 1.19222,0.0564 2.36687,-0.90594 3.2558,-2.66721 6.03576,-3.90017 8.81213,-3.90835 0.82554,-0.002 1.11257,0.1112 1.11257,0.44045 0,0.28097 0.16323,0.38542 0.44504,0.28478 0.82715,-0.2954 0.45245,0.0425 -1.67467,1.51005 -2.46281,1.69919 -2.22072,2.20941 0.28305,0.59655 2.42395,-1.56144 2.43003,-1.56377 2.43003,-0.9323 0,0.3598 -0.91241,1.26321 -2.59602,2.57042 -3.83055,2.97412 -6.54291,5.43381 -10.67222,9.67799 l -3.6939,3.6867 -46.97421,0 8.45562,-1.58054 z m 0.0742,-56.2092 c 0.28557,-0.0694 0.75285,-0.0694 1.03841,0 0.28556,0.0695 0.0519,0.12628 -0.5192,0.12628 -0.57113,0 -0.80477,-0.0568 -0.51921,-0.12628 z"
     id="path12"
     style="fill:#003189;fill-opacity:1;stroke:none"
     inkscape:connector-curvature="0" />
  <path
     d="m 292.41225,75.19762 c -1.29572,-0.18227 -0.62707,-0.63014 0.9408,-0.63014 1.5729,0 2.40199,-0.56195 2.40199,-1.62805 0,-0.50124 -0.11719,-0.58352 -0.61975,-0.43507 -0.43355,0.12807 -0.74223,0.0203 -1.02743,-0.35865 -0.26637,-0.35391 -0.91042,-0.60377 -1.85781,-0.72074 -1.6923,-0.20893 -4.43297,-1.72959 -3.94153,-2.18696 0.16781,-0.15618 1.03909,-0.34062 1.93616,-0.40985 1.54601,-0.11932 1.64828,-0.17452 1.96197,-1.0591 0.23477,-0.6621 0.56125,-0.98363 1.12377,-1.10673 0.43604,-0.0954 1.12661,-0.4597 1.53456,-0.80948 0.40794,-0.3498 1.74304,-1.24387 2.96688,-1.98684 2.05751,-1.24907 3.33221,-2.58054 2.87649,-3.00464 -0.4801,-0.44683 -4.93503,-0.9331 -7.03013,-0.76735 -2.43391,0.19254 -6.62754,1.01534 -8.38144,1.64446 -1.80031,0.64575 -1.27404,0.0834 1.19948,-1.28172 3.33911,-1.84283 9.76692,-3.56105 13.32179,-3.56105 1.37913,0 5.99392,1.01436 6.5436,1.43832 1.07674,0.83045 -0.0977,3.74567 -2.0949,5.2001 l -0.83402,0.60733 0.68568,0.68047 0.68565,0.68046 -0.70043,0.52878 c -0.38522,0.29084 -0.91291,0.52879 -1.17263,0.52879 -0.25972,0 -0.90277,0.3884 -1.42903,0.8631 -0.80996,0.73062 -0.91458,0.96652 -0.68165,1.53675 0.18039,0.44156 0.16274,0.86921 -0.0512,1.24129 -0.19984,0.34751 -0.2499,1.13764 -0.12911,2.03745 0.2466,1.83692 -0.10927,2.49499 -1.55071,2.86755 -1.06885,0.27626 -4.98241,0.32991 -6.67704,0.0915 z"
     id="path14"
     style="fill:#7f7f7f;stroke:none"
     inkscape:connector-curvature="0" />
  <text
     xml:space="preserve"
     style="font-style:normal;font-weight:normal;font-size:51.50261688px;line-height:125%;font-family:sans-serif;letter-spacing:0px;word-spacing:0px;fill:#373c42;fill-opacity:1;stroke:none;stroke-width:1px;stroke-linecap:butt;stroke-linejoin:miter;stroke-opacity:1"
     x="537.9162"
     y="182.54816"
     id="text3345"
     sodipodi:linespacing="125%"
     transform="scale(1.0369194,0.96439512)"><tspan
       sodipodi:role="line"
       id="tspan3347"
       x="537.9162"
       y="182.54816"
       style="font-style:normal;font-variant:normal;font-weight:normal;font-stretch:normal;font-size:160.94567871px;font-family:'Fira Sans';-inkscape-font-specification:'Fira Sans';fill:#373c42;fill-opacity:1"><tspan
         style="font-style:normal;font-variant:normal;font-weight:bold;font-stretch:normal;font-family:'Century Gothic Std';-inkscape-font-specification:'Century Gothic Std Bold';fill:#373c42;fill-opacity:1"
         id="tspan3339">beta.gouv</tspan><tspan
         style="font-style:italic;font-variant:normal;font-weight:normal;font-stretch:normal;font-size:192.5px;font-family:'Times New Roman';-inkscape-font-specification:'Times New Roman, Italic';fill:#373c42;fill-opacity:1"
         id="tspan3341">.fr</tspan></tspan></text>
</svg>
