<svg xmlns="http://www.w3.org/2000/svg" height="53" width="318"><g font-size="50" fill="#373c42"><path d="M10.4 37.632c2.496 2.208 5.044 3.36 8.528 3.36 7.02 0 13.208-5.568 13.208-13.392 0-7.968-5.928-13.44-13.052-13.44-3.328 0-6.188 1.152-8.684 3.456V4.992H3.484V40.32H10.4v-2.688zm7.28-17.616c4.576 0 7.488 3.36 7.488 7.536 0 4.368-3.172 7.584-7.488 7.584-4.264 0-7.592-3.024-7.592-7.632 0-4.464 3.172-7.488 7.592-7.488zm40.204 12.816c-1.924 1.728-3.9 2.496-6.864 2.496-3.952 0-7.072-2.112-7.748-5.904h22.256c0-.576.052-.864.052-1.44 0-8.064-5.928-13.824-14.664-13.824-8.892 0-14.352 6.432-14.352 13.392 0 7.488 5.668 13.44 14.456 13.44 5.824 0 9.724-1.728 12.688-5.616l-5.824-2.544zm-14.3-8.448c1.352-3.216 4.004-4.8 7.436-4.8 3.692 0 6.656 1.824 7.592 4.8H43.584zm28.27-9.552H68.32v5.472h3.535V40.32h6.916V20.304h4.11v-5.472h-4.11V5.424h-6.91v9.408zM107.1 40.32h6.916V14.832H107.1v2.784c-2.496-2.304-5.356-3.456-8.684-3.456-7.176 0-13 5.472-13 13.44 0 7.824 6.136 13.392 13.156 13.392 3.484 0 6.084-1.152 8.528-3.36v2.688zm-7.28-20.304c4.368 0 7.592 3.024 7.592 7.488 0 4.656-3.328 7.632-7.592 7.632-4.316 0-7.436-3.216-7.436-7.584 0-4.176 2.86-7.536 7.436-7.536zm24.968 13.632c-2.184 0-4.004 1.584-4.004 3.648 0 2.016 1.82 3.696 4.004 3.696 2.236 0 3.952-1.68 3.952-3.696s-1.768-3.648-3.952-3.648zm38.08-18.816h-6.917v2.784c-2.6-2.256-5.3-3.456-8.73-3.456-7.02 0-12.89 5.184-12.89 13.056 0 7.632 5.83 13.104 13.26 13.104 3.59 0 6.09-1.104 8.37-3.168 0 2.4-.05 4.128-1.71 5.568-1.25 1.056-3.33 1.68-5.87 1.68-2.91 0-4.99-.672-6.4-2.208h-7.64c1.87 5.328 6.71 8.064 14.3 8.064 4.21 0 7.54-.912 10.04-2.832 3.17-2.496 4.21-5.808 4.21-10.752v-21.84zm-14.093 5.184c4.576 0 7.54 3.168 7.54 7.296 0 4.32-3.172 7.152-7.436 7.152-4.32 0-7.6-2.976-7.6-7.2 0-3.936 2.91-7.248 7.49-7.248zm34.068-5.856c-7.54 0-14.3 5.712-14.3 13.44 0 7.488 6.344 13.392 14.352 13.392 8.424 0 14.612-6.048 14.612-13.44 0-7.536-6.604-13.392-14.664-13.392zm.104 6.048c4.524 0 7.592 3.072 7.592 7.392 0 4.464-3.33 7.344-7.6 7.344-4.47 0-7.44-3.072-7.44-7.392 0-4.224 3.12-7.344 7.43-7.344zm20.16 6.288c0 2.112-.105 3.312.26 5.376 1.09 5.952 5.2 9.072 11.855 9.072 3.848 0 6.708-.96 8.892-3.216 2.912-2.976 3.224-6.432 3.224-11.136v-11.76h-6.916v13.584c0 4.32-1.508 6.672-5.2 6.672-3.64 0-5.2-2.4-5.2-6.96V14.832h-6.916v11.664zm40.07 13.824h4.47L259.4 14.832h-7.02l-6.968 15.024-6.968-15.024h-7.072l11.804 25.488z"/><path d="M264.856 35.6q1.228 0 2.057.79.857.766.857 1.873 0 1.108-.857 1.9-.857.763-2.057.763t-2.057-.764q-.83-.79-.83-1.9 0-1.106.83-1.87.85-.792 2.05-.792zm27.108-18.51l-.515 1.74h-4.17l-3.15 11.523q-2.09 7.62-4.2 11.786-3 5.88-6.46 8.12-2.63 1.71-5.26 1.71-1.72 0-2.92-.95-.89-.66-.89-1.72 0-.85.74-1.48.71-.61 1.77-.61.77 0 1.31.45.51.45.51 1.03 0 .58-.6 1.08-.46.37-.46.55 0 .23.2.37.255.18.8.18 1.226 0 2.6-.72 1.34-.71 2.4-2.14 1.054-1.4 1.996-4.06.4-1.11 2.146-7.31l4.97-17.85h-4.97l.4-1.74q2.37 0 3.315-.29.942-.314 1.713-1.16.8-.87 2.056-3.214 1.69-3.16 3.23-4.9 2.11-2.345 4.424-3.506 2.343-1.18 4.4-1.18 2.17 0 3.485 1.027 1.32 1.006 1.32 2.19 0 .926-.658 1.558-.658.63-1.687.63-.89 0-1.46-.47-.54-.475-.54-1.134 0-.42.37-1.03.37-.63.37-.84 0-.37-.26-.553-.37-.266-1.086-.266-1.8 0-3.23 1.058-1.913 1.4-3.43 4.38-.77 1.557-2.824 7.727h4.2z"/><path d="M293.906 17.934l9.855-1.476-4.11 12.814q5-7.884 9.09-11.02 2.32-1.794 3.77-1.794.95 0 1.49.527.55.5.55 1.477 0 1.74-.97 3.322-.68 1.186-1.97 1.186-.65 0-1.14-.395-.45-.396-.57-1.213-.06-.5-.26-.66-.22-.21-.54-.21-.48 0-.91.21-.74.37-2.25 2.057-2.37 2.58-5.14 6.69-1.19 1.74-2.05 3.93-1.2 3-1.37 3.61l-.912 3.32h-4.37l5.28-16.38q.915-2.85.915-4.06 0-.48-.43-.79-.57-.42-1.51-.42-.6 0-2.2.23l-.2-.98z"/></g></svg>
