<svg viewBox="0 0 378 65" xmlns="http://www.w3.org/2000/svg" fill-rule="evenodd" clip-rule="evenodd" stroke-linejoin="round" stroke-miterlimit="1.414"><g fill="#fff" fill-rule="nonzero"><path d="M0 49.121V7.696h7.92v13.229c2.541-2.392 5.479-3.7 8.814-3.924.437-.038.913-.056 1.429-.056 5.003 0 9.112 1.719 12.328 5.157 2.858 3.102 4.288 6.857 4.288 11.267 0 4.223-1.291 7.904-3.871 11.043-3.018 3.625-7.087 5.437-12.209 5.437-3.851 0-7.066-1.027-9.647-3.083a23.471 23.471 0 0 1-1.787-1.625v3.98H0zm17.032-25.337c-3.414 0-6.015 1.27-7.801 3.811-1.191 1.645-1.787 3.569-1.787 5.774 0 3.55 1.35 6.222 4.05 8.016 1.627 1.084 3.533 1.625 5.717 1.625 3.573 0 6.233-1.326 7.98-3.979 1.072-1.607 1.608-3.476 1.608-5.606 0-3.401-1.311-6.035-3.931-7.904-1.667-1.158-3.613-1.737-5.836-1.737zM74.976 36.9H49.428c.715 2.766 2.541 4.616 5.479 5.55 1.112.374 2.323.56 3.633.56 2.7 0 4.883-.784 6.551-2.354.238-.224.476-.467.714-.729h8.635c-.476 1.383-1.349 2.822-2.62 4.317-3.454 3.737-7.821 5.605-13.101 5.605-5.241 0-9.608-1.681-13.102-5.045-3.176-3.064-4.764-6.764-4.764-11.099 0-4.708 1.767-8.651 5.3-11.827 3.335-3.027 7.365-4.541 12.089-4.541 5.241 0 9.489 1.757 12.744 5.269 2.859 3.102 4.288 6.914 4.288 11.436a13.16 13.16 0 0 1-.298 2.858zM49.19 30.342h18.283c-.913-3.662-3.454-5.699-7.623-6.11a19.234 19.234 0 0 0-1.489-.056c-4.565 0-7.543 1.85-8.933 5.549-.079.187-.158.393-.238.617zM84.445 49.121V24.849h-3.871v-6.783h3.871V7.696h7.921v10.37h4.764v6.783h-4.764v24.272h-7.921zM137.03 18.066v31.055h-7.266v-4.036c-2.62 2.802-5.677 4.372-9.171 4.708-.555.038-1.151.056-1.786.056-5.201 0-9.39-1.737-12.566-5.213-2.699-2.99-4.049-6.633-4.049-10.931 0-5.157 1.826-9.305 5.479-12.444 3.096-2.616 6.868-3.924 11.315-3.924 4.327 0 7.761 1.42 10.302 4.26.159.187.318.393.476.617v-4.148h7.266zm-17.211 6.11c-3.493 0-6.134 1.308-7.92 3.924-1.152 1.644-1.727 3.569-1.727 5.773 0 3.476 1.389 6.036 4.168 7.68 1.588.972 3.454 1.457 5.598 1.457 3.137 0 5.539-.934 7.206-2.802 1.469-1.869 2.263-3.999 2.382-6.391 0-3.55-1.35-6.222-4.049-8.015-1.628-1.084-3.514-1.626-5.658-1.626zM150.131 43.515c-1.786 0-3.275 1.401-3.275 3.195 0 1.626 1.489 3.027 3.216 3.027 1.846 0 3.394-1.345 3.394-3.027 0-1.738-1.548-3.195-3.335-3.195zM189.376 18.066h7.563v25.169c0 5.68-1.111 9.884-3.334 12.612-3.177 3.775-7.762 5.662-13.757 5.662-6.313 0-11.156-1.981-14.531-5.942a15.542 15.542 0 0 1-2.441-3.924h8.992c1.906 1.981 4.188 3.064 6.848 3.251.437.038.914.056 1.43.056 5.876 0 8.952-3.307 9.23-9.922-2.541 2.803-5.478 4.373-8.813 4.709-.636.075-1.311.112-2.025.112-5.082 0-9.171-1.775-12.268-5.325-2.62-3.027-3.93-6.745-3.93-11.155 0-4.97 1.766-9.006 5.3-12.108 3.017-2.616 6.67-3.924 10.957-3.924 4.765 0 8.358 1.551 10.779 4.653v-3.924zm-9.885 6.11c-3.613 0-6.233 1.401-7.861 4.204-.874 1.532-1.31 3.307-1.31 5.325 0 3.849 1.469 6.577 4.406 8.184 1.39.748 3.018 1.121 4.884 1.121 3.732 0 6.431-1.382 8.099-4.148.873-1.457 1.31-3.176 1.31-5.157 0-3.662-1.39-6.353-4.169-8.072-1.349-.859-2.898-1.345-4.645-1.457h-.714zM222.071 17.337c5.161 0 9.449 1.701 12.863 5.101 3.176 3.139 4.764 6.932 4.764 11.379 0 4.373-1.747 8.147-5.241 11.324-3.454 3.139-7.563 4.708-12.327 4.708-4.883 0-9.052-1.625-12.506-4.877-3.335-3.176-5.002-6.969-5.002-11.379 0-4.522 1.747-8.371 5.24-11.547 3.415-3.139 7.484-4.709 12.209-4.709zm.059 6.839c-2.977 0-5.439 1.14-7.384 3.419-1.43 1.719-2.144 3.681-2.144 5.886 0 3.177 1.25 5.718 3.752 7.624 1.707 1.27 3.652 1.905 5.836 1.905 3.057 0 5.538-1.177 7.444-3.531 1.389-1.719 2.084-3.681 2.084-5.886 0-3.027-1.211-5.493-3.633-7.399-1.747-1.345-3.732-2.018-5.955-2.018zM276.501 18.066v31.055h-7.325V46.15c-2.302 2.13-4.803 3.326-7.503 3.587l-1.965.112c-4.447 0-7.802-1.532-10.065-4.596-1.508-2.093-2.322-4.933-2.441-8.521-.04-.598-.06-1.27-.06-2.018V18.066h7.921v15.191c0 3.924.536 6.521 1.607 7.792 1.033 1.308 2.581 1.961 4.646 1.961 2.818 0 4.823-.952 6.014-2.858.834-1.196 1.251-3.681 1.251-7.456v-14.63h7.92zM295.975 49.121l-13.28-31.055h8.814l7.622 20.572 7.504-20.572h8.933l-13.28 31.055-6.313-.001zM320.011 43.517c-1.681 0-3.082 1.401-3.082 3.194 0 1.625 1.401 3.026 3.026 3.026 1.737 0 3.194-1.345 3.194-3.026 0-1.737-1.457-3.194-3.138-3.194z"/><path d="M330.525 20.378h6.506l-6.578 30.459c-1.716 7.865-4.075 11.797-7.15 11.797-.858 0-1.43-.501-1.43-1.215 0-.215.072-.358.286-.715.286-.501.358-.787.358-1.216 0-1.573-1.287-2.788-2.86-2.788-1.502 0-2.646 1.358-2.646 3.074 0 2.431 2.503 4.362 5.649 4.362 6.506 0 11.583-7.15 14.729-20.521l5.362-23.237h7.937l.429-2.288h-7.794c2.145-11.44 4.934-16.517 8.938-16.517 1.001 0 1.573.358 1.573.93 0 .143-.072.357-.286.715-.358.572-.429.929-.429 1.501 0 1.716 1.072 2.86 2.645 2.86 1.645 0 3.075-1.358 3.075-2.931 0-2.646-2.646-4.648-6.221-4.648-3.503 0-6.363 1.573-9.009 4.934-2.145 2.86-3.646 6.149-5.863 13.156h-6.721l-.5 2.288zM355.764 49.121c3.933-12.513 5.148-15.444 8.437-20.95 2.503-4.075 4.505-6.292 5.72-6.292.501 0 .858.286 1.216 1.001.572 1.216 1.144 1.573 2.574 1.573 2.145 0 3.36-1.287 3.36-3.575 0-2.288-1.358-3.718-3.36-3.718-1.645 0-3.647 1.073-5.506 3.074-3.003 3.003-6.006 7.365-7.15 10.154l-1.072 2.645 4.004-15.73-.215-.143c-5.219.93-6.006 1.073-11.225 1.931v1.215c1.573-.286 1.859-.358 2.431-.358 1.573 0 2.502.716 2.502 2.002 0 .93-.572 3.862-1.144 6.006l-6.077 21.165 5.505-.001z"/></g></svg>