<svg xmlns="http://www.w3.org/2000/svg" width="1538" height="906"><path fill="#fff" d="M0 0h1538v520H0z"/><path d="M1228.168 905.42c-.848-.345-.9-1.27-.188-3.317.903-2.59 1.32-2.793 4.79-2.327 3.15.422 4.077.12 5.392-1.758 2.53-3.612.577-6.217-4.013-5.356-3.53.66-3.58.62-2.9-2.082 2.15-8.582 2.36-8.11-4.06-9.382-7.64-1.516-14.95-5.796-20.57-12.042-8.43-9.378-11.36-18.866-10.52-34.117.43-7.77 1.09-10.8 3.54-16.21 7.49-16.54 24.62-24.97 47.64-23.46 4.98.32 11.31 1.17 14.06 1.88l5 1.29.29 9.25.29 9.25h-3.04c-1.79 0-3.04-.52-3.04-1.27 0-2.6-6.13-8.61-10.46-10.27-5.59-2.14-16.43-1.65-21.87.98-12.42 6.01-18.08 21.61-14.3 39.41 1.75 8.27 4.65 13.82 10.19 19.51 5.25 5.4 10.55 7.57 18.48 7.6 8.39.03 14.27-3.35 17.97-10.31 2.51-4.74 3.4-5.32 5.83-3.78 1.12.71 1.13 2.36.06 9.95l-1.29 9.09-4.57 1.57c-2.51.87-8.28 1.85-12.82 2.18-7.83.57-8.25.72-8.25 2.95 0 1.78.55 2.35 2.27 2.35 3.34 0 6.47 2.59 7.21 5.96.86 3.91-1.93 9.7-5.58 11.59-2.64 1.36-12.93 1.9-15.59.82zm-594.96-4.208c-8.658-2.552-16.124-6.402-25.104-12.945l-7.758-5.652-12-.615c-13.306-.683-17.955-2.168-26.562-8.486-18.96-13.92-19.65-49.337-1.294-66.576 13.818-12.978 38.127-15.66 55.625-6.136 23.622 12.857 26.13 50.785 4.67 70.652-3.33 3.083-6.59 5.607-7.246 5.61-2.05.006 21.45 12.86 28.32 15.495 7.59 2.91 16.46 3.29 22.96 1 4.72-1.67 5.53-1.47 6.32 1.56.46 1.77-.35 2.52-5.13 4.73-7.54 3.49-23.34 4.14-32.82 1.35zm-29.324-30.904c16.744-8.748 19.932-36.76 6.22-54.65-12.71-16.58-34.985-14.07-43.357 4.885-7.565 17.125 1.066 43.6 16.498 50.61 6.245 2.836 14.217 2.51 20.64-.845zM78.346 880.67c-4.593-2.003-9.632-8.24-17.595-21.773-12.23-20.792-14.52-23.838-17.94-23.838h-2.96l.02 11.25c.04 20.53 2.1 27.56 8.58 29.18 1.73.43 2.41 1.3 2.41 3.08v2.48h-41v-2.35c0-1.79.77-2.58 3.15-3.26 1.74-.5 4.1-2.17 5.25-3.72 2.05-2.75 2.11-3.75 2.11-41.67s-.05-38.92-2.1-41.67c-1.15-1.55-3.52-3.22-5.25-3.72-2.3-.66-3.15-1.5-3.15-3.1 0-2.19.11-2.2 25.4-2.85 26.91-.69 32.84-.18 40.43 3.49 6.63 3.21 12.15 12.93 12.17 21.41.02 9.71-7.2 20.67-16.73 25.41l-4.99 2.47 11.02 16.52c12.97 19.43 17.04 24.63 20.87 26.61 3.58 1.85 3.92 5.88.58 6.78-4.02 1.08-17.17.58-20.25-.76zm-25.023-55.726c13.406-3.722 17.93-22.35 7.785-32.053-4.77-4.56-9.833-6.21-16.297-5.32l-4.96.69v37.81h4.75c2.61 0 6.54-.5 8.73-1.11zm230.405 55.734c-5.48-1.958-10.648-5.446-13.384-9.032-4.972-6.52-5.494-9.946-5.555-36.463-.07-27.715-.59-30.76-5.68-33.124-2.05-.95-3.24-2.24-3.25-3.5-.02-1.93.64-2 16.98-2 16.96 0 17 0 17 2.25 0 1.51-.6 2.25-1.83 2.25-1.01 0-2.92 1.16-4.25 2.58l-2.43 2.58v27.17c0 25.57.12 27.4 2.07 31.13 3.05 5.81 9.13 8.8 16.95 8.33 8.42-.51 12.97-3.49 16.33-10.71 2.58-5.54 2.6-5.81 2.62-30.14.02-21.78-.18-24.85-1.74-27.24-.97-1.48-2.89-2.97-4.25-3.32-1.56-.39-2.49-1.34-2.49-2.52 0-1.76.92-1.89 13.5-1.89 12.57 0 13.5.13 13.5 1.89 0 1.18-.94 2.13-2.47 2.51-4.61 1.16-4.98 3.3-5.52 32.17l-.51 27.07-3.01 5.88c-3.56 6.94-9.31 11.74-16.72 13.94-6.25 1.86-20.88 1.94-25.9.15zm390 0c-5.542-1.98-10.657-5.458-13.488-9.17-4.714-6.18-5.39-10.75-5.45-36.858-.064-27.146-.602-30.235-5.673-32.59-2.043-.95-3.236-2.235-3.25-3.5-.02-1.923.64-2 16.98-2 16.802 0 17 .024 17 2.18 0 1.465-.706 2.285-2.15 2.5-1.183.175-3.096 1.588-4.25 3.14-1.97 2.644-2.122 4.29-2.43 26.206-.38 26.923.37 32.602 4.932 37.267 8.25 8.44 25.4 6.083 30.26-4.16 3.06-6.45 3.84-14.534 3.47-35.698-.4-22.408-1.07-25.202-6.35-26.53-1.56-.388-2.49-1.333-2.49-2.514 0-1.76.92-1.89 13.5-1.89 12.54 0 13.5.14 13.5 1.88 0 1.14-1.16 2.36-2.93 3.09-1.61.67-3.28 1.96-3.7 2.88-.42.92-1.02 13.85-1.32 28.74l-.56 27.08-3.01 5.88c-3.56 6.94-9.31 11.74-16.72 13.94-6.25 1.86-20.88 1.94-25.9.15zm316.53-.042c-3.997-1.74-8.75-7.666-16.108-20.077-9.5-16.03-10.58-17.48-13.054-17.49-2.215-.01-2.25.18-2.25 12.52 0 14.95 1.248 19.17 5.955 20.11 2.37.47 3.05 1.13 3.05 2.98v2.37h-34v-2.38c0-1.85.68-2.51 3.05-2.99 5.7-1.14 6.1-3.85 5.76-38.66l-.3-30.83-2.42-2.58c-1.33-1.42-3.24-2.58-4.25-2.58-1.13 0-1.82-.73-1.82-1.92 0-1.65 1.02-2.01 7.34-2.6 4.04-.38 15.17-.52 24.75-.31 15.58.34 17.86.61 21.58 2.58 6.62 3.49 10.34 10.29 10.34 18.92 0 8.19-4.7 15.39-13.22 20.26-2.72 1.56-4.48 3.12-3.91 3.47.57.36 4.99 6.59 9.82 13.87 9.48 14.27 14.75 20.72 16.93 20.72 1.93 0 1.76 4.64-.19 5.39-2.84 1.09-13.84.56-17.01-.82zm-18.482-47.04c3.975-2.057 7.878-7 8.61-10.907.943-5.02-1.266-11.64-5.08-15.24-3.535-3.33-6.948-4.29-12.856-3.6l-3.604.42v30.78h5.05c2.777 0 6.323-.66 7.88-1.47zm445.123 46.867c-3-.805-5.63-1.643-5.85-1.863-.22-.22-.95-4.706-1.63-9.97l-1.23-9.57h2.82c1.55 0 2.82.372 2.82.828 0 2.6 6.56 10.265 10.36 12.107 10.28 4.98 22.64.29 22.63-8.587-.01-5.827-2.84-9.31-12.47-15.35-13.52-8.474-18.74-12.95-21.44-18.374-2.69-5.41-3.17-13.827-1.14-19.974 1.34-4.058 7.62-10.117 12.91-12.452 5.32-2.35 21.99-2.275 28.89.13l5.25 1.832v17.84h-2.89c-2.25 0-3.03-.556-3.52-2.483-1.05-4.176-6.41-9.39-10.9-10.6-12.01-3.23-21.62 9.083-14.09 18.038 1.44 1.71 7.96 6.733 14.5 11.162 12.66 8.58 17.33 13.25 18.9 18.882 3.45 12.39-2.28 23.33-14.63 27.95-6.63 2.48-20.96 2.7-29.34.45zm-1310.06-2.1c0-1.773.56-2.304 2.42-2.304 1.43 0 3.28-1.09 4.5-2.64 1.99-2.54 2.07-3.78 2.07-34.07 0-21.98-.35-32.09-1.17-33.62-1.49-2.8-3.87-4.61-6.09-4.65-1.19-.02-1.75-.83-1.75-2.53v-2.5h60v21.13l-2.63-.32c-1.98-.24-2.91-1.16-3.75-3.72-1.97-5.97-5.27-7.5-17.17-7.94l-10.46-.39v28.48l8.04-.47c8.76-.51 13.18-2.64 13.77-6.64.24-1.59 1.02-2.15 3-2.15h2.68v26h-2.75c-2.22 0-2.75-.46-2.75-2.35 0-4.47-3.33-6.12-13.1-6.51l-8.9-.35v14.04c0 16.92.15 17.16 11.57 17.16 11.26 0 17.13-2.86 20.07-9.75 1.48-3.49 4.94-4.49 6-1.73.69 1.82-2.12 13.56-4.24 17.65l-1.5 2.9-28.96-.23-28.96-.23v-2.31zm77 .32c0-1.828.67-2.51 2.94-2.963 5.27-1.055 5.52-2.536 5.86-34.66.35-33.45-.08-36.462-5.54-39-2.28-1.06-3.24-2.19-3.25-3.846l-.02-2.345 22.75.41c24.59.45 26.6.83 33.27 6.44 7.32 6.16 9.22 18.42 4.26 27.54-4.33 7.95-11.81 12.17-23.73 13.39l-6.25.64-1.55-3.87-1.55-3.87 3.69-.54c4.69-.69 9.79-3.66 12.49-7.29 1.54-2.06 2.09-4.23 2.04-8-.13-9.74-5.6-15.69-15.15-16.49l-5.41-.45.31 33.38c.34 36.4.5 37.42 6.06 38.56 2.07.42 2.75 1.15 2.75 2.94v2.37h-34v-2.38zm166-.364c0-1.55.59-2.26 1.89-2.26 1.04 0 2.95-.86 4.25-1.91l2.36-1.92.3-31c.34-34.7-.05-37.32-5.79-39.49-1.8-.68-3.02-1.86-3.02-2.92 0-1.62 1.38-1.81 15.25-2.03 29.18-.48 35.29-.16 40.03 2.14 6.15 2.97 9.02 7.29 9.53 14.3.22 3.15.13 6.83-.21 8.19-.99 3.92-5.65 8.71-10.8 11.1l-4.76 2.21 4.03 1.21c9.64 2.88 15.78 12.97 14.51 23.8-1.08 9.14-5 14.29-14.11 18.48-4.78 2.2-6.06 2.3-29.25 2.31l-24.25.01v-2.26zm44.1-7.53c5.09-3.41 7.12-8.05 6.55-15.02-.86-10.5-8.19-16.72-19.69-16.72h-6.11l.32 15.09c.3 14.46.42 15.17 2.68 17 3.45 2.79 11.79 2.61 16.24-.36zm-4.13-41.56c6.14-2.35 9.37-7.16 8.73-12.99-.86-7.84-7.17-12.19-17.68-12.19h-6.03v27l5.25-.06c2.88-.03 7.26-.83 9.72-1.77zm41.03 49.14c0-1.62.69-2.27 2.65-2.5 1.49-.18 3.57-1.56 4.75-3.14 2.02-2.73 2.1-3.91 2.1-33.5 0-24.59-.28-31.18-1.42-33.18-1.77-3.13-4.07-4.93-6.34-4.97-1.14-.02-1.75-.82-1.75-2.28 0-2.25 0-2.25 18-2.25s18 0 18 2.25c0 1.56-.6 2.25-1.95 2.25-1.07 0-3.21 1.08-4.75 2.41l-2.81 2.41-.29 31.54-.29 31.53 2.56 1.67c2.02 1.32 4.19 1.58 10.39 1.22 9.52-.55 13.97-2.91 16.62-8.78 1.76-3.91 3.63-4.86 6.26-3.19.99.63.83 2.47-.76 8.67-1.11 4.33-2.71 8.93-3.56 10.23l-1.55 2.36-27.95-.3-27.95-.3v-2.19zm70 .31c0-1.85.67-2.51 3.04-2.99 5.52-1.11 5.95-3.84 5.95-37.36 0-27.85-.13-29.99-1.97-33.01-1.08-1.78-3.1-3.51-4.5-3.86-1.72-.43-2.53-1.32-2.53-2.78 0-2.11.29-2.14 17-2.14s17 .03 17 2.14c0 1.45-.81 2.34-2.49 2.76-1.37.34-3.28 1.83-4.25 3.31-1.59 2.42-1.76 5.74-1.76 33.23 0 33.95.4 36.68 5.64 37.72 2.18.44 2.85 1.13 2.85 2.95v2.37h-34v-2.38zm239-.18c0-1.65.76-2.35 3.04-2.81 5.52-1.11 5.95-3.83 5.95-37.46 0-29.47-.03-29.94-2.29-33.29-1.26-1.87-3.28-3.54-4.5-3.72-1.59-.23-2.22-1.01-2.22-2.75v-2.43h59v10.5c0 10.4-.02 10.5-2.39 10.5-1.93 0-2.51-.66-3.04-3.46-1.12-5.95-5.2-7.94-17.16-8.39l-10.12-.38-.65 4.75c-.36 2.61-.65 9.02-.65 14.25v9.5l8.5-.53c9.37-.59 13.07-2.24 14.08-6.27.44-1.78 1.3-2.49 3.01-2.49h2.39v26h-2.5c-1.7 0-2.51-.56-2.53-1.75-.09-4.95-4.85-7.25-15-7.25h-8.16l.34 14.08c.42 17.06.32 16.92 12.32 16.92 10.6 0 16.11-2.54 19-8.75 1.45-3.13 2.56-4.25 4.19-4.25 1.22 0 2.52.49 2.89 1.09.91 1.47-3.53 17.73-5.33 19.53-1.19 1.19-6.27 1.4-29.83 1.22l-28.4-.22v-2.19zm110 .23c0-1.64.93-2.74 3.18-3.75 1.75-.79 4.11-2.7 5.25-4.26 2.01-2.74 2.07-3.97 2.07-40.5 0-42.38-.08-42.89-6.99-45.17-2.74-.9-3.52-1.7-3.52-3.59v-2.42h70v25h-3c-2.45 0-3-.42-3.01-2.25-.01-3.68-3.77-8.76-7.77-10.47-2.37-1.02-7.85-1.77-14.98-2.07l-11.25-.47v34.25l8.25-.06c10.99-.08 14.76-1.44 17.08-6.2 1.49-3.06 2.37-3.75 4.75-3.75h2.92v30.13l-3.21-.32c-2.21-.22-3.38-.94-3.75-2.32-1.59-5.89-7.71-8.5-19.87-8.5h-6.39l.41 17.75c.46 20.25 1.31 23.21 7.3 25.38 2.62.95 3.51 1.84 3.51 3.56v2.3h-41v-2.32zm160-.18c0-1.83.53-2.5 1.98-2.5 3.06 0 6.56-6.24 14.17-25.24 10.18-25.45 19.84-51.32 19.84-53.16 0-1.26 1.04-1.61 4.75-1.59l4.75.02 13.49 34.57c14.64 37.54 17.34 43.38 20.76 44.87 1.38.6 2.25 1.86 2.25 3.25 0 2.26-.01 2.26-17 2.26h-17v-2.38c0-1.84.68-2.51 2.97-2.97 4.29-.86 4.55-3.77 1.21-13.66l-2.87-8.5h-23.63l-2.38 7c-3 8.82-2.82 14.85.44 15.32 1.62.23 2.25.99 2.25 2.75v2.43h-26v-2.5zm46-35.02c0-1.52-7.35-21.49-7.91-21.49-.37 0-1.39 1.91-2.27 4.25a5074.08 5074.08 0 0 1-4.17 11l-2.57 6.75h8.45c4.65 0 8.45-.24 8.45-.52zm43 35.14c0-1.79.68-2.52 2.75-2.94 5.41-1.11 5.65-2.52 6.07-35.22.43-33.74.01-36.58-5.81-38.77-1.8-.68-3.02-1.86-3.02-2.92 0-1.61 1.12-1.78 11.25-1.78h11.25l6.5 8.23c3.57 4.52 12.8 15.67 20.5 24.76 7.7 9.09 15.03 17.88 16.29 19.52l2.29 2.98-.33-22.59c-.36-24.62-.92-27.16-6.28-28.51-1.55-.39-2.49-1.33-2.49-2.52 0-1.77.92-1.89 13.5-1.89 12.67 0 13.5.11 13.5 1.93 0 1.21-.81 2.05-2.15 2.25-1.19.17-3.1 1.59-4.25 3.14-2.03 2.73-2.11 4.04-2.41 39.75l-.31 36.93h-4.36c-3.95 0-4.68-.41-7.67-4.25-2.65-3.4-45.01-55.87-46.63-57.75-.24-.28-.23 10.75.01 24.5.49 27.88 1.1 31.21 5.87 32.17 2.21.44 2.89 1.13 2.89 2.95v2.37h-27v-2.38zm175-.13c0-1.49.57-2.5 1.41-2.5 1.97 0 5.68-4.7 8.33-10.55 3.68-8.14 20.79-52.32 23.73-61.26l2.72-8.3 4.47.3 4.47.3 13.26 34c7.29 18.7 14.07 35.57 15.05 37.5 2.23 4.39 5.49 8 7.22 8 .74 0 1.32 1.09 1.32 2.5v2.5h-34v-2.5c0-1.74.54-2.5 1.8-2.5 4.84 0 5.29-4.23 1.62-15.25l-2.58-7.76h-23.47l-2.13 6.75c-4.02 12.75-3.83 16.25.88 16.25 1.33 0 1.87.72 1.87 2.5v2.5h-26v-2.5zm42.43-44.75c-1.89-5.64-3.71-10.93-4.04-11.75-.36-.9-2.36 2.93-4.97 9.5-2.41 6.05-4.39 11.33-4.4 11.75-.02.41 3.76.75 8.4.75h8.43l-3.44-10.25zm45.57 44.75c0-1.96.51-2.5 2.34-2.5 1.29 0 3.2-.95 4.25-2.11 1.77-1.96 1.92-4.26 2.2-33.25.16-17.13.04-32.15-.27-33.37-.71-2.85-4.38-6.28-6.72-6.28-1.21 0-1.81-.75-1.81-2.25 0-2.25.03-2.25 17-2.25 16.35 0 17 .07 17 2 0 1.25-1.09 2.49-2.9 3.29-1.59.7-3.36 2.5-3.93 3.99-1.46 3.83-2.29 35.03-1.38 51.89.63 11.76 1.08 14.54 2.63 16.25 1.03 1.14 2.7 2.07 3.71 2.07 1.3 0 1.84.74 1.84 2.5v2.5h-34v-2.5zm112-.18c0-1.79.55-2.32 2.42-2.32 1.43 0 3.28-1.08 4.5-2.64 1.99-2.54 2.07-3.78 2.07-34.07 0-21.98-.35-32.09-1.16-33.62-1.49-2.8-3.87-4.61-6.09-4.65-1.19-.02-1.75-.83-1.75-2.53v-2.5h60v21.13l-2.63-.32c-1.98-.24-2.91-1.16-3.75-3.72-1.97-5.97-5.27-7.49-17.17-7.94l-10.46-.39v28.23l6.25-.06c8.67-.08 12.91-1.71 14.75-5.68 1.1-2.36 2.17-3.23 4-3.25l2.5-.02V850h-2.75c-2.22 0-2.75-.46-2.75-2.35 0-4.47-3.34-6.12-13.11-6.507l-8.9-.35v14.044c0 16.93.15 17.16 11.57 17.16 11.26 0 17.13-2.858 20.07-9.75 1.48-3.49 4.95-4.488 6-1.73.7 1.82-2.12 13.56-4.24 17.65l-1.5 2.9-28.96-.218-28.95-.22v-2.32zM133.9 787.13l-2.444-1.88 5.944-9.082c3.27-4.993 6.583-9.09 7.363-9.1 3.38-.034 14.148 2.28 13.878 2.986-.53 1.406-20.27 18.99-21.29 18.974-.55-.01-2.1-.86-3.44-1.9zM6.846 718.06h1523v9h-1523v-9zm579.637-20.466c-8-2.852-12.498-10.308-11.04-18.3.98-5.385 4.03-9.154 9.427-11.655l4.722-2.19-2.874-1.65c-1.635-.94-2.875-2.5-2.875-3.62 0-1.81 7.332-9.13 9.146-9.13.43 0-.2-1.67-1.4-3.7-5.12-8.68-1.03-21.23 8.53-26.15 5.17-2.67 6.92-2.78 25.05-1.62 10.42.67 10.81.77 10.26 2.83-.32 1.17-.58 2.47-.59 2.88-.01.41-1.78.75-3.92.75h-3.91l.52 5.81c1.15 12.68-7.87 21.37-22.44 21.6-7.57.12-11.23 1.72-8.28 3.62.82.52 5.7 2.32 10.85 3.99 16.55 5.35 19.61 8.05 18.91 16.66-.74 8.94-7.93 16.74-18.34 19.87-5.96 1.79-16.72 1.77-21.8-.04zm22.266-6.174c8.11-4.045 11.63-11.754 7.19-15.772-2.99-2.707-15.98-6.862-19.35-6.19-6.86 1.37-13.26 9.727-12.08 15.76 1.62 8.288 13.79 11.403 24.22 6.202zm2.67-45.247c6.09-3.716 8.45-14.265 4.35-19.48-5.61-7.132-16.29.818-16.39 12.203-.03 3.537.48 4.78 2.77 6.75 3.37 2.9 5.21 3.006 9.27.527zm37.92 23.205c-4.39-.897-6.75-3.83-7.25-9.028-1.28-13.31 9.92-32.817 22.45-39.11 6.51-3.27 19.36-3.6 27.92-.717.77.258.2 3.677-1.78 10.708-3.87 13.76-6.09 27.52-4.82 29.9.83 1.56 1.43 1.67 4.08.75 2.44-.85 3.28-.79 3.97.31 1.44 2.28.56 3.14-5.15 5.1-7.68 2.63-11.2 2.12-12.36-1.8l-.91-3.09-4.1 2.29c-6.92 3.87-16.36 5.88-22.09 4.71zm17.29-8.99c2.91-1.382 5.94-3.51 6.74-4.73 1.33-2.037 5.41-17.038 7-25.775.65-3.58.57-3.703-3.07-4.707-6.72-1.854-13.47 3.044-18.86 13.67-5.65 11.147-7.07 21.078-3.39 23.654 2.49 1.75 4.02 1.47 11.57-2.113zm473.47 8.696c-4.49-1.065-6.07-2.623-7.3-7.178-1.86-6.908 2.44-19.975 9.76-29.64 8.76-11.576 18.5-15.483 32.89-13.192 3.78.603 7.18 1.41 7.54 1.79.36.383-.9 6.77-2.81 14.195-1.91 7.42-3.56 16.42-3.67 20l-.19 6.5 4.25-.19c3.81-.17 4.25.04 4.25 2.09 0 1.91-.94 2.56-5.77 4.03-7.95 2.4-11.64 1.89-12.05-1.68-.18-1.52-.5-2.75-.72-2.75-.22 0-2.84 1.07-5.81 2.39-4.79 2.11-14.54 4.78-16.45 4.5-.39-.06-2.16-.45-3.95-.88zm16.74-8.56c2.47-1.237 5.23-3.085 6.12-4.107 2.21-2.535 6.18-15.587 8.24-27.078.55-3.07.38-3.28-3.41-4.3-3.24-.88-4.63-.77-7.48.59-6.35 3.01-12.65 13.23-15.92 25.81-3.13 12.05.77 14.9 12.43 9.07zM72.34 666.81c-.297-1.238 1.486-10.54 3.963-20.672 4.883-19.976 4.84-21.6-.51-20.064-2.647.76-2.948.613-2.948-1.426 0-1.905.93-2.544 5.75-3.95 3.16-.924 7.324-1.783 9.25-1.91 3.294-.216 3.52-.032 3.82 3.125.177 1.845-1.548 10.986-3.833 20.313-2.285 9.327-3.887 17.655-3.56 18.507.474 1.234 1.524 1.41 5.162.865 4.352-.653 4.552-.577 4.24 1.606-.26 1.807-1.495 2.656-5.83 4.012-3.026.947-7.63 1.748-10.23 1.782-4.106.053-4.805-.237-5.275-2.19zm38.446.403l-2.28-1.846 7.746-34.035c4.26-18.72 7.6-35.326 7.42-36.904-.337-2.942-.7-3.094-4.578-1.917-1.92.59-2.25.32-2.25-1.83 0-2.91 3.51-4.32 13.25-5.31 5.58-.56 5.75-.51 5.75 1.84 0 1.33-1.576 9.56-3.5 18.29s-3.5 16.45-3.5 17.16c0 .97 1.1.81 4.34-.62 11.137-4.92 20.845-4.66 24.33.66 3.262 4.98 1.573 17.87-3.728 28.43-2.76 5.5-10.97 14.06-15.427 16.08-5.86 2.66-24.31 2.68-27.58.03zm25.304-6.34c5.015-3.55 10.604-15.54 12.18-26.13 1.58-10.61-5.433-12.727-16.633-5.02-2.366 1.627-4.264 4.05-5.244 6.693-1.813 4.892-5.548 20.856-5.548 23.714 0 4.208 9.682 4.68 15.246.742zm38.19 5.12c-2.707-2.83-2.93-3.626-2.874-10.25.143-16.88 9.74-31.99 22.96-36.147 6.594-2.074 12.396-1.37 16.286 1.974 2.242 1.93 2.692 3.135 2.692 7.225 0 10.296-9.39 18.105-22.9 19.048-3.906.273-7.43.995-7.836 1.606-1.12 1.7-.9 7.48.39 9.92 2.494 4.74 6.074 4.85 14.65.45 5.34-2.74 6.44-3.01 7.232-1.75 1.768 2.79.95 3.67-6.83 7.32-6.474 3.04-8.895 3.66-14.31 3.66-5.97 0-6.767-.26-9.456-3.07zm17.91-24.013c8.51-2.362 14.12-11.457 9.76-15.817-2.75-2.75-5.29-2.66-8.824.313-2.814 2.367-7.385 9.868-8.735 14.333-.57 1.88-.3 2.24 1.64 2.24 1.28-.01 4.05-.49 6.16-1.08zm33.656 26.738c0-.166 1.796-7.92 3.993-17.23s3.99-18.9 4-21.307v-4.37l-4 .64c-3.55.57-4 .42-4-1.36 0-2.19 3.23-3.87 11.35-5.89 5.55-1.38 7.65-.43 7.65 3.46V625l3.55-2.41c6.24-4.236 10.05-5.013 14.58-2.97 2.17.98 3.81 2.265 3.64 2.86-2.71 9.57-4.26 12.58-6.46 12.58-1.97 0-2.32-.513-2.32-3.38 0-7.274-6.33-7.326-10.92-.088-2.86 4.51-5.82 14.765-8.17 28.317-.7 4.04-1.76 7.49-2.35 7.66-1.76.51-10.57 1.47-10.57 1.14zm50.16-.963c-1.104-1.33-.497-4.924 5.22-30.946l2.36-10.75h-3.37c-1.855 0-3.372-.26-3.372-.57 0-1.57 2.24-4.44 3.457-4.44 2.44 0 7.12-4.74 9.09-9.19 2.2-4.98 3.07-5.78 6.33-5.8 2.15-.01 2.32.29 1.73 3.23a222.443 222.443 0 0 0-1.25 7l-.6 3.75h4.63c4.73 0 5.43.76 4.02 4.41-.43 1.14-1.95 1.58-5.39 1.58-5.56 0-4.64-2-9.08 19.89-3.26 16.09-3.04 17.57 2.38 16.02 4.52-1.3 4.89-1.19 4.53 1.33-.24 1.7-1.52 2.65-5.32 3.92-6.12 2.04-13.85 2.31-15.33.52zm40.337-1.29c-7.318-7.898-2.023-30.356 9.628-40.83 4.76-4.275 12.18-7.576 17.04-7.576 3.08 0 9.85 3.15 10.87 5.05 1.61 3.01 1.11 10.2-.95 13.58-4.21 6.91-13.3 11.36-23.21 11.36h-5.87v5.27c0 10.24 4.26 12.04 15.45 6.52 3.57-1.76 6.68-3 6.92-2.75.24.24.59 1.35.78 2.45.28 1.6-1.11 2.74-7.04 5.75-6.42 3.26-8.29 3.75-14.3 3.75-6.16 0-7.18-.29-9.32-2.6zm17.602-24.56c5.283-1.79 8.99-4.818 10.59-8.65 1.347-3.225 1.31-3.718-.464-6.102-2.74-3.696-5.44-3.72-9.59-.082-3.19 2.81-8.63 12.22-8.63 14.93 0 1.4 3.85 1.35 8.1-.09zm375.564 26.487c-1.42-1.412-.5-7.312 4.3-27.71 6.52-27.75 10.03-44.088 10.03-46.737 0-1.896-.41-2.08-3.5-1.58-3.19.517-3.5.352-3.5-1.83 0-2.502 2.49-3.61 12.43-5.52 5.13-.984 6.57-.334 6.57 2.976 0 1.5-3.38 17.31-7.5 35.15s-7.5 33.95-7.5 35.81l-.01 3.39 4.57-.62c4.29-.59 4.54-.49 4.25 1.58-.25 1.71-1.57 2.6-5.82 3.93-5.62 1.76-13.14 2.38-14.34 1.18zm37.69-.554c-1.23-1.986-.53-6.316 3.73-23.038 2.22-8.708 3.86-16.6 3.66-17.537-.4-1.8-.65-1.84-5.01-.813-2.33.547-2.75.326-2.75-1.423 0-2.384 4.26-4.502 12.04-5.977 5.55-1.053 7.95-.514 7.95 1.79 0 .86-2.04 10.06-4.53 20.442-2.49 10.383-4.23 19.36-3.87 19.945.4.654 2.38.832 5.09.46 4.15-.57 4.42-.468 4.12 1.6-.25 1.708-1.57 2.6-5.82 3.93-6.51 2.035-13.58 2.335-14.64.62zm36.93-.447c-.35-.91-.09-4.17.59-7.25 2.23-10.07 7.1-33.14 7.1-33.61 0-.25-1.38-.46-3.08-.46-4.34 0-3.53-2.79 1.57-5.43 3.04-1.57 4.79-3.56 7.3-8.31 2.86-5.41 3.68-6.25 6.12-6.25h2.82l-1.34 6.25c-.74 3.44-1.36 6.59-1.38 7-.02.41 2.22.75 4.97.75 5.22 0 5.34.11 4.37 3.75-.53 1.97-1.26 2.25-5.78 2.25h-5.18l-3.37 16.88c-1.85 9.28-3.1 17.58-2.76 18.45.48 1.27 1.23 1.39 3.89.63 4.58-1.31 4.81-1.24 4.81 1.43 0 2.04-.83 2.6-5.82 4-7.75 2.18-14.05 2.16-14.89-.03zm41.18-.59c-2.49-2.14-2.92-3.31-3.28-8.91-.8-12.58 4.96-26.79 13.51-33.32 9.44-7.21 19.76-8.17 25.56-2.37 2.68 2.69 2.92 3.45 2.49 7.97-.95 9.91-10.45 17.1-23.44 17.76-8.12.42-8.98 1.39-7.39 8.43 1.73 7.67 4.88 8.46 14.89 3.72 6.63-3.13 8.15-3.13 8.15.01 0 3.2-12 8.33-20.58 8.81-6.38.35-7.35.15-9.94-2.07zm21.5-26.72c6.23-3.18 8.91-10.26 5.36-14.18-4.47-4.93-12.74 1.53-16.85 13.17l-1.51 4.28 4.5-.62c2.48-.34 6.3-1.53 8.48-2.64zm239.02 28.62c0-.15 1.79-7.89 3.99-17.2 2.19-9.31 3.99-18.9 4-21.3l.01-4.37-4 .64c-3.54.57-4 .41-4-1.33 0-2.43 1.76-3.41 9.86-5.51 7.04-1.82 9.14-1.12 9.14 3.06V625l3.55-2.41c6.22-4.224 10.05-5.012 14.54-2.988 2.15.968 3.9 2.03 3.9 2.36 0 .328-1.01 3.41-2.24 6.847-1.85 5.16-2.64 6.25-4.5 6.25-1.9 0-2.26-.54-2.26-3.38 0-6.84-5.88-7.35-10.27-.89-3.34 4.91-5.04 10.23-7.78 24.27-1.23 6.32-2.52 11.78-2.85 12.12-.6.61-11.11 2.04-11.11 1.51zm115.33-1.19c-.82-2.14.12-8.3 3.99-25.93l3.28-15-2.81-.31c-3.36-.37-3.92-3.69-.8-4.69 3.51-1.11 7.57-5.23 9.53-9.68 2.19-4.97 3.07-5.77 6.33-5.79 2.15-.01 2.31.29 1.72 3.23a222.473 222.473 0 0 0-1.25 7l-.6 3.75h4.63c4.72 0 5.42.76 4.02 4.42-.44 1.14-1.95 1.58-5.39 1.58-5.56 0-4.65-2-9.09 19.9-3.26 16.09-3.04 17.57 2.37 16.02 4.52-1.29 4.88-1.18 4.52 1.34-.24 1.71-1.53 2.66-5.32 3.92-6.66 2.23-14.36 2.36-15.16.27zm40.34-1.02c-7.58-7.58-2.34-30.24 9.44-40.83 4.75-4.27 12.17-7.57 17.03-7.57 3.07 0 9.85 3.15 10.87 5.06 1.61 3.01 1.11 10.21-.95 13.58-4.24 6.95-13.31 11.37-23.33 11.37h-6l.44 6.13c.7 9.74 4.28 11.07 15.24 5.67 3.57-1.76 6.69-3 6.93-2.75.24.25.59 1.35.78 2.45.28 1.61-1.11 2.74-7.04 5.75-6.37 3.23-8.32 3.75-14.12 3.75-5.9 0-7.04-.32-9.32-2.59zm20.96-26.06c6.99-3.47 10.13-11.54 5.77-14.83-2.9-2.19-5-1.82-8.84 1.56-3.22 2.83-8.58 12.2-8.58 15 0 1.66 6.91.64 11.65-1.72zm30.35 27.79c0-.42 1.82-8.53 4.05-18.02 2.23-9.49 3.92-18.68 3.75-20.43-.29-2.98-.54-3.17-3.95-2.97-2.86.16-3.75-.21-4.15-1.72-.41-1.56.45-2.27 4.64-3.82 2.83-1.04 6.83-2.2 8.89-2.58 3.88-.7 3.81-.75 6.24 5.12.04.12 2.72-1.12 5.94-2.75 6.89-3.47 8.05-3.57 12.24-1.01l3.16 1.93-2.16 6.55c-1.81 5.46-2.54 6.55-4.42 6.57-1.89.02-2.25-.51-2.25-3.28 0-8.71-8.3-6.99-12.84 2.67-1.14 2.43-3.4 10.79-5.02 18.59-1.62 7.8-3.1 14.31-3.3 14.47-.88.74-10.85 1.4-10.85.72zm50 .01c0-.45 1.6-7.08 3.56-14.73 2.14-8.35 3.64-16.71 3.75-20.91l.18-7-3.63.28c-2.85.22-3.74-.12-4.12-1.61-.41-1.54.44-2.17 4.62-3.44 9.09-2.77 11.23-2.97 12.99-1.2.89.89 1.62 2.72 1.62 4.05 0 1.34.18 2.43.41 2.43.23 0 3.19-1.32 6.6-2.93 8.06-3.81 18.74-5.81 21.93-4.1 2.08 1.12 2.23 1.69 1.62 6.27-.37 2.78-1.99 10.5-3.6 17.15-1.61 6.66-3.05 13.69-3.2 15.61-.27 3.5-.27 3.5 3.93 3.42 2.87-.05 4.39.39 4.78 1.42.79 2.07-.16 2.74-6.43 4.58-7.11 2.08-13.66 2.1-14.45.03-.33-.85 1.2-9.57 3.39-19.37 4.4-19.64 4.654-21.88 2.565-22.68-2.16-.83-9.81 2.93-14.373 7.05-3.756 3.4-4.24 4.45-6.54 14.36-1.37 5.88-2.81 12.87-3.2 15.53-.39 2.65-1.21 4.98-1.83 5.16-3.03.91-10.62 1.37-10.62.65zm68.58-.78c-.35-.9 1.44-10.16 3.96-20.58 2.52-10.42 4.36-19.56 4.07-20.31-.4-1.04-1.3-1.13-3.82-.41-1.81.52-3.41.95-3.55.95-.14 0-.26-1.04-.26-2.31 0-1.93.88-2.58 5.25-3.9 11.85-3.58 15.51-2.97 14.31 2.38-.29 1.29-2.35 9.97-4.58 19.28-2.23 9.32-3.81 17.59-3.5 18.39.42 1.11 1.63 1.31 5.1.83 4.27-.58 4.53-.49 4.23 1.59-.62 4.28-19.75 8-21.23 4.14zm37.73.02c-.67-1.74.14-6.51 4.05-23.88 4.32-19.2 4.26-17.5.64-17.5-4.4 0-3.67-2.76 1.44-5.43 2.94-1.54 4.75-3.6 7.09-8.07 2.56-4.88 3.67-6.06 5.94-6.33 3.03-.36 3.05-.1.91 10.58l-.65 3.25h5.23c4.36 0 5.13.26 4.62 1.58-.34.87-.61 2.22-.61 3 0 1.05-1.4 1.42-5.38 1.42h-5.38l-3.3 16.82c-1.82 9.25-3.02 17.55-2.68 18.45.51 1.33 1.22 1.46 3.92.69 4.58-1.32 4.81-1.25 4.81 1.42 0 2.03-.83 2.6-5.82 4-7.67 2.15-14.05 2.16-14.87.01zm41.1-.69c-2.87-2.47-2.93-2.72-2.93-12.41 0-9.42.18-10.24 3.78-17.53 4.42-8.93 9.49-13.77 17.64-16.82 14.19-5.31 24.39 3.72 18.1 16.03-3.55 6.97-13.03 11.99-22.66 12.03-5.79.02-6.18.17-6.8 2.65-.84 3.33.21 8.36 2.21 10.62 2.27 2.58 6.18 2.15 13.16-1.45 5.2-2.68 6.35-2.96 7.12-1.75 1.77 2.8.89 3.88-5.8 7.11-5.16 2.49-8.43 3.36-13.83 3.65-6.42.36-7.35.16-10-2.12zm21.78-26.92c6.75-3.8 9.01-11.27 4.33-14.34-1.85-1.21-3.17-1.38-5.25-.69-3.53 1.17-8.57 7.71-10.65 13.82l-1.61 4.72 4.59-.63c2.52-.35 6.39-1.64 8.58-2.87zM.03 666.34c.187-.97 1.234-1.92 2.327-2.12 2.97-.548 5.564-3.18 7.59-7.708 2.688-6.005 10.98-47.755 11.206-56.41.19-7.38.162-7.474-3.02-9.5-6.204-3.953-4.545-4.546 12.713-4.546 13.672 0 16 .22 16 1.52 0 .9-1.247 1.772-3.03 2.13-6.378 1.275-8.8 7.57-14.82 38.54-5.626 28.942-5.57 28.382-3.044 30.91 1.92 1.92 2.966 2.084 10.76 1.692 10.485-.53 14.273-2.3 17.935-8.36 2.885-4.78 3-4.86 5.068-3.55 1.148.72 1.105 1.65-.266 5.73-.9 2.673-2.66 6.663-3.91 8.863l-2.27 4-26.8.27c-25.09.25-26.78.16-26.46-1.49zm505.816.3c0-.773 1.687-2.24 3.75-3.25 2.613-1.27 4.415-3.19 5.943-6.33 2.86-5.88 11.52-48.463 11.68-57.45.12-6.795.05-7.006-3.09-9-6.71-4.27-5.2-4.546 25.28-4.546 27.95 0 28.55.04 27.94 1.97-.35 1.084-1.19 5.02-1.87 8.75-1.06 5.755-1.58 6.83-3.45 7.104-1.79.26-2.2-.174-2.2-2.318 0-6.64-3.94-8.504-17.96-8.504h-9.66l-2.78 12.75c-1.53 7.02-2.99 13.54-3.26 14.5-.44 1.57.41 1.75 8.33 1.74 9.95-.02 12.89-1.08 15.81-5.73 2.6-4.14 5.99-4.47 5.2-.51-.3 1.51-1.35 6.91-2.32 12-1.4 7.29-2.13 9.25-3.45 9.25-1.06 0-1.9-1.09-2.27-2.95-.33-1.62-1.62-3.5-2.88-4.18-2.4-1.29-18.13-1.86-19.29-.7-.68.67-3.63 15.08-4.92 24.02-.63 4.295-.47 4.834 1.88 6.37 2.06 1.35 4.27 1.595 11.3 1.24 10.43-.524 14.14-2.19 18.43-8.28 1.86-2.63 3.61-4.15 4.44-3.833 1.94.747 1.71 2.535-1.24 9.59-4.38 10.465-1.88 9.72-32.56 9.72-22.5 0-26.84-.23-26.84-1.42zm508 .027c0-.796 1.462-1.946 3.25-2.556 6.313-2.15 8.4-7.86 14.715-40.23 5.44-27.88 5.31-32.34-1.02-34.34-1.12-.36-1.87-1.18-1.66-1.82.28-.84 8.11-1.24 28.13-1.43 27.27-.26 27.73-.23 27.11 1.72-.34 1.09-1.19 5.04-1.87 8.77-1.06 5.75-1.58 6.83-3.44 7.1-1.85.27-2.19-.16-2.19-2.75 0-6.31-4.87-8.4-18.43-7.87l-7.94.3-2.78 13c-1.53 7.15-2.79 13.56-2.81 14.25-.05 1.84 15.23 1.68 18.88-.2 1.55-.8 3.38-2.82 4.07-4.5.78-1.86 1.99-3.04 3.14-3.04 2.33 0 2.35-.73-.27 12.75-1.83 9.45-2.48 11.25-4.01 11.25-1.1 0-1.83-.72-1.83-1.83 0-4.66-9.35-8.13-17.99-6.67l-3.82.65-2.03 11.18c-3.57 19.71-3.42 21.5 2.01 23.75 5.98 2.48 2.53 3.43-13.5 3.71-13.13.23-15.66.04-15.66-1.17zM427.24 645.15c-4.473-2.03-8.394-8.31-8.394-13.44 0-7.943 7.022-15.047 14.846-15.02 9.358.034 15.143 5.75 15.15 14.97.01 11.718-10.734 18.426-21.602 13.49zm508.985.472c-1.717-.747-4.4-3.036-5.966-5.088-2.32-3.042-2.84-4.688-2.77-8.923.13-9.18 5.84-14.83 15-14.83 4.53 0 6.04.5 9.14 2.99 6.9 5.55 7.97 14.86 2.47 21.41-4.63 5.51-11.53 7.22-17.88 4.46zm-597.86-35.543c-1.968-2.18-2.11-1.95 9.255-14.89l3.834-4.37 5.696 1.27c3.133.7 5.696 1.57 5.696 1.94 0 .67-21.412 18.01-22.245 18.01-.24 0-1.25-.89-2.23-1.98zm508.752-.01l-2.218-1.8 7.54-8.61c4.15-4.74 7.93-8.61 8.4-8.61 2.44 0 11.01 2.45 10.77 3.09-.25.66-18.88 15.64-21.28 17.11-.56.34-2.01-.2-3.23-1.19zm664.765.01l-2.413-1.82 7.81-8.61c4.29-4.73 8.17-8.61 8.61-8.61 1.98 0 10.95 2.4 10.9 2.92-.05.54-18.93 15.78-21.38 17.25-.62.37-2.21-.15-3.54-1.15zm-1427.14-5.13c-4.064-4.07-.098-11.9 6.023-11.9 4.258 0 6.48 2.23 6.48 6.51 0 6.67-7.84 10.05-12.503 5.38zm674.854.71c-2.458-1.87-2.312-8.05.25-10.61 4.124-4.13 12-1.44 12 4.1 0 5.99-7.604 10.03-12.25 6.5zm664.146-.71c-4.135-4.13-.08-11.9 6.215-11.9 6.28 0 8.973 7 4.434 11.54-3.08 3.08-7.76 3.23-10.64.35zm-876.1-28.58c-1.528-1.71-1.163-2.32 6.07-10.19l7.697-8.37 5.71 1.28c3.14.7 5.69 1.54 5.67 1.87-.08.95-20.16 16.33-21.93 16.79-.88.23-2.34-.4-3.23-1.39z"/><path d="M880.1 520l2.333-6.033c3.953-10.9 8.054-19.217 13.97-28.343 6.27-9.667 20.068-23.907 25.808-26.632 7.06-3.35 15.83-4.53 26.67-3.587 9.32.81 37.93 5.488 49.47 8.09 8.79 1.98 21.66 2.17 27.71.408 11.67-3.394 18.58-9.954 21.86-20.747 2.52-8.28 2.5-15.804-.06-20.823-3.43-6.74-2.85-8.493 5.5-16.48 4.13-3.943 7.51-7.59 7.52-8.104.04-2.67-5.68-13.39-7.15-13.42-.9-.02-2.68-.87-3.95-1.91l-2.32-1.88 4.96-2.54c6.77-3.46 11.79-8.85 11.79-12.64 0-1.64-1.43-5.66-3.17-8.93-3.34-6.28-4.24-12.29-2.36-15.81 1.25-2.33 3.39-3.31 13.94-6.36 8.86-2.56 12.07-5.16 13.33-10.8 1.08-4.83.55-7.93-2.35-13.73-2.36-4.72-17.73-28.27-22.21-34.03-6.01-7.73-13.34-21.09-15.51-28.27-2.13-7.08-2.15-7.48-.59-16.63 3.3-19.35 1.37-35.39-8.01-66.67-6.97-23.25-8.84-28.89-11.02-33.24-3.94-7.86-3.42-9.7 4.68-16.33 3.88-3.17 7.48-6.57 8-7.56 2.45-4.57-.29-13.38-4.92-15.86-2.94-1.58-4.58-.5-7.56 4.99-2.26 4.15-3.15 4.94-5.57 4.94-3.94 0-4.63-1.65-2.11-5.06 2.94-3.97 2.7-4.61-1.9-5.23-3.45-.46-5.27-1.81-12.75-9.43-10.02-10.21-16.76-14.91-30.18-21.09-6.16-2.83-8.3-4.17-6.04-3.77 1.92.33 8.73.87 15.12 1.19 18.55.93 23.06-1.52 27.38-14.89 2.94-9.07 4.34-13.27-2.39-19.6L983.25 0H1538v520H880.1z" fill="#e2011c"/><path d="M407.033 520c-4.026-.423-7.517-.606-7.758-.847-.423-.424 4.124-3.347 24.95-16.04 6.68-4.07 9.427-6.252 8.5-6.748-.755-.403-6.586-1.043-12.958-1.42-9.467-.562-12.21-.4-15 .88-1.878.864-9.372 3.133-16.653 5.044-18.06 4.73-24.137 7.99-29.936 16.02l-2.166 3.11H0V0h706.34l-13.687 8.934c-7.534 3.74-16.29 8.936-19.458 11.545-10.743 8.85-25.21 28.98-28.823 40.11-1.328 4.09-2.534 5.62-6.608 8.4-6.217 4.24-13.663 12.33-19.83 21.54-8.373 12.51-24.332 40.69-27.468 48.51-4.864 12.13-4.422 21.37 2.757 57.62 3.16 15.96 6.58 32.17 7.6 36.02 1.02 3.85 2.135 10.38 2.48 14.51.614 7.37 1.093 8.96 5.407 18.01 1.182 2.48 2.147 5.29 2.145 6.24-.002.96.897 2.3 1.997 2.99 1.14.71 2 2.33 2 3.77 0 1.73 2.278 5.02 7.28 10.51 11.445 12.57 19.72 24.35 19.72 28.07 0 3.06-4.488 3.85-11.72 2.06-8.452-2.09-15.367-6.6-26.03-16.97-4.537-4.42-8.25-7.39-8.25-6.6s3.11 4.89 6.914 9.12c7.562 8.41 8.748 10.71 7.113 13.77-1.44 2.67-4.92 3.45-9.62 2.15-5.44-1.5-8.62.59-7.73 5.08.55 2.75.4 3.07-1.16 2.48-3.07-1.18-9.8-2.53-15.84-3.19-5.56-.6-5.97-.85-9.33-5.53-2.55-3.55-4.53-5.18-7.19-5.93-9.93-2.79-34.61-7.08-51.18-8.91-29.13-3.21-36.15-3.46-50.1-1.8-10.72 1.27-13.63 2.02-19.5 5-10.39 5.29-28.4 21.84-28.4 26.11 0 2 3.97 1.29 8.5-1.51 13.76-8.53 60.88-20.56 84-21.45 11.46-.44 10.84.11-2.91 2.57-3.8.68-12.8 2.99-20 5.122-7.2 2.14-19.62 5.43-27.59 7.32-7.98 1.89-16.98 4.32-20 5.41l-5.5 1.976 8.5.09c43.31.47 92.68 14.22 112.77 31.41 8.64 7.39 11.81 8.29 24.52 6.95 17.43-1.84 39.98-10.16 49.88-18.4 4.29-3.577 7.82-5 7.82-3.15-.01 3.27-5.7 20.84-8.16 25.2-2.74 4.86-2.9 5.56-1.47 6.605.87.64 1.34 1.42 1.03 1.725-.31.31.37.86 1.52 1.22 3.28 1.04 2.45 2.05-2.78 3.396-5.11 1.31-9.15 3.6-9.15 5.19 0 .52.7.944 1.56.944 2.57 0 .65 1.794-2.7 2.53-2.3.506-2.76.92-1.74 1.564 1 .63 1.04.88.13.89-.69.006-1.25 1.03-1.25 2.27 0 1.545-.94 2.676-3 3.586-5 2.22-3.6 3.42 3.25 2.78 3.44-.32 5.58-.32 4.75.01-.82.327-6.45 2.87-12.5 5.66-6.05 2.78-13.92 6.09-17.5 7.35-4.04 1.42-6.63 2.92-6.85 3.967-.35 1.684 1.53 1.63 6.26-.187.87-.338 1.58-.227 1.57.244-.01.47-10.43 6.487-23.15 13.367-12.72 6.88-24.61 13.97-26.44 15.76-1.83 1.79-4.16 3.25-5.19 3.25-1.04 0-2.39 1.14-3.03 2.55-1.94 4.27-1.54 4.79 3.09 3.99 6.88-1.18 10.03-1.116 10.49.22.25.72-.4 1.25-1.53 1.25-1.08 0-2.5.65-3.16 1.44-.66.79-2.4 1.58-3.86 1.75-1.7.2-3.39 1.46-4.68 3.494-1.11 1.75-2.92 3.42-4.02 3.7-1.1.28.47.33 3.5.108 44.98-3.343 53.36-5.01 71.5-14.21 15.47-7.85 31.54-19.51 42.97-31.2 3.28-3.36 6.32-6.104 6.75-6.104 1.55 0 .71 5.61-1.58 10.54-3.97 8.54-12.31 16.4-29.43 27.77-8.64 5.74-17.96 11.14-20.71 12.002-8.6 2.71-22.47 5.59-37.01 7.69-47.38 6.85-65.51 12.04-83.46 23.92-3.01 1.99-6.16 3.49-7.01 3.35-.85-.15-3.12 1.08-5.04 2.72-5.4 4.61-1.49 3.83 9.7-1.94 11.47-5.92 16.85-6.85 7.8-1.35-11.09 6.74-19.55 10.96-27.828 10.96H407zm-58.847-58.006c1.798-.752 7.746-4.084 13.218-7.405 5.472-3.33 11.974-6.96 14.45-8.09 2.474-1.12 9.45-4.28 15.5-7.01 12.68-5.73 31.29-11.12 32.36-9.39.375.61 3.148 1.28 6.16 1.49 4.218.29 4.96.56 3.23 1.18-1.24.43-2.25 1.19-2.25 1.67 0 1.81 9.358 1.26 13.298-.77 1.545-.8 5.034-1.72 7.755-2.04 3.382-.4 4.946-1.05 4.946-2.04 0-1.13.86-1.31 3.913-.79 4.203.71 13.243-1 37.587-7.11 16.486-4.14 28.973-8.31 39.94-13.32l7.94-3.64-7.94-5.09c-19.353-12.4-38.785-20.02-81.44-31.92-7.425-2.07-13.95-4.22-14.5-4.76-.663-.66-.327-.75 1-.28 4.26 1.52 7.5 1.82 7.5.67 0-1.48-3.22-2.68-9.548-3.54-5.787-.79-9.522-2.52-5.502-2.55 6.222-.04-4.475-3.99-16.45-6.07-8.866-1.55-9.377-1.88-5.673-3.67 3.227-1.56 6.698-7.48 5.784-9.86-.775-2.02-1.742-1.82-6.537 1.41-9.245 6.21-17.725 16.38-22.49 26.98-2.72 6.05-1.778 6.6 12.214 7.2 11.46.49 11.64.53 8.71 2.11-1.65.89-4.96 1.91-7.35 2.28-8.13 1.25-12.65 5.11-8.62 7.37 1.2.67.72 1.23-2.22 2.64-3.29 1.57-3.52 1.9-1.94 2.79.99.55 3.87.84 6.39.64 3.51-.28 5.12.1 6.81 1.61l2.21 1.97-4.43 2.81c-2.44 1.55-5.2 4.26-6.13 6.02-.93 1.76-4.28 5.96-7.45 9.33-3.16 3.37-5.75 6.85-5.75 7.74 0 .89-4.61 5.31-10.25 9.82-15.16 12.13-21.75 18.8-21.75 22.01 0 1.7-.85 3.23-2.36 4.21-4.73 3.1-7.2 6.69-4.6 6.69.57 0 2.5-.62 4.3-1.37zm116.98-11.693c3.746-.5 8.085-1.66 9.64-2.58l2.83-1.67-4.825-2.4-4.82-2.4-4.81 1.96a472.093 472.093 0 0 1-8.15 3.22c-7.38 2.8-8.34 6.55-1.41 5.52a996.54 996.54 0 0 1 11.56-1.62zm-169.314-45.5c22.285-23.31 38.01-37.14 57.972-50.99 6.783-4.7 11.562-7.42 11.798-6.71.648 1.95 3.554 1.37 8.284-1.63 5.436-3.45 8.156-6.95 14.942-19.2 7.038-12.71 9.698-15.89 19.86-23.72a1632.255 1632.255 0 0 0 15.555-12.15c5.478-4.35 6.794-5.04 6.344-3.31-.35 1.34-.11 2.18.623 2.18 2.272 0 12.976-4.57 13.353-5.7.59-1.76-10.287-3.59-18.33-3.07-6.177.4-8.365 1.12-16.028 5.25-18.01 9.73-31.017 20.22-55.858 45.06-17.876 17.87-31.958 29.86-39.076 33.25-2.31 1.11-4.06 3.43-6.87 9.14-5.46 11.09-15.22 27.01-24.48 39.95-8.75 12.23-10.63 16.46-3.83 8.62 2.34-2.69 9.43-10.31 15.75-16.92zm223 109.48c26.763-5.56 29.718-5.98 48.5-6.8 21.09-.92 23.777-1.47 36.464-7.44 4.065-1.91 5.66-2.25 6.224-1.35.984 1.57 7.865-2.18 21.312-11.61 5.5-3.86 13.278-8.79 17.284-10.96 6.036-3.26 7.883-3.83 10.787-3.28 3.1.59 4.018.21 7.978-3.28 10.98-9.66 20.35-14.13 29.71-14.16 2.79-.01 3.75.41 3.75 1.6 0 1.02.55 1.4 1.5 1.04 2.79-1.07 1.53.15-5.64 5.47-8.3 6.16-7.48 8.01.96 2.16 8.17-5.66 8.19-5.66 8.19-3.38 0 1.31-3.07 4.58-8.75 9.32-12.91 10.78-22.05 19.69-35.97 35.07L648.68 520H490.35l28.5-5.728zm.25-203.7c.962-.25 2.537-.25 3.5 0 .962.25.175.46-1.75.46s-2.713-.2-1.75-.45z" fill="#003189"/><path d="M985.584 272.516c-4.367-.66-2.113-2.283 3.17-2.283 5.303 0 8.097-2.037 8.097-5.9 0-1.817-.39-2.115-2.08-1.577-1.46.464-2.5.073-3.46-1.3-.89-1.283-3.07-2.188-6.26-2.612-5.7-.757-14.94-6.268-13.28-7.925.57-.57 3.5-1.24 6.53-1.49 5.21-.43 5.56-.63 6.62-3.84.8-2.4 1.9-3.57 3.79-4.01 1.47-.35 3.8-1.67 5.17-2.94 1.38-1.27 5.88-4.51 10-7.2 6.94-4.53 11.24-9.35 9.7-10.89-1.62-1.62-16.63-3.38-23.69-2.78-8.2.7-22.33 3.68-28.25 5.96-6.06 2.34-4.29.3 4.05-4.65 11.26-6.68 32.92-12.91 44.9-12.91 4.65 0 20.21 3.67 22.06 5.21 3.63 3.01-.33 13.57-7.06 18.84l-2.81 2.2 2.31 2.46 2.31 2.46-2.36 1.91c-1.3 1.05-3.08 1.91-3.95 1.91s-3.04 1.41-4.81 3.13c-2.73 2.65-3.08 3.5-2.29 5.57.61 1.6.55 3.15-.17 4.5-.67 1.25-.84 4.12-.43 7.38.83 6.66-.37 9.04-5.23 10.39-3.6 1-16.79 1.19-22.5.33z" fill="#7f7f7f"/></svg>